%TF.GenerationSoftware,KiCad,Pcbnew,9.0.3*%
%TF.CreationDate,2025-12-07T20:29:12-06:00*%
%TF.ProjectId,IsolatedADSBoard,49736f6c-6174-4656-9441-4453426f6172,rev?*%
%TF.SameCoordinates,Original*%
%TF.FileFunction,Copper,L2,Inr*%
%TF.FilePolarity,Positive*%
%FSLAX46Y46*%
G04 Gerber Fmt 4.6, Leading zero omitted, Abs format (unit mm)*
G04 Created by KiCad (PCBNEW 9.0.3) date 2025-12-07 20:29:12*
%MOMM*%
%LPD*%
G01*
G04 APERTURE LIST*
%TA.AperFunction,ComponentPad*%
%ADD10C,1.500000*%
%TD*%
%TA.AperFunction,ComponentPad*%
%ADD11R,1.700000X1.700000*%
%TD*%
%TA.AperFunction,ComponentPad*%
%ADD12C,1.700000*%
%TD*%
%TA.AperFunction,ViaPad*%
%ADD13C,0.600000*%
%TD*%
G04 APERTURE END LIST*
D10*
%TO.N,GND*%
%TO.C,U14*%
X134620000Y-48006000D03*
%TO.N,VDD*%
X137160000Y-48006000D03*
%TO.N,Gnd-iso*%
X139700000Y-48006000D03*
%TO.N,5V-iso*%
X142240000Y-48006000D03*
%TD*%
D11*
%TO.N,5V-iso*%
%TO.C,J2*%
X144780000Y-52070000D03*
D12*
%TO.N,Gnd-iso*%
X144780000Y-54610000D03*
%TO.N,/Signal2-ISO*%
X144780000Y-57150000D03*
%TO.N,/Signal1-ISO*%
X144780000Y-59690000D03*
%TO.N,/AIN3*%
X144780000Y-62230000D03*
%TO.N,/AIN2*%
X144780000Y-64770000D03*
%TO.N,/AIN1*%
X144780000Y-67310000D03*
%TO.N,/AIN0*%
X144780000Y-69850000D03*
%TD*%
D11*
%TO.N,VDD*%
%TO.C,J1*%
X127000000Y-52070000D03*
D12*
%TO.N,GND*%
X127000000Y-54610000D03*
%TO.N,SDA*%
X127000000Y-57150000D03*
%TO.N,SCL*%
X127000000Y-59690000D03*
%TO.N,/Signal2-MCU*%
X127000000Y-62230000D03*
%TO.N,/Signal1-MCU*%
X127000000Y-64770000D03*
%TD*%
D13*
%TO.N,Gnd-iso*%
X130810000Y-72390000D03*
X130302000Y-65532000D03*
X139700000Y-72136000D03*
X139954000Y-59563000D03*
X137414000Y-74168000D03*
%TO.N,5V-iso*%
X137922000Y-69850000D03*
X134112000Y-65532000D03*
X140716000Y-61976000D03*
X139954000Y-55753000D03*
%TO.N,GND*%
X129032000Y-44704000D03*
X132080000Y-58949500D03*
X129286000Y-62230000D03*
%TO.N,VDD*%
X133604000Y-60706000D03*
X131931500Y-55753000D03*
X129032000Y-45720000D03*
%TO.N,SCL-5V*%
X136271000Y-57277000D03*
X137299550Y-66687550D03*
%TO.N,SDA-5V*%
X137037000Y-56642000D03*
X138938000Y-66282000D03*
%TO.N,SDA*%
X131826000Y-57404000D03*
%TO.N,SCL*%
X135076499Y-57606499D03*
%TD*%
%TA.AperFunction,Conductor*%
%TO.N,GND*%
G36*
X131340172Y-43696869D02*
G01*
X138352054Y-46501621D01*
X138406986Y-46544794D01*
X138429858Y-46610815D01*
X138430000Y-46616751D01*
X138430000Y-47244893D01*
X138410315Y-47311932D01*
X138357511Y-47357687D01*
X138288353Y-47367631D01*
X138224797Y-47338606D01*
X138205682Y-47317779D01*
X138169727Y-47268292D01*
X138113828Y-47191354D01*
X137974646Y-47052172D01*
X137815405Y-46936476D01*
X137640029Y-46847117D01*
X137452826Y-46786290D01*
X137258422Y-46755500D01*
X137258417Y-46755500D01*
X137061583Y-46755500D01*
X137061578Y-46755500D01*
X136867173Y-46786290D01*
X136679970Y-46847117D01*
X136504594Y-46936476D01*
X136413741Y-47002485D01*
X136345354Y-47052172D01*
X136345352Y-47052174D01*
X136345351Y-47052174D01*
X136206174Y-47191351D01*
X136206174Y-47191352D01*
X136206172Y-47191354D01*
X136156485Y-47259741D01*
X136090476Y-47350594D01*
X136000204Y-47527764D01*
X135952229Y-47578560D01*
X135884408Y-47595355D01*
X135818274Y-47572818D01*
X135779234Y-47527764D01*
X135689096Y-47350858D01*
X135663678Y-47315873D01*
X135663677Y-47315873D01*
X135020000Y-47959551D01*
X135020000Y-47953339D01*
X134992741Y-47851606D01*
X134940080Y-47760394D01*
X134865606Y-47685920D01*
X134774394Y-47633259D01*
X134672661Y-47606000D01*
X134666447Y-47606000D01*
X135310125Y-46962320D01*
X135310125Y-46962319D01*
X135275145Y-46936905D01*
X135099835Y-46847581D01*
X134912705Y-46786778D01*
X134718382Y-46756000D01*
X134521618Y-46756000D01*
X134327294Y-46786778D01*
X134140161Y-46847582D01*
X133964863Y-46936899D01*
X133964859Y-46936902D01*
X133929873Y-46962320D01*
X133929872Y-46962320D01*
X134573554Y-47606000D01*
X134567339Y-47606000D01*
X134465606Y-47633259D01*
X134374394Y-47685920D01*
X134299920Y-47760394D01*
X134247259Y-47851606D01*
X134220000Y-47953339D01*
X134220000Y-47959552D01*
X133576320Y-47315872D01*
X133576320Y-47315873D01*
X133550902Y-47350859D01*
X133550899Y-47350863D01*
X133461582Y-47526161D01*
X133400778Y-47713294D01*
X133370000Y-47907617D01*
X133370000Y-48104382D01*
X133400778Y-48298705D01*
X133461581Y-48485835D01*
X133550905Y-48661145D01*
X133576319Y-48696125D01*
X133576320Y-48696125D01*
X134220000Y-48052445D01*
X134220000Y-48058661D01*
X134247259Y-48160394D01*
X134299920Y-48251606D01*
X134374394Y-48326080D01*
X134465606Y-48378741D01*
X134567339Y-48406000D01*
X134573553Y-48406000D01*
X133929873Y-49049677D01*
X133929873Y-49049678D01*
X133964858Y-49075096D01*
X134140164Y-49164418D01*
X134327294Y-49225221D01*
X134521618Y-49256000D01*
X134718382Y-49256000D01*
X134912705Y-49225221D01*
X135099835Y-49164418D01*
X135275143Y-49075095D01*
X135310125Y-49049678D01*
X135310126Y-49049678D01*
X134666448Y-48406000D01*
X134672661Y-48406000D01*
X134774394Y-48378741D01*
X134865606Y-48326080D01*
X134940080Y-48251606D01*
X134992741Y-48160394D01*
X135020000Y-48058661D01*
X135020000Y-48052447D01*
X135663678Y-48696126D01*
X135663678Y-48696125D01*
X135689097Y-48661141D01*
X135779234Y-48484236D01*
X135827208Y-48433439D01*
X135895029Y-48416644D01*
X135961164Y-48439181D01*
X136000204Y-48484235D01*
X136001115Y-48486024D01*
X136001116Y-48486025D01*
X136090476Y-48661405D01*
X136206172Y-48820646D01*
X136345354Y-48959828D01*
X136504595Y-49075524D01*
X136587455Y-49117743D01*
X136679970Y-49164882D01*
X136679972Y-49164882D01*
X136679975Y-49164884D01*
X136780317Y-49197487D01*
X136867173Y-49225709D01*
X137061578Y-49256500D01*
X137061583Y-49256500D01*
X137258422Y-49256500D01*
X137452826Y-49225709D01*
X137454328Y-49225221D01*
X137640025Y-49164884D01*
X137815405Y-49075524D01*
X137974646Y-48959828D01*
X138113828Y-48820646D01*
X138205682Y-48694219D01*
X138261012Y-48651555D01*
X138330626Y-48645576D01*
X138392421Y-48678182D01*
X138426778Y-48739021D01*
X138430000Y-48767106D01*
X138430000Y-49327609D01*
X138410315Y-49394648D01*
X138357511Y-49440403D01*
X138340065Y-49446838D01*
X136963935Y-49840017D01*
X136894068Y-49839507D01*
X136867871Y-49828176D01*
X136747698Y-49758795D01*
X136674752Y-49716680D01*
X136460330Y-49627863D01*
X136460331Y-49627863D01*
X136460328Y-49627862D01*
X136318203Y-49589780D01*
X136236149Y-49567794D01*
X136207386Y-49564007D01*
X136006052Y-49537500D01*
X136006045Y-49537500D01*
X135773955Y-49537500D01*
X135773947Y-49537500D01*
X135543851Y-49567794D01*
X135319671Y-49627862D01*
X135105254Y-49716677D01*
X135105237Y-49716685D01*
X134904256Y-49832720D01*
X134904254Y-49832721D01*
X134720124Y-49974009D01*
X134720117Y-49974015D01*
X134556015Y-50138117D01*
X134556009Y-50138124D01*
X134414721Y-50322254D01*
X134414720Y-50322256D01*
X134298685Y-50523237D01*
X134298677Y-50523254D01*
X134209862Y-50737671D01*
X134149794Y-50961851D01*
X134119500Y-51191947D01*
X134119500Y-51424052D01*
X134149794Y-51654148D01*
X134209862Y-51878328D01*
X134298677Y-52092745D01*
X134298685Y-52092762D01*
X134414720Y-52293743D01*
X134414721Y-52293745D01*
X134556009Y-52477875D01*
X134556015Y-52477882D01*
X134720117Y-52641984D01*
X134720124Y-52641990D01*
X134904254Y-52783278D01*
X134904256Y-52783279D01*
X135105237Y-52899314D01*
X135105241Y-52899316D01*
X135105248Y-52899320D01*
X135105253Y-52899322D01*
X135105259Y-52899325D01*
X135184407Y-52932109D01*
X135305453Y-52982248D01*
X135359856Y-53026088D01*
X135381921Y-53092382D01*
X135382000Y-53096808D01*
X135382000Y-56699989D01*
X135362315Y-56767028D01*
X135309511Y-56812783D01*
X135240353Y-56822727D01*
X135233810Y-56821607D01*
X135155341Y-56805999D01*
X134997657Y-56805999D01*
X134997654Y-56805999D01*
X134843009Y-56836760D01*
X134842997Y-56836763D01*
X134697326Y-56897101D01*
X134697313Y-56897108D01*
X134566210Y-56984709D01*
X134566206Y-56984712D01*
X134454712Y-57096206D01*
X134454709Y-57096210D01*
X134367108Y-57227313D01*
X134367101Y-57227326D01*
X134306763Y-57372997D01*
X134306760Y-57373009D01*
X134275999Y-57527652D01*
X134275999Y-57685345D01*
X134306760Y-57839988D01*
X134306763Y-57840000D01*
X134367101Y-57985671D01*
X134367108Y-57985684D01*
X134454709Y-58116787D01*
X134454712Y-58116791D01*
X134566206Y-58228285D01*
X134566210Y-58228288D01*
X134697313Y-58315889D01*
X134697326Y-58315896D01*
X134842997Y-58376234D01*
X134843002Y-58376236D01*
X134997652Y-58406998D01*
X134997655Y-58406999D01*
X134997657Y-58406999D01*
X135155343Y-58406999D01*
X135233808Y-58391391D01*
X135303400Y-58397618D01*
X135358577Y-58440481D01*
X135381822Y-58506370D01*
X135382000Y-58513008D01*
X135382000Y-63630000D01*
X135362315Y-63697039D01*
X135309511Y-63742794D01*
X135258000Y-63754000D01*
X127939495Y-63754000D01*
X127919862Y-63748235D01*
X127899417Y-63747345D01*
X127876728Y-63735569D01*
X127872456Y-63734315D01*
X127867981Y-63731300D01*
X127867258Y-63730789D01*
X127707816Y-63614949D01*
X127691115Y-63606439D01*
X127683835Y-63601300D01*
X127667440Y-63580627D01*
X127648259Y-63562512D01*
X127646072Y-63553683D01*
X127640420Y-63546556D01*
X127637804Y-63520299D01*
X127631463Y-63494692D01*
X127634396Y-63486082D01*
X127633495Y-63477030D01*
X127645489Y-63453528D01*
X127653999Y-63428556D01*
X127661593Y-63421975D01*
X127665257Y-63414797D01*
X127679369Y-63406572D01*
X127699054Y-63389515D01*
X127707816Y-63385051D01*
X127729789Y-63369086D01*
X127879786Y-63260109D01*
X127879788Y-63260106D01*
X127879792Y-63260104D01*
X128030104Y-63109792D01*
X128030106Y-63109788D01*
X128030109Y-63109786D01*
X128155048Y-62937820D01*
X128155047Y-62937820D01*
X128155051Y-62937816D01*
X128251557Y-62748412D01*
X128317246Y-62546243D01*
X128350500Y-62336287D01*
X128350500Y-62123713D01*
X128317246Y-61913757D01*
X128251557Y-61711588D01*
X128155051Y-61522184D01*
X128155049Y-61522181D01*
X128155048Y-61522179D01*
X128030109Y-61350213D01*
X127879786Y-61199890D01*
X127707820Y-61074951D01*
X127707115Y-61074591D01*
X127699054Y-61070485D01*
X127648259Y-61022512D01*
X127631463Y-60954692D01*
X127653999Y-60888556D01*
X127699054Y-60849515D01*
X127707816Y-60845051D01*
X127790682Y-60784846D01*
X127879786Y-60720109D01*
X127879788Y-60720106D01*
X127879792Y-60720104D01*
X127972743Y-60627153D01*
X132803500Y-60627153D01*
X132803500Y-60784846D01*
X132834261Y-60939489D01*
X132834264Y-60939501D01*
X132894602Y-61085172D01*
X132894609Y-61085185D01*
X132982210Y-61216288D01*
X132982213Y-61216292D01*
X133093707Y-61327786D01*
X133093711Y-61327789D01*
X133224814Y-61415390D01*
X133224827Y-61415397D01*
X133370498Y-61475735D01*
X133370503Y-61475737D01*
X133525153Y-61506499D01*
X133525156Y-61506500D01*
X133525158Y-61506500D01*
X133682844Y-61506500D01*
X133682845Y-61506499D01*
X133837497Y-61475737D01*
X133983179Y-61415394D01*
X134114289Y-61327789D01*
X134225789Y-61216289D01*
X134313394Y-61085179D01*
X134373737Y-60939497D01*
X134404500Y-60784842D01*
X134404500Y-60627158D01*
X134404500Y-60627155D01*
X134404499Y-60627153D01*
X134393088Y-60569788D01*
X134373737Y-60472503D01*
X134342801Y-60397816D01*
X134313397Y-60326827D01*
X134313390Y-60326814D01*
X134225789Y-60195711D01*
X134225786Y-60195707D01*
X134114292Y-60084213D01*
X134114288Y-60084210D01*
X133983185Y-59996609D01*
X133983172Y-59996602D01*
X133837501Y-59936264D01*
X133837489Y-59936261D01*
X133682845Y-59905500D01*
X133682842Y-59905500D01*
X133525158Y-59905500D01*
X133525155Y-59905500D01*
X133370510Y-59936261D01*
X133370498Y-59936264D01*
X133224827Y-59996602D01*
X133224814Y-59996609D01*
X133093711Y-60084210D01*
X133093707Y-60084213D01*
X132982213Y-60195707D01*
X132982210Y-60195711D01*
X132894609Y-60326814D01*
X132894602Y-60326827D01*
X132834264Y-60472498D01*
X132834261Y-60472510D01*
X132803500Y-60627153D01*
X127972743Y-60627153D01*
X128030104Y-60569792D01*
X128030107Y-60569788D01*
X128045805Y-60548182D01*
X128045805Y-60548181D01*
X128100788Y-60472503D01*
X128155051Y-60397816D01*
X128251557Y-60208412D01*
X128317246Y-60006243D01*
X128350500Y-59796287D01*
X128350500Y-59583713D01*
X128317246Y-59373757D01*
X128251557Y-59171588D01*
X128155051Y-58982184D01*
X128155049Y-58982181D01*
X128155048Y-58982179D01*
X128030109Y-58810213D01*
X127879786Y-58659890D01*
X127707820Y-58534951D01*
X127707115Y-58534591D01*
X127699054Y-58530485D01*
X127648259Y-58482512D01*
X127631463Y-58414692D01*
X127653999Y-58348556D01*
X127699054Y-58309515D01*
X127707816Y-58305051D01*
X127813472Y-58228288D01*
X127879786Y-58180109D01*
X127879788Y-58180106D01*
X127879792Y-58180104D01*
X128030104Y-58029792D01*
X128030106Y-58029788D01*
X128030109Y-58029786D01*
X128155048Y-57857820D01*
X128155047Y-57857820D01*
X128155051Y-57857816D01*
X128251557Y-57668412D01*
X128317246Y-57466243D01*
X128339593Y-57325153D01*
X131025500Y-57325153D01*
X131025500Y-57482846D01*
X131056261Y-57637489D01*
X131056264Y-57637501D01*
X131116602Y-57783172D01*
X131116609Y-57783185D01*
X131204210Y-57914288D01*
X131204213Y-57914292D01*
X131315707Y-58025786D01*
X131315711Y-58025789D01*
X131446814Y-58113390D01*
X131446827Y-58113397D01*
X131592498Y-58173735D01*
X131592503Y-58173737D01*
X131747153Y-58204499D01*
X131747156Y-58204500D01*
X131747158Y-58204500D01*
X131904844Y-58204500D01*
X131904845Y-58204499D01*
X132059497Y-58173737D01*
X132205179Y-58113394D01*
X132336289Y-58025789D01*
X132447789Y-57914289D01*
X132535394Y-57783179D01*
X132595737Y-57637497D01*
X132626500Y-57482842D01*
X132626500Y-57325158D01*
X132626500Y-57325155D01*
X132626499Y-57325153D01*
X132614293Y-57263789D01*
X132595737Y-57170503D01*
X132564964Y-57096210D01*
X132535397Y-57024827D01*
X132535390Y-57024814D01*
X132447789Y-56893711D01*
X132447786Y-56893707D01*
X132336289Y-56782210D01*
X132223906Y-56707119D01*
X132179101Y-56653507D01*
X132170394Y-56584182D01*
X132200548Y-56521155D01*
X132245341Y-56489457D01*
X132310679Y-56462394D01*
X132441789Y-56374789D01*
X132553289Y-56263289D01*
X132640894Y-56132179D01*
X132701237Y-55986497D01*
X132732000Y-55831842D01*
X132732000Y-55674158D01*
X132732000Y-55674155D01*
X132731999Y-55674153D01*
X132701238Y-55519510D01*
X132701237Y-55519503D01*
X132701235Y-55519498D01*
X132640897Y-55373827D01*
X132640890Y-55373814D01*
X132553289Y-55242711D01*
X132553286Y-55242707D01*
X132441792Y-55131213D01*
X132441788Y-55131210D01*
X132310685Y-55043609D01*
X132310672Y-55043602D01*
X132165001Y-54983264D01*
X132164989Y-54983261D01*
X132010345Y-54952500D01*
X132010342Y-54952500D01*
X131852658Y-54952500D01*
X131852655Y-54952500D01*
X131698010Y-54983261D01*
X131697998Y-54983264D01*
X131552327Y-55043602D01*
X131552314Y-55043609D01*
X131421211Y-55131210D01*
X131421207Y-55131213D01*
X131309713Y-55242707D01*
X131309710Y-55242711D01*
X131222109Y-55373814D01*
X131222102Y-55373827D01*
X131161764Y-55519498D01*
X131161761Y-55519510D01*
X131131000Y-55674153D01*
X131131000Y-55831846D01*
X131161761Y-55986489D01*
X131161764Y-55986501D01*
X131222102Y-56132172D01*
X131222109Y-56132185D01*
X131309710Y-56263288D01*
X131309713Y-56263292D01*
X131421207Y-56374786D01*
X131421215Y-56374792D01*
X131533592Y-56449880D01*
X131578398Y-56503492D01*
X131587105Y-56572817D01*
X131556951Y-56635844D01*
X131512156Y-56667543D01*
X131446820Y-56694606D01*
X131446814Y-56694609D01*
X131315711Y-56782210D01*
X131315707Y-56782213D01*
X131204213Y-56893707D01*
X131204210Y-56893711D01*
X131116609Y-57024814D01*
X131116602Y-57024827D01*
X131056264Y-57170498D01*
X131056261Y-57170510D01*
X131025500Y-57325153D01*
X128339593Y-57325153D01*
X128350500Y-57256287D01*
X128350500Y-57043713D01*
X128317246Y-56833757D01*
X128251557Y-56631588D01*
X128155051Y-56442184D01*
X128155049Y-56442181D01*
X128155048Y-56442179D01*
X128030109Y-56270213D01*
X127879786Y-56119890D01*
X127707817Y-55994949D01*
X127698504Y-55990204D01*
X127647707Y-55942230D01*
X127630912Y-55874409D01*
X127653449Y-55808274D01*
X127698507Y-55769232D01*
X127707555Y-55764622D01*
X127761716Y-55725270D01*
X127761717Y-55725270D01*
X127129409Y-55092962D01*
X127192993Y-55075925D01*
X127307007Y-55010099D01*
X127400099Y-54917007D01*
X127465925Y-54802993D01*
X127482962Y-54739408D01*
X128115270Y-55371717D01*
X128115270Y-55371716D01*
X128154622Y-55317554D01*
X128251095Y-55128217D01*
X128316757Y-54926130D01*
X128316757Y-54926127D01*
X128350000Y-54716246D01*
X128350000Y-54503753D01*
X128316757Y-54293872D01*
X128316757Y-54293869D01*
X128251095Y-54091782D01*
X128154624Y-53902449D01*
X128115270Y-53848282D01*
X128115269Y-53848282D01*
X127482962Y-54480590D01*
X127465925Y-54417007D01*
X127400099Y-54302993D01*
X127307007Y-54209901D01*
X127192993Y-54144075D01*
X127129407Y-54127036D01*
X127799627Y-53456818D01*
X127860950Y-53423333D01*
X127887307Y-53420499D01*
X127897872Y-53420499D01*
X127957483Y-53414091D01*
X128092331Y-53363796D01*
X128207546Y-53277546D01*
X128293796Y-53162331D01*
X128344091Y-53027483D01*
X128350500Y-52967873D01*
X128350499Y-51172128D01*
X128344091Y-51112517D01*
X128333688Y-51084626D01*
X128293797Y-50977671D01*
X128293793Y-50977664D01*
X128207547Y-50862455D01*
X128207544Y-50862452D01*
X128092335Y-50776206D01*
X128092328Y-50776202D01*
X127957482Y-50725908D01*
X127957483Y-50725908D01*
X127897883Y-50719501D01*
X127897881Y-50719500D01*
X127897873Y-50719500D01*
X127897865Y-50719500D01*
X127124000Y-50719500D01*
X127056961Y-50699815D01*
X127011206Y-50647011D01*
X127000000Y-50595500D01*
X127000000Y-45641153D01*
X128231500Y-45641153D01*
X128231500Y-45798846D01*
X128262261Y-45953489D01*
X128262264Y-45953501D01*
X128322602Y-46099172D01*
X128322609Y-46099185D01*
X128410210Y-46230288D01*
X128410213Y-46230292D01*
X128521707Y-46341786D01*
X128521711Y-46341789D01*
X128652814Y-46429390D01*
X128652827Y-46429397D01*
X128798498Y-46489735D01*
X128798503Y-46489737D01*
X128953153Y-46520499D01*
X128953156Y-46520500D01*
X128953158Y-46520500D01*
X129110844Y-46520500D01*
X129110845Y-46520499D01*
X129265497Y-46489737D01*
X129411179Y-46429394D01*
X129542289Y-46341789D01*
X129653789Y-46230289D01*
X129741394Y-46099179D01*
X129801737Y-45953497D01*
X129832500Y-45798842D01*
X129832500Y-45641158D01*
X129832500Y-45641155D01*
X129832499Y-45641153D01*
X129801738Y-45486510D01*
X129801737Y-45486503D01*
X129801735Y-45486498D01*
X129741397Y-45340827D01*
X129741390Y-45340814D01*
X129653789Y-45209711D01*
X129653786Y-45209707D01*
X129542292Y-45098213D01*
X129542288Y-45098210D01*
X129411185Y-45010609D01*
X129411172Y-45010602D01*
X129265501Y-44950264D01*
X129265489Y-44950261D01*
X129110845Y-44919500D01*
X129110842Y-44919500D01*
X128953158Y-44919500D01*
X128953155Y-44919500D01*
X128798510Y-44950261D01*
X128798498Y-44950264D01*
X128652827Y-45010602D01*
X128652814Y-45010609D01*
X128521711Y-45098210D01*
X128521707Y-45098213D01*
X128410213Y-45209707D01*
X128410210Y-45209711D01*
X128322609Y-45340814D01*
X128322602Y-45340827D01*
X128262264Y-45486498D01*
X128262261Y-45486510D01*
X128231500Y-45641153D01*
X127000000Y-45641153D01*
X127000000Y-43812000D01*
X127019685Y-43744961D01*
X127072489Y-43699206D01*
X127124000Y-43688000D01*
X131294120Y-43688000D01*
X131340172Y-43696869D01*
G37*
%TD.AperFunction*%
%TD*%
%TA.AperFunction,Conductor*%
%TO.N,Gnd-iso*%
G36*
X144723039Y-46755685D02*
G01*
X144768794Y-46808489D01*
X144780000Y-46860000D01*
X144780000Y-50595500D01*
X144760315Y-50662539D01*
X144707511Y-50708294D01*
X144656000Y-50719500D01*
X143882129Y-50719500D01*
X143882123Y-50719501D01*
X143822516Y-50725908D01*
X143687671Y-50776202D01*
X143687664Y-50776206D01*
X143572455Y-50862452D01*
X143572452Y-50862455D01*
X143486206Y-50977664D01*
X143486202Y-50977671D01*
X143435908Y-51112517D01*
X143429501Y-51172116D01*
X143429500Y-51172135D01*
X143429500Y-52967870D01*
X143429501Y-52967876D01*
X143435908Y-53027483D01*
X143486202Y-53162328D01*
X143486206Y-53162335D01*
X143572452Y-53277544D01*
X143572455Y-53277547D01*
X143687664Y-53363793D01*
X143687671Y-53363797D01*
X143732618Y-53380561D01*
X143822517Y-53414091D01*
X143882127Y-53420500D01*
X143892685Y-53420499D01*
X143959723Y-53440179D01*
X143980372Y-53456818D01*
X144650591Y-54127037D01*
X144587007Y-54144075D01*
X144472993Y-54209901D01*
X144379901Y-54302993D01*
X144314075Y-54417007D01*
X144297037Y-54480591D01*
X143664728Y-53848282D01*
X143664727Y-53848282D01*
X143625380Y-53902439D01*
X143528904Y-54091782D01*
X143463242Y-54293869D01*
X143463242Y-54293872D01*
X143430000Y-54503753D01*
X143430000Y-54716246D01*
X143463242Y-54926127D01*
X143463242Y-54926130D01*
X143528904Y-55128217D01*
X143625375Y-55317550D01*
X143664728Y-55371716D01*
X144297037Y-54739408D01*
X144314075Y-54802993D01*
X144379901Y-54917007D01*
X144472993Y-55010099D01*
X144587007Y-55075925D01*
X144650588Y-55092962D01*
X144018282Y-55725269D01*
X144018282Y-55725270D01*
X144072452Y-55764626D01*
X144072451Y-55764626D01*
X144081495Y-55769234D01*
X144132292Y-55817208D01*
X144149087Y-55885029D01*
X144126550Y-55951164D01*
X144081499Y-55990202D01*
X144072182Y-55994949D01*
X143900213Y-56119890D01*
X143749890Y-56270213D01*
X143624951Y-56442179D01*
X143528444Y-56631585D01*
X143462753Y-56833760D01*
X143429500Y-57043713D01*
X143429500Y-57256286D01*
X143454120Y-57411735D01*
X143462754Y-57466243D01*
X143524470Y-57656185D01*
X143528444Y-57668414D01*
X143624951Y-57857820D01*
X143749890Y-58029786D01*
X143900213Y-58180109D01*
X144072182Y-58305050D01*
X144080946Y-58309516D01*
X144131742Y-58357491D01*
X144148536Y-58425312D01*
X144125998Y-58491447D01*
X144080946Y-58530484D01*
X144072182Y-58534949D01*
X143900213Y-58659890D01*
X143749890Y-58810213D01*
X143624951Y-58982179D01*
X143528444Y-59171585D01*
X143462753Y-59373760D01*
X143444005Y-59492132D01*
X143429500Y-59583713D01*
X143429500Y-59796287D01*
X143462754Y-60006243D01*
X143503900Y-60132878D01*
X143528444Y-60208414D01*
X143624951Y-60397820D01*
X143749890Y-60569786D01*
X143900213Y-60720109D01*
X144072182Y-60845050D01*
X144080946Y-60849516D01*
X144131742Y-60897491D01*
X144148536Y-60965312D01*
X144125998Y-61031447D01*
X144080946Y-61070484D01*
X144072182Y-61074949D01*
X143900213Y-61199890D01*
X143749890Y-61350213D01*
X143624951Y-61522179D01*
X143528444Y-61711585D01*
X143462753Y-61913760D01*
X143429500Y-62123713D01*
X143429500Y-62336286D01*
X143453258Y-62486292D01*
X143462754Y-62546243D01*
X143527574Y-62745738D01*
X143528444Y-62748414D01*
X143624951Y-62937820D01*
X143749890Y-63109786D01*
X143900213Y-63260109D01*
X144072182Y-63385050D01*
X144080946Y-63389516D01*
X144131742Y-63437491D01*
X144148536Y-63505312D01*
X144125998Y-63571447D01*
X144080946Y-63610484D01*
X144072182Y-63614949D01*
X143900213Y-63739890D01*
X143749890Y-63890213D01*
X143624951Y-64062179D01*
X143528444Y-64251585D01*
X143462753Y-64453760D01*
X143429500Y-64663713D01*
X143429500Y-64876287D01*
X143462754Y-65086243D01*
X143484384Y-65152814D01*
X143528444Y-65288414D01*
X143624951Y-65477820D01*
X143749890Y-65649786D01*
X143900213Y-65800109D01*
X144072182Y-65925050D01*
X144080946Y-65929516D01*
X144131742Y-65977491D01*
X144148536Y-66045312D01*
X144125998Y-66111447D01*
X144080946Y-66150484D01*
X144072182Y-66154949D01*
X143900213Y-66279890D01*
X143749890Y-66430213D01*
X143624951Y-66602179D01*
X143528444Y-66791585D01*
X143462753Y-66993760D01*
X143448698Y-67082500D01*
X143429500Y-67203713D01*
X143429500Y-67416287D01*
X143435994Y-67457287D01*
X143462753Y-67626239D01*
X143528444Y-67828414D01*
X143624951Y-68017820D01*
X143749890Y-68189786D01*
X143900213Y-68340109D01*
X144072182Y-68465050D01*
X144080946Y-68469516D01*
X144131742Y-68517491D01*
X144148536Y-68585312D01*
X144125998Y-68651447D01*
X144080946Y-68690484D01*
X144072182Y-68694949D01*
X143900213Y-68819890D01*
X143749890Y-68970213D01*
X143624951Y-69142179D01*
X143528444Y-69331585D01*
X143462753Y-69533760D01*
X143429500Y-69743713D01*
X143429500Y-69956286D01*
X143456955Y-70129634D01*
X143462754Y-70166243D01*
X143525803Y-70360288D01*
X143528444Y-70368414D01*
X143624951Y-70557820D01*
X143749890Y-70729786D01*
X143900213Y-70880109D01*
X144072179Y-71005048D01*
X144072181Y-71005049D01*
X144072184Y-71005051D01*
X144261588Y-71101557D01*
X144463757Y-71167246D01*
X144673713Y-71200500D01*
X144673716Y-71200500D01*
X144674878Y-71200684D01*
X144738012Y-71230613D01*
X144774944Y-71289924D01*
X144773946Y-71359787D01*
X144743161Y-71410838D01*
X141506819Y-74647181D01*
X141445496Y-74680666D01*
X141419138Y-74683500D01*
X128648000Y-74683500D01*
X128580961Y-74663815D01*
X128535206Y-74611011D01*
X128524000Y-74559500D01*
X128524000Y-71800579D01*
X128540612Y-71738580D01*
X128591320Y-71650752D01*
X128680137Y-71436330D01*
X128740206Y-71212149D01*
X128770500Y-70982045D01*
X128770500Y-70749955D01*
X128740206Y-70519851D01*
X128680137Y-70295670D01*
X128591320Y-70081248D01*
X128540613Y-69993420D01*
X128536462Y-69977931D01*
X128529023Y-69966355D01*
X128524000Y-69931420D01*
X128524000Y-69771153D01*
X137121500Y-69771153D01*
X137121500Y-69928846D01*
X137152261Y-70083489D01*
X137152264Y-70083501D01*
X137212602Y-70229172D01*
X137212609Y-70229185D01*
X137300210Y-70360288D01*
X137300213Y-70360292D01*
X137411707Y-70471786D01*
X137411711Y-70471789D01*
X137542814Y-70559390D01*
X137542827Y-70559397D01*
X137688498Y-70619735D01*
X137688503Y-70619737D01*
X137843153Y-70650499D01*
X137843156Y-70650500D01*
X137843158Y-70650500D01*
X138000844Y-70650500D01*
X138000845Y-70650499D01*
X138155497Y-70619737D01*
X138301179Y-70559394D01*
X138432289Y-70471789D01*
X138543789Y-70360289D01*
X138631394Y-70229179D01*
X138691737Y-70083497D01*
X138722500Y-69928842D01*
X138722500Y-69771158D01*
X138722500Y-69771155D01*
X138722499Y-69771153D01*
X138717041Y-69743713D01*
X138691737Y-69616503D01*
X138656740Y-69532011D01*
X138631397Y-69470827D01*
X138631390Y-69470814D01*
X138543789Y-69339711D01*
X138543786Y-69339707D01*
X138432292Y-69228213D01*
X138432288Y-69228210D01*
X138301185Y-69140609D01*
X138301172Y-69140602D01*
X138155501Y-69080264D01*
X138155489Y-69080261D01*
X138000845Y-69049500D01*
X138000842Y-69049500D01*
X137843158Y-69049500D01*
X137843155Y-69049500D01*
X137688510Y-69080261D01*
X137688498Y-69080264D01*
X137542827Y-69140602D01*
X137542814Y-69140609D01*
X137411711Y-69228210D01*
X137411707Y-69228213D01*
X137300213Y-69339707D01*
X137300210Y-69339711D01*
X137212609Y-69470814D01*
X137212602Y-69470827D01*
X137152264Y-69616498D01*
X137152261Y-69616510D01*
X137121500Y-69771153D01*
X128524000Y-69771153D01*
X128524000Y-66608703D01*
X136499050Y-66608703D01*
X136499050Y-66766396D01*
X136529811Y-66921039D01*
X136529814Y-66921051D01*
X136590152Y-67066722D01*
X136590159Y-67066735D01*
X136677760Y-67197838D01*
X136677763Y-67197842D01*
X136789257Y-67309336D01*
X136789261Y-67309339D01*
X136920364Y-67396940D01*
X136920377Y-67396947D01*
X136967069Y-67416287D01*
X137066053Y-67457287D01*
X137220703Y-67488049D01*
X137220706Y-67488050D01*
X137220708Y-67488050D01*
X137378394Y-67488050D01*
X137378395Y-67488049D01*
X137533047Y-67457287D01*
X137678729Y-67396944D01*
X137809839Y-67309339D01*
X137921339Y-67197839D01*
X138008944Y-67066729D01*
X138069287Y-66921047D01*
X138087265Y-66830661D01*
X138119649Y-66768753D01*
X138180364Y-66734179D01*
X138250134Y-66737918D01*
X138306806Y-66778784D01*
X138311982Y-66785962D01*
X138316206Y-66792283D01*
X138316213Y-66792292D01*
X138427707Y-66903786D01*
X138427711Y-66903789D01*
X138558814Y-66991390D01*
X138558827Y-66991397D01*
X138704498Y-67051735D01*
X138704503Y-67051737D01*
X138859153Y-67082499D01*
X138859156Y-67082500D01*
X138859158Y-67082500D01*
X139016844Y-67082500D01*
X139016845Y-67082499D01*
X139171497Y-67051737D01*
X139317179Y-66991394D01*
X139448289Y-66903789D01*
X139559789Y-66792289D01*
X139647394Y-66661179D01*
X139707737Y-66515497D01*
X139738500Y-66360842D01*
X139738500Y-66203158D01*
X139738500Y-66203155D01*
X139738499Y-66203153D01*
X139733348Y-66177257D01*
X139707737Y-66048503D01*
X139678323Y-65977491D01*
X139647397Y-65902827D01*
X139647390Y-65902814D01*
X139559789Y-65771711D01*
X139559786Y-65771707D01*
X139448292Y-65660213D01*
X139448288Y-65660210D01*
X139317185Y-65572609D01*
X139317172Y-65572602D01*
X139171501Y-65512264D01*
X139171489Y-65512261D01*
X139016845Y-65481500D01*
X139016842Y-65481500D01*
X138859158Y-65481500D01*
X138859155Y-65481500D01*
X138704510Y-65512261D01*
X138704498Y-65512264D01*
X138558827Y-65572602D01*
X138558814Y-65572609D01*
X138427711Y-65660210D01*
X138427707Y-65660213D01*
X138316213Y-65771707D01*
X138316210Y-65771711D01*
X138228609Y-65902814D01*
X138228602Y-65902827D01*
X138168264Y-66048498D01*
X138168261Y-66048508D01*
X138150284Y-66138886D01*
X138117899Y-66200797D01*
X138057183Y-66235371D01*
X137987414Y-66231631D01*
X137930742Y-66190764D01*
X137925565Y-66183585D01*
X137921339Y-66177261D01*
X137921336Y-66177257D01*
X137809842Y-66065763D01*
X137809838Y-66065760D01*
X137678735Y-65978159D01*
X137678722Y-65978152D01*
X137533051Y-65917814D01*
X137533039Y-65917811D01*
X137378395Y-65887050D01*
X137378392Y-65887050D01*
X137220708Y-65887050D01*
X137220705Y-65887050D01*
X137066060Y-65917811D01*
X137066048Y-65917814D01*
X136920377Y-65978152D01*
X136920364Y-65978159D01*
X136789261Y-66065760D01*
X136789257Y-66065763D01*
X136677763Y-66177257D01*
X136677760Y-66177261D01*
X136590159Y-66308364D01*
X136590152Y-66308377D01*
X136529814Y-66454048D01*
X136529811Y-66454060D01*
X136499050Y-66608703D01*
X128524000Y-66608703D01*
X128524000Y-65453153D01*
X133311500Y-65453153D01*
X133311500Y-65610846D01*
X133342261Y-65765489D01*
X133342264Y-65765501D01*
X133402602Y-65911172D01*
X133402609Y-65911185D01*
X133490210Y-66042288D01*
X133490213Y-66042292D01*
X133601707Y-66153786D01*
X133601711Y-66153789D01*
X133732814Y-66241390D01*
X133732827Y-66241397D01*
X133878498Y-66301735D01*
X133878503Y-66301737D01*
X134033153Y-66332499D01*
X134033156Y-66332500D01*
X134033158Y-66332500D01*
X134190844Y-66332500D01*
X134190845Y-66332499D01*
X134345497Y-66301737D01*
X134491179Y-66241394D01*
X134622289Y-66153789D01*
X134733789Y-66042289D01*
X134821394Y-65911179D01*
X134824854Y-65902827D01*
X134879163Y-65771711D01*
X134881737Y-65765497D01*
X134912500Y-65610842D01*
X134912500Y-65453158D01*
X134912500Y-65453155D01*
X134912499Y-65453153D01*
X134881738Y-65298510D01*
X134881737Y-65298503D01*
X134877557Y-65288412D01*
X134821397Y-65152827D01*
X134821390Y-65152814D01*
X134733789Y-65021711D01*
X134733786Y-65021707D01*
X134622292Y-64910213D01*
X134622288Y-64910210D01*
X134491185Y-64822609D01*
X134491172Y-64822602D01*
X134345501Y-64762264D01*
X134345489Y-64762261D01*
X134190845Y-64731500D01*
X134190842Y-64731500D01*
X134033158Y-64731500D01*
X134033155Y-64731500D01*
X133878510Y-64762261D01*
X133878498Y-64762264D01*
X133732827Y-64822602D01*
X133732814Y-64822609D01*
X133601711Y-64910210D01*
X133601707Y-64910213D01*
X133490213Y-65021707D01*
X133490210Y-65021711D01*
X133402609Y-65152814D01*
X133402602Y-65152827D01*
X133342264Y-65298498D01*
X133342261Y-65298510D01*
X133311500Y-65453153D01*
X128524000Y-65453153D01*
X128524000Y-64386000D01*
X128543685Y-64318961D01*
X128596489Y-64273206D01*
X128648000Y-64262000D01*
X135318499Y-64262000D01*
X135318500Y-64262000D01*
X135318500Y-64261999D01*
X135331383Y-64256663D01*
X135362219Y-64248792D01*
X135362169Y-64248480D01*
X135365441Y-64247948D01*
X135365456Y-64247947D01*
X135416967Y-64236741D01*
X135451197Y-64225347D01*
X135519497Y-64202616D01*
X135519501Y-64202613D01*
X135519504Y-64202613D01*
X135640543Y-64124825D01*
X135693347Y-64079070D01*
X135787567Y-63970336D01*
X135847338Y-63839459D01*
X135867023Y-63772420D01*
X135867024Y-63772416D01*
X135871047Y-63744430D01*
X135884519Y-63714929D01*
X135880560Y-63713289D01*
X135890000Y-63690500D01*
X135890000Y-61897153D01*
X139915500Y-61897153D01*
X139915500Y-62054846D01*
X139946261Y-62209489D01*
X139946264Y-62209501D01*
X140006602Y-62355172D01*
X140006609Y-62355185D01*
X140094210Y-62486288D01*
X140094213Y-62486292D01*
X140205707Y-62597786D01*
X140205711Y-62597789D01*
X140336814Y-62685390D01*
X140336827Y-62685397D01*
X140482498Y-62745735D01*
X140482503Y-62745737D01*
X140637153Y-62776499D01*
X140637156Y-62776500D01*
X140637158Y-62776500D01*
X140794844Y-62776500D01*
X140794845Y-62776499D01*
X140949497Y-62745737D01*
X141095179Y-62685394D01*
X141226289Y-62597789D01*
X141337789Y-62486289D01*
X141425394Y-62355179D01*
X141485737Y-62209497D01*
X141516500Y-62054842D01*
X141516500Y-61897158D01*
X141516500Y-61897155D01*
X141516499Y-61897153D01*
X141485738Y-61742510D01*
X141485737Y-61742503D01*
X141472932Y-61711588D01*
X141425397Y-61596827D01*
X141425390Y-61596814D01*
X141337789Y-61465711D01*
X141337786Y-61465707D01*
X141226292Y-61354213D01*
X141226288Y-61354210D01*
X141095185Y-61266609D01*
X141095172Y-61266602D01*
X140949501Y-61206264D01*
X140949489Y-61206261D01*
X140794845Y-61175500D01*
X140794842Y-61175500D01*
X140637158Y-61175500D01*
X140637155Y-61175500D01*
X140482510Y-61206261D01*
X140482498Y-61206264D01*
X140336827Y-61266602D01*
X140336814Y-61266609D01*
X140205711Y-61354210D01*
X140205707Y-61354213D01*
X140094213Y-61465707D01*
X140094210Y-61465711D01*
X140006609Y-61596814D01*
X140006602Y-61596827D01*
X139946264Y-61742498D01*
X139946261Y-61742510D01*
X139915500Y-61897153D01*
X135890000Y-61897153D01*
X135890000Y-58168491D01*
X135909685Y-58101452D01*
X135962489Y-58055697D01*
X136031647Y-58045753D01*
X136038192Y-58046874D01*
X136192155Y-58077500D01*
X136192158Y-58077500D01*
X136349844Y-58077500D01*
X136349845Y-58077499D01*
X136504497Y-58046737D01*
X136650179Y-57986394D01*
X136781289Y-57898789D01*
X136892789Y-57787289D01*
X136980394Y-57656179D01*
X136980395Y-57656176D01*
X136980397Y-57656173D01*
X137039323Y-57513910D01*
X137083163Y-57459506D01*
X137129693Y-57439745D01*
X137158757Y-57433963D01*
X137270497Y-57411737D01*
X137416179Y-57351394D01*
X137547289Y-57263789D01*
X137658789Y-57152289D01*
X137746394Y-57021179D01*
X137806737Y-56875497D01*
X137837500Y-56720842D01*
X137837500Y-56563158D01*
X137837500Y-56563155D01*
X137837499Y-56563153D01*
X137826025Y-56505468D01*
X137806737Y-56408503D01*
X137804834Y-56403909D01*
X137746397Y-56262827D01*
X137746390Y-56262814D01*
X137658789Y-56131711D01*
X137658786Y-56131707D01*
X137547292Y-56020213D01*
X137547288Y-56020210D01*
X137416185Y-55932609D01*
X137416172Y-55932602D01*
X137270501Y-55872264D01*
X137270489Y-55872261D01*
X137115845Y-55841500D01*
X137115842Y-55841500D01*
X136958158Y-55841500D01*
X136958155Y-55841500D01*
X136803510Y-55872261D01*
X136803498Y-55872264D01*
X136657827Y-55932602D01*
X136657814Y-55932609D01*
X136526711Y-56020210D01*
X136526707Y-56020213D01*
X136415213Y-56131707D01*
X136415210Y-56131711D01*
X136327609Y-56262814D01*
X136327604Y-56262823D01*
X136268676Y-56405090D01*
X136263694Y-56411271D01*
X136261869Y-56418997D01*
X136242086Y-56438085D01*
X136224835Y-56459493D01*
X136216021Y-56463236D01*
X136211590Y-56467512D01*
X136178307Y-56479254D01*
X136038192Y-56507125D01*
X135968600Y-56500898D01*
X135913423Y-56458035D01*
X135890178Y-56392145D01*
X135890000Y-56385508D01*
X135890000Y-55674153D01*
X139153500Y-55674153D01*
X139153500Y-55831846D01*
X139184261Y-55986489D01*
X139184264Y-55986501D01*
X139244602Y-56132172D01*
X139244609Y-56132185D01*
X139332210Y-56263288D01*
X139332213Y-56263292D01*
X139443707Y-56374786D01*
X139443711Y-56374789D01*
X139574814Y-56462390D01*
X139574827Y-56462397D01*
X139682812Y-56507125D01*
X139720503Y-56522737D01*
X139875153Y-56553499D01*
X139875156Y-56553500D01*
X139875158Y-56553500D01*
X140032844Y-56553500D01*
X140032845Y-56553499D01*
X140187497Y-56522737D01*
X140333179Y-56462394D01*
X140464289Y-56374789D01*
X140575789Y-56263289D01*
X140663394Y-56132179D01*
X140723737Y-55986497D01*
X140754500Y-55831842D01*
X140754500Y-55674158D01*
X140754500Y-55674155D01*
X140754499Y-55674153D01*
X140723738Y-55519510D01*
X140723737Y-55519503D01*
X140723735Y-55519498D01*
X140663397Y-55373827D01*
X140663390Y-55373814D01*
X140575789Y-55242711D01*
X140575786Y-55242707D01*
X140464292Y-55131213D01*
X140464288Y-55131210D01*
X140333185Y-55043609D01*
X140333172Y-55043602D01*
X140187501Y-54983264D01*
X140187489Y-54983261D01*
X140032845Y-54952500D01*
X140032842Y-54952500D01*
X139875158Y-54952500D01*
X139875155Y-54952500D01*
X139720510Y-54983261D01*
X139720498Y-54983264D01*
X139574827Y-55043602D01*
X139574814Y-55043609D01*
X139443711Y-55131210D01*
X139443707Y-55131213D01*
X139332213Y-55242707D01*
X139332210Y-55242711D01*
X139244609Y-55373814D01*
X139244602Y-55373827D01*
X139184264Y-55519498D01*
X139184261Y-55519510D01*
X139153500Y-55674153D01*
X135890000Y-55674153D01*
X135890000Y-53202244D01*
X135909685Y-53135205D01*
X135962489Y-53089450D01*
X136002078Y-53079473D01*
X136002020Y-53079030D01*
X136005828Y-53078528D01*
X136005910Y-53078508D01*
X136006028Y-53078500D01*
X136006045Y-53078500D01*
X136236149Y-53048206D01*
X136460330Y-52988137D01*
X136674752Y-52899320D01*
X136875748Y-52783276D01*
X137059877Y-52641989D01*
X137223989Y-52477877D01*
X137365276Y-52293748D01*
X137481320Y-52092752D01*
X137570137Y-51878330D01*
X137630206Y-51654149D01*
X137660500Y-51424045D01*
X137660500Y-51191955D01*
X137630206Y-50961851D01*
X137570137Y-50737670D01*
X137481320Y-50523248D01*
X137481314Y-50523237D01*
X137409435Y-50398737D01*
X137392962Y-50330837D01*
X137415815Y-50264810D01*
X137470736Y-50221620D01*
X137482746Y-50217512D01*
X138153412Y-50025894D01*
X138478930Y-49932890D01*
X138480773Y-49932287D01*
X138514999Y-49921104D01*
X138532445Y-49914669D01*
X138567504Y-49900222D01*
X138688543Y-49822434D01*
X138741347Y-49776679D01*
X138835567Y-49667945D01*
X138895338Y-49537068D01*
X138915023Y-49470029D01*
X138915024Y-49470025D01*
X138935500Y-49327609D01*
X138935500Y-49221725D01*
X138955185Y-49154686D01*
X139007989Y-49108931D01*
X139077147Y-49098987D01*
X139115795Y-49111240D01*
X139220164Y-49164418D01*
X139407294Y-49225221D01*
X139601618Y-49256000D01*
X139798382Y-49256000D01*
X139992705Y-49225221D01*
X140179835Y-49164418D01*
X140355143Y-49075095D01*
X140390125Y-49049678D01*
X140390126Y-49049678D01*
X139746447Y-48406000D01*
X139752661Y-48406000D01*
X139854394Y-48378741D01*
X139945606Y-48326080D01*
X140020080Y-48251606D01*
X140072741Y-48160394D01*
X140100000Y-48058661D01*
X140100000Y-48052448D01*
X140743678Y-48696126D01*
X140743678Y-48696125D01*
X140769097Y-48661141D01*
X140859234Y-48484236D01*
X140907208Y-48433439D01*
X140975029Y-48416644D01*
X141041164Y-48439181D01*
X141080204Y-48484235D01*
X141081115Y-48486024D01*
X141081116Y-48486025D01*
X141170476Y-48661405D01*
X141286172Y-48820646D01*
X141425354Y-48959828D01*
X141584595Y-49075524D01*
X141654692Y-49111240D01*
X141759970Y-49164882D01*
X141759972Y-49164882D01*
X141759975Y-49164884D01*
X141860317Y-49197487D01*
X141947173Y-49225709D01*
X142141578Y-49256500D01*
X142141583Y-49256500D01*
X142338422Y-49256500D01*
X142532826Y-49225709D01*
X142545087Y-49221725D01*
X142720025Y-49164884D01*
X142895405Y-49075524D01*
X143054646Y-48959828D01*
X143193828Y-48820646D01*
X143309524Y-48661405D01*
X143398884Y-48486025D01*
X143459709Y-48298826D01*
X143467188Y-48251606D01*
X143490500Y-48104422D01*
X143490500Y-47907577D01*
X143459709Y-47713173D01*
X143398882Y-47525970D01*
X143351743Y-47433455D01*
X143309524Y-47350595D01*
X143193828Y-47191354D01*
X143054646Y-47052172D01*
X142928219Y-46960317D01*
X142885555Y-46904988D01*
X142879576Y-46835374D01*
X142912182Y-46773579D01*
X142973021Y-46739222D01*
X143001106Y-46736000D01*
X144656000Y-46736000D01*
X144723039Y-46755685D01*
G37*
%TD.AperFunction*%
%TA.AperFunction,Conductor*%
G36*
X141545933Y-46755685D02*
G01*
X141591688Y-46808489D01*
X141601632Y-46877647D01*
X141572607Y-46941203D01*
X141551781Y-46960316D01*
X141425354Y-47052172D01*
X141425352Y-47052174D01*
X141425351Y-47052174D01*
X141286174Y-47191351D01*
X141286174Y-47191352D01*
X141286172Y-47191354D01*
X141236485Y-47259741D01*
X141170476Y-47350594D01*
X141080204Y-47527764D01*
X141032229Y-47578560D01*
X140964408Y-47595355D01*
X140898274Y-47572818D01*
X140859234Y-47527764D01*
X140769096Y-47350858D01*
X140743678Y-47315873D01*
X140743677Y-47315873D01*
X140100000Y-47959551D01*
X140100000Y-47953339D01*
X140072741Y-47851606D01*
X140020080Y-47760394D01*
X139945606Y-47685920D01*
X139854394Y-47633259D01*
X139752661Y-47606000D01*
X139746446Y-47606000D01*
X140390125Y-46962320D01*
X140390125Y-46962319D01*
X140387372Y-46960319D01*
X140344705Y-46904990D01*
X140338725Y-46835376D01*
X140371330Y-46773581D01*
X140432169Y-46739223D01*
X140460256Y-46736000D01*
X141478894Y-46736000D01*
X141545933Y-46755685D01*
G37*
%TD.AperFunction*%
%TD*%
M02*
