%TF.GenerationSoftware,KiCad,Pcbnew,9.0.3*%
%TF.CreationDate,2025-12-07T20:29:12-06:00*%
%TF.ProjectId,IsolatedADSBoard,49736f6c-6174-4656-9441-4453426f6172,rev?*%
%TF.SameCoordinates,Original*%
%TF.FileFunction,Copper,L3,Inr*%
%TF.FilePolarity,Positive*%
%FSLAX46Y46*%
G04 Gerber Fmt 4.6, Leading zero omitted, Abs format (unit mm)*
G04 Created by KiCad (PCBNEW 9.0.3) date 2025-12-07 20:29:12*
%MOMM*%
%LPD*%
G01*
G04 APERTURE LIST*
%TA.AperFunction,ComponentPad*%
%ADD10C,1.500000*%
%TD*%
%TA.AperFunction,ComponentPad*%
%ADD11R,1.700000X1.700000*%
%TD*%
%TA.AperFunction,ComponentPad*%
%ADD12C,1.700000*%
%TD*%
%TA.AperFunction,ViaPad*%
%ADD13C,0.600000*%
%TD*%
G04 APERTURE END LIST*
D10*
%TO.N,GND*%
%TO.C,U14*%
X134620000Y-48006000D03*
%TO.N,VDD*%
X137160000Y-48006000D03*
%TO.N,Gnd-iso*%
X139700000Y-48006000D03*
%TO.N,5V-iso*%
X142240000Y-48006000D03*
%TD*%
D11*
%TO.N,5V-iso*%
%TO.C,J2*%
X144780000Y-52070000D03*
D12*
%TO.N,Gnd-iso*%
X144780000Y-54610000D03*
%TO.N,/Signal2-ISO*%
X144780000Y-57150000D03*
%TO.N,/Signal1-ISO*%
X144780000Y-59690000D03*
%TO.N,/AIN3*%
X144780000Y-62230000D03*
%TO.N,/AIN2*%
X144780000Y-64770000D03*
%TO.N,/AIN1*%
X144780000Y-67310000D03*
%TO.N,/AIN0*%
X144780000Y-69850000D03*
%TD*%
D11*
%TO.N,VDD*%
%TO.C,J1*%
X127000000Y-52070000D03*
D12*
%TO.N,GND*%
X127000000Y-54610000D03*
%TO.N,SDA*%
X127000000Y-57150000D03*
%TO.N,SCL*%
X127000000Y-59690000D03*
%TO.N,/Signal2-MCU*%
X127000000Y-62230000D03*
%TO.N,/Signal1-MCU*%
X127000000Y-64770000D03*
%TD*%
D13*
%TO.N,Gnd-iso*%
X130810000Y-72390000D03*
X130302000Y-65532000D03*
X139700000Y-72136000D03*
X139954000Y-59563000D03*
X137414000Y-74168000D03*
%TO.N,5V-iso*%
X137922000Y-69850000D03*
X134112000Y-65532000D03*
X140716000Y-61976000D03*
X139954000Y-55753000D03*
%TO.N,GND*%
X129032000Y-44704000D03*
X132080000Y-58949500D03*
X129286000Y-62230000D03*
%TO.N,VDD*%
X133604000Y-60706000D03*
X131931500Y-55753000D03*
X129032000Y-45720000D03*
%TO.N,SCL-5V*%
X136271000Y-57277000D03*
X137299550Y-66687550D03*
%TO.N,SDA-5V*%
X137037000Y-56642000D03*
X138938000Y-66282000D03*
%TO.N,SDA*%
X131826000Y-57404000D03*
%TO.N,SCL*%
X135076499Y-57606499D03*
%TD*%
%TA.AperFunction,Conductor*%
%TO.N,5V-iso*%
G36*
X144723039Y-46755685D02*
G01*
X144768794Y-46808489D01*
X144780000Y-46860000D01*
X144780000Y-50596000D01*
X144760315Y-50663039D01*
X144707511Y-50708794D01*
X144656000Y-50720000D01*
X143882155Y-50720000D01*
X143822627Y-50726401D01*
X143822620Y-50726403D01*
X143687913Y-50776645D01*
X143687906Y-50776649D01*
X143572812Y-50862809D01*
X143572809Y-50862812D01*
X143486649Y-50977906D01*
X143486645Y-50977913D01*
X143436403Y-51112620D01*
X143436401Y-51112627D01*
X143430000Y-51172155D01*
X143430000Y-51820000D01*
X144346988Y-51820000D01*
X144314075Y-51877007D01*
X144280000Y-52004174D01*
X144280000Y-52135826D01*
X144314075Y-52262993D01*
X144346988Y-52320000D01*
X143430000Y-52320000D01*
X143430000Y-52967844D01*
X143436401Y-53027372D01*
X143436403Y-53027379D01*
X143486645Y-53162086D01*
X143486649Y-53162093D01*
X143572809Y-53277187D01*
X143572812Y-53277190D01*
X143687906Y-53363350D01*
X143687913Y-53363354D01*
X143819470Y-53412422D01*
X143875404Y-53454293D01*
X143899821Y-53519758D01*
X143884969Y-53588031D01*
X143863819Y-53616285D01*
X143749889Y-53730215D01*
X143624951Y-53902179D01*
X143528444Y-54091585D01*
X143462753Y-54293760D01*
X143429500Y-54503713D01*
X143429500Y-54716286D01*
X143462753Y-54926239D01*
X143528444Y-55128414D01*
X143624951Y-55317820D01*
X143749890Y-55489786D01*
X143900213Y-55640109D01*
X144072182Y-55765050D01*
X144080946Y-55769516D01*
X144131742Y-55817491D01*
X144148536Y-55885312D01*
X144125998Y-55951447D01*
X144080946Y-55990484D01*
X144072182Y-55994949D01*
X143900213Y-56119890D01*
X143749890Y-56270213D01*
X143624951Y-56442179D01*
X143528444Y-56631585D01*
X143462753Y-56833760D01*
X143429500Y-57043713D01*
X143429500Y-57256286D01*
X143454120Y-57411735D01*
X143462754Y-57466243D01*
X143524470Y-57656185D01*
X143528444Y-57668414D01*
X143624951Y-57857820D01*
X143749890Y-58029786D01*
X143900213Y-58180109D01*
X144072182Y-58305050D01*
X144080946Y-58309516D01*
X144131742Y-58357491D01*
X144148536Y-58425312D01*
X144125998Y-58491447D01*
X144080946Y-58530484D01*
X144072182Y-58534949D01*
X143900213Y-58659890D01*
X143749890Y-58810213D01*
X143624951Y-58982179D01*
X143528444Y-59171585D01*
X143462756Y-59373751D01*
X143462753Y-59373759D01*
X143445268Y-59484158D01*
X143429500Y-59583713D01*
X143429500Y-59796287D01*
X143462754Y-60006243D01*
X143520767Y-60184789D01*
X143528444Y-60208414D01*
X143624951Y-60397820D01*
X143749890Y-60569786D01*
X143900213Y-60720109D01*
X144072182Y-60845050D01*
X144080946Y-60849516D01*
X144131742Y-60897491D01*
X144148536Y-60965312D01*
X144125998Y-61031447D01*
X144080946Y-61070484D01*
X144072182Y-61074949D01*
X143900213Y-61199890D01*
X143749890Y-61350213D01*
X143624951Y-61522179D01*
X143528444Y-61711585D01*
X143462753Y-61913760D01*
X143429500Y-62123713D01*
X143429500Y-62336286D01*
X143462753Y-62546239D01*
X143528444Y-62748414D01*
X143624951Y-62937820D01*
X143749890Y-63109786D01*
X143900213Y-63260109D01*
X144072182Y-63385050D01*
X144080946Y-63389516D01*
X144131742Y-63437491D01*
X144148536Y-63505312D01*
X144125998Y-63571447D01*
X144080946Y-63610484D01*
X144072182Y-63614949D01*
X143900213Y-63739890D01*
X143749890Y-63890213D01*
X143624951Y-64062179D01*
X143528444Y-64251585D01*
X143462753Y-64453760D01*
X143429500Y-64663713D01*
X143429500Y-64876287D01*
X143462754Y-65086243D01*
X143484384Y-65152814D01*
X143528444Y-65288414D01*
X143624951Y-65477820D01*
X143749890Y-65649786D01*
X143900213Y-65800109D01*
X144072182Y-65925050D01*
X144080946Y-65929516D01*
X144131742Y-65977491D01*
X144148536Y-66045312D01*
X144125998Y-66111447D01*
X144080946Y-66150484D01*
X144072182Y-66154949D01*
X143900213Y-66279890D01*
X143749890Y-66430213D01*
X143624951Y-66602179D01*
X143528444Y-66791585D01*
X143462753Y-66993760D01*
X143448698Y-67082500D01*
X143429500Y-67203713D01*
X143429500Y-67416287D01*
X143435994Y-67457287D01*
X143462753Y-67626239D01*
X143528444Y-67828414D01*
X143624951Y-68017820D01*
X143749890Y-68189786D01*
X143900213Y-68340109D01*
X144072182Y-68465050D01*
X144080946Y-68469516D01*
X144131742Y-68517491D01*
X144148536Y-68585312D01*
X144125998Y-68651447D01*
X144080946Y-68690484D01*
X144072182Y-68694949D01*
X143900213Y-68819890D01*
X143749890Y-68970213D01*
X143624951Y-69142179D01*
X143528444Y-69331585D01*
X143462753Y-69533760D01*
X143429500Y-69743713D01*
X143429500Y-69956286D01*
X143456955Y-70129634D01*
X143462754Y-70166243D01*
X143496846Y-70271168D01*
X143528444Y-70368414D01*
X143624951Y-70557820D01*
X143749890Y-70729786D01*
X143900213Y-70880109D01*
X144072179Y-71005048D01*
X144072181Y-71005049D01*
X144072184Y-71005051D01*
X144261588Y-71101557D01*
X144463757Y-71167246D01*
X144673713Y-71200500D01*
X144673716Y-71200500D01*
X144674878Y-71200684D01*
X144738012Y-71230613D01*
X144774944Y-71289924D01*
X144773946Y-71359787D01*
X144743161Y-71410838D01*
X141506819Y-74647181D01*
X141445496Y-74680666D01*
X141419138Y-74683500D01*
X138252507Y-74683500D01*
X138185468Y-74663815D01*
X138139713Y-74611011D01*
X138129769Y-74541853D01*
X138137946Y-74512048D01*
X138183735Y-74401501D01*
X138183737Y-74401497D01*
X138214500Y-74246842D01*
X138214500Y-74089158D01*
X138214500Y-74089155D01*
X138214499Y-74089153D01*
X138183738Y-73934510D01*
X138183737Y-73934503D01*
X138130889Y-73806915D01*
X138123397Y-73788827D01*
X138123390Y-73788814D01*
X138035789Y-73657711D01*
X138035786Y-73657707D01*
X137924292Y-73546213D01*
X137924288Y-73546210D01*
X137793185Y-73458609D01*
X137793172Y-73458602D01*
X137647501Y-73398264D01*
X137647489Y-73398261D01*
X137492845Y-73367500D01*
X137492842Y-73367500D01*
X137335158Y-73367500D01*
X137335155Y-73367500D01*
X137180510Y-73398261D01*
X137180498Y-73398264D01*
X137034827Y-73458602D01*
X137034814Y-73458609D01*
X136903711Y-73546210D01*
X136903707Y-73546213D01*
X136792213Y-73657707D01*
X136792210Y-73657711D01*
X136704609Y-73788814D01*
X136704602Y-73788827D01*
X136644264Y-73934498D01*
X136644261Y-73934510D01*
X136613500Y-74089153D01*
X136613500Y-74246846D01*
X136644261Y-74401489D01*
X136644264Y-74401501D01*
X136690054Y-74512048D01*
X136697523Y-74581517D01*
X136666248Y-74643996D01*
X136606159Y-74679648D01*
X136575493Y-74683500D01*
X128648000Y-74683500D01*
X128580961Y-74663815D01*
X128535206Y-74611011D01*
X128524000Y-74559500D01*
X128524000Y-72311153D01*
X130009500Y-72311153D01*
X130009500Y-72468846D01*
X130040261Y-72623489D01*
X130040264Y-72623501D01*
X130100602Y-72769172D01*
X130100609Y-72769185D01*
X130188210Y-72900288D01*
X130188213Y-72900292D01*
X130299707Y-73011786D01*
X130299711Y-73011789D01*
X130430814Y-73099390D01*
X130430827Y-73099397D01*
X130576498Y-73159735D01*
X130576503Y-73159737D01*
X130698481Y-73184000D01*
X130731153Y-73190499D01*
X130731156Y-73190500D01*
X130731158Y-73190500D01*
X130888844Y-73190500D01*
X130888845Y-73190499D01*
X131043497Y-73159737D01*
X131189179Y-73099394D01*
X131320289Y-73011789D01*
X131431789Y-72900289D01*
X131519394Y-72769179D01*
X131579737Y-72623497D01*
X131610500Y-72468842D01*
X131610500Y-72311158D01*
X131610500Y-72311155D01*
X131610499Y-72311153D01*
X131579738Y-72156510D01*
X131579737Y-72156503D01*
X131538585Y-72057153D01*
X138899500Y-72057153D01*
X138899500Y-72214846D01*
X138930261Y-72369489D01*
X138930264Y-72369501D01*
X138990602Y-72515172D01*
X138990609Y-72515185D01*
X139078210Y-72646288D01*
X139078213Y-72646292D01*
X139189707Y-72757786D01*
X139189711Y-72757789D01*
X139320814Y-72845390D01*
X139320827Y-72845397D01*
X139466498Y-72905735D01*
X139466503Y-72905737D01*
X139621153Y-72936499D01*
X139621156Y-72936500D01*
X139621158Y-72936500D01*
X139778844Y-72936500D01*
X139778845Y-72936499D01*
X139933497Y-72905737D01*
X140079179Y-72845394D01*
X140210289Y-72757789D01*
X140321789Y-72646289D01*
X140409394Y-72515179D01*
X140469737Y-72369497D01*
X140500500Y-72214842D01*
X140500500Y-72057158D01*
X140500500Y-72057155D01*
X140500499Y-72057153D01*
X140491283Y-72010821D01*
X140469737Y-71902503D01*
X140414112Y-71768211D01*
X140409397Y-71756827D01*
X140409390Y-71756814D01*
X140321789Y-71625711D01*
X140321786Y-71625707D01*
X140210292Y-71514213D01*
X140210288Y-71514210D01*
X140079185Y-71426609D01*
X140079172Y-71426602D01*
X139933501Y-71366264D01*
X139933489Y-71366261D01*
X139778845Y-71335500D01*
X139778842Y-71335500D01*
X139621158Y-71335500D01*
X139621155Y-71335500D01*
X139466510Y-71366261D01*
X139466498Y-71366264D01*
X139320827Y-71426602D01*
X139320814Y-71426609D01*
X139189711Y-71514210D01*
X139189707Y-71514213D01*
X139078213Y-71625707D01*
X139078210Y-71625711D01*
X138990609Y-71756814D01*
X138990602Y-71756827D01*
X138930264Y-71902498D01*
X138930261Y-71902510D01*
X138899500Y-72057153D01*
X131538585Y-72057153D01*
X131519397Y-72010826D01*
X131519390Y-72010814D01*
X131431789Y-71879711D01*
X131431786Y-71879707D01*
X131320292Y-71768213D01*
X131320288Y-71768210D01*
X131189185Y-71680609D01*
X131189172Y-71680602D01*
X131043501Y-71620264D01*
X131043489Y-71620261D01*
X130888845Y-71589500D01*
X130888842Y-71589500D01*
X130731158Y-71589500D01*
X130731155Y-71589500D01*
X130576510Y-71620261D01*
X130576498Y-71620264D01*
X130430827Y-71680602D01*
X130430814Y-71680609D01*
X130299711Y-71768210D01*
X130299707Y-71768213D01*
X130188213Y-71879707D01*
X130188210Y-71879711D01*
X130100609Y-72010814D01*
X130100602Y-72010827D01*
X130040264Y-72156498D01*
X130040261Y-72156510D01*
X130009500Y-72311153D01*
X128524000Y-72311153D01*
X128524000Y-71800579D01*
X128540612Y-71738580D01*
X128591320Y-71650752D01*
X128680137Y-71436330D01*
X128740206Y-71212149D01*
X128770500Y-70982045D01*
X128770500Y-70749955D01*
X128740206Y-70519851D01*
X128680137Y-70295670D01*
X128591320Y-70081248D01*
X128540613Y-69993420D01*
X128524000Y-69931420D01*
X128524000Y-66608703D01*
X136499050Y-66608703D01*
X136499050Y-66766396D01*
X136529811Y-66921039D01*
X136529814Y-66921051D01*
X136590152Y-67066722D01*
X136590159Y-67066735D01*
X136677760Y-67197838D01*
X136677763Y-67197842D01*
X136789257Y-67309336D01*
X136789261Y-67309339D01*
X136920364Y-67396940D01*
X136920377Y-67396947D01*
X136967069Y-67416287D01*
X137066053Y-67457287D01*
X137220703Y-67488049D01*
X137220706Y-67488050D01*
X137220708Y-67488050D01*
X137378394Y-67488050D01*
X137378395Y-67488049D01*
X137533047Y-67457287D01*
X137678729Y-67396944D01*
X137809839Y-67309339D01*
X137921339Y-67197839D01*
X138008944Y-67066729D01*
X138069287Y-66921047D01*
X138087265Y-66830661D01*
X138119649Y-66768753D01*
X138180364Y-66734179D01*
X138250134Y-66737918D01*
X138306806Y-66778784D01*
X138311982Y-66785962D01*
X138316206Y-66792283D01*
X138316213Y-66792292D01*
X138427707Y-66903786D01*
X138427711Y-66903789D01*
X138558814Y-66991390D01*
X138558827Y-66991397D01*
X138704498Y-67051735D01*
X138704503Y-67051737D01*
X138859153Y-67082499D01*
X138859156Y-67082500D01*
X138859158Y-67082500D01*
X139016844Y-67082500D01*
X139016845Y-67082499D01*
X139171497Y-67051737D01*
X139317179Y-66991394D01*
X139448289Y-66903789D01*
X139559789Y-66792289D01*
X139647394Y-66661179D01*
X139707737Y-66515497D01*
X139738500Y-66360842D01*
X139738500Y-66203158D01*
X139738500Y-66203155D01*
X139738499Y-66203153D01*
X139733348Y-66177257D01*
X139707737Y-66048503D01*
X139678323Y-65977491D01*
X139647397Y-65902827D01*
X139647390Y-65902814D01*
X139559789Y-65771711D01*
X139559786Y-65771707D01*
X139448292Y-65660213D01*
X139448288Y-65660210D01*
X139317185Y-65572609D01*
X139317172Y-65572602D01*
X139171501Y-65512264D01*
X139171489Y-65512261D01*
X139016845Y-65481500D01*
X139016842Y-65481500D01*
X138859158Y-65481500D01*
X138859155Y-65481500D01*
X138704510Y-65512261D01*
X138704498Y-65512264D01*
X138558827Y-65572602D01*
X138558814Y-65572609D01*
X138427711Y-65660210D01*
X138427707Y-65660213D01*
X138316213Y-65771707D01*
X138316210Y-65771711D01*
X138228609Y-65902814D01*
X138228602Y-65902827D01*
X138168264Y-66048498D01*
X138168261Y-66048508D01*
X138150284Y-66138886D01*
X138117899Y-66200797D01*
X138057183Y-66235371D01*
X137987414Y-66231631D01*
X137930742Y-66190764D01*
X137925565Y-66183585D01*
X137921339Y-66177261D01*
X137921336Y-66177257D01*
X137809842Y-66065763D01*
X137809838Y-66065760D01*
X137678735Y-65978159D01*
X137678722Y-65978152D01*
X137533051Y-65917814D01*
X137533039Y-65917811D01*
X137378395Y-65887050D01*
X137378392Y-65887050D01*
X137220708Y-65887050D01*
X137220705Y-65887050D01*
X137066060Y-65917811D01*
X137066048Y-65917814D01*
X136920377Y-65978152D01*
X136920364Y-65978159D01*
X136789261Y-66065760D01*
X136789257Y-66065763D01*
X136677763Y-66177257D01*
X136677760Y-66177261D01*
X136590159Y-66308364D01*
X136590152Y-66308377D01*
X136529814Y-66454048D01*
X136529811Y-66454060D01*
X136499050Y-66608703D01*
X128524000Y-66608703D01*
X128524000Y-65453153D01*
X129501500Y-65453153D01*
X129501500Y-65610846D01*
X129532261Y-65765489D01*
X129532264Y-65765501D01*
X129592602Y-65911172D01*
X129592609Y-65911185D01*
X129680210Y-66042288D01*
X129680213Y-66042292D01*
X129791707Y-66153786D01*
X129791711Y-66153789D01*
X129922814Y-66241390D01*
X129922827Y-66241397D01*
X130068498Y-66301735D01*
X130068503Y-66301737D01*
X130223153Y-66332499D01*
X130223156Y-66332500D01*
X130223158Y-66332500D01*
X130380844Y-66332500D01*
X130380845Y-66332499D01*
X130535497Y-66301737D01*
X130681179Y-66241394D01*
X130812289Y-66153789D01*
X130923789Y-66042289D01*
X131011394Y-65911179D01*
X131014854Y-65902827D01*
X131069163Y-65771711D01*
X131071737Y-65765497D01*
X131102500Y-65610842D01*
X131102500Y-65453158D01*
X131102500Y-65453155D01*
X131102499Y-65453153D01*
X131071738Y-65298510D01*
X131071737Y-65298503D01*
X131067557Y-65288412D01*
X131011397Y-65152827D01*
X131011390Y-65152814D01*
X130923789Y-65021711D01*
X130923786Y-65021707D01*
X130812292Y-64910213D01*
X130812288Y-64910210D01*
X130681185Y-64822609D01*
X130681172Y-64822602D01*
X130535501Y-64762264D01*
X130535489Y-64762261D01*
X130380845Y-64731500D01*
X130380842Y-64731500D01*
X130223158Y-64731500D01*
X130223155Y-64731500D01*
X130068510Y-64762261D01*
X130068498Y-64762264D01*
X129922827Y-64822602D01*
X129922814Y-64822609D01*
X129791711Y-64910210D01*
X129791707Y-64910213D01*
X129680213Y-65021707D01*
X129680210Y-65021711D01*
X129592609Y-65152814D01*
X129592602Y-65152827D01*
X129532264Y-65298498D01*
X129532261Y-65298510D01*
X129501500Y-65453153D01*
X128524000Y-65453153D01*
X128524000Y-64386000D01*
X128543685Y-64318961D01*
X128596489Y-64273206D01*
X128648000Y-64262000D01*
X135318499Y-64262000D01*
X135318500Y-64262000D01*
X135318500Y-64261999D01*
X135331383Y-64256663D01*
X135362219Y-64248792D01*
X135362169Y-64248480D01*
X135365441Y-64247948D01*
X135365456Y-64247947D01*
X135416967Y-64236741D01*
X135451197Y-64225347D01*
X135519497Y-64202616D01*
X135519501Y-64202613D01*
X135519504Y-64202613D01*
X135640543Y-64124825D01*
X135693347Y-64079070D01*
X135787567Y-63970336D01*
X135847338Y-63839459D01*
X135867023Y-63772420D01*
X135867024Y-63772416D01*
X135871047Y-63744430D01*
X135884519Y-63714929D01*
X135880560Y-63713289D01*
X135890000Y-63690500D01*
X135890000Y-59484153D01*
X139153500Y-59484153D01*
X139153500Y-59641846D01*
X139184261Y-59796489D01*
X139184264Y-59796501D01*
X139244602Y-59942172D01*
X139244609Y-59942185D01*
X139332210Y-60073288D01*
X139332213Y-60073292D01*
X139443707Y-60184786D01*
X139443711Y-60184789D01*
X139574814Y-60272390D01*
X139574827Y-60272397D01*
X139720498Y-60332735D01*
X139720503Y-60332737D01*
X139875153Y-60363499D01*
X139875156Y-60363500D01*
X139875158Y-60363500D01*
X140032844Y-60363500D01*
X140032845Y-60363499D01*
X140187497Y-60332737D01*
X140333179Y-60272394D01*
X140464289Y-60184789D01*
X140575789Y-60073289D01*
X140663394Y-59942179D01*
X140723737Y-59796497D01*
X140754500Y-59641842D01*
X140754500Y-59484158D01*
X140754500Y-59484155D01*
X140754499Y-59484153D01*
X140732540Y-59373759D01*
X140723737Y-59329503D01*
X140689611Y-59247115D01*
X140663397Y-59183827D01*
X140663390Y-59183814D01*
X140575789Y-59052711D01*
X140575786Y-59052707D01*
X140464292Y-58941213D01*
X140464288Y-58941210D01*
X140333185Y-58853609D01*
X140333172Y-58853602D01*
X140187501Y-58793264D01*
X140187489Y-58793261D01*
X140032845Y-58762500D01*
X140032842Y-58762500D01*
X139875158Y-58762500D01*
X139875155Y-58762500D01*
X139720510Y-58793261D01*
X139720498Y-58793264D01*
X139574827Y-58853602D01*
X139574814Y-58853609D01*
X139443711Y-58941210D01*
X139443707Y-58941213D01*
X139332213Y-59052707D01*
X139332210Y-59052711D01*
X139244609Y-59183814D01*
X139244602Y-59183827D01*
X139184264Y-59329498D01*
X139184261Y-59329510D01*
X139153500Y-59484153D01*
X135890000Y-59484153D01*
X135890000Y-58168491D01*
X135909685Y-58101452D01*
X135962489Y-58055697D01*
X136031647Y-58045753D01*
X136038192Y-58046874D01*
X136192155Y-58077500D01*
X136192158Y-58077500D01*
X136349844Y-58077500D01*
X136349845Y-58077499D01*
X136504497Y-58046737D01*
X136650179Y-57986394D01*
X136781289Y-57898789D01*
X136892789Y-57787289D01*
X136980394Y-57656179D01*
X136980395Y-57656176D01*
X136980397Y-57656173D01*
X137039323Y-57513910D01*
X137083163Y-57459506D01*
X137129693Y-57439745D01*
X137158757Y-57433963D01*
X137270497Y-57411737D01*
X137416179Y-57351394D01*
X137547289Y-57263789D01*
X137658789Y-57152289D01*
X137746394Y-57021179D01*
X137806737Y-56875497D01*
X137837500Y-56720842D01*
X137837500Y-56563158D01*
X137837500Y-56563155D01*
X137837499Y-56563153D01*
X137826024Y-56505467D01*
X137806737Y-56408503D01*
X137749454Y-56270208D01*
X137746397Y-56262827D01*
X137746390Y-56262814D01*
X137658789Y-56131711D01*
X137658786Y-56131707D01*
X137547292Y-56020213D01*
X137547288Y-56020210D01*
X137416185Y-55932609D01*
X137416172Y-55932602D01*
X137270501Y-55872264D01*
X137270489Y-55872261D01*
X137115845Y-55841500D01*
X137115842Y-55841500D01*
X136958158Y-55841500D01*
X136958155Y-55841500D01*
X136803510Y-55872261D01*
X136803498Y-55872264D01*
X136657827Y-55932602D01*
X136657814Y-55932609D01*
X136526711Y-56020210D01*
X136526707Y-56020213D01*
X136415213Y-56131707D01*
X136415210Y-56131711D01*
X136327609Y-56262814D01*
X136327604Y-56262823D01*
X136268676Y-56405090D01*
X136263694Y-56411271D01*
X136261869Y-56418997D01*
X136242086Y-56438085D01*
X136224835Y-56459493D01*
X136216021Y-56463236D01*
X136211590Y-56467512D01*
X136178307Y-56479254D01*
X136038192Y-56507125D01*
X135968600Y-56500898D01*
X135913423Y-56458035D01*
X135890178Y-56392145D01*
X135890000Y-56385508D01*
X135890000Y-53202244D01*
X135909685Y-53135205D01*
X135962489Y-53089450D01*
X136002078Y-53079473D01*
X136002020Y-53079030D01*
X136005828Y-53078528D01*
X136005910Y-53078508D01*
X136006028Y-53078500D01*
X136006045Y-53078500D01*
X136236149Y-53048206D01*
X136460330Y-52988137D01*
X136674752Y-52899320D01*
X136875748Y-52783276D01*
X137059877Y-52641989D01*
X137223989Y-52477877D01*
X137365276Y-52293748D01*
X137481320Y-52092752D01*
X137570137Y-51878330D01*
X137630206Y-51654149D01*
X137660500Y-51424045D01*
X137660500Y-51191955D01*
X137630206Y-50961851D01*
X137570137Y-50737670D01*
X137481320Y-50523248D01*
X137481314Y-50523237D01*
X137409435Y-50398737D01*
X137392962Y-50330837D01*
X137415815Y-50264810D01*
X137470736Y-50221620D01*
X137482746Y-50217512D01*
X138153412Y-50025894D01*
X138478930Y-49932890D01*
X138480773Y-49932287D01*
X138514999Y-49921104D01*
X138532445Y-49914669D01*
X138567504Y-49900222D01*
X138688543Y-49822434D01*
X138741347Y-49776679D01*
X138835567Y-49667945D01*
X138895338Y-49537068D01*
X138915023Y-49470029D01*
X138915024Y-49470025D01*
X138935500Y-49327609D01*
X138935500Y-49222286D01*
X138955185Y-49155247D01*
X139007989Y-49109492D01*
X139077147Y-49099548D01*
X139115795Y-49111802D01*
X139219966Y-49164880D01*
X139219964Y-49164880D01*
X139219972Y-49164882D01*
X139219975Y-49164884D01*
X139326153Y-49199383D01*
X139407173Y-49225709D01*
X139601578Y-49256500D01*
X139601583Y-49256500D01*
X139798422Y-49256500D01*
X139992826Y-49225709D01*
X140003361Y-49222286D01*
X140180025Y-49164884D01*
X140355405Y-49075524D01*
X140514646Y-48959828D01*
X140653828Y-48820646D01*
X140769524Y-48661405D01*
X140858884Y-48486025D01*
X140858884Y-48486022D01*
X140859795Y-48484236D01*
X140907769Y-48433440D01*
X140975590Y-48416644D01*
X141041725Y-48439181D01*
X141080765Y-48484235D01*
X141170905Y-48661145D01*
X141196319Y-48696125D01*
X141196320Y-48696125D01*
X141840000Y-48052445D01*
X141840000Y-48058661D01*
X141867259Y-48160394D01*
X141919920Y-48251606D01*
X141994394Y-48326080D01*
X142085606Y-48378741D01*
X142187339Y-48406000D01*
X142193553Y-48406000D01*
X141549873Y-49049677D01*
X141549873Y-49049678D01*
X141584858Y-49075096D01*
X141760164Y-49164418D01*
X141947294Y-49225221D01*
X142141618Y-49256000D01*
X142338382Y-49256000D01*
X142532705Y-49225221D01*
X142719835Y-49164418D01*
X142895143Y-49075095D01*
X142930125Y-49049678D01*
X142930126Y-49049678D01*
X142286448Y-48406000D01*
X142292661Y-48406000D01*
X142394394Y-48378741D01*
X142485606Y-48326080D01*
X142560080Y-48251606D01*
X142612741Y-48160394D01*
X142640000Y-48058661D01*
X142640000Y-48052447D01*
X143283678Y-48696126D01*
X143283678Y-48696125D01*
X143309095Y-48661143D01*
X143398418Y-48485835D01*
X143459221Y-48298705D01*
X143490000Y-48104382D01*
X143490000Y-47907617D01*
X143459221Y-47713294D01*
X143398418Y-47526164D01*
X143309096Y-47350858D01*
X143283678Y-47315873D01*
X143283677Y-47315873D01*
X142640000Y-47959551D01*
X142640000Y-47953339D01*
X142612741Y-47851606D01*
X142560080Y-47760394D01*
X142485606Y-47685920D01*
X142394394Y-47633259D01*
X142292661Y-47606000D01*
X142286447Y-47606000D01*
X142930125Y-46962320D01*
X142930125Y-46962319D01*
X142927372Y-46960319D01*
X142884705Y-46904990D01*
X142878725Y-46835376D01*
X142911330Y-46773581D01*
X142972169Y-46739223D01*
X143000256Y-46736000D01*
X144656000Y-46736000D01*
X144723039Y-46755685D01*
G37*
%TD.AperFunction*%
%TA.AperFunction,Conductor*%
G36*
X141546782Y-46755685D02*
G01*
X141592537Y-46808489D01*
X141602481Y-46877647D01*
X141573456Y-46941203D01*
X141552626Y-46960320D01*
X141549873Y-46962320D01*
X141549872Y-46962320D01*
X142193554Y-47606000D01*
X142187339Y-47606000D01*
X142085606Y-47633259D01*
X141994394Y-47685920D01*
X141919920Y-47760394D01*
X141867259Y-47851606D01*
X141840000Y-47953339D01*
X141840000Y-47959552D01*
X141196320Y-47315872D01*
X141196320Y-47315873D01*
X141170902Y-47350859D01*
X141080765Y-47527764D01*
X141032790Y-47578560D01*
X140964969Y-47595355D01*
X140898835Y-47572818D01*
X140859795Y-47527763D01*
X140769525Y-47350596D01*
X140744296Y-47315872D01*
X140653828Y-47191354D01*
X140514646Y-47052172D01*
X140388219Y-46960317D01*
X140345555Y-46904988D01*
X140339576Y-46835374D01*
X140372182Y-46773579D01*
X140433021Y-46739222D01*
X140461106Y-46736000D01*
X141479743Y-46736000D01*
X141546782Y-46755685D01*
G37*
%TD.AperFunction*%
%TD*%
%TA.AperFunction,Conductor*%
%TO.N,VDD*%
G36*
X128844596Y-43707685D02*
G01*
X128890351Y-43760489D01*
X128900295Y-43829647D01*
X128871270Y-43893203D01*
X128812492Y-43930977D01*
X128801749Y-43933617D01*
X128798508Y-43934261D01*
X128798498Y-43934264D01*
X128652827Y-43994602D01*
X128652814Y-43994609D01*
X128521711Y-44082210D01*
X128521707Y-44082213D01*
X128410213Y-44193707D01*
X128410210Y-44193711D01*
X128322609Y-44324814D01*
X128322602Y-44324827D01*
X128262264Y-44470498D01*
X128262261Y-44470510D01*
X128231500Y-44625153D01*
X128231500Y-44782846D01*
X128262261Y-44937489D01*
X128262264Y-44937501D01*
X128322602Y-45083172D01*
X128322609Y-45083185D01*
X128410210Y-45214288D01*
X128410213Y-45214292D01*
X128521707Y-45325786D01*
X128521711Y-45325789D01*
X128652814Y-45413390D01*
X128652827Y-45413397D01*
X128798498Y-45473735D01*
X128798503Y-45473737D01*
X128953153Y-45504499D01*
X128953156Y-45504500D01*
X128953158Y-45504500D01*
X129110844Y-45504500D01*
X129110845Y-45504499D01*
X129265497Y-45473737D01*
X129411179Y-45413394D01*
X129542289Y-45325789D01*
X129653789Y-45214289D01*
X129741394Y-45083179D01*
X129801737Y-44937497D01*
X129832500Y-44782842D01*
X129832500Y-44625158D01*
X129832500Y-44625155D01*
X129832499Y-44625153D01*
X129801738Y-44470510D01*
X129801737Y-44470503D01*
X129801735Y-44470498D01*
X129741397Y-44324827D01*
X129741390Y-44324814D01*
X129653789Y-44193711D01*
X129653786Y-44193707D01*
X129542292Y-44082213D01*
X129542288Y-44082210D01*
X129411185Y-43994609D01*
X129411172Y-43994602D01*
X129265501Y-43934264D01*
X129265491Y-43934261D01*
X129262251Y-43933617D01*
X129260710Y-43932811D01*
X129259665Y-43932494D01*
X129259725Y-43932295D01*
X129200340Y-43901232D01*
X129165766Y-43840516D01*
X129169506Y-43770747D01*
X129210373Y-43714075D01*
X129275391Y-43688494D01*
X129286443Y-43688000D01*
X131294120Y-43688000D01*
X131340172Y-43696869D01*
X132742548Y-44257819D01*
X138352054Y-46501621D01*
X138406986Y-46544794D01*
X138429858Y-46610815D01*
X138430000Y-46616751D01*
X138430000Y-47245744D01*
X138410315Y-47312783D01*
X138357511Y-47358538D01*
X138288353Y-47368482D01*
X138224797Y-47339457D01*
X138205682Y-47318630D01*
X138203679Y-47315873D01*
X138203677Y-47315873D01*
X137560000Y-47959551D01*
X137560000Y-47953339D01*
X137532741Y-47851606D01*
X137480080Y-47760394D01*
X137405606Y-47685920D01*
X137314394Y-47633259D01*
X137212661Y-47606000D01*
X137206447Y-47606000D01*
X137850125Y-46962320D01*
X137850125Y-46962319D01*
X137815145Y-46936905D01*
X137639835Y-46847581D01*
X137452705Y-46786778D01*
X137258382Y-46756000D01*
X137061618Y-46756000D01*
X136867294Y-46786778D01*
X136680161Y-46847582D01*
X136504863Y-46936899D01*
X136504859Y-46936902D01*
X136469873Y-46962320D01*
X136469872Y-46962320D01*
X137113554Y-47606000D01*
X137107339Y-47606000D01*
X137005606Y-47633259D01*
X136914394Y-47685920D01*
X136839920Y-47760394D01*
X136787259Y-47851606D01*
X136760000Y-47953339D01*
X136760000Y-47959552D01*
X136116320Y-47315872D01*
X136116320Y-47315873D01*
X136090902Y-47350859D01*
X136000765Y-47527764D01*
X135952790Y-47578560D01*
X135884969Y-47595355D01*
X135818835Y-47572818D01*
X135779795Y-47527763D01*
X135689525Y-47350596D01*
X135662052Y-47312783D01*
X135573828Y-47191354D01*
X135434646Y-47052172D01*
X135275405Y-46936476D01*
X135100029Y-46847117D01*
X134912826Y-46786290D01*
X134718422Y-46755500D01*
X134718417Y-46755500D01*
X134521583Y-46755500D01*
X134521578Y-46755500D01*
X134327173Y-46786290D01*
X134139970Y-46847117D01*
X133964594Y-46936476D01*
X133873741Y-47002485D01*
X133805354Y-47052172D01*
X133805352Y-47052174D01*
X133805351Y-47052174D01*
X133666174Y-47191351D01*
X133666174Y-47191352D01*
X133666172Y-47191354D01*
X133626655Y-47245744D01*
X133550476Y-47350594D01*
X133461117Y-47525970D01*
X133400290Y-47713173D01*
X133369500Y-47907577D01*
X133369500Y-48104422D01*
X133400290Y-48298826D01*
X133461117Y-48486029D01*
X133541977Y-48644725D01*
X133550476Y-48661405D01*
X133666172Y-48820646D01*
X133805354Y-48959828D01*
X133964595Y-49075524D01*
X134047455Y-49117743D01*
X134139970Y-49164882D01*
X134139972Y-49164882D01*
X134139975Y-49164884D01*
X134240317Y-49197487D01*
X134327173Y-49225709D01*
X134521578Y-49256500D01*
X134521583Y-49256500D01*
X134718422Y-49256500D01*
X134912826Y-49225709D01*
X134914328Y-49225221D01*
X135100025Y-49164884D01*
X135275405Y-49075524D01*
X135434646Y-48959828D01*
X135573828Y-48820646D01*
X135689524Y-48661405D01*
X135778884Y-48486025D01*
X135778884Y-48486022D01*
X135779795Y-48484236D01*
X135827769Y-48433440D01*
X135895590Y-48416644D01*
X135961725Y-48439181D01*
X136000765Y-48484235D01*
X136090905Y-48661145D01*
X136116319Y-48696125D01*
X136116320Y-48696125D01*
X136760000Y-48052445D01*
X136760000Y-48058661D01*
X136787259Y-48160394D01*
X136839920Y-48251606D01*
X136914394Y-48326080D01*
X137005606Y-48378741D01*
X137107339Y-48406000D01*
X137113553Y-48406000D01*
X136469873Y-49049677D01*
X136469873Y-49049678D01*
X136504858Y-49075096D01*
X136680164Y-49164418D01*
X136867294Y-49225221D01*
X137061618Y-49256000D01*
X137258382Y-49256000D01*
X137452705Y-49225221D01*
X137639835Y-49164418D01*
X137815143Y-49075095D01*
X137850125Y-49049678D01*
X137850126Y-49049678D01*
X137206448Y-48406000D01*
X137212661Y-48406000D01*
X137314394Y-48378741D01*
X137405606Y-48326080D01*
X137480080Y-48251606D01*
X137532741Y-48160394D01*
X137560000Y-48058661D01*
X137560000Y-48052448D01*
X138203678Y-48696126D01*
X138203678Y-48696125D01*
X138205682Y-48693369D01*
X138261013Y-48650704D01*
X138330626Y-48644725D01*
X138392421Y-48677331D01*
X138426778Y-48738170D01*
X138430000Y-48766255D01*
X138430000Y-49327609D01*
X138410315Y-49394648D01*
X138357511Y-49440403D01*
X138340065Y-49446838D01*
X136963935Y-49840017D01*
X136894068Y-49839507D01*
X136867871Y-49828176D01*
X136747698Y-49758795D01*
X136674752Y-49716680D01*
X136460330Y-49627863D01*
X136460331Y-49627863D01*
X136460328Y-49627862D01*
X136318203Y-49589780D01*
X136236149Y-49567794D01*
X136207386Y-49564007D01*
X136006052Y-49537500D01*
X136006045Y-49537500D01*
X135773955Y-49537500D01*
X135773947Y-49537500D01*
X135543851Y-49567794D01*
X135319671Y-49627862D01*
X135105254Y-49716677D01*
X135105237Y-49716685D01*
X134904256Y-49832720D01*
X134904254Y-49832721D01*
X134720124Y-49974009D01*
X134720117Y-49974015D01*
X134556015Y-50138117D01*
X134556009Y-50138124D01*
X134414721Y-50322254D01*
X134414720Y-50322256D01*
X134298685Y-50523237D01*
X134298677Y-50523254D01*
X134209862Y-50737671D01*
X134149794Y-50961851D01*
X134119500Y-51191947D01*
X134119500Y-51424052D01*
X134149794Y-51654148D01*
X134209862Y-51878328D01*
X134298677Y-52092745D01*
X134298685Y-52092762D01*
X134414720Y-52293743D01*
X134414721Y-52293745D01*
X134556009Y-52477875D01*
X134556015Y-52477882D01*
X134720117Y-52641984D01*
X134720124Y-52641990D01*
X134904254Y-52783278D01*
X134904256Y-52783279D01*
X135105237Y-52899314D01*
X135105241Y-52899316D01*
X135105248Y-52899320D01*
X135105253Y-52899322D01*
X135105259Y-52899325D01*
X135184407Y-52932109D01*
X135305453Y-52982248D01*
X135359856Y-53026088D01*
X135381921Y-53092382D01*
X135382000Y-53096808D01*
X135382000Y-56699989D01*
X135362315Y-56767028D01*
X135309511Y-56812783D01*
X135240353Y-56822727D01*
X135233810Y-56821607D01*
X135155341Y-56805999D01*
X134997657Y-56805999D01*
X134997654Y-56805999D01*
X134843009Y-56836760D01*
X134842997Y-56836763D01*
X134697326Y-56897101D01*
X134697313Y-56897108D01*
X134566210Y-56984709D01*
X134566206Y-56984712D01*
X134454712Y-57096206D01*
X134454709Y-57096210D01*
X134367108Y-57227313D01*
X134367101Y-57227326D01*
X134306763Y-57372997D01*
X134306760Y-57373009D01*
X134275999Y-57527652D01*
X134275999Y-57685345D01*
X134306760Y-57839988D01*
X134306763Y-57840000D01*
X134367101Y-57985671D01*
X134367108Y-57985684D01*
X134454709Y-58116787D01*
X134454712Y-58116791D01*
X134566206Y-58228285D01*
X134566210Y-58228288D01*
X134697313Y-58315889D01*
X134697326Y-58315896D01*
X134842997Y-58376234D01*
X134843002Y-58376236D01*
X134997652Y-58406998D01*
X134997655Y-58406999D01*
X134997657Y-58406999D01*
X135155343Y-58406999D01*
X135233808Y-58391391D01*
X135303400Y-58397618D01*
X135358577Y-58440481D01*
X135381822Y-58506370D01*
X135382000Y-58513008D01*
X135382000Y-63630000D01*
X135362315Y-63697039D01*
X135309511Y-63742794D01*
X135258000Y-63754000D01*
X127939495Y-63754000D01*
X127919862Y-63748235D01*
X127899417Y-63747345D01*
X127876728Y-63735569D01*
X127872456Y-63734315D01*
X127867981Y-63731300D01*
X127867258Y-63730789D01*
X127707816Y-63614949D01*
X127691115Y-63606439D01*
X127683835Y-63601300D01*
X127667440Y-63580627D01*
X127648259Y-63562512D01*
X127646072Y-63553683D01*
X127640420Y-63546556D01*
X127637804Y-63520299D01*
X127631463Y-63494692D01*
X127634396Y-63486082D01*
X127633495Y-63477030D01*
X127645489Y-63453528D01*
X127653999Y-63428556D01*
X127661593Y-63421975D01*
X127665257Y-63414797D01*
X127679369Y-63406572D01*
X127699054Y-63389515D01*
X127707816Y-63385051D01*
X127729789Y-63369086D01*
X127879786Y-63260109D01*
X127879788Y-63260106D01*
X127879792Y-63260104D01*
X128030104Y-63109792D01*
X128030106Y-63109788D01*
X128030109Y-63109786D01*
X128153902Y-62939397D01*
X128155051Y-62937816D01*
X128251557Y-62748412D01*
X128315935Y-62550276D01*
X128355370Y-62492605D01*
X128419729Y-62465406D01*
X128488575Y-62477320D01*
X128540051Y-62524564D01*
X128548425Y-62541145D01*
X128576604Y-62609175D01*
X128576609Y-62609185D01*
X128664210Y-62740288D01*
X128664213Y-62740292D01*
X128775707Y-62851786D01*
X128775711Y-62851789D01*
X128906814Y-62939390D01*
X128906827Y-62939397D01*
X129052498Y-62999735D01*
X129052503Y-62999737D01*
X129207153Y-63030499D01*
X129207156Y-63030500D01*
X129207158Y-63030500D01*
X129364844Y-63030500D01*
X129364845Y-63030499D01*
X129519497Y-62999737D01*
X129665179Y-62939394D01*
X129796289Y-62851789D01*
X129907789Y-62740289D01*
X129995394Y-62609179D01*
X130055737Y-62463497D01*
X130086500Y-62308842D01*
X130086500Y-62151158D01*
X130086500Y-62151155D01*
X130086499Y-62151153D01*
X130055738Y-61996510D01*
X130055737Y-61996503D01*
X130026909Y-61926905D01*
X129995397Y-61850827D01*
X129995390Y-61850814D01*
X129907789Y-61719711D01*
X129907786Y-61719707D01*
X129796292Y-61608213D01*
X129796288Y-61608210D01*
X129665185Y-61520609D01*
X129665172Y-61520602D01*
X129519501Y-61460264D01*
X129519489Y-61460261D01*
X129364845Y-61429500D01*
X129364842Y-61429500D01*
X129207158Y-61429500D01*
X129207155Y-61429500D01*
X129052510Y-61460261D01*
X129052498Y-61460264D01*
X128906827Y-61520602D01*
X128906814Y-61520609D01*
X128775711Y-61608210D01*
X128775707Y-61608213D01*
X128664213Y-61719707D01*
X128664210Y-61719711D01*
X128576609Y-61850814D01*
X128576606Y-61850820D01*
X128548425Y-61918855D01*
X128504583Y-61973258D01*
X128438289Y-61995322D01*
X128370590Y-61978042D01*
X128322980Y-61926905D01*
X128315937Y-61909730D01*
X128251557Y-61711588D01*
X128155051Y-61522184D01*
X128155049Y-61522181D01*
X128155048Y-61522179D01*
X128030109Y-61350213D01*
X127879786Y-61199890D01*
X127707820Y-61074951D01*
X127707115Y-61074591D01*
X127699054Y-61070485D01*
X127648259Y-61022512D01*
X127631463Y-60954692D01*
X127653999Y-60888556D01*
X127699054Y-60849515D01*
X127707816Y-60845051D01*
X127729789Y-60829086D01*
X127879786Y-60720109D01*
X127879788Y-60720106D01*
X127879792Y-60720104D01*
X128030104Y-60569792D01*
X128030106Y-60569788D01*
X128030109Y-60569786D01*
X128155048Y-60397820D01*
X128155047Y-60397820D01*
X128155051Y-60397816D01*
X128251557Y-60208412D01*
X128317246Y-60006243D01*
X128350500Y-59796287D01*
X128350500Y-59583713D01*
X128317246Y-59373757D01*
X128251557Y-59171588D01*
X128155051Y-58982184D01*
X128155049Y-58982181D01*
X128155048Y-58982179D01*
X128030109Y-58810213D01*
X127879786Y-58659890D01*
X127707820Y-58534951D01*
X127707115Y-58534591D01*
X127699054Y-58530485D01*
X127648259Y-58482512D01*
X127631463Y-58414692D01*
X127653999Y-58348556D01*
X127699054Y-58309515D01*
X127707816Y-58305051D01*
X127813472Y-58228288D01*
X127879786Y-58180109D01*
X127879788Y-58180106D01*
X127879792Y-58180104D01*
X128030104Y-58029792D01*
X128030106Y-58029788D01*
X128030109Y-58029786D01*
X128155048Y-57857820D01*
X128155047Y-57857820D01*
X128155051Y-57857816D01*
X128251557Y-57668412D01*
X128317246Y-57466243D01*
X128339593Y-57325153D01*
X131025500Y-57325153D01*
X131025500Y-57482846D01*
X131056261Y-57637489D01*
X131056264Y-57637501D01*
X131116602Y-57783172D01*
X131116609Y-57783185D01*
X131204210Y-57914288D01*
X131204213Y-57914292D01*
X131315707Y-58025786D01*
X131315711Y-58025789D01*
X131446814Y-58113390D01*
X131446827Y-58113397D01*
X131513808Y-58141141D01*
X131568212Y-58184981D01*
X131590277Y-58251275D01*
X131572998Y-58318975D01*
X131554038Y-58343383D01*
X131458210Y-58439211D01*
X131370609Y-58570314D01*
X131370602Y-58570327D01*
X131310264Y-58715998D01*
X131310261Y-58716010D01*
X131279500Y-58870653D01*
X131279500Y-59028346D01*
X131310261Y-59182989D01*
X131310264Y-59183001D01*
X131370602Y-59328672D01*
X131370609Y-59328685D01*
X131458210Y-59459788D01*
X131458213Y-59459792D01*
X131569707Y-59571286D01*
X131569711Y-59571289D01*
X131700814Y-59658890D01*
X131700827Y-59658897D01*
X131846498Y-59719235D01*
X131846503Y-59719237D01*
X132001153Y-59749999D01*
X132001156Y-59750000D01*
X132001158Y-59750000D01*
X132158844Y-59750000D01*
X132158845Y-59749999D01*
X132313497Y-59719237D01*
X132459179Y-59658894D01*
X132590289Y-59571289D01*
X132701789Y-59459789D01*
X132789394Y-59328679D01*
X132849737Y-59182997D01*
X132880500Y-59028342D01*
X132880500Y-58870658D01*
X132880500Y-58870655D01*
X132880499Y-58870653D01*
X132849738Y-58716010D01*
X132849737Y-58716003D01*
X132826497Y-58659896D01*
X132789397Y-58570327D01*
X132789390Y-58570314D01*
X132701789Y-58439211D01*
X132701786Y-58439207D01*
X132590292Y-58327713D01*
X132590288Y-58327710D01*
X132459185Y-58240109D01*
X132459175Y-58240104D01*
X132392190Y-58212358D01*
X132337787Y-58168517D01*
X132315722Y-58102223D01*
X132333001Y-58034523D01*
X132351958Y-58010119D01*
X132447789Y-57914289D01*
X132535394Y-57783179D01*
X132595737Y-57637497D01*
X132626500Y-57482842D01*
X132626500Y-57325158D01*
X132626500Y-57325155D01*
X132626499Y-57325153D01*
X132614293Y-57263789D01*
X132595737Y-57170503D01*
X132564964Y-57096210D01*
X132535397Y-57024827D01*
X132535390Y-57024814D01*
X132447789Y-56893711D01*
X132447786Y-56893707D01*
X132336292Y-56782213D01*
X132336288Y-56782210D01*
X132205185Y-56694609D01*
X132205172Y-56694602D01*
X132059501Y-56634264D01*
X132059489Y-56634261D01*
X131904845Y-56603500D01*
X131904842Y-56603500D01*
X131747158Y-56603500D01*
X131747155Y-56603500D01*
X131592510Y-56634261D01*
X131592498Y-56634264D01*
X131446827Y-56694602D01*
X131446814Y-56694609D01*
X131315711Y-56782210D01*
X131315707Y-56782213D01*
X131204213Y-56893707D01*
X131204210Y-56893711D01*
X131116609Y-57024814D01*
X131116602Y-57024827D01*
X131056264Y-57170498D01*
X131056261Y-57170510D01*
X131025500Y-57325153D01*
X128339593Y-57325153D01*
X128350500Y-57256287D01*
X128350500Y-57043713D01*
X128317246Y-56833757D01*
X128251557Y-56631588D01*
X128155051Y-56442184D01*
X128155049Y-56442181D01*
X128155048Y-56442179D01*
X128030109Y-56270213D01*
X127879786Y-56119890D01*
X127707820Y-55994951D01*
X127707115Y-55994591D01*
X127699054Y-55990485D01*
X127648259Y-55942512D01*
X127631463Y-55874692D01*
X127653999Y-55808556D01*
X127699054Y-55769515D01*
X127707816Y-55765051D01*
X127729789Y-55749086D01*
X127879786Y-55640109D01*
X127879788Y-55640106D01*
X127879792Y-55640104D01*
X128030104Y-55489792D01*
X128030106Y-55489788D01*
X128030109Y-55489786D01*
X128155048Y-55317820D01*
X128155047Y-55317820D01*
X128155051Y-55317816D01*
X128251557Y-55128412D01*
X128317246Y-54926243D01*
X128350500Y-54716287D01*
X128350500Y-54503713D01*
X128317246Y-54293757D01*
X128251557Y-54091588D01*
X128155051Y-53902184D01*
X128155049Y-53902181D01*
X128155048Y-53902179D01*
X128030109Y-53730213D01*
X127916181Y-53616285D01*
X127882696Y-53554962D01*
X127887680Y-53485270D01*
X127929552Y-53429337D01*
X127960529Y-53412422D01*
X128092086Y-53363354D01*
X128092093Y-53363350D01*
X128207187Y-53277190D01*
X128207190Y-53277187D01*
X128293350Y-53162093D01*
X128293354Y-53162086D01*
X128343596Y-53027379D01*
X128343598Y-53027372D01*
X128349999Y-52967844D01*
X128350000Y-52967827D01*
X128350000Y-52320000D01*
X127433012Y-52320000D01*
X127465925Y-52262993D01*
X127500000Y-52135826D01*
X127500000Y-52004174D01*
X127465925Y-51877007D01*
X127433012Y-51820000D01*
X128350000Y-51820000D01*
X128350000Y-51172172D01*
X128349999Y-51172155D01*
X128343598Y-51112627D01*
X128343596Y-51112620D01*
X128293354Y-50977913D01*
X128293350Y-50977906D01*
X128207190Y-50862812D01*
X128207187Y-50862809D01*
X128092093Y-50776649D01*
X128092086Y-50776645D01*
X127957379Y-50726403D01*
X127957372Y-50726401D01*
X127897844Y-50720000D01*
X127250000Y-50720000D01*
X127250000Y-51636988D01*
X127192993Y-51604075D01*
X127065826Y-51570000D01*
X127000000Y-51570000D01*
X127000000Y-43812000D01*
X127019685Y-43744961D01*
X127072489Y-43699206D01*
X127124000Y-43688000D01*
X128777557Y-43688000D01*
X128844596Y-43707685D01*
G37*
%TD.AperFunction*%
%TD*%
M02*
