%TF.GenerationSoftware,KiCad,Pcbnew,9.0.3*%
%TF.CreationDate,2025-12-07T20:29:13-06:00*%
%TF.ProjectId,IsolatedADSBoard,49736f6c-6174-4656-9441-4453426f6172,rev?*%
%TF.SameCoordinates,Original*%
%TF.FileFunction,Legend,Top*%
%TF.FilePolarity,Positive*%
%FSLAX46Y46*%
G04 Gerber Fmt 4.6, Leading zero omitted, Abs format (unit mm)*
G04 Created by KiCad (PCBNEW 9.0.3) date 2025-12-07 20:29:13*
%MOMM*%
%LPD*%
G01*
G04 APERTURE LIST*
%ADD10C,0.150000*%
%ADD11C,0.100000*%
%ADD12C,0.120000*%
G04 APERTURE END LIST*
D10*
X130389333Y-70304819D02*
X130056000Y-69828628D01*
X129817905Y-70304819D02*
X129817905Y-69304819D01*
X129817905Y-69304819D02*
X130198857Y-69304819D01*
X130198857Y-69304819D02*
X130294095Y-69352438D01*
X130294095Y-69352438D02*
X130341714Y-69400057D01*
X130341714Y-69400057D02*
X130389333Y-69495295D01*
X130389333Y-69495295D02*
X130389333Y-69638152D01*
X130389333Y-69638152D02*
X130341714Y-69733390D01*
X130341714Y-69733390D02*
X130294095Y-69781009D01*
X130294095Y-69781009D02*
X130198857Y-69828628D01*
X130198857Y-69828628D02*
X129817905Y-69828628D01*
X130722667Y-69304819D02*
X131389333Y-69304819D01*
X131389333Y-69304819D02*
X130960762Y-70304819D01*
X132707142Y-74494819D02*
X132373809Y-74018628D01*
X132135714Y-74494819D02*
X132135714Y-73494819D01*
X132135714Y-73494819D02*
X132516666Y-73494819D01*
X132516666Y-73494819D02*
X132611904Y-73542438D01*
X132611904Y-73542438D02*
X132659523Y-73590057D01*
X132659523Y-73590057D02*
X132707142Y-73685295D01*
X132707142Y-73685295D02*
X132707142Y-73828152D01*
X132707142Y-73828152D02*
X132659523Y-73923390D01*
X132659523Y-73923390D02*
X132611904Y-73971009D01*
X132611904Y-73971009D02*
X132516666Y-74018628D01*
X132516666Y-74018628D02*
X132135714Y-74018628D01*
X133659523Y-74494819D02*
X133088095Y-74494819D01*
X133373809Y-74494819D02*
X133373809Y-73494819D01*
X133373809Y-73494819D02*
X133278571Y-73637676D01*
X133278571Y-73637676D02*
X133183333Y-73732914D01*
X133183333Y-73732914D02*
X133088095Y-73780533D01*
X134040476Y-73590057D02*
X134088095Y-73542438D01*
X134088095Y-73542438D02*
X134183333Y-73494819D01*
X134183333Y-73494819D02*
X134421428Y-73494819D01*
X134421428Y-73494819D02*
X134516666Y-73542438D01*
X134516666Y-73542438D02*
X134564285Y-73590057D01*
X134564285Y-73590057D02*
X134611904Y-73685295D01*
X134611904Y-73685295D02*
X134611904Y-73780533D01*
X134611904Y-73780533D02*
X134564285Y-73923390D01*
X134564285Y-73923390D02*
X133992857Y-74494819D01*
X133992857Y-74494819D02*
X134611904Y-74494819D01*
X135344819Y-68579904D02*
X136154342Y-68579904D01*
X136154342Y-68579904D02*
X136249580Y-68532285D01*
X136249580Y-68532285D02*
X136297200Y-68484666D01*
X136297200Y-68484666D02*
X136344819Y-68389428D01*
X136344819Y-68389428D02*
X136344819Y-68198952D01*
X136344819Y-68198952D02*
X136297200Y-68103714D01*
X136297200Y-68103714D02*
X136249580Y-68056095D01*
X136249580Y-68056095D02*
X136154342Y-68008476D01*
X136154342Y-68008476D02*
X135344819Y-68008476D01*
X135344819Y-67627523D02*
X135344819Y-67008476D01*
X135344819Y-67008476D02*
X135725771Y-67341809D01*
X135725771Y-67341809D02*
X135725771Y-67198952D01*
X135725771Y-67198952D02*
X135773390Y-67103714D01*
X135773390Y-67103714D02*
X135821009Y-67056095D01*
X135821009Y-67056095D02*
X135916247Y-67008476D01*
X135916247Y-67008476D02*
X136154342Y-67008476D01*
X136154342Y-67008476D02*
X136249580Y-67056095D01*
X136249580Y-67056095D02*
X136297200Y-67103714D01*
X136297200Y-67103714D02*
X136344819Y-67198952D01*
X136344819Y-67198952D02*
X136344819Y-67484666D01*
X136344819Y-67484666D02*
X136297200Y-67579904D01*
X136297200Y-67579904D02*
X136249580Y-67627523D01*
D11*
X144557905Y-47971419D02*
X144557905Y-48780942D01*
X144557905Y-48780942D02*
X144605524Y-48876180D01*
X144605524Y-48876180D02*
X144653143Y-48923800D01*
X144653143Y-48923800D02*
X144748381Y-48971419D01*
X144748381Y-48971419D02*
X144938857Y-48971419D01*
X144938857Y-48971419D02*
X145034095Y-48923800D01*
X145034095Y-48923800D02*
X145081714Y-48876180D01*
X145081714Y-48876180D02*
X145129333Y-48780942D01*
X145129333Y-48780942D02*
X145129333Y-47971419D01*
X146129333Y-48971419D02*
X145557905Y-48971419D01*
X145843619Y-48971419D02*
X145843619Y-47971419D01*
X145843619Y-47971419D02*
X145748381Y-48114276D01*
X145748381Y-48114276D02*
X145653143Y-48209514D01*
X145653143Y-48209514D02*
X145557905Y-48257133D01*
X146986476Y-48304752D02*
X146986476Y-48971419D01*
X146748381Y-47923800D02*
X146510286Y-48638085D01*
X146510286Y-48638085D02*
X147129333Y-48638085D01*
D10*
X136937905Y-60668819D02*
X136937905Y-61478342D01*
X136937905Y-61478342D02*
X136985524Y-61573580D01*
X136985524Y-61573580D02*
X137033143Y-61621200D01*
X137033143Y-61621200D02*
X137128381Y-61668819D01*
X137128381Y-61668819D02*
X137318857Y-61668819D01*
X137318857Y-61668819D02*
X137414095Y-61621200D01*
X137414095Y-61621200D02*
X137461714Y-61573580D01*
X137461714Y-61573580D02*
X137509333Y-61478342D01*
X137509333Y-61478342D02*
X137509333Y-60668819D01*
X138509333Y-61668819D02*
X137937905Y-61668819D01*
X138223619Y-61668819D02*
X138223619Y-60668819D01*
X138223619Y-60668819D02*
X138128381Y-60811676D01*
X138128381Y-60811676D02*
X138033143Y-60906914D01*
X138033143Y-60906914D02*
X137937905Y-60954533D01*
X138842667Y-60668819D02*
X139461714Y-60668819D01*
X139461714Y-60668819D02*
X139128381Y-61049771D01*
X139128381Y-61049771D02*
X139271238Y-61049771D01*
X139271238Y-61049771D02*
X139366476Y-61097390D01*
X139366476Y-61097390D02*
X139414095Y-61145009D01*
X139414095Y-61145009D02*
X139461714Y-61240247D01*
X139461714Y-61240247D02*
X139461714Y-61478342D01*
X139461714Y-61478342D02*
X139414095Y-61573580D01*
X139414095Y-61573580D02*
X139366476Y-61621200D01*
X139366476Y-61621200D02*
X139271238Y-61668819D01*
X139271238Y-61668819D02*
X138985524Y-61668819D01*
X138985524Y-61668819D02*
X138890286Y-61621200D01*
X138890286Y-61621200D02*
X138842667Y-61573580D01*
X130135333Y-55477580D02*
X130087714Y-55525200D01*
X130087714Y-55525200D02*
X129944857Y-55572819D01*
X129944857Y-55572819D02*
X129849619Y-55572819D01*
X129849619Y-55572819D02*
X129706762Y-55525200D01*
X129706762Y-55525200D02*
X129611524Y-55429961D01*
X129611524Y-55429961D02*
X129563905Y-55334723D01*
X129563905Y-55334723D02*
X129516286Y-55144247D01*
X129516286Y-55144247D02*
X129516286Y-55001390D01*
X129516286Y-55001390D02*
X129563905Y-54810914D01*
X129563905Y-54810914D02*
X129611524Y-54715676D01*
X129611524Y-54715676D02*
X129706762Y-54620438D01*
X129706762Y-54620438D02*
X129849619Y-54572819D01*
X129849619Y-54572819D02*
X129944857Y-54572819D01*
X129944857Y-54572819D02*
X130087714Y-54620438D01*
X130087714Y-54620438D02*
X130135333Y-54668057D01*
X130706762Y-55001390D02*
X130611524Y-54953771D01*
X130611524Y-54953771D02*
X130563905Y-54906152D01*
X130563905Y-54906152D02*
X130516286Y-54810914D01*
X130516286Y-54810914D02*
X130516286Y-54763295D01*
X130516286Y-54763295D02*
X130563905Y-54668057D01*
X130563905Y-54668057D02*
X130611524Y-54620438D01*
X130611524Y-54620438D02*
X130706762Y-54572819D01*
X130706762Y-54572819D02*
X130897238Y-54572819D01*
X130897238Y-54572819D02*
X130992476Y-54620438D01*
X130992476Y-54620438D02*
X131040095Y-54668057D01*
X131040095Y-54668057D02*
X131087714Y-54763295D01*
X131087714Y-54763295D02*
X131087714Y-54810914D01*
X131087714Y-54810914D02*
X131040095Y-54906152D01*
X131040095Y-54906152D02*
X130992476Y-54953771D01*
X130992476Y-54953771D02*
X130897238Y-55001390D01*
X130897238Y-55001390D02*
X130706762Y-55001390D01*
X130706762Y-55001390D02*
X130611524Y-55049009D01*
X130611524Y-55049009D02*
X130563905Y-55096628D01*
X130563905Y-55096628D02*
X130516286Y-55191866D01*
X130516286Y-55191866D02*
X130516286Y-55382342D01*
X130516286Y-55382342D02*
X130563905Y-55477580D01*
X130563905Y-55477580D02*
X130611524Y-55525200D01*
X130611524Y-55525200D02*
X130706762Y-55572819D01*
X130706762Y-55572819D02*
X130897238Y-55572819D01*
X130897238Y-55572819D02*
X130992476Y-55525200D01*
X130992476Y-55525200D02*
X131040095Y-55477580D01*
X131040095Y-55477580D02*
X131087714Y-55382342D01*
X131087714Y-55382342D02*
X131087714Y-55191866D01*
X131087714Y-55191866D02*
X131040095Y-55096628D01*
X131040095Y-55096628D02*
X130992476Y-55049009D01*
X130992476Y-55049009D02*
X130897238Y-55001390D01*
X144446666Y-49144819D02*
X144446666Y-49859104D01*
X144446666Y-49859104D02*
X144399047Y-50001961D01*
X144399047Y-50001961D02*
X144303809Y-50097200D01*
X144303809Y-50097200D02*
X144160952Y-50144819D01*
X144160952Y-50144819D02*
X144065714Y-50144819D01*
X144875238Y-49240057D02*
X144922857Y-49192438D01*
X144922857Y-49192438D02*
X145018095Y-49144819D01*
X145018095Y-49144819D02*
X145256190Y-49144819D01*
X145256190Y-49144819D02*
X145351428Y-49192438D01*
X145351428Y-49192438D02*
X145399047Y-49240057D01*
X145399047Y-49240057D02*
X145446666Y-49335295D01*
X145446666Y-49335295D02*
X145446666Y-49430533D01*
X145446666Y-49430533D02*
X145399047Y-49573390D01*
X145399047Y-49573390D02*
X144827619Y-50144819D01*
X144827619Y-50144819D02*
X145446666Y-50144819D01*
X141311333Y-55477580D02*
X141263714Y-55525200D01*
X141263714Y-55525200D02*
X141120857Y-55572819D01*
X141120857Y-55572819D02*
X141025619Y-55572819D01*
X141025619Y-55572819D02*
X140882762Y-55525200D01*
X140882762Y-55525200D02*
X140787524Y-55429961D01*
X140787524Y-55429961D02*
X140739905Y-55334723D01*
X140739905Y-55334723D02*
X140692286Y-55144247D01*
X140692286Y-55144247D02*
X140692286Y-55001390D01*
X140692286Y-55001390D02*
X140739905Y-54810914D01*
X140739905Y-54810914D02*
X140787524Y-54715676D01*
X140787524Y-54715676D02*
X140882762Y-54620438D01*
X140882762Y-54620438D02*
X141025619Y-54572819D01*
X141025619Y-54572819D02*
X141120857Y-54572819D01*
X141120857Y-54572819D02*
X141263714Y-54620438D01*
X141263714Y-54620438D02*
X141311333Y-54668057D01*
X141644667Y-54572819D02*
X142311333Y-54572819D01*
X142311333Y-54572819D02*
X141882762Y-55572819D01*
X131238666Y-48730819D02*
X131238666Y-49445104D01*
X131238666Y-49445104D02*
X131191047Y-49587961D01*
X131191047Y-49587961D02*
X131095809Y-49683200D01*
X131095809Y-49683200D02*
X130952952Y-49730819D01*
X130952952Y-49730819D02*
X130857714Y-49730819D01*
X131619619Y-48730819D02*
X132238666Y-48730819D01*
X132238666Y-48730819D02*
X131905333Y-49111771D01*
X131905333Y-49111771D02*
X132048190Y-49111771D01*
X132048190Y-49111771D02*
X132143428Y-49159390D01*
X132143428Y-49159390D02*
X132191047Y-49207009D01*
X132191047Y-49207009D02*
X132238666Y-49302247D01*
X132238666Y-49302247D02*
X132238666Y-49540342D01*
X132238666Y-49540342D02*
X132191047Y-49635580D01*
X132191047Y-49635580D02*
X132143428Y-49683200D01*
X132143428Y-49683200D02*
X132048190Y-49730819D01*
X132048190Y-49730819D02*
X131762476Y-49730819D01*
X131762476Y-49730819D02*
X131667238Y-49683200D01*
X131667238Y-49683200D02*
X131619619Y-49635580D01*
X141565333Y-73257580D02*
X141517714Y-73305200D01*
X141517714Y-73305200D02*
X141374857Y-73352819D01*
X141374857Y-73352819D02*
X141279619Y-73352819D01*
X141279619Y-73352819D02*
X141136762Y-73305200D01*
X141136762Y-73305200D02*
X141041524Y-73209961D01*
X141041524Y-73209961D02*
X140993905Y-73114723D01*
X140993905Y-73114723D02*
X140946286Y-72924247D01*
X140946286Y-72924247D02*
X140946286Y-72781390D01*
X140946286Y-72781390D02*
X140993905Y-72590914D01*
X140993905Y-72590914D02*
X141041524Y-72495676D01*
X141041524Y-72495676D02*
X141136762Y-72400438D01*
X141136762Y-72400438D02*
X141279619Y-72352819D01*
X141279619Y-72352819D02*
X141374857Y-72352819D01*
X141374857Y-72352819D02*
X141517714Y-72400438D01*
X141517714Y-72400438D02*
X141565333Y-72448057D01*
X142422476Y-72686152D02*
X142422476Y-73352819D01*
X142184381Y-72305200D02*
X141946286Y-73019485D01*
X141946286Y-73019485D02*
X142565333Y-73019485D01*
X133945333Y-54048819D02*
X133612000Y-53572628D01*
X133373905Y-54048819D02*
X133373905Y-53048819D01*
X133373905Y-53048819D02*
X133754857Y-53048819D01*
X133754857Y-53048819D02*
X133850095Y-53096438D01*
X133850095Y-53096438D02*
X133897714Y-53144057D01*
X133897714Y-53144057D02*
X133945333Y-53239295D01*
X133945333Y-53239295D02*
X133945333Y-53382152D01*
X133945333Y-53382152D02*
X133897714Y-53477390D01*
X133897714Y-53477390D02*
X133850095Y-53525009D01*
X133850095Y-53525009D02*
X133754857Y-53572628D01*
X133754857Y-53572628D02*
X133373905Y-53572628D01*
X134897714Y-54048819D02*
X134326286Y-54048819D01*
X134612000Y-54048819D02*
X134612000Y-53048819D01*
X134612000Y-53048819D02*
X134516762Y-53191676D01*
X134516762Y-53191676D02*
X134421524Y-53286914D01*
X134421524Y-53286914D02*
X134326286Y-53334533D01*
X138376819Y-51728666D02*
X137900628Y-52061999D01*
X138376819Y-52300094D02*
X137376819Y-52300094D01*
X137376819Y-52300094D02*
X137376819Y-51919142D01*
X137376819Y-51919142D02*
X137424438Y-51823904D01*
X137424438Y-51823904D02*
X137472057Y-51776285D01*
X137472057Y-51776285D02*
X137567295Y-51728666D01*
X137567295Y-51728666D02*
X137710152Y-51728666D01*
X137710152Y-51728666D02*
X137805390Y-51776285D01*
X137805390Y-51776285D02*
X137853009Y-51823904D01*
X137853009Y-51823904D02*
X137900628Y-51919142D01*
X137900628Y-51919142D02*
X137900628Y-52300094D01*
X137376819Y-51395332D02*
X137376819Y-50776285D01*
X137376819Y-50776285D02*
X137757771Y-51109618D01*
X137757771Y-51109618D02*
X137757771Y-50966761D01*
X137757771Y-50966761D02*
X137805390Y-50871523D01*
X137805390Y-50871523D02*
X137853009Y-50823904D01*
X137853009Y-50823904D02*
X137948247Y-50776285D01*
X137948247Y-50776285D02*
X138186342Y-50776285D01*
X138186342Y-50776285D02*
X138281580Y-50823904D01*
X138281580Y-50823904D02*
X138329200Y-50871523D01*
X138329200Y-50871523D02*
X138376819Y-50966761D01*
X138376819Y-50966761D02*
X138376819Y-51252475D01*
X138376819Y-51252475D02*
X138329200Y-51347713D01*
X138329200Y-51347713D02*
X138281580Y-51395332D01*
X142440819Y-65698666D02*
X141964628Y-66031999D01*
X142440819Y-66270094D02*
X141440819Y-66270094D01*
X141440819Y-66270094D02*
X141440819Y-65889142D01*
X141440819Y-65889142D02*
X141488438Y-65793904D01*
X141488438Y-65793904D02*
X141536057Y-65746285D01*
X141536057Y-65746285D02*
X141631295Y-65698666D01*
X141631295Y-65698666D02*
X141774152Y-65698666D01*
X141774152Y-65698666D02*
X141869390Y-65746285D01*
X141869390Y-65746285D02*
X141917009Y-65793904D01*
X141917009Y-65793904D02*
X141964628Y-65889142D01*
X141964628Y-65889142D02*
X141964628Y-66270094D01*
X141440819Y-64841523D02*
X141440819Y-65031999D01*
X141440819Y-65031999D02*
X141488438Y-65127237D01*
X141488438Y-65127237D02*
X141536057Y-65174856D01*
X141536057Y-65174856D02*
X141678914Y-65270094D01*
X141678914Y-65270094D02*
X141869390Y-65317713D01*
X141869390Y-65317713D02*
X142250342Y-65317713D01*
X142250342Y-65317713D02*
X142345580Y-65270094D01*
X142345580Y-65270094D02*
X142393200Y-65222475D01*
X142393200Y-65222475D02*
X142440819Y-65127237D01*
X142440819Y-65127237D02*
X142440819Y-64936761D01*
X142440819Y-64936761D02*
X142393200Y-64841523D01*
X142393200Y-64841523D02*
X142345580Y-64793904D01*
X142345580Y-64793904D02*
X142250342Y-64746285D01*
X142250342Y-64746285D02*
X142012247Y-64746285D01*
X142012247Y-64746285D02*
X141917009Y-64793904D01*
X141917009Y-64793904D02*
X141869390Y-64841523D01*
X141869390Y-64841523D02*
X141821771Y-64936761D01*
X141821771Y-64936761D02*
X141821771Y-65127237D01*
X141821771Y-65127237D02*
X141869390Y-65222475D01*
X141869390Y-65222475D02*
X141917009Y-65270094D01*
X141917009Y-65270094D02*
X142012247Y-65317713D01*
X137501333Y-53794819D02*
X137168000Y-53318628D01*
X136929905Y-53794819D02*
X136929905Y-52794819D01*
X136929905Y-52794819D02*
X137310857Y-52794819D01*
X137310857Y-52794819D02*
X137406095Y-52842438D01*
X137406095Y-52842438D02*
X137453714Y-52890057D01*
X137453714Y-52890057D02*
X137501333Y-52985295D01*
X137501333Y-52985295D02*
X137501333Y-53128152D01*
X137501333Y-53128152D02*
X137453714Y-53223390D01*
X137453714Y-53223390D02*
X137406095Y-53271009D01*
X137406095Y-53271009D02*
X137310857Y-53318628D01*
X137310857Y-53318628D02*
X136929905Y-53318628D01*
X138358476Y-53128152D02*
X138358476Y-53794819D01*
X138120381Y-52747200D02*
X137882286Y-53461485D01*
X137882286Y-53461485D02*
X138501333Y-53461485D01*
X126666666Y-49144819D02*
X126666666Y-49859104D01*
X126666666Y-49859104D02*
X126619047Y-50001961D01*
X126619047Y-50001961D02*
X126523809Y-50097200D01*
X126523809Y-50097200D02*
X126380952Y-50144819D01*
X126380952Y-50144819D02*
X126285714Y-50144819D01*
X127666666Y-50144819D02*
X127095238Y-50144819D01*
X127380952Y-50144819D02*
X127380952Y-49144819D01*
X127380952Y-49144819D02*
X127285714Y-49287676D01*
X127285714Y-49287676D02*
X127190476Y-49382914D01*
X127190476Y-49382914D02*
X127095238Y-49430533D01*
X136344819Y-65444666D02*
X135868628Y-65777999D01*
X136344819Y-66016094D02*
X135344819Y-66016094D01*
X135344819Y-66016094D02*
X135344819Y-65635142D01*
X135344819Y-65635142D02*
X135392438Y-65539904D01*
X135392438Y-65539904D02*
X135440057Y-65492285D01*
X135440057Y-65492285D02*
X135535295Y-65444666D01*
X135535295Y-65444666D02*
X135678152Y-65444666D01*
X135678152Y-65444666D02*
X135773390Y-65492285D01*
X135773390Y-65492285D02*
X135821009Y-65539904D01*
X135821009Y-65539904D02*
X135868628Y-65635142D01*
X135868628Y-65635142D02*
X135868628Y-66016094D01*
X135344819Y-64539904D02*
X135344819Y-65016094D01*
X135344819Y-65016094D02*
X135821009Y-65063713D01*
X135821009Y-65063713D02*
X135773390Y-65016094D01*
X135773390Y-65016094D02*
X135725771Y-64920856D01*
X135725771Y-64920856D02*
X135725771Y-64682761D01*
X135725771Y-64682761D02*
X135773390Y-64587523D01*
X135773390Y-64587523D02*
X135821009Y-64539904D01*
X135821009Y-64539904D02*
X135916247Y-64492285D01*
X135916247Y-64492285D02*
X136154342Y-64492285D01*
X136154342Y-64492285D02*
X136249580Y-64539904D01*
X136249580Y-64539904D02*
X136297200Y-64587523D01*
X136297200Y-64587523D02*
X136344819Y-64682761D01*
X136344819Y-64682761D02*
X136344819Y-64920856D01*
X136344819Y-64920856D02*
X136297200Y-65016094D01*
X136297200Y-65016094D02*
X136249580Y-65063713D01*
X134312819Y-50966666D02*
X133836628Y-51299999D01*
X134312819Y-51538094D02*
X133312819Y-51538094D01*
X133312819Y-51538094D02*
X133312819Y-51157142D01*
X133312819Y-51157142D02*
X133360438Y-51061904D01*
X133360438Y-51061904D02*
X133408057Y-51014285D01*
X133408057Y-51014285D02*
X133503295Y-50966666D01*
X133503295Y-50966666D02*
X133646152Y-50966666D01*
X133646152Y-50966666D02*
X133741390Y-51014285D01*
X133741390Y-51014285D02*
X133789009Y-51061904D01*
X133789009Y-51061904D02*
X133836628Y-51157142D01*
X133836628Y-51157142D02*
X133836628Y-51538094D01*
X133408057Y-50585713D02*
X133360438Y-50538094D01*
X133360438Y-50538094D02*
X133312819Y-50442856D01*
X133312819Y-50442856D02*
X133312819Y-50204761D01*
X133312819Y-50204761D02*
X133360438Y-50109523D01*
X133360438Y-50109523D02*
X133408057Y-50061904D01*
X133408057Y-50061904D02*
X133503295Y-50014285D01*
X133503295Y-50014285D02*
X133598533Y-50014285D01*
X133598533Y-50014285D02*
X133741390Y-50061904D01*
X133741390Y-50061904D02*
X134312819Y-50633332D01*
X134312819Y-50633332D02*
X134312819Y-50014285D01*
X128232819Y-68833904D02*
X129042342Y-68833904D01*
X129042342Y-68833904D02*
X129137580Y-68786285D01*
X129137580Y-68786285D02*
X129185200Y-68738666D01*
X129185200Y-68738666D02*
X129232819Y-68643428D01*
X129232819Y-68643428D02*
X129232819Y-68452952D01*
X129232819Y-68452952D02*
X129185200Y-68357714D01*
X129185200Y-68357714D02*
X129137580Y-68310095D01*
X129137580Y-68310095D02*
X129042342Y-68262476D01*
X129042342Y-68262476D02*
X128232819Y-68262476D01*
X129232819Y-67262476D02*
X129232819Y-67833904D01*
X129232819Y-67548190D02*
X128232819Y-67548190D01*
X128232819Y-67548190D02*
X128375676Y-67643428D01*
X128375676Y-67643428D02*
X128470914Y-67738666D01*
X128470914Y-67738666D02*
X128518533Y-67833904D01*
D12*
%TO.C,R7*%
X133122936Y-69115000D02*
X133577064Y-69115000D01*
X133122936Y-70585000D02*
X133577064Y-70585000D01*
%TO.C,R12*%
X133577064Y-71655000D02*
X133122936Y-71655000D01*
X133577064Y-73125000D02*
X133122936Y-73125000D01*
D10*
%TO.C,U3*%
X136170000Y-69227000D02*
X136395000Y-69227000D01*
X136170000Y-72477000D02*
X136170000Y-69227000D01*
X136170000Y-72477000D02*
X136395000Y-72477000D01*
X139420000Y-69227000D02*
X139195000Y-69227000D01*
X139420000Y-72477000D02*
X139195000Y-72477000D01*
X139420000Y-72477000D02*
X139420000Y-69227000D01*
D12*
X136395000Y-72952000D02*
X136065000Y-73192000D01*
X136065000Y-72712000D01*
X136395000Y-72952000D01*
G36*
X136395000Y-72952000D02*
G01*
X136065000Y-73192000D01*
X136065000Y-72712000D01*
X136395000Y-72952000D01*
G37*
D11*
%TO.C,U14*%
X132630000Y-48006000D02*
X133900000Y-49276000D01*
X134210947Y-46518423D02*
X134972947Y-46518423D01*
X134617347Y-46924823D02*
X134210947Y-46518423D01*
X134617347Y-46924823D02*
X135023747Y-46518423D01*
X134972947Y-46518423D02*
X135023747Y-46518423D01*
X132630000Y-43276000D02*
X144230000Y-43276000D01*
X144230000Y-49276000D01*
X132630000Y-49276000D01*
X132630000Y-43276000D01*
D12*
%TO.C,U13*%
X135890000Y-55098000D02*
X133940000Y-55098000D01*
X135890000Y-55098000D02*
X137840000Y-55098000D01*
X135890000Y-60218000D02*
X133940000Y-60218000D01*
X135890000Y-60218000D02*
X137840000Y-60218000D01*
X133190000Y-55193000D02*
X132950000Y-54863000D01*
X133430000Y-54863000D01*
X133190000Y-55193000D01*
G36*
X133190000Y-55193000D02*
G01*
X132950000Y-54863000D01*
X133430000Y-54863000D01*
X133190000Y-55193000D01*
G37*
%TO.C,C8*%
X129567000Y-57396748D02*
X129567000Y-57919252D01*
X131037000Y-57396748D02*
X131037000Y-57919252D01*
%TO.C,J2*%
X143400000Y-50690000D02*
X144780000Y-50690000D01*
X143400000Y-52070000D02*
X143400000Y-50690000D01*
X143400000Y-53340000D02*
X143400000Y-71230000D01*
X143400000Y-53340000D02*
X146160000Y-53340000D01*
X143400000Y-71230000D02*
X146160000Y-71230000D01*
X146160000Y-53340000D02*
X146160000Y-71230000D01*
%TO.C,C7*%
X140489000Y-57396748D02*
X140489000Y-57919252D01*
X141959000Y-57396748D02*
X141959000Y-57919252D01*
%TO.C,J3*%
X125839000Y-44288000D02*
X125839000Y-48168000D01*
X127809000Y-43118000D02*
X130309000Y-43118000D01*
X127809000Y-49338000D02*
X130309000Y-49338000D01*
X130309000Y-43118000D02*
X130309000Y-44168000D01*
X130309000Y-44168000D02*
X131299000Y-44168000D01*
X130309000Y-49338000D02*
X130309000Y-48288000D01*
%TO.C,C4*%
X140346000Y-70487252D02*
X140346000Y-69964748D01*
X141816000Y-70487252D02*
X141816000Y-69964748D01*
%TO.C,R1*%
X131090936Y-52605000D02*
X131545064Y-52605000D01*
X131090936Y-54075000D02*
X131545064Y-54075000D01*
%TO.C,R3*%
X140689064Y-50319000D02*
X140234936Y-50319000D01*
X140689064Y-51789000D02*
X140234936Y-51789000D01*
%TO.C,R6*%
X139473000Y-64034936D02*
X139473000Y-64489064D01*
X140943000Y-64034936D02*
X140943000Y-64489064D01*
%TO.C,R4*%
X140689064Y-52605000D02*
X140234936Y-52605000D01*
X140689064Y-54075000D02*
X140234936Y-54075000D01*
%TO.C,J1*%
X125620000Y-50690000D02*
X127000000Y-50690000D01*
X125620000Y-52070000D02*
X125620000Y-50690000D01*
X125620000Y-53340000D02*
X125620000Y-66150000D01*
X125620000Y-53340000D02*
X128380000Y-53340000D01*
X125620000Y-66150000D02*
X128380000Y-66150000D01*
X128380000Y-53340000D02*
X128380000Y-66150000D01*
%TO.C,R5*%
X136679000Y-64034936D02*
X136679000Y-64489064D01*
X138149000Y-64034936D02*
X138149000Y-64489064D01*
%TO.C,R2*%
X131090936Y-50301000D02*
X131545064Y-50301000D01*
X131090936Y-51771000D02*
X131545064Y-51771000D01*
%TO.C,U1*%
X129647000Y-64705000D02*
X129647000Y-62755000D01*
X129647000Y-64705000D02*
X129647000Y-66655000D01*
X134767000Y-64705000D02*
X134767000Y-62755000D01*
X134767000Y-64705000D02*
X134767000Y-66655000D01*
X135002000Y-62245000D02*
X134672000Y-62005000D01*
X135002000Y-61765000D01*
X135002000Y-62245000D01*
G36*
X135002000Y-62245000D02*
G01*
X134672000Y-62005000D01*
X135002000Y-61765000D01*
X135002000Y-62245000D01*
G37*
%TD*%
M02*
