%TF.GenerationSoftware,KiCad,Pcbnew,9.0.3*%
%TF.CreationDate,2025-10-25T21:32:03-05:00*%
%TF.ProjectId,AmmeterRelays,416d6d65-7465-4725-9265-6c6179732e6b,rev?*%
%TF.SameCoordinates,Original*%
%TF.FileFunction,Copper,L1,Top*%
%TF.FilePolarity,Positive*%
%FSLAX46Y46*%
G04 Gerber Fmt 4.6, Leading zero omitted, Abs format (unit mm)*
G04 Created by KiCad (PCBNEW 9.0.3) date 2025-10-25 21:32:03*
%MOMM*%
%LPD*%
G01*
G04 APERTURE LIST*
G04 Aperture macros list*
%AMRoundRect*
0 Rectangle with rounded corners*
0 $1 Rounding radius*
0 $2 $3 $4 $5 $6 $7 $8 $9 X,Y pos of 4 corners*
0 Add a 4 corners polygon primitive as box body*
4,1,4,$2,$3,$4,$5,$6,$7,$8,$9,$2,$3,0*
0 Add four circle primitives for the rounded corners*
1,1,$1+$1,$2,$3*
1,1,$1+$1,$4,$5*
1,1,$1+$1,$6,$7*
1,1,$1+$1,$8,$9*
0 Add four rect primitives between the rounded corners*
20,1,$1+$1,$2,$3,$4,$5,0*
20,1,$1+$1,$4,$5,$6,$7,0*
20,1,$1+$1,$6,$7,$8,$9,0*
20,1,$1+$1,$8,$9,$2,$3,0*%
G04 Aperture macros list end*
%TA.AperFunction,SMDPad,CuDef*%
%ADD10RoundRect,0.250000X-0.475000X0.337500X-0.475000X-0.337500X0.475000X-0.337500X0.475000X0.337500X0*%
%TD*%
%TA.AperFunction,ComponentPad*%
%ADD11C,3.600000*%
%TD*%
%TA.AperFunction,ConnectorPad*%
%ADD12C,5.600000*%
%TD*%
%TA.AperFunction,ComponentPad*%
%ADD13C,1.700000*%
%TD*%
%TA.AperFunction,ComponentPad*%
%ADD14R,1.700000X1.700000*%
%TD*%
%TA.AperFunction,ComponentPad*%
%ADD15R,2.500000X2.500000*%
%TD*%
%TA.AperFunction,ComponentPad*%
%ADD16O,2.500000X2.500000*%
%TD*%
%TA.AperFunction,ComponentPad*%
%ADD17RoundRect,0.250001X-0.949999X-0.949999X0.949999X-0.949999X0.949999X0.949999X-0.949999X0.949999X0*%
%TD*%
%TA.AperFunction,ComponentPad*%
%ADD18C,2.400000*%
%TD*%
%TA.AperFunction,SMDPad,CuDef*%
%ADD19RoundRect,0.150000X-0.150000X0.825000X-0.150000X-0.825000X0.150000X-0.825000X0.150000X0.825000X0*%
%TD*%
%TA.AperFunction,SMDPad,CuDef*%
%ADD20RoundRect,0.150000X0.150000X-0.512500X0.150000X0.512500X-0.150000X0.512500X-0.150000X-0.512500X0*%
%TD*%
%TA.AperFunction,SMDPad,CuDef*%
%ADD21RoundRect,0.250000X0.475000X-0.337500X0.475000X0.337500X-0.475000X0.337500X-0.475000X-0.337500X0*%
%TD*%
%TA.AperFunction,ViaPad*%
%ADD22C,0.600000*%
%TD*%
%TA.AperFunction,Conductor*%
%ADD23C,2.000000*%
%TD*%
%TA.AperFunction,Conductor*%
%ADD24C,0.200000*%
%TD*%
%TA.AperFunction,Conductor*%
%ADD25C,1.000000*%
%TD*%
G04 APERTURE END LIST*
D10*
%TO.P,C2,2*%
%TO.N,GND*%
X49022000Y-55139500D03*
%TO.P,C2,1*%
%TO.N,Net-(J3-Pin_2)*%
X49022000Y-53064500D03*
%TD*%
D11*
%TO.P,H2,1*%
%TO.N,N/C*%
X57658000Y-45212000D03*
D12*
X57658000Y-45212000D03*
%TD*%
D11*
%TO.P,H1,1*%
%TO.N,N/C*%
X19558000Y-45212000D03*
D12*
X19558000Y-45212000D03*
%TD*%
D13*
%TO.P,J3,3,Pin_3*%
%TO.N,Net-(J3-Pin_3)*%
X59436000Y-51562000D03*
%TO.P,J3,2,Pin_2*%
%TO.N,Net-(J3-Pin_2)*%
X56896000Y-51562000D03*
D14*
%TO.P,J3,1,Pin_1*%
%TO.N,GND*%
X54356000Y-51562000D03*
%TD*%
D13*
%TO.P,J2,3,Pin_3*%
%TO.N,Net-(J2-Pin_3)*%
X23114000Y-52070000D03*
%TO.P,J2,2,Pin_2*%
%TO.N,GNDPWR*%
X20574000Y-52070000D03*
D14*
%TO.P,J2,1,Pin_1*%
%TO.N,Net-(J2-Pin_1)*%
X18034000Y-52070000D03*
%TD*%
D15*
%TO.P,K1,1*%
%TO.N,Net-(K1-Pad1)*%
X34154000Y-33597000D03*
D16*
%TO.P,K1,2*%
%TO.N,Net-(J2-Pin_1)*%
X28154000Y-35597000D03*
%TO.P,K1,3*%
%TO.N,Net-(J1-Pin_1)*%
X28154000Y-47797000D03*
%TO.P,K1,4*%
%TO.N,Net-(J1-Pin_3)*%
X40154000Y-47797000D03*
%TO.P,K1,5*%
%TO.N,Net-(Q1-D)*%
X40154000Y-35597000D03*
%TD*%
D17*
%TO.P,J1,1,Pin_1*%
%TO.N,Net-(J1-Pin_1)*%
X47498000Y-35814000D03*
D18*
%TO.P,J1,2,Pin_2*%
%TO.N,Net-(J1-Pin_2)*%
X52578000Y-35814000D03*
%TO.P,J1,3,Pin_3*%
%TO.N,Net-(J1-Pin_3)*%
X57658000Y-35814000D03*
%TD*%
D19*
%TO.P,U1,1,IP+*%
%TO.N,Net-(J1-Pin_2)*%
X48895000Y-44515000D03*
%TO.P,U1,2,IP+*%
X47625000Y-44515000D03*
%TO.P,U1,3,IP-*%
%TO.N,Net-(K1-Pad1)*%
X46355000Y-44515000D03*
%TO.P,U1,4,IP-*%
X45085000Y-44515000D03*
%TO.P,U1,5,GND*%
%TO.N,GND*%
X45085000Y-49465000D03*
%TO.P,U1,6,FILTER*%
%TO.N,Net-(U1-FILTER)*%
X46355000Y-49465000D03*
%TO.P,U1,7,VIOUT*%
%TO.N,Net-(J3-Pin_3)*%
X47625000Y-49465000D03*
%TO.P,U1,8,VCC*%
%TO.N,Net-(J3-Pin_2)*%
X48895000Y-49465000D03*
%TD*%
D20*
%TO.P,Q1,1,G*%
%TO.N,Net-(J2-Pin_3)*%
X21910000Y-38983500D03*
%TO.P,Q1,2,S*%
%TO.N,GNDPWR*%
X23810000Y-38983500D03*
%TO.P,Q1,3,D*%
%TO.N,Net-(Q1-D)*%
X22860000Y-36708500D03*
%TD*%
D21*
%TO.P,C1,1*%
%TO.N,Net-(U1-FILTER)*%
X44958000Y-55139500D03*
%TO.P,C1,2*%
%TO.N,GND*%
X44958000Y-53064500D03*
%TD*%
D22*
%TO.N,Net-(J2-Pin_3)*%
X22860000Y-42164000D03*
%TO.N,GNDPWR*%
X23876000Y-44704000D03*
%TO.N,GND*%
X50800000Y-54102000D03*
X45085000Y-51562000D03*
%TD*%
D23*
%TO.N,Net-(K1-Pad1)*%
X43180000Y-42610000D02*
X43180000Y-43434000D01*
X34167000Y-33597000D02*
X43180000Y-42610000D01*
D24*
%TO.N,Net-(J2-Pin_3)*%
X21910000Y-41214000D02*
X22860000Y-42164000D01*
X21910000Y-38983500D02*
X21910000Y-41214000D01*
%TO.N,GNDPWR*%
X23810000Y-44638000D02*
X23876000Y-44704000D01*
X23810000Y-38983500D02*
X23810000Y-44638000D01*
%TO.N,Net-(Q1-D)*%
X36053000Y-31496000D02*
X40154000Y-35597000D01*
X28072500Y-31496000D02*
X36053000Y-31496000D01*
X22860000Y-36708500D02*
X28072500Y-31496000D01*
%TO.N,Net-(J2-Pin_1)*%
X26162000Y-37589000D02*
X28154000Y-35597000D01*
X18034000Y-52070000D02*
X26162000Y-43942000D01*
X26162000Y-43942000D02*
X26162000Y-37589000D01*
%TO.N,GND*%
X49762500Y-55139500D02*
X49022000Y-55139500D01*
X50800000Y-54102000D02*
X49762500Y-55139500D01*
%TO.N,Net-(J3-Pin_2)*%
X56896000Y-51562000D02*
X55393500Y-53064500D01*
X55393500Y-53064500D02*
X49022000Y-53064500D01*
X48895000Y-52937500D02*
X49022000Y-53064500D01*
X48895000Y-49465000D02*
X48895000Y-52937500D01*
%TO.N,Net-(J3-Pin_3)*%
X47926001Y-48189000D02*
X47625000Y-48490001D01*
X47625000Y-48490001D02*
X47625000Y-49465000D01*
X55372000Y-49530000D02*
X54031000Y-48189000D01*
X57404000Y-49530000D02*
X55372000Y-49530000D01*
X59436000Y-51562000D02*
X57404000Y-49530000D01*
X54031000Y-48189000D02*
X47926001Y-48189000D01*
D25*
%TO.N,Net-(J1-Pin_2)*%
X52578000Y-40832000D02*
X52578000Y-35814000D01*
X48895000Y-44515000D02*
X52578000Y-40832000D01*
%TO.N,Net-(K1-Pad1)*%
X34154000Y-33597000D02*
X34167000Y-33597000D01*
X45085000Y-44515000D02*
X46355000Y-44515000D01*
D24*
%TO.N,GND*%
X45085000Y-51562000D02*
X45085000Y-52937500D01*
%TO.N,Net-(U1-FILTER)*%
X46355000Y-53742500D02*
X46355000Y-49465000D01*
X44958000Y-55139500D02*
X46355000Y-53742500D01*
%TO.N,GND*%
X45085000Y-52937500D02*
X44958000Y-53064500D01*
X45085000Y-49465000D02*
X45085000Y-51562000D01*
D25*
%TO.N,Net-(J1-Pin_2)*%
X47625000Y-44515000D02*
X48895000Y-44515000D01*
%TD*%
%TA.AperFunction,Conductor*%
%TO.N,Net-(J1-Pin_2)*%
G36*
X51869049Y-36192942D02*
G01*
X51956599Y-36323970D01*
X52068030Y-36435401D01*
X52199058Y-36522951D01*
X52215705Y-36529846D01*
X51565595Y-37179955D01*
X51565595Y-37179956D01*
X51631507Y-37230533D01*
X51824485Y-37341949D01*
X51824497Y-37341954D01*
X52030381Y-37427236D01*
X52245632Y-37484911D01*
X52245645Y-37484914D01*
X52466575Y-37514000D01*
X52689425Y-37514000D01*
X52910354Y-37484914D01*
X52910367Y-37484911D01*
X53125618Y-37427236D01*
X53331502Y-37341954D01*
X53331514Y-37341949D01*
X53524498Y-37230530D01*
X53590403Y-37179957D01*
X53590404Y-37179956D01*
X52940294Y-36529846D01*
X52956942Y-36522951D01*
X53087970Y-36435401D01*
X53199401Y-36323970D01*
X53286951Y-36192942D01*
X53293846Y-36176294D01*
X53943955Y-36826403D01*
X53969891Y-36824704D01*
X54038074Y-36839963D01*
X54087184Y-36889661D01*
X54102000Y-36948439D01*
X54102000Y-41857005D01*
X54082315Y-41924044D01*
X54063699Y-41946625D01*
X52347741Y-43587510D01*
X49396630Y-46409511D01*
X49356777Y-46447620D01*
X49294720Y-46479725D01*
X49271078Y-46482000D01*
X47365500Y-46482000D01*
X47356814Y-46479449D01*
X47347853Y-46480738D01*
X47323812Y-46469759D01*
X47298461Y-46462315D01*
X47292533Y-46455474D01*
X47284297Y-46451713D01*
X47270007Y-46429478D01*
X47252706Y-46409511D01*
X47250418Y-46398996D01*
X47246523Y-46392935D01*
X47241500Y-46358000D01*
X47241500Y-46110931D01*
X47261185Y-46043892D01*
X47313989Y-45998137D01*
X47374922Y-45987367D01*
X47375000Y-45987295D01*
X47875000Y-45987295D01*
X47875001Y-45987295D01*
X47877486Y-45987100D01*
X48035198Y-45941281D01*
X48176552Y-45857685D01*
X48182722Y-45852900D01*
X48184546Y-45855252D01*
X48233595Y-45828445D01*
X48303288Y-45833402D01*
X48336063Y-45854465D01*
X48337278Y-45852900D01*
X48343447Y-45857685D01*
X48484801Y-45941281D01*
X48642514Y-45987100D01*
X48642511Y-45987100D01*
X48644998Y-45987295D01*
X48645000Y-45987295D01*
X49145000Y-45987295D01*
X49145001Y-45987295D01*
X49147486Y-45987100D01*
X49305198Y-45941281D01*
X49446552Y-45857685D01*
X49446561Y-45857678D01*
X49562678Y-45741561D01*
X49562685Y-45741552D01*
X49646282Y-45600196D01*
X49646283Y-45600193D01*
X49692099Y-45442495D01*
X49692100Y-45442489D01*
X49694999Y-45405649D01*
X49695000Y-45405634D01*
X49695000Y-44765000D01*
X49145000Y-44765000D01*
X49145000Y-45987295D01*
X48645000Y-45987295D01*
X48645000Y-44765000D01*
X47875000Y-44765000D01*
X47875000Y-45987295D01*
X47375000Y-45987295D01*
X47375000Y-43063751D01*
X47334501Y-43042703D01*
X47875000Y-43042703D01*
X47875000Y-44265000D01*
X48645000Y-44265000D01*
X49145000Y-44265000D01*
X49695000Y-44265000D01*
X49695000Y-43624365D01*
X49694999Y-43624350D01*
X49692100Y-43587510D01*
X49692099Y-43587504D01*
X49646283Y-43429806D01*
X49646282Y-43429803D01*
X49562685Y-43288447D01*
X49562678Y-43288438D01*
X49446561Y-43172321D01*
X49446552Y-43172314D01*
X49305196Y-43088717D01*
X49305193Y-43088716D01*
X49147494Y-43042900D01*
X49147497Y-43042900D01*
X49145000Y-43042703D01*
X49145000Y-44265000D01*
X48645000Y-44265000D01*
X48645000Y-43042703D01*
X48642503Y-43042900D01*
X48484806Y-43088716D01*
X48484803Y-43088717D01*
X48343447Y-43172314D01*
X48337278Y-43177100D01*
X48335457Y-43174753D01*
X48286358Y-43201564D01*
X48216666Y-43196580D01*
X48183930Y-43175541D01*
X48182722Y-43177100D01*
X48176552Y-43172314D01*
X48035196Y-43088717D01*
X48035193Y-43088716D01*
X47877494Y-43042900D01*
X47877497Y-43042900D01*
X47875000Y-43042703D01*
X47334501Y-43042703D01*
X47308316Y-43029094D01*
X47307712Y-43028515D01*
X47306892Y-43028343D01*
X47282519Y-43004333D01*
X47257909Y-42980712D01*
X47257714Y-42979898D01*
X47257117Y-42979310D01*
X47241500Y-42919067D01*
X47241500Y-42796010D01*
X47241500Y-42796000D01*
X47229947Y-42688544D01*
X47218741Y-42637033D01*
X47218637Y-42636722D01*
X47184616Y-42534502D01*
X47184613Y-42534497D01*
X47184613Y-42534496D01*
X47168342Y-42509179D01*
X47148658Y-42442141D01*
X47168342Y-42375101D01*
X47221146Y-42329346D01*
X47228123Y-42326414D01*
X50292000Y-41148000D01*
X51054000Y-38100000D01*
X51054000Y-36948438D01*
X51073685Y-36881399D01*
X51126489Y-36835644D01*
X51186111Y-36824704D01*
X51212043Y-36826403D01*
X51862152Y-36176293D01*
X51869049Y-36192942D01*
G37*
%TD.AperFunction*%
%TA.AperFunction,Conductor*%
G36*
X51510599Y-34309685D02*
G01*
X51556354Y-34362489D01*
X51567295Y-34422110D01*
X51565595Y-34448042D01*
X52215706Y-35098152D01*
X52199058Y-35105049D01*
X52068030Y-35192599D01*
X51956599Y-35304030D01*
X51869049Y-35435058D01*
X51862153Y-35451706D01*
X51212042Y-34801595D01*
X51186110Y-34803295D01*
X51117926Y-34788037D01*
X51068816Y-34738338D01*
X51054000Y-34679560D01*
X51054000Y-34414000D01*
X51073685Y-34346961D01*
X51126489Y-34301206D01*
X51178000Y-34290000D01*
X51443560Y-34290000D01*
X51510599Y-34309685D01*
G37*
%TD.AperFunction*%
%TA.AperFunction,Conductor*%
G36*
X54045039Y-34309685D02*
G01*
X54090794Y-34362489D01*
X54102000Y-34414000D01*
X54102000Y-34679560D01*
X54082315Y-34746599D01*
X54029511Y-34792354D01*
X53969891Y-34803295D01*
X53943955Y-34801595D01*
X53293846Y-35451704D01*
X53286951Y-35435058D01*
X53199401Y-35304030D01*
X53087970Y-35192599D01*
X52956942Y-35105049D01*
X52940293Y-35098152D01*
X53590403Y-34448043D01*
X53588704Y-34422110D01*
X53603963Y-34353926D01*
X53653661Y-34304816D01*
X53712439Y-34290000D01*
X53978000Y-34290000D01*
X54045039Y-34309685D01*
G37*
%TD.AperFunction*%
%TD*%
%TA.AperFunction,Conductor*%
%TO.N,Net-(K1-Pad1)*%
G36*
X46679039Y-42691685D02*
G01*
X46724794Y-42744489D01*
X46736000Y-42796000D01*
X46736000Y-42918869D01*
X46716315Y-42985908D01*
X46663511Y-43031663D01*
X46605949Y-43041825D01*
X46605000Y-43042703D01*
X46605000Y-45987295D01*
X46606103Y-45988314D01*
X46670650Y-46001875D01*
X46720406Y-46050927D01*
X46736000Y-46111128D01*
X46736000Y-46358000D01*
X46716315Y-46425039D01*
X46663511Y-46470794D01*
X46612000Y-46482000D01*
X42288000Y-46482000D01*
X42220961Y-46462315D01*
X42175206Y-46409511D01*
X42164000Y-46358000D01*
X42164000Y-45405649D01*
X44285000Y-45405649D01*
X44287899Y-45442489D01*
X44287900Y-45442495D01*
X44333716Y-45600193D01*
X44333717Y-45600196D01*
X44417314Y-45741552D01*
X44417321Y-45741561D01*
X44533438Y-45857678D01*
X44533447Y-45857685D01*
X44674801Y-45941281D01*
X44832514Y-45987100D01*
X44832511Y-45987100D01*
X44834998Y-45987295D01*
X44835000Y-45987295D01*
X45335000Y-45987295D01*
X45335001Y-45987295D01*
X45337486Y-45987100D01*
X45495198Y-45941281D01*
X45636552Y-45857685D01*
X45642722Y-45852900D01*
X45644546Y-45855252D01*
X45693595Y-45828445D01*
X45763288Y-45833402D01*
X45796063Y-45854465D01*
X45797278Y-45852900D01*
X45803447Y-45857685D01*
X45944801Y-45941281D01*
X46102514Y-45987100D01*
X46102511Y-45987100D01*
X46104998Y-45987295D01*
X46105000Y-45987295D01*
X46105000Y-44765000D01*
X45335000Y-44765000D01*
X45335000Y-45987295D01*
X44835000Y-45987295D01*
X44835000Y-44765000D01*
X44285000Y-44765000D01*
X44285000Y-45405649D01*
X42164000Y-45405649D01*
X42164000Y-43624350D01*
X44285000Y-43624350D01*
X44285000Y-44265000D01*
X44835000Y-44265000D01*
X44835000Y-43042703D01*
X45335000Y-43042703D01*
X45335000Y-44265000D01*
X46105000Y-44265000D01*
X46105000Y-43042703D01*
X46102503Y-43042900D01*
X45944806Y-43088716D01*
X45944803Y-43088717D01*
X45803447Y-43172314D01*
X45797278Y-43177100D01*
X45795457Y-43174753D01*
X45746358Y-43201564D01*
X45676666Y-43196580D01*
X45643930Y-43175541D01*
X45642722Y-43177100D01*
X45636552Y-43172314D01*
X45495196Y-43088717D01*
X45495193Y-43088716D01*
X45337494Y-43042900D01*
X45337497Y-43042900D01*
X45335000Y-43042703D01*
X44835000Y-43042703D01*
X44832503Y-43042900D01*
X44674806Y-43088716D01*
X44674803Y-43088717D01*
X44533447Y-43172314D01*
X44533438Y-43172321D01*
X44417321Y-43288438D01*
X44417314Y-43288447D01*
X44333717Y-43429803D01*
X44333716Y-43429806D01*
X44287900Y-43587504D01*
X44287899Y-43587510D01*
X44285000Y-43624350D01*
X42164000Y-43624350D01*
X42164000Y-42796000D01*
X42183685Y-42728961D01*
X42236489Y-42683206D01*
X42288000Y-42672000D01*
X46612000Y-42672000D01*
X46679039Y-42691685D01*
G37*
%TD.AperFunction*%
%TD*%
M02*
