M48
; DRILL file {KiCad 9.0.3} date 2025-10-25T21:32:06-0500
; FORMAT={-:-/ absolute / inch / decimal}
; #@! TF.CreationDate,2025-10-25T21:32:06-05:00
; #@! TF.GenerationSoftware,Kicad,Pcbnew,9.0.3
; #@! TF.FileFunction,Plated,1,2,PTH
FMAT,2
INCH
; #@! TA.AperFunction,Plated,PTH,ViaDrill
T1C0.0118
; #@! TA.AperFunction,Plated,PTH,ComponentDrill
T2C0.0394
; #@! TA.AperFunction,Plated,PTH,ComponentDrill
T3C0.0512
; #@! TA.AperFunction,Plated,PTH,ComponentDrill
T4C0.0630
; #@! TA.AperFunction,Plated,PTH,ComponentDrill
T5C0.1260
%
G90
G05
T1
X0.9Y-1.66
X0.94Y-1.76
X1.775Y-2.03
X2.0Y-2.13
T2
X0.71Y-2.05
X0.81Y-2.05
X0.91Y-2.05
X2.14Y-2.03
X2.24Y-2.03
X2.34Y-2.03
T3
X1.1084Y-1.4015
X1.1084Y-1.8818
X1.3446Y-1.3227
X1.5809Y-1.4015
X1.5809Y-1.8818
T4
X1.87Y-1.41
X2.07Y-1.41
X2.27Y-1.41
T5
X0.77Y-1.78
X2.27Y-1.78
M30
