%TF.GenerationSoftware,KiCad,Pcbnew,9.0.3*%
%TF.CreationDate,2025-10-25T21:32:03-05:00*%
%TF.ProjectId,AmmeterRelays,416d6d65-7465-4725-9265-6c6179732e6b,rev?*%
%TF.SameCoordinates,Original*%
%TF.FileFunction,Copper,L2,Bot*%
%TF.FilePolarity,Positive*%
%FSLAX46Y46*%
G04 Gerber Fmt 4.6, Leading zero omitted, Abs format (unit mm)*
G04 Created by KiCad (PCBNEW 9.0.3) date 2025-10-25 21:32:03*
%MOMM*%
%LPD*%
G01*
G04 APERTURE LIST*
G04 Aperture macros list*
%AMRoundRect*
0 Rectangle with rounded corners*
0 $1 Rounding radius*
0 $2 $3 $4 $5 $6 $7 $8 $9 X,Y pos of 4 corners*
0 Add a 4 corners polygon primitive as box body*
4,1,4,$2,$3,$4,$5,$6,$7,$8,$9,$2,$3,0*
0 Add four circle primitives for the rounded corners*
1,1,$1+$1,$2,$3*
1,1,$1+$1,$4,$5*
1,1,$1+$1,$6,$7*
1,1,$1+$1,$8,$9*
0 Add four rect primitives between the rounded corners*
20,1,$1+$1,$2,$3,$4,$5,0*
20,1,$1+$1,$4,$5,$6,$7,0*
20,1,$1+$1,$6,$7,$8,$9,0*
20,1,$1+$1,$8,$9,$2,$3,0*%
G04 Aperture macros list end*
%TA.AperFunction,ComponentPad*%
%ADD10C,3.600000*%
%TD*%
%TA.AperFunction,ConnectorPad*%
%ADD11C,5.600000*%
%TD*%
%TA.AperFunction,ComponentPad*%
%ADD12C,1.700000*%
%TD*%
%TA.AperFunction,ComponentPad*%
%ADD13R,1.700000X1.700000*%
%TD*%
%TA.AperFunction,ComponentPad*%
%ADD14R,2.500000X2.500000*%
%TD*%
%TA.AperFunction,ComponentPad*%
%ADD15O,2.500000X2.500000*%
%TD*%
%TA.AperFunction,ComponentPad*%
%ADD16RoundRect,0.250001X-0.949999X-0.949999X0.949999X-0.949999X0.949999X0.949999X-0.949999X0.949999X0*%
%TD*%
%TA.AperFunction,ComponentPad*%
%ADD17C,2.400000*%
%TD*%
%TA.AperFunction,ViaPad*%
%ADD18C,0.600000*%
%TD*%
%TA.AperFunction,Conductor*%
%ADD19C,2.000000*%
%TD*%
%TA.AperFunction,Conductor*%
%ADD20C,0.200000*%
%TD*%
G04 APERTURE END LIST*
D10*
%TO.P,H2,1*%
%TO.N,N/C*%
X57658000Y-45212000D03*
D11*
X57658000Y-45212000D03*
%TD*%
D10*
%TO.P,H1,1*%
%TO.N,N/C*%
X19558000Y-45212000D03*
D11*
X19558000Y-45212000D03*
%TD*%
D12*
%TO.P,J3,3,Pin_3*%
%TO.N,Net-(J3-Pin_3)*%
X59436000Y-51562000D03*
%TO.P,J3,2,Pin_2*%
%TO.N,Net-(J3-Pin_2)*%
X56896000Y-51562000D03*
D13*
%TO.P,J3,1,Pin_1*%
%TO.N,GND*%
X54356000Y-51562000D03*
%TD*%
D12*
%TO.P,J2,3,Pin_3*%
%TO.N,Net-(J2-Pin_3)*%
X23114000Y-52070000D03*
%TO.P,J2,2,Pin_2*%
%TO.N,GNDPWR*%
X20574000Y-52070000D03*
D13*
%TO.P,J2,1,Pin_1*%
%TO.N,Net-(J2-Pin_1)*%
X18034000Y-52070000D03*
%TD*%
D14*
%TO.P,K1,1*%
%TO.N,Net-(K1-Pad1)*%
X34154000Y-33597000D03*
D15*
%TO.P,K1,2*%
%TO.N,Net-(J2-Pin_1)*%
X28154000Y-35597000D03*
%TO.P,K1,3*%
%TO.N,Net-(J1-Pin_1)*%
X28154000Y-47797000D03*
%TO.P,K1,4*%
%TO.N,Net-(J1-Pin_3)*%
X40154000Y-47797000D03*
%TO.P,K1,5*%
%TO.N,Net-(Q1-D)*%
X40154000Y-35597000D03*
%TD*%
D16*
%TO.P,J1,1,Pin_1*%
%TO.N,Net-(J1-Pin_1)*%
X47498000Y-35814000D03*
D17*
%TO.P,J1,2,Pin_2*%
%TO.N,Net-(J1-Pin_2)*%
X52578000Y-35814000D03*
%TO.P,J1,3,Pin_3*%
%TO.N,Net-(J1-Pin_3)*%
X57658000Y-35814000D03*
%TD*%
D18*
%TO.N,Net-(J2-Pin_3)*%
X22860000Y-42164000D03*
%TO.N,GNDPWR*%
X23876000Y-44704000D03*
%TO.N,GND*%
X50800000Y-54102000D03*
X45085000Y-51562000D03*
%TD*%
D19*
%TO.N,Net-(J1-Pin_1)*%
X38862000Y-44196000D02*
X47244000Y-35814000D01*
X31755000Y-44196000D02*
X38862000Y-44196000D01*
X47244000Y-35814000D02*
X47498000Y-35814000D01*
X28154000Y-47797000D02*
X31755000Y-44196000D01*
D20*
%TO.N,Net-(J2-Pin_3)*%
X24638000Y-43434000D02*
X24638000Y-50546000D01*
X23368000Y-42164000D02*
X24638000Y-43434000D01*
X22860000Y-42164000D02*
X23368000Y-42164000D01*
X24638000Y-50546000D02*
X23114000Y-52070000D01*
%TO.N,GNDPWR*%
X23876000Y-48768000D02*
X23876000Y-44704000D01*
X20574000Y-52070000D02*
X23876000Y-48768000D01*
%TO.N,GND*%
X50800000Y-52578000D02*
X51816000Y-51562000D01*
X50800000Y-54102000D02*
X50800000Y-52578000D01*
X45085000Y-51562000D02*
X51816000Y-51562000D01*
X51816000Y-51562000D02*
X54356000Y-51562000D01*
D19*
%TO.N,Net-(J1-Pin_3)*%
X45675000Y-47797000D02*
X57658000Y-35814000D01*
X45675000Y-47797000D02*
X40154000Y-47797000D01*
%TD*%
M02*
