%TF.GenerationSoftware,KiCad,Pcbnew,9.0.3*%
%TF.CreationDate,2025-10-25T21:32:03-05:00*%
%TF.ProjectId,AmmeterRelays,416d6d65-7465-4725-9265-6c6179732e6b,rev?*%
%TF.SameCoordinates,Original*%
%TF.FileFunction,Legend,Top*%
%TF.FilePolarity,Positive*%
%FSLAX46Y46*%
G04 Gerber Fmt 4.6, Leading zero omitted, Abs format (unit mm)*
G04 Created by KiCad (PCBNEW 9.0.3) date 2025-10-25 21:32:03*
%MOMM*%
%LPD*%
G01*
G04 APERTURE LIST*
%ADD10C,0.150000*%
%ADD11C,0.120000*%
G04 APERTURE END LIST*
D10*
X51708207Y-43208580D02*
X51660588Y-43256200D01*
X51660588Y-43256200D02*
X51517731Y-43303819D01*
X51517731Y-43303819D02*
X51422493Y-43303819D01*
X51422493Y-43303819D02*
X51279636Y-43256200D01*
X51279636Y-43256200D02*
X51184398Y-43160961D01*
X51184398Y-43160961D02*
X51136779Y-43065723D01*
X51136779Y-43065723D02*
X51089160Y-42875247D01*
X51089160Y-42875247D02*
X51089160Y-42732390D01*
X51089160Y-42732390D02*
X51136779Y-42541914D01*
X51136779Y-42541914D02*
X51184398Y-42446676D01*
X51184398Y-42446676D02*
X51279636Y-42351438D01*
X51279636Y-42351438D02*
X51422493Y-42303819D01*
X51422493Y-42303819D02*
X51517731Y-42303819D01*
X51517731Y-42303819D02*
X51660588Y-42351438D01*
X51660588Y-42351438D02*
X51708207Y-42399057D01*
X52279636Y-43303819D02*
X52184398Y-43256200D01*
X52184398Y-43256200D02*
X52136779Y-43208580D01*
X52136779Y-43208580D02*
X52089160Y-43113342D01*
X52089160Y-43113342D02*
X52089160Y-42827628D01*
X52089160Y-42827628D02*
X52136779Y-42732390D01*
X52136779Y-42732390D02*
X52184398Y-42684771D01*
X52184398Y-42684771D02*
X52279636Y-42637152D01*
X52279636Y-42637152D02*
X52422493Y-42637152D01*
X52422493Y-42637152D02*
X52517731Y-42684771D01*
X52517731Y-42684771D02*
X52565350Y-42732390D01*
X52565350Y-42732390D02*
X52612969Y-42827628D01*
X52612969Y-42827628D02*
X52612969Y-43113342D01*
X52612969Y-43113342D02*
X52565350Y-43208580D01*
X52565350Y-43208580D02*
X52517731Y-43256200D01*
X52517731Y-43256200D02*
X52422493Y-43303819D01*
X52422493Y-43303819D02*
X52279636Y-43303819D01*
X53041541Y-43303819D02*
X53041541Y-42637152D01*
X53041541Y-42732390D02*
X53089160Y-42684771D01*
X53089160Y-42684771D02*
X53184398Y-42637152D01*
X53184398Y-42637152D02*
X53327255Y-42637152D01*
X53327255Y-42637152D02*
X53422493Y-42684771D01*
X53422493Y-42684771D02*
X53470112Y-42780009D01*
X53470112Y-42780009D02*
X53470112Y-43303819D01*
X53470112Y-42780009D02*
X53517731Y-42684771D01*
X53517731Y-42684771D02*
X53612969Y-42637152D01*
X53612969Y-42637152D02*
X53755826Y-42637152D01*
X53755826Y-42637152D02*
X53851065Y-42684771D01*
X53851065Y-42684771D02*
X53898684Y-42780009D01*
X53898684Y-42780009D02*
X53898684Y-43303819D01*
X60280779Y-43049819D02*
X60280779Y-42049819D01*
X60280779Y-42049819D02*
X60852207Y-43049819D01*
X60852207Y-43049819D02*
X60852207Y-42049819D01*
X61899826Y-42954580D02*
X61852207Y-43002200D01*
X61852207Y-43002200D02*
X61709350Y-43049819D01*
X61709350Y-43049819D02*
X61614112Y-43049819D01*
X61614112Y-43049819D02*
X61471255Y-43002200D01*
X61471255Y-43002200D02*
X61376017Y-42906961D01*
X61376017Y-42906961D02*
X61328398Y-42811723D01*
X61328398Y-42811723D02*
X61280779Y-42621247D01*
X61280779Y-42621247D02*
X61280779Y-42478390D01*
X61280779Y-42478390D02*
X61328398Y-42287914D01*
X61328398Y-42287914D02*
X61376017Y-42192676D01*
X61376017Y-42192676D02*
X61471255Y-42097438D01*
X61471255Y-42097438D02*
X61614112Y-42049819D01*
X61614112Y-42049819D02*
X61709350Y-42049819D01*
X61709350Y-42049819D02*
X61852207Y-42097438D01*
X61852207Y-42097438D02*
X61899826Y-42145057D01*
X59201255Y-53987819D02*
X59391731Y-53987819D01*
X59391731Y-53987819D02*
X59486969Y-54035438D01*
X59486969Y-54035438D02*
X59582207Y-54130676D01*
X59582207Y-54130676D02*
X59629826Y-54321152D01*
X59629826Y-54321152D02*
X59629826Y-54654485D01*
X59629826Y-54654485D02*
X59582207Y-54844961D01*
X59582207Y-54844961D02*
X59486969Y-54940200D01*
X59486969Y-54940200D02*
X59391731Y-54987819D01*
X59391731Y-54987819D02*
X59201255Y-54987819D01*
X59201255Y-54987819D02*
X59106017Y-54940200D01*
X59106017Y-54940200D02*
X59010779Y-54844961D01*
X59010779Y-54844961D02*
X58963160Y-54654485D01*
X58963160Y-54654485D02*
X58963160Y-54321152D01*
X58963160Y-54321152D02*
X59010779Y-54130676D01*
X59010779Y-54130676D02*
X59106017Y-54035438D01*
X59106017Y-54035438D02*
X59201255Y-53987819D01*
X60486969Y-54321152D02*
X60486969Y-54987819D01*
X60058398Y-54321152D02*
X60058398Y-54844961D01*
X60058398Y-54844961D02*
X60106017Y-54940200D01*
X60106017Y-54940200D02*
X60201255Y-54987819D01*
X60201255Y-54987819D02*
X60344112Y-54987819D01*
X60344112Y-54987819D02*
X60439350Y-54940200D01*
X60439350Y-54940200D02*
X60486969Y-54892580D01*
X60820303Y-54321152D02*
X61201255Y-54321152D01*
X60963160Y-53987819D02*
X60963160Y-54844961D01*
X60963160Y-54844961D02*
X61010779Y-54940200D01*
X61010779Y-54940200D02*
X61106017Y-54987819D01*
X61106017Y-54987819D02*
X61201255Y-54987819D01*
X56692969Y-53987819D02*
X56216779Y-53987819D01*
X56216779Y-53987819D02*
X56169160Y-54464009D01*
X56169160Y-54464009D02*
X56216779Y-54416390D01*
X56216779Y-54416390D02*
X56312017Y-54368771D01*
X56312017Y-54368771D02*
X56550112Y-54368771D01*
X56550112Y-54368771D02*
X56645350Y-54416390D01*
X56645350Y-54416390D02*
X56692969Y-54464009D01*
X56692969Y-54464009D02*
X56740588Y-54559247D01*
X56740588Y-54559247D02*
X56740588Y-54797342D01*
X56740588Y-54797342D02*
X56692969Y-54892580D01*
X56692969Y-54892580D02*
X56645350Y-54940200D01*
X56645350Y-54940200D02*
X56550112Y-54987819D01*
X56550112Y-54987819D02*
X56312017Y-54987819D01*
X56312017Y-54987819D02*
X56216779Y-54940200D01*
X56216779Y-54940200D02*
X56169160Y-54892580D01*
X57026303Y-53987819D02*
X57359636Y-54987819D01*
X57359636Y-54987819D02*
X57692969Y-53987819D01*
X44065819Y-36493220D02*
X43065819Y-36493220D01*
X43065819Y-36493220D02*
X44065819Y-35921792D01*
X44065819Y-35921792D02*
X43065819Y-35921792D01*
X43065819Y-35255125D02*
X43065819Y-35064649D01*
X43065819Y-35064649D02*
X43113438Y-34969411D01*
X43113438Y-34969411D02*
X43208676Y-34874173D01*
X43208676Y-34874173D02*
X43399152Y-34826554D01*
X43399152Y-34826554D02*
X43732485Y-34826554D01*
X43732485Y-34826554D02*
X43922961Y-34874173D01*
X43922961Y-34874173D02*
X44018200Y-34969411D01*
X44018200Y-34969411D02*
X44065819Y-35064649D01*
X44065819Y-35064649D02*
X44065819Y-35255125D01*
X44065819Y-35255125D02*
X44018200Y-35350363D01*
X44018200Y-35350363D02*
X43922961Y-35445601D01*
X43922961Y-35445601D02*
X43732485Y-35493220D01*
X43732485Y-35493220D02*
X43399152Y-35493220D01*
X43399152Y-35493220D02*
X43208676Y-35445601D01*
X43208676Y-35445601D02*
X43113438Y-35350363D01*
X43113438Y-35350363D02*
X43065819Y-35255125D01*
X22752207Y-55146580D02*
X22704588Y-55194200D01*
X22704588Y-55194200D02*
X22561731Y-55241819D01*
X22561731Y-55241819D02*
X22466493Y-55241819D01*
X22466493Y-55241819D02*
X22323636Y-55194200D01*
X22323636Y-55194200D02*
X22228398Y-55098961D01*
X22228398Y-55098961D02*
X22180779Y-55003723D01*
X22180779Y-55003723D02*
X22133160Y-54813247D01*
X22133160Y-54813247D02*
X22133160Y-54670390D01*
X22133160Y-54670390D02*
X22180779Y-54479914D01*
X22180779Y-54479914D02*
X22228398Y-54384676D01*
X22228398Y-54384676D02*
X22323636Y-54289438D01*
X22323636Y-54289438D02*
X22466493Y-54241819D01*
X22466493Y-54241819D02*
X22561731Y-54241819D01*
X22561731Y-54241819D02*
X22704588Y-54289438D01*
X22704588Y-54289438D02*
X22752207Y-54337057D01*
X23037922Y-54575152D02*
X23418874Y-54575152D01*
X23180779Y-54241819D02*
X23180779Y-55098961D01*
X23180779Y-55098961D02*
X23228398Y-55194200D01*
X23228398Y-55194200D02*
X23323636Y-55241819D01*
X23323636Y-55241819D02*
X23418874Y-55241819D01*
X23752208Y-55241819D02*
X23752208Y-54575152D01*
X23752208Y-54765628D02*
X23799827Y-54670390D01*
X23799827Y-54670390D02*
X23847446Y-54622771D01*
X23847446Y-54622771D02*
X23942684Y-54575152D01*
X23942684Y-54575152D02*
X24037922Y-54575152D01*
X24514113Y-55241819D02*
X24418875Y-55194200D01*
X24418875Y-55194200D02*
X24371256Y-55098961D01*
X24371256Y-55098961D02*
X24371256Y-54241819D01*
X20672588Y-54289438D02*
X20577350Y-54241819D01*
X20577350Y-54241819D02*
X20434493Y-54241819D01*
X20434493Y-54241819D02*
X20291636Y-54289438D01*
X20291636Y-54289438D02*
X20196398Y-54384676D01*
X20196398Y-54384676D02*
X20148779Y-54479914D01*
X20148779Y-54479914D02*
X20101160Y-54670390D01*
X20101160Y-54670390D02*
X20101160Y-54813247D01*
X20101160Y-54813247D02*
X20148779Y-55003723D01*
X20148779Y-55003723D02*
X20196398Y-55098961D01*
X20196398Y-55098961D02*
X20291636Y-55194200D01*
X20291636Y-55194200D02*
X20434493Y-55241819D01*
X20434493Y-55241819D02*
X20529731Y-55241819D01*
X20529731Y-55241819D02*
X20672588Y-55194200D01*
X20672588Y-55194200D02*
X20720207Y-55146580D01*
X20720207Y-55146580D02*
X20720207Y-54813247D01*
X20720207Y-54813247D02*
X20529731Y-54813247D01*
X17100779Y-54860866D02*
X17862684Y-54860866D01*
X17481731Y-55241819D02*
X17481731Y-54479914D01*
X18196017Y-54241819D02*
X18529350Y-55241819D01*
X18529350Y-55241819D02*
X18862683Y-54241819D01*
X47603580Y-54268666D02*
X47651200Y-54316285D01*
X47651200Y-54316285D02*
X47698819Y-54459142D01*
X47698819Y-54459142D02*
X47698819Y-54554380D01*
X47698819Y-54554380D02*
X47651200Y-54697237D01*
X47651200Y-54697237D02*
X47555961Y-54792475D01*
X47555961Y-54792475D02*
X47460723Y-54840094D01*
X47460723Y-54840094D02*
X47270247Y-54887713D01*
X47270247Y-54887713D02*
X47127390Y-54887713D01*
X47127390Y-54887713D02*
X46936914Y-54840094D01*
X46936914Y-54840094D02*
X46841676Y-54792475D01*
X46841676Y-54792475D02*
X46746438Y-54697237D01*
X46746438Y-54697237D02*
X46698819Y-54554380D01*
X46698819Y-54554380D02*
X46698819Y-54459142D01*
X46698819Y-54459142D02*
X46746438Y-54316285D01*
X46746438Y-54316285D02*
X46794057Y-54268666D01*
X46794057Y-53887713D02*
X46746438Y-53840094D01*
X46746438Y-53840094D02*
X46698819Y-53744856D01*
X46698819Y-53744856D02*
X46698819Y-53506761D01*
X46698819Y-53506761D02*
X46746438Y-53411523D01*
X46746438Y-53411523D02*
X46794057Y-53363904D01*
X46794057Y-53363904D02*
X46889295Y-53316285D01*
X46889295Y-53316285D02*
X46984533Y-53316285D01*
X46984533Y-53316285D02*
X47127390Y-53363904D01*
X47127390Y-53363904D02*
X47698819Y-53935332D01*
X47698819Y-53935332D02*
X47698819Y-53316285D01*
X51040819Y-51895333D02*
X51755104Y-51895333D01*
X51755104Y-51895333D02*
X51897961Y-51942952D01*
X51897961Y-51942952D02*
X51993200Y-52038190D01*
X51993200Y-52038190D02*
X52040819Y-52181047D01*
X52040819Y-52181047D02*
X52040819Y-52276285D01*
X51040819Y-51514380D02*
X51040819Y-50895333D01*
X51040819Y-50895333D02*
X51421771Y-51228666D01*
X51421771Y-51228666D02*
X51421771Y-51085809D01*
X51421771Y-51085809D02*
X51469390Y-50990571D01*
X51469390Y-50990571D02*
X51517009Y-50942952D01*
X51517009Y-50942952D02*
X51612247Y-50895333D01*
X51612247Y-50895333D02*
X51850342Y-50895333D01*
X51850342Y-50895333D02*
X51945580Y-50942952D01*
X51945580Y-50942952D02*
X51993200Y-50990571D01*
X51993200Y-50990571D02*
X52040819Y-51085809D01*
X52040819Y-51085809D02*
X52040819Y-51371523D01*
X52040819Y-51371523D02*
X51993200Y-51466761D01*
X51993200Y-51466761D02*
X51945580Y-51514380D01*
X17446666Y-48984819D02*
X17446666Y-49699104D01*
X17446666Y-49699104D02*
X17399047Y-49841961D01*
X17399047Y-49841961D02*
X17303809Y-49937200D01*
X17303809Y-49937200D02*
X17160952Y-49984819D01*
X17160952Y-49984819D02*
X17065714Y-49984819D01*
X17875238Y-49080057D02*
X17922857Y-49032438D01*
X17922857Y-49032438D02*
X18018095Y-48984819D01*
X18018095Y-48984819D02*
X18256190Y-48984819D01*
X18256190Y-48984819D02*
X18351428Y-49032438D01*
X18351428Y-49032438D02*
X18399047Y-49080057D01*
X18399047Y-49080057D02*
X18446666Y-49175295D01*
X18446666Y-49175295D02*
X18446666Y-49270533D01*
X18446666Y-49270533D02*
X18399047Y-49413390D01*
X18399047Y-49413390D02*
X17827619Y-49984819D01*
X17827619Y-49984819D02*
X18446666Y-49984819D01*
X23645905Y-32204819D02*
X23645905Y-31204819D01*
X24217333Y-32204819D02*
X23788762Y-31633390D01*
X24217333Y-31204819D02*
X23645905Y-31776247D01*
X25169714Y-32204819D02*
X24598286Y-32204819D01*
X24884000Y-32204819D02*
X24884000Y-31204819D01*
X24884000Y-31204819D02*
X24788762Y-31347676D01*
X24788762Y-31347676D02*
X24693524Y-31442914D01*
X24693524Y-31442914D02*
X24598286Y-31490533D01*
X43142819Y-31829333D02*
X43857104Y-31829333D01*
X43857104Y-31829333D02*
X43999961Y-31876952D01*
X43999961Y-31876952D02*
X44095200Y-31972190D01*
X44095200Y-31972190D02*
X44142819Y-32115047D01*
X44142819Y-32115047D02*
X44142819Y-32210285D01*
X44142819Y-30829333D02*
X44142819Y-31400761D01*
X44142819Y-31115047D02*
X43142819Y-31115047D01*
X43142819Y-31115047D02*
X43285676Y-31210285D01*
X43285676Y-31210285D02*
X43380914Y-31305523D01*
X43380914Y-31305523D02*
X43428533Y-31400761D01*
X49844819Y-47751904D02*
X50654342Y-47751904D01*
X50654342Y-47751904D02*
X50749580Y-47704285D01*
X50749580Y-47704285D02*
X50797200Y-47656666D01*
X50797200Y-47656666D02*
X50844819Y-47561428D01*
X50844819Y-47561428D02*
X50844819Y-47370952D01*
X50844819Y-47370952D02*
X50797200Y-47275714D01*
X50797200Y-47275714D02*
X50749580Y-47228095D01*
X50749580Y-47228095D02*
X50654342Y-47180476D01*
X50654342Y-47180476D02*
X49844819Y-47180476D01*
X50844819Y-46180476D02*
X50844819Y-46751904D01*
X50844819Y-46466190D02*
X49844819Y-46466190D01*
X49844819Y-46466190D02*
X49987676Y-46561428D01*
X49987676Y-46561428D02*
X50082914Y-46656666D01*
X50082914Y-46656666D02*
X50130533Y-46751904D01*
X22140057Y-35655238D02*
X22092438Y-35750476D01*
X22092438Y-35750476D02*
X21997200Y-35845714D01*
X21997200Y-35845714D02*
X21854342Y-35988571D01*
X21854342Y-35988571D02*
X21806723Y-36083809D01*
X21806723Y-36083809D02*
X21806723Y-36179047D01*
X22044819Y-36131428D02*
X21997200Y-36226666D01*
X21997200Y-36226666D02*
X21901961Y-36321904D01*
X21901961Y-36321904D02*
X21711485Y-36369523D01*
X21711485Y-36369523D02*
X21378152Y-36369523D01*
X21378152Y-36369523D02*
X21187676Y-36321904D01*
X21187676Y-36321904D02*
X21092438Y-36226666D01*
X21092438Y-36226666D02*
X21044819Y-36131428D01*
X21044819Y-36131428D02*
X21044819Y-35940952D01*
X21044819Y-35940952D02*
X21092438Y-35845714D01*
X21092438Y-35845714D02*
X21187676Y-35750476D01*
X21187676Y-35750476D02*
X21378152Y-35702857D01*
X21378152Y-35702857D02*
X21711485Y-35702857D01*
X21711485Y-35702857D02*
X21901961Y-35750476D01*
X21901961Y-35750476D02*
X21997200Y-35845714D01*
X21997200Y-35845714D02*
X22044819Y-35940952D01*
X22044819Y-35940952D02*
X22044819Y-36131428D01*
X22044819Y-34750476D02*
X22044819Y-35321904D01*
X22044819Y-35036190D02*
X21044819Y-35036190D01*
X21044819Y-35036190D02*
X21187676Y-35131428D01*
X21187676Y-35131428D02*
X21282914Y-35226666D01*
X21282914Y-35226666D02*
X21330533Y-35321904D01*
X43637580Y-54268666D02*
X43685200Y-54316285D01*
X43685200Y-54316285D02*
X43732819Y-54459142D01*
X43732819Y-54459142D02*
X43732819Y-54554380D01*
X43732819Y-54554380D02*
X43685200Y-54697237D01*
X43685200Y-54697237D02*
X43589961Y-54792475D01*
X43589961Y-54792475D02*
X43494723Y-54840094D01*
X43494723Y-54840094D02*
X43304247Y-54887713D01*
X43304247Y-54887713D02*
X43161390Y-54887713D01*
X43161390Y-54887713D02*
X42970914Y-54840094D01*
X42970914Y-54840094D02*
X42875676Y-54792475D01*
X42875676Y-54792475D02*
X42780438Y-54697237D01*
X42780438Y-54697237D02*
X42732819Y-54554380D01*
X42732819Y-54554380D02*
X42732819Y-54459142D01*
X42732819Y-54459142D02*
X42780438Y-54316285D01*
X42780438Y-54316285D02*
X42828057Y-54268666D01*
X43732819Y-53316285D02*
X43732819Y-53887713D01*
X43732819Y-53601999D02*
X42732819Y-53601999D01*
X42732819Y-53601999D02*
X42875676Y-53697237D01*
X42875676Y-53697237D02*
X42970914Y-53792475D01*
X42970914Y-53792475D02*
X43018533Y-53887713D01*
D11*
%TO.C,C2*%
X48287000Y-53840748D02*
X48287000Y-54363252D01*
X49757000Y-53840748D02*
X49757000Y-54363252D01*
%TO.C,J3*%
X55626000Y-50232000D02*
X60766000Y-50232000D01*
X53026000Y-50232000D02*
X54356000Y-50232000D01*
X53026000Y-51562000D02*
X53026000Y-50232000D01*
X60766000Y-52892000D02*
X60766000Y-50232000D01*
X55626000Y-52892000D02*
X55626000Y-50232000D01*
X55626000Y-52892000D02*
X60766000Y-52892000D01*
%TO.C,J2*%
X19304000Y-50740000D02*
X24444000Y-50740000D01*
X16704000Y-50740000D02*
X18034000Y-50740000D01*
X16704000Y-52070000D02*
X16704000Y-50740000D01*
X24444000Y-53400000D02*
X24444000Y-50740000D01*
X19304000Y-53400000D02*
X19304000Y-50740000D01*
X19304000Y-53400000D02*
X24444000Y-53400000D01*
%TO.C,K1*%
X25804000Y-30947000D02*
X25804000Y-53647000D01*
X25804000Y-53647000D02*
X42504000Y-53647000D01*
X29654000Y-35797000D02*
X32804000Y-35797000D01*
X33154000Y-30687000D02*
X35154000Y-30687000D01*
X33804000Y-35197000D02*
X33804000Y-36397000D01*
X33804000Y-35997000D02*
X34504000Y-35597000D01*
X33804000Y-36397000D02*
X34504000Y-36397000D01*
X34504000Y-35197000D02*
X33804000Y-35197000D01*
X34504000Y-36397000D02*
X34504000Y-35197000D01*
X35504000Y-35797000D02*
X38654000Y-35797000D01*
X42504000Y-30947000D02*
X25804000Y-30947000D01*
X42504000Y-53647000D02*
X42504000Y-30947000D01*
%TO.C,J1*%
X44838000Y-30794000D02*
X60918000Y-30794000D01*
X44838000Y-32414000D02*
X60918000Y-32414000D01*
X44838000Y-40164000D02*
X60918000Y-40164000D01*
X44838000Y-41284000D02*
X44838000Y-30794000D01*
X47198000Y-41284000D02*
X44838000Y-41284000D01*
X60918000Y-30794000D02*
X60918000Y-41284000D01*
X60918000Y-41284000D02*
X47798000Y-41284000D01*
X47938000Y-41894000D02*
X47058000Y-41894000D01*
X47498000Y-41284000D01*
X47938000Y-41894000D01*
G36*
X47938000Y-41894000D02*
G01*
X47058000Y-41894000D01*
X47498000Y-41284000D01*
X47938000Y-41894000D01*
G37*
%TO.C,U1*%
X49550000Y-46990000D02*
X49550000Y-45040000D01*
X49550000Y-46990000D02*
X49550000Y-48940000D01*
X44430000Y-46990000D02*
X44430000Y-45040000D01*
X44430000Y-46990000D02*
X44430000Y-48940000D01*
X49785000Y-44530000D02*
X49455000Y-44290000D01*
X49785000Y-44050000D01*
X49785000Y-44530000D01*
G36*
X49785000Y-44530000D02*
G01*
X49455000Y-44290000D01*
X49785000Y-44050000D01*
X49785000Y-44530000D01*
G37*
%TO.C,Q1*%
X21300000Y-37846000D02*
X21300000Y-38646000D01*
X21300000Y-37846000D02*
X21300000Y-37046000D01*
X24420000Y-37846000D02*
X24420000Y-38646000D01*
X24420000Y-37846000D02*
X24420000Y-37046000D01*
X21350000Y-39146000D02*
X21020000Y-39386000D01*
X21020000Y-38906000D01*
X21350000Y-39146000D01*
G36*
X21350000Y-39146000D02*
G01*
X21020000Y-39386000D01*
X21020000Y-38906000D01*
X21350000Y-39146000D01*
G37*
%TO.C,C1*%
X44223000Y-54363252D02*
X44223000Y-53840748D01*
X45693000Y-54363252D02*
X45693000Y-53840748D01*
%TD*%
M02*
