%TF.GenerationSoftware,KiCad,Pcbnew,9.0.3*%
%TF.CreationDate,2025-12-07T20:25:51-06:00*%
%TF.ProjectId,VoltmeterFrontEnd_b,566f6c74-6d65-4746-9572-46726f6e7445,rev?*%
%TF.SameCoordinates,Original*%
%TF.FileFunction,Copper,L1,Top*%
%TF.FilePolarity,Positive*%
%FSLAX46Y46*%
G04 Gerber Fmt 4.6, Leading zero omitted, Abs format (unit mm)*
G04 Created by KiCad (PCBNEW 9.0.3) date 2025-12-07 20:25:51*
%MOMM*%
%LPD*%
G01*
G04 APERTURE LIST*
G04 Aperture macros list*
%AMRoundRect*
0 Rectangle with rounded corners*
0 $1 Rounding radius*
0 $2 $3 $4 $5 $6 $7 $8 $9 X,Y pos of 4 corners*
0 Add a 4 corners polygon primitive as box body*
4,1,4,$2,$3,$4,$5,$6,$7,$8,$9,$2,$3,0*
0 Add four circle primitives for the rounded corners*
1,1,$1+$1,$2,$3*
1,1,$1+$1,$4,$5*
1,1,$1+$1,$6,$7*
1,1,$1+$1,$8,$9*
0 Add four rect primitives between the rounded corners*
20,1,$1+$1,$2,$3,$4,$5,0*
20,1,$1+$1,$4,$5,$6,$7,0*
20,1,$1+$1,$6,$7,$8,$9,0*
20,1,$1+$1,$8,$9,$2,$3,0*%
G04 Aperture macros list end*
%TA.AperFunction,ComponentPad*%
%ADD10C,1.700000*%
%TD*%
%TA.AperFunction,ComponentPad*%
%ADD11R,1.700000X1.700000*%
%TD*%
%TA.AperFunction,ConnectorPad*%
%ADD12C,5.600000*%
%TD*%
%TA.AperFunction,ComponentPad*%
%ADD13C,3.600000*%
%TD*%
%TA.AperFunction,SMDPad,CuDef*%
%ADD14RoundRect,0.250000X-0.350000X-0.450000X0.350000X-0.450000X0.350000X0.450000X-0.350000X0.450000X0*%
%TD*%
%TA.AperFunction,SMDPad,CuDef*%
%ADD15RoundRect,0.250000X0.350000X0.450000X-0.350000X0.450000X-0.350000X-0.450000X0.350000X-0.450000X0*%
%TD*%
%TA.AperFunction,SMDPad,CuDef*%
%ADD16RoundRect,0.250000X0.450000X-0.350000X0.450000X0.350000X-0.450000X0.350000X-0.450000X-0.350000X0*%
%TD*%
%TA.AperFunction,SMDPad,CuDef*%
%ADD17RoundRect,0.150000X0.587500X0.150000X-0.587500X0.150000X-0.587500X-0.150000X0.587500X-0.150000X0*%
%TD*%
%TA.AperFunction,SMDPad,CuDef*%
%ADD18RoundRect,0.250000X-0.337500X-0.475000X0.337500X-0.475000X0.337500X0.475000X-0.337500X0.475000X0*%
%TD*%
%TA.AperFunction,SMDPad,CuDef*%
%ADD19RoundRect,0.162500X-0.162500X0.617500X-0.162500X-0.617500X0.162500X-0.617500X0.162500X0.617500X0*%
%TD*%
%TA.AperFunction,SMDPad,CuDef*%
%ADD20RoundRect,0.150000X-0.587500X-0.150000X0.587500X-0.150000X0.587500X0.150000X-0.587500X0.150000X0*%
%TD*%
%TA.AperFunction,SMDPad,CuDef*%
%ADD21RoundRect,0.225000X0.375000X-0.225000X0.375000X0.225000X-0.375000X0.225000X-0.375000X-0.225000X0*%
%TD*%
%TA.AperFunction,SMDPad,CuDef*%
%ADD22RoundRect,0.250000X0.337500X0.475000X-0.337500X0.475000X-0.337500X-0.475000X0.337500X-0.475000X0*%
%TD*%
%TA.AperFunction,ComponentPad*%
%ADD23RoundRect,0.250000X1.050000X-1.050000X1.050000X1.050000X-1.050000X1.050000X-1.050000X-1.050000X0*%
%TD*%
%TA.AperFunction,ComponentPad*%
%ADD24C,2.600000*%
%TD*%
%TA.AperFunction,SMDPad,CuDef*%
%ADD25RoundRect,0.225000X-0.375000X0.225000X-0.375000X-0.225000X0.375000X-0.225000X0.375000X0.225000X0*%
%TD*%
%TA.AperFunction,SMDPad,CuDef*%
%ADD26RoundRect,0.150000X0.150000X-0.587500X0.150000X0.587500X-0.150000X0.587500X-0.150000X-0.587500X0*%
%TD*%
%TA.AperFunction,SMDPad,CuDef*%
%ADD27RoundRect,0.250000X-0.450000X0.325000X-0.450000X-0.325000X0.450000X-0.325000X0.450000X0.325000X0*%
%TD*%
%TA.AperFunction,ViaPad*%
%ADD28C,0.800000*%
%TD*%
%TA.AperFunction,Conductor*%
%ADD29C,0.250000*%
%TD*%
G04 APERTURE END LIST*
D10*
%TO.P,J1,9,Pin_9*%
%TO.N,/ADC-1*%
X124250000Y-86000000D03*
%TO.P,J1,8,Pin_8*%
%TO.N,/V Ref to ADS-0*%
X121710000Y-86000000D03*
%TO.P,J1,7,Pin_7*%
%TO.N,unconnected-(J1-Pin_7-Pad7)*%
X119170000Y-86000000D03*
%TO.P,J1,6,Pin_6*%
%TO.N,unconnected-(J1-Pin_6-Pad6)*%
X116630000Y-86000000D03*
%TO.P,J1,5,Pin_5*%
%TO.N,unconnected-(J1-Pin_5-Pad5)*%
X114090000Y-86000000D03*
%TO.P,J1,4,Pin_4*%
%TO.N,MOSFET_Ctrl*%
X111550000Y-86000000D03*
%TO.P,J1,3,Pin_3*%
%TO.N,GND*%
X109010000Y-86000000D03*
%TO.P,J1,2,Pin_2*%
%TO.N,VDD*%
X106470000Y-86000000D03*
D11*
%TO.P,J1,1,Pin_1*%
%TO.N,+9V*%
X103930000Y-86000000D03*
%TD*%
D12*
%TO.P,H3,1*%
%TO.N,N/C*%
X134500000Y-84000000D03*
D13*
X134500000Y-84000000D03*
%TD*%
D12*
%TO.P,H4,1*%
%TO.N,N/C*%
X94000000Y-84000000D03*
D13*
X94000000Y-84000000D03*
%TD*%
D14*
%TO.P,R27,1*%
%TO.N,VDD*%
X113373500Y-78752000D03*
%TO.P,R27,2*%
%TO.N,/V Ref to ADS-0*%
X115373500Y-78752000D03*
%TD*%
D15*
%TO.P,R18,1*%
%TO.N,V_Input_REF*%
X124586000Y-77252000D03*
%TO.P,R18,2*%
%TO.N,/V Ref to ADS-0*%
X122586000Y-77252000D03*
%TD*%
D16*
%TO.P,R14,1*%
%TO.N,/V Ref to ADS-0*%
X120086000Y-76252000D03*
%TO.P,R14,2*%
%TO.N,/ADC-1*%
X120086000Y-74252000D03*
%TD*%
D17*
%TO.P,U10,1,K*%
%TO.N,/V Ref to ADS-0*%
X115356500Y-73830000D03*
%TO.P,U10,2,A*%
%TO.N,GND*%
X115356500Y-71930000D03*
%TO.P,U10,3,nc_(gnd)*%
X113481500Y-72880000D03*
%TD*%
D18*
%TO.P,C9,1*%
%TO.N,Net-(U7-C1-)*%
X105131000Y-80249940D03*
%TO.P,C9,2*%
%TO.N,Net-(U7-C1+)*%
X107206000Y-80249940D03*
%TD*%
D16*
%TO.P,R1,1*%
%TO.N,VDD*%
X99250000Y-84250000D03*
%TO.P,R1,2*%
%TO.N,Net-(D1-A)*%
X99250000Y-82250000D03*
%TD*%
D15*
%TO.P,R17,1*%
%TO.N,V_Input_Float*%
X124586000Y-72502000D03*
%TO.P,R17,2*%
%TO.N,/ADC-1*%
X122586000Y-72502000D03*
%TD*%
D14*
%TO.P,R7,1*%
%TO.N,MOSFET_Ctrl*%
X103000000Y-66500000D03*
%TO.P,R7,2*%
%TO.N,Net-(Q3-B)*%
X105000000Y-66500000D03*
%TD*%
D19*
%TO.P,U7,1,Gnd*%
%TO.N,GND*%
X107036000Y-75169940D03*
%TO.P,U7,2,Out*%
%TO.N,+9V*%
X106086000Y-75169940D03*
%TO.P,U7,3,C1-*%
%TO.N,Net-(U7-C1-)*%
X105136000Y-75169940D03*
%TO.P,U7,4,In*%
%TO.N,VDD*%
X105136000Y-77869940D03*
%TO.P,U7,5,C1+*%
%TO.N,Net-(U7-C1+)*%
X107036000Y-77869940D03*
%TD*%
D16*
%TO.P,R3,1*%
%TO.N,VDD*%
X100250000Y-69500000D03*
%TO.P,R3,2*%
%TO.N,MOSFET_Ctrl*%
X100250000Y-67500000D03*
%TD*%
D20*
%TO.P,Q3,1,B*%
%TO.N,Net-(Q3-B)*%
X108312500Y-64800000D03*
%TO.P,Q3,2,E*%
%TO.N,GND*%
X108312500Y-66700000D03*
%TO.P,Q3,3,C*%
%TO.N,/MOSFET_Gate*%
X110187500Y-65750000D03*
%TD*%
D14*
%TO.P,R12,1*%
%TO.N,GND*%
X103000000Y-69750000D03*
%TO.P,R12,2*%
%TO.N,/MOSFET_Gate*%
X105000000Y-69750000D03*
%TD*%
D21*
%TO.P,D4,1,K*%
%TO.N,VDD*%
X120336000Y-69652000D03*
%TO.P,D4,2,A*%
%TO.N,/ADC-1*%
X120336000Y-66352000D03*
%TD*%
D15*
%TO.P,R24,1*%
%TO.N,Net-(Q8-D)*%
X117586000Y-69752000D03*
%TO.P,R24,2*%
%TO.N,/V Ref to ADS-0*%
X115586000Y-69752000D03*
%TD*%
D22*
%TO.P,C10,1*%
%TO.N,GND*%
X107206000Y-72629940D03*
%TO.P,C10,2*%
%TO.N,+9V*%
X105131000Y-72629940D03*
%TD*%
D23*
%TO.P,J15,1,Pin_1*%
%TO.N,V_Input_REF*%
X132417500Y-77297000D03*
D24*
%TO.P,J15,2,Pin_2*%
%TO.N,V_Input_Float*%
X132417500Y-72217000D03*
%TD*%
D25*
%TO.P,D5,1,K*%
%TO.N,/ADC-1*%
X123086000Y-66352000D03*
%TO.P,D5,2,A*%
%TO.N,GND*%
X123086000Y-69652000D03*
%TD*%
D26*
%TO.P,Q8,1,G*%
%TO.N,/MOSFET_Gate*%
X115636000Y-67127000D03*
%TO.P,Q8,2,S*%
%TO.N,/ADC-1*%
X117536000Y-67127000D03*
%TO.P,Q8,3,D*%
%TO.N,Net-(Q8-D)*%
X116586000Y-65252000D03*
%TD*%
D14*
%TO.P,R8,1*%
%TO.N,/MOSFET_Gate*%
X108000000Y-69750000D03*
%TO.P,R8,2*%
%TO.N,+9V*%
X110000000Y-69750000D03*
%TD*%
D13*
%TO.P,H2,1*%
%TO.N,N/C*%
X134250000Y-65500000D03*
D12*
X134250000Y-65500000D03*
%TD*%
D27*
%TO.P,D1,1,K*%
%TO.N,GND*%
X99250000Y-77725000D03*
%TO.P,D1,2,A*%
%TO.N,Net-(D1-A)*%
X99250000Y-79775000D03*
%TD*%
D18*
%TO.P,C17,1*%
%TO.N,GND*%
X113336000Y-76252000D03*
%TO.P,C17,2*%
%TO.N,/V Ref to ADS-0*%
X115411000Y-76252000D03*
%TD*%
D13*
%TO.P,H1,1*%
%TO.N,N/C*%
X94000000Y-65500000D03*
D12*
X94000000Y-65500000D03*
%TD*%
D28*
%TO.N,VDD*%
X100500000Y-70750000D03*
X101000000Y-84000000D03*
%TO.N,GND*%
X101000000Y-77250000D03*
%TO.N,VDD*%
X120250000Y-68000000D03*
X112000000Y-79250000D03*
X106000000Y-76698843D03*
%TO.N,GND*%
X123086000Y-68000000D03*
X106750000Y-66000000D03*
X109000000Y-71500000D03*
X113481500Y-74002000D03*
%TO.N,/ADC-1*%
X120961000Y-72627000D03*
%TO.N,MOSFET_Ctrl*%
X102000000Y-71500000D03*
X110571000Y-80252000D03*
%TD*%
D29*
%TO.N,MOSFET_Ctrl*%
X102000000Y-71500000D02*
X101500000Y-71000000D01*
X101500000Y-71000000D02*
X101500000Y-68750000D01*
X101500000Y-68750000D02*
X100250000Y-67500000D01*
X101250000Y-66500000D02*
X100250000Y-67500000D01*
X103000000Y-66500000D02*
X101250000Y-66500000D01*
%TO.N,VDD*%
X100336000Y-70586000D02*
X100500000Y-70750000D01*
X100336000Y-69302000D02*
X100336000Y-70586000D01*
%TO.N,/V Ref to ADS-0*%
X122586000Y-85124000D02*
X121710000Y-86000000D01*
X122586000Y-77252000D02*
X122586000Y-85124000D01*
%TO.N,GND*%
X123086000Y-69652000D02*
X123086000Y-68000000D01*
%TO.N,VDD*%
X120250000Y-68000000D02*
X120250000Y-69566000D01*
X120250000Y-69566000D02*
X120336000Y-69652000D01*
%TO.N,+9V*%
X103410000Y-76258130D02*
X103930000Y-75738130D01*
X103930000Y-75738130D02*
X103930000Y-73830940D01*
X103930000Y-79686750D02*
X103410000Y-79166750D01*
X103410000Y-79166750D02*
X103410000Y-76258130D01*
X103930000Y-73830940D02*
X105131000Y-72629940D01*
X103930000Y-86000000D02*
X103930000Y-79686750D01*
%TO.N,MOSFET_Ctrl*%
X110571000Y-85021000D02*
X110571000Y-80252000D01*
X111550000Y-86000000D02*
X110571000Y-85021000D01*
%TO.N,VDD*%
X106000000Y-77005940D02*
X105136000Y-77869940D01*
X106000000Y-76698843D02*
X106000000Y-77005940D01*
X100750000Y-84250000D02*
X101000000Y-84000000D01*
X99250000Y-84250000D02*
X100750000Y-84250000D01*
%TO.N,GND*%
X100525000Y-77725000D02*
X101000000Y-77250000D01*
X99250000Y-77725000D02*
X100525000Y-77725000D01*
%TO.N,VDD*%
X112498000Y-78752000D02*
X112000000Y-79250000D01*
X113373500Y-78752000D02*
X112498000Y-78752000D01*
%TO.N,Net-(D1-A)*%
X99250000Y-82250000D02*
X99250000Y-79775000D01*
%TO.N,GND*%
X108312500Y-66700000D02*
X107450000Y-66700000D01*
X113481500Y-74002000D02*
X113481500Y-76106500D01*
X114431500Y-71930000D02*
X113481500Y-72880000D01*
X107870060Y-72629940D02*
X107206000Y-72629940D01*
X104500000Y-71250000D02*
X105826060Y-71250000D01*
X112346000Y-75262000D02*
X113336000Y-76252000D01*
X105826060Y-71250000D02*
X107206000Y-72629940D01*
X107128060Y-75262000D02*
X112346000Y-75262000D01*
X107450000Y-66700000D02*
X106750000Y-66000000D01*
X113481500Y-72880000D02*
X113481500Y-74002000D01*
X115356500Y-71930000D02*
X114431500Y-71930000D01*
X109000000Y-71500000D02*
X107870060Y-72629940D01*
X103000000Y-69750000D02*
X104500000Y-71250000D01*
%TO.N,+9V*%
X106086000Y-74389941D02*
X106725941Y-73750000D01*
X106725941Y-73750000D02*
X108500000Y-73750000D01*
X106086000Y-75169940D02*
X106086000Y-74389941D01*
X106086000Y-75169940D02*
X106086000Y-73584940D01*
X108500000Y-73750000D02*
X110000000Y-72250000D01*
X106086000Y-73584940D02*
X105131000Y-72629940D01*
X110000000Y-72250000D02*
X110000000Y-69750000D01*
%TO.N,V_Input_REF*%
X124586000Y-77252000D02*
X132708500Y-77252000D01*
%TO.N,V_Input_Float*%
X124586000Y-72502000D02*
X132468500Y-72502000D01*
%TO.N,Net-(U7-C1-)*%
X103861000Y-78979940D02*
X105131000Y-80249940D01*
X103861000Y-76444940D02*
X103861000Y-78979940D01*
X105136000Y-75169940D02*
X103861000Y-76444940D01*
%TO.N,Net-(U7-C1+)*%
X107036000Y-77869940D02*
X107036000Y-80079940D01*
%TO.N,/ADC-1*%
X121086000Y-72502000D02*
X122586000Y-72502000D01*
X120086000Y-74252000D02*
X120086000Y-73502000D01*
X121586000Y-71502000D02*
X121586000Y-67602000D01*
X122586000Y-72502000D02*
X121586000Y-71502000D01*
X121586000Y-67602000D02*
X120336000Y-66352000D01*
X123086000Y-66352000D02*
X120336000Y-66352000D01*
X120961000Y-72627000D02*
X121086000Y-72502000D01*
X120086000Y-73502000D02*
X120961000Y-72627000D01*
X120336000Y-66352000D02*
X118311000Y-66352000D01*
X118311000Y-66352000D02*
X117536000Y-67127000D01*
%TO.N,/V Ref to ADS-0*%
X115356500Y-73830000D02*
X115356500Y-76197500D01*
X115411000Y-76252000D02*
X120086000Y-76252000D01*
X115586000Y-69752000D02*
X116420000Y-70586000D01*
X116420000Y-72766500D02*
X115356500Y-73830000D01*
X115411000Y-76252000D02*
X115411000Y-78714500D01*
X121086000Y-77252000D02*
X120086000Y-76252000D01*
X122586000Y-77252000D02*
X121086000Y-77252000D01*
X116420000Y-70586000D02*
X116420000Y-72766500D01*
%TO.N,Net-(Q8-D)*%
X116586000Y-68752000D02*
X117586000Y-69752000D01*
X116586000Y-65252000D02*
X116586000Y-68752000D01*
%TO.N,Net-(Q3-B)*%
X108312500Y-64800000D02*
X106700000Y-64800000D01*
X106700000Y-64800000D02*
X105000000Y-66500000D01*
%TO.N,/MOSFET_Gate*%
X110187500Y-65750000D02*
X114259000Y-65750000D01*
X108000000Y-68500000D02*
X108000000Y-69750000D01*
X114259000Y-65750000D02*
X115636000Y-67127000D01*
X108000000Y-69750000D02*
X105000000Y-69750000D01*
X110187500Y-65750000D02*
X110187500Y-66312500D01*
X110187500Y-66312500D02*
X108000000Y-68500000D01*
%TD*%
M02*
