%TF.GenerationSoftware,KiCad,Pcbnew,9.0.3*%
%TF.CreationDate,2025-12-07T20:25:51-06:00*%
%TF.ProjectId,VoltmeterFrontEnd_b,566f6c74-6d65-4746-9572-46726f6e7445,rev?*%
%TF.SameCoordinates,Original*%
%TF.FileFunction,Copper,L4,Bot*%
%TF.FilePolarity,Positive*%
%FSLAX46Y46*%
G04 Gerber Fmt 4.6, Leading zero omitted, Abs format (unit mm)*
G04 Created by KiCad (PCBNEW 9.0.3) date 2025-12-07 20:25:51*
%MOMM*%
%LPD*%
G01*
G04 APERTURE LIST*
G04 Aperture macros list*
%AMRoundRect*
0 Rectangle with rounded corners*
0 $1 Rounding radius*
0 $2 $3 $4 $5 $6 $7 $8 $9 X,Y pos of 4 corners*
0 Add a 4 corners polygon primitive as box body*
4,1,4,$2,$3,$4,$5,$6,$7,$8,$9,$2,$3,0*
0 Add four circle primitives for the rounded corners*
1,1,$1+$1,$2,$3*
1,1,$1+$1,$4,$5*
1,1,$1+$1,$6,$7*
1,1,$1+$1,$8,$9*
0 Add four rect primitives between the rounded corners*
20,1,$1+$1,$2,$3,$4,$5,0*
20,1,$1+$1,$4,$5,$6,$7,0*
20,1,$1+$1,$6,$7,$8,$9,0*
20,1,$1+$1,$8,$9,$2,$3,0*%
G04 Aperture macros list end*
%TA.AperFunction,ComponentPad*%
%ADD10C,1.700000*%
%TD*%
%TA.AperFunction,ComponentPad*%
%ADD11R,1.700000X1.700000*%
%TD*%
%TA.AperFunction,ConnectorPad*%
%ADD12C,5.600000*%
%TD*%
%TA.AperFunction,ComponentPad*%
%ADD13C,3.600000*%
%TD*%
%TA.AperFunction,ComponentPad*%
%ADD14RoundRect,0.250000X1.050000X-1.050000X1.050000X1.050000X-1.050000X1.050000X-1.050000X-1.050000X0*%
%TD*%
%TA.AperFunction,ComponentPad*%
%ADD15C,2.600000*%
%TD*%
%TA.AperFunction,ViaPad*%
%ADD16C,0.800000*%
%TD*%
G04 APERTURE END LIST*
D10*
%TO.P,J1,9,Pin_9*%
%TO.N,/ADC-1*%
X124250000Y-86000000D03*
%TO.P,J1,8,Pin_8*%
%TO.N,/V Ref to ADS-0*%
X121710000Y-86000000D03*
%TO.P,J1,7,Pin_7*%
%TO.N,unconnected-(J1-Pin_7-Pad7)*%
X119170000Y-86000000D03*
%TO.P,J1,6,Pin_6*%
%TO.N,unconnected-(J1-Pin_6-Pad6)*%
X116630000Y-86000000D03*
%TO.P,J1,5,Pin_5*%
%TO.N,unconnected-(J1-Pin_5-Pad5)*%
X114090000Y-86000000D03*
%TO.P,J1,4,Pin_4*%
%TO.N,MOSFET_Ctrl*%
X111550000Y-86000000D03*
%TO.P,J1,3,Pin_3*%
%TO.N,GND*%
X109010000Y-86000000D03*
%TO.P,J1,2,Pin_2*%
%TO.N,VDD*%
X106470000Y-86000000D03*
D11*
%TO.P,J1,1,Pin_1*%
%TO.N,+9V*%
X103930000Y-86000000D03*
%TD*%
D12*
%TO.P,H3,1*%
%TO.N,N/C*%
X134500000Y-84000000D03*
D13*
X134500000Y-84000000D03*
%TD*%
D12*
%TO.P,H4,1*%
%TO.N,N/C*%
X94000000Y-84000000D03*
D13*
X94000000Y-84000000D03*
%TD*%
D14*
%TO.P,J15,1,Pin_1*%
%TO.N,V_Input_REF*%
X132417500Y-77297000D03*
D15*
%TO.P,J15,2,Pin_2*%
%TO.N,V_Input_Float*%
X132417500Y-72217000D03*
%TD*%
D13*
%TO.P,H2,1*%
%TO.N,N/C*%
X134250000Y-65500000D03*
D12*
X134250000Y-65500000D03*
%TD*%
D13*
%TO.P,H1,1*%
%TO.N,N/C*%
X94000000Y-65500000D03*
D12*
X94000000Y-65500000D03*
%TD*%
D16*
%TO.N,VDD*%
X100500000Y-70750000D03*
X101000000Y-84000000D03*
%TO.N,GND*%
X101000000Y-77250000D03*
%TO.N,VDD*%
X120250000Y-68000000D03*
X112000000Y-79250000D03*
X106000000Y-76698843D03*
%TO.N,GND*%
X123086000Y-68000000D03*
X106750000Y-66000000D03*
X109000000Y-71500000D03*
X113481500Y-74002000D03*
%TO.N,/ADC-1*%
X120961000Y-72627000D03*
%TO.N,MOSFET_Ctrl*%
X102000000Y-71500000D03*
X110571000Y-80252000D03*
%TD*%
%TA.AperFunction,Conductor*%
%TO.N,GND*%
G36*
X128243039Y-63521685D02*
G01*
X128288794Y-63574489D01*
X128300000Y-63626000D01*
X128300000Y-87128000D01*
X128280315Y-87195039D01*
X128227511Y-87240794D01*
X128176000Y-87252000D01*
X125206012Y-87252000D01*
X125138973Y-87232315D01*
X125093218Y-87179511D01*
X125083274Y-87110353D01*
X125112299Y-87046797D01*
X125126497Y-87033766D01*
X125126079Y-87033276D01*
X125129786Y-87030108D01*
X125129792Y-87030104D01*
X125280104Y-86879792D01*
X125280106Y-86879788D01*
X125280109Y-86879786D01*
X125405048Y-86707820D01*
X125405047Y-86707820D01*
X125405051Y-86707816D01*
X125501557Y-86518412D01*
X125567246Y-86316243D01*
X125600500Y-86106287D01*
X125600500Y-85893713D01*
X125567246Y-85683757D01*
X125501557Y-85481588D01*
X125405051Y-85292184D01*
X125405049Y-85292181D01*
X125405048Y-85292179D01*
X125280109Y-85120213D01*
X125129786Y-84969890D01*
X124957820Y-84844951D01*
X124768414Y-84748444D01*
X124768413Y-84748443D01*
X124768412Y-84748443D01*
X124566243Y-84682754D01*
X124566241Y-84682753D01*
X124566240Y-84682753D01*
X124404957Y-84657208D01*
X124356287Y-84649500D01*
X124143713Y-84649500D01*
X124095042Y-84657208D01*
X123933760Y-84682753D01*
X123731585Y-84748444D01*
X123542179Y-84844951D01*
X123370213Y-84969890D01*
X123219890Y-85120213D01*
X123094949Y-85292182D01*
X123090484Y-85300946D01*
X123042509Y-85351742D01*
X122974688Y-85368536D01*
X122908553Y-85345998D01*
X122869516Y-85300946D01*
X122865050Y-85292182D01*
X122740109Y-85120213D01*
X122589786Y-84969890D01*
X122417820Y-84844951D01*
X122228414Y-84748444D01*
X122228413Y-84748443D01*
X122228412Y-84748443D01*
X122026243Y-84682754D01*
X122026241Y-84682753D01*
X122026240Y-84682753D01*
X121864957Y-84657208D01*
X121816287Y-84649500D01*
X121603713Y-84649500D01*
X121555042Y-84657208D01*
X121393760Y-84682753D01*
X121191585Y-84748444D01*
X121002179Y-84844951D01*
X120830213Y-84969890D01*
X120679890Y-85120213D01*
X120554949Y-85292182D01*
X120550484Y-85300946D01*
X120502509Y-85351742D01*
X120434688Y-85368536D01*
X120368553Y-85345998D01*
X120329516Y-85300946D01*
X120325050Y-85292182D01*
X120200109Y-85120213D01*
X120049786Y-84969890D01*
X119877820Y-84844951D01*
X119688414Y-84748444D01*
X119688413Y-84748443D01*
X119688412Y-84748443D01*
X119486243Y-84682754D01*
X119486241Y-84682753D01*
X119486240Y-84682753D01*
X119324957Y-84657208D01*
X119276287Y-84649500D01*
X119063713Y-84649500D01*
X119015042Y-84657208D01*
X118853760Y-84682753D01*
X118651585Y-84748444D01*
X118462179Y-84844951D01*
X118290213Y-84969890D01*
X118139890Y-85120213D01*
X118014949Y-85292182D01*
X118010484Y-85300946D01*
X117962509Y-85351742D01*
X117894688Y-85368536D01*
X117828553Y-85345998D01*
X117789516Y-85300946D01*
X117785050Y-85292182D01*
X117660109Y-85120213D01*
X117509786Y-84969890D01*
X117337820Y-84844951D01*
X117148414Y-84748444D01*
X117148413Y-84748443D01*
X117148412Y-84748443D01*
X116946243Y-84682754D01*
X116946241Y-84682753D01*
X116946240Y-84682753D01*
X116784957Y-84657208D01*
X116736287Y-84649500D01*
X116523713Y-84649500D01*
X116475042Y-84657208D01*
X116313760Y-84682753D01*
X116111585Y-84748444D01*
X115922179Y-84844951D01*
X115750213Y-84969890D01*
X115599890Y-85120213D01*
X115474949Y-85292182D01*
X115470484Y-85300946D01*
X115422509Y-85351742D01*
X115354688Y-85368536D01*
X115288553Y-85345998D01*
X115249516Y-85300946D01*
X115245050Y-85292182D01*
X115120109Y-85120213D01*
X114969786Y-84969890D01*
X114797820Y-84844951D01*
X114608414Y-84748444D01*
X114608413Y-84748443D01*
X114608412Y-84748443D01*
X114406243Y-84682754D01*
X114406241Y-84682753D01*
X114406240Y-84682753D01*
X114244957Y-84657208D01*
X114196287Y-84649500D01*
X113983713Y-84649500D01*
X113935042Y-84657208D01*
X113773760Y-84682753D01*
X113571585Y-84748444D01*
X113382179Y-84844951D01*
X113210213Y-84969890D01*
X113059890Y-85120213D01*
X112934949Y-85292182D01*
X112930484Y-85300946D01*
X112882509Y-85351742D01*
X112814688Y-85368536D01*
X112748553Y-85345998D01*
X112709516Y-85300946D01*
X112705050Y-85292182D01*
X112580109Y-85120213D01*
X112429786Y-84969890D01*
X112257820Y-84844951D01*
X112068414Y-84748444D01*
X112068413Y-84748443D01*
X112068412Y-84748443D01*
X111866243Y-84682754D01*
X111866241Y-84682753D01*
X111866240Y-84682753D01*
X111704957Y-84657208D01*
X111656287Y-84649500D01*
X111443713Y-84649500D01*
X111395042Y-84657208D01*
X111233760Y-84682753D01*
X111031585Y-84748444D01*
X110842179Y-84844951D01*
X110670213Y-84969890D01*
X110519890Y-85120213D01*
X110394949Y-85292182D01*
X110390202Y-85301499D01*
X110342227Y-85352293D01*
X110274405Y-85369087D01*
X110208271Y-85346548D01*
X110169234Y-85301495D01*
X110164626Y-85292452D01*
X110125270Y-85238282D01*
X110125269Y-85238282D01*
X109492962Y-85870590D01*
X109475925Y-85807007D01*
X109410099Y-85692993D01*
X109317007Y-85599901D01*
X109202993Y-85534075D01*
X109139409Y-85517037D01*
X109771716Y-84884728D01*
X109717550Y-84845375D01*
X109528217Y-84748904D01*
X109326129Y-84683242D01*
X109116246Y-84650000D01*
X108903754Y-84650000D01*
X108693872Y-84683242D01*
X108693869Y-84683242D01*
X108491782Y-84748904D01*
X108302439Y-84845380D01*
X108248282Y-84884727D01*
X108248282Y-84884728D01*
X108880591Y-85517037D01*
X108817007Y-85534075D01*
X108702993Y-85599901D01*
X108609901Y-85692993D01*
X108544075Y-85807007D01*
X108527037Y-85870591D01*
X107894728Y-85238282D01*
X107894727Y-85238282D01*
X107855380Y-85292440D01*
X107855376Y-85292446D01*
X107850760Y-85301505D01*
X107802781Y-85352297D01*
X107734959Y-85369087D01*
X107668826Y-85346543D01*
X107629794Y-85301493D01*
X107625051Y-85292184D01*
X107625049Y-85292181D01*
X107625048Y-85292179D01*
X107500109Y-85120213D01*
X107349786Y-84969890D01*
X107177820Y-84844951D01*
X106988414Y-84748444D01*
X106988413Y-84748443D01*
X106988412Y-84748443D01*
X106786243Y-84682754D01*
X106786241Y-84682753D01*
X106786240Y-84682753D01*
X106624957Y-84657208D01*
X106576287Y-84649500D01*
X106363713Y-84649500D01*
X106315042Y-84657208D01*
X106153760Y-84682753D01*
X105951585Y-84748444D01*
X105762179Y-84844951D01*
X105590215Y-84969889D01*
X105476673Y-85083431D01*
X105415350Y-85116915D01*
X105345658Y-85111931D01*
X105289725Y-85070059D01*
X105272810Y-85039082D01*
X105223797Y-84907671D01*
X105223793Y-84907664D01*
X105137547Y-84792455D01*
X105137544Y-84792452D01*
X105022335Y-84706206D01*
X105022328Y-84706202D01*
X104887482Y-84655908D01*
X104887483Y-84655908D01*
X104827883Y-84649501D01*
X104827881Y-84649500D01*
X104827873Y-84649500D01*
X104827864Y-84649500D01*
X103032129Y-84649500D01*
X103032123Y-84649501D01*
X102972516Y-84655908D01*
X102837671Y-84706202D01*
X102837664Y-84706206D01*
X102722455Y-84792452D01*
X102722452Y-84792455D01*
X102636206Y-84907664D01*
X102636202Y-84907671D01*
X102585908Y-85042517D01*
X102579501Y-85102116D01*
X102579500Y-85102135D01*
X102579500Y-86897870D01*
X102579501Y-86897876D01*
X102585908Y-86957483D01*
X102633345Y-87084667D01*
X102638329Y-87154359D01*
X102604844Y-87215682D01*
X102543520Y-87249166D01*
X102517163Y-87252000D01*
X97218000Y-87252000D01*
X97150961Y-87232315D01*
X97105206Y-87179511D01*
X97094000Y-87128000D01*
X97094000Y-85179710D01*
X97103439Y-85132256D01*
X97111314Y-85113246D01*
X97205449Y-84802923D01*
X97205451Y-84802913D01*
X97205454Y-84802902D01*
X97250977Y-84574038D01*
X97268714Y-84484868D01*
X97300500Y-84162143D01*
X97300500Y-83911304D01*
X100099500Y-83911304D01*
X100099500Y-84088695D01*
X100134103Y-84262658D01*
X100134106Y-84262667D01*
X100201983Y-84426540D01*
X100201990Y-84426553D01*
X100300535Y-84574034D01*
X100300538Y-84574038D01*
X100425961Y-84699461D01*
X100425965Y-84699464D01*
X100573446Y-84798009D01*
X100573459Y-84798016D01*
X100687796Y-84845375D01*
X100737334Y-84865894D01*
X100737336Y-84865894D01*
X100737341Y-84865896D01*
X100911304Y-84900499D01*
X100911307Y-84900500D01*
X100911309Y-84900500D01*
X101088693Y-84900500D01*
X101088694Y-84900499D01*
X101167987Y-84884727D01*
X101262658Y-84865896D01*
X101262661Y-84865894D01*
X101262666Y-84865894D01*
X101426547Y-84798013D01*
X101574035Y-84699464D01*
X101699464Y-84574035D01*
X101798013Y-84426547D01*
X101865894Y-84262666D01*
X101900500Y-84088691D01*
X101900500Y-83911309D01*
X101900500Y-83911306D01*
X101900499Y-83911304D01*
X101865896Y-83737341D01*
X101865893Y-83737332D01*
X101798016Y-83573459D01*
X101798009Y-83573446D01*
X101699464Y-83425965D01*
X101699461Y-83425961D01*
X101574038Y-83300538D01*
X101574034Y-83300535D01*
X101426553Y-83201990D01*
X101426540Y-83201983D01*
X101262667Y-83134106D01*
X101262658Y-83134103D01*
X101088694Y-83099500D01*
X101088691Y-83099500D01*
X100911309Y-83099500D01*
X100911306Y-83099500D01*
X100737341Y-83134103D01*
X100737332Y-83134106D01*
X100573459Y-83201983D01*
X100573446Y-83201990D01*
X100425965Y-83300535D01*
X100425961Y-83300538D01*
X100300538Y-83425961D01*
X100300535Y-83425965D01*
X100201990Y-83573446D01*
X100201983Y-83573459D01*
X100134106Y-83737332D01*
X100134103Y-83737341D01*
X100099500Y-83911304D01*
X97300500Y-83911304D01*
X97300500Y-83837857D01*
X97268714Y-83515132D01*
X97226029Y-83300538D01*
X97205454Y-83197097D01*
X97205451Y-83197086D01*
X97205450Y-83197083D01*
X97205449Y-83197077D01*
X97111314Y-82886754D01*
X97103439Y-82867741D01*
X97094000Y-82820289D01*
X97094000Y-80163304D01*
X109670500Y-80163304D01*
X109670500Y-80340695D01*
X109705103Y-80514658D01*
X109705106Y-80514667D01*
X109772983Y-80678540D01*
X109772990Y-80678553D01*
X109871535Y-80826034D01*
X109871538Y-80826038D01*
X109996961Y-80951461D01*
X109996965Y-80951464D01*
X110144446Y-81050009D01*
X110144459Y-81050016D01*
X110267363Y-81100923D01*
X110308334Y-81117894D01*
X110308336Y-81117894D01*
X110308341Y-81117896D01*
X110482304Y-81152499D01*
X110482307Y-81152500D01*
X110482309Y-81152500D01*
X110659693Y-81152500D01*
X110659694Y-81152499D01*
X110717682Y-81140964D01*
X110833658Y-81117896D01*
X110833661Y-81117894D01*
X110833666Y-81117894D01*
X110997547Y-81050013D01*
X111145035Y-80951464D01*
X111270464Y-80826035D01*
X111369013Y-80678547D01*
X111436894Y-80514666D01*
X111471500Y-80340691D01*
X111471500Y-80191361D01*
X111491185Y-80124322D01*
X111543989Y-80078567D01*
X111613147Y-80068623D01*
X111642951Y-80076799D01*
X111737334Y-80115894D01*
X111737336Y-80115894D01*
X111737341Y-80115896D01*
X111911304Y-80150499D01*
X111911307Y-80150500D01*
X111911309Y-80150500D01*
X112088693Y-80150500D01*
X112088694Y-80150499D01*
X112146682Y-80138964D01*
X112262658Y-80115896D01*
X112262661Y-80115894D01*
X112262666Y-80115894D01*
X112426547Y-80048013D01*
X112574035Y-79949464D01*
X112699464Y-79824035D01*
X112798013Y-79676547D01*
X112865894Y-79512666D01*
X112877566Y-79453990D01*
X112888964Y-79396682D01*
X112900500Y-79338691D01*
X112900500Y-79161309D01*
X112900500Y-79161306D01*
X112900499Y-79161304D01*
X112865896Y-78987341D01*
X112865893Y-78987332D01*
X112798016Y-78823459D01*
X112798009Y-78823446D01*
X112699464Y-78675965D01*
X112699461Y-78675961D01*
X112574038Y-78550538D01*
X112574034Y-78550535D01*
X112426553Y-78451990D01*
X112426540Y-78451983D01*
X112262667Y-78384106D01*
X112262658Y-78384103D01*
X112088694Y-78349500D01*
X112088691Y-78349500D01*
X111911309Y-78349500D01*
X111911306Y-78349500D01*
X111737341Y-78384103D01*
X111737332Y-78384106D01*
X111573459Y-78451983D01*
X111573446Y-78451990D01*
X111425965Y-78550535D01*
X111425961Y-78550538D01*
X111300538Y-78675961D01*
X111300535Y-78675965D01*
X111201990Y-78823446D01*
X111201983Y-78823459D01*
X111134106Y-78987332D01*
X111134103Y-78987341D01*
X111099500Y-79161304D01*
X111099500Y-79310638D01*
X111079815Y-79377677D01*
X111027011Y-79423432D01*
X110957853Y-79433376D01*
X110928049Y-79425200D01*
X110898685Y-79413037D01*
X110833666Y-79386106D01*
X110833662Y-79386105D01*
X110833658Y-79386103D01*
X110659694Y-79351500D01*
X110659691Y-79351500D01*
X110482309Y-79351500D01*
X110482306Y-79351500D01*
X110308341Y-79386103D01*
X110308332Y-79386106D01*
X110144459Y-79453983D01*
X110144446Y-79453990D01*
X109996965Y-79552535D01*
X109996961Y-79552538D01*
X109871538Y-79677961D01*
X109871535Y-79677965D01*
X109772990Y-79825446D01*
X109772983Y-79825459D01*
X109705106Y-79989332D01*
X109705103Y-79989341D01*
X109670500Y-80163304D01*
X97094000Y-80163304D01*
X97094000Y-76610147D01*
X105099500Y-76610147D01*
X105099500Y-76787538D01*
X105134103Y-76961501D01*
X105134106Y-76961510D01*
X105201983Y-77125383D01*
X105201990Y-77125396D01*
X105300535Y-77272877D01*
X105300538Y-77272881D01*
X105425961Y-77398304D01*
X105425965Y-77398307D01*
X105573446Y-77496852D01*
X105573459Y-77496859D01*
X105696363Y-77547766D01*
X105737334Y-77564737D01*
X105737336Y-77564737D01*
X105737341Y-77564739D01*
X105911304Y-77599342D01*
X105911307Y-77599343D01*
X105911309Y-77599343D01*
X106088693Y-77599343D01*
X106088694Y-77599342D01*
X106146682Y-77587807D01*
X106262658Y-77564739D01*
X106262661Y-77564737D01*
X106262666Y-77564737D01*
X106426547Y-77496856D01*
X106574035Y-77398307D01*
X106699464Y-77272878D01*
X106798013Y-77125390D01*
X106865894Y-76961509D01*
X106900500Y-76787534D01*
X106900500Y-76610152D01*
X106900500Y-76610149D01*
X106900499Y-76610147D01*
X106865896Y-76436184D01*
X106865893Y-76436175D01*
X106798016Y-76272302D01*
X106798009Y-76272289D01*
X106699464Y-76124808D01*
X106699461Y-76124804D01*
X106574038Y-75999381D01*
X106574034Y-75999378D01*
X106426553Y-75900833D01*
X106426540Y-75900826D01*
X106262667Y-75832949D01*
X106262658Y-75832946D01*
X106088694Y-75798343D01*
X106088691Y-75798343D01*
X105911309Y-75798343D01*
X105911306Y-75798343D01*
X105737341Y-75832946D01*
X105737332Y-75832949D01*
X105573459Y-75900826D01*
X105573446Y-75900833D01*
X105425965Y-75999378D01*
X105425961Y-75999381D01*
X105300538Y-76124804D01*
X105300535Y-76124808D01*
X105201990Y-76272289D01*
X105201983Y-76272302D01*
X105134106Y-76436175D01*
X105134103Y-76436184D01*
X105099500Y-76610147D01*
X97094000Y-76610147D01*
X97094000Y-72538304D01*
X120060500Y-72538304D01*
X120060500Y-72715695D01*
X120095103Y-72889658D01*
X120095106Y-72889667D01*
X120162983Y-73053540D01*
X120162990Y-73053553D01*
X120261535Y-73201034D01*
X120261538Y-73201038D01*
X120386961Y-73326461D01*
X120386965Y-73326464D01*
X120534446Y-73425009D01*
X120534459Y-73425016D01*
X120657363Y-73475923D01*
X120698334Y-73492894D01*
X120698336Y-73492894D01*
X120698341Y-73492896D01*
X120872304Y-73527499D01*
X120872307Y-73527500D01*
X120872309Y-73527500D01*
X121049693Y-73527500D01*
X121049694Y-73527499D01*
X121107682Y-73515964D01*
X121223658Y-73492896D01*
X121223661Y-73492894D01*
X121223666Y-73492894D01*
X121387547Y-73425013D01*
X121535035Y-73326464D01*
X121660464Y-73201035D01*
X121759013Y-73053547D01*
X121826894Y-72889666D01*
X121861500Y-72715691D01*
X121861500Y-72538309D01*
X121861500Y-72538306D01*
X121861499Y-72538304D01*
X121826896Y-72364341D01*
X121826893Y-72364332D01*
X121759016Y-72200459D01*
X121759009Y-72200446D01*
X121660464Y-72052965D01*
X121660461Y-72052961D01*
X121535038Y-71927538D01*
X121535034Y-71927535D01*
X121387553Y-71828990D01*
X121387540Y-71828983D01*
X121223667Y-71761106D01*
X121223658Y-71761103D01*
X121049694Y-71726500D01*
X121049691Y-71726500D01*
X120872309Y-71726500D01*
X120872306Y-71726500D01*
X120698341Y-71761103D01*
X120698332Y-71761106D01*
X120534459Y-71828983D01*
X120534446Y-71828990D01*
X120386965Y-71927535D01*
X120386961Y-71927538D01*
X120261538Y-72052961D01*
X120261535Y-72052965D01*
X120162990Y-72200446D01*
X120162983Y-72200459D01*
X120095106Y-72364332D01*
X120095103Y-72364341D01*
X120060500Y-72538304D01*
X97094000Y-72538304D01*
X97094000Y-70661304D01*
X99599500Y-70661304D01*
X99599500Y-70838695D01*
X99634103Y-71012658D01*
X99634106Y-71012667D01*
X99701983Y-71176540D01*
X99701990Y-71176553D01*
X99800535Y-71324034D01*
X99800538Y-71324038D01*
X99925961Y-71449461D01*
X99925965Y-71449464D01*
X100073446Y-71548009D01*
X100073459Y-71548016D01*
X100171659Y-71588691D01*
X100237334Y-71615894D01*
X100237336Y-71615894D01*
X100237341Y-71615896D01*
X100411304Y-71650499D01*
X100411307Y-71650500D01*
X100411309Y-71650500D01*
X100588693Y-71650500D01*
X100588694Y-71650499D01*
X100679972Y-71632343D01*
X100762658Y-71615896D01*
X100762661Y-71615894D01*
X100762666Y-71615894D01*
X100926547Y-71548013D01*
X100926552Y-71548009D01*
X100928111Y-71547177D01*
X100929027Y-71546986D01*
X100932176Y-71545682D01*
X100932423Y-71546279D01*
X100996513Y-71532935D01*
X101061757Y-71557934D01*
X101103128Y-71614239D01*
X101108182Y-71632343D01*
X101134104Y-71762659D01*
X101134106Y-71762667D01*
X101201983Y-71926540D01*
X101201990Y-71926553D01*
X101300535Y-72074034D01*
X101300538Y-72074038D01*
X101425961Y-72199461D01*
X101425965Y-72199464D01*
X101573446Y-72298009D01*
X101573459Y-72298016D01*
X101696363Y-72348923D01*
X101737334Y-72365894D01*
X101737336Y-72365894D01*
X101737341Y-72365896D01*
X101911304Y-72400499D01*
X101911307Y-72400500D01*
X101911309Y-72400500D01*
X102088693Y-72400500D01*
X102088694Y-72400499D01*
X102146682Y-72388964D01*
X102262658Y-72365896D01*
X102262661Y-72365894D01*
X102262666Y-72365894D01*
X102426547Y-72298013D01*
X102574035Y-72199464D01*
X102699464Y-72074035D01*
X102798013Y-71926547D01*
X102865894Y-71762666D01*
X102865894Y-71762661D01*
X102865896Y-71762658D01*
X102891817Y-71632343D01*
X102900500Y-71588691D01*
X102900500Y-71411309D01*
X102900500Y-71411306D01*
X102900499Y-71411304D01*
X102865896Y-71237341D01*
X102865893Y-71237332D01*
X102798016Y-71073459D01*
X102798009Y-71073446D01*
X102699464Y-70925965D01*
X102699461Y-70925961D01*
X102574038Y-70800538D01*
X102574034Y-70800535D01*
X102426553Y-70701990D01*
X102426540Y-70701983D01*
X102262667Y-70634106D01*
X102262658Y-70634103D01*
X102088694Y-70599500D01*
X102088691Y-70599500D01*
X101911309Y-70599500D01*
X101911306Y-70599500D01*
X101737341Y-70634103D01*
X101737332Y-70634106D01*
X101573450Y-70701987D01*
X101571870Y-70702832D01*
X101570949Y-70703023D01*
X101567824Y-70704318D01*
X101567578Y-70703724D01*
X101503465Y-70717063D01*
X101438225Y-70692052D01*
X101396863Y-70635740D01*
X101391817Y-70617655D01*
X101365896Y-70487341D01*
X101365893Y-70487332D01*
X101298016Y-70323459D01*
X101298009Y-70323446D01*
X101199464Y-70175965D01*
X101199461Y-70175961D01*
X101074038Y-70050538D01*
X101074034Y-70050535D01*
X100926553Y-69951990D01*
X100926540Y-69951983D01*
X100762667Y-69884106D01*
X100762658Y-69884103D01*
X100588694Y-69849500D01*
X100588691Y-69849500D01*
X100411309Y-69849500D01*
X100411306Y-69849500D01*
X100237341Y-69884103D01*
X100237332Y-69884106D01*
X100073459Y-69951983D01*
X100073446Y-69951990D01*
X99925965Y-70050535D01*
X99925961Y-70050538D01*
X99800538Y-70175961D01*
X99800535Y-70175965D01*
X99701990Y-70323446D01*
X99701983Y-70323459D01*
X99634106Y-70487332D01*
X99634103Y-70487341D01*
X99599500Y-70661304D01*
X97094000Y-70661304D01*
X97094000Y-67911304D01*
X119349500Y-67911304D01*
X119349500Y-68088695D01*
X119384103Y-68262658D01*
X119384106Y-68262667D01*
X119451983Y-68426540D01*
X119451990Y-68426553D01*
X119550535Y-68574034D01*
X119550538Y-68574038D01*
X119675961Y-68699461D01*
X119675965Y-68699464D01*
X119823446Y-68798009D01*
X119823459Y-68798016D01*
X119946363Y-68848923D01*
X119987334Y-68865894D01*
X119987336Y-68865894D01*
X119987341Y-68865896D01*
X120161304Y-68900499D01*
X120161307Y-68900500D01*
X120161309Y-68900500D01*
X120338693Y-68900500D01*
X120338694Y-68900499D01*
X120396682Y-68888964D01*
X120512658Y-68865896D01*
X120512661Y-68865894D01*
X120512666Y-68865894D01*
X120676547Y-68798013D01*
X120824035Y-68699464D01*
X120949464Y-68574035D01*
X121048013Y-68426547D01*
X121115894Y-68262666D01*
X121150500Y-68088691D01*
X121150500Y-67911309D01*
X121150500Y-67911306D01*
X121150499Y-67911304D01*
X121115896Y-67737341D01*
X121115893Y-67737332D01*
X121048016Y-67573459D01*
X121048009Y-67573446D01*
X120949464Y-67425965D01*
X120949461Y-67425961D01*
X120824038Y-67300538D01*
X120824034Y-67300535D01*
X120676553Y-67201990D01*
X120676540Y-67201983D01*
X120512667Y-67134106D01*
X120512658Y-67134103D01*
X120338694Y-67099500D01*
X120338691Y-67099500D01*
X120161309Y-67099500D01*
X120161306Y-67099500D01*
X119987341Y-67134103D01*
X119987332Y-67134106D01*
X119823459Y-67201983D01*
X119823446Y-67201990D01*
X119675965Y-67300535D01*
X119675961Y-67300538D01*
X119550538Y-67425961D01*
X119550535Y-67425965D01*
X119451990Y-67573446D01*
X119451983Y-67573459D01*
X119384106Y-67737332D01*
X119384103Y-67737341D01*
X119349500Y-67911304D01*
X97094000Y-67911304D01*
X97094000Y-66679710D01*
X97103439Y-66632256D01*
X97111314Y-66613246D01*
X97205449Y-66302923D01*
X97205451Y-66302913D01*
X97205454Y-66302902D01*
X97237399Y-66142295D01*
X97268714Y-65984868D01*
X97300500Y-65662143D01*
X97300500Y-65337857D01*
X97268714Y-65015132D01*
X97245122Y-64896528D01*
X97205454Y-64697097D01*
X97205451Y-64697086D01*
X97205450Y-64697083D01*
X97205449Y-64697077D01*
X97111314Y-64386754D01*
X97103439Y-64367741D01*
X97094000Y-64320289D01*
X97094000Y-63626000D01*
X97113685Y-63558961D01*
X97166489Y-63513206D01*
X97218000Y-63502000D01*
X128176000Y-63502000D01*
X128243039Y-63521685D01*
G37*
%TD.AperFunction*%
%TA.AperFunction,Conductor*%
G36*
X108544075Y-86192993D02*
G01*
X108609901Y-86307007D01*
X108702993Y-86400099D01*
X108817007Y-86465925D01*
X108880590Y-86482962D01*
X108248282Y-87115269D01*
X108248519Y-87118270D01*
X108234155Y-87186647D01*
X108185105Y-87236404D01*
X108124901Y-87252000D01*
X107426012Y-87252000D01*
X107358973Y-87232315D01*
X107313218Y-87179511D01*
X107303274Y-87110353D01*
X107332299Y-87046797D01*
X107346497Y-87033766D01*
X107346079Y-87033276D01*
X107349786Y-87030108D01*
X107349792Y-87030104D01*
X107500104Y-86879792D01*
X107500106Y-86879788D01*
X107500109Y-86879786D01*
X107585890Y-86761717D01*
X107625051Y-86707816D01*
X107629793Y-86698508D01*
X107677763Y-86647711D01*
X107745583Y-86630911D01*
X107811719Y-86653445D01*
X107850763Y-86698500D01*
X107855373Y-86707547D01*
X107894728Y-86761716D01*
X108527037Y-86129408D01*
X108544075Y-86192993D01*
G37*
%TD.AperFunction*%
%TA.AperFunction,Conductor*%
G36*
X110125270Y-86761717D02*
G01*
X110125270Y-86761716D01*
X110164622Y-86707555D01*
X110169232Y-86698507D01*
X110217205Y-86647709D01*
X110285025Y-86630912D01*
X110351161Y-86653447D01*
X110390204Y-86698504D01*
X110394949Y-86707817D01*
X110519890Y-86879786D01*
X110670209Y-87030105D01*
X110673921Y-87033276D01*
X110672483Y-87034958D01*
X110709539Y-87083010D01*
X110715519Y-87152624D01*
X110682913Y-87214419D01*
X110622075Y-87248777D01*
X110593988Y-87252000D01*
X109895099Y-87252000D01*
X109828060Y-87232315D01*
X109782305Y-87179511D01*
X109771481Y-87118272D01*
X109771717Y-87115270D01*
X109139408Y-86482962D01*
X109202993Y-86465925D01*
X109317007Y-86400099D01*
X109410099Y-86307007D01*
X109475925Y-86192993D01*
X109492962Y-86129408D01*
X110125270Y-86761717D01*
G37*
%TD.AperFunction*%
%TD*%
M02*
