%TF.GenerationSoftware,KiCad,Pcbnew,9.0.3*%
%TF.CreationDate,2026-01-02T19:57:44-06:00*%
%TF.ProjectId,IsolatedADSandVoltmeterPCB,49736f6c-6174-4656-9441-4453616e6456,rev?*%
%TF.SameCoordinates,Original*%
%TF.FileFunction,Copper,L1,Top*%
%TF.FilePolarity,Positive*%
%FSLAX46Y46*%
G04 Gerber Fmt 4.6, Leading zero omitted, Abs format (unit mm)*
G04 Created by KiCad (PCBNEW 9.0.3) date 2026-01-02 19:57:44*
%MOMM*%
%LPD*%
G01*
G04 APERTURE LIST*
G04 Aperture macros list*
%AMRoundRect*
0 Rectangle with rounded corners*
0 $1 Rounding radius*
0 $2 $3 $4 $5 $6 $7 $8 $9 X,Y pos of 4 corners*
0 Add a 4 corners polygon primitive as box body*
4,1,4,$2,$3,$4,$5,$6,$7,$8,$9,$2,$3,0*
0 Add four circle primitives for the rounded corners*
1,1,$1+$1,$2,$3*
1,1,$1+$1,$4,$5*
1,1,$1+$1,$6,$7*
1,1,$1+$1,$8,$9*
0 Add four rect primitives between the rounded corners*
20,1,$1+$1,$2,$3,$4,$5,0*
20,1,$1+$1,$4,$5,$6,$7,0*
20,1,$1+$1,$6,$7,$8,$9,0*
20,1,$1+$1,$8,$9,$2,$3,0*%
G04 Aperture macros list end*
%TA.AperFunction,ConnectorPad*%
%ADD10C,5.600000*%
%TD*%
%TA.AperFunction,ComponentPad*%
%ADD11C,3.600000*%
%TD*%
%TA.AperFunction,ComponentPad*%
%ADD12R,1.700000X1.700000*%
%TD*%
%TA.AperFunction,ComponentPad*%
%ADD13C,1.700000*%
%TD*%
%TA.AperFunction,SMDPad,CuDef*%
%ADD14RoundRect,0.250000X-0.350000X-0.450000X0.350000X-0.450000X0.350000X0.450000X-0.350000X0.450000X0*%
%TD*%
%TA.AperFunction,SMDPad,CuDef*%
%ADD15RoundRect,0.250000X-0.450000X0.350000X-0.450000X-0.350000X0.450000X-0.350000X0.450000X0.350000X0*%
%TD*%
%TA.AperFunction,SMDPad,CuDef*%
%ADD16RoundRect,0.225000X0.225000X0.375000X-0.225000X0.375000X-0.225000X-0.375000X0.225000X-0.375000X0*%
%TD*%
%TA.AperFunction,SMDPad,CuDef*%
%ADD17R,1.100000X0.250000*%
%TD*%
%TA.AperFunction,ComponentPad*%
%ADD18C,1.500000*%
%TD*%
%TA.AperFunction,SMDPad,CuDef*%
%ADD19RoundRect,0.150000X-0.825000X-0.150000X0.825000X-0.150000X0.825000X0.150000X-0.825000X0.150000X0*%
%TD*%
%TA.AperFunction,ComponentPad*%
%ADD20RoundRect,0.250000X-1.050000X-1.050000X1.050000X-1.050000X1.050000X1.050000X-1.050000X1.050000X0*%
%TD*%
%TA.AperFunction,ComponentPad*%
%ADD21C,2.600000*%
%TD*%
%TA.AperFunction,SMDPad,CuDef*%
%ADD22RoundRect,0.250000X0.350000X0.450000X-0.350000X0.450000X-0.350000X-0.450000X0.350000X-0.450000X0*%
%TD*%
%TA.AperFunction,SMDPad,CuDef*%
%ADD23RoundRect,0.250000X-0.475000X0.337500X-0.475000X-0.337500X0.475000X-0.337500X0.475000X0.337500X0*%
%TD*%
%TA.AperFunction,SMDPad,CuDef*%
%ADD24RoundRect,0.150000X0.625000X-0.150000X0.625000X0.150000X-0.625000X0.150000X-0.625000X-0.150000X0*%
%TD*%
%TA.AperFunction,SMDPad,CuDef*%
%ADD25RoundRect,0.250000X0.650000X-0.350000X0.650000X0.350000X-0.650000X0.350000X-0.650000X-0.350000X0*%
%TD*%
%TA.AperFunction,SMDPad,CuDef*%
%ADD26RoundRect,0.150000X-0.625000X0.150000X-0.625000X-0.150000X0.625000X-0.150000X0.625000X0.150000X0*%
%TD*%
%TA.AperFunction,SMDPad,CuDef*%
%ADD27RoundRect,0.250000X-0.650000X0.350000X-0.650000X-0.350000X0.650000X-0.350000X0.650000X0.350000X0*%
%TD*%
%TA.AperFunction,SMDPad,CuDef*%
%ADD28RoundRect,0.250000X0.450000X-0.350000X0.450000X0.350000X-0.450000X0.350000X-0.450000X-0.350000X0*%
%TD*%
%TA.AperFunction,SMDPad,CuDef*%
%ADD29RoundRect,0.250000X-0.337500X-0.475000X0.337500X-0.475000X0.337500X0.475000X-0.337500X0.475000X0*%
%TD*%
%TA.AperFunction,SMDPad,CuDef*%
%ADD30RoundRect,0.250000X0.337500X0.475000X-0.337500X0.475000X-0.337500X-0.475000X0.337500X-0.475000X0*%
%TD*%
%TA.AperFunction,SMDPad,CuDef*%
%ADD31RoundRect,0.225000X-0.225000X-0.375000X0.225000X-0.375000X0.225000X0.375000X-0.225000X0.375000X0*%
%TD*%
%TA.AperFunction,ViaPad*%
%ADD32C,0.600000*%
%TD*%
%TA.AperFunction,Conductor*%
%ADD33C,0.200000*%
%TD*%
G04 APERTURE END LIST*
D10*
%TO.P,H2,1*%
%TO.N,N/C*%
X146050000Y-38100000D03*
D11*
X146050000Y-38100000D03*
%TD*%
D12*
%TO.P,J2,1,Pin_1*%
%TO.N,5V-iso*%
X147320000Y-52070000D03*
D13*
%TO.P,J2,2,Pin_2*%
%TO.N,Gnd-iso*%
X147320000Y-54610000D03*
%TO.P,J2,3,Pin_3*%
%TO.N,/AIN3*%
X147320000Y-57150000D03*
%TO.P,J2,4,Pin_4*%
%TO.N,/AIN2*%
X147320000Y-59690000D03*
%TO.P,J2,5,Pin_5*%
%TO.N,/AIN1*%
X147320000Y-62230000D03*
%TO.P,J2,6,Pin_6*%
%TO.N,/AIN0*%
X147320000Y-64770000D03*
%TD*%
D12*
%TO.P,J1,1,Pin_1*%
%TO.N,VDD*%
X127000000Y-52070000D03*
D13*
%TO.P,J1,2,Pin_2*%
%TO.N,GND*%
X127000000Y-54610000D03*
%TO.P,J1,3,Pin_3*%
%TO.N,SDA*%
X127000000Y-57150000D03*
%TO.P,J1,4,Pin_4*%
%TO.N,SCL*%
X127000000Y-59690000D03*
%TD*%
D14*
%TO.P,R7,1*%
%TO.N,5V-iso*%
X138065000Y-53340000D03*
%TO.P,R7,2*%
%TO.N,ADS_ALERT*%
X140065000Y-53340000D03*
%TD*%
D15*
%TO.P,R12,1*%
%TO.N,ADS_ADDR*%
X143510000Y-63770000D03*
%TO.P,R12,2*%
%TO.N,Gnd-iso*%
X143510000Y-65770000D03*
%TD*%
D16*
%TO.P,D4,1,K*%
%TO.N,5V-iso*%
X147700000Y-72390000D03*
%TO.P,D4,2,A*%
%TO.N,/AIN3*%
X144400000Y-72390000D03*
%TD*%
D17*
%TO.P,U3,1,ADDR*%
%TO.N,ADS_ADDR*%
X140580000Y-60690000D03*
%TO.P,U3,2,ALERT/RDY*%
%TO.N,ADS_ALERT*%
X140580000Y-60190000D03*
%TO.P,U3,3,GND*%
%TO.N,Gnd-iso*%
X140580000Y-59690000D03*
%TO.P,U3,4,AIN0*%
%TO.N,/AIN0*%
X140580000Y-59190000D03*
%TO.P,U3,5,AIN1*%
%TO.N,/AIN1*%
X140580000Y-58690000D03*
%TO.P,U3,6,AIN2*%
%TO.N,/AIN2*%
X136280000Y-58690000D03*
%TO.P,U3,7,AIN3*%
%TO.N,/AIN3*%
X136280000Y-59190000D03*
%TO.P,U3,8,VDD*%
%TO.N,5V-iso*%
X136280000Y-59690000D03*
%TO.P,U3,9,SDA*%
%TO.N,SDA-5V*%
X136280000Y-60190000D03*
%TO.P,U3,10,SCL*%
%TO.N,SCL-5V*%
X136280000Y-60690000D03*
%TD*%
D18*
%TO.P,U14,1,VIN-*%
%TO.N,GND*%
X133350000Y-39830000D03*
%TO.P,U14,2,VIN+*%
%TO.N,VDD*%
X135890000Y-39830000D03*
%TO.P,U14,3,Vout-*%
%TO.N,Gnd-iso*%
X138430000Y-39830000D03*
%TO.P,U14,4,Vout+*%
%TO.N,5V-iso*%
X140970000Y-39830000D03*
%TD*%
D19*
%TO.P,U13,1,VCC1*%
%TO.N,VDD*%
X134685000Y-43815000D03*
%TO.P,U13,2,SDA1*%
%TO.N,SDA*%
X134685000Y-45085000D03*
%TO.P,U13,3,SCL1*%
%TO.N,SCL*%
X134685000Y-46355000D03*
%TO.P,U13,4,GND1*%
%TO.N,GND*%
X134685000Y-47625000D03*
%TO.P,U13,5,GND2*%
%TO.N,Gnd-iso*%
X139635000Y-47625000D03*
%TO.P,U13,6,SCL2*%
%TO.N,SCL-5V*%
X139635000Y-46355000D03*
%TO.P,U13,7,SDA2*%
%TO.N,SDA-5V*%
X139635000Y-45085000D03*
%TO.P,U13,8,VCC2*%
%TO.N,5V-iso*%
X139635000Y-43815000D03*
%TD*%
D11*
%TO.P,H1,1*%
%TO.N,N/C*%
X128270000Y-38100000D03*
D10*
X128270000Y-38100000D03*
%TD*%
D20*
%TO.P,J15,1,Pin_1*%
%TO.N,Net-(J15-Pin_1)*%
X134615000Y-75146250D03*
D21*
%TO.P,J15,2,Pin_2*%
%TO.N,Net-(J15-Pin_2)*%
X139695000Y-75146250D03*
%TD*%
D22*
%TO.P,R24,1*%
%TO.N,/AIN3*%
X138160000Y-63230000D03*
%TO.P,R24,2*%
%TO.N,/AIN2*%
X136160000Y-63230000D03*
%TD*%
D23*
%TO.P,C8,1*%
%TO.N,VDD*%
X130302000Y-56620500D03*
%TO.P,C8,2*%
%TO.N,GND*%
X130302000Y-58695500D03*
%TD*%
D24*
%TO.P,J4,1,Pin_1*%
%TO.N,Gnd-iso*%
X143415000Y-47220000D03*
%TO.P,J4,2,Pin_2*%
%TO.N,5V-iso*%
X143415000Y-46220000D03*
%TO.P,J4,3,Pin_3*%
%TO.N,SDA-5V*%
X143415000Y-45220000D03*
%TO.P,J4,4,Pin_4*%
%TO.N,SCL-5V*%
X143415000Y-44220000D03*
D25*
%TO.P,J4,MP,MountPin*%
%TO.N,unconnected-(J4-MountPin-PadMP)*%
X147290000Y-48520000D03*
X147290000Y-42920000D03*
%TD*%
D26*
%TO.P,J5,1,Pin_1*%
%TO.N,GND*%
X130905000Y-64540000D03*
%TO.P,J5,2,Pin_2*%
%TO.N,VDD*%
X130905000Y-65540000D03*
%TO.P,J5,3,Pin_3*%
%TO.N,SDA*%
X130905000Y-66540000D03*
%TO.P,J5,4,Pin_4*%
%TO.N,SCL*%
X130905000Y-67540000D03*
D27*
%TO.P,J5,MP,MountPin*%
%TO.N,unconnected-(J5-MountPin-PadMP)*%
X127030000Y-63240000D03*
X127030000Y-68840000D03*
%TD*%
D28*
%TO.P,R18,1*%
%TO.N,Net-(J15-Pin_1)*%
X134620000Y-67405000D03*
%TO.P,R18,2*%
%TO.N,/AIN2*%
X134620000Y-65405000D03*
%TD*%
D11*
%TO.P,H4,1*%
%TO.N,N/C*%
X146045000Y-78105000D03*
D10*
X146045000Y-78105000D03*
%TD*%
D29*
%TO.P,C7,1*%
%TO.N,5V-iso*%
X138027500Y-50800000D03*
%TO.P,C7,2*%
%TO.N,Gnd-iso*%
X140102500Y-50800000D03*
%TD*%
D26*
%TO.P,J3,1,Pin_1*%
%TO.N,GND*%
X130875000Y-44480000D03*
%TO.P,J3,2,Pin_2*%
%TO.N,VDD*%
X130875000Y-45480000D03*
%TO.P,J3,3,Pin_3*%
%TO.N,SDA*%
X130875000Y-46480000D03*
%TO.P,J3,4,Pin_4*%
%TO.N,SCL*%
X130875000Y-47480000D03*
D27*
%TO.P,J3,MP,MountPin*%
%TO.N,unconnected-(J3-MountPin-PadMP)*%
X127000000Y-43180000D03*
X127000000Y-48780000D03*
%TD*%
D30*
%TO.P,C4,1*%
%TO.N,Gnd-iso*%
X139467500Y-55880000D03*
%TO.P,C4,2*%
%TO.N,5V-iso*%
X137392500Y-55880000D03*
%TD*%
D28*
%TO.P,R17,1*%
%TO.N,Net-(J15-Pin_2)*%
X139700000Y-67405000D03*
%TO.P,R17,2*%
%TO.N,/AIN3*%
X139700000Y-65405000D03*
%TD*%
D14*
%TO.P,R1,1*%
%TO.N,VDD*%
X130318000Y-53340000D03*
%TO.P,R1,2*%
%TO.N,SDA*%
X132318000Y-53340000D03*
%TD*%
D15*
%TO.P,R6,1*%
%TO.N,5V-iso*%
X144145000Y-55642000D03*
%TO.P,R6,2*%
%TO.N,SDA-5V*%
X144145000Y-57642000D03*
%TD*%
D31*
%TO.P,D5,1,K*%
%TO.N,/AIN3*%
X144400000Y-69215000D03*
%TO.P,D5,2,A*%
%TO.N,Gnd-iso*%
X147700000Y-69215000D03*
%TD*%
D11*
%TO.P,H3,1*%
%TO.N,N/C*%
X128270000Y-78105000D03*
D10*
X128270000Y-78105000D03*
%TD*%
D15*
%TO.P,R5,1*%
%TO.N,5V-iso*%
X144145000Y-51340000D03*
%TO.P,R5,2*%
%TO.N,SCL-5V*%
X144145000Y-53340000D03*
%TD*%
D14*
%TO.P,R2,1*%
%TO.N,VDD*%
X130318000Y-51036000D03*
%TO.P,R2,2*%
%TO.N,SCL*%
X132318000Y-51036000D03*
%TD*%
D32*
%TO.N,SCL-5V*%
X142875000Y-52070000D03*
%TO.N,ADS_ALERT*%
X142133235Y-60431765D03*
X143510000Y-59055000D03*
%TO.N,Gnd-iso*%
X139170615Y-59670913D03*
X142240000Y-64770000D03*
%TO.N,5V-iso*%
X142875000Y-55880000D03*
%TO.N,SCL-5V*%
X142875000Y-54610000D03*
%TO.N,SDA-5V*%
X145415000Y-59055000D03*
%TO.N,/AIN2*%
X138430000Y-58420000D03*
%TO.N,5V-iso*%
X146685000Y-72390000D03*
%TO.N,Gnd-iso*%
X146685000Y-69215000D03*
%TO.N,SCL-5V*%
X137160000Y-61595000D03*
%TO.N,SDA-5V*%
X137234369Y-60270913D03*
%TO.N,5V-iso*%
X135230110Y-60325524D03*
%TO.N,Gnd-iso*%
X140970000Y-55880000D03*
X139700000Y-49530000D03*
%TO.N,5V-iso*%
X138430000Y-49530000D03*
%TO.N,SCL-5V*%
X145415000Y-45085000D03*
X141605000Y-46355000D03*
%TO.N,5V-iso*%
X145415000Y-46355000D03*
%TO.N,Gnd-iso*%
X145415000Y-47625000D03*
X137795000Y-47625000D03*
%TO.N,5V-iso*%
X137795000Y-43815000D03*
%TO.N,VDD*%
X129540000Y-66040000D03*
%TO.N,GND*%
X129540000Y-64770000D03*
%TO.N,SCL*%
X132203000Y-49407000D03*
%TO.N,VDD*%
X129540000Y-45720000D03*
X133350000Y-42545000D03*
%TO.N,GND*%
X133985000Y-48895000D03*
X129540000Y-44450000D03*
X132080000Y-58949500D03*
%TO.N,VDD*%
X131931500Y-55753000D03*
%TO.N,/AIN3*%
X140271500Y-57721500D03*
%TD*%
D33*
%TO.N,unconnected-(J5-MountPin-PadMP)*%
X127030000Y-63240000D02*
X127030000Y-68840000D01*
%TO.N,unconnected-(J4-MountPin-PadMP)*%
X147290000Y-42920000D02*
X147290000Y-48520000D01*
%TO.N,unconnected-(J3-MountPin-PadMP)*%
X127000000Y-43180000D02*
X127000000Y-48780000D01*
%TO.N,SDA-5V*%
X142240000Y-45978032D02*
X142998032Y-45220000D01*
X142998032Y-45220000D02*
X143415000Y-45220000D01*
X142240000Y-56864000D02*
X142240000Y-45978032D01*
X143018000Y-57642000D02*
X142240000Y-56864000D01*
X144145000Y-57642000D02*
X143018000Y-57642000D01*
%TO.N,SCL-5V*%
X142875000Y-52070000D02*
X144145000Y-53340000D01*
X144145000Y-53340000D02*
X142875000Y-54610000D01*
%TO.N,ADS_ALERT*%
X141605000Y-53975000D02*
X140970000Y-53340000D01*
X143510000Y-59055000D02*
X141605000Y-57150000D01*
X141605000Y-57150000D02*
X141605000Y-53975000D01*
X140970000Y-53340000D02*
X140065000Y-53340000D01*
X141891470Y-60190000D02*
X142133235Y-60431765D01*
X140580000Y-60190000D02*
X141891470Y-60190000D01*
%TO.N,/AIN1*%
X141875000Y-58690000D02*
X140580000Y-58690000D01*
X145415000Y-62230000D02*
X141875000Y-58690000D01*
X147320000Y-62230000D02*
X145415000Y-62230000D01*
%TO.N,Gnd-iso*%
X139151528Y-59690000D02*
X139170615Y-59670913D01*
X140580000Y-59690000D02*
X139151528Y-59690000D01*
X143240000Y-65770000D02*
X142240000Y-64770000D01*
X143510000Y-65770000D02*
X143240000Y-65770000D01*
%TO.N,ADS_ADDR*%
X140580000Y-60840000D02*
X143510000Y-63770000D01*
X140580000Y-60690000D02*
X140580000Y-60840000D01*
%TO.N,5V-iso*%
X143113000Y-55642000D02*
X142875000Y-55880000D01*
X144145000Y-55642000D02*
X143113000Y-55642000D01*
%TO.N,SDA-5V*%
X144145000Y-57785000D02*
X145415000Y-59055000D01*
X144145000Y-57642000D02*
X144145000Y-57785000D01*
%TO.N,/AIN2*%
X137795000Y-58420000D02*
X138430000Y-58420000D01*
X137525000Y-58690000D02*
X137795000Y-58420000D01*
X136280000Y-58690000D02*
X137525000Y-58690000D01*
%TO.N,/AIN0*%
X141740000Y-59190000D02*
X140580000Y-59190000D01*
X147320000Y-64770000D02*
X141740000Y-59190000D01*
%TO.N,5V-iso*%
X147700000Y-72390000D02*
X146685000Y-72390000D01*
%TO.N,Gnd-iso*%
X147700000Y-69215000D02*
X146685000Y-69215000D01*
%TO.N,/AIN3*%
X144400000Y-69215000D02*
X144400000Y-72390000D01*
X140590000Y-65405000D02*
X144400000Y-69215000D01*
X139700000Y-65405000D02*
X140590000Y-65405000D01*
%TO.N,SCL-5V*%
X136280000Y-60715000D02*
X137160000Y-61595000D01*
X136280000Y-60690000D02*
X136280000Y-60715000D01*
%TO.N,SDA-5V*%
X137214087Y-60270913D02*
X137234369Y-60270913D01*
X137160000Y-60325000D02*
X137214087Y-60270913D01*
X137025000Y-60190000D02*
X137160000Y-60325000D01*
X136280000Y-60190000D02*
X137025000Y-60190000D01*
%TO.N,5V-iso*%
X135230634Y-60325000D02*
X135230110Y-60325524D01*
X135255000Y-60325000D02*
X135230634Y-60325000D01*
X135255000Y-59938000D02*
X135255000Y-60325000D01*
X135503000Y-59690000D02*
X135255000Y-59938000D01*
X136280000Y-59690000D02*
X135503000Y-59690000D01*
%TO.N,/AIN2*%
X134620000Y-59573000D02*
X134620000Y-61690000D01*
X134620000Y-61690000D02*
X136160000Y-63230000D01*
X136280000Y-58690000D02*
X135503000Y-58690000D01*
X135503000Y-58690000D02*
X134620000Y-59573000D01*
%TO.N,/AIN3*%
X138160000Y-60055000D02*
X138160000Y-63230000D01*
X137295000Y-59190000D02*
X138160000Y-60055000D01*
X136280000Y-59190000D02*
X137295000Y-59190000D01*
%TO.N,5V-iso*%
X138027500Y-55245000D02*
X137392500Y-55880000D01*
X138027500Y-50800000D02*
X138027500Y-55245000D01*
%TO.N,Gnd-iso*%
X139467500Y-55880000D02*
X140970000Y-55880000D01*
X140102500Y-49932500D02*
X139700000Y-49530000D01*
X140102500Y-50800000D02*
X140102500Y-49932500D01*
%TO.N,5V-iso*%
X138027500Y-49932500D02*
X138430000Y-49530000D01*
X138027500Y-50800000D02*
X138027500Y-49932500D01*
X144875000Y-52070000D02*
X144145000Y-51340000D01*
X147320000Y-52070000D02*
X144875000Y-52070000D01*
%TO.N,SCL-5V*%
X144550000Y-44220000D02*
X145415000Y-45085000D01*
X143415000Y-44220000D02*
X144550000Y-44220000D01*
X139635000Y-46355000D02*
X141605000Y-46355000D01*
%TO.N,SDA-5V*%
X139635000Y-45085000D02*
X143280000Y-45085000D01*
X143280000Y-45085000D02*
X143415000Y-45220000D01*
%TO.N,5V-iso*%
X145280000Y-46220000D02*
X145415000Y-46355000D01*
X143415000Y-46220000D02*
X145280000Y-46220000D01*
%TO.N,Gnd-iso*%
X145010000Y-47220000D02*
X145415000Y-47625000D01*
X143415000Y-47220000D02*
X145010000Y-47220000D01*
X139635000Y-47625000D02*
X137795000Y-47625000D01*
%TO.N,5V-iso*%
X139635000Y-43815000D02*
X137795000Y-43815000D01*
%TO.N,SCL*%
X128504000Y-66421043D02*
X129622957Y-67540000D01*
X129622957Y-67540000D02*
X130905000Y-67540000D01*
X128504000Y-61829000D02*
X128504000Y-66421043D01*
X126365000Y-59690000D02*
X128504000Y-61829000D01*
%TO.N,SDA*%
X128905000Y-59690000D02*
X126365000Y-57150000D01*
X129291057Y-66641000D02*
X128905000Y-66254943D01*
X128905000Y-66254943D02*
X128905000Y-59690000D01*
X130804000Y-66641000D02*
X129291057Y-66641000D01*
X130905000Y-66540000D02*
X130804000Y-66641000D01*
%TO.N,VDD*%
X130040000Y-65540000D02*
X129540000Y-66040000D01*
X130905000Y-65540000D02*
X130040000Y-65540000D01*
%TO.N,GND*%
X129770000Y-64540000D02*
X129540000Y-64770000D01*
X130905000Y-64540000D02*
X129770000Y-64540000D01*
%TO.N,SCL*%
X132203000Y-49407000D02*
X130875000Y-48079000D01*
%TO.N,SDA*%
X128270000Y-55245000D02*
X126365000Y-57150000D01*
X132318000Y-53340000D02*
X130413000Y-55245000D01*
X130413000Y-55245000D02*
X128270000Y-55245000D01*
%TO.N,SCL*%
X132510132Y-47480000D02*
X130875000Y-47480000D01*
X133635132Y-46355000D02*
X132510132Y-47480000D01*
X134685000Y-46355000D02*
X133635132Y-46355000D01*
%TO.N,SDA*%
X134338032Y-45085000D02*
X134685000Y-45085000D01*
X132943032Y-46480000D02*
X134338032Y-45085000D01*
X130875000Y-46480000D02*
X132943032Y-46480000D01*
%TO.N,VDD*%
X129780000Y-45480000D02*
X129540000Y-45720000D01*
X130875000Y-45480000D02*
X129780000Y-45480000D01*
X133415000Y-42545000D02*
X133350000Y-42545000D01*
X134685000Y-43815000D02*
X133415000Y-42545000D01*
%TO.N,GND*%
X133985000Y-48325000D02*
X133985000Y-48895000D01*
X134685000Y-47625000D02*
X133985000Y-48325000D01*
X129570000Y-44480000D02*
X129540000Y-44450000D01*
X130875000Y-44480000D02*
X129570000Y-44480000D01*
%TO.N,SDA*%
X129997001Y-46480000D02*
X130875000Y-46480000D01*
X129448000Y-47029001D02*
X129997001Y-46480000D01*
X131417000Y-50350840D02*
X129448000Y-48381840D01*
X131417000Y-52439000D02*
X131417000Y-50350840D01*
X129448000Y-48381840D02*
X129448000Y-47029001D01*
X132318000Y-53340000D02*
X131417000Y-52439000D01*
%TO.N,SCL*%
X130875000Y-48079000D02*
X130875000Y-47480000D01*
X132318000Y-49522000D02*
X132203000Y-49407000D01*
X132318000Y-51036000D02*
X132318000Y-49522000D01*
%TO.N,GND*%
X130302000Y-58695500D02*
X131826000Y-58695500D01*
X131826000Y-58695500D02*
X132080000Y-58949500D01*
%TO.N,VDD*%
X128034000Y-51036000D02*
X127000000Y-52070000D01*
X131169500Y-55753000D02*
X130302000Y-56620500D01*
X130318000Y-51036000D02*
X128034000Y-51036000D01*
X130318000Y-51036000D02*
X130318000Y-53086000D01*
X131931500Y-55753000D02*
X131169500Y-55753000D01*
%TO.N,/AIN3*%
X138160000Y-63230000D02*
X139700000Y-64770000D01*
X139700000Y-64770000D02*
X139700000Y-65405000D01*
%TO.N,/AIN2*%
X134620000Y-65405000D02*
X134620000Y-64770000D01*
X134620000Y-64770000D02*
X136160000Y-63230000D01*
%TO.N,Net-(J15-Pin_2)*%
X139695000Y-67093750D02*
X139700000Y-67088750D01*
X139695000Y-75146250D02*
X139695000Y-67093750D01*
%TO.N,Net-(J15-Pin_1)*%
X134615000Y-67093750D02*
X134620000Y-67088750D01*
X134615000Y-75146250D02*
X134615000Y-67093750D01*
%TO.N,/AIN3*%
X140271500Y-57721500D02*
X138160000Y-59833000D01*
X138160000Y-59833000D02*
X138160000Y-60055000D01*
%TD*%
M02*
