M48
; DRILL file {KiCad 9.0.3} date 2026-01-02T19:57:50-0600
; FORMAT={-:-/ absolute / inch / decimal}
; #@! TF.CreationDate,2026-01-02T19:57:50-06:00
; #@! TF.GenerationSoftware,Kicad,Pcbnew,9.0.3
; #@! TF.FileFunction,Plated,1,4,PTH
FMAT,2
INCH
; #@! TA.AperFunction,Plated,PTH,ViaDrill
T1C0.0118
; #@! TA.AperFunction,Plated,PTH,ComponentDrill
T2C0.0315
; #@! TA.AperFunction,Plated,PTH,ComponentDrill
T3C0.0394
; #@! TA.AperFunction,Plated,PTH,ComponentDrill
T4C0.0512
; #@! TA.AperFunction,Plated,PTH,ComponentDrill
T5C0.1260
%
G90
G05
T1
X5.1Y-1.75
X5.1Y-1.8
X5.1Y-2.55
X5.1Y-2.6
X5.1942Y-2.195
X5.2Y-2.3208
X5.2048Y-1.9452
X5.25Y-1.675
X5.275Y-1.925
X5.324Y-2.375
X5.4Y-2.425
X5.4029Y-2.3729
X5.425Y-1.725
X5.425Y-1.875
X5.45Y-1.95
X5.45Y-2.3
X5.4792Y-2.3492
X5.5Y-1.95
X5.5225Y-2.2725
X5.55Y-2.2
X5.575Y-1.825
X5.5958Y-2.3792
X5.6Y-2.55
X5.625Y-2.05
X5.625Y-2.15
X5.625Y-2.2
X5.65Y-2.325
X5.725Y-1.775
X5.725Y-1.825
X5.725Y-1.875
X5.725Y-2.325
X5.775Y-2.725
X5.775Y-2.85
T2
X5.25Y-1.5681
X5.35Y-1.5681
X5.45Y-1.5681
X5.55Y-1.5681
T3
X5.0Y-2.05
X5.0Y-2.15
X5.0Y-2.25
X5.0Y-2.35
X5.8Y-2.05
X5.8Y-2.15
X5.8Y-2.25
X5.8Y-2.35
X5.8Y-2.45
X5.8Y-2.55
T4
X5.2998Y-2.9585
X5.4998Y-2.9585
T5
X5.05Y-1.5
X5.05Y-3.075
X5.7498Y-3.075
X5.75Y-1.5
M30
