%TF.GenerationSoftware,KiCad,Pcbnew,9.0.3*%
%TF.CreationDate,2026-01-02T19:57:45-06:00*%
%TF.ProjectId,IsolatedADSandVoltmeterPCB,49736f6c-6174-4656-9441-4453616e6456,rev?*%
%TF.SameCoordinates,Original*%
%TF.FileFunction,Legend,Bot*%
%TF.FilePolarity,Positive*%
%FSLAX46Y46*%
G04 Gerber Fmt 4.6, Leading zero omitted, Abs format (unit mm)*
G04 Created by KiCad (PCBNEW 9.0.3) date 2026-01-02 19:57:45*
%MOMM*%
%LPD*%
G01*
G04 APERTURE LIST*
%ADD10C,0.100000*%
G04 APERTURE END LIST*
D10*
X130807734Y-57482800D02*
X130664877Y-57530419D01*
X130664877Y-57530419D02*
X130426782Y-57530419D01*
X130426782Y-57530419D02*
X130331544Y-57482800D01*
X130331544Y-57482800D02*
X130283925Y-57435180D01*
X130283925Y-57435180D02*
X130236306Y-57339942D01*
X130236306Y-57339942D02*
X130236306Y-57244704D01*
X130236306Y-57244704D02*
X130283925Y-57149466D01*
X130283925Y-57149466D02*
X130331544Y-57101847D01*
X130331544Y-57101847D02*
X130426782Y-57054228D01*
X130426782Y-57054228D02*
X130617258Y-57006609D01*
X130617258Y-57006609D02*
X130712496Y-56958990D01*
X130712496Y-56958990D02*
X130760115Y-56911371D01*
X130760115Y-56911371D02*
X130807734Y-56816133D01*
X130807734Y-56816133D02*
X130807734Y-56720895D01*
X130807734Y-56720895D02*
X130760115Y-56625657D01*
X130760115Y-56625657D02*
X130712496Y-56578038D01*
X130712496Y-56578038D02*
X130617258Y-56530419D01*
X130617258Y-56530419D02*
X130379163Y-56530419D01*
X130379163Y-56530419D02*
X130236306Y-56578038D01*
X129807734Y-57530419D02*
X129807734Y-56530419D01*
X129807734Y-56530419D02*
X129569639Y-56530419D01*
X129569639Y-56530419D02*
X129426782Y-56578038D01*
X129426782Y-56578038D02*
X129331544Y-56673276D01*
X129331544Y-56673276D02*
X129283925Y-56768514D01*
X129283925Y-56768514D02*
X129236306Y-56958990D01*
X129236306Y-56958990D02*
X129236306Y-57101847D01*
X129236306Y-57101847D02*
X129283925Y-57292323D01*
X129283925Y-57292323D02*
X129331544Y-57387561D01*
X129331544Y-57387561D02*
X129426782Y-57482800D01*
X129426782Y-57482800D02*
X129569639Y-57530419D01*
X129569639Y-57530419D02*
X129807734Y-57530419D01*
X128855353Y-57244704D02*
X128379163Y-57244704D01*
X128950591Y-57530419D02*
X128617258Y-56530419D01*
X128617258Y-56530419D02*
X128283925Y-57530419D01*
X145793734Y-62705704D02*
X145317544Y-62705704D01*
X145888972Y-62991419D02*
X145555639Y-61991419D01*
X145555639Y-61991419D02*
X145222306Y-62991419D01*
X144365163Y-62991419D02*
X144936591Y-62991419D01*
X144650877Y-62991419D02*
X144650877Y-61991419D01*
X144650877Y-61991419D02*
X144746115Y-62134276D01*
X144746115Y-62134276D02*
X144841353Y-62229514D01*
X144841353Y-62229514D02*
X144936591Y-62277133D01*
X145793734Y-57371704D02*
X145317544Y-57371704D01*
X145888972Y-57657419D02*
X145555639Y-56657419D01*
X145555639Y-56657419D02*
X145222306Y-57657419D01*
X144984210Y-56657419D02*
X144365163Y-56657419D01*
X144365163Y-56657419D02*
X144698496Y-57038371D01*
X144698496Y-57038371D02*
X144555639Y-57038371D01*
X144555639Y-57038371D02*
X144460401Y-57085990D01*
X144460401Y-57085990D02*
X144412782Y-57133609D01*
X144412782Y-57133609D02*
X144365163Y-57228847D01*
X144365163Y-57228847D02*
X144365163Y-57466942D01*
X144365163Y-57466942D02*
X144412782Y-57562180D01*
X144412782Y-57562180D02*
X144460401Y-57609800D01*
X144460401Y-57609800D02*
X144555639Y-57657419D01*
X144555639Y-57657419D02*
X144841353Y-57657419D01*
X144841353Y-57657419D02*
X144936591Y-57609800D01*
X144936591Y-57609800D02*
X144984210Y-57562180D01*
X143507734Y-43569760D02*
X143031544Y-43569760D01*
X143602972Y-43855475D02*
X143269639Y-42855475D01*
X143269639Y-42855475D02*
X142936306Y-43855475D01*
X142602972Y-43855475D02*
X142602972Y-42855475D01*
X142602972Y-42855475D02*
X142364877Y-42855475D01*
X142364877Y-42855475D02*
X142222020Y-42903094D01*
X142222020Y-42903094D02*
X142126782Y-42998332D01*
X142126782Y-42998332D02*
X142079163Y-43093570D01*
X142079163Y-43093570D02*
X142031544Y-43284046D01*
X142031544Y-43284046D02*
X142031544Y-43426903D01*
X142031544Y-43426903D02*
X142079163Y-43617379D01*
X142079163Y-43617379D02*
X142126782Y-43712617D01*
X142126782Y-43712617D02*
X142222020Y-43807856D01*
X142222020Y-43807856D02*
X142364877Y-43855475D01*
X142364877Y-43855475D02*
X142602972Y-43855475D01*
X141650591Y-43807856D02*
X141507734Y-43855475D01*
X141507734Y-43855475D02*
X141269639Y-43855475D01*
X141269639Y-43855475D02*
X141174401Y-43807856D01*
X141174401Y-43807856D02*
X141126782Y-43760236D01*
X141126782Y-43760236D02*
X141079163Y-43664998D01*
X141079163Y-43664998D02*
X141079163Y-43569760D01*
X141079163Y-43569760D02*
X141126782Y-43474522D01*
X141126782Y-43474522D02*
X141174401Y-43426903D01*
X141174401Y-43426903D02*
X141269639Y-43379284D01*
X141269639Y-43379284D02*
X141460115Y-43331665D01*
X141460115Y-43331665D02*
X141555353Y-43284046D01*
X141555353Y-43284046D02*
X141602972Y-43236427D01*
X141602972Y-43236427D02*
X141650591Y-43141189D01*
X141650591Y-43141189D02*
X141650591Y-43045951D01*
X141650591Y-43045951D02*
X141602972Y-42950713D01*
X141602972Y-42950713D02*
X141555353Y-42903094D01*
X141555353Y-42903094D02*
X141460115Y-42855475D01*
X141460115Y-42855475D02*
X141222020Y-42855475D01*
X141222020Y-42855475D02*
X141079163Y-42903094D01*
X139888686Y-43855475D02*
X139888686Y-42855475D01*
X139460115Y-43807856D02*
X139364877Y-43855475D01*
X139364877Y-43855475D02*
X139174401Y-43855475D01*
X139174401Y-43855475D02*
X139079163Y-43807856D01*
X139079163Y-43807856D02*
X139031544Y-43712617D01*
X139031544Y-43712617D02*
X139031544Y-43664998D01*
X139031544Y-43664998D02*
X139079163Y-43569760D01*
X139079163Y-43569760D02*
X139174401Y-43522141D01*
X139174401Y-43522141D02*
X139317258Y-43522141D01*
X139317258Y-43522141D02*
X139412496Y-43474522D01*
X139412496Y-43474522D02*
X139460115Y-43379284D01*
X139460115Y-43379284D02*
X139460115Y-43331665D01*
X139460115Y-43331665D02*
X139412496Y-43236427D01*
X139412496Y-43236427D02*
X139317258Y-43188808D01*
X139317258Y-43188808D02*
X139174401Y-43188808D01*
X139174401Y-43188808D02*
X139079163Y-43236427D01*
X138460115Y-43855475D02*
X138555353Y-43807856D01*
X138555353Y-43807856D02*
X138602972Y-43760236D01*
X138602972Y-43760236D02*
X138650591Y-43664998D01*
X138650591Y-43664998D02*
X138650591Y-43379284D01*
X138650591Y-43379284D02*
X138602972Y-43284046D01*
X138602972Y-43284046D02*
X138555353Y-43236427D01*
X138555353Y-43236427D02*
X138460115Y-43188808D01*
X138460115Y-43188808D02*
X138317258Y-43188808D01*
X138317258Y-43188808D02*
X138222020Y-43236427D01*
X138222020Y-43236427D02*
X138174401Y-43284046D01*
X138174401Y-43284046D02*
X138126782Y-43379284D01*
X138126782Y-43379284D02*
X138126782Y-43664998D01*
X138126782Y-43664998D02*
X138174401Y-43760236D01*
X138174401Y-43760236D02*
X138222020Y-43807856D01*
X138222020Y-43807856D02*
X138317258Y-43855475D01*
X138317258Y-43855475D02*
X138460115Y-43855475D01*
X136602972Y-43331665D02*
X136460115Y-43379284D01*
X136460115Y-43379284D02*
X136412496Y-43426903D01*
X136412496Y-43426903D02*
X136364877Y-43522141D01*
X136364877Y-43522141D02*
X136364877Y-43664998D01*
X136364877Y-43664998D02*
X136412496Y-43760236D01*
X136412496Y-43760236D02*
X136460115Y-43807856D01*
X136460115Y-43807856D02*
X136555353Y-43855475D01*
X136555353Y-43855475D02*
X136936305Y-43855475D01*
X136936305Y-43855475D02*
X136936305Y-42855475D01*
X136936305Y-42855475D02*
X136602972Y-42855475D01*
X136602972Y-42855475D02*
X136507734Y-42903094D01*
X136507734Y-42903094D02*
X136460115Y-42950713D01*
X136460115Y-42950713D02*
X136412496Y-43045951D01*
X136412496Y-43045951D02*
X136412496Y-43141189D01*
X136412496Y-43141189D02*
X136460115Y-43236427D01*
X136460115Y-43236427D02*
X136507734Y-43284046D01*
X136507734Y-43284046D02*
X136602972Y-43331665D01*
X136602972Y-43331665D02*
X136936305Y-43331665D01*
X135793448Y-43855475D02*
X135888686Y-43807856D01*
X135888686Y-43807856D02*
X135936305Y-43760236D01*
X135936305Y-43760236D02*
X135983924Y-43664998D01*
X135983924Y-43664998D02*
X135983924Y-43379284D01*
X135983924Y-43379284D02*
X135936305Y-43284046D01*
X135936305Y-43284046D02*
X135888686Y-43236427D01*
X135888686Y-43236427D02*
X135793448Y-43188808D01*
X135793448Y-43188808D02*
X135650591Y-43188808D01*
X135650591Y-43188808D02*
X135555353Y-43236427D01*
X135555353Y-43236427D02*
X135507734Y-43284046D01*
X135507734Y-43284046D02*
X135460115Y-43379284D01*
X135460115Y-43379284D02*
X135460115Y-43664998D01*
X135460115Y-43664998D02*
X135507734Y-43760236D01*
X135507734Y-43760236D02*
X135555353Y-43807856D01*
X135555353Y-43807856D02*
X135650591Y-43855475D01*
X135650591Y-43855475D02*
X135793448Y-43855475D01*
X134602972Y-43855475D02*
X134602972Y-43331665D01*
X134602972Y-43331665D02*
X134650591Y-43236427D01*
X134650591Y-43236427D02*
X134745829Y-43188808D01*
X134745829Y-43188808D02*
X134936305Y-43188808D01*
X134936305Y-43188808D02*
X135031543Y-43236427D01*
X134602972Y-43807856D02*
X134698210Y-43855475D01*
X134698210Y-43855475D02*
X134936305Y-43855475D01*
X134936305Y-43855475D02*
X135031543Y-43807856D01*
X135031543Y-43807856D02*
X135079162Y-43712617D01*
X135079162Y-43712617D02*
X135079162Y-43617379D01*
X135079162Y-43617379D02*
X135031543Y-43522141D01*
X135031543Y-43522141D02*
X134936305Y-43474522D01*
X134936305Y-43474522D02*
X134698210Y-43474522D01*
X134698210Y-43474522D02*
X134602972Y-43426903D01*
X134126781Y-43855475D02*
X134126781Y-43188808D01*
X134126781Y-43379284D02*
X134079162Y-43284046D01*
X134079162Y-43284046D02*
X134031543Y-43236427D01*
X134031543Y-43236427D02*
X133936305Y-43188808D01*
X133936305Y-43188808D02*
X133841067Y-43188808D01*
X133079162Y-43855475D02*
X133079162Y-42855475D01*
X133079162Y-43807856D02*
X133174400Y-43855475D01*
X133174400Y-43855475D02*
X133364876Y-43855475D01*
X133364876Y-43855475D02*
X133460114Y-43807856D01*
X133460114Y-43807856D02*
X133507733Y-43760236D01*
X133507733Y-43760236D02*
X133555352Y-43664998D01*
X133555352Y-43664998D02*
X133555352Y-43379284D01*
X133555352Y-43379284D02*
X133507733Y-43284046D01*
X133507733Y-43284046D02*
X133460114Y-43236427D01*
X133460114Y-43236427D02*
X133364876Y-43188808D01*
X133364876Y-43188808D02*
X133174400Y-43188808D01*
X133174400Y-43188808D02*
X133079162Y-43236427D01*
X143602972Y-44465419D02*
X143269639Y-45465419D01*
X143269639Y-45465419D02*
X142936306Y-44465419D01*
X142650591Y-44560657D02*
X142602972Y-44513038D01*
X142602972Y-44513038D02*
X142507734Y-44465419D01*
X142507734Y-44465419D02*
X142269639Y-44465419D01*
X142269639Y-44465419D02*
X142174401Y-44513038D01*
X142174401Y-44513038D02*
X142126782Y-44560657D01*
X142126782Y-44560657D02*
X142079163Y-44655895D01*
X142079163Y-44655895D02*
X142079163Y-44751133D01*
X142079163Y-44751133D02*
X142126782Y-44893990D01*
X142126782Y-44893990D02*
X142698210Y-45465419D01*
X142698210Y-45465419D02*
X142079163Y-45465419D01*
X140698210Y-44465419D02*
X140507734Y-44465419D01*
X140507734Y-44465419D02*
X140412496Y-44513038D01*
X140412496Y-44513038D02*
X140317258Y-44608276D01*
X140317258Y-44608276D02*
X140269639Y-44798752D01*
X140269639Y-44798752D02*
X140269639Y-45132085D01*
X140269639Y-45132085D02*
X140317258Y-45322561D01*
X140317258Y-45322561D02*
X140412496Y-45417800D01*
X140412496Y-45417800D02*
X140507734Y-45465419D01*
X140507734Y-45465419D02*
X140698210Y-45465419D01*
X140698210Y-45465419D02*
X140793448Y-45417800D01*
X140793448Y-45417800D02*
X140888686Y-45322561D01*
X140888686Y-45322561D02*
X140936305Y-45132085D01*
X140936305Y-45132085D02*
X140936305Y-44798752D01*
X140936305Y-44798752D02*
X140888686Y-44608276D01*
X140888686Y-44608276D02*
X140793448Y-44513038D01*
X140793448Y-44513038D02*
X140698210Y-44465419D01*
X139841067Y-45465419D02*
X139841067Y-44465419D01*
X139364877Y-45465419D02*
X139364877Y-44465419D01*
X139364877Y-44941609D02*
X138793449Y-44941609D01*
X138793449Y-45465419D02*
X138793449Y-44465419D01*
X137555353Y-45465419D02*
X137555353Y-44465419D01*
X137555353Y-44465419D02*
X137317258Y-44465419D01*
X137317258Y-44465419D02*
X137174401Y-44513038D01*
X137174401Y-44513038D02*
X137079163Y-44608276D01*
X137079163Y-44608276D02*
X137031544Y-44703514D01*
X137031544Y-44703514D02*
X136983925Y-44893990D01*
X136983925Y-44893990D02*
X136983925Y-45036847D01*
X136983925Y-45036847D02*
X137031544Y-45227323D01*
X137031544Y-45227323D02*
X137079163Y-45322561D01*
X137079163Y-45322561D02*
X137174401Y-45417800D01*
X137174401Y-45417800D02*
X137317258Y-45465419D01*
X137317258Y-45465419D02*
X137555353Y-45465419D01*
X136174401Y-45417800D02*
X136269639Y-45465419D01*
X136269639Y-45465419D02*
X136460115Y-45465419D01*
X136460115Y-45465419D02*
X136555353Y-45417800D01*
X136555353Y-45417800D02*
X136602972Y-45322561D01*
X136602972Y-45322561D02*
X136602972Y-44941609D01*
X136602972Y-44941609D02*
X136555353Y-44846371D01*
X136555353Y-44846371D02*
X136460115Y-44798752D01*
X136460115Y-44798752D02*
X136269639Y-44798752D01*
X136269639Y-44798752D02*
X136174401Y-44846371D01*
X136174401Y-44846371D02*
X136126782Y-44941609D01*
X136126782Y-44941609D02*
X136126782Y-45036847D01*
X136126782Y-45036847D02*
X136602972Y-45132085D01*
X135745829Y-45417800D02*
X135650591Y-45465419D01*
X135650591Y-45465419D02*
X135460115Y-45465419D01*
X135460115Y-45465419D02*
X135364877Y-45417800D01*
X135364877Y-45417800D02*
X135317258Y-45322561D01*
X135317258Y-45322561D02*
X135317258Y-45274942D01*
X135317258Y-45274942D02*
X135364877Y-45179704D01*
X135364877Y-45179704D02*
X135460115Y-45132085D01*
X135460115Y-45132085D02*
X135602972Y-45132085D01*
X135602972Y-45132085D02*
X135698210Y-45084466D01*
X135698210Y-45084466D02*
X135745829Y-44989228D01*
X135745829Y-44989228D02*
X135745829Y-44941609D01*
X135745829Y-44941609D02*
X135698210Y-44846371D01*
X135698210Y-44846371D02*
X135602972Y-44798752D01*
X135602972Y-44798752D02*
X135460115Y-44798752D01*
X135460115Y-44798752D02*
X135364877Y-44846371D01*
X134888686Y-45465419D02*
X134888686Y-44798752D01*
X134888686Y-44465419D02*
X134936305Y-44513038D01*
X134936305Y-44513038D02*
X134888686Y-44560657D01*
X134888686Y-44560657D02*
X134841067Y-44513038D01*
X134841067Y-44513038D02*
X134888686Y-44465419D01*
X134888686Y-44465419D02*
X134888686Y-44560657D01*
X133983925Y-44798752D02*
X133983925Y-45608276D01*
X133983925Y-45608276D02*
X134031544Y-45703514D01*
X134031544Y-45703514D02*
X134079163Y-45751133D01*
X134079163Y-45751133D02*
X134174401Y-45798752D01*
X134174401Y-45798752D02*
X134317258Y-45798752D01*
X134317258Y-45798752D02*
X134412496Y-45751133D01*
X133983925Y-45417800D02*
X134079163Y-45465419D01*
X134079163Y-45465419D02*
X134269639Y-45465419D01*
X134269639Y-45465419D02*
X134364877Y-45417800D01*
X134364877Y-45417800D02*
X134412496Y-45370180D01*
X134412496Y-45370180D02*
X134460115Y-45274942D01*
X134460115Y-45274942D02*
X134460115Y-44989228D01*
X134460115Y-44989228D02*
X134412496Y-44893990D01*
X134412496Y-44893990D02*
X134364877Y-44846371D01*
X134364877Y-44846371D02*
X134269639Y-44798752D01*
X134269639Y-44798752D02*
X134079163Y-44798752D01*
X134079163Y-44798752D02*
X133983925Y-44846371D01*
X133507734Y-44798752D02*
X133507734Y-45465419D01*
X133507734Y-44893990D02*
X133460115Y-44846371D01*
X133460115Y-44846371D02*
X133364877Y-44798752D01*
X133364877Y-44798752D02*
X133222020Y-44798752D01*
X133222020Y-44798752D02*
X133126782Y-44846371D01*
X133126782Y-44846371D02*
X133079163Y-44941609D01*
X133079163Y-44941609D02*
X133079163Y-45465419D01*
X132650591Y-45417800D02*
X132555353Y-45465419D01*
X132555353Y-45465419D02*
X132364877Y-45465419D01*
X132364877Y-45465419D02*
X132269639Y-45417800D01*
X132269639Y-45417800D02*
X132222020Y-45322561D01*
X132222020Y-45322561D02*
X132222020Y-45274942D01*
X132222020Y-45274942D02*
X132269639Y-45179704D01*
X132269639Y-45179704D02*
X132364877Y-45132085D01*
X132364877Y-45132085D02*
X132507734Y-45132085D01*
X132507734Y-45132085D02*
X132602972Y-45084466D01*
X132602972Y-45084466D02*
X132650591Y-44989228D01*
X132650591Y-44989228D02*
X132650591Y-44941609D01*
X132650591Y-44941609D02*
X132602972Y-44846371D01*
X132602972Y-44846371D02*
X132507734Y-44798752D01*
X132507734Y-44798752D02*
X132364877Y-44798752D01*
X132364877Y-44798752D02*
X132269639Y-44846371D01*
X145222306Y-53911038D02*
X145317544Y-53863419D01*
X145317544Y-53863419D02*
X145460401Y-53863419D01*
X145460401Y-53863419D02*
X145603258Y-53911038D01*
X145603258Y-53911038D02*
X145698496Y-54006276D01*
X145698496Y-54006276D02*
X145746115Y-54101514D01*
X145746115Y-54101514D02*
X145793734Y-54291990D01*
X145793734Y-54291990D02*
X145793734Y-54434847D01*
X145793734Y-54434847D02*
X145746115Y-54625323D01*
X145746115Y-54625323D02*
X145698496Y-54720561D01*
X145698496Y-54720561D02*
X145603258Y-54815800D01*
X145603258Y-54815800D02*
X145460401Y-54863419D01*
X145460401Y-54863419D02*
X145365163Y-54863419D01*
X145365163Y-54863419D02*
X145222306Y-54815800D01*
X145222306Y-54815800D02*
X145174687Y-54768180D01*
X145174687Y-54768180D02*
X145174687Y-54434847D01*
X145174687Y-54434847D02*
X145365163Y-54434847D01*
X144746115Y-54196752D02*
X144746115Y-54863419D01*
X144746115Y-54291990D02*
X144698496Y-54244371D01*
X144698496Y-54244371D02*
X144603258Y-54196752D01*
X144603258Y-54196752D02*
X144460401Y-54196752D01*
X144460401Y-54196752D02*
X144365163Y-54244371D01*
X144365163Y-54244371D02*
X144317544Y-54339609D01*
X144317544Y-54339609D02*
X144317544Y-54863419D01*
X143412782Y-54863419D02*
X143412782Y-53863419D01*
X143412782Y-54815800D02*
X143508020Y-54863419D01*
X143508020Y-54863419D02*
X143698496Y-54863419D01*
X143698496Y-54863419D02*
X143793734Y-54815800D01*
X143793734Y-54815800D02*
X143841353Y-54768180D01*
X143841353Y-54768180D02*
X143888972Y-54672942D01*
X143888972Y-54672942D02*
X143888972Y-54387228D01*
X143888972Y-54387228D02*
X143841353Y-54291990D01*
X143841353Y-54291990D02*
X143793734Y-54244371D01*
X143793734Y-54244371D02*
X143698496Y-54196752D01*
X143698496Y-54196752D02*
X143508020Y-54196752D01*
X143508020Y-54196752D02*
X143412782Y-54244371D01*
X142936591Y-54482466D02*
X142174687Y-54482466D01*
X141698496Y-54863419D02*
X141698496Y-53863419D01*
X141269925Y-54815800D02*
X141174687Y-54863419D01*
X141174687Y-54863419D02*
X140984211Y-54863419D01*
X140984211Y-54863419D02*
X140888973Y-54815800D01*
X140888973Y-54815800D02*
X140841354Y-54720561D01*
X140841354Y-54720561D02*
X140841354Y-54672942D01*
X140841354Y-54672942D02*
X140888973Y-54577704D01*
X140888973Y-54577704D02*
X140984211Y-54530085D01*
X140984211Y-54530085D02*
X141127068Y-54530085D01*
X141127068Y-54530085D02*
X141222306Y-54482466D01*
X141222306Y-54482466D02*
X141269925Y-54387228D01*
X141269925Y-54387228D02*
X141269925Y-54339609D01*
X141269925Y-54339609D02*
X141222306Y-54244371D01*
X141222306Y-54244371D02*
X141127068Y-54196752D01*
X141127068Y-54196752D02*
X140984211Y-54196752D01*
X140984211Y-54196752D02*
X140888973Y-54244371D01*
X140269925Y-54863419D02*
X140365163Y-54815800D01*
X140365163Y-54815800D02*
X140412782Y-54768180D01*
X140412782Y-54768180D02*
X140460401Y-54672942D01*
X140460401Y-54672942D02*
X140460401Y-54387228D01*
X140460401Y-54387228D02*
X140412782Y-54291990D01*
X140412782Y-54291990D02*
X140365163Y-54244371D01*
X140365163Y-54244371D02*
X140269925Y-54196752D01*
X140269925Y-54196752D02*
X140127068Y-54196752D01*
X140127068Y-54196752D02*
X140031830Y-54244371D01*
X140031830Y-54244371D02*
X139984211Y-54291990D01*
X139984211Y-54291990D02*
X139936592Y-54387228D01*
X139936592Y-54387228D02*
X139936592Y-54672942D01*
X139936592Y-54672942D02*
X139984211Y-54768180D01*
X139984211Y-54768180D02*
X140031830Y-54815800D01*
X140031830Y-54815800D02*
X140127068Y-54863419D01*
X140127068Y-54863419D02*
X140269925Y-54863419D01*
X130807734Y-60022800D02*
X130664877Y-60070419D01*
X130664877Y-60070419D02*
X130426782Y-60070419D01*
X130426782Y-60070419D02*
X130331544Y-60022800D01*
X130331544Y-60022800D02*
X130283925Y-59975180D01*
X130283925Y-59975180D02*
X130236306Y-59879942D01*
X130236306Y-59879942D02*
X130236306Y-59784704D01*
X130236306Y-59784704D02*
X130283925Y-59689466D01*
X130283925Y-59689466D02*
X130331544Y-59641847D01*
X130331544Y-59641847D02*
X130426782Y-59594228D01*
X130426782Y-59594228D02*
X130617258Y-59546609D01*
X130617258Y-59546609D02*
X130712496Y-59498990D01*
X130712496Y-59498990D02*
X130760115Y-59451371D01*
X130760115Y-59451371D02*
X130807734Y-59356133D01*
X130807734Y-59356133D02*
X130807734Y-59260895D01*
X130807734Y-59260895D02*
X130760115Y-59165657D01*
X130760115Y-59165657D02*
X130712496Y-59118038D01*
X130712496Y-59118038D02*
X130617258Y-59070419D01*
X130617258Y-59070419D02*
X130379163Y-59070419D01*
X130379163Y-59070419D02*
X130236306Y-59118038D01*
X129236306Y-59975180D02*
X129283925Y-60022800D01*
X129283925Y-60022800D02*
X129426782Y-60070419D01*
X129426782Y-60070419D02*
X129522020Y-60070419D01*
X129522020Y-60070419D02*
X129664877Y-60022800D01*
X129664877Y-60022800D02*
X129760115Y-59927561D01*
X129760115Y-59927561D02*
X129807734Y-59832323D01*
X129807734Y-59832323D02*
X129855353Y-59641847D01*
X129855353Y-59641847D02*
X129855353Y-59498990D01*
X129855353Y-59498990D02*
X129807734Y-59308514D01*
X129807734Y-59308514D02*
X129760115Y-59213276D01*
X129760115Y-59213276D02*
X129664877Y-59118038D01*
X129664877Y-59118038D02*
X129522020Y-59070419D01*
X129522020Y-59070419D02*
X129426782Y-59070419D01*
X129426782Y-59070419D02*
X129283925Y-59118038D01*
X129283925Y-59118038D02*
X129236306Y-59165657D01*
X128331544Y-60070419D02*
X128807734Y-60070419D01*
X128807734Y-60070419D02*
X128807734Y-59070419D01*
X145269925Y-51577419D02*
X145746115Y-51577419D01*
X145746115Y-51577419D02*
X145793734Y-52053609D01*
X145793734Y-52053609D02*
X145746115Y-52005990D01*
X145746115Y-52005990D02*
X145650877Y-51958371D01*
X145650877Y-51958371D02*
X145412782Y-51958371D01*
X145412782Y-51958371D02*
X145317544Y-52005990D01*
X145317544Y-52005990D02*
X145269925Y-52053609D01*
X145269925Y-52053609D02*
X145222306Y-52148847D01*
X145222306Y-52148847D02*
X145222306Y-52386942D01*
X145222306Y-52386942D02*
X145269925Y-52482180D01*
X145269925Y-52482180D02*
X145317544Y-52529800D01*
X145317544Y-52529800D02*
X145412782Y-52577419D01*
X145412782Y-52577419D02*
X145650877Y-52577419D01*
X145650877Y-52577419D02*
X145746115Y-52529800D01*
X145746115Y-52529800D02*
X145793734Y-52482180D01*
X144888972Y-51910752D02*
X144650877Y-52577419D01*
X144650877Y-52577419D02*
X144412782Y-51910752D01*
X144031829Y-52196466D02*
X143269925Y-52196466D01*
X142793734Y-52577419D02*
X142793734Y-51577419D01*
X142365163Y-52529800D02*
X142269925Y-52577419D01*
X142269925Y-52577419D02*
X142079449Y-52577419D01*
X142079449Y-52577419D02*
X141984211Y-52529800D01*
X141984211Y-52529800D02*
X141936592Y-52434561D01*
X141936592Y-52434561D02*
X141936592Y-52386942D01*
X141936592Y-52386942D02*
X141984211Y-52291704D01*
X141984211Y-52291704D02*
X142079449Y-52244085D01*
X142079449Y-52244085D02*
X142222306Y-52244085D01*
X142222306Y-52244085D02*
X142317544Y-52196466D01*
X142317544Y-52196466D02*
X142365163Y-52101228D01*
X142365163Y-52101228D02*
X142365163Y-52053609D01*
X142365163Y-52053609D02*
X142317544Y-51958371D01*
X142317544Y-51958371D02*
X142222306Y-51910752D01*
X142222306Y-51910752D02*
X142079449Y-51910752D01*
X142079449Y-51910752D02*
X141984211Y-51958371D01*
X141365163Y-52577419D02*
X141460401Y-52529800D01*
X141460401Y-52529800D02*
X141508020Y-52482180D01*
X141508020Y-52482180D02*
X141555639Y-52386942D01*
X141555639Y-52386942D02*
X141555639Y-52101228D01*
X141555639Y-52101228D02*
X141508020Y-52005990D01*
X141508020Y-52005990D02*
X141460401Y-51958371D01*
X141460401Y-51958371D02*
X141365163Y-51910752D01*
X141365163Y-51910752D02*
X141222306Y-51910752D01*
X141222306Y-51910752D02*
X141127068Y-51958371D01*
X141127068Y-51958371D02*
X141079449Y-52005990D01*
X141079449Y-52005990D02*
X141031830Y-52101228D01*
X141031830Y-52101228D02*
X141031830Y-52386942D01*
X141031830Y-52386942D02*
X141079449Y-52482180D01*
X141079449Y-52482180D02*
X141127068Y-52529800D01*
X141127068Y-52529800D02*
X141222306Y-52577419D01*
X141222306Y-52577419D02*
X141365163Y-52577419D01*
X145793734Y-59911704D02*
X145317544Y-59911704D01*
X145888972Y-60197419D02*
X145555639Y-59197419D01*
X145555639Y-59197419D02*
X145222306Y-60197419D01*
X144936591Y-59292657D02*
X144888972Y-59245038D01*
X144888972Y-59245038D02*
X144793734Y-59197419D01*
X144793734Y-59197419D02*
X144555639Y-59197419D01*
X144555639Y-59197419D02*
X144460401Y-59245038D01*
X144460401Y-59245038D02*
X144412782Y-59292657D01*
X144412782Y-59292657D02*
X144365163Y-59387895D01*
X144365163Y-59387895D02*
X144365163Y-59483133D01*
X144365163Y-59483133D02*
X144412782Y-59625990D01*
X144412782Y-59625990D02*
X144984210Y-60197419D01*
X144984210Y-60197419D02*
X144365163Y-60197419D01*
X131156972Y-51704419D02*
X130823639Y-52704419D01*
X130823639Y-52704419D02*
X130490306Y-51704419D01*
X129728401Y-52704419D02*
X129728401Y-51704419D01*
X129728401Y-52656800D02*
X129823639Y-52704419D01*
X129823639Y-52704419D02*
X130014115Y-52704419D01*
X130014115Y-52704419D02*
X130109353Y-52656800D01*
X130109353Y-52656800D02*
X130156972Y-52609180D01*
X130156972Y-52609180D02*
X130204591Y-52513942D01*
X130204591Y-52513942D02*
X130204591Y-52228228D01*
X130204591Y-52228228D02*
X130156972Y-52132990D01*
X130156972Y-52132990D02*
X130109353Y-52085371D01*
X130109353Y-52085371D02*
X130014115Y-52037752D01*
X130014115Y-52037752D02*
X129823639Y-52037752D01*
X129823639Y-52037752D02*
X129728401Y-52085371D01*
X128823639Y-52704419D02*
X128823639Y-51704419D01*
X128823639Y-52656800D02*
X128918877Y-52704419D01*
X128918877Y-52704419D02*
X129109353Y-52704419D01*
X129109353Y-52704419D02*
X129204591Y-52656800D01*
X129204591Y-52656800D02*
X129252210Y-52609180D01*
X129252210Y-52609180D02*
X129299829Y-52513942D01*
X129299829Y-52513942D02*
X129299829Y-52228228D01*
X129299829Y-52228228D02*
X129252210Y-52132990D01*
X129252210Y-52132990D02*
X129204591Y-52085371D01*
X129204591Y-52085371D02*
X129109353Y-52037752D01*
X129109353Y-52037752D02*
X128918877Y-52037752D01*
X128918877Y-52037752D02*
X128823639Y-52085371D01*
X145793734Y-65245704D02*
X145317544Y-65245704D01*
X145888972Y-65531419D02*
X145555639Y-64531419D01*
X145555639Y-64531419D02*
X145222306Y-65531419D01*
X144698496Y-64531419D02*
X144603258Y-64531419D01*
X144603258Y-64531419D02*
X144508020Y-64579038D01*
X144508020Y-64579038D02*
X144460401Y-64626657D01*
X144460401Y-64626657D02*
X144412782Y-64721895D01*
X144412782Y-64721895D02*
X144365163Y-64912371D01*
X144365163Y-64912371D02*
X144365163Y-65150466D01*
X144365163Y-65150466D02*
X144412782Y-65340942D01*
X144412782Y-65340942D02*
X144460401Y-65436180D01*
X144460401Y-65436180D02*
X144508020Y-65483800D01*
X144508020Y-65483800D02*
X144603258Y-65531419D01*
X144603258Y-65531419D02*
X144698496Y-65531419D01*
X144698496Y-65531419D02*
X144793734Y-65483800D01*
X144793734Y-65483800D02*
X144841353Y-65436180D01*
X144841353Y-65436180D02*
X144888972Y-65340942D01*
X144888972Y-65340942D02*
X144936591Y-65150466D01*
X144936591Y-65150466D02*
X144936591Y-64912371D01*
X144936591Y-64912371D02*
X144888972Y-64721895D01*
X144888972Y-64721895D02*
X144841353Y-64626657D01*
X144841353Y-64626657D02*
X144793734Y-64579038D01*
X144793734Y-64579038D02*
X144698496Y-64531419D01*
X130490306Y-54038038D02*
X130585544Y-53990419D01*
X130585544Y-53990419D02*
X130728401Y-53990419D01*
X130728401Y-53990419D02*
X130871258Y-54038038D01*
X130871258Y-54038038D02*
X130966496Y-54133276D01*
X130966496Y-54133276D02*
X131014115Y-54228514D01*
X131014115Y-54228514D02*
X131061734Y-54418990D01*
X131061734Y-54418990D02*
X131061734Y-54561847D01*
X131061734Y-54561847D02*
X131014115Y-54752323D01*
X131014115Y-54752323D02*
X130966496Y-54847561D01*
X130966496Y-54847561D02*
X130871258Y-54942800D01*
X130871258Y-54942800D02*
X130728401Y-54990419D01*
X130728401Y-54990419D02*
X130633163Y-54990419D01*
X130633163Y-54990419D02*
X130490306Y-54942800D01*
X130490306Y-54942800D02*
X130442687Y-54895180D01*
X130442687Y-54895180D02*
X130442687Y-54561847D01*
X130442687Y-54561847D02*
X130633163Y-54561847D01*
X130014115Y-54323752D02*
X130014115Y-54990419D01*
X130014115Y-54418990D02*
X129966496Y-54371371D01*
X129966496Y-54371371D02*
X129871258Y-54323752D01*
X129871258Y-54323752D02*
X129728401Y-54323752D01*
X129728401Y-54323752D02*
X129633163Y-54371371D01*
X129633163Y-54371371D02*
X129585544Y-54466609D01*
X129585544Y-54466609D02*
X129585544Y-54990419D01*
X128680782Y-54990419D02*
X128680782Y-53990419D01*
X128680782Y-54942800D02*
X128776020Y-54990419D01*
X128776020Y-54990419D02*
X128966496Y-54990419D01*
X128966496Y-54990419D02*
X129061734Y-54942800D01*
X129061734Y-54942800D02*
X129109353Y-54895180D01*
X129109353Y-54895180D02*
X129156972Y-54799942D01*
X129156972Y-54799942D02*
X129156972Y-54514228D01*
X129156972Y-54514228D02*
X129109353Y-54418990D01*
X129109353Y-54418990D02*
X129061734Y-54371371D01*
X129061734Y-54371371D02*
X128966496Y-54323752D01*
X128966496Y-54323752D02*
X128776020Y-54323752D01*
X128776020Y-54323752D02*
X128680782Y-54371371D01*
M02*
