%TF.GenerationSoftware,KiCad,Pcbnew,9.0.3*%
%TF.CreationDate,2026-01-02T19:57:44-06:00*%
%TF.ProjectId,IsolatedADSandVoltmeterPCB,49736f6c-6174-4656-9441-4453616e6456,rev?*%
%TF.SameCoordinates,Original*%
%TF.FileFunction,Copper,L4,Bot*%
%TF.FilePolarity,Positive*%
%FSLAX46Y46*%
G04 Gerber Fmt 4.6, Leading zero omitted, Abs format (unit mm)*
G04 Created by KiCad (PCBNEW 9.0.3) date 2026-01-02 19:57:44*
%MOMM*%
%LPD*%
G01*
G04 APERTURE LIST*
G04 Aperture macros list*
%AMRoundRect*
0 Rectangle with rounded corners*
0 $1 Rounding radius*
0 $2 $3 $4 $5 $6 $7 $8 $9 X,Y pos of 4 corners*
0 Add a 4 corners polygon primitive as box body*
4,1,4,$2,$3,$4,$5,$6,$7,$8,$9,$2,$3,0*
0 Add four circle primitives for the rounded corners*
1,1,$1+$1,$2,$3*
1,1,$1+$1,$4,$5*
1,1,$1+$1,$6,$7*
1,1,$1+$1,$8,$9*
0 Add four rect primitives between the rounded corners*
20,1,$1+$1,$2,$3,$4,$5,0*
20,1,$1+$1,$4,$5,$6,$7,0*
20,1,$1+$1,$6,$7,$8,$9,0*
20,1,$1+$1,$8,$9,$2,$3,0*%
G04 Aperture macros list end*
%TA.AperFunction,ConnectorPad*%
%ADD10C,5.600000*%
%TD*%
%TA.AperFunction,ComponentPad*%
%ADD11C,3.600000*%
%TD*%
%TA.AperFunction,ComponentPad*%
%ADD12R,1.700000X1.700000*%
%TD*%
%TA.AperFunction,ComponentPad*%
%ADD13C,1.700000*%
%TD*%
%TA.AperFunction,ComponentPad*%
%ADD14C,1.500000*%
%TD*%
%TA.AperFunction,ComponentPad*%
%ADD15RoundRect,0.250000X-1.050000X-1.050000X1.050000X-1.050000X1.050000X1.050000X-1.050000X1.050000X0*%
%TD*%
%TA.AperFunction,ComponentPad*%
%ADD16C,2.600000*%
%TD*%
%TA.AperFunction,ViaPad*%
%ADD17C,0.600000*%
%TD*%
%TA.AperFunction,Conductor*%
%ADD18C,0.200000*%
%TD*%
G04 APERTURE END LIST*
D10*
%TO.P,H2,1*%
%TO.N,N/C*%
X146050000Y-38100000D03*
D11*
X146050000Y-38100000D03*
%TD*%
D12*
%TO.P,J2,1,Pin_1*%
%TO.N,5V-iso*%
X147320000Y-52070000D03*
D13*
%TO.P,J2,2,Pin_2*%
%TO.N,Gnd-iso*%
X147320000Y-54610000D03*
%TO.P,J2,3,Pin_3*%
%TO.N,/AIN3*%
X147320000Y-57150000D03*
%TO.P,J2,4,Pin_4*%
%TO.N,/AIN2*%
X147320000Y-59690000D03*
%TO.P,J2,5,Pin_5*%
%TO.N,/AIN1*%
X147320000Y-62230000D03*
%TO.P,J2,6,Pin_6*%
%TO.N,/AIN0*%
X147320000Y-64770000D03*
%TD*%
D12*
%TO.P,J1,1,Pin_1*%
%TO.N,VDD*%
X127000000Y-52070000D03*
D13*
%TO.P,J1,2,Pin_2*%
%TO.N,GND*%
X127000000Y-54610000D03*
%TO.P,J1,3,Pin_3*%
%TO.N,SDA*%
X127000000Y-57150000D03*
%TO.P,J1,4,Pin_4*%
%TO.N,SCL*%
X127000000Y-59690000D03*
%TD*%
D14*
%TO.P,U14,1,VIN-*%
%TO.N,GND*%
X133350000Y-39830000D03*
%TO.P,U14,2,VIN+*%
%TO.N,VDD*%
X135890000Y-39830000D03*
%TO.P,U14,3,Vout-*%
%TO.N,Gnd-iso*%
X138430000Y-39830000D03*
%TO.P,U14,4,Vout+*%
%TO.N,5V-iso*%
X140970000Y-39830000D03*
%TD*%
D11*
%TO.P,H1,1*%
%TO.N,N/C*%
X128270000Y-38100000D03*
D10*
X128270000Y-38100000D03*
%TD*%
D15*
%TO.P,J15,1,Pin_1*%
%TO.N,Net-(J15-Pin_1)*%
X134615000Y-75146250D03*
D16*
%TO.P,J15,2,Pin_2*%
%TO.N,Net-(J15-Pin_2)*%
X139695000Y-75146250D03*
%TD*%
D11*
%TO.P,H4,1*%
%TO.N,N/C*%
X146045000Y-78105000D03*
D10*
X146045000Y-78105000D03*
%TD*%
D11*
%TO.P,H3,1*%
%TO.N,N/C*%
X128270000Y-78105000D03*
D10*
X128270000Y-78105000D03*
%TD*%
D17*
%TO.N,SCL-5V*%
X142875000Y-52070000D03*
%TO.N,ADS_ALERT*%
X142133235Y-60431765D03*
X143510000Y-59055000D03*
%TO.N,Gnd-iso*%
X139170615Y-59670913D03*
X142240000Y-64770000D03*
%TO.N,5V-iso*%
X142875000Y-55880000D03*
%TO.N,SCL-5V*%
X142875000Y-54610000D03*
%TO.N,SDA-5V*%
X145415000Y-59055000D03*
%TO.N,/AIN2*%
X138430000Y-58420000D03*
%TO.N,5V-iso*%
X146685000Y-72390000D03*
%TO.N,Gnd-iso*%
X146685000Y-69215000D03*
%TO.N,SCL-5V*%
X137160000Y-61595000D03*
%TO.N,SDA-5V*%
X137234369Y-60270913D03*
%TO.N,5V-iso*%
X135230110Y-60325524D03*
%TO.N,Gnd-iso*%
X140970000Y-55880000D03*
X139700000Y-49530000D03*
%TO.N,5V-iso*%
X138430000Y-49530000D03*
%TO.N,SCL-5V*%
X145415000Y-45085000D03*
X141605000Y-46355000D03*
%TO.N,5V-iso*%
X145415000Y-46355000D03*
%TO.N,Gnd-iso*%
X145415000Y-47625000D03*
X137795000Y-47625000D03*
%TO.N,5V-iso*%
X137795000Y-43815000D03*
%TO.N,VDD*%
X129540000Y-66040000D03*
%TO.N,GND*%
X129540000Y-64770000D03*
%TO.N,SCL*%
X132203000Y-49407000D03*
%TO.N,VDD*%
X129540000Y-45720000D03*
X133350000Y-42545000D03*
%TO.N,GND*%
X133985000Y-48895000D03*
X129540000Y-44450000D03*
X132080000Y-58949500D03*
%TO.N,VDD*%
X131931500Y-55753000D03*
%TO.N,/AIN3*%
X140271500Y-57721500D03*
%TD*%
D18*
%TO.N,SCL-5V*%
X136633369Y-61068369D02*
X137160000Y-61595000D01*
X136633369Y-59366688D02*
X136633369Y-61068369D01*
X142240000Y-55245000D02*
X140755057Y-55245000D01*
X142875000Y-54610000D02*
X142240000Y-55245000D01*
X140755057Y-55245000D02*
X136633369Y-59366688D01*
%TO.N,ADS_ALERT*%
X143510000Y-59055000D02*
X142133235Y-60431765D01*
%TO.N,SDA-5V*%
X142875000Y-61595000D02*
X138558456Y-61595000D01*
X145415000Y-59055000D02*
X142875000Y-61595000D01*
X138558456Y-61595000D02*
X137234369Y-60270913D01*
%TO.N,/AIN3*%
X146911000Y-56741000D02*
X147320000Y-57150000D01*
X141252000Y-56741000D02*
X146911000Y-56741000D01*
%TO.N,/AIN2*%
X138430000Y-58420000D02*
X146050000Y-58420000D01*
X146050000Y-58420000D02*
X147320000Y-59690000D01*
%TO.N,SCL-5V*%
X141605000Y-50800000D02*
X142875000Y-52070000D01*
X141605000Y-46355000D02*
X141605000Y-50800000D01*
X142875000Y-45085000D02*
X145415000Y-45085000D01*
X141605000Y-46355000D02*
X142875000Y-45085000D01*
%TO.N,SCL*%
X132203000Y-53852000D02*
X126365000Y-59690000D01*
X132203000Y-49407000D02*
X132203000Y-53852000D01*
%TO.N,/AIN3*%
X140271500Y-57721500D02*
X141252000Y-56741000D01*
%TD*%
M02*
