%TF.GenerationSoftware,KiCad,Pcbnew,9.0.3*%
%TF.CreationDate,2026-01-02T19:57:44-06:00*%
%TF.ProjectId,IsolatedADSandVoltmeterPCB,49736f6c-6174-4656-9441-4453616e6456,rev?*%
%TF.SameCoordinates,Original*%
%TF.FileFunction,Copper,L2,Inr*%
%TF.FilePolarity,Positive*%
%FSLAX46Y46*%
G04 Gerber Fmt 4.6, Leading zero omitted, Abs format (unit mm)*
G04 Created by KiCad (PCBNEW 9.0.3) date 2026-01-02 19:57:44*
%MOMM*%
%LPD*%
G01*
G04 APERTURE LIST*
G04 Aperture macros list*
%AMRoundRect*
0 Rectangle with rounded corners*
0 $1 Rounding radius*
0 $2 $3 $4 $5 $6 $7 $8 $9 X,Y pos of 4 corners*
0 Add a 4 corners polygon primitive as box body*
4,1,4,$2,$3,$4,$5,$6,$7,$8,$9,$2,$3,0*
0 Add four circle primitives for the rounded corners*
1,1,$1+$1,$2,$3*
1,1,$1+$1,$4,$5*
1,1,$1+$1,$6,$7*
1,1,$1+$1,$8,$9*
0 Add four rect primitives between the rounded corners*
20,1,$1+$1,$2,$3,$4,$5,0*
20,1,$1+$1,$4,$5,$6,$7,0*
20,1,$1+$1,$6,$7,$8,$9,0*
20,1,$1+$1,$8,$9,$2,$3,0*%
G04 Aperture macros list end*
%TA.AperFunction,ComponentPad*%
%ADD10C,3.600000*%
%TD*%
%TA.AperFunction,ComponentPad*%
%ADD11R,1.700000X1.700000*%
%TD*%
%TA.AperFunction,ComponentPad*%
%ADD12C,1.700000*%
%TD*%
%TA.AperFunction,ComponentPad*%
%ADD13C,1.500000*%
%TD*%
%TA.AperFunction,ComponentPad*%
%ADD14RoundRect,0.250000X-1.050000X-1.050000X1.050000X-1.050000X1.050000X1.050000X-1.050000X1.050000X0*%
%TD*%
%TA.AperFunction,ComponentPad*%
%ADD15C,2.600000*%
%TD*%
%TA.AperFunction,ViaPad*%
%ADD16C,0.600000*%
%TD*%
G04 APERTURE END LIST*
D10*
%TO.N,N/C*%
%TO.C,H2*%
X146050000Y-38100000D03*
%TD*%
D11*
%TO.N,5V-iso*%
%TO.C,J2*%
X147320000Y-52070000D03*
D12*
%TO.N,Gnd-iso*%
X147320000Y-54610000D03*
%TO.N,/AIN3*%
X147320000Y-57150000D03*
%TO.N,/AIN2*%
X147320000Y-59690000D03*
%TO.N,/AIN1*%
X147320000Y-62230000D03*
%TO.N,/AIN0*%
X147320000Y-64770000D03*
%TD*%
D11*
%TO.N,VDD*%
%TO.C,J1*%
X127000000Y-52070000D03*
D12*
%TO.N,GND*%
X127000000Y-54610000D03*
%TO.N,SDA*%
X127000000Y-57150000D03*
%TO.N,SCL*%
X127000000Y-59690000D03*
%TD*%
D13*
%TO.N,GND*%
%TO.C,U14*%
X133350000Y-39830000D03*
%TO.N,VDD*%
X135890000Y-39830000D03*
%TO.N,Gnd-iso*%
X138430000Y-39830000D03*
%TO.N,5V-iso*%
X140970000Y-39830000D03*
%TD*%
D10*
%TO.N,N/C*%
%TO.C,H1*%
X128270000Y-38100000D03*
%TD*%
D14*
%TO.N,Net-(J15-Pin_1)*%
%TO.C,J15*%
X134615000Y-75146250D03*
D15*
%TO.N,Net-(J15-Pin_2)*%
X139695000Y-75146250D03*
%TD*%
D10*
%TO.N,N/C*%
%TO.C,H4*%
X146045000Y-78105000D03*
%TD*%
%TO.N,N/C*%
%TO.C,H3*%
X128270000Y-78105000D03*
%TD*%
D16*
%TO.N,SCL-5V*%
X142875000Y-52070000D03*
%TO.N,ADS_ALERT*%
X142133235Y-60431765D03*
X143510000Y-59055000D03*
%TO.N,Gnd-iso*%
X139170615Y-59670913D03*
X142240000Y-64770000D03*
%TO.N,5V-iso*%
X142875000Y-55880000D03*
%TO.N,SCL-5V*%
X142875000Y-54610000D03*
%TO.N,SDA-5V*%
X145415000Y-59055000D03*
%TO.N,/AIN2*%
X138430000Y-58420000D03*
%TO.N,5V-iso*%
X146685000Y-72390000D03*
%TO.N,Gnd-iso*%
X146685000Y-69215000D03*
%TO.N,SCL-5V*%
X137160000Y-61595000D03*
%TO.N,SDA-5V*%
X137234369Y-60270913D03*
%TO.N,5V-iso*%
X135230110Y-60325524D03*
%TO.N,Gnd-iso*%
X140970000Y-55880000D03*
X139700000Y-49530000D03*
%TO.N,5V-iso*%
X138430000Y-49530000D03*
%TO.N,SCL-5V*%
X145415000Y-45085000D03*
X141605000Y-46355000D03*
%TO.N,5V-iso*%
X145415000Y-46355000D03*
%TO.N,Gnd-iso*%
X145415000Y-47625000D03*
X137795000Y-47625000D03*
%TO.N,5V-iso*%
X137795000Y-43815000D03*
%TO.N,VDD*%
X129540000Y-66040000D03*
%TO.N,GND*%
X129540000Y-64770000D03*
%TO.N,SCL*%
X132203000Y-49407000D03*
%TO.N,VDD*%
X129540000Y-45720000D03*
X133350000Y-42545000D03*
%TO.N,GND*%
X133985000Y-48895000D03*
X129540000Y-44450000D03*
X132080000Y-58949500D03*
%TO.N,VDD*%
X131931500Y-55753000D03*
%TO.N,/AIN3*%
X140271500Y-57721500D03*
%TD*%
%TA.AperFunction,Conductor*%
%TO.N,GND*%
G36*
X136468039Y-38119685D02*
G01*
X136513794Y-38172489D01*
X136525000Y-38224000D01*
X136525000Y-38550799D01*
X136505315Y-38617838D01*
X136452511Y-38663593D01*
X136383353Y-38673537D01*
X136362683Y-38668730D01*
X136329732Y-38658023D01*
X136182826Y-38610290D01*
X135988422Y-38579500D01*
X135988417Y-38579500D01*
X135791583Y-38579500D01*
X135791578Y-38579500D01*
X135597173Y-38610290D01*
X135409970Y-38671117D01*
X135234594Y-38760476D01*
X135178151Y-38801485D01*
X135075354Y-38876172D01*
X135075352Y-38876174D01*
X135075351Y-38876174D01*
X134936174Y-39015351D01*
X134936174Y-39015352D01*
X134936172Y-39015354D01*
X134886485Y-39083741D01*
X134820476Y-39174594D01*
X134730204Y-39351764D01*
X134682229Y-39402560D01*
X134614408Y-39419355D01*
X134548274Y-39396818D01*
X134509234Y-39351764D01*
X134419096Y-39174858D01*
X134393678Y-39139873D01*
X134393677Y-39139873D01*
X133750000Y-39783551D01*
X133750000Y-39777339D01*
X133722741Y-39675606D01*
X133670080Y-39584394D01*
X133595606Y-39509920D01*
X133504394Y-39457259D01*
X133402661Y-39430000D01*
X133396447Y-39430000D01*
X134040125Y-38786320D01*
X134040125Y-38786319D01*
X134005145Y-38760905D01*
X133829835Y-38671581D01*
X133642705Y-38610778D01*
X133448382Y-38580000D01*
X133251618Y-38580000D01*
X133057294Y-38610778D01*
X132870161Y-38671582D01*
X132694863Y-38760899D01*
X132694859Y-38760902D01*
X132659873Y-38786320D01*
X132659872Y-38786320D01*
X133303554Y-39430000D01*
X133297339Y-39430000D01*
X133195606Y-39457259D01*
X133104394Y-39509920D01*
X133029920Y-39584394D01*
X132977259Y-39675606D01*
X132950000Y-39777339D01*
X132950000Y-39783552D01*
X132306320Y-39139872D01*
X132306320Y-39139873D01*
X132280902Y-39174859D01*
X132280899Y-39174863D01*
X132191582Y-39350161D01*
X132130778Y-39537294D01*
X132100000Y-39731617D01*
X132100000Y-39928382D01*
X132130778Y-40122705D01*
X132191581Y-40309835D01*
X132280905Y-40485145D01*
X132306319Y-40520125D01*
X132306320Y-40520125D01*
X132950000Y-39876445D01*
X132950000Y-39882661D01*
X132977259Y-39984394D01*
X133029920Y-40075606D01*
X133104394Y-40150080D01*
X133195606Y-40202741D01*
X133297339Y-40230000D01*
X133303553Y-40230000D01*
X132659873Y-40873677D01*
X132659873Y-40873678D01*
X132694858Y-40899096D01*
X132870164Y-40988418D01*
X133057294Y-41049221D01*
X133251618Y-41080000D01*
X133448382Y-41080000D01*
X133642705Y-41049221D01*
X133829835Y-40988418D01*
X134005143Y-40899095D01*
X134040125Y-40873678D01*
X134040126Y-40873678D01*
X133396448Y-40230000D01*
X133402661Y-40230000D01*
X133504394Y-40202741D01*
X133595606Y-40150080D01*
X133670080Y-40075606D01*
X133722741Y-39984394D01*
X133750000Y-39882661D01*
X133750000Y-39876448D01*
X134393678Y-40520126D01*
X134393678Y-40520125D01*
X134419097Y-40485141D01*
X134509234Y-40308236D01*
X134557208Y-40257439D01*
X134625029Y-40240644D01*
X134691164Y-40263181D01*
X134730204Y-40308235D01*
X134731115Y-40310024D01*
X134731116Y-40310025D01*
X134820476Y-40485405D01*
X134936172Y-40644646D01*
X135075354Y-40783828D01*
X135234595Y-40899524D01*
X135317455Y-40941743D01*
X135409970Y-40988882D01*
X135409972Y-40988882D01*
X135409975Y-40988884D01*
X135510317Y-41021487D01*
X135597173Y-41049709D01*
X135791578Y-41080500D01*
X135791583Y-41080500D01*
X135988422Y-41080500D01*
X136182826Y-41049709D01*
X136184328Y-41049221D01*
X136362685Y-40991268D01*
X136432522Y-40989273D01*
X136492355Y-41025353D01*
X136523184Y-41088054D01*
X136525000Y-41109200D01*
X136525000Y-43797437D01*
X136520124Y-43831869D01*
X132706242Y-57026754D01*
X132706242Y-70001897D01*
X132686557Y-70068936D01*
X132633753Y-70114691D01*
X132582242Y-70125897D01*
X125719500Y-70125897D01*
X125652461Y-70106212D01*
X125606706Y-70053408D01*
X125595500Y-70001897D01*
X125595500Y-65961153D01*
X128739500Y-65961153D01*
X128739500Y-66118846D01*
X128770261Y-66273489D01*
X128770264Y-66273501D01*
X128830602Y-66419172D01*
X128830609Y-66419185D01*
X128918210Y-66550288D01*
X128918213Y-66550292D01*
X129029707Y-66661786D01*
X129029711Y-66661789D01*
X129160814Y-66749390D01*
X129160827Y-66749397D01*
X129306498Y-66809735D01*
X129306503Y-66809737D01*
X129461153Y-66840499D01*
X129461156Y-66840500D01*
X129461158Y-66840500D01*
X129618844Y-66840500D01*
X129618845Y-66840499D01*
X129773497Y-66809737D01*
X129919179Y-66749394D01*
X130050289Y-66661789D01*
X130161789Y-66550289D01*
X130249394Y-66419179D01*
X130309737Y-66273497D01*
X130340500Y-66118842D01*
X130340500Y-65961158D01*
X130340500Y-65961155D01*
X130340499Y-65961153D01*
X130309738Y-65806510D01*
X130309737Y-65806503D01*
X130309735Y-65806498D01*
X130249397Y-65660827D01*
X130249390Y-65660814D01*
X130161789Y-65529711D01*
X130161786Y-65529707D01*
X130050292Y-65418213D01*
X130050288Y-65418210D01*
X129919185Y-65330609D01*
X129919172Y-65330602D01*
X129773501Y-65270264D01*
X129773489Y-65270261D01*
X129618845Y-65239500D01*
X129618842Y-65239500D01*
X129461158Y-65239500D01*
X129461155Y-65239500D01*
X129306510Y-65270261D01*
X129306498Y-65270264D01*
X129160827Y-65330602D01*
X129160814Y-65330609D01*
X129029711Y-65418210D01*
X129029707Y-65418213D01*
X128918213Y-65529707D01*
X128918210Y-65529711D01*
X128830609Y-65660814D01*
X128830602Y-65660827D01*
X128770264Y-65806498D01*
X128770261Y-65806510D01*
X128739500Y-65961153D01*
X125595500Y-65961153D01*
X125595500Y-60424742D01*
X125615185Y-60357703D01*
X125667989Y-60311948D01*
X125737147Y-60302004D01*
X125800703Y-60331029D01*
X125829985Y-60368447D01*
X125844951Y-60397820D01*
X125969890Y-60569786D01*
X126120213Y-60720109D01*
X126292179Y-60845048D01*
X126292181Y-60845049D01*
X126292184Y-60845051D01*
X126481588Y-60941557D01*
X126683757Y-61007246D01*
X126893713Y-61040500D01*
X126893714Y-61040500D01*
X127106286Y-61040500D01*
X127106287Y-61040500D01*
X127316243Y-61007246D01*
X127518412Y-60941557D01*
X127707816Y-60845051D01*
X127729789Y-60829086D01*
X127879786Y-60720109D01*
X127879788Y-60720106D01*
X127879792Y-60720104D01*
X128030104Y-60569792D01*
X128030106Y-60569788D01*
X128030109Y-60569786D01*
X128155048Y-60397820D01*
X128155047Y-60397820D01*
X128155051Y-60397816D01*
X128251557Y-60208412D01*
X128317246Y-60006243D01*
X128350500Y-59796287D01*
X128350500Y-59583713D01*
X128317246Y-59373757D01*
X128251557Y-59171588D01*
X128155051Y-58982184D01*
X128155049Y-58982181D01*
X128155048Y-58982179D01*
X128030109Y-58810213D01*
X127879786Y-58659890D01*
X127707820Y-58534951D01*
X127707115Y-58534591D01*
X127699054Y-58530485D01*
X127648259Y-58482512D01*
X127631463Y-58414692D01*
X127653999Y-58348556D01*
X127699054Y-58309515D01*
X127707816Y-58305051D01*
X127729789Y-58289086D01*
X127879786Y-58180109D01*
X127879788Y-58180106D01*
X127879792Y-58180104D01*
X128030104Y-58029792D01*
X128030106Y-58029788D01*
X128030109Y-58029786D01*
X128155048Y-57857820D01*
X128155047Y-57857820D01*
X128155051Y-57857816D01*
X128251557Y-57668412D01*
X128317246Y-57466243D01*
X128350500Y-57256287D01*
X128350500Y-57043713D01*
X128317246Y-56833757D01*
X128251557Y-56631588D01*
X128155051Y-56442184D01*
X128155049Y-56442181D01*
X128155048Y-56442179D01*
X128030109Y-56270213D01*
X127879786Y-56119890D01*
X127707817Y-55994949D01*
X127698504Y-55990204D01*
X127647707Y-55942230D01*
X127630912Y-55874409D01*
X127648045Y-55816633D01*
X127724204Y-55687757D01*
X127710600Y-55674153D01*
X131131000Y-55674153D01*
X131131000Y-55831846D01*
X131161761Y-55986489D01*
X131161764Y-55986501D01*
X131222102Y-56132172D01*
X131222109Y-56132185D01*
X131309710Y-56263288D01*
X131309713Y-56263292D01*
X131421207Y-56374786D01*
X131421211Y-56374789D01*
X131552314Y-56462390D01*
X131552327Y-56462397D01*
X131683199Y-56516605D01*
X131698003Y-56522737D01*
X131852653Y-56553499D01*
X131852656Y-56553500D01*
X131852658Y-56553500D01*
X132010344Y-56553500D01*
X132010345Y-56553499D01*
X132164997Y-56522737D01*
X132310679Y-56462394D01*
X132441789Y-56374789D01*
X132553289Y-56263289D01*
X132640894Y-56132179D01*
X132701237Y-55986497D01*
X132732000Y-55831842D01*
X132732000Y-55674158D01*
X132732000Y-55674155D01*
X132731999Y-55674153D01*
X132701238Y-55519510D01*
X132701237Y-55519503D01*
X132701235Y-55519498D01*
X132640897Y-55373827D01*
X132640890Y-55373814D01*
X132553289Y-55242711D01*
X132553286Y-55242707D01*
X132441792Y-55131213D01*
X132441788Y-55131210D01*
X132310685Y-55043609D01*
X132310672Y-55043602D01*
X132165001Y-54983264D01*
X132164989Y-54983261D01*
X132010345Y-54952500D01*
X132010342Y-54952500D01*
X131852658Y-54952500D01*
X131852655Y-54952500D01*
X131698010Y-54983261D01*
X131697998Y-54983264D01*
X131552327Y-55043602D01*
X131552314Y-55043609D01*
X131421211Y-55131210D01*
X131421207Y-55131213D01*
X131309713Y-55242707D01*
X131309710Y-55242711D01*
X131222109Y-55373814D01*
X131222102Y-55373827D01*
X131161764Y-55519498D01*
X131161761Y-55519510D01*
X131131000Y-55674153D01*
X127710600Y-55674153D01*
X127129408Y-55092962D01*
X127192993Y-55075925D01*
X127307007Y-55010099D01*
X127400099Y-54917007D01*
X127465925Y-54802993D01*
X127482962Y-54739408D01*
X128115270Y-55371717D01*
X128115270Y-55371716D01*
X128154622Y-55317554D01*
X128251095Y-55128217D01*
X128316757Y-54926130D01*
X128316757Y-54926127D01*
X128350000Y-54716246D01*
X128350000Y-54503753D01*
X128316757Y-54293872D01*
X128316757Y-54293869D01*
X128251095Y-54091782D01*
X128154624Y-53902449D01*
X128115270Y-53848282D01*
X128115269Y-53848282D01*
X127482962Y-54480590D01*
X127465925Y-54417007D01*
X127400099Y-54302993D01*
X127307007Y-54209901D01*
X127192993Y-54144075D01*
X127129409Y-54127037D01*
X127799627Y-53456818D01*
X127860950Y-53423333D01*
X127887307Y-53420499D01*
X127897872Y-53420499D01*
X127957483Y-53414091D01*
X128092331Y-53363796D01*
X128207546Y-53277546D01*
X128293796Y-53162331D01*
X128344091Y-53027483D01*
X128350500Y-52967873D01*
X128350499Y-51172128D01*
X128344091Y-51112517D01*
X128293796Y-50977669D01*
X128293795Y-50977668D01*
X128293793Y-50977664D01*
X128207547Y-50862455D01*
X128207544Y-50862452D01*
X128092335Y-50776206D01*
X128092328Y-50776202D01*
X127957482Y-50725908D01*
X127957483Y-50725908D01*
X127897883Y-50719501D01*
X127897881Y-50719500D01*
X127897873Y-50719500D01*
X127897864Y-50719500D01*
X126102129Y-50719500D01*
X126102123Y-50719501D01*
X126042516Y-50725908D01*
X125907671Y-50776202D01*
X125907669Y-50776204D01*
X125793811Y-50861438D01*
X125728347Y-50885855D01*
X125660074Y-50871004D01*
X125610668Y-50821598D01*
X125595500Y-50762171D01*
X125595500Y-49328153D01*
X131402500Y-49328153D01*
X131402500Y-49485846D01*
X131433261Y-49640489D01*
X131433264Y-49640501D01*
X131493602Y-49786172D01*
X131493609Y-49786185D01*
X131581210Y-49917288D01*
X131581213Y-49917292D01*
X131692707Y-50028786D01*
X131692711Y-50028789D01*
X131823814Y-50116390D01*
X131823827Y-50116397D01*
X131969498Y-50176735D01*
X131969503Y-50176737D01*
X132124153Y-50207499D01*
X132124156Y-50207500D01*
X132124158Y-50207500D01*
X132281844Y-50207500D01*
X132281845Y-50207499D01*
X132436497Y-50176737D01*
X132582179Y-50116394D01*
X132713289Y-50028789D01*
X132824789Y-49917289D01*
X132912394Y-49786179D01*
X132972737Y-49640497D01*
X133003500Y-49485842D01*
X133003500Y-49328158D01*
X133003500Y-49328155D01*
X133003499Y-49328153D01*
X132972738Y-49173510D01*
X132972737Y-49173503D01*
X132972735Y-49173498D01*
X132912397Y-49027827D01*
X132912390Y-49027814D01*
X132824789Y-48896711D01*
X132824786Y-48896707D01*
X132713292Y-48785213D01*
X132713288Y-48785210D01*
X132582185Y-48697609D01*
X132582172Y-48697602D01*
X132436501Y-48637264D01*
X132436489Y-48637261D01*
X132281845Y-48606500D01*
X132281842Y-48606500D01*
X132124158Y-48606500D01*
X132124155Y-48606500D01*
X131969510Y-48637261D01*
X131969498Y-48637264D01*
X131823827Y-48697602D01*
X131823814Y-48697609D01*
X131692711Y-48785210D01*
X131692707Y-48785213D01*
X131581213Y-48896707D01*
X131581210Y-48896711D01*
X131493609Y-49027814D01*
X131493602Y-49027827D01*
X131433264Y-49173498D01*
X131433261Y-49173510D01*
X131402500Y-49328153D01*
X125595500Y-49328153D01*
X125595500Y-45641153D01*
X128739500Y-45641153D01*
X128739500Y-45798846D01*
X128770261Y-45953489D01*
X128770264Y-45953501D01*
X128830602Y-46099172D01*
X128830609Y-46099185D01*
X128918210Y-46230288D01*
X128918213Y-46230292D01*
X129029707Y-46341786D01*
X129029711Y-46341789D01*
X129160814Y-46429390D01*
X129160827Y-46429397D01*
X129306498Y-46489735D01*
X129306503Y-46489737D01*
X129461153Y-46520499D01*
X129461156Y-46520500D01*
X129461158Y-46520500D01*
X129618844Y-46520500D01*
X129618845Y-46520499D01*
X129773497Y-46489737D01*
X129919179Y-46429394D01*
X130050289Y-46341789D01*
X130161789Y-46230289D01*
X130249394Y-46099179D01*
X130309737Y-45953497D01*
X130340500Y-45798842D01*
X130340500Y-45641158D01*
X130340500Y-45641155D01*
X130340499Y-45641153D01*
X130309738Y-45486510D01*
X130309737Y-45486503D01*
X130309735Y-45486498D01*
X130249397Y-45340827D01*
X130249390Y-45340814D01*
X130161789Y-45209711D01*
X130161786Y-45209707D01*
X130050292Y-45098213D01*
X130050288Y-45098210D01*
X129919185Y-45010609D01*
X129919172Y-45010602D01*
X129773501Y-44950264D01*
X129773489Y-44950261D01*
X129618845Y-44919500D01*
X129618842Y-44919500D01*
X129461158Y-44919500D01*
X129461155Y-44919500D01*
X129306510Y-44950261D01*
X129306498Y-44950264D01*
X129160827Y-45010602D01*
X129160814Y-45010609D01*
X129029711Y-45098210D01*
X129029707Y-45098213D01*
X128918213Y-45209707D01*
X128918210Y-45209711D01*
X128830609Y-45340814D01*
X128830602Y-45340827D01*
X128770264Y-45486498D01*
X128770261Y-45486510D01*
X128739500Y-45641153D01*
X125595500Y-45641153D01*
X125595500Y-42466153D01*
X132549500Y-42466153D01*
X132549500Y-42623846D01*
X132580261Y-42778489D01*
X132580264Y-42778501D01*
X132640602Y-42924172D01*
X132640609Y-42924185D01*
X132728210Y-43055288D01*
X132728213Y-43055292D01*
X132839707Y-43166786D01*
X132839711Y-43166789D01*
X132970814Y-43254390D01*
X132970827Y-43254397D01*
X133116498Y-43314735D01*
X133116503Y-43314737D01*
X133271153Y-43345499D01*
X133271156Y-43345500D01*
X133271158Y-43345500D01*
X133428844Y-43345500D01*
X133428845Y-43345499D01*
X133583497Y-43314737D01*
X133729179Y-43254394D01*
X133860289Y-43166789D01*
X133971789Y-43055289D01*
X134059394Y-42924179D01*
X134119737Y-42778497D01*
X134150500Y-42623842D01*
X134150500Y-42466158D01*
X134150500Y-42466155D01*
X134150499Y-42466153D01*
X134119738Y-42311510D01*
X134119737Y-42311503D01*
X134119735Y-42311498D01*
X134059397Y-42165827D01*
X134059390Y-42165814D01*
X133971789Y-42034711D01*
X133971786Y-42034707D01*
X133860292Y-41923213D01*
X133860288Y-41923210D01*
X133729185Y-41835609D01*
X133729172Y-41835602D01*
X133583501Y-41775264D01*
X133583489Y-41775261D01*
X133428845Y-41744500D01*
X133428842Y-41744500D01*
X133271158Y-41744500D01*
X133271155Y-41744500D01*
X133116510Y-41775261D01*
X133116498Y-41775264D01*
X132970827Y-41835602D01*
X132970814Y-41835609D01*
X132839711Y-41923210D01*
X132839707Y-41923213D01*
X132728213Y-42034707D01*
X132728210Y-42034711D01*
X132640609Y-42165814D01*
X132640602Y-42165827D01*
X132580264Y-42311498D01*
X132580261Y-42311510D01*
X132549500Y-42466153D01*
X125595500Y-42466153D01*
X125595500Y-41988556D01*
X125615185Y-41921517D01*
X125651679Y-41884747D01*
X127917968Y-40404191D01*
X127984855Y-40384006D01*
X128001968Y-40385063D01*
X128119217Y-40400500D01*
X128119224Y-40400500D01*
X128420776Y-40400500D01*
X128420783Y-40400500D01*
X128719768Y-40361138D01*
X129011058Y-40283087D01*
X129289668Y-40167683D01*
X129550832Y-40016900D01*
X129790080Y-39833319D01*
X129846060Y-39777339D01*
X129984330Y-39639070D01*
X130003314Y-39620085D01*
X130003319Y-39620080D01*
X130186900Y-39380832D01*
X130337683Y-39119668D01*
X130453087Y-38841058D01*
X130471039Y-38774057D01*
X130507402Y-38714398D01*
X130522984Y-38702348D01*
X131414095Y-38120189D01*
X131480985Y-38100003D01*
X131481914Y-38100000D01*
X136401000Y-38100000D01*
X136468039Y-38119685D01*
G37*
%TD.AperFunction*%
%TA.AperFunction,Conductor*%
G36*
X126534075Y-54802993D02*
G01*
X126599901Y-54917007D01*
X126692993Y-55010099D01*
X126807007Y-55075925D01*
X126870590Y-55092962D01*
X126238282Y-55725269D01*
X126238282Y-55725270D01*
X126292452Y-55764626D01*
X126292451Y-55764626D01*
X126301495Y-55769234D01*
X126352292Y-55817208D01*
X126369087Y-55885029D01*
X126346550Y-55951164D01*
X126301499Y-55990202D01*
X126292182Y-55994949D01*
X126120213Y-56119890D01*
X125969890Y-56270213D01*
X125844949Y-56442182D01*
X125829984Y-56471553D01*
X125782009Y-56522348D01*
X125714188Y-56539143D01*
X125648054Y-56516605D01*
X125604603Y-56461889D01*
X125595500Y-56415257D01*
X125595500Y-55343640D01*
X125615185Y-55276601D01*
X125667989Y-55230846D01*
X125737147Y-55220902D01*
X125800703Y-55249927D01*
X125829985Y-55287345D01*
X125845375Y-55317550D01*
X125884728Y-55371716D01*
X126517037Y-54739408D01*
X126534075Y-54802993D01*
G37*
%TD.AperFunction*%
%TA.AperFunction,Conductor*%
G36*
X125793811Y-53278562D02*
G01*
X125907664Y-53363793D01*
X125907671Y-53363797D01*
X125945291Y-53377828D01*
X126042517Y-53414091D01*
X126102127Y-53420500D01*
X126112685Y-53420499D01*
X126179723Y-53440179D01*
X126200372Y-53456818D01*
X126870591Y-54127037D01*
X126807007Y-54144075D01*
X126692993Y-54209901D01*
X126599901Y-54302993D01*
X126534075Y-54417007D01*
X126517037Y-54480591D01*
X125884728Y-53848282D01*
X125884727Y-53848282D01*
X125845380Y-53902440D01*
X125845378Y-53902443D01*
X125829984Y-53932656D01*
X125782009Y-53983451D01*
X125714188Y-54000246D01*
X125648054Y-53977708D01*
X125604603Y-53922993D01*
X125595500Y-53876360D01*
X125595500Y-53377828D01*
X125615185Y-53310789D01*
X125667989Y-53265034D01*
X125737147Y-53255090D01*
X125793811Y-53278562D01*
G37*
%TD.AperFunction*%
%TD*%
%TA.AperFunction,Conductor*%
%TO.N,Gnd-iso*%
G36*
X143692539Y-38119685D02*
G01*
X143738294Y-38172489D01*
X143749500Y-38224000D01*
X143749500Y-38250776D01*
X143749501Y-38250793D01*
X143788861Y-38549766D01*
X143866913Y-38841060D01*
X143982314Y-39119661D01*
X143982318Y-39119671D01*
X144133099Y-39380831D01*
X144316679Y-39620078D01*
X144316685Y-39620085D01*
X144529914Y-39833314D01*
X144529921Y-39833320D01*
X144769168Y-40016900D01*
X145030328Y-40167681D01*
X145030329Y-40167681D01*
X145030332Y-40167683D01*
X145216072Y-40244619D01*
X145308939Y-40283086D01*
X145308940Y-40283086D01*
X145308942Y-40283087D01*
X145600232Y-40361138D01*
X145899217Y-40400500D01*
X145899224Y-40400500D01*
X146200776Y-40400500D01*
X146200783Y-40400500D01*
X146499768Y-40361138D01*
X146791058Y-40283087D01*
X147069668Y-40167683D01*
X147330832Y-40016900D01*
X147570080Y-39833319D01*
X147783319Y-39620080D01*
X147966900Y-39380832D01*
X148104613Y-39142306D01*
X148155180Y-39094090D01*
X148223787Y-39080867D01*
X148288652Y-39106835D01*
X148329180Y-39163749D01*
X148336000Y-39204306D01*
X148336000Y-50595500D01*
X148316315Y-50662539D01*
X148263511Y-50708294D01*
X148212000Y-50719500D01*
X146422129Y-50719500D01*
X146422123Y-50719501D01*
X146362516Y-50725908D01*
X146227671Y-50776202D01*
X146227664Y-50776206D01*
X146112455Y-50862452D01*
X146112452Y-50862455D01*
X146026206Y-50977664D01*
X146026202Y-50977671D01*
X145975908Y-51112517D01*
X145969501Y-51172116D01*
X145969500Y-51172135D01*
X145969500Y-52967870D01*
X145969501Y-52967876D01*
X145975908Y-53027483D01*
X146026202Y-53162328D01*
X146026206Y-53162335D01*
X146112452Y-53277544D01*
X146112455Y-53277547D01*
X146227664Y-53363793D01*
X146227671Y-53363797D01*
X146265291Y-53377828D01*
X146362517Y-53414091D01*
X146422127Y-53420500D01*
X146432685Y-53420499D01*
X146499723Y-53440179D01*
X146520372Y-53456818D01*
X147190591Y-54127037D01*
X147127007Y-54144075D01*
X147012993Y-54209901D01*
X146919901Y-54302993D01*
X146854075Y-54417007D01*
X146837037Y-54480591D01*
X146204728Y-53848282D01*
X146204727Y-53848282D01*
X146165380Y-53902439D01*
X146068904Y-54091782D01*
X146003242Y-54293869D01*
X146003242Y-54293872D01*
X145970000Y-54503753D01*
X145970000Y-54716246D01*
X146003242Y-54926127D01*
X146003242Y-54926130D01*
X146068904Y-55128217D01*
X146165375Y-55317550D01*
X146204728Y-55371716D01*
X146837037Y-54739408D01*
X146854075Y-54802993D01*
X146919901Y-54917007D01*
X147012993Y-55010099D01*
X147127007Y-55075925D01*
X147190589Y-55092962D01*
X146558282Y-55725269D01*
X146558282Y-55725270D01*
X146612452Y-55764626D01*
X146612451Y-55764626D01*
X146621495Y-55769234D01*
X146672292Y-55817208D01*
X146689087Y-55885029D01*
X146666550Y-55951164D01*
X146621499Y-55990202D01*
X146612182Y-55994949D01*
X146440213Y-56119890D01*
X146289890Y-56270213D01*
X146164951Y-56442179D01*
X146068444Y-56631585D01*
X146002753Y-56833760D01*
X145984063Y-56951764D01*
X145969500Y-57043713D01*
X145969500Y-57256287D01*
X145976769Y-57302183D01*
X145983126Y-57342321D01*
X146002754Y-57466243D01*
X146062546Y-57650264D01*
X146068444Y-57668414D01*
X146164951Y-57857820D01*
X146289890Y-58029786D01*
X146440213Y-58180109D01*
X146612182Y-58305050D01*
X146620946Y-58309516D01*
X146671742Y-58357491D01*
X146688536Y-58425312D01*
X146665998Y-58491447D01*
X146620946Y-58530484D01*
X146612182Y-58534949D01*
X146440215Y-58659889D01*
X146343453Y-58756651D01*
X146282129Y-58790135D01*
X146212438Y-58785151D01*
X146156505Y-58743279D01*
X146141211Y-58716423D01*
X146124394Y-58675821D01*
X146124390Y-58675814D01*
X146036789Y-58544711D01*
X146036786Y-58544707D01*
X145925292Y-58433213D01*
X145925288Y-58433210D01*
X145794185Y-58345609D01*
X145794172Y-58345602D01*
X145648501Y-58285264D01*
X145648489Y-58285261D01*
X145493845Y-58254500D01*
X145493842Y-58254500D01*
X145336158Y-58254500D01*
X145336155Y-58254500D01*
X145181510Y-58285261D01*
X145181498Y-58285264D01*
X145035827Y-58345602D01*
X145035814Y-58345609D01*
X144904711Y-58433210D01*
X144904707Y-58433213D01*
X144793213Y-58544707D01*
X144793210Y-58544711D01*
X144705609Y-58675814D01*
X144705602Y-58675827D01*
X144645264Y-58821498D01*
X144645261Y-58821510D01*
X144614500Y-58976153D01*
X144614500Y-59133846D01*
X144645261Y-59288489D01*
X144645264Y-59288501D01*
X144705602Y-59434172D01*
X144705609Y-59434185D01*
X144793210Y-59565288D01*
X144793213Y-59565292D01*
X144904707Y-59676786D01*
X144904711Y-59676789D01*
X145035814Y-59764390D01*
X145035827Y-59764397D01*
X145158553Y-59815231D01*
X145181503Y-59824737D01*
X145336153Y-59855499D01*
X145336156Y-59855500D01*
X145336158Y-59855500D01*
X145493844Y-59855500D01*
X145493845Y-59855499D01*
X145648497Y-59824737D01*
X145794179Y-59764394D01*
X145794184Y-59764390D01*
X145797482Y-59762628D01*
X145799416Y-59762224D01*
X145799808Y-59762063D01*
X145799838Y-59762137D01*
X145865883Y-59748381D01*
X145931129Y-59773376D01*
X145972504Y-59829678D01*
X145978416Y-59852584D01*
X145993267Y-59946345D01*
X146002754Y-60006243D01*
X146065149Y-60198275D01*
X146068444Y-60208414D01*
X146164951Y-60397820D01*
X146289890Y-60569786D01*
X146440213Y-60720109D01*
X146612182Y-60845050D01*
X146620946Y-60849516D01*
X146671742Y-60897491D01*
X146688536Y-60965312D01*
X146665998Y-61031447D01*
X146620946Y-61070484D01*
X146612182Y-61074949D01*
X146440213Y-61199890D01*
X146289890Y-61350213D01*
X146164951Y-61522179D01*
X146068444Y-61711585D01*
X146002753Y-61913760D01*
X145969500Y-62123713D01*
X145969500Y-62336286D01*
X146002753Y-62546239D01*
X146068444Y-62748414D01*
X146164951Y-62937820D01*
X146289890Y-63109786D01*
X146440213Y-63260109D01*
X146612182Y-63385050D01*
X146620946Y-63389516D01*
X146671742Y-63437491D01*
X146688536Y-63505312D01*
X146665998Y-63571447D01*
X146620946Y-63610484D01*
X146612182Y-63614949D01*
X146440213Y-63739890D01*
X146289890Y-63890213D01*
X146164951Y-64062179D01*
X146068444Y-64251585D01*
X146002753Y-64453760D01*
X145969500Y-64663713D01*
X145969500Y-64876286D01*
X146002753Y-65086239D01*
X146068444Y-65288414D01*
X146164951Y-65477820D01*
X146289890Y-65649786D01*
X146440213Y-65800109D01*
X146612179Y-65925048D01*
X146612181Y-65925049D01*
X146612184Y-65925051D01*
X146801588Y-66021557D01*
X147003757Y-66087246D01*
X147213713Y-66120500D01*
X147213714Y-66120500D01*
X147426286Y-66120500D01*
X147426287Y-66120500D01*
X147636243Y-66087246D01*
X147838412Y-66021557D01*
X148027816Y-65925051D01*
X148061934Y-65900263D01*
X148139115Y-65844189D01*
X148204922Y-65820709D01*
X148272975Y-65836535D01*
X148321670Y-65886641D01*
X148336000Y-65944507D01*
X148336000Y-73155000D01*
X148316315Y-73222039D01*
X148263511Y-73267794D01*
X148212000Y-73279000D01*
X147204153Y-73279000D01*
X147137114Y-73259315D01*
X147091359Y-73206511D01*
X147081415Y-73137353D01*
X147110440Y-73073797D01*
X147135262Y-73051898D01*
X147195289Y-73011789D01*
X147306786Y-72900292D01*
X147306789Y-72900289D01*
X147394394Y-72769179D01*
X147454737Y-72623497D01*
X147485500Y-72468842D01*
X147485500Y-72311158D01*
X147485500Y-72311155D01*
X147485499Y-72311153D01*
X147454738Y-72156510D01*
X147454737Y-72156503D01*
X147454735Y-72156498D01*
X147394397Y-72010827D01*
X147394390Y-72010814D01*
X147306789Y-71879711D01*
X147306786Y-71879707D01*
X147195292Y-71768213D01*
X147195288Y-71768210D01*
X147064185Y-71680609D01*
X147064172Y-71680602D01*
X146918501Y-71620264D01*
X146918489Y-71620261D01*
X146763845Y-71589500D01*
X146763842Y-71589500D01*
X146606158Y-71589500D01*
X146606155Y-71589500D01*
X146451510Y-71620261D01*
X146451498Y-71620264D01*
X146305827Y-71680602D01*
X146305814Y-71680609D01*
X146174711Y-71768210D01*
X146174707Y-71768213D01*
X146063213Y-71879707D01*
X146063210Y-71879711D01*
X145975609Y-72010814D01*
X145975602Y-72010827D01*
X145915264Y-72156498D01*
X145915261Y-72156510D01*
X145884500Y-72311153D01*
X145884500Y-72468846D01*
X145915261Y-72623489D01*
X145915264Y-72623501D01*
X145975602Y-72769172D01*
X145975609Y-72769185D01*
X146063210Y-72900288D01*
X146063213Y-72900292D01*
X146174710Y-73011789D01*
X146234738Y-73051898D01*
X146279543Y-73105510D01*
X146288250Y-73174835D01*
X146258096Y-73237862D01*
X146198653Y-73274582D01*
X146165847Y-73279000D01*
X133474000Y-73279000D01*
X133406961Y-73259315D01*
X133361206Y-73206511D01*
X133350000Y-73155000D01*
X133350000Y-61516153D01*
X136359500Y-61516153D01*
X136359500Y-61673846D01*
X136390261Y-61828489D01*
X136390264Y-61828501D01*
X136450602Y-61974172D01*
X136450609Y-61974185D01*
X136538210Y-62105288D01*
X136538213Y-62105292D01*
X136649707Y-62216786D01*
X136649711Y-62216789D01*
X136780814Y-62304390D01*
X136780827Y-62304397D01*
X136926498Y-62364735D01*
X136926503Y-62364737D01*
X137081153Y-62395499D01*
X137081156Y-62395500D01*
X137081158Y-62395500D01*
X137238844Y-62395500D01*
X137238845Y-62395499D01*
X137393497Y-62364737D01*
X137539179Y-62304394D01*
X137670289Y-62216789D01*
X137781789Y-62105289D01*
X137869394Y-61974179D01*
X137929737Y-61828497D01*
X137960500Y-61673842D01*
X137960500Y-61516158D01*
X137960500Y-61516155D01*
X137960499Y-61516153D01*
X137929738Y-61361510D01*
X137929737Y-61361503D01*
X137925061Y-61350213D01*
X137869397Y-61215827D01*
X137869390Y-61215814D01*
X137781789Y-61084711D01*
X137781786Y-61084707D01*
X137754901Y-61057822D01*
X137721416Y-60996499D01*
X137726400Y-60926807D01*
X137754901Y-60882460D01*
X137856155Y-60781205D01*
X137856158Y-60781202D01*
X137943763Y-60650092D01*
X138004106Y-60504410D01*
X138034240Y-60352918D01*
X141332735Y-60352918D01*
X141332735Y-60510611D01*
X141363496Y-60665254D01*
X141363499Y-60665266D01*
X141423837Y-60810937D01*
X141423844Y-60810950D01*
X141511445Y-60942053D01*
X141511448Y-60942057D01*
X141622942Y-61053551D01*
X141622946Y-61053554D01*
X141754049Y-61141155D01*
X141754062Y-61141162D01*
X141895846Y-61199890D01*
X141899738Y-61201502D01*
X142054388Y-61232264D01*
X142054391Y-61232265D01*
X142054393Y-61232265D01*
X142212079Y-61232265D01*
X142212080Y-61232264D01*
X142366732Y-61201502D01*
X142512414Y-61141159D01*
X142643524Y-61053554D01*
X142755024Y-60942054D01*
X142842629Y-60810944D01*
X142902972Y-60665262D01*
X142933735Y-60510607D01*
X142933735Y-60352923D01*
X142933735Y-60352920D01*
X142933734Y-60352918D01*
X142912602Y-60246682D01*
X142902972Y-60198268D01*
X142900403Y-60192066D01*
X142842632Y-60052592D01*
X142842625Y-60052579D01*
X142755024Y-59921476D01*
X142755021Y-59921472D01*
X142643527Y-59809978D01*
X142643523Y-59809975D01*
X142512420Y-59722374D01*
X142512407Y-59722367D01*
X142366736Y-59662029D01*
X142366724Y-59662026D01*
X142212080Y-59631265D01*
X142212077Y-59631265D01*
X142054393Y-59631265D01*
X142054390Y-59631265D01*
X141899745Y-59662026D01*
X141899733Y-59662029D01*
X141754062Y-59722367D01*
X141754049Y-59722374D01*
X141622946Y-59809975D01*
X141622942Y-59809978D01*
X141511448Y-59921472D01*
X141511445Y-59921476D01*
X141423844Y-60052579D01*
X141423837Y-60052592D01*
X141363499Y-60198263D01*
X141363496Y-60198275D01*
X141332735Y-60352918D01*
X138034240Y-60352918D01*
X138034869Y-60349755D01*
X138034869Y-60192071D01*
X138034869Y-60192068D01*
X138034868Y-60192066D01*
X138004106Y-60037416D01*
X137966386Y-59946351D01*
X137943766Y-59891740D01*
X137943759Y-59891727D01*
X137856158Y-59760624D01*
X137856155Y-59760620D01*
X137744661Y-59649126D01*
X137744657Y-59649123D01*
X137613554Y-59561522D01*
X137613541Y-59561515D01*
X137467870Y-59501177D01*
X137467858Y-59501174D01*
X137313214Y-59470413D01*
X137313211Y-59470413D01*
X137155527Y-59470413D01*
X137155524Y-59470413D01*
X137000879Y-59501174D01*
X137000867Y-59501177D01*
X136855196Y-59561515D01*
X136855183Y-59561522D01*
X136724080Y-59649123D01*
X136724076Y-59649126D01*
X136612582Y-59760620D01*
X136612579Y-59760624D01*
X136524978Y-59891727D01*
X136524971Y-59891740D01*
X136464633Y-60037411D01*
X136464630Y-60037423D01*
X136433869Y-60192066D01*
X136433869Y-60349759D01*
X136464630Y-60504402D01*
X136464633Y-60504414D01*
X136524971Y-60650085D01*
X136524978Y-60650098D01*
X136612579Y-60781201D01*
X136612582Y-60781205D01*
X136639468Y-60808091D01*
X136672953Y-60869414D01*
X136667969Y-60939106D01*
X136639468Y-60983453D01*
X136538213Y-61084707D01*
X136538210Y-61084711D01*
X136450609Y-61215814D01*
X136450602Y-61215827D01*
X136390264Y-61361498D01*
X136390261Y-61361510D01*
X136359500Y-61516153D01*
X133350000Y-61516153D01*
X133350000Y-60246677D01*
X134429610Y-60246677D01*
X134429610Y-60404370D01*
X134460371Y-60559013D01*
X134460374Y-60559025D01*
X134520712Y-60704696D01*
X134520719Y-60704709D01*
X134608320Y-60835812D01*
X134608323Y-60835816D01*
X134719817Y-60947310D01*
X134719821Y-60947313D01*
X134850924Y-61034914D01*
X134850937Y-61034921D01*
X134996608Y-61095259D01*
X134996613Y-61095261D01*
X135151263Y-61126023D01*
X135151266Y-61126024D01*
X135151268Y-61126024D01*
X135308954Y-61126024D01*
X135308955Y-61126023D01*
X135463607Y-61095261D01*
X135609289Y-61034918D01*
X135740399Y-60947313D01*
X135851899Y-60835813D01*
X135939504Y-60704703D01*
X135999847Y-60559021D01*
X136030610Y-60404366D01*
X136030610Y-60246682D01*
X136030610Y-60246679D01*
X136030609Y-60246677D01*
X136022998Y-60208414D01*
X135999847Y-60092027D01*
X135983507Y-60052579D01*
X135939507Y-59946351D01*
X135939500Y-59946338D01*
X135851899Y-59815235D01*
X135851896Y-59815231D01*
X135740402Y-59703737D01*
X135740398Y-59703734D01*
X135609295Y-59616133D01*
X135609282Y-59616126D01*
X135463611Y-59555788D01*
X135463599Y-59555785D01*
X135308955Y-59525024D01*
X135308952Y-59525024D01*
X135151268Y-59525024D01*
X135151265Y-59525024D01*
X134996620Y-59555785D01*
X134996608Y-59555788D01*
X134850937Y-59616126D01*
X134850924Y-59616133D01*
X134719821Y-59703734D01*
X134719817Y-59703737D01*
X134608323Y-59815231D01*
X134608320Y-59815235D01*
X134520719Y-59946338D01*
X134520712Y-59946351D01*
X134460374Y-60092022D01*
X134460371Y-60092034D01*
X134429610Y-60246677D01*
X133350000Y-60246677D01*
X133350000Y-58341153D01*
X137629500Y-58341153D01*
X137629500Y-58498846D01*
X137660261Y-58653489D01*
X137660264Y-58653501D01*
X137720602Y-58799172D01*
X137720609Y-58799185D01*
X137808210Y-58930288D01*
X137808213Y-58930292D01*
X137919707Y-59041786D01*
X137919711Y-59041789D01*
X138050814Y-59129390D01*
X138050827Y-59129397D01*
X138152687Y-59171588D01*
X138196503Y-59189737D01*
X138351153Y-59220499D01*
X138351156Y-59220500D01*
X138351158Y-59220500D01*
X138508844Y-59220500D01*
X138508845Y-59220499D01*
X138663497Y-59189737D01*
X138798436Y-59133844D01*
X138809172Y-59129397D01*
X138809172Y-59129396D01*
X138809179Y-59129394D01*
X138940289Y-59041789D01*
X139005925Y-58976153D01*
X142709500Y-58976153D01*
X142709500Y-59133846D01*
X142740261Y-59288489D01*
X142740264Y-59288501D01*
X142800602Y-59434172D01*
X142800609Y-59434185D01*
X142888210Y-59565288D01*
X142888213Y-59565292D01*
X142999707Y-59676786D01*
X142999711Y-59676789D01*
X143130814Y-59764390D01*
X143130827Y-59764397D01*
X143253553Y-59815231D01*
X143276503Y-59824737D01*
X143431153Y-59855499D01*
X143431156Y-59855500D01*
X143431158Y-59855500D01*
X143588844Y-59855500D01*
X143588845Y-59855499D01*
X143743497Y-59824737D01*
X143889179Y-59764394D01*
X144020289Y-59676789D01*
X144131789Y-59565289D01*
X144219394Y-59434179D01*
X144229640Y-59409444D01*
X144279735Y-59288501D01*
X144279737Y-59288497D01*
X144310500Y-59133842D01*
X144310500Y-58976158D01*
X144310500Y-58976155D01*
X144310499Y-58976153D01*
X144279737Y-58821503D01*
X144279735Y-58821498D01*
X144219397Y-58675827D01*
X144219390Y-58675814D01*
X144131789Y-58544711D01*
X144131786Y-58544707D01*
X144020292Y-58433213D01*
X144020288Y-58433210D01*
X143889185Y-58345609D01*
X143889172Y-58345602D01*
X143743501Y-58285264D01*
X143743489Y-58285261D01*
X143588845Y-58254500D01*
X143588842Y-58254500D01*
X143431158Y-58254500D01*
X143431155Y-58254500D01*
X143276510Y-58285261D01*
X143276498Y-58285264D01*
X143130827Y-58345602D01*
X143130814Y-58345609D01*
X142999711Y-58433210D01*
X142999707Y-58433213D01*
X142888213Y-58544707D01*
X142888210Y-58544711D01*
X142800609Y-58675814D01*
X142800602Y-58675827D01*
X142740264Y-58821498D01*
X142740261Y-58821510D01*
X142709500Y-58976153D01*
X139005925Y-58976153D01*
X139051789Y-58930289D01*
X139063663Y-58912519D01*
X139071243Y-58901175D01*
X139139390Y-58799185D01*
X139139390Y-58799184D01*
X139139394Y-58799179D01*
X139199737Y-58653497D01*
X139230500Y-58498842D01*
X139230500Y-58341158D01*
X139230500Y-58341155D01*
X139230499Y-58341153D01*
X139219381Y-58285261D01*
X139199737Y-58186503D01*
X139197089Y-58180109D01*
X139139397Y-58040827D01*
X139139390Y-58040814D01*
X139051789Y-57909711D01*
X139051786Y-57909707D01*
X138940292Y-57798213D01*
X138940288Y-57798210D01*
X138852674Y-57739668D01*
X138809185Y-57710609D01*
X138809172Y-57710602D01*
X138663501Y-57650264D01*
X138663489Y-57650261D01*
X138625241Y-57642653D01*
X139471000Y-57642653D01*
X139471000Y-57800346D01*
X139501761Y-57954989D01*
X139501764Y-57955001D01*
X139562102Y-58100672D01*
X139562109Y-58100685D01*
X139649710Y-58231788D01*
X139649713Y-58231792D01*
X139761207Y-58343286D01*
X139761211Y-58343289D01*
X139892314Y-58430890D01*
X139892327Y-58430897D01*
X140037998Y-58491235D01*
X140038003Y-58491237D01*
X140192653Y-58521999D01*
X140192656Y-58522000D01*
X140192658Y-58522000D01*
X140350344Y-58522000D01*
X140350345Y-58521999D01*
X140504997Y-58491237D01*
X140632454Y-58438443D01*
X140650672Y-58430897D01*
X140650672Y-58430896D01*
X140650679Y-58430894D01*
X140781789Y-58343289D01*
X140893289Y-58231789D01*
X140980894Y-58100679D01*
X141041237Y-57954997D01*
X141072000Y-57800342D01*
X141072000Y-57642658D01*
X141072000Y-57642655D01*
X141071999Y-57642653D01*
X141041237Y-57488003D01*
X141000609Y-57389917D01*
X140980897Y-57342327D01*
X140980890Y-57342314D01*
X140893289Y-57211211D01*
X140893286Y-57211207D01*
X140781792Y-57099713D01*
X140781788Y-57099710D01*
X140650685Y-57012109D01*
X140650672Y-57012102D01*
X140505001Y-56951764D01*
X140504989Y-56951761D01*
X140350345Y-56921000D01*
X140350342Y-56921000D01*
X140192658Y-56921000D01*
X140192655Y-56921000D01*
X140038010Y-56951761D01*
X140037998Y-56951764D01*
X139892327Y-57012102D01*
X139892314Y-57012109D01*
X139761211Y-57099710D01*
X139761207Y-57099713D01*
X139649713Y-57211207D01*
X139649710Y-57211211D01*
X139562109Y-57342314D01*
X139562102Y-57342327D01*
X139501764Y-57487998D01*
X139501761Y-57488010D01*
X139471000Y-57642653D01*
X138625241Y-57642653D01*
X138508845Y-57619500D01*
X138508842Y-57619500D01*
X138351158Y-57619500D01*
X138351155Y-57619500D01*
X138196510Y-57650261D01*
X138196498Y-57650264D01*
X138050827Y-57710602D01*
X138050814Y-57710609D01*
X137919711Y-57798210D01*
X137919707Y-57798213D01*
X137808213Y-57909707D01*
X137808210Y-57909711D01*
X137720609Y-58040814D01*
X137720602Y-58040827D01*
X137660264Y-58186498D01*
X137660261Y-58186510D01*
X137629500Y-58341153D01*
X133350000Y-58341153D01*
X133350000Y-57167856D01*
X133355039Y-57132867D01*
X133408305Y-56951764D01*
X134120249Y-54531153D01*
X142074500Y-54531153D01*
X142074500Y-54688846D01*
X142105261Y-54843489D01*
X142105264Y-54843501D01*
X142165602Y-54989172D01*
X142165609Y-54989185D01*
X142253210Y-55120288D01*
X142253213Y-55120292D01*
X142290240Y-55157319D01*
X142323725Y-55218642D01*
X142318741Y-55288334D01*
X142290240Y-55332681D01*
X142253213Y-55369707D01*
X142253210Y-55369711D01*
X142165609Y-55500814D01*
X142165602Y-55500827D01*
X142105264Y-55646498D01*
X142105261Y-55646510D01*
X142074500Y-55801153D01*
X142074500Y-55958846D01*
X142105261Y-56113489D01*
X142105264Y-56113501D01*
X142165602Y-56259172D01*
X142165609Y-56259185D01*
X142253210Y-56390288D01*
X142253213Y-56390292D01*
X142364707Y-56501786D01*
X142364711Y-56501789D01*
X142495814Y-56589390D01*
X142495827Y-56589397D01*
X142597687Y-56631588D01*
X142641503Y-56649737D01*
X142796153Y-56680499D01*
X142796156Y-56680500D01*
X142796158Y-56680500D01*
X142953844Y-56680500D01*
X142953845Y-56680499D01*
X143108497Y-56649737D01*
X143254179Y-56589394D01*
X143385289Y-56501789D01*
X143496789Y-56390289D01*
X143584394Y-56259179D01*
X143644737Y-56113497D01*
X143675500Y-55958842D01*
X143675500Y-55801158D01*
X143675500Y-55801155D01*
X143675499Y-55801153D01*
X143675170Y-55799500D01*
X143644737Y-55646503D01*
X143593936Y-55523857D01*
X143584397Y-55500827D01*
X143584390Y-55500814D01*
X143496789Y-55369711D01*
X143496786Y-55369707D01*
X143459760Y-55332681D01*
X143426275Y-55271358D01*
X143431259Y-55201666D01*
X143459760Y-55157319D01*
X143496786Y-55120292D01*
X143496789Y-55120289D01*
X143584394Y-54989179D01*
X143644737Y-54843497D01*
X143675500Y-54688842D01*
X143675500Y-54531158D01*
X143673460Y-54520904D01*
X143650776Y-54406865D01*
X143644737Y-54376503D01*
X143631913Y-54345542D01*
X143584397Y-54230827D01*
X143584390Y-54230814D01*
X143496789Y-54099711D01*
X143496786Y-54099707D01*
X143385292Y-53988213D01*
X143385288Y-53988210D01*
X143254185Y-53900609D01*
X143254172Y-53900602D01*
X143108501Y-53840264D01*
X143108489Y-53840261D01*
X142953845Y-53809500D01*
X142953842Y-53809500D01*
X142796158Y-53809500D01*
X142796155Y-53809500D01*
X142641510Y-53840261D01*
X142641498Y-53840264D01*
X142495827Y-53900602D01*
X142495814Y-53900609D01*
X142364711Y-53988210D01*
X142364707Y-53988213D01*
X142253213Y-54099707D01*
X142253210Y-54099711D01*
X142165609Y-54230814D01*
X142165602Y-54230827D01*
X142105264Y-54376498D01*
X142105261Y-54376510D01*
X142074500Y-54531153D01*
X134120249Y-54531153D01*
X134867308Y-51991153D01*
X142074500Y-51991153D01*
X142074500Y-52148846D01*
X142105261Y-52303489D01*
X142105264Y-52303501D01*
X142165602Y-52449172D01*
X142165609Y-52449185D01*
X142253210Y-52580288D01*
X142253213Y-52580292D01*
X142364707Y-52691786D01*
X142364711Y-52691789D01*
X142495814Y-52779390D01*
X142495827Y-52779397D01*
X142641498Y-52839735D01*
X142641503Y-52839737D01*
X142796153Y-52870499D01*
X142796156Y-52870500D01*
X142796158Y-52870500D01*
X142953844Y-52870500D01*
X142953845Y-52870499D01*
X143108497Y-52839737D01*
X143254179Y-52779394D01*
X143385289Y-52691789D01*
X143496789Y-52580289D01*
X143584394Y-52449179D01*
X143644737Y-52303497D01*
X143675500Y-52148842D01*
X143675500Y-51991158D01*
X143675500Y-51991155D01*
X143675499Y-51991153D01*
X143644738Y-51836510D01*
X143644737Y-51836503D01*
X143644735Y-51836498D01*
X143584397Y-51690827D01*
X143584390Y-51690814D01*
X143496789Y-51559711D01*
X143496786Y-51559707D01*
X143385292Y-51448213D01*
X143385288Y-51448210D01*
X143254185Y-51360609D01*
X143254172Y-51360602D01*
X143108501Y-51300264D01*
X143108489Y-51300261D01*
X142953845Y-51269500D01*
X142953842Y-51269500D01*
X142796158Y-51269500D01*
X142796155Y-51269500D01*
X142641510Y-51300261D01*
X142641498Y-51300264D01*
X142495827Y-51360602D01*
X142495814Y-51360609D01*
X142364711Y-51448210D01*
X142364707Y-51448213D01*
X142253213Y-51559707D01*
X142253210Y-51559711D01*
X142165609Y-51690814D01*
X142165602Y-51690827D01*
X142105264Y-51836498D01*
X142105261Y-51836510D01*
X142074500Y-51991153D01*
X134867308Y-51991153D01*
X135522503Y-49763489D01*
X135614367Y-49451153D01*
X137629500Y-49451153D01*
X137629500Y-49608846D01*
X137660261Y-49763489D01*
X137660264Y-49763501D01*
X137720602Y-49909172D01*
X137720609Y-49909185D01*
X137808210Y-50040288D01*
X137808213Y-50040292D01*
X137919707Y-50151786D01*
X137919711Y-50151789D01*
X138050814Y-50239390D01*
X138050827Y-50239397D01*
X138196498Y-50299735D01*
X138196503Y-50299737D01*
X138351153Y-50330499D01*
X138351156Y-50330500D01*
X138351158Y-50330500D01*
X138508844Y-50330500D01*
X138508845Y-50330499D01*
X138663497Y-50299737D01*
X138809179Y-50239394D01*
X138940289Y-50151789D01*
X139051789Y-50040289D01*
X139139394Y-49909179D01*
X139199737Y-49763497D01*
X139230500Y-49608842D01*
X139230500Y-49451158D01*
X139230500Y-49451155D01*
X139230499Y-49451153D01*
X139199738Y-49296510D01*
X139199737Y-49296503D01*
X139187626Y-49267264D01*
X139139397Y-49150827D01*
X139139390Y-49150814D01*
X139051789Y-49019711D01*
X139051786Y-49019707D01*
X138940292Y-48908213D01*
X138940288Y-48908210D01*
X138809185Y-48820609D01*
X138809172Y-48820602D01*
X138663501Y-48760264D01*
X138663489Y-48760261D01*
X138508845Y-48729500D01*
X138508842Y-48729500D01*
X138351158Y-48729500D01*
X138351155Y-48729500D01*
X138196510Y-48760261D01*
X138196498Y-48760264D01*
X138050827Y-48820602D01*
X138050814Y-48820609D01*
X137919711Y-48908210D01*
X137919707Y-48908213D01*
X137808213Y-49019707D01*
X137808210Y-49019711D01*
X137720609Y-49150814D01*
X137720602Y-49150827D01*
X137660264Y-49296498D01*
X137660261Y-49296510D01*
X137629500Y-49451153D01*
X135614367Y-49451153D01*
X135626448Y-49410077D01*
X136525000Y-46355001D01*
X136525000Y-46276153D01*
X140804500Y-46276153D01*
X140804500Y-46433846D01*
X140835261Y-46588489D01*
X140835264Y-46588501D01*
X140895602Y-46734172D01*
X140895609Y-46734185D01*
X140983210Y-46865288D01*
X140983213Y-46865292D01*
X141094707Y-46976786D01*
X141094711Y-46976789D01*
X141225814Y-47064390D01*
X141225827Y-47064397D01*
X141371498Y-47124735D01*
X141371503Y-47124737D01*
X141526153Y-47155499D01*
X141526156Y-47155500D01*
X141526158Y-47155500D01*
X141683844Y-47155500D01*
X141683845Y-47155499D01*
X141838497Y-47124737D01*
X141984179Y-47064394D01*
X142115289Y-46976789D01*
X142226789Y-46865289D01*
X142314394Y-46734179D01*
X142374737Y-46588497D01*
X142405500Y-46433842D01*
X142405500Y-46276158D01*
X142405500Y-46276155D01*
X142405499Y-46276153D01*
X142374738Y-46121510D01*
X142374737Y-46121503D01*
X142374735Y-46121498D01*
X142314397Y-45975827D01*
X142314390Y-45975814D01*
X142226789Y-45844711D01*
X142226786Y-45844707D01*
X142115292Y-45733213D01*
X142115288Y-45733210D01*
X141984185Y-45645609D01*
X141984172Y-45645602D01*
X141838501Y-45585264D01*
X141838489Y-45585261D01*
X141683845Y-45554500D01*
X141683842Y-45554500D01*
X141526158Y-45554500D01*
X141526155Y-45554500D01*
X141371510Y-45585261D01*
X141371498Y-45585264D01*
X141225827Y-45645602D01*
X141225814Y-45645609D01*
X141094711Y-45733210D01*
X141094707Y-45733213D01*
X140983213Y-45844707D01*
X140983210Y-45844711D01*
X140895609Y-45975814D01*
X140895602Y-45975827D01*
X140835264Y-46121498D01*
X140835261Y-46121510D01*
X140804500Y-46276153D01*
X136525000Y-46276153D01*
X136525000Y-45653029D01*
X136529876Y-45618597D01*
X136574508Y-45464185D01*
X136706898Y-45006153D01*
X144614500Y-45006153D01*
X144614500Y-45163846D01*
X144645261Y-45318489D01*
X144645264Y-45318501D01*
X144705602Y-45464172D01*
X144705609Y-45464185D01*
X144793210Y-45595288D01*
X144793213Y-45595292D01*
X144830240Y-45632319D01*
X144863725Y-45693642D01*
X144858741Y-45763334D01*
X144830240Y-45807681D01*
X144793213Y-45844707D01*
X144793210Y-45844711D01*
X144705609Y-45975814D01*
X144705602Y-45975827D01*
X144645264Y-46121498D01*
X144645261Y-46121510D01*
X144614500Y-46276153D01*
X144614500Y-46433846D01*
X144645261Y-46588489D01*
X144645264Y-46588501D01*
X144705602Y-46734172D01*
X144705609Y-46734185D01*
X144793210Y-46865288D01*
X144793213Y-46865292D01*
X144904707Y-46976786D01*
X144904711Y-46976789D01*
X145035814Y-47064390D01*
X145035827Y-47064397D01*
X145181498Y-47124735D01*
X145181503Y-47124737D01*
X145336153Y-47155499D01*
X145336156Y-47155500D01*
X145336158Y-47155500D01*
X145493844Y-47155500D01*
X145493845Y-47155499D01*
X145648497Y-47124737D01*
X145794179Y-47064394D01*
X145925289Y-46976789D01*
X146036789Y-46865289D01*
X146124394Y-46734179D01*
X146184737Y-46588497D01*
X146215500Y-46433842D01*
X146215500Y-46276158D01*
X146215500Y-46276155D01*
X146215499Y-46276153D01*
X146184738Y-46121510D01*
X146184737Y-46121503D01*
X146184735Y-46121498D01*
X146124397Y-45975827D01*
X146124390Y-45975814D01*
X146036789Y-45844711D01*
X146036786Y-45844707D01*
X145999760Y-45807681D01*
X145966275Y-45746358D01*
X145971259Y-45676666D01*
X145999760Y-45632319D01*
X146036786Y-45595292D01*
X146036789Y-45595289D01*
X146124394Y-45464179D01*
X146184737Y-45318497D01*
X146215500Y-45163842D01*
X146215500Y-45006158D01*
X146215500Y-45006155D01*
X146215499Y-45006153D01*
X146184738Y-44851510D01*
X146184737Y-44851503D01*
X146184735Y-44851498D01*
X146124397Y-44705827D01*
X146124390Y-44705814D01*
X146036789Y-44574711D01*
X146036786Y-44574707D01*
X145925292Y-44463213D01*
X145925288Y-44463210D01*
X145794185Y-44375609D01*
X145794172Y-44375602D01*
X145648501Y-44315264D01*
X145648489Y-44315261D01*
X145493845Y-44284500D01*
X145493842Y-44284500D01*
X145336158Y-44284500D01*
X145336155Y-44284500D01*
X145181510Y-44315261D01*
X145181498Y-44315264D01*
X145035827Y-44375602D01*
X145035814Y-44375609D01*
X144904711Y-44463210D01*
X144904707Y-44463213D01*
X144793213Y-44574707D01*
X144793210Y-44574711D01*
X144705609Y-44705814D01*
X144705602Y-44705827D01*
X144645264Y-44851498D01*
X144645261Y-44851510D01*
X144614500Y-45006153D01*
X136706898Y-45006153D01*
X136911024Y-44299938D01*
X136948549Y-44241004D01*
X137011981Y-44211711D01*
X137081181Y-44221362D01*
X137133249Y-44265482D01*
X137173210Y-44325289D01*
X137284707Y-44436786D01*
X137284711Y-44436789D01*
X137415814Y-44524390D01*
X137415827Y-44524397D01*
X137537288Y-44574707D01*
X137561503Y-44584737D01*
X137716153Y-44615499D01*
X137716156Y-44615500D01*
X137716158Y-44615500D01*
X137873844Y-44615500D01*
X137873845Y-44615499D01*
X138028497Y-44584737D01*
X138174179Y-44524394D01*
X138305289Y-44436789D01*
X138416789Y-44325289D01*
X138504394Y-44194179D01*
X138564737Y-44048497D01*
X138595500Y-43893842D01*
X138595500Y-43736158D01*
X138595500Y-43736155D01*
X138595499Y-43736153D01*
X138564738Y-43581510D01*
X138564737Y-43581503D01*
X138559500Y-43568859D01*
X138504397Y-43435827D01*
X138504390Y-43435814D01*
X138416789Y-43304711D01*
X138416786Y-43304707D01*
X138305292Y-43193213D01*
X138305288Y-43193210D01*
X138174185Y-43105609D01*
X138174172Y-43105602D01*
X138028501Y-43045264D01*
X138028489Y-43045261D01*
X137873845Y-43014500D01*
X137873842Y-43014500D01*
X137716158Y-43014500D01*
X137716155Y-43014500D01*
X137561510Y-43045261D01*
X137561498Y-43045264D01*
X137415827Y-43105602D01*
X137415814Y-43105609D01*
X137284711Y-43193210D01*
X137284707Y-43193213D01*
X137242181Y-43235740D01*
X137180858Y-43269225D01*
X137111166Y-43264241D01*
X137055233Y-43222369D01*
X137030816Y-43156905D01*
X137030500Y-43148059D01*
X137030500Y-41109192D01*
X137028646Y-41065952D01*
X137026830Y-41044799D01*
X137021279Y-41001852D01*
X137021279Y-41001849D01*
X136976816Y-40865011D01*
X136945987Y-40802310D01*
X136887685Y-40717048D01*
X136885403Y-40713121D01*
X136878111Y-40683430D01*
X136868666Y-40654361D01*
X136869858Y-40649825D01*
X136868739Y-40645268D01*
X136878657Y-40616346D01*
X136886427Y-40586787D01*
X136891332Y-40579389D01*
X136891405Y-40579177D01*
X136891548Y-40579063D01*
X136892298Y-40577933D01*
X136959524Y-40485405D01*
X137048884Y-40310025D01*
X137048884Y-40310022D01*
X137049795Y-40308236D01*
X137097769Y-40257440D01*
X137165590Y-40240644D01*
X137231725Y-40263181D01*
X137270765Y-40308235D01*
X137360905Y-40485145D01*
X137386319Y-40520125D01*
X137386320Y-40520125D01*
X138030000Y-39876445D01*
X138030000Y-39882661D01*
X138057259Y-39984394D01*
X138109920Y-40075606D01*
X138184394Y-40150080D01*
X138275606Y-40202741D01*
X138377339Y-40230000D01*
X138383553Y-40230000D01*
X137739873Y-40873677D01*
X137739873Y-40873678D01*
X137774858Y-40899096D01*
X137950164Y-40988418D01*
X138137294Y-41049221D01*
X138331618Y-41080000D01*
X138528382Y-41080000D01*
X138722705Y-41049221D01*
X138909835Y-40988418D01*
X139085143Y-40899095D01*
X139120125Y-40873678D01*
X139120126Y-40873678D01*
X138476448Y-40230000D01*
X138482661Y-40230000D01*
X138584394Y-40202741D01*
X138675606Y-40150080D01*
X138750080Y-40075606D01*
X138802741Y-39984394D01*
X138830000Y-39882661D01*
X138830000Y-39876448D01*
X139473678Y-40520126D01*
X139473678Y-40520125D01*
X139499097Y-40485141D01*
X139589234Y-40308236D01*
X139637208Y-40257439D01*
X139705029Y-40240644D01*
X139771164Y-40263181D01*
X139810204Y-40308235D01*
X139811115Y-40310024D01*
X139811116Y-40310025D01*
X139900476Y-40485405D01*
X140016172Y-40644646D01*
X140155354Y-40783828D01*
X140314595Y-40899524D01*
X140397455Y-40941743D01*
X140489970Y-40988882D01*
X140489972Y-40988882D01*
X140489975Y-40988884D01*
X140590317Y-41021487D01*
X140677173Y-41049709D01*
X140871578Y-41080500D01*
X140871583Y-41080500D01*
X141068422Y-41080500D01*
X141262826Y-41049709D01*
X141277937Y-41044799D01*
X141450025Y-40988884D01*
X141625405Y-40899524D01*
X141784646Y-40783828D01*
X141923828Y-40644646D01*
X142039524Y-40485405D01*
X142128884Y-40310025D01*
X142189709Y-40122826D01*
X142206486Y-40016900D01*
X142220500Y-39928422D01*
X142220500Y-39731577D01*
X142189709Y-39537173D01*
X142128882Y-39349970D01*
X142054662Y-39204306D01*
X142039524Y-39174595D01*
X141923828Y-39015354D01*
X141784646Y-38876172D01*
X141625405Y-38760476D01*
X141624977Y-38760258D01*
X141450029Y-38671117D01*
X141262826Y-38610290D01*
X141068422Y-38579500D01*
X141068417Y-38579500D01*
X140871583Y-38579500D01*
X140871578Y-38579500D01*
X140677173Y-38610290D01*
X140489970Y-38671117D01*
X140314594Y-38760476D01*
X140223741Y-38826485D01*
X140155354Y-38876172D01*
X140155352Y-38876174D01*
X140155351Y-38876174D01*
X140016174Y-39015351D01*
X140016174Y-39015352D01*
X140016172Y-39015354D01*
X139968574Y-39080867D01*
X139900476Y-39174594D01*
X139810204Y-39351764D01*
X139762229Y-39402560D01*
X139694408Y-39419355D01*
X139628274Y-39396818D01*
X139589234Y-39351764D01*
X139499096Y-39174858D01*
X139473678Y-39139873D01*
X139473677Y-39139873D01*
X138830000Y-39783551D01*
X138830000Y-39777339D01*
X138802741Y-39675606D01*
X138750080Y-39584394D01*
X138675606Y-39509920D01*
X138584394Y-39457259D01*
X138482661Y-39430000D01*
X138476447Y-39430000D01*
X139120125Y-38786320D01*
X139120125Y-38786319D01*
X139085145Y-38760905D01*
X138909835Y-38671581D01*
X138722705Y-38610778D01*
X138528382Y-38580000D01*
X138331618Y-38580000D01*
X138137294Y-38610778D01*
X137950161Y-38671582D01*
X137774863Y-38760899D01*
X137774859Y-38760902D01*
X137739873Y-38786320D01*
X137739872Y-38786320D01*
X138383554Y-39430000D01*
X138377339Y-39430000D01*
X138275606Y-39457259D01*
X138184394Y-39509920D01*
X138109920Y-39584394D01*
X138057259Y-39675606D01*
X138030000Y-39777339D01*
X138030000Y-39783552D01*
X137386320Y-39139872D01*
X137386320Y-39139873D01*
X137360902Y-39174859D01*
X137270765Y-39351764D01*
X137222790Y-39402560D01*
X137154969Y-39419355D01*
X137088835Y-39396818D01*
X137049795Y-39351763D01*
X136974662Y-39204306D01*
X136959524Y-39174595D01*
X136892179Y-39081903D01*
X136868698Y-39016097D01*
X136884523Y-38948043D01*
X136884946Y-38947299D01*
X136890918Y-38936890D01*
X136930567Y-38891135D01*
X136990338Y-38760258D01*
X137010023Y-38693219D01*
X137010024Y-38693215D01*
X137030500Y-38550799D01*
X137030500Y-38224000D01*
X137050185Y-38156961D01*
X137102989Y-38111206D01*
X137154500Y-38100000D01*
X143625500Y-38100000D01*
X143692539Y-38119685D01*
G37*
%TD.AperFunction*%
%TD*%
M02*
