%TF.GenerationSoftware,KiCad,Pcbnew,10.0.0*%
%TF.CreationDate,2026-05-23T21:22:03-05:00*%
%TF.ProjectId,FeatherVoltmeterPCBA,46656174-6865-4725-966f-6c746d657465,rev?*%
%TF.SameCoordinates,Original*%
%TF.FileFunction,Copper,L2,Inr*%
%TF.FilePolarity,Positive*%
%FSLAX46Y46*%
G04 Gerber Fmt 4.6, Leading zero omitted, Abs format (unit mm)*
G04 Created by KiCad (PCBNEW 10.0.0) date 2026-05-23 21:22:03*
%MOMM*%
%LPD*%
G01*
G04 APERTURE LIST*
G04 Aperture macros list*
%AMRoundRect*
0 Rectangle with rounded corners*
0 $1 Rounding radius*
0 $2 $3 $4 $5 $6 $7 $8 $9 X,Y pos of 4 corners*
0 Add a 4 corners polygon primitive as box body*
4,1,4,$2,$3,$4,$5,$6,$7,$8,$9,$2,$3,0*
0 Add four circle primitives for the rounded corners*
1,1,$1+$1,$2,$3*
1,1,$1+$1,$4,$5*
1,1,$1+$1,$6,$7*
1,1,$1+$1,$8,$9*
0 Add four rect primitives between the rounded corners*
20,1,$1+$1,$2,$3,$4,$5,0*
20,1,$1+$1,$4,$5,$6,$7,0*
20,1,$1+$1,$6,$7,$8,$9,0*
20,1,$1+$1,$8,$9,$2,$3,0*%
G04 Aperture macros list end*
%TA.AperFunction,ComponentPad*%
%ADD10C,4.400000*%
%TD*%
%TA.AperFunction,ComponentPad*%
%ADD11R,1.700000X1.700000*%
%TD*%
%TA.AperFunction,ComponentPad*%
%ADD12C,1.700000*%
%TD*%
%TA.AperFunction,ComponentPad*%
%ADD13C,1.397000*%
%TD*%
%TA.AperFunction,ComponentPad*%
%ADD14R,1.750000X2.250000*%
%TD*%
%TA.AperFunction,ComponentPad*%
%ADD15O,1.750000X2.250000*%
%TD*%
%TA.AperFunction,ComponentPad*%
%ADD16RoundRect,0.250001X-0.949999X-0.949999X0.949999X-0.949999X0.949999X0.949999X-0.949999X0.949999X0*%
%TD*%
%TA.AperFunction,ComponentPad*%
%ADD17C,2.400000*%
%TD*%
%TA.AperFunction,ViaPad*%
%ADD18C,0.600000*%
%TD*%
G04 APERTURE END LIST*
D10*
%TO.N,N/C*%
%TO.C,H3*%
X116805302Y-119502302D03*
%TD*%
%TO.N,N/C*%
%TO.C,H2*%
X134569200Y-73812400D03*
%TD*%
D11*
%TO.N,unconnected-(J2-Pin_1-Pad1)*%
%TO.C,J2*%
X135870500Y-87757000D03*
D12*
%TO.N,Net-(A1-EN)*%
X135870500Y-90297000D03*
%TO.N,unconnected-(J2-Pin_3-Pad3)*%
X135870500Y-92837000D03*
%TO.N,unconnected-(J2-Pin_4-Pad4)*%
X135870500Y-95377000D03*
%TO.N,unconnected-(J2-Pin_5-Pad5)*%
X135870500Y-97917000D03*
%TO.N,unconnected-(J2-Pin_6-Pad6)*%
X135870500Y-100457000D03*
%TO.N,unconnected-(J2-Pin_7-Pad7)*%
X135870500Y-102997000D03*
%TO.N,unconnected-(J2-Pin_8-Pad8)*%
X135870500Y-105537000D03*
%TO.N,unconnected-(J2-Pin_9-Pad9)*%
X135870500Y-108077000D03*
%TO.N,/Signal1-MCU*%
X135870500Y-110617000D03*
%TO.N,SCL*%
X135870500Y-113157000D03*
%TO.N,SDA*%
X135870500Y-115697000D03*
%TD*%
D13*
%TO.N,N/C*%
%TO.C,SW1*%
X126949200Y-72898000D03*
X123952000Y-72898000D03*
%TD*%
D14*
%TO.N,GND*%
%TO.C,PS1*%
X121868500Y-81725500D03*
D15*
%TO.N,VDD*%
X124408500Y-81725500D03*
%TO.N,Gnd-iso*%
X126948500Y-81725500D03*
%TO.N,5V-iso*%
X129488500Y-81725500D03*
%TD*%
D10*
%TO.N,N/C*%
%TO.C,H1*%
X116792764Y-73820386D03*
%TD*%
D11*
%TO.N,unconnected-(J1-Pin_1-Pad1)*%
%TO.C,J1*%
X115550500Y-77597000D03*
D12*
%TO.N,VDD*%
X115550500Y-80137000D03*
%TO.N,unconnected-(J1-Pin_3-Pad3)*%
X115550500Y-82677000D03*
%TO.N,GND*%
X115550500Y-85217000D03*
%TO.N,unconnected-(J1-Pin_5-Pad5)*%
X115550500Y-87757000D03*
%TO.N,unconnected-(J1-Pin_6-Pad6)*%
X115550500Y-90297000D03*
%TO.N,unconnected-(J1-Pin_7-Pad7)*%
X115550500Y-92837000D03*
%TO.N,unconnected-(J1-Pin_8-Pad8)*%
X115550500Y-95377000D03*
%TO.N,unconnected-(J1-Pin_9-Pad9)*%
X115550500Y-97917000D03*
%TO.N,unconnected-(J1-Pin_10-Pad10)*%
X115550500Y-100457000D03*
%TO.N,unconnected-(J1-Pin_11-Pad11)*%
X115550500Y-102997000D03*
%TO.N,unconnected-(J1-Pin_12-Pad12)*%
X115550500Y-105537000D03*
%TO.N,unconnected-(J1-Pin_13-Pad13)*%
X115550500Y-108077000D03*
%TO.N,unconnected-(J1-Pin_14-Pad14)*%
X115550500Y-110617000D03*
%TO.N,unconnected-(J1-Pin_15-Pad15)*%
X115550500Y-113157000D03*
%TO.N,unconnected-(J1-Pin_16-Pad16)*%
X115550500Y-115697000D03*
%TD*%
D16*
%TO.N,V_Input_REF*%
%TO.C,J5*%
X122382000Y-115974500D03*
D17*
%TO.N,V_Input_Float*%
X127462000Y-115974500D03*
%TD*%
D18*
%TO.N,VDD*%
X117856000Y-99187000D03*
X121031000Y-90043000D03*
%TO.N,SCL*%
X122047000Y-96393000D03*
%TO.N,Gnd-iso*%
X125857000Y-88138000D03*
X125361500Y-98186500D03*
X121920000Y-105156000D03*
X132461000Y-83185000D03*
X128911500Y-93605500D03*
X130248000Y-100584000D03*
X133604000Y-107442000D03*
%TO.N,SDA*%
X123825000Y-91948000D03*
X121193000Y-94742000D03*
%TO.N,GND*%
X121024500Y-93351500D03*
X120904000Y-88138000D03*
X128270000Y-72898000D03*
%TO.N,/AIN1*%
X123304029Y-105283000D03*
X126335485Y-105566515D03*
%TO.N,ADS_ADDR*%
X129563308Y-94069337D03*
X129540000Y-88392000D03*
%TO.N,/AIN2*%
X131826000Y-103124000D03*
%TO.N,/AIN3*%
X131535099Y-102378764D03*
%TO.N,5V-iso*%
X128851999Y-90477001D03*
X122936000Y-99822000D03*
X130937292Y-111570207D03*
X131104201Y-100457000D03*
X130282784Y-94571886D03*
%TO.N,SDA-5V*%
X126087901Y-92056379D03*
X131254500Y-96520002D03*
%TO.N,SCL-5V*%
X132207000Y-94107000D03*
X132334000Y-96520002D03*
%TO.N,/Signal1-MCU*%
X124460000Y-93853000D03*
%TD*%
%TA.AperFunction,Conductor*%
%TO.N,Gnd-iso*%
G36*
X125367813Y-73568937D02*
G01*
X126043544Y-73715835D01*
X126104869Y-73749311D01*
X126168104Y-73812546D01*
X126320787Y-73923477D01*
X126488944Y-74009157D01*
X126668433Y-74067477D01*
X126738334Y-74078548D01*
X126854832Y-74097000D01*
X126854837Y-74097000D01*
X127043568Y-74097000D01*
X127128292Y-74083580D01*
X127229967Y-74067477D01*
X127370899Y-74021684D01*
X127435552Y-74018446D01*
X132107242Y-75034031D01*
X132168569Y-75067507D01*
X132192619Y-75101396D01*
X132201936Y-75120743D01*
X132201937Y-75120745D01*
X132309517Y-75291956D01*
X132363308Y-75377564D01*
X132552421Y-75614704D01*
X132766896Y-75829179D01*
X133004036Y-76018292D01*
X133260859Y-76179665D01*
X133534135Y-76311268D01*
X133749151Y-76386505D01*
X133820416Y-76411442D01*
X133820428Y-76411446D01*
X134116137Y-76478940D01*
X134116146Y-76478941D01*
X134116151Y-76478942D01*
X134317074Y-76501580D01*
X134417537Y-76512899D01*
X134417540Y-76512900D01*
X134417543Y-76512900D01*
X134720860Y-76512900D01*
X134720861Y-76512899D01*
X134874894Y-76495544D01*
X135022248Y-76478942D01*
X135022251Y-76478941D01*
X135022263Y-76478940D01*
X135317972Y-76411446D01*
X135604265Y-76311268D01*
X135877541Y-76179665D01*
X136134364Y-76018292D01*
X136195499Y-75969537D01*
X136260184Y-75943130D01*
X136299147Y-75945314D01*
X136788843Y-76051770D01*
X136850169Y-76085246D01*
X136883663Y-76146564D01*
X136886500Y-76172939D01*
X136886500Y-86282500D01*
X136866815Y-86349539D01*
X136814011Y-86395294D01*
X136762500Y-86406500D01*
X134972629Y-86406500D01*
X134972623Y-86406501D01*
X134913016Y-86412908D01*
X134778171Y-86463202D01*
X134778164Y-86463206D01*
X134662955Y-86549452D01*
X134662952Y-86549455D01*
X134576706Y-86664664D01*
X134576702Y-86664671D01*
X134526408Y-86799517D01*
X134520001Y-86859116D01*
X134520000Y-86859135D01*
X134520000Y-88654870D01*
X134520001Y-88654876D01*
X134526408Y-88714483D01*
X134576702Y-88849328D01*
X134576706Y-88849335D01*
X134662952Y-88964544D01*
X134662955Y-88964547D01*
X134778164Y-89050793D01*
X134778171Y-89050797D01*
X134909582Y-89099810D01*
X134965516Y-89141681D01*
X134989933Y-89207145D01*
X134975082Y-89275418D01*
X134953931Y-89303673D01*
X134840389Y-89417215D01*
X134715451Y-89589179D01*
X134618944Y-89778585D01*
X134553253Y-89980760D01*
X134520000Y-90190713D01*
X134520000Y-90403286D01*
X134544162Y-90555843D01*
X134553254Y-90613243D01*
X134584854Y-90710498D01*
X134618944Y-90815414D01*
X134715451Y-91004820D01*
X134840390Y-91176786D01*
X134990713Y-91327109D01*
X135162682Y-91452050D01*
X135171446Y-91456516D01*
X135222242Y-91504491D01*
X135239036Y-91572312D01*
X135216498Y-91638447D01*
X135171446Y-91677484D01*
X135162682Y-91681949D01*
X134990713Y-91806890D01*
X134840390Y-91957213D01*
X134715451Y-92129179D01*
X134618944Y-92318585D01*
X134553253Y-92520760D01*
X134520000Y-92730713D01*
X134520000Y-92943286D01*
X134551727Y-93143606D01*
X134553254Y-93153243D01*
X134614816Y-93342711D01*
X134618944Y-93355414D01*
X134715451Y-93544820D01*
X134840390Y-93716786D01*
X134990713Y-93867109D01*
X135162682Y-93992050D01*
X135171446Y-93996516D01*
X135222242Y-94044491D01*
X135239036Y-94112312D01*
X135216498Y-94178447D01*
X135171446Y-94217484D01*
X135162682Y-94221949D01*
X134990713Y-94346890D01*
X134840390Y-94497213D01*
X134715451Y-94669179D01*
X134618944Y-94858585D01*
X134553253Y-95060760D01*
X134520000Y-95270713D01*
X134520000Y-95483286D01*
X134551727Y-95683606D01*
X134553254Y-95693243D01*
X134614816Y-95882711D01*
X134618944Y-95895414D01*
X134715451Y-96084820D01*
X134840390Y-96256786D01*
X134990713Y-96407109D01*
X135162682Y-96532050D01*
X135171446Y-96536516D01*
X135222242Y-96584491D01*
X135239036Y-96652312D01*
X135216498Y-96718447D01*
X135171446Y-96757484D01*
X135162682Y-96761949D01*
X134990713Y-96886890D01*
X134840390Y-97037213D01*
X134715451Y-97209179D01*
X134618944Y-97398585D01*
X134553253Y-97600760D01*
X134520000Y-97810713D01*
X134520000Y-98023287D01*
X134553254Y-98233243D01*
X134603050Y-98386500D01*
X134618944Y-98435414D01*
X134715451Y-98624820D01*
X134840390Y-98796786D01*
X134990713Y-98947109D01*
X135162682Y-99072050D01*
X135171446Y-99076516D01*
X135222242Y-99124491D01*
X135239036Y-99192312D01*
X135216498Y-99258447D01*
X135171446Y-99297484D01*
X135162682Y-99301949D01*
X134990713Y-99426890D01*
X134840390Y-99577213D01*
X134715451Y-99749179D01*
X134618944Y-99938585D01*
X134553253Y-100140760D01*
X134543685Y-100201172D01*
X134520000Y-100350713D01*
X134520000Y-100563287D01*
X134553254Y-100773243D01*
X134616303Y-100967288D01*
X134618944Y-100975414D01*
X134715451Y-101164820D01*
X134840390Y-101336786D01*
X134990713Y-101487109D01*
X135162682Y-101612050D01*
X135171446Y-101616516D01*
X135222242Y-101664491D01*
X135239036Y-101732312D01*
X135216498Y-101798447D01*
X135171446Y-101837484D01*
X135162682Y-101841949D01*
X134990713Y-101966890D01*
X134840390Y-102117213D01*
X134715451Y-102289179D01*
X134618944Y-102478585D01*
X134553253Y-102680760D01*
X134543108Y-102744814D01*
X134520000Y-102890713D01*
X134520000Y-103103287D01*
X134553254Y-103313243D01*
X134614970Y-103503185D01*
X134618944Y-103515414D01*
X134715451Y-103704820D01*
X134840390Y-103876786D01*
X134990713Y-104027109D01*
X135162682Y-104152050D01*
X135171446Y-104156516D01*
X135222242Y-104204491D01*
X135239036Y-104272312D01*
X135216498Y-104338447D01*
X135171446Y-104377484D01*
X135162682Y-104381949D01*
X134990713Y-104506890D01*
X134840390Y-104657213D01*
X134715451Y-104829179D01*
X134618944Y-105018585D01*
X134553253Y-105220760D01*
X134520000Y-105430713D01*
X134520000Y-105643287D01*
X134522991Y-105662172D01*
X134544823Y-105800016D01*
X134553254Y-105853243D01*
X134618074Y-106052738D01*
X134618944Y-106055414D01*
X134715451Y-106244820D01*
X134840390Y-106416786D01*
X134990713Y-106567109D01*
X135162682Y-106692050D01*
X135171446Y-106696516D01*
X135222242Y-106744491D01*
X135239036Y-106812312D01*
X135216498Y-106878447D01*
X135171446Y-106917484D01*
X135162682Y-106921949D01*
X134990713Y-107046890D01*
X134840390Y-107197213D01*
X134715451Y-107369179D01*
X134618944Y-107558585D01*
X134553253Y-107760760D01*
X134520000Y-107970713D01*
X134520000Y-108183286D01*
X134553253Y-108393239D01*
X134618944Y-108595414D01*
X134715448Y-108784814D01*
X134715449Y-108784816D01*
X134738770Y-108816915D01*
X134762249Y-108882721D01*
X134757680Y-108923864D01*
X133864196Y-112051065D01*
X133826852Y-112110118D01*
X133763510Y-112139606D01*
X133744967Y-112141000D01*
X131750642Y-112141000D01*
X131683603Y-112121315D01*
X131637848Y-112068511D01*
X131627904Y-111999353D01*
X131644790Y-111955283D01*
X131643813Y-111954761D01*
X131646682Y-111949391D01*
X131646686Y-111949386D01*
X131707029Y-111803704D01*
X131737792Y-111649049D01*
X131737792Y-111491365D01*
X131737792Y-111491362D01*
X131737791Y-111491360D01*
X131707030Y-111336717D01*
X131707029Y-111336710D01*
X131702102Y-111324816D01*
X131646689Y-111191034D01*
X131646682Y-111191021D01*
X131559081Y-111059918D01*
X131559078Y-111059914D01*
X131447584Y-110948420D01*
X131447580Y-110948417D01*
X131316477Y-110860816D01*
X131316464Y-110860809D01*
X131170793Y-110800471D01*
X131170781Y-110800468D01*
X131016137Y-110769707D01*
X131016134Y-110769707D01*
X130858450Y-110769707D01*
X130858447Y-110769707D01*
X130703802Y-110800468D01*
X130703790Y-110800471D01*
X130558119Y-110860809D01*
X130558106Y-110860816D01*
X130494891Y-110903056D01*
X130428213Y-110923934D01*
X130360833Y-110905449D01*
X130314143Y-110853471D01*
X130302000Y-110799954D01*
X130302000Y-107061000D01*
X119614500Y-107061000D01*
X117619311Y-110053783D01*
X117565746Y-110098644D01*
X117516137Y-110109000D01*
X116883350Y-110109000D01*
X116816311Y-110089315D01*
X116772865Y-110041295D01*
X116761580Y-110019148D01*
X116705551Y-109909184D01*
X116678500Y-109871951D01*
X116580609Y-109737213D01*
X116430286Y-109586890D01*
X116258320Y-109461951D01*
X116257615Y-109461591D01*
X116249554Y-109457485D01*
X116198759Y-109409512D01*
X116181963Y-109341692D01*
X116204499Y-109275556D01*
X116249554Y-109236515D01*
X116258316Y-109232051D01*
X116280289Y-109216086D01*
X116430286Y-109107109D01*
X116430288Y-109107106D01*
X116430292Y-109107104D01*
X116580604Y-108956792D01*
X116580606Y-108956788D01*
X116580609Y-108956786D01*
X116705548Y-108784820D01*
X116705547Y-108784820D01*
X116705551Y-108784816D01*
X116802057Y-108595412D01*
X116867746Y-108393243D01*
X116901000Y-108183287D01*
X116901000Y-107970713D01*
X116867746Y-107760757D01*
X116802057Y-107558588D01*
X116705551Y-107369184D01*
X116705549Y-107369181D01*
X116705548Y-107369179D01*
X116580609Y-107197213D01*
X116430286Y-107046890D01*
X116258320Y-106921951D01*
X116257615Y-106921591D01*
X116249554Y-106917485D01*
X116198759Y-106869512D01*
X116181963Y-106801692D01*
X116204499Y-106735556D01*
X116249554Y-106696515D01*
X116258316Y-106692051D01*
X116280289Y-106676086D01*
X116430286Y-106567109D01*
X116430288Y-106567106D01*
X116430292Y-106567104D01*
X116580604Y-106416792D01*
X116580606Y-106416788D01*
X116580609Y-106416786D01*
X116705548Y-106244820D01*
X116705547Y-106244820D01*
X116705551Y-106244816D01*
X116802057Y-106055412D01*
X116867746Y-105853243D01*
X116901000Y-105643287D01*
X116901000Y-105430713D01*
X116867746Y-105220757D01*
X116862351Y-105204153D01*
X122503529Y-105204153D01*
X122503529Y-105361846D01*
X122534290Y-105516489D01*
X122534293Y-105516501D01*
X122594631Y-105662172D01*
X122594638Y-105662185D01*
X122682239Y-105793288D01*
X122682242Y-105793292D01*
X122793736Y-105904786D01*
X122793740Y-105904789D01*
X122924843Y-105992390D01*
X122924856Y-105992397D01*
X123070527Y-106052735D01*
X123070532Y-106052737D01*
X123225182Y-106083499D01*
X123225185Y-106083500D01*
X123225187Y-106083500D01*
X123382873Y-106083500D01*
X123382874Y-106083499D01*
X123537526Y-106052737D01*
X123683208Y-105992394D01*
X123814318Y-105904789D01*
X123925818Y-105793289D01*
X124013423Y-105662179D01*
X124073766Y-105516497D01*
X124076603Y-105502229D01*
X124079500Y-105487668D01*
X125534985Y-105487668D01*
X125534985Y-105645361D01*
X125565746Y-105800004D01*
X125565749Y-105800016D01*
X125626087Y-105945687D01*
X125626094Y-105945700D01*
X125713695Y-106076803D01*
X125713698Y-106076807D01*
X125825192Y-106188301D01*
X125825196Y-106188304D01*
X125956299Y-106275905D01*
X125956312Y-106275912D01*
X126101983Y-106336250D01*
X126101988Y-106336252D01*
X126256638Y-106367014D01*
X126256641Y-106367015D01*
X126256643Y-106367015D01*
X126414329Y-106367015D01*
X126414330Y-106367014D01*
X126568982Y-106336252D01*
X126714664Y-106275909D01*
X126845774Y-106188304D01*
X126957274Y-106076804D01*
X127044879Y-105945694D01*
X127105222Y-105800012D01*
X127135985Y-105645357D01*
X127135985Y-105487673D01*
X127135985Y-105487670D01*
X127135984Y-105487668D01*
X127105223Y-105333025D01*
X127105222Y-105333018D01*
X127105220Y-105333013D01*
X127044882Y-105187342D01*
X127044875Y-105187329D01*
X126957274Y-105056226D01*
X126957271Y-105056222D01*
X126845777Y-104944728D01*
X126845773Y-104944725D01*
X126714670Y-104857124D01*
X126714657Y-104857117D01*
X126568986Y-104796779D01*
X126568974Y-104796776D01*
X126414330Y-104766015D01*
X126414327Y-104766015D01*
X126256643Y-104766015D01*
X126256640Y-104766015D01*
X126101995Y-104796776D01*
X126101983Y-104796779D01*
X125956312Y-104857117D01*
X125956299Y-104857124D01*
X125825196Y-104944725D01*
X125825192Y-104944728D01*
X125713698Y-105056222D01*
X125713695Y-105056226D01*
X125626094Y-105187329D01*
X125626087Y-105187342D01*
X125565749Y-105333013D01*
X125565746Y-105333025D01*
X125534985Y-105487668D01*
X124079500Y-105487668D01*
X124085524Y-105457389D01*
X124085524Y-105457388D01*
X124104528Y-105361846D01*
X124104529Y-105361844D01*
X124104529Y-105204155D01*
X124104528Y-105204153D01*
X124075103Y-105056226D01*
X124073766Y-105049503D01*
X124060961Y-105018588D01*
X124013426Y-104903827D01*
X124013419Y-104903814D01*
X123925818Y-104772711D01*
X123925815Y-104772707D01*
X123814321Y-104661213D01*
X123814317Y-104661210D01*
X123683214Y-104573609D01*
X123683201Y-104573602D01*
X123537530Y-104513264D01*
X123537518Y-104513261D01*
X123382874Y-104482500D01*
X123382871Y-104482500D01*
X123225187Y-104482500D01*
X123225184Y-104482500D01*
X123070539Y-104513261D01*
X123070527Y-104513264D01*
X122924856Y-104573602D01*
X122924843Y-104573609D01*
X122793740Y-104661210D01*
X122793736Y-104661213D01*
X122682242Y-104772707D01*
X122682239Y-104772711D01*
X122594638Y-104903814D01*
X122594631Y-104903827D01*
X122534293Y-105049498D01*
X122534290Y-105049510D01*
X122503529Y-105204153D01*
X116862351Y-105204153D01*
X116802057Y-105018588D01*
X116705551Y-104829184D01*
X116705549Y-104829181D01*
X116705548Y-104829179D01*
X116580609Y-104657213D01*
X116430286Y-104506890D01*
X116258320Y-104381951D01*
X116257615Y-104381591D01*
X116249554Y-104377485D01*
X116198759Y-104329512D01*
X116181963Y-104261692D01*
X116204499Y-104195556D01*
X116249554Y-104156515D01*
X116258316Y-104152051D01*
X116280289Y-104136086D01*
X116430286Y-104027109D01*
X116430288Y-104027106D01*
X116430292Y-104027104D01*
X116580604Y-103876792D01*
X116580606Y-103876788D01*
X116580609Y-103876786D01*
X116705548Y-103704820D01*
X116705547Y-103704820D01*
X116705551Y-103704816D01*
X116802057Y-103515412D01*
X116867746Y-103313243D01*
X116901000Y-103103287D01*
X116901000Y-102890713D01*
X116867746Y-102680757D01*
X116802057Y-102478588D01*
X116711020Y-102299917D01*
X130734599Y-102299917D01*
X130734599Y-102457610D01*
X130765360Y-102612253D01*
X130765363Y-102612265D01*
X130825701Y-102757936D01*
X130825708Y-102757949D01*
X130913309Y-102889052D01*
X130913312Y-102889056D01*
X130989181Y-102964925D01*
X131022666Y-103026248D01*
X131025500Y-103052606D01*
X131025500Y-103202846D01*
X131056261Y-103357489D01*
X131056264Y-103357501D01*
X131116602Y-103503172D01*
X131116609Y-103503185D01*
X131204210Y-103634288D01*
X131204213Y-103634292D01*
X131315707Y-103745786D01*
X131315711Y-103745789D01*
X131446814Y-103833390D01*
X131446827Y-103833397D01*
X131592498Y-103893735D01*
X131592503Y-103893737D01*
X131747153Y-103924499D01*
X131747156Y-103924500D01*
X131747158Y-103924500D01*
X131904844Y-103924500D01*
X131904845Y-103924499D01*
X132059497Y-103893737D01*
X132205179Y-103833394D01*
X132336289Y-103745789D01*
X132447789Y-103634289D01*
X132535394Y-103503179D01*
X132595737Y-103357497D01*
X132626500Y-103202842D01*
X132626500Y-103045158D01*
X132626500Y-103045155D01*
X132626499Y-103045153D01*
X132595737Y-102890503D01*
X132540832Y-102757949D01*
X132535397Y-102744827D01*
X132535390Y-102744814D01*
X132447789Y-102613711D01*
X132447786Y-102613707D01*
X132371918Y-102537839D01*
X132338433Y-102476516D01*
X132335599Y-102450158D01*
X132335599Y-102299919D01*
X132335598Y-102299917D01*
X132304837Y-102145274D01*
X132304836Y-102145267D01*
X132304834Y-102145262D01*
X132244496Y-101999591D01*
X132244489Y-101999578D01*
X132156888Y-101868475D01*
X132156885Y-101868471D01*
X132045391Y-101756977D01*
X132045387Y-101756974D01*
X131914284Y-101669373D01*
X131914271Y-101669366D01*
X131768600Y-101609028D01*
X131768588Y-101609025D01*
X131613944Y-101578264D01*
X131613941Y-101578264D01*
X131456257Y-101578264D01*
X131456254Y-101578264D01*
X131301609Y-101609025D01*
X131301597Y-101609028D01*
X131155926Y-101669366D01*
X131155913Y-101669373D01*
X131024810Y-101756974D01*
X131024806Y-101756977D01*
X130913312Y-101868471D01*
X130913309Y-101868475D01*
X130825708Y-101999578D01*
X130825701Y-101999591D01*
X130765363Y-102145262D01*
X130765360Y-102145274D01*
X130734599Y-102299917D01*
X116711020Y-102299917D01*
X116705551Y-102289184D01*
X116678500Y-102251951D01*
X116580609Y-102117213D01*
X116430286Y-101966890D01*
X116258320Y-101841951D01*
X116257615Y-101841591D01*
X116249554Y-101837485D01*
X116198759Y-101789512D01*
X116181963Y-101721692D01*
X116204499Y-101655556D01*
X116249554Y-101616515D01*
X116258316Y-101612051D01*
X116304820Y-101578264D01*
X116430286Y-101487109D01*
X116430288Y-101487106D01*
X116430292Y-101487104D01*
X116580604Y-101336792D01*
X116580606Y-101336788D01*
X116580609Y-101336786D01*
X116704402Y-101166397D01*
X116705551Y-101164816D01*
X116802057Y-100975412D01*
X116867746Y-100773243D01*
X116869458Y-100762433D01*
X116899384Y-100699300D01*
X116932548Y-100672973D01*
X118637219Y-99743153D01*
X122135500Y-99743153D01*
X122135500Y-99900846D01*
X122166261Y-100055489D01*
X122166264Y-100055501D01*
X122226602Y-100201172D01*
X122226609Y-100201185D01*
X122314210Y-100332288D01*
X122314213Y-100332292D01*
X122425707Y-100443786D01*
X122425711Y-100443789D01*
X122556814Y-100531390D01*
X122556827Y-100531397D01*
X122702498Y-100591735D01*
X122702503Y-100591737D01*
X122857153Y-100622499D01*
X122857156Y-100622500D01*
X122857158Y-100622500D01*
X123014844Y-100622500D01*
X123014845Y-100622499D01*
X123169497Y-100591737D01*
X123304436Y-100535844D01*
X123315172Y-100531397D01*
X123315172Y-100531396D01*
X123315179Y-100531394D01*
X123446289Y-100443789D01*
X123511925Y-100378153D01*
X130303701Y-100378153D01*
X130303701Y-100535846D01*
X130334462Y-100690489D01*
X130334465Y-100690501D01*
X130394803Y-100836172D01*
X130394810Y-100836185D01*
X130482411Y-100967288D01*
X130482414Y-100967292D01*
X130593908Y-101078786D01*
X130593912Y-101078789D01*
X130725015Y-101166390D01*
X130725028Y-101166397D01*
X130870699Y-101226735D01*
X130870704Y-101226737D01*
X131025354Y-101257499D01*
X131025357Y-101257500D01*
X131025359Y-101257500D01*
X131183045Y-101257500D01*
X131183046Y-101257499D01*
X131337698Y-101226737D01*
X131483380Y-101166394D01*
X131614490Y-101078789D01*
X131725990Y-100967289D01*
X131813595Y-100836179D01*
X131873938Y-100690497D01*
X131904701Y-100535842D01*
X131904701Y-100378158D01*
X131904701Y-100378155D01*
X131904700Y-100378153D01*
X131873939Y-100223510D01*
X131873938Y-100223503D01*
X131839664Y-100140757D01*
X131813598Y-100077827D01*
X131813591Y-100077814D01*
X131725990Y-99946711D01*
X131725987Y-99946707D01*
X131614493Y-99835213D01*
X131614489Y-99835210D01*
X131483386Y-99747609D01*
X131483373Y-99747602D01*
X131337702Y-99687264D01*
X131337690Y-99687261D01*
X131183046Y-99656500D01*
X131183043Y-99656500D01*
X131025359Y-99656500D01*
X131025356Y-99656500D01*
X130870711Y-99687261D01*
X130870699Y-99687264D01*
X130725028Y-99747602D01*
X130725015Y-99747609D01*
X130593912Y-99835210D01*
X130593908Y-99835213D01*
X130482414Y-99946707D01*
X130482411Y-99946711D01*
X130394810Y-100077814D01*
X130394803Y-100077827D01*
X130334465Y-100223498D01*
X130334462Y-100223510D01*
X130303701Y-100378153D01*
X123511925Y-100378153D01*
X123557789Y-100332289D01*
X123567839Y-100317247D01*
X123577243Y-100303175D01*
X123645390Y-100201185D01*
X123645390Y-100201184D01*
X123645394Y-100201179D01*
X123705737Y-100055497D01*
X123736500Y-99900842D01*
X123736500Y-99743158D01*
X123736500Y-99743155D01*
X123736499Y-99743153D01*
X123725381Y-99687261D01*
X123705737Y-99588503D01*
X123701061Y-99577213D01*
X123645397Y-99442827D01*
X123645390Y-99442814D01*
X123557789Y-99311711D01*
X123557786Y-99311707D01*
X123446292Y-99200213D01*
X123446288Y-99200210D01*
X123315185Y-99112609D01*
X123315172Y-99112602D01*
X123169501Y-99052264D01*
X123169489Y-99052261D01*
X123014845Y-99021500D01*
X123014842Y-99021500D01*
X122857158Y-99021500D01*
X122857155Y-99021500D01*
X122702510Y-99052261D01*
X122702498Y-99052264D01*
X122556827Y-99112602D01*
X122556814Y-99112609D01*
X122425711Y-99200210D01*
X122425707Y-99200213D01*
X122314213Y-99311707D01*
X122314210Y-99311711D01*
X122226609Y-99442814D01*
X122226602Y-99442827D01*
X122166264Y-99588498D01*
X122166261Y-99588510D01*
X122135500Y-99743153D01*
X118637219Y-99743153D01*
X119428197Y-99311711D01*
X119525847Y-99258447D01*
X120122500Y-98933000D01*
X121832749Y-97222750D01*
X121894068Y-97189268D01*
X121944615Y-97188817D01*
X121968158Y-97193500D01*
X121968161Y-97193500D01*
X122125844Y-97193500D01*
X122125845Y-97193499D01*
X122280497Y-97162737D01*
X122426179Y-97102394D01*
X122557289Y-97014789D01*
X122668789Y-96903289D01*
X122756394Y-96772179D01*
X122816737Y-96626497D01*
X122847500Y-96471842D01*
X122847500Y-96441155D01*
X130454000Y-96441155D01*
X130454000Y-96598848D01*
X130484761Y-96753491D01*
X130484764Y-96753503D01*
X130545102Y-96899174D01*
X130545109Y-96899187D01*
X130632710Y-97030290D01*
X130632713Y-97030294D01*
X130744207Y-97141788D01*
X130744211Y-97141791D01*
X130875314Y-97229392D01*
X130875327Y-97229399D01*
X131020998Y-97289737D01*
X131021003Y-97289739D01*
X131175653Y-97320501D01*
X131175656Y-97320502D01*
X131175658Y-97320502D01*
X131333344Y-97320502D01*
X131333345Y-97320501D01*
X131487997Y-97289739D01*
X131633679Y-97229396D01*
X131725359Y-97168136D01*
X131792036Y-97147259D01*
X131859416Y-97165743D01*
X131863128Y-97168129D01*
X131954821Y-97229396D01*
X131954823Y-97229397D01*
X131954827Y-97229399D01*
X132100498Y-97289737D01*
X132100503Y-97289739D01*
X132255153Y-97320501D01*
X132255156Y-97320502D01*
X132255158Y-97320502D01*
X132412844Y-97320502D01*
X132412845Y-97320501D01*
X132567497Y-97289739D01*
X132713179Y-97229396D01*
X132844289Y-97141791D01*
X132955789Y-97030291D01*
X133043394Y-96899181D01*
X133103737Y-96753499D01*
X133134500Y-96598844D01*
X133134500Y-96441160D01*
X133134500Y-96441157D01*
X133134499Y-96441155D01*
X133127726Y-96407104D01*
X133103737Y-96286505D01*
X133087230Y-96246653D01*
X133043397Y-96140829D01*
X133043390Y-96140816D01*
X132955789Y-96009713D01*
X132955786Y-96009709D01*
X132844292Y-95898215D01*
X132844288Y-95898212D01*
X132713185Y-95810611D01*
X132713172Y-95810604D01*
X132567501Y-95750266D01*
X132567489Y-95750263D01*
X132412845Y-95719502D01*
X132412842Y-95719502D01*
X132255158Y-95719502D01*
X132255155Y-95719502D01*
X132100510Y-95750263D01*
X132100498Y-95750266D01*
X131954827Y-95810604D01*
X131954814Y-95810611D01*
X131863141Y-95871866D01*
X131796463Y-95892744D01*
X131729083Y-95874259D01*
X131725359Y-95871866D01*
X131633685Y-95810611D01*
X131633672Y-95810604D01*
X131488001Y-95750266D01*
X131487989Y-95750263D01*
X131333345Y-95719502D01*
X131333342Y-95719502D01*
X131175658Y-95719502D01*
X131175655Y-95719502D01*
X131021010Y-95750263D01*
X131020998Y-95750266D01*
X130875327Y-95810604D01*
X130875314Y-95810611D01*
X130744211Y-95898212D01*
X130744207Y-95898215D01*
X130632713Y-96009709D01*
X130632710Y-96009713D01*
X130545109Y-96140816D01*
X130545102Y-96140829D01*
X130484764Y-96286500D01*
X130484761Y-96286512D01*
X130454000Y-96441155D01*
X122847500Y-96441155D01*
X122847500Y-96314158D01*
X122840944Y-96281202D01*
X122840543Y-96271617D01*
X122846750Y-96246653D01*
X122849043Y-96221030D01*
X122855617Y-96210998D01*
X122857404Y-96203812D01*
X122865048Y-96196606D01*
X122876749Y-96178750D01*
X124186500Y-94869000D01*
X124231392Y-94734322D01*
X124271264Y-94676952D01*
X124335827Y-94650243D01*
X124373219Y-94651920D01*
X124381158Y-94653500D01*
X124538844Y-94653500D01*
X124538845Y-94653499D01*
X124693497Y-94622737D01*
X124839179Y-94562394D01*
X124970289Y-94474789D01*
X125081789Y-94363289D01*
X125169394Y-94232179D01*
X125229737Y-94086497D01*
X125248834Y-93990490D01*
X128762808Y-93990490D01*
X128762808Y-94148183D01*
X128793569Y-94302826D01*
X128793572Y-94302838D01*
X128853910Y-94448509D01*
X128853917Y-94448522D01*
X128941518Y-94579625D01*
X128941521Y-94579629D01*
X129053015Y-94691123D01*
X129053019Y-94691126D01*
X129184122Y-94778727D01*
X129184135Y-94778734D01*
X129329806Y-94839072D01*
X129329811Y-94839074D01*
X129387630Y-94850575D01*
X129479702Y-94868890D01*
X129541613Y-94901275D01*
X129570072Y-94943055D01*
X129573386Y-94951057D01*
X129573393Y-94951070D01*
X129660994Y-95082175D01*
X129772491Y-95193672D01*
X129772495Y-95193675D01*
X129903598Y-95281276D01*
X129903611Y-95281283D01*
X130049282Y-95341621D01*
X130049287Y-95341623D01*
X130203937Y-95372385D01*
X130203940Y-95372386D01*
X130203942Y-95372386D01*
X130361628Y-95372386D01*
X130361629Y-95372385D01*
X130516281Y-95341623D01*
X130661963Y-95281280D01*
X130793073Y-95193675D01*
X130904573Y-95082175D01*
X130992178Y-94951065D01*
X131052521Y-94805383D01*
X131083284Y-94650728D01*
X131083284Y-94493044D01*
X131083284Y-94493041D01*
X131083283Y-94493039D01*
X131074425Y-94448509D01*
X131052521Y-94338389D01*
X131052519Y-94338384D01*
X130992181Y-94192713D01*
X130992174Y-94192700D01*
X130924191Y-94090957D01*
X130904573Y-94061596D01*
X130871130Y-94028153D01*
X131406500Y-94028153D01*
X131406500Y-94185846D01*
X131437261Y-94340489D01*
X131437264Y-94340501D01*
X131497602Y-94486172D01*
X131497609Y-94486185D01*
X131585210Y-94617288D01*
X131585213Y-94617292D01*
X131696707Y-94728786D01*
X131696711Y-94728789D01*
X131827814Y-94816390D01*
X131827827Y-94816397D01*
X131954824Y-94869000D01*
X131973503Y-94876737D01*
X132096863Y-94901275D01*
X132128153Y-94907499D01*
X132128156Y-94907500D01*
X132128158Y-94907500D01*
X132285844Y-94907500D01*
X132285845Y-94907499D01*
X132440497Y-94876737D01*
X132553166Y-94830067D01*
X132586172Y-94816397D01*
X132586172Y-94816396D01*
X132586179Y-94816394D01*
X132717289Y-94728789D01*
X132828789Y-94617289D01*
X132916394Y-94486179D01*
X132976737Y-94340497D01*
X133007500Y-94185842D01*
X133007500Y-94028158D01*
X133007500Y-94028155D01*
X133007499Y-94028153D01*
X132996586Y-93973289D01*
X132976737Y-93873503D01*
X132974089Y-93867109D01*
X132916397Y-93727827D01*
X132916390Y-93727814D01*
X132828789Y-93596711D01*
X132828786Y-93596707D01*
X132717292Y-93485213D01*
X132717288Y-93485210D01*
X132586185Y-93397609D01*
X132586172Y-93397602D01*
X132440501Y-93337264D01*
X132440489Y-93337261D01*
X132285845Y-93306500D01*
X132285842Y-93306500D01*
X132128158Y-93306500D01*
X132128155Y-93306500D01*
X131973510Y-93337261D01*
X131973498Y-93337264D01*
X131827827Y-93397602D01*
X131827814Y-93397609D01*
X131696711Y-93485210D01*
X131696707Y-93485213D01*
X131585213Y-93596707D01*
X131585210Y-93596711D01*
X131497609Y-93727814D01*
X131497602Y-93727827D01*
X131437264Y-93873498D01*
X131437261Y-93873510D01*
X131406500Y-94028153D01*
X130871130Y-94028153D01*
X130793076Y-93950099D01*
X130793072Y-93950096D01*
X130661969Y-93862495D01*
X130661956Y-93862488D01*
X130516285Y-93802150D01*
X130516275Y-93802147D01*
X130366388Y-93772332D01*
X130304477Y-93739947D01*
X130276018Y-93698165D01*
X130272702Y-93690158D01*
X130272697Y-93690151D01*
X130185097Y-93559047D01*
X130073600Y-93447550D01*
X130073596Y-93447547D01*
X129942493Y-93359946D01*
X129942480Y-93359939D01*
X129796809Y-93299601D01*
X129796797Y-93299598D01*
X129642153Y-93268837D01*
X129642150Y-93268837D01*
X129484466Y-93268837D01*
X129484463Y-93268837D01*
X129329818Y-93299598D01*
X129329806Y-93299601D01*
X129184135Y-93359939D01*
X129184122Y-93359946D01*
X129053019Y-93447547D01*
X129053015Y-93447550D01*
X128941521Y-93559044D01*
X128941518Y-93559048D01*
X128853917Y-93690151D01*
X128853910Y-93690164D01*
X128793572Y-93835835D01*
X128793569Y-93835847D01*
X128762808Y-93990490D01*
X125248834Y-93990490D01*
X125260500Y-93931842D01*
X125260500Y-93774158D01*
X125260500Y-93774155D01*
X125260499Y-93774153D01*
X125251283Y-93727821D01*
X125229737Y-93619503D01*
X125204696Y-93559048D01*
X125169397Y-93473827D01*
X125169390Y-93473814D01*
X125081789Y-93342711D01*
X125081786Y-93342707D01*
X124970292Y-93231213D01*
X124970284Y-93231207D01*
X124854421Y-93153790D01*
X124809615Y-93100178D01*
X124800908Y-93030853D01*
X124805672Y-93011483D01*
X125068560Y-92222819D01*
X125108433Y-92165446D01*
X125172997Y-92138738D01*
X125241751Y-92151174D01*
X125292866Y-92198808D01*
X125307813Y-92237841D01*
X125318162Y-92289870D01*
X125318165Y-92289880D01*
X125378503Y-92435551D01*
X125378510Y-92435564D01*
X125466111Y-92566667D01*
X125466114Y-92566671D01*
X125577608Y-92678165D01*
X125577612Y-92678168D01*
X125708715Y-92765769D01*
X125708728Y-92765776D01*
X125854399Y-92826114D01*
X125854404Y-92826116D01*
X126009054Y-92856878D01*
X126009057Y-92856879D01*
X126009059Y-92856879D01*
X126166745Y-92856879D01*
X126166746Y-92856878D01*
X126321398Y-92826116D01*
X126467080Y-92765773D01*
X126598190Y-92678168D01*
X126709690Y-92566668D01*
X126797295Y-92435558D01*
X126857638Y-92289876D01*
X126888401Y-92135221D01*
X126888401Y-91977537D01*
X126888401Y-91977534D01*
X126888400Y-91977532D01*
X126858757Y-91828509D01*
X126857638Y-91822882D01*
X126857636Y-91822877D01*
X126797298Y-91677206D01*
X126797291Y-91677193D01*
X126709690Y-91546090D01*
X126709687Y-91546086D01*
X126598193Y-91434592D01*
X126598189Y-91434589D01*
X126467086Y-91346988D01*
X126467073Y-91346981D01*
X126321402Y-91286643D01*
X126321390Y-91286640D01*
X126166746Y-91255879D01*
X126166743Y-91255879D01*
X126009059Y-91255879D01*
X126009056Y-91255879D01*
X125854411Y-91286640D01*
X125854399Y-91286643D01*
X125708728Y-91346981D01*
X125708715Y-91346988D01*
X125577612Y-91434589D01*
X125577608Y-91434592D01*
X125466114Y-91546086D01*
X125466111Y-91546090D01*
X125378510Y-91677193D01*
X125378503Y-91677206D01*
X125318165Y-91822877D01*
X125318160Y-91822896D01*
X125318154Y-91822904D01*
X125315833Y-91828509D01*
X125314769Y-91828068D01*
X125279861Y-91881334D01*
X125216048Y-91909789D01*
X125146981Y-91899227D01*
X125094589Y-91853001D01*
X125075500Y-91786898D01*
X125075500Y-90398154D01*
X128051499Y-90398154D01*
X128051499Y-90555847D01*
X128082260Y-90710490D01*
X128082263Y-90710502D01*
X128142601Y-90856173D01*
X128142608Y-90856186D01*
X128230209Y-90987289D01*
X128230212Y-90987293D01*
X128341706Y-91098787D01*
X128341710Y-91098790D01*
X128472813Y-91186391D01*
X128472826Y-91186398D01*
X128598869Y-91238606D01*
X128618502Y-91246738D01*
X128773152Y-91277500D01*
X128773155Y-91277501D01*
X128773157Y-91277501D01*
X128930843Y-91277501D01*
X128930844Y-91277500D01*
X129085496Y-91246738D01*
X129231178Y-91186395D01*
X129362288Y-91098790D01*
X129473788Y-90987290D01*
X129561393Y-90856180D01*
X129621736Y-90710498D01*
X129652499Y-90555843D01*
X129652499Y-90398159D01*
X129652499Y-90398156D01*
X129652498Y-90398154D01*
X129621736Y-90243504D01*
X129621734Y-90243499D01*
X129561396Y-90097828D01*
X129561389Y-90097815D01*
X129473788Y-89966712D01*
X129473785Y-89966708D01*
X129362291Y-89855214D01*
X129362287Y-89855211D01*
X129231184Y-89767610D01*
X129231171Y-89767603D01*
X129085500Y-89707265D01*
X129085488Y-89707262D01*
X128930844Y-89676501D01*
X128930841Y-89676501D01*
X128773157Y-89676501D01*
X128773154Y-89676501D01*
X128618509Y-89707262D01*
X128618497Y-89707265D01*
X128472826Y-89767603D01*
X128472813Y-89767610D01*
X128341710Y-89855211D01*
X128341706Y-89855214D01*
X128230212Y-89966708D01*
X128230209Y-89966712D01*
X128142608Y-90097815D01*
X128142601Y-90097828D01*
X128082263Y-90243499D01*
X128082260Y-90243511D01*
X128051499Y-90398154D01*
X125075500Y-90398154D01*
X125075500Y-88313153D01*
X128739500Y-88313153D01*
X128739500Y-88470846D01*
X128770261Y-88625489D01*
X128770264Y-88625501D01*
X128830602Y-88771172D01*
X128830609Y-88771185D01*
X128918210Y-88902288D01*
X128918213Y-88902292D01*
X129029707Y-89013786D01*
X129029711Y-89013789D01*
X129160814Y-89101390D01*
X129160827Y-89101397D01*
X129258083Y-89141681D01*
X129306503Y-89161737D01*
X129461153Y-89192499D01*
X129461156Y-89192500D01*
X129461158Y-89192500D01*
X129618844Y-89192500D01*
X129618845Y-89192499D01*
X129773497Y-89161737D01*
X129919179Y-89101394D01*
X130050289Y-89013789D01*
X130161789Y-88902289D01*
X130249394Y-88771179D01*
X130309737Y-88625497D01*
X130340500Y-88470842D01*
X130340500Y-88313158D01*
X130340500Y-88313155D01*
X130340499Y-88313153D01*
X130309738Y-88158510D01*
X130309737Y-88158503D01*
X130309735Y-88158498D01*
X130249397Y-88012827D01*
X130249390Y-88012814D01*
X130161789Y-87881711D01*
X130161786Y-87881707D01*
X130050292Y-87770213D01*
X130050288Y-87770210D01*
X129919185Y-87682609D01*
X129919172Y-87682602D01*
X129773501Y-87622264D01*
X129773489Y-87622261D01*
X129618845Y-87591500D01*
X129618842Y-87591500D01*
X129461158Y-87591500D01*
X129461155Y-87591500D01*
X129306510Y-87622261D01*
X129306498Y-87622264D01*
X129160827Y-87682602D01*
X129160814Y-87682609D01*
X129029711Y-87770210D01*
X129029707Y-87770213D01*
X128918213Y-87881707D01*
X128918210Y-87881711D01*
X128830609Y-88012814D01*
X128830602Y-88012827D01*
X128770264Y-88158498D01*
X128770261Y-88158510D01*
X128739500Y-88313153D01*
X125075500Y-88313153D01*
X125075500Y-87770952D01*
X125078600Y-87743398D01*
X125113219Y-87591500D01*
X125857000Y-84328000D01*
X125857000Y-83125435D01*
X125876685Y-83058396D01*
X125929489Y-83012641D01*
X125998647Y-83002697D01*
X126053886Y-83025117D01*
X126227842Y-83151505D01*
X126420682Y-83249763D01*
X126420685Y-83249764D01*
X126626517Y-83316642D01*
X126698500Y-83328043D01*
X126698500Y-82201813D01*
X126741033Y-82226370D01*
X126877737Y-82263000D01*
X127019263Y-82263000D01*
X127155967Y-82226370D01*
X127198500Y-82201813D01*
X127198500Y-83328042D01*
X127270480Y-83316642D01*
X127270483Y-83316642D01*
X127476314Y-83249764D01*
X127476317Y-83249763D01*
X127669157Y-83151505D01*
X127844254Y-83024288D01*
X127844255Y-83024288D01*
X127997288Y-82871255D01*
X127997293Y-82871249D01*
X128117873Y-82705286D01*
X128173203Y-82662620D01*
X128242816Y-82656641D01*
X128304611Y-82689247D01*
X128318506Y-82705281D01*
X128439328Y-82871578D01*
X128592422Y-83024672D01*
X128767581Y-83151933D01*
X128852913Y-83195412D01*
X128960490Y-83250226D01*
X128960493Y-83250227D01*
X129063447Y-83283678D01*
X129166403Y-83317130D01*
X129380246Y-83351000D01*
X129380247Y-83351000D01*
X129596753Y-83351000D01*
X129596754Y-83351000D01*
X129810597Y-83317130D01*
X130016509Y-83250226D01*
X130209419Y-83151933D01*
X130384578Y-83024672D01*
X130537672Y-82871578D01*
X130664933Y-82696419D01*
X130763226Y-82503509D01*
X130830130Y-82297597D01*
X130864000Y-82083754D01*
X130864000Y-81367246D01*
X130830130Y-81153403D01*
X130763226Y-80947491D01*
X130763226Y-80947490D01*
X130682154Y-80788379D01*
X130664933Y-80754581D01*
X130537672Y-80579422D01*
X130384578Y-80426328D01*
X130209419Y-80299067D01*
X130016509Y-80200773D01*
X130016506Y-80200772D01*
X129810598Y-80133870D01*
X129703675Y-80116935D01*
X129596754Y-80100000D01*
X129380246Y-80100000D01*
X129339782Y-80106409D01*
X129166401Y-80133870D01*
X128960493Y-80200772D01*
X128960490Y-80200773D01*
X128767580Y-80299067D01*
X128667645Y-80371674D01*
X128592422Y-80426328D01*
X128592420Y-80426330D01*
X128592419Y-80426330D01*
X128439329Y-80579420D01*
X128318509Y-80745714D01*
X128263178Y-80788379D01*
X128193565Y-80794358D01*
X128131770Y-80761752D01*
X128117873Y-80745714D01*
X127997288Y-80579745D01*
X127997288Y-80579744D01*
X127844255Y-80426711D01*
X127669157Y-80299494D01*
X127476317Y-80201236D01*
X127476314Y-80201235D01*
X127270483Y-80134357D01*
X127198500Y-80122956D01*
X127198500Y-81249186D01*
X127155967Y-81224630D01*
X127019263Y-81188000D01*
X126877737Y-81188000D01*
X126741033Y-81224630D01*
X126698500Y-81249186D01*
X126698500Y-80122956D01*
X126698499Y-80122956D01*
X126626516Y-80134357D01*
X126626515Y-80134357D01*
X126420685Y-80201235D01*
X126420682Y-80201236D01*
X126227842Y-80299494D01*
X126052745Y-80426711D01*
X126052742Y-80426713D01*
X126042029Y-80437426D01*
X125980705Y-80470909D01*
X125911013Y-80465922D01*
X125855081Y-80424049D01*
X125830874Y-80361107D01*
X125218004Y-73701471D01*
X125231462Y-73632911D01*
X125279851Y-73582510D01*
X125347807Y-73566270D01*
X125367813Y-73568937D01*
G37*
%TD.AperFunction*%
%TD*%
%TA.AperFunction,Conductor*%
%TO.N,GND*%
G36*
X122885234Y-73538023D02*
G01*
X122906604Y-73544298D01*
X122956795Y-73573112D01*
X122960036Y-73576172D01*
X122968985Y-73591498D01*
X122971461Y-73589673D01*
X123037161Y-73678752D01*
X123037452Y-73679093D01*
X123037454Y-73679096D01*
X123170904Y-73812546D01*
X123323587Y-73923477D01*
X123403034Y-73963957D01*
X123491739Y-74009155D01*
X123491741Y-74009155D01*
X123491744Y-74009157D01*
X123671233Y-74067477D01*
X123741134Y-74078548D01*
X123857632Y-74097000D01*
X123857637Y-74097000D01*
X124046367Y-74097000D01*
X124046368Y-74097000D01*
X124149920Y-74080598D01*
X124149921Y-74080598D01*
X124177535Y-74076224D01*
X124232767Y-74067477D01*
X124412256Y-74009157D01*
X124553260Y-73937311D01*
X124586660Y-73925930D01*
X124594695Y-73924421D01*
X124664214Y-73931396D01*
X124718927Y-73974849D01*
X124741054Y-74034928D01*
X125306173Y-80175681D01*
X125292715Y-80244242D01*
X125244326Y-80294643D01*
X125176370Y-80310883D01*
X125126401Y-80297529D01*
X124936509Y-80200773D01*
X124936506Y-80200772D01*
X124936505Y-80200771D01*
X124936502Y-80200770D01*
X124936482Y-80200763D01*
X124730600Y-80133870D01*
X124730601Y-80133870D01*
X124623675Y-80116935D01*
X124516754Y-80100000D01*
X124516753Y-80100000D01*
X124300247Y-80100000D01*
X124300246Y-80100000D01*
X124256682Y-80106900D01*
X124256676Y-80106901D01*
X124086397Y-80133870D01*
X123880516Y-80200763D01*
X123880497Y-80200770D01*
X123880496Y-80200770D01*
X123687587Y-80299063D01*
X123687584Y-80299064D01*
X123687580Y-80299067D01*
X123613872Y-80352618D01*
X123512423Y-80426326D01*
X123442788Y-80495962D01*
X123414532Y-80517113D01*
X123402351Y-80523764D01*
X123334077Y-80538615D01*
X123268626Y-80514206D01*
X123264953Y-80511457D01*
X123223076Y-80455527D01*
X123223074Y-80455523D01*
X123186854Y-80358413D01*
X123186850Y-80358406D01*
X123100690Y-80243312D01*
X123100687Y-80243309D01*
X123100685Y-80243307D01*
X123010348Y-80175681D01*
X122985593Y-80157149D01*
X122985588Y-80157146D01*
X122985589Y-80157146D01*
X122850877Y-80106902D01*
X122850870Y-80106900D01*
X122791352Y-80100500D01*
X122791344Y-80100500D01*
X122118500Y-80100500D01*
X122118500Y-81074426D01*
X122098815Y-81141465D01*
X122046011Y-81187220D01*
X121976853Y-81197164D01*
X121962409Y-81194202D01*
X121956195Y-81192537D01*
X121939263Y-81188000D01*
X121939261Y-81188000D01*
X121797739Y-81188000D01*
X121797737Y-81188000D01*
X121774591Y-81194202D01*
X121704741Y-81192537D01*
X121646879Y-81153373D01*
X121619377Y-81089144D01*
X121618500Y-81074426D01*
X121618500Y-80100500D01*
X120945655Y-80100500D01*
X120945646Y-80100500D01*
X120886128Y-80106900D01*
X120886121Y-80106902D01*
X120751410Y-80157146D01*
X120751407Y-80157148D01*
X120636313Y-80243307D01*
X120636307Y-80243313D01*
X120550148Y-80358407D01*
X120550146Y-80358410D01*
X120499902Y-80493121D01*
X120499900Y-80493128D01*
X120493500Y-80552646D01*
X120493500Y-80552655D01*
X120493500Y-81475500D01*
X121217427Y-81475500D01*
X121284466Y-81495185D01*
X121330221Y-81547989D01*
X121340165Y-81617147D01*
X121337204Y-81631581D01*
X121331000Y-81654737D01*
X121331000Y-81796263D01*
X121337201Y-81819408D01*
X121335539Y-81889256D01*
X121296377Y-81947118D01*
X121232149Y-81974623D01*
X121217427Y-81975500D01*
X120493500Y-81975500D01*
X120493500Y-82898352D01*
X120499900Y-82957870D01*
X120499902Y-82957877D01*
X120550146Y-83092588D01*
X120550148Y-83092591D01*
X120636307Y-83207685D01*
X120636309Y-83207687D01*
X120636312Y-83207690D01*
X120751406Y-83293850D01*
X120751413Y-83293854D01*
X120886120Y-83344096D01*
X120886127Y-83344098D01*
X120892968Y-83344833D01*
X120945638Y-83350498D01*
X120945655Y-83350499D01*
X120945672Y-83350500D01*
X121618500Y-83350500D01*
X121618500Y-82376573D01*
X121638185Y-82309534D01*
X121690989Y-82263779D01*
X121760147Y-82253835D01*
X121774581Y-82256795D01*
X121797737Y-82263000D01*
X121939260Y-82263000D01*
X121939263Y-82263000D01*
X121962408Y-82256798D01*
X122032256Y-82258461D01*
X122090118Y-82297623D01*
X122117623Y-82361851D01*
X122118500Y-82376573D01*
X122118500Y-83350500D01*
X122791328Y-83350500D01*
X122791336Y-83350500D01*
X122791347Y-83350499D01*
X122827060Y-83346658D01*
X122850872Y-83344098D01*
X122850879Y-83344096D01*
X122985586Y-83293854D01*
X122985593Y-83293850D01*
X123100687Y-83207690D01*
X123100690Y-83207687D01*
X123186850Y-83092593D01*
X123186854Y-83092586D01*
X123220088Y-83003481D01*
X123236999Y-82972510D01*
X123245318Y-82961397D01*
X123301248Y-82919526D01*
X123370938Y-82914539D01*
X123375421Y-82915514D01*
X123436746Y-82948996D01*
X123512422Y-83024672D01*
X123687581Y-83151933D01*
X123772913Y-83195412D01*
X123880490Y-83250226D01*
X123880493Y-83250227D01*
X123983447Y-83283678D01*
X124086403Y-83317130D01*
X124300246Y-83351000D01*
X124300247Y-83351000D01*
X124516753Y-83351000D01*
X124516754Y-83351000D01*
X124730597Y-83317130D01*
X124936509Y-83250226D01*
X125129419Y-83151933D01*
X125154613Y-83133627D01*
X125220419Y-83110147D01*
X125288473Y-83125971D01*
X125337169Y-83176076D01*
X125351500Y-83233945D01*
X125351500Y-84257170D01*
X125348400Y-84284724D01*
X124585736Y-87631075D01*
X124576273Y-87686851D01*
X124576268Y-87686891D01*
X124573170Y-87714420D01*
X124573168Y-87714444D01*
X124570001Y-87770917D01*
X124570000Y-87770961D01*
X124570000Y-88425836D01*
X124567095Y-88452521D01*
X124440500Y-89026996D01*
X124440500Y-91146692D01*
X124435474Y-91181637D01*
X124431636Y-91194704D01*
X124393857Y-91253479D01*
X124330299Y-91282498D01*
X124268291Y-91275549D01*
X124260577Y-91272593D01*
X124236059Y-91259907D01*
X124204184Y-91238609D01*
X124204183Y-91238608D01*
X124204180Y-91238606D01*
X124204172Y-91238601D01*
X124204169Y-91238600D01*
X124058502Y-91178264D01*
X124058471Y-91178257D01*
X123903847Y-91147500D01*
X123903845Y-91147500D01*
X123903842Y-91147500D01*
X123746158Y-91147500D01*
X123746155Y-91147500D01*
X123746153Y-91147500D01*
X123591527Y-91178257D01*
X123591496Y-91178264D01*
X123445833Y-91238598D01*
X123445824Y-91238603D01*
X123445807Y-91238613D01*
X123314708Y-91326211D01*
X123314707Y-91326212D01*
X123314701Y-91326217D01*
X123203217Y-91437701D01*
X123203212Y-91437707D01*
X123203211Y-91437708D01*
X123115613Y-91568807D01*
X123115603Y-91568824D01*
X123115598Y-91568833D01*
X123055264Y-91714496D01*
X123055257Y-91714527D01*
X123024500Y-91869150D01*
X123024500Y-91869153D01*
X123024500Y-92026846D01*
X123024500Y-92026848D01*
X123024499Y-92026848D01*
X123055257Y-92181471D01*
X123055264Y-92181502D01*
X123115598Y-92327165D01*
X123115603Y-92327174D01*
X123115613Y-92327191D01*
X123203211Y-92458290D01*
X123203212Y-92458291D01*
X123203217Y-92458297D01*
X123314701Y-92569781D01*
X123314707Y-92569786D01*
X123314711Y-92569789D01*
X123445814Y-92657390D01*
X123445827Y-92657397D01*
X123503300Y-92681202D01*
X123590799Y-92717446D01*
X123590798Y-92717446D01*
X123591494Y-92717734D01*
X123591506Y-92717738D01*
X123709160Y-92741140D01*
X123738513Y-92746979D01*
X123741247Y-92747703D01*
X123746155Y-92748500D01*
X123903844Y-92748500D01*
X123903846Y-92748500D01*
X123953770Y-92738568D01*
X124028660Y-92723672D01*
X124042486Y-92720921D01*
X124077714Y-92719033D01*
X124091546Y-92720270D01*
X124156562Y-92745851D01*
X124197414Y-92802481D01*
X124197823Y-92803639D01*
X124203637Y-92862602D01*
X124202824Y-92868250D01*
X124197020Y-92891853D01*
X124136271Y-93063973D01*
X124119906Y-93095246D01*
X124102016Y-93120047D01*
X124070342Y-93150605D01*
X123949708Y-93231211D01*
X123949705Y-93231214D01*
X123949701Y-93231217D01*
X123838217Y-93342701D01*
X123838212Y-93342707D01*
X123838211Y-93342708D01*
X123750613Y-93473807D01*
X123750603Y-93473824D01*
X123750598Y-93473833D01*
X123690264Y-93619496D01*
X123690257Y-93619527D01*
X123659500Y-93774150D01*
X123659500Y-93931847D01*
X123690499Y-94087694D01*
X123692589Y-94092113D01*
X123711212Y-94137074D01*
X123719941Y-94171273D01*
X123722891Y-94198716D01*
X123716532Y-94253238D01*
X123690602Y-94326708D01*
X123680471Y-94348445D01*
X123668461Y-94368803D01*
X123654340Y-94388178D01*
X122552678Y-95627546D01*
X122525710Y-95650323D01*
X122512453Y-95658607D01*
X122445178Y-95677439D01*
X122434080Y-95677299D01*
X122388192Y-95667870D01*
X122280502Y-95623264D01*
X122280471Y-95623257D01*
X122125847Y-95592500D01*
X122125845Y-95592500D01*
X122125842Y-95592500D01*
X121968158Y-95592500D01*
X121968155Y-95592500D01*
X121968153Y-95592500D01*
X121813527Y-95623257D01*
X121813496Y-95623264D01*
X121667833Y-95683598D01*
X121667824Y-95683603D01*
X121667807Y-95683613D01*
X121536708Y-95771211D01*
X121536707Y-95771212D01*
X121536701Y-95771217D01*
X121425217Y-95882701D01*
X121425212Y-95882707D01*
X121425211Y-95882708D01*
X121337613Y-96013807D01*
X121337603Y-96013824D01*
X121337598Y-96013833D01*
X121277264Y-96159496D01*
X121277257Y-96159527D01*
X121246500Y-96314150D01*
X121246500Y-96471846D01*
X121273227Y-96606212D01*
X121277261Y-96626489D01*
X121277264Y-96626501D01*
X121332189Y-96759103D01*
X121333368Y-96761948D01*
X121337607Y-96772181D01*
X121359276Y-96804611D01*
X121374509Y-96836450D01*
X121379179Y-96851365D01*
X121380427Y-96921219D01*
X121378127Y-96929604D01*
X121351222Y-96979184D01*
X121271982Y-97068328D01*
X121266985Y-97073627D01*
X119829159Y-98511454D01*
X119800856Y-98532632D01*
X118813319Y-99071288D01*
X118745039Y-99086109D01*
X118679586Y-99061662D01*
X118637740Y-99005710D01*
X118632327Y-98986633D01*
X118625737Y-98953503D01*
X118624349Y-98950152D01*
X118623086Y-98947101D01*
X118623086Y-98947100D01*
X118565400Y-98807833D01*
X118565395Y-98807824D01*
X118565390Y-98807814D01*
X118477789Y-98676711D01*
X118477786Y-98676707D01*
X118477781Y-98676701D01*
X118366297Y-98565217D01*
X118366291Y-98565212D01*
X118366290Y-98565211D01*
X118235191Y-98477613D01*
X118235190Y-98477612D01*
X118235185Y-98477609D01*
X118235172Y-98477602D01*
X118235165Y-98477598D01*
X118089502Y-98417264D01*
X118089471Y-98417257D01*
X117934847Y-98386500D01*
X117934845Y-98386500D01*
X117934842Y-98386500D01*
X117777158Y-98386500D01*
X117777155Y-98386500D01*
X117777153Y-98386500D01*
X117622527Y-98417257D01*
X117622496Y-98417264D01*
X117476833Y-98477598D01*
X117476824Y-98477603D01*
X117476807Y-98477613D01*
X117345708Y-98565211D01*
X117345707Y-98565212D01*
X117345701Y-98565217D01*
X117234217Y-98676701D01*
X117234212Y-98676707D01*
X117234211Y-98676708D01*
X117146613Y-98807807D01*
X117146603Y-98807824D01*
X117146598Y-98807833D01*
X117086264Y-98953496D01*
X117086257Y-98953527D01*
X117055500Y-99108150D01*
X117055500Y-99108153D01*
X117055500Y-99265846D01*
X117055500Y-99265848D01*
X117055499Y-99265848D01*
X117086257Y-99420471D01*
X117086264Y-99420502D01*
X117146598Y-99566165D01*
X117146603Y-99566174D01*
X117146613Y-99566191D01*
X117234211Y-99697290D01*
X117234212Y-99697291D01*
X117234217Y-99697297D01*
X117269299Y-99732379D01*
X117302784Y-99793702D01*
X117297800Y-99863394D01*
X117255928Y-99919327D01*
X117240995Y-99928919D01*
X116996614Y-100062217D01*
X116928335Y-100077038D01*
X116862881Y-100052591D01*
X116821036Y-99996639D01*
X116819306Y-99991675D01*
X116803558Y-99943206D01*
X116802497Y-99939445D01*
X116801505Y-99937449D01*
X116799706Y-99933735D01*
X116798772Y-99932140D01*
X116705548Y-99749179D01*
X116580609Y-99577213D01*
X116430286Y-99426890D01*
X116430282Y-99426886D01*
X116258324Y-99301953D01*
X116257758Y-99301606D01*
X116256127Y-99300357D01*
X116254401Y-99299103D01*
X116254432Y-99299059D01*
X116237460Y-99286062D01*
X116227183Y-99276357D01*
X116191957Y-99216017D01*
X116194945Y-99146212D01*
X116231112Y-99092495D01*
X116238283Y-99086281D01*
X116254701Y-99074266D01*
X116258310Y-99072054D01*
X116258316Y-99072051D01*
X116327894Y-99021500D01*
X116430286Y-98947109D01*
X116430286Y-98947107D01*
X116430346Y-98947064D01*
X116431105Y-98946290D01*
X116580604Y-98796792D01*
X116580606Y-98796788D01*
X116580609Y-98796786D01*
X116705548Y-98624820D01*
X116705547Y-98624820D01*
X116705551Y-98624816D01*
X116705553Y-98624810D01*
X116725945Y-98596744D01*
X116734230Y-98568529D01*
X116802057Y-98435412D01*
X116867746Y-98233243D01*
X116901000Y-98023287D01*
X116901000Y-97810713D01*
X116867746Y-97600757D01*
X116802057Y-97398588D01*
X116705551Y-97209184D01*
X116705549Y-97209181D01*
X116705548Y-97209179D01*
X116705202Y-97208703D01*
X116705200Y-97208699D01*
X116580612Y-97037216D01*
X116430282Y-96886886D01*
X116258324Y-96761953D01*
X116257758Y-96761606D01*
X116256127Y-96760357D01*
X116254401Y-96759103D01*
X116254432Y-96759059D01*
X116237460Y-96746062D01*
X116227183Y-96736357D01*
X116191957Y-96676017D01*
X116194945Y-96606212D01*
X116231112Y-96552495D01*
X116238283Y-96546281D01*
X116254694Y-96534269D01*
X116258297Y-96532060D01*
X116258316Y-96532051D01*
X116341182Y-96471846D01*
X116430286Y-96407109D01*
X116430288Y-96407106D01*
X116430292Y-96407104D01*
X116430296Y-96407099D01*
X116430348Y-96407063D01*
X116431109Y-96406286D01*
X116580604Y-96256792D01*
X116580606Y-96256788D01*
X116580609Y-96256786D01*
X116705548Y-96084820D01*
X116705547Y-96084820D01*
X116705551Y-96084816D01*
X116705553Y-96084810D01*
X116725945Y-96056744D01*
X116734230Y-96028529D01*
X116802057Y-95895412D01*
X116867746Y-95693243D01*
X116901000Y-95483287D01*
X116901000Y-95270713D01*
X116867746Y-95060757D01*
X116802057Y-94858588D01*
X116782828Y-94820848D01*
X120392499Y-94820848D01*
X120423257Y-94975471D01*
X120423264Y-94975502D01*
X120483598Y-95121165D01*
X120483603Y-95121174D01*
X120483613Y-95121191D01*
X120571211Y-95252290D01*
X120571212Y-95252291D01*
X120571217Y-95252297D01*
X120682701Y-95363781D01*
X120682707Y-95363786D01*
X120682711Y-95363789D01*
X120813814Y-95451390D01*
X120813827Y-95451397D01*
X120959498Y-95511735D01*
X120959503Y-95511737D01*
X121114153Y-95542499D01*
X121114156Y-95542500D01*
X121114158Y-95542500D01*
X121271844Y-95542500D01*
X121271845Y-95542499D01*
X121426497Y-95511737D01*
X121572179Y-95451394D01*
X121703289Y-95363789D01*
X121814789Y-95252289D01*
X121902394Y-95121179D01*
X121962737Y-94975497D01*
X121993500Y-94820842D01*
X121993500Y-94663158D01*
X121993500Y-94663155D01*
X121993500Y-94662976D01*
X121993078Y-94661037D01*
X121985460Y-94622737D01*
X121962742Y-94508527D01*
X121962738Y-94508507D01*
X121962738Y-94508506D01*
X121958059Y-94497209D01*
X121958059Y-94497208D01*
X121902400Y-94362833D01*
X121902395Y-94362824D01*
X121902390Y-94362814D01*
X121814789Y-94231711D01*
X121814786Y-94231707D01*
X121814781Y-94231701D01*
X121703297Y-94120217D01*
X121703291Y-94120212D01*
X121703290Y-94120211D01*
X121572191Y-94032613D01*
X121572190Y-94032612D01*
X121572185Y-94032609D01*
X121572172Y-94032602D01*
X121572165Y-94032598D01*
X121426502Y-93972264D01*
X121426471Y-93972257D01*
X121271847Y-93941500D01*
X121271845Y-93941500D01*
X121271842Y-93941500D01*
X121114158Y-93941500D01*
X121114155Y-93941500D01*
X121114153Y-93941500D01*
X120959527Y-93972257D01*
X120959496Y-93972264D01*
X120813833Y-94032598D01*
X120813824Y-94032603D01*
X120813807Y-94032613D01*
X120682708Y-94120211D01*
X120682707Y-94120212D01*
X120682701Y-94120217D01*
X120571217Y-94231701D01*
X120571212Y-94231707D01*
X120571211Y-94231708D01*
X120483613Y-94362807D01*
X120483603Y-94362824D01*
X120483598Y-94362833D01*
X120423264Y-94508496D01*
X120423257Y-94508527D01*
X120392500Y-94663150D01*
X120392500Y-94663153D01*
X120392500Y-94820846D01*
X120392500Y-94820848D01*
X120392499Y-94820848D01*
X116782828Y-94820848D01*
X116728058Y-94713356D01*
X116728058Y-94713355D01*
X116705729Y-94669533D01*
X116705553Y-94669185D01*
X116580610Y-94497214D01*
X116430282Y-94346886D01*
X116258324Y-94221953D01*
X116257758Y-94221606D01*
X116256127Y-94220357D01*
X116254401Y-94219103D01*
X116254432Y-94219059D01*
X116237460Y-94206062D01*
X116227183Y-94196357D01*
X116191957Y-94136017D01*
X116194945Y-94066212D01*
X116231112Y-94012495D01*
X116238283Y-94006281D01*
X116254694Y-93994269D01*
X116258297Y-93992060D01*
X116258316Y-93992051D01*
X116341182Y-93931846D01*
X116430286Y-93867109D01*
X116430288Y-93867106D01*
X116430292Y-93867104D01*
X116430296Y-93867099D01*
X116430348Y-93867063D01*
X116431109Y-93866286D01*
X116580604Y-93716792D01*
X116580606Y-93716788D01*
X116580609Y-93716786D01*
X116705548Y-93544820D01*
X116705547Y-93544820D01*
X116705551Y-93544816D01*
X116705553Y-93544810D01*
X116725945Y-93516744D01*
X116734230Y-93488529D01*
X116802057Y-93355412D01*
X116867746Y-93153243D01*
X116901000Y-92943287D01*
X116901000Y-92730713D01*
X116867746Y-92520757D01*
X116802057Y-92318588D01*
X116705551Y-92129184D01*
X116705549Y-92129181D01*
X116705548Y-92129179D01*
X116705202Y-92128703D01*
X116705200Y-92128699D01*
X116580612Y-91957216D01*
X116430282Y-91806886D01*
X116258324Y-91681953D01*
X116257758Y-91681606D01*
X116256127Y-91680357D01*
X116254401Y-91679103D01*
X116254432Y-91679059D01*
X116237460Y-91666062D01*
X116227183Y-91656357D01*
X116191957Y-91596017D01*
X116194945Y-91526212D01*
X116231112Y-91472495D01*
X116238283Y-91466281D01*
X116254701Y-91454266D01*
X116258308Y-91452054D01*
X116258316Y-91452051D01*
X116282345Y-91434592D01*
X116282349Y-91434591D01*
X116430269Y-91327121D01*
X116430286Y-91327109D01*
X116430287Y-91327107D01*
X116430347Y-91327063D01*
X116431105Y-91326290D01*
X116580604Y-91176792D01*
X116580606Y-91176788D01*
X116580609Y-91176786D01*
X116705548Y-91004820D01*
X116705547Y-91004820D01*
X116705551Y-91004816D01*
X116705553Y-91004810D01*
X116725945Y-90976744D01*
X116734230Y-90948529D01*
X116802057Y-90815412D01*
X116867746Y-90613243D01*
X116901000Y-90403287D01*
X116901000Y-90190713D01*
X116890093Y-90121848D01*
X120230499Y-90121848D01*
X120261257Y-90276471D01*
X120261264Y-90276502D01*
X120321598Y-90422165D01*
X120321603Y-90422174D01*
X120321613Y-90422191D01*
X120409211Y-90553290D01*
X120409212Y-90553291D01*
X120409217Y-90553297D01*
X120520701Y-90664781D01*
X120520707Y-90664786D01*
X120520711Y-90664789D01*
X120651814Y-90752390D01*
X120651827Y-90752397D01*
X120797498Y-90812735D01*
X120797503Y-90812737D01*
X120952153Y-90843499D01*
X120952156Y-90843500D01*
X120952158Y-90843500D01*
X121109844Y-90843500D01*
X121109845Y-90843499D01*
X121264497Y-90812737D01*
X121410179Y-90752394D01*
X121541289Y-90664789D01*
X121652789Y-90553289D01*
X121740394Y-90422179D01*
X121800737Y-90276497D01*
X121831500Y-90121842D01*
X121831500Y-89964158D01*
X121831500Y-89964155D01*
X121831500Y-89963973D01*
X121831065Y-89961972D01*
X121801398Y-89812830D01*
X121800984Y-89810406D01*
X121800737Y-89809508D01*
X121800737Y-89809503D01*
X121787932Y-89778588D01*
X121787931Y-89778585D01*
X121740400Y-89663833D01*
X121740395Y-89663824D01*
X121740390Y-89663814D01*
X121652789Y-89532711D01*
X121652786Y-89532707D01*
X121652781Y-89532701D01*
X121541297Y-89421217D01*
X121541291Y-89421212D01*
X121541290Y-89421211D01*
X121410191Y-89333613D01*
X121410190Y-89333612D01*
X121410185Y-89333609D01*
X121410172Y-89333602D01*
X121410165Y-89333598D01*
X121264502Y-89273264D01*
X121264471Y-89273257D01*
X121109847Y-89242500D01*
X121109845Y-89242500D01*
X121109842Y-89242500D01*
X120952158Y-89242500D01*
X120952155Y-89242500D01*
X120952153Y-89242500D01*
X120797527Y-89273257D01*
X120797496Y-89273264D01*
X120651833Y-89333598D01*
X120651824Y-89333603D01*
X120651807Y-89333613D01*
X120520708Y-89421211D01*
X120520707Y-89421212D01*
X120520701Y-89421217D01*
X120409217Y-89532701D01*
X120409212Y-89532707D01*
X120409211Y-89532708D01*
X120321613Y-89663807D01*
X120321603Y-89663824D01*
X120321598Y-89663833D01*
X120261264Y-89809496D01*
X120261257Y-89809527D01*
X120230500Y-89964150D01*
X120230500Y-89964153D01*
X120230500Y-90121846D01*
X120230500Y-90121848D01*
X120230499Y-90121848D01*
X116890093Y-90121848D01*
X116867747Y-89980762D01*
X116867746Y-89980760D01*
X116867746Y-89980757D01*
X116802057Y-89778588D01*
X116705551Y-89589184D01*
X116705549Y-89589181D01*
X116705548Y-89589179D01*
X116705202Y-89588703D01*
X116705200Y-89588699D01*
X116580612Y-89417216D01*
X116430282Y-89266886D01*
X116258324Y-89141953D01*
X116257758Y-89141606D01*
X116256127Y-89140357D01*
X116254401Y-89139103D01*
X116254432Y-89139059D01*
X116237460Y-89126062D01*
X116227183Y-89116357D01*
X116191957Y-89056017D01*
X116194945Y-88986212D01*
X116231113Y-88932493D01*
X116238283Y-88926281D01*
X116254687Y-88914275D01*
X116258316Y-88912051D01*
X116280289Y-88896086D01*
X116430286Y-88787109D01*
X116430287Y-88787106D01*
X116430290Y-88787105D01*
X116430292Y-88787104D01*
X116430293Y-88787102D01*
X116430347Y-88787063D01*
X116431105Y-88786290D01*
X116580604Y-88636792D01*
X116580606Y-88636788D01*
X116580609Y-88636786D01*
X116705548Y-88464820D01*
X116705547Y-88464820D01*
X116705551Y-88464816D01*
X116705553Y-88464810D01*
X116725945Y-88436744D01*
X116734230Y-88408529D01*
X116802057Y-88275412D01*
X116867746Y-88073243D01*
X116901000Y-87863287D01*
X116901000Y-87650713D01*
X116867746Y-87440757D01*
X116802057Y-87238588D01*
X116705551Y-87049184D01*
X116705549Y-87049181D01*
X116705548Y-87049179D01*
X116705202Y-87048703D01*
X116705200Y-87048699D01*
X116580612Y-86877216D01*
X116430288Y-86726892D01*
X116430286Y-86726890D01*
X116258317Y-86601949D01*
X116258312Y-86601946D01*
X116257084Y-86601194D01*
X116236742Y-86585624D01*
X116226627Y-86576071D01*
X116191406Y-86515734D01*
X116194396Y-86445929D01*
X116230566Y-86392210D01*
X116237622Y-86386096D01*
X116254037Y-86374083D01*
X116258042Y-86371628D01*
X116258055Y-86371622D01*
X116279619Y-86355953D01*
X116306358Y-86346412D01*
X116312217Y-86332269D01*
X115806649Y-85826702D01*
X115773164Y-85765379D01*
X115778148Y-85695688D01*
X115820019Y-85639754D01*
X115832322Y-85631639D01*
X115857507Y-85617099D01*
X115950599Y-85524007D01*
X115965134Y-85498830D01*
X116015699Y-85450616D01*
X116084305Y-85437391D01*
X116149171Y-85463358D01*
X116160202Y-85473149D01*
X116665769Y-85978717D01*
X116665769Y-85978716D01*
X116665770Y-85978717D01*
X116665770Y-85978716D01*
X116679238Y-85973137D01*
X116685455Y-85951967D01*
X116689454Y-85946118D01*
X116705121Y-85924555D01*
X116705122Y-85924554D01*
X116801595Y-85735217D01*
X116867257Y-85533130D01*
X116867257Y-85533127D01*
X116900500Y-85323246D01*
X116900500Y-85110753D01*
X116886760Y-85024007D01*
X116868784Y-84910511D01*
X116868783Y-84910505D01*
X116868783Y-84910506D01*
X116867256Y-84900865D01*
X116835250Y-84802362D01*
X116801595Y-84698782D01*
X116705124Y-84509449D01*
X116665770Y-84455282D01*
X116665769Y-84455282D01*
X116665768Y-84455282D01*
X116160202Y-84960849D01*
X116098879Y-84994334D01*
X116029187Y-84989350D01*
X115973254Y-84947478D01*
X115965134Y-84935169D01*
X115950599Y-84909993D01*
X115857507Y-84816901D01*
X115857505Y-84816900D01*
X115857503Y-84816898D01*
X115832326Y-84802362D01*
X115784111Y-84751794D01*
X115770890Y-84683186D01*
X115796859Y-84618322D01*
X115806637Y-84607305D01*
X116312216Y-84101728D01*
X116312215Y-84101727D01*
X116278434Y-84077184D01*
X116278388Y-84077151D01*
X116258047Y-84062373D01*
X116258047Y-84062372D01*
X116256690Y-84061681D01*
X116249190Y-84056333D01*
X116246477Y-84052878D01*
X116236039Y-84045521D01*
X116226629Y-84036634D01*
X116206112Y-84001486D01*
X116206033Y-84001386D01*
X116206029Y-84001344D01*
X116191405Y-83976292D01*
X116194397Y-83906487D01*
X116230570Y-83852767D01*
X116237584Y-83846690D01*
X116254583Y-83835282D01*
X116254163Y-83834596D01*
X116258314Y-83832052D01*
X116258313Y-83832052D01*
X116258316Y-83832051D01*
X116337507Y-83774515D01*
X116430286Y-83707109D01*
X116430286Y-83707107D01*
X116430347Y-83707064D01*
X116431109Y-83706286D01*
X116580604Y-83556792D01*
X116580606Y-83556788D01*
X116580609Y-83556786D01*
X116705548Y-83384820D01*
X116705547Y-83384820D01*
X116705551Y-83384816D01*
X116802057Y-83195412D01*
X116867746Y-82993243D01*
X116901000Y-82783287D01*
X116901000Y-82570713D01*
X116867746Y-82360757D01*
X116802057Y-82158588D01*
X116705671Y-81969421D01*
X116705556Y-81969192D01*
X116705546Y-81969175D01*
X116580612Y-81797216D01*
X116430282Y-81646886D01*
X116258329Y-81521956D01*
X116257822Y-81521646D01*
X116256330Y-81520504D01*
X116254378Y-81519086D01*
X116254413Y-81519037D01*
X116237459Y-81506062D01*
X116227176Y-81496351D01*
X116191955Y-81436011D01*
X116194947Y-81366206D01*
X116231112Y-81312495D01*
X116238283Y-81306281D01*
X116254694Y-81294269D01*
X116258297Y-81292060D01*
X116258316Y-81292051D01*
X116351114Y-81224630D01*
X116430286Y-81167109D01*
X116430287Y-81167106D01*
X116430290Y-81167105D01*
X116430292Y-81167104D01*
X116430293Y-81167102D01*
X116430347Y-81167063D01*
X116431105Y-81166290D01*
X116580604Y-81016792D01*
X116580606Y-81016788D01*
X116580609Y-81016786D01*
X116705548Y-80844820D01*
X116705547Y-80844820D01*
X116705551Y-80844816D01*
X116705553Y-80844810D01*
X116725945Y-80816744D01*
X116734230Y-80788529D01*
X116802057Y-80655412D01*
X116867746Y-80453243D01*
X116901000Y-80243287D01*
X116901000Y-80030713D01*
X116867746Y-79820757D01*
X116802057Y-79618588D01*
X116705551Y-79429184D01*
X116705549Y-79429181D01*
X116705548Y-79429179D01*
X116705202Y-79428703D01*
X116705200Y-79428699D01*
X116580612Y-79257216D01*
X116479676Y-79156280D01*
X116458527Y-79128030D01*
X116451872Y-79115842D01*
X116437021Y-79047572D01*
X116461435Y-78982111D01*
X116464198Y-78978420D01*
X116520121Y-78936562D01*
X116642831Y-78890796D01*
X116758046Y-78804546D01*
X116844296Y-78689331D01*
X116894591Y-78554483D01*
X116901000Y-78494873D01*
X116900999Y-76699128D01*
X116897678Y-76668235D01*
X116898937Y-76632973D01*
X116901714Y-76617583D01*
X116932983Y-76555114D01*
X116934340Y-76553656D01*
X116985634Y-76520600D01*
X116992709Y-76518225D01*
X117018266Y-76512565D01*
X117072852Y-76506415D01*
X117245813Y-76486928D01*
X117245816Y-76486927D01*
X117245827Y-76486926D01*
X117245851Y-76486920D01*
X117246456Y-76486785D01*
X117250948Y-76485795D01*
X117251685Y-76485588D01*
X117541536Y-76419432D01*
X117827829Y-76319254D01*
X118101105Y-76187651D01*
X118357928Y-76026278D01*
X118595068Y-75837165D01*
X118809543Y-75622690D01*
X118998656Y-75385550D01*
X119160029Y-75128727D01*
X119291632Y-74855451D01*
X119391810Y-74569158D01*
X119432953Y-74388898D01*
X119445619Y-74355968D01*
X119456950Y-74335710D01*
X119494759Y-74294177D01*
X119497074Y-74292580D01*
X119515508Y-74282072D01*
X121101557Y-73550050D01*
X121126909Y-73541527D01*
X121152597Y-73535885D01*
X121179192Y-73533000D01*
X122850298Y-73533000D01*
X122885234Y-73538023D01*
G37*
%TD.AperFunction*%
%TD*%
M02*
