%TF.GenerationSoftware,KiCad,Pcbnew,10.0.0*%
%TF.CreationDate,2026-05-23T21:22:03-05:00*%
%TF.ProjectId,FeatherVoltmeterPCBA,46656174-6865-4725-966f-6c746d657465,rev?*%
%TF.SameCoordinates,Original*%
%TF.FileFunction,Copper,L4,Bot*%
%TF.FilePolarity,Positive*%
%FSLAX46Y46*%
G04 Gerber Fmt 4.6, Leading zero omitted, Abs format (unit mm)*
G04 Created by KiCad (PCBNEW 10.0.0) date 2026-05-23 21:22:03*
%MOMM*%
%LPD*%
G01*
G04 APERTURE LIST*
G04 Aperture macros list*
%AMRoundRect*
0 Rectangle with rounded corners*
0 $1 Rounding radius*
0 $2 $3 $4 $5 $6 $7 $8 $9 X,Y pos of 4 corners*
0 Add a 4 corners polygon primitive as box body*
4,1,4,$2,$3,$4,$5,$6,$7,$8,$9,$2,$3,0*
0 Add four circle primitives for the rounded corners*
1,1,$1+$1,$2,$3*
1,1,$1+$1,$4,$5*
1,1,$1+$1,$6,$7*
1,1,$1+$1,$8,$9*
0 Add four rect primitives between the rounded corners*
20,1,$1+$1,$2,$3,$4,$5,0*
20,1,$1+$1,$4,$5,$6,$7,0*
20,1,$1+$1,$6,$7,$8,$9,0*
20,1,$1+$1,$8,$9,$2,$3,0*%
G04 Aperture macros list end*
%TA.AperFunction,ComponentPad*%
%ADD10C,4.400000*%
%TD*%
%TA.AperFunction,ComponentPad*%
%ADD11R,1.700000X1.700000*%
%TD*%
%TA.AperFunction,ComponentPad*%
%ADD12C,1.700000*%
%TD*%
%TA.AperFunction,ComponentPad*%
%ADD13C,1.397000*%
%TD*%
%TA.AperFunction,ComponentPad*%
%ADD14R,1.750000X2.250000*%
%TD*%
%TA.AperFunction,ComponentPad*%
%ADD15O,1.750000X2.250000*%
%TD*%
%TA.AperFunction,ComponentPad*%
%ADD16RoundRect,0.250001X-0.949999X-0.949999X0.949999X-0.949999X0.949999X0.949999X-0.949999X0.949999X0*%
%TD*%
%TA.AperFunction,ComponentPad*%
%ADD17C,2.400000*%
%TD*%
%TA.AperFunction,SMDPad,CuDef*%
%ADD18C,1.000000*%
%TD*%
%TA.AperFunction,ViaPad*%
%ADD19C,0.600000*%
%TD*%
%TA.AperFunction,Conductor*%
%ADD20C,0.200000*%
%TD*%
G04 APERTURE END LIST*
D10*
%TO.P,H3,1*%
%TO.N,N/C*%
X116805302Y-119502302D03*
%TD*%
%TO.P,H2,1*%
%TO.N,N/C*%
X134569200Y-73812400D03*
%TD*%
D11*
%TO.P,J2,1,Pin_1_1*%
%TO.N,unconnected-(J2-Pin_1-Pad1)*%
X135870500Y-87757000D03*
D12*
%TO.P,J2,2,Pin_2_2*%
%TO.N,Net-(A1-EN)*%
X135870500Y-90297000D03*
%TO.P,J2,3,Pin_3_3*%
%TO.N,unconnected-(J2-Pin_3-Pad3)*%
X135870500Y-92837000D03*
%TO.P,J2,4,Pin_4_4*%
%TO.N,unconnected-(J2-Pin_4-Pad4)*%
X135870500Y-95377000D03*
%TO.P,J2,5,Pin_5_5*%
%TO.N,unconnected-(J2-Pin_5-Pad5)*%
X135870500Y-97917000D03*
%TO.P,J2,6,Pin_6_6*%
%TO.N,unconnected-(J2-Pin_6-Pad6)*%
X135870500Y-100457000D03*
%TO.P,J2,7,Pin_7_7*%
%TO.N,unconnected-(J2-Pin_7-Pad7)*%
X135870500Y-102997000D03*
%TO.P,J2,8,Pin_8_8*%
%TO.N,unconnected-(J2-Pin_8-Pad8)*%
X135870500Y-105537000D03*
%TO.P,J2,9,Pin_9_9*%
%TO.N,unconnected-(J2-Pin_9-Pad9)*%
X135870500Y-108077000D03*
%TO.P,J2,10,Pin_10_10*%
%TO.N,/Signal1-MCU*%
X135870500Y-110617000D03*
%TO.P,J2,11,Pin_11_11*%
%TO.N,SCL*%
X135870500Y-113157000D03*
%TO.P,J2,12,Pin_12_12*%
%TO.N,SDA*%
X135870500Y-115697000D03*
%TD*%
D13*
%TO.P,SW1,5*%
%TO.N,N/C*%
X126949200Y-72898000D03*
%TO.P,SW1,6*%
X123952000Y-72898000D03*
%TD*%
D14*
%TO.P,PS1,1,-Vin_1*%
%TO.N,GND*%
X121868500Y-81725500D03*
D15*
%TO.P,PS1,2,+Vin_2*%
%TO.N,VDD*%
X124408500Y-81725500D03*
%TO.P,PS1,3,-Vout_3*%
%TO.N,Gnd-iso*%
X126948500Y-81725500D03*
%TO.P,PS1,4,+Vout_4*%
%TO.N,5V-iso*%
X129488500Y-81725500D03*
%TD*%
D10*
%TO.P,H1,1*%
%TO.N,N/C*%
X116792764Y-73820386D03*
%TD*%
D11*
%TO.P,J1,1,Pin_1_1*%
%TO.N,unconnected-(J1-Pin_1-Pad1)*%
X115550500Y-77597000D03*
D12*
%TO.P,J1,2,Pin_2_2*%
%TO.N,VDD*%
X115550500Y-80137000D03*
%TO.P,J1,3,Pin_3_3*%
%TO.N,unconnected-(J1-Pin_3-Pad3)*%
X115550500Y-82677000D03*
%TO.P,J1,4,Pin_4_4*%
%TO.N,GND*%
X115550500Y-85217000D03*
%TO.P,J1,5,Pin_5_5*%
%TO.N,unconnected-(J1-Pin_5-Pad5)*%
X115550500Y-87757000D03*
%TO.P,J1,6,Pin_6_6*%
%TO.N,unconnected-(J1-Pin_6-Pad6)*%
X115550500Y-90297000D03*
%TO.P,J1,7,Pin_7_7*%
%TO.N,unconnected-(J1-Pin_7-Pad7)*%
X115550500Y-92837000D03*
%TO.P,J1,8,Pin_8_8*%
%TO.N,unconnected-(J1-Pin_8-Pad8)*%
X115550500Y-95377000D03*
%TO.P,J1,9,Pin_9_9*%
%TO.N,unconnected-(J1-Pin_9-Pad9)*%
X115550500Y-97917000D03*
%TO.P,J1,10,Pin_10_10*%
%TO.N,unconnected-(J1-Pin_10-Pad10)*%
X115550500Y-100457000D03*
%TO.P,J1,11,Pin_11_11*%
%TO.N,unconnected-(J1-Pin_11-Pad11)*%
X115550500Y-102997000D03*
%TO.P,J1,12,Pin_12_12*%
%TO.N,unconnected-(J1-Pin_12-Pad12)*%
X115550500Y-105537000D03*
%TO.P,J1,13,Pin_13_13*%
%TO.N,unconnected-(J1-Pin_13-Pad13)*%
X115550500Y-108077000D03*
%TO.P,J1,14,Pin_14_14*%
%TO.N,unconnected-(J1-Pin_14-Pad14)*%
X115550500Y-110617000D03*
%TO.P,J1,15,Pin_15_15*%
%TO.N,unconnected-(J1-Pin_15-Pad15)*%
X115550500Y-113157000D03*
%TO.P,J1,16,Pin_16_16*%
%TO.N,unconnected-(J1-Pin_16-Pad16)*%
X115550500Y-115697000D03*
%TD*%
D16*
%TO.P,J5,1,Pin_1_1*%
%TO.N,V_Input_REF*%
X122382000Y-115974500D03*
D17*
%TO.P,J5,2,Pin_2_2*%
%TO.N,V_Input_Float*%
X127462000Y-115974500D03*
%TD*%
D18*
%TO.P,A3,1,1_1*%
%TO.N,/AIN3*%
X131064000Y-104775000D03*
%TD*%
%TO.P,A2,1,1_1*%
%TO.N,/AIN2*%
X133350000Y-104775000D03*
%TD*%
D19*
%TO.N,VDD*%
X117856000Y-99187000D03*
X121031000Y-90043000D03*
%TO.N,SCL*%
X122047000Y-96393000D03*
%TO.N,Gnd-iso*%
X125857000Y-88138000D03*
X125361500Y-98186500D03*
X121920000Y-105156000D03*
X132461000Y-83185000D03*
X128911500Y-93605500D03*
X130248000Y-100584000D03*
X133604000Y-107442000D03*
%TO.N,SDA*%
X123825000Y-91948000D03*
X121193000Y-94742000D03*
%TO.N,GND*%
X121024500Y-93351500D03*
X120904000Y-88138000D03*
X128270000Y-72898000D03*
%TO.N,/AIN1*%
X123304029Y-105283000D03*
X126335485Y-105566515D03*
%TO.N,ADS_ADDR*%
X129563308Y-94069337D03*
X129540000Y-88392000D03*
%TO.N,/AIN2*%
X131826000Y-103124000D03*
%TO.N,/AIN3*%
X131535099Y-102378764D03*
%TO.N,5V-iso*%
X128851999Y-90477001D03*
X122936000Y-99822000D03*
X130937292Y-111570207D03*
X131104201Y-100457000D03*
X130282784Y-94571886D03*
%TO.N,SDA-5V*%
X126087901Y-92056379D03*
X131254500Y-96520002D03*
%TO.N,SCL-5V*%
X132207000Y-94107000D03*
X132334000Y-96520002D03*
%TO.N,/Signal1-MCU*%
X124460000Y-93853000D03*
%TD*%
%TO.N,SCL*%
D20*
X128424500Y-104267000D02*
X128424500Y-105818500D01*
X122709500Y-98552000D02*
X128424500Y-104267000D01*
X135763000Y-113157000D02*
X135870500Y-113157000D01*
X122047000Y-96393000D02*
X122709500Y-97055500D01*
X128424500Y-105818500D02*
X135763000Y-113157000D01*
X122709500Y-97055500D02*
X122709500Y-98552000D01*
%TO.N,SDA*%
X131472500Y-109628500D02*
X121193000Y-99349000D01*
X121193000Y-94580000D02*
X121193000Y-94742000D01*
X121193000Y-99349000D02*
X121193000Y-94742000D01*
X123825000Y-91948000D02*
X121193000Y-94580000D01*
X131472500Y-111299000D02*
X131472500Y-109628500D01*
X135870500Y-115697000D02*
X131472500Y-111299000D01*
%TO.N,GND*%
X128270000Y-72898000D02*
X128270000Y-75311000D01*
X128270000Y-75311000D02*
X127603000Y-75978000D01*
X127603000Y-75991000D02*
X121868500Y-81725500D01*
X127603000Y-75978000D02*
X127603000Y-75991000D01*
%TO.N,/AIN1*%
X126335485Y-105566515D02*
X126051970Y-105283000D01*
X126051970Y-105283000D02*
X123304029Y-105283000D01*
%TO.N,ADS_ADDR*%
X129563308Y-88622692D02*
X129563308Y-94069337D01*
X129540000Y-88599384D02*
X129563308Y-88622692D01*
X129540000Y-88392000D02*
X129540000Y-88599384D01*
%TO.N,/AIN2*%
X133350000Y-104775000D02*
X131826000Y-103251000D01*
X131826000Y-103251000D02*
X131826000Y-103124000D01*
%TO.N,/AIN3*%
X131535099Y-102378764D02*
X131064000Y-102849863D01*
X131064000Y-102849863D02*
X131064000Y-104775000D01*
%TO.N,SDA-5V*%
X131254500Y-96456500D02*
X130302000Y-95504000D01*
X130302000Y-95504000D02*
X129286000Y-95504000D01*
X126106522Y-92075000D02*
X126087901Y-92056379D01*
X129286000Y-95504000D02*
X126111000Y-92329000D01*
X126111000Y-92075000D02*
X126106522Y-92075000D01*
X131254500Y-96520002D02*
X131254500Y-96456500D01*
X126111000Y-92329000D02*
X126111000Y-92075000D01*
%TO.N,SCL-5V*%
X132207000Y-96393002D02*
X132334000Y-96520002D01*
X132207000Y-94107000D02*
X132207000Y-96393002D01*
%TO.N,/Signal1-MCU*%
X135763000Y-110617000D02*
X135870500Y-110617000D01*
X124460000Y-93853000D02*
X124460000Y-99314000D01*
X124460000Y-99314000D02*
X135763000Y-110617000D01*
%TD*%
M02*
