%TF.GenerationSoftware,KiCad,Pcbnew,10.0.0*%
%TF.CreationDate,2026-05-23T21:22:03-05:00*%
%TF.ProjectId,FeatherVoltmeterPCBA,46656174-6865-4725-966f-6c746d657465,rev?*%
%TF.SameCoordinates,Original*%
%TF.FileFunction,Soldermask,Bot*%
%TF.FilePolarity,Negative*%
%FSLAX46Y46*%
G04 Gerber Fmt 4.6, Leading zero omitted, Abs format (unit mm)*
G04 Created by KiCad (PCBNEW 10.0.0) date 2026-05-23 21:22:03*
%MOMM*%
%LPD*%
G01*
G04 APERTURE LIST*
G04 Aperture macros list*
%AMRoundRect*
0 Rectangle with rounded corners*
0 $1 Rounding radius*
0 $2 $3 $4 $5 $6 $7 $8 $9 X,Y pos of 4 corners*
0 Add a 4 corners polygon primitive as box body*
4,1,4,$2,$3,$4,$5,$6,$7,$8,$9,$2,$3,0*
0 Add four circle primitives for the rounded corners*
1,1,$1+$1,$2,$3*
1,1,$1+$1,$4,$5*
1,1,$1+$1,$6,$7*
1,1,$1+$1,$8,$9*
0 Add four rect primitives between the rounded corners*
20,1,$1+$1,$2,$3,$4,$5,0*
20,1,$1+$1,$4,$5,$6,$7,0*
20,1,$1+$1,$6,$7,$8,$9,0*
20,1,$1+$1,$8,$9,$2,$3,0*%
G04 Aperture macros list end*
%ADD10C,4.400000*%
%ADD11R,1.700000X1.700000*%
%ADD12C,1.700000*%
%ADD13C,1.397000*%
%ADD14R,1.750000X2.250000*%
%ADD15O,1.750000X2.250000*%
%ADD16RoundRect,0.250001X-0.949999X-0.949999X0.949999X-0.949999X0.949999X0.949999X-0.949999X0.949999X0*%
%ADD17C,2.400000*%
%ADD18C,1.000000*%
G04 APERTURE END LIST*
D10*
%TO.C,H3*%
X116805302Y-119502302D03*
%TD*%
%TO.C,H2*%
X134569200Y-73812400D03*
%TD*%
D11*
%TO.C,J2*%
X135870500Y-87757000D03*
D12*
X135870500Y-90297000D03*
X135870500Y-92837000D03*
X135870500Y-95377000D03*
X135870500Y-97917000D03*
X135870500Y-100457000D03*
X135870500Y-102997000D03*
X135870500Y-105537000D03*
X135870500Y-108077000D03*
X135870500Y-110617000D03*
X135870500Y-113157000D03*
X135870500Y-115697000D03*
%TD*%
D13*
%TO.C,SW1*%
X126949200Y-72898000D03*
X123952000Y-72898000D03*
%TD*%
D14*
%TO.C,PS1*%
X121868500Y-81725500D03*
D15*
X124408500Y-81725500D03*
X126948500Y-81725500D03*
X129488500Y-81725500D03*
%TD*%
D10*
%TO.C,H1*%
X116792764Y-73820386D03*
%TD*%
D11*
%TO.C,J1*%
X115550500Y-77597000D03*
D12*
X115550500Y-80137000D03*
X115550500Y-82677000D03*
X115550500Y-85217000D03*
X115550500Y-87757000D03*
X115550500Y-90297000D03*
X115550500Y-92837000D03*
X115550500Y-95377000D03*
X115550500Y-97917000D03*
X115550500Y-100457000D03*
X115550500Y-102997000D03*
X115550500Y-105537000D03*
X115550500Y-108077000D03*
X115550500Y-110617000D03*
X115550500Y-113157000D03*
X115550500Y-115697000D03*
%TD*%
D16*
%TO.C,J5*%
X122382000Y-115974500D03*
D17*
X127462000Y-115974500D03*
%TD*%
D18*
%TO.C,A3*%
X131064000Y-104775000D03*
%TD*%
%TO.C,A2*%
X133350000Y-104775000D03*
%TD*%
M02*
