M48
; DRILL file KiCad 10.0.0 date 2026-05-23T21:22:03
; FORMAT={-:-/ absolute / inch / decimal}
; #@! TF.CreationDate,2026-05-23T21:22:03-05:00
; #@! TF.GenerationSoftware,Kicad,Pcbnew,10.0.0
; #@! TF.FileFunction,Plated,1,4,PTH
FMAT,2
INCH
; #@! TA.AperFunction,Plated,PTH,ViaDrill
T1C0.0118
; #@! TA.AperFunction,Plated,PTH,ComponentDrill
T2C0.0350
; #@! TA.AperFunction,Plated,PTH,ComponentDrill
T3C0.0394
; #@! TA.AperFunction,Plated,PTH,ComponentDrill
T4C0.0423
; #@! TA.AperFunction,Plated,PTH,ComponentDrill
T5C0.0630
; #@! TA.AperFunction,Plated,PTH,ComponentDrill
T6C0.0866
%
G90
G05
T1
X4.64Y-3.905
X4.76Y-3.47
X4.7647Y-3.6753
X4.765Y-3.545
X4.7714Y-3.73
X4.8Y-4.14
X4.805Y-3.795
X4.84Y-3.93
X4.8545Y-4.145
X4.875Y-3.62
X4.9Y-3.695
X4.9355Y-3.8656
X4.955Y-3.47
X4.9641Y-3.6243
X4.9738Y-4.1562
X5.05Y-2.87
X5.0729Y-3.5621
X5.0753Y-3.6853
X5.1Y-3.48
X5.1009Y-3.7035
X5.1279Y-3.96
X5.1292Y-3.7233
X5.155Y-4.3925
X5.1616Y-3.955
X5.1675Y-3.8
X5.1785Y-4.0307
X5.19Y-4.06
X5.205Y-3.705
X5.21Y-3.8
X5.215Y-3.275
X5.26Y-4.23
T2
X4.88Y-2.87
X4.998Y-2.87
T3
X4.5492Y-3.055
X4.5492Y-3.155
X4.5492Y-3.255
X4.5492Y-3.355
X4.5492Y-3.455
X4.5492Y-3.555
X4.5492Y-3.655
X4.5492Y-3.755
X4.5492Y-3.855
X4.5492Y-3.955
X4.5492Y-4.055
X4.5492Y-4.155
X4.5492Y-4.255
X4.5492Y-4.355
X4.5492Y-4.455
X4.5492Y-4.555
X5.3492Y-3.455
X5.3492Y-3.555
X5.3492Y-3.655
X5.3492Y-3.755
X5.3492Y-3.855
X5.3492Y-3.955
X5.3492Y-4.055
X5.3492Y-4.155
X5.3492Y-4.255
X5.3492Y-4.355
X5.3492Y-4.455
X5.3492Y-4.555
T4
X4.798Y-3.2175
X4.898Y-3.2175
X4.998Y-3.2175
X5.098Y-3.2175
T5
X4.8182Y-4.5659
X5.0182Y-4.5659
T6
X4.5981Y-2.9063
X4.5986Y-4.7048
X5.298Y-2.906
M30
