%TF.GenerationSoftware,KiCad,Pcbnew,10.0.0*%
%TF.CreationDate,2026-05-23T21:22:03-05:00*%
%TF.ProjectId,FeatherVoltmeterPCBA,46656174-6865-4725-966f-6c746d657465,rev?*%
%TF.SameCoordinates,Original*%
%TF.FileFunction,Paste,Top*%
%TF.FilePolarity,Positive*%
%FSLAX46Y46*%
G04 Gerber Fmt 4.6, Leading zero omitted, Abs format (unit mm)*
G04 Created by KiCad (PCBNEW 10.0.0) date 2026-05-23 21:22:03*
%MOMM*%
%LPD*%
G01*
G04 APERTURE LIST*
G04 Aperture macros list*
%AMRoundRect*
0 Rectangle with rounded corners*
0 $1 Rounding radius*
0 $2 $3 $4 $5 $6 $7 $8 $9 X,Y pos of 4 corners*
0 Add a 4 corners polygon primitive as box body*
4,1,4,$2,$3,$4,$5,$6,$7,$8,$9,$2,$3,0*
0 Add four circle primitives for the rounded corners*
1,1,$1+$1,$2,$3*
1,1,$1+$1,$4,$5*
1,1,$1+$1,$6,$7*
1,1,$1+$1,$8,$9*
0 Add four rect primitives between the rounded corners*
20,1,$1+$1,$2,$3,$4,$5,0*
20,1,$1+$1,$4,$5,$6,$7,0*
20,1,$1+$1,$6,$7,$8,$9,0*
20,1,$1+$1,$8,$9,$2,$3,0*%
G04 Aperture macros list end*
%ADD10RoundRect,0.237500X0.237500X-0.250000X0.237500X0.250000X-0.237500X0.250000X-0.237500X-0.250000X0*%
%ADD11RoundRect,0.225000X-0.250000X0.225000X-0.250000X-0.225000X0.250000X-0.225000X0.250000X0.225000X0*%
%ADD12RoundRect,0.225000X0.375000X-0.225000X0.375000X0.225000X-0.375000X0.225000X-0.375000X-0.225000X0*%
%ADD13R,1.100000X0.250000*%
%ADD14RoundRect,0.250000X0.450000X-0.350000X0.450000X0.350000X-0.450000X0.350000X-0.450000X-0.350000X0*%
%ADD15RoundRect,0.135000X0.135000X0.185000X-0.135000X0.185000X-0.135000X-0.185000X0.135000X-0.185000X0*%
%ADD16RoundRect,0.150000X-0.825000X-0.150000X0.825000X-0.150000X0.825000X0.150000X-0.825000X0.150000X0*%
%ADD17RoundRect,0.225000X-0.225000X-0.250000X0.225000X-0.250000X0.225000X0.250000X-0.225000X0.250000X0*%
%ADD18RoundRect,0.150000X0.150000X-0.587500X0.150000X0.587500X-0.150000X0.587500X-0.150000X-0.587500X0*%
%ADD19RoundRect,0.250000X-0.350000X-0.450000X0.350000X-0.450000X0.350000X0.450000X-0.350000X0.450000X0*%
%ADD20R,0.990600X0.812800*%
%ADD21R,0.711200X1.498600*%
%ADD22RoundRect,0.200000X-0.275000X0.200000X-0.275000X-0.200000X0.275000X-0.200000X0.275000X0.200000X0*%
%ADD23RoundRect,0.150000X-0.587500X-0.150000X0.587500X-0.150000X0.587500X0.150000X-0.587500X0.150000X0*%
%ADD24R,0.500000X0.800000*%
%ADD25R,0.400000X0.800000*%
G04 APERTURE END LIST*
D10*
%TO.C,R2*%
X118237000Y-97940500D03*
X118237000Y-96115500D03*
%TD*%
D11*
%TO.C,C17*%
X126519500Y-100571000D03*
X126519500Y-102121000D03*
%TD*%
D10*
%TO.C,R1*%
X120015000Y-97917000D03*
X120015000Y-96092000D03*
%TD*%
D12*
%TO.C,D5*%
X132918000Y-109281000D03*
X132918000Y-105981000D03*
%TD*%
D13*
%TO.C,U3*%
X128700201Y-100854000D03*
X128700201Y-101354000D03*
X128700201Y-101854000D03*
X128700201Y-102354000D03*
X128700201Y-102854000D03*
X133000201Y-102854000D03*
X133000201Y-102354000D03*
X133000201Y-101854000D03*
X133000201Y-101354000D03*
X133000201Y-100854000D03*
%TD*%
D14*
%TO.C,R12*%
X131445000Y-86471000D03*
X131445000Y-84471000D03*
%TD*%
D12*
%TO.C,D4*%
X132842000Y-114426000D03*
X132842000Y-111126000D03*
%TD*%
D15*
%TO.C,R10*%
X121111500Y-105217000D03*
X120091500Y-105217000D03*
%TD*%
D16*
%TO.C,U1*%
X122493000Y-84328000D03*
X122493000Y-85598000D03*
X122493000Y-86868000D03*
X122493000Y-88138000D03*
X127443000Y-88138000D03*
X127443000Y-86868000D03*
X127443000Y-85598000D03*
X127443000Y-84328000D03*
%TD*%
D14*
%TO.C,R18*%
X121312500Y-109458000D03*
X121312500Y-107458000D03*
%TD*%
D17*
%TO.C,C4*%
X129781000Y-99060000D03*
X131331000Y-99060000D03*
%TD*%
D18*
%TO.C,U10*%
X124526000Y-98694500D03*
X126426000Y-98694500D03*
X125476000Y-96819500D03*
%TD*%
D19*
%TO.C,R14*%
X123536000Y-106553000D03*
X125536000Y-106553000D03*
%TD*%
D20*
%TO.C,SW1*%
X129105660Y-71798000D03*
X121805700Y-71798000D03*
X121805700Y-73998000D03*
X129105660Y-73998000D03*
D21*
X127698500Y-74607600D03*
X124714000Y-74607600D03*
X123215400Y-74607600D03*
%TD*%
D22*
%TO.C,R27*%
X123979500Y-100521000D03*
X123979500Y-102171000D03*
%TD*%
D16*
%TO.C,U13*%
X122493000Y-90043000D03*
X122493000Y-91313000D03*
X122493000Y-92583000D03*
X122493000Y-93853000D03*
X127443000Y-93853000D03*
X127443000Y-92583000D03*
X127443000Y-91313000D03*
X127443000Y-90043000D03*
%TD*%
D11*
%TO.C,C10*%
X129667000Y-91300000D03*
X129667000Y-92850000D03*
%TD*%
D23*
%TO.C,Q8*%
X119966500Y-101920000D03*
X119966500Y-103820000D03*
X121841500Y-102870000D03*
%TD*%
D14*
%TO.C,R17*%
X128678500Y-109458000D03*
X128678500Y-107458000D03*
%TD*%
D11*
%TO.C,C9*%
X120142000Y-90919000D03*
X120142000Y-92469000D03*
%TD*%
D19*
%TO.C,R24*%
X123774000Y-104013000D03*
X125774000Y-104013000D03*
%TD*%
D24*
%TO.C,RN1*%
X130626000Y-97304000D03*
D25*
X131426000Y-97304000D03*
X132226000Y-97304000D03*
D24*
X133026000Y-97304000D03*
X133026000Y-95504000D03*
D25*
X132226000Y-95504000D03*
X131426000Y-95504000D03*
D24*
X130626000Y-95504000D03*
%TD*%
M02*
