%TF.GenerationSoftware,KiCad,Pcbnew,10.0.0*%
%TF.CreationDate,2026-05-23T21:22:03-05:00*%
%TF.ProjectId,FeatherVoltmeterPCBA,46656174-6865-4725-966f-6c746d657465,rev?*%
%TF.SameCoordinates,Original*%
%TF.FileFunction,Copper,L1,Top*%
%TF.FilePolarity,Positive*%
%FSLAX46Y46*%
G04 Gerber Fmt 4.6, Leading zero omitted, Abs format (unit mm)*
G04 Created by KiCad (PCBNEW 10.0.0) date 2026-05-23 21:22:03*
%MOMM*%
%LPD*%
G01*
G04 APERTURE LIST*
G04 Aperture macros list*
%AMRoundRect*
0 Rectangle with rounded corners*
0 $1 Rounding radius*
0 $2 $3 $4 $5 $6 $7 $8 $9 X,Y pos of 4 corners*
0 Add a 4 corners polygon primitive as box body*
4,1,4,$2,$3,$4,$5,$6,$7,$8,$9,$2,$3,0*
0 Add four circle primitives for the rounded corners*
1,1,$1+$1,$2,$3*
1,1,$1+$1,$4,$5*
1,1,$1+$1,$6,$7*
1,1,$1+$1,$8,$9*
0 Add four rect primitives between the rounded corners*
20,1,$1+$1,$2,$3,$4,$5,0*
20,1,$1+$1,$4,$5,$6,$7,0*
20,1,$1+$1,$6,$7,$8,$9,0*
20,1,$1+$1,$8,$9,$2,$3,0*%
G04 Aperture macros list end*
%TA.AperFunction,SMDPad,CuDef*%
%ADD10RoundRect,0.237500X0.237500X-0.250000X0.237500X0.250000X-0.237500X0.250000X-0.237500X-0.250000X0*%
%TD*%
%TA.AperFunction,SMDPad,CuDef*%
%ADD11RoundRect,0.225000X-0.250000X0.225000X-0.250000X-0.225000X0.250000X-0.225000X0.250000X0.225000X0*%
%TD*%
%TA.AperFunction,SMDPad,CuDef*%
%ADD12RoundRect,0.225000X0.375000X-0.225000X0.375000X0.225000X-0.375000X0.225000X-0.375000X-0.225000X0*%
%TD*%
%TA.AperFunction,SMDPad,CuDef*%
%ADD13R,1.100000X0.250000*%
%TD*%
%TA.AperFunction,SMDPad,CuDef*%
%ADD14RoundRect,0.250000X0.450000X-0.350000X0.450000X0.350000X-0.450000X0.350000X-0.450000X-0.350000X0*%
%TD*%
%TA.AperFunction,ComponentPad*%
%ADD15C,4.400000*%
%TD*%
%TA.AperFunction,SMDPad,CuDef*%
%ADD16RoundRect,0.135000X0.135000X0.185000X-0.135000X0.185000X-0.135000X-0.185000X0.135000X-0.185000X0*%
%TD*%
%TA.AperFunction,SMDPad,CuDef*%
%ADD17RoundRect,0.150000X-0.825000X-0.150000X0.825000X-0.150000X0.825000X0.150000X-0.825000X0.150000X0*%
%TD*%
%TA.AperFunction,ComponentPad*%
%ADD18R,1.700000X1.700000*%
%TD*%
%TA.AperFunction,ComponentPad*%
%ADD19C,1.700000*%
%TD*%
%TA.AperFunction,SMDPad,CuDef*%
%ADD20RoundRect,0.225000X-0.225000X-0.250000X0.225000X-0.250000X0.225000X0.250000X-0.225000X0.250000X0*%
%TD*%
%TA.AperFunction,SMDPad,CuDef*%
%ADD21RoundRect,0.150000X0.150000X-0.587500X0.150000X0.587500X-0.150000X0.587500X-0.150000X-0.587500X0*%
%TD*%
%TA.AperFunction,SMDPad,CuDef*%
%ADD22RoundRect,0.250000X-0.350000X-0.450000X0.350000X-0.450000X0.350000X0.450000X-0.350000X0.450000X0*%
%TD*%
%TA.AperFunction,SMDPad,CuDef*%
%ADD23R,0.990600X0.812800*%
%TD*%
%TA.AperFunction,ComponentPad*%
%ADD24C,1.397000*%
%TD*%
%TA.AperFunction,SMDPad,CuDef*%
%ADD25R,0.711200X1.498600*%
%TD*%
%TA.AperFunction,SMDPad,CuDef*%
%ADD26RoundRect,0.200000X-0.275000X0.200000X-0.275000X-0.200000X0.275000X-0.200000X0.275000X0.200000X0*%
%TD*%
%TA.AperFunction,ComponentPad*%
%ADD27R,1.750000X2.250000*%
%TD*%
%TA.AperFunction,ComponentPad*%
%ADD28O,1.750000X2.250000*%
%TD*%
%TA.AperFunction,SMDPad,CuDef*%
%ADD29RoundRect,0.150000X-0.587500X-0.150000X0.587500X-0.150000X0.587500X0.150000X-0.587500X0.150000X0*%
%TD*%
%TA.AperFunction,ComponentPad*%
%ADD30RoundRect,0.250001X-0.949999X-0.949999X0.949999X-0.949999X0.949999X0.949999X-0.949999X0.949999X0*%
%TD*%
%TA.AperFunction,ComponentPad*%
%ADD31C,2.400000*%
%TD*%
%TA.AperFunction,SMDPad,CuDef*%
%ADD32R,0.500000X0.800000*%
%TD*%
%TA.AperFunction,SMDPad,CuDef*%
%ADD33R,0.400000X0.800000*%
%TD*%
%TA.AperFunction,ViaPad*%
%ADD34C,0.600000*%
%TD*%
%TA.AperFunction,Conductor*%
%ADD35C,0.200000*%
%TD*%
G04 APERTURE END LIST*
D10*
%TO.P,R2,1*%
%TO.N,VDD*%
X118237000Y-97940500D03*
%TO.P,R2,2*%
%TO.N,SCL*%
X118237000Y-96115500D03*
%TD*%
D11*
%TO.P,C17,1*%
%TO.N,Gnd-iso*%
X126519500Y-100571000D03*
%TO.P,C17,2*%
%TO.N,/AIN0*%
X126519500Y-102121000D03*
%TD*%
D10*
%TO.P,R1,1*%
%TO.N,VDD*%
X120015000Y-97917000D03*
%TO.P,R1,2*%
%TO.N,SDA*%
X120015000Y-96092000D03*
%TD*%
D12*
%TO.P,D5,1,K_1*%
%TO.N,/AIN1*%
X132918000Y-109281000D03*
%TO.P,D5,2,A_2*%
%TO.N,Gnd-iso*%
X132918000Y-105981000D03*
%TD*%
D13*
%TO.P,U3,1,ADDR_1*%
%TO.N,ADS_ADDR*%
X128700201Y-100854000D03*
%TO.P,U3,2,ALERT/RDY_2*%
%TO.N,ADS_ALERT*%
X128700201Y-101354000D03*
%TO.P,U3,3,GND_3*%
%TO.N,Gnd-iso*%
X128700201Y-101854000D03*
%TO.P,U3,4,AIN0_4*%
%TO.N,/AIN0*%
X128700201Y-102354000D03*
%TO.P,U3,5,AIN1_5*%
%TO.N,/AIN1*%
X128700201Y-102854000D03*
%TO.P,U3,6,AIN2_6*%
%TO.N,/AIN2*%
X133000201Y-102854000D03*
%TO.P,U3,7,AIN3_7*%
%TO.N,/AIN3*%
X133000201Y-102354000D03*
%TO.P,U3,8,VDD_8*%
%TO.N,5V-iso*%
X133000201Y-101854000D03*
%TO.P,U3,9,SDA_9*%
%TO.N,SDA-5V*%
X133000201Y-101354000D03*
%TO.P,U3,10,SCL_10*%
%TO.N,SCL-5V*%
X133000201Y-100854000D03*
%TD*%
D14*
%TO.P,R12,1*%
%TO.N,ADS_ADDR*%
X131445000Y-86471000D03*
%TO.P,R12,2*%
%TO.N,Gnd-iso*%
X131445000Y-84471000D03*
%TD*%
D15*
%TO.P,H3,1*%
%TO.N,N/C*%
X116805302Y-119502302D03*
%TD*%
%TO.P,H2,1*%
%TO.N,N/C*%
X134569200Y-73812400D03*
%TD*%
D12*
%TO.P,D4,1,K_1*%
%TO.N,5V-iso*%
X132842000Y-114426000D03*
%TO.P,D4,2,A_2*%
%TO.N,/AIN1*%
X132842000Y-111126000D03*
%TD*%
D16*
%TO.P,R10,1*%
%TO.N,Gnd-iso*%
X121111500Y-105217000D03*
%TO.P,R10,2*%
%TO.N,/Gate_Control-iso*%
X120091500Y-105217000D03*
%TD*%
D17*
%TO.P,U1,1,VDD1_1*%
%TO.N,VDD*%
X122493000Y-84328000D03*
%TO.P,U1,2,VIA_2*%
%TO.N,/Signal1-MCU*%
X122493000Y-85598000D03*
%TO.P,U1,3,VIB_3*%
%TO.N,unconnected-(U1-VIB-Pad3)*%
X122493000Y-86868000D03*
%TO.P,U1,4,GND1_4*%
%TO.N,GND*%
X122493000Y-88138000D03*
%TO.P,U1,5,GND2_5*%
%TO.N,Gnd-iso*%
X127443000Y-88138000D03*
%TO.P,U1,6,VOB_6*%
%TO.N,unconnected-(U1-VOB-Pad6)*%
X127443000Y-86868000D03*
%TO.P,U1,7,VOA_7*%
%TO.N,/Gate_Control-iso*%
X127443000Y-85598000D03*
%TO.P,U1,8,VDD2_8*%
%TO.N,5V-iso*%
X127443000Y-84328000D03*
%TD*%
D18*
%TO.P,J2,1,Pin_1_1*%
%TO.N,unconnected-(J2-Pin_1-Pad1)*%
X135870500Y-87757000D03*
D19*
%TO.P,J2,2,Pin_2_2*%
%TO.N,Net-(A1-EN)*%
X135870500Y-90297000D03*
%TO.P,J2,3,Pin_3_3*%
%TO.N,unconnected-(J2-Pin_3-Pad3)*%
X135870500Y-92837000D03*
%TO.P,J2,4,Pin_4_4*%
%TO.N,unconnected-(J2-Pin_4-Pad4)*%
X135870500Y-95377000D03*
%TO.P,J2,5,Pin_5_5*%
%TO.N,unconnected-(J2-Pin_5-Pad5)*%
X135870500Y-97917000D03*
%TO.P,J2,6,Pin_6_6*%
%TO.N,unconnected-(J2-Pin_6-Pad6)*%
X135870500Y-100457000D03*
%TO.P,J2,7,Pin_7_7*%
%TO.N,unconnected-(J2-Pin_7-Pad7)*%
X135870500Y-102997000D03*
%TO.P,J2,8,Pin_8_8*%
%TO.N,unconnected-(J2-Pin_8-Pad8)*%
X135870500Y-105537000D03*
%TO.P,J2,9,Pin_9_9*%
%TO.N,unconnected-(J2-Pin_9-Pad9)*%
X135870500Y-108077000D03*
%TO.P,J2,10,Pin_10_10*%
%TO.N,/Signal1-MCU*%
X135870500Y-110617000D03*
%TO.P,J2,11,Pin_11_11*%
%TO.N,SCL*%
X135870500Y-113157000D03*
%TO.P,J2,12,Pin_12_12*%
%TO.N,SDA*%
X135870500Y-115697000D03*
%TD*%
D14*
%TO.P,R18,1*%
%TO.N,V_Input_REF*%
X121312500Y-109458000D03*
%TO.P,R18,2*%
%TO.N,/AIN0*%
X121312500Y-107458000D03*
%TD*%
D20*
%TO.P,C4,1*%
%TO.N,Gnd-iso*%
X129781000Y-99060000D03*
%TO.P,C4,2*%
%TO.N,5V-iso*%
X131331000Y-99060000D03*
%TD*%
D21*
%TO.P,U10,1,K_1*%
%TO.N,/AIN0*%
X124526000Y-98694500D03*
%TO.P,U10,2,A_2*%
%TO.N,Gnd-iso*%
X126426000Y-98694500D03*
%TO.P,U10,3,nc_(gnd)_3*%
X125476000Y-96819500D03*
%TD*%
D22*
%TO.P,R14,1*%
%TO.N,/AIN0*%
X123536000Y-106553000D03*
%TO.P,R14,2*%
%TO.N,/AIN1*%
X125536000Y-106553000D03*
%TD*%
D23*
%TO.P,SW1,1,1_1*%
%TO.N,GND*%
X129105660Y-71798000D03*
%TO.P,SW1,2,2_2*%
%TO.N,Net-(A1-EN)*%
X121805700Y-71798000D03*
%TO.P,SW1,3,3_3*%
%TO.N,unconnected-(SW1-Pad3)*%
X121805700Y-73998000D03*
%TO.P,SW1,4,4_4*%
%TO.N,unconnected-(SW1-Pad4)*%
X129105660Y-73998000D03*
D24*
%TO.P,SW1,5*%
%TO.N,N/C*%
X126949200Y-72898000D03*
%TO.P,SW1,6*%
X123952000Y-72898000D03*
D25*
%TO.P,SW1,7*%
X127698500Y-74607600D03*
%TO.P,SW1,8*%
X124714000Y-74607600D03*
%TO.P,SW1,9*%
X123215400Y-74607600D03*
%TD*%
D26*
%TO.P,R27,1*%
%TO.N,5V-iso*%
X123979500Y-100521000D03*
%TO.P,R27,2*%
%TO.N,/AIN0*%
X123979500Y-102171000D03*
%TD*%
D17*
%TO.P,U13,1,VCC1_1*%
%TO.N,VDD*%
X122493000Y-90043000D03*
%TO.P,U13,2,SDA1_2*%
%TO.N,SDA*%
X122493000Y-91313000D03*
%TO.P,U13,3,SCL1_3*%
%TO.N,SCL*%
X122493000Y-92583000D03*
%TO.P,U13,4,GND1_4*%
%TO.N,GND*%
X122493000Y-93853000D03*
%TO.P,U13,5,GND2_5*%
%TO.N,Gnd-iso*%
X127443000Y-93853000D03*
%TO.P,U13,6,SCL2_6*%
%TO.N,SCL-5V*%
X127443000Y-92583000D03*
%TO.P,U13,7,SDA2_7*%
%TO.N,SDA-5V*%
X127443000Y-91313000D03*
%TO.P,U13,8,VCC2_8*%
%TO.N,5V-iso*%
X127443000Y-90043000D03*
%TD*%
D27*
%TO.P,PS1,1,-Vin_1*%
%TO.N,GND*%
X121868500Y-81725500D03*
D28*
%TO.P,PS1,2,+Vin_2*%
%TO.N,VDD*%
X124408500Y-81725500D03*
%TO.P,PS1,3,-Vout_3*%
%TO.N,Gnd-iso*%
X126948500Y-81725500D03*
%TO.P,PS1,4,+Vout_4*%
%TO.N,5V-iso*%
X129488500Y-81725500D03*
%TD*%
D11*
%TO.P,C10,1*%
%TO.N,5V-iso*%
X129667000Y-91300000D03*
%TO.P,C10,2*%
%TO.N,Gnd-iso*%
X129667000Y-92850000D03*
%TD*%
D15*
%TO.P,H1,1*%
%TO.N,N/C*%
X116792764Y-73820386D03*
%TD*%
D18*
%TO.P,J1,1,Pin_1_1*%
%TO.N,unconnected-(J1-Pin_1-Pad1)*%
X115550500Y-77597000D03*
D19*
%TO.P,J1,2,Pin_2_2*%
%TO.N,VDD*%
X115550500Y-80137000D03*
%TO.P,J1,3,Pin_3_3*%
%TO.N,unconnected-(J1-Pin_3-Pad3)*%
X115550500Y-82677000D03*
%TO.P,J1,4,Pin_4_4*%
%TO.N,GND*%
X115550500Y-85217000D03*
%TO.P,J1,5,Pin_5_5*%
%TO.N,unconnected-(J1-Pin_5-Pad5)*%
X115550500Y-87757000D03*
%TO.P,J1,6,Pin_6_6*%
%TO.N,unconnected-(J1-Pin_6-Pad6)*%
X115550500Y-90297000D03*
%TO.P,J1,7,Pin_7_7*%
%TO.N,unconnected-(J1-Pin_7-Pad7)*%
X115550500Y-92837000D03*
%TO.P,J1,8,Pin_8_8*%
%TO.N,unconnected-(J1-Pin_8-Pad8)*%
X115550500Y-95377000D03*
%TO.P,J1,9,Pin_9_9*%
%TO.N,unconnected-(J1-Pin_9-Pad9)*%
X115550500Y-97917000D03*
%TO.P,J1,10,Pin_10_10*%
%TO.N,unconnected-(J1-Pin_10-Pad10)*%
X115550500Y-100457000D03*
%TO.P,J1,11,Pin_11_11*%
%TO.N,unconnected-(J1-Pin_11-Pad11)*%
X115550500Y-102997000D03*
%TO.P,J1,12,Pin_12_12*%
%TO.N,unconnected-(J1-Pin_12-Pad12)*%
X115550500Y-105537000D03*
%TO.P,J1,13,Pin_13_13*%
%TO.N,unconnected-(J1-Pin_13-Pad13)*%
X115550500Y-108077000D03*
%TO.P,J1,14,Pin_14_14*%
%TO.N,unconnected-(J1-Pin_14-Pad14)*%
X115550500Y-110617000D03*
%TO.P,J1,15,Pin_15_15*%
%TO.N,unconnected-(J1-Pin_15-Pad15)*%
X115550500Y-113157000D03*
%TO.P,J1,16,Pin_16_16*%
%TO.N,unconnected-(J1-Pin_16-Pad16)*%
X115550500Y-115697000D03*
%TD*%
D29*
%TO.P,Q8,1,G_1*%
%TO.N,/Gate_Control-iso*%
X119966500Y-101920000D03*
%TO.P,Q8,2,S_2*%
%TO.N,/AIN1*%
X119966500Y-103820000D03*
%TO.P,Q8,3,D_3*%
%TO.N,Net-(Q8-D)*%
X121841500Y-102870000D03*
%TD*%
D14*
%TO.P,R17,1*%
%TO.N,V_Input_Float*%
X128678500Y-109458000D03*
%TO.P,R17,2*%
%TO.N,/AIN1*%
X128678500Y-107458000D03*
%TD*%
D11*
%TO.P,C9,1*%
%TO.N,VDD*%
X120142000Y-90919000D03*
%TO.P,C9,2*%
%TO.N,GND*%
X120142000Y-92469000D03*
%TD*%
D30*
%TO.P,J5,1,Pin_1_1*%
%TO.N,V_Input_REF*%
X122382000Y-115974500D03*
D31*
%TO.P,J5,2,Pin_2_2*%
%TO.N,V_Input_Float*%
X127462000Y-115974500D03*
%TD*%
D22*
%TO.P,R24,1*%
%TO.N,Net-(Q8-D)*%
X123774000Y-104013000D03*
%TO.P,R24,2*%
%TO.N,/AIN0*%
X125774000Y-104013000D03*
%TD*%
D32*
%TO.P,RN1,1,R1.1_1*%
%TO.N,ADS_ALERT*%
X130626000Y-97304000D03*
D33*
%TO.P,RN1,2,R2.1_2*%
%TO.N,SDA-5V*%
X131426000Y-97304000D03*
%TO.P,RN1,3,R3.1_3*%
%TO.N,SCL-5V*%
X132226000Y-97304000D03*
D32*
%TO.P,RN1,4,R4.1_4*%
%TO.N,unconnected-(RN1D-R4.1-Pad4)*%
X133026000Y-97304000D03*
%TO.P,RN1,5,R4.2_5*%
%TO.N,unconnected-(RN1D-R4.2-Pad5)*%
X133026000Y-95504000D03*
D33*
%TO.P,RN1,6,R3.2_6*%
%TO.N,5V-iso*%
X132226000Y-95504000D03*
%TO.P,RN1,7,R2.2_7*%
X131426000Y-95504000D03*
D32*
%TO.P,RN1,8,R1.2_8*%
X130626000Y-95504000D03*
%TD*%
D34*
%TO.N,VDD*%
X117856000Y-99187000D03*
X121031000Y-90043000D03*
%TO.N,SCL*%
X122047000Y-96393000D03*
%TO.N,Gnd-iso*%
X125857000Y-88138000D03*
X125361500Y-98186500D03*
X121920000Y-105156000D03*
X132461000Y-83185000D03*
X128911500Y-93605500D03*
X130248000Y-100584000D03*
X133604000Y-107442000D03*
%TO.N,SDA*%
X123825000Y-91948000D03*
X121193000Y-94742000D03*
%TO.N,GND*%
X121024500Y-93351500D03*
X120904000Y-88138000D03*
X128270000Y-72898000D03*
%TO.N,/AIN1*%
X123304029Y-105283000D03*
X126335485Y-105566515D03*
%TO.N,ADS_ADDR*%
X129563308Y-94069337D03*
X129540000Y-88392000D03*
%TO.N,/AIN2*%
X131826000Y-103124000D03*
%TO.N,/AIN3*%
X131535099Y-102378764D03*
%TO.N,5V-iso*%
X128851999Y-90477001D03*
X122936000Y-99822000D03*
X130937292Y-111570207D03*
X131104201Y-100457000D03*
X130282784Y-94571886D03*
%TO.N,SDA-5V*%
X126087901Y-92056379D03*
X131254500Y-96520002D03*
%TO.N,SCL-5V*%
X132207000Y-94107000D03*
X132334000Y-96520002D03*
%TO.N,/Signal1-MCU*%
X124460000Y-93853000D03*
%TD*%
%TO.N,VDD*%
D35*
X120142000Y-90919000D02*
X120961000Y-90100000D01*
X119991500Y-97940500D02*
X120015000Y-97917000D01*
X124408500Y-82412500D02*
X122493000Y-84328000D01*
X120961000Y-90100000D02*
X121018000Y-90043000D01*
X118237000Y-98806000D02*
X117856000Y-99187000D01*
X121018000Y-90043000D02*
X121031000Y-90043000D01*
X118237000Y-97940500D02*
X119991500Y-97940500D01*
X124408500Y-81725500D02*
X124408500Y-82412500D01*
X118237000Y-97940500D02*
X118237000Y-98806000D01*
X121031000Y-90043000D02*
X122493000Y-90043000D01*
%TO.N,SCL*%
X119001000Y-96879500D02*
X118237000Y-96115500D01*
X120699000Y-96879500D02*
X119001000Y-96879500D01*
X123768000Y-94672000D02*
X122047000Y-96393000D01*
X123768000Y-92883001D02*
X123768000Y-94672000D01*
X122047000Y-96393000D02*
X121185500Y-96393000D01*
X122493000Y-92583000D02*
X123467999Y-92583000D01*
X121185500Y-96393000D02*
X120699000Y-96879500D01*
X123467999Y-92583000D02*
X123768000Y-92883001D01*
%TO.N,Gnd-iso*%
X130048000Y-99948299D02*
X130007000Y-99907299D01*
X127443000Y-88138000D02*
X125857000Y-88138000D01*
X121920000Y-105156000D02*
X121859000Y-105217000D01*
X133604000Y-107442000D02*
X133604000Y-106667000D01*
X133604000Y-106667000D02*
X132918000Y-105981000D01*
X125476000Y-97744500D02*
X125476000Y-96819500D01*
X128911500Y-93605500D02*
X129667000Y-92850000D01*
X131445000Y-84471000D02*
X131445000Y-84201000D01*
X131445000Y-84201000D02*
X132461000Y-83185000D01*
X125615500Y-98694500D02*
X126426000Y-98694500D01*
X128700201Y-101854000D02*
X129475201Y-101854000D01*
X127443000Y-93853000D02*
X128664000Y-93853000D01*
X125361500Y-98440500D02*
X125615500Y-98694500D01*
X121859000Y-105217000D02*
X121111500Y-105217000D01*
X125361500Y-98186500D02*
X125361500Y-98440500D01*
X130007000Y-99907299D02*
X130007000Y-98806000D01*
X130248000Y-101081201D02*
X130248000Y-100148299D01*
X126426000Y-99912000D02*
X126426000Y-98694500D01*
X126519500Y-100483500D02*
X126519500Y-100778500D01*
X130248000Y-100148299D02*
X130048000Y-99948299D01*
X128664000Y-93853000D02*
X128911500Y-93605500D01*
X125361500Y-97859000D02*
X125476000Y-97744500D01*
X126948500Y-82728500D02*
X126948500Y-81725500D01*
X126519500Y-100005500D02*
X126426000Y-99912000D01*
X126519500Y-100778500D02*
X126519500Y-100005500D01*
X125361500Y-98186500D02*
X125361500Y-97859000D01*
X129475201Y-101854000D02*
X130248000Y-101081201D01*
%TO.N,/AIN0*%
X126519500Y-101913500D02*
X125488500Y-100882500D01*
X125774000Y-104013000D02*
X125580500Y-103819500D01*
X125488500Y-100882500D02*
X125488500Y-99657000D01*
X125774000Y-103965500D02*
X125774000Y-104013000D01*
X126519500Y-101913500D02*
X127567500Y-101913500D01*
X123536000Y-106553000D02*
X122217500Y-106553000D01*
X123536000Y-106251000D02*
X125774000Y-104013000D01*
X123536000Y-106553000D02*
X123536000Y-106251000D01*
X128008000Y-102354000D02*
X128700201Y-102354000D01*
X125580500Y-103819500D02*
X125580500Y-102852500D01*
X125580500Y-102852500D02*
X126519500Y-101913500D01*
X123979500Y-102171000D02*
X125774000Y-103965500D01*
X124526000Y-98694500D02*
X125488500Y-99657000D01*
X127567500Y-101913500D02*
X128008000Y-102354000D01*
X122217500Y-106553000D02*
X121312500Y-107458000D01*
%TO.N,SDA*%
X120015000Y-95920000D02*
X121193000Y-94742000D01*
X122493000Y-91313000D02*
X123190000Y-91313000D01*
X120015000Y-96092000D02*
X120015000Y-95920000D01*
X123190000Y-91313000D02*
X123825000Y-91948000D01*
%TO.N,GND*%
X128270000Y-72898000D02*
X128270000Y-72664320D01*
X120142000Y-92469000D02*
X121024500Y-93351500D01*
X129105660Y-71828660D02*
X129105660Y-71798000D01*
X128270000Y-72664320D02*
X129105660Y-71828660D01*
X120904000Y-88138000D02*
X122493000Y-88138000D01*
X121526000Y-93853000D02*
X122493000Y-93853000D01*
X121024500Y-93351500D02*
X121526000Y-93853000D01*
%TO.N,Net-(A1-EN)*%
X121805700Y-71798000D02*
X124264093Y-71798000D01*
X124264093Y-71798000D02*
X125730000Y-73263907D01*
X134366000Y-88900000D02*
X135763000Y-90297000D01*
X135763000Y-90297000D02*
X135870500Y-90297000D01*
X125730000Y-75184000D02*
X134366000Y-83820000D01*
X134366000Y-83820000D02*
X134366000Y-88900000D01*
X125730000Y-73263907D02*
X125730000Y-75184000D01*
%TO.N,/AIN1*%
X129540000Y-107442000D02*
X126425000Y-107442000D01*
X119966500Y-103820000D02*
X121841029Y-103820000D01*
X125774000Y-106315000D02*
X125536000Y-106553000D01*
X126425000Y-107442000D02*
X125536000Y-106553000D01*
X132842000Y-109357000D02*
X132918000Y-109281000D01*
X132842000Y-111126000D02*
X132842000Y-109357000D01*
X128700201Y-103201799D02*
X128700201Y-102854000D01*
X125536000Y-106366000D02*
X128700201Y-103201799D01*
X121841029Y-103820000D02*
X123304029Y-105283000D01*
X132918000Y-109281000D02*
X131379000Y-109281000D01*
X125536000Y-106553000D02*
X125536000Y-106366000D01*
X131379000Y-109281000D02*
X129540000Y-107442000D01*
%TO.N,ADS_ADDR*%
X128524000Y-100677799D02*
X128524000Y-94954314D01*
X129371314Y-94107000D02*
X129525645Y-94107000D01*
X128524000Y-94954314D02*
X129371314Y-94107000D01*
X131445000Y-86487000D02*
X131445000Y-86471000D01*
X129540000Y-88392000D02*
X131445000Y-86487000D01*
X128700201Y-100854000D02*
X128524000Y-100677799D01*
X129525645Y-94107000D02*
X129563308Y-94069337D01*
%TO.N,ADS_ALERT*%
X130026000Y-97304000D02*
X130626000Y-97304000D01*
X129648000Y-101115515D02*
X129648000Y-100311529D01*
X128700201Y-101354000D02*
X129409515Y-101354000D01*
X129648000Y-100311529D02*
X129031000Y-99694529D01*
X129031000Y-98299000D02*
X130026000Y-97304000D01*
X129409515Y-101354000D02*
X129648000Y-101115515D01*
X129031000Y-99694529D02*
X129031000Y-98299000D01*
%TO.N,/AIN2*%
X132096000Y-102854000D02*
X131826000Y-103124000D01*
X133000201Y-102854000D02*
X132096000Y-102854000D01*
%TO.N,/AIN3*%
X132975437Y-102378764D02*
X133000201Y-102354000D01*
X131535099Y-102378764D02*
X132975437Y-102378764D01*
%TO.N,5V-iso*%
X130626000Y-95504000D02*
X130626000Y-94915102D01*
X130626000Y-94915102D02*
X130282784Y-94571886D01*
X133000201Y-101854000D02*
X131826000Y-101854000D01*
X131826000Y-101854000D02*
X131104201Y-101132201D01*
X131104201Y-100457000D02*
X131123500Y-100437701D01*
X127443000Y-90043000D02*
X128417999Y-90043000D01*
X128417999Y-90043000D02*
X128851999Y-90477001D01*
X129667000Y-91292001D02*
X129667000Y-91300000D01*
X128851999Y-90477001D02*
X129667000Y-91292001D01*
X123979500Y-100521000D02*
X123635000Y-100521000D01*
X129488500Y-82282500D02*
X129488500Y-81725500D01*
X127443000Y-84328000D02*
X129488500Y-82282500D01*
X130937292Y-111887292D02*
X132842000Y-113792000D01*
X123635000Y-100521000D02*
X122936000Y-99822000D01*
X123979500Y-100521000D02*
X123979500Y-100433500D01*
X132842000Y-113792000D02*
X132842000Y-114426000D01*
X130937292Y-111570207D02*
X130937292Y-111887292D01*
X130626000Y-95504000D02*
X132226000Y-95504000D01*
X131104201Y-101132201D02*
X131104201Y-99888000D01*
X131123500Y-100437701D02*
X131123500Y-99060000D01*
%TO.N,SDA-5V*%
X131445000Y-96863000D02*
X131426000Y-96882000D01*
X131445000Y-96710502D02*
X131445000Y-96863000D01*
X131426000Y-96882000D02*
X131426000Y-97787652D01*
X126831280Y-91313000D02*
X127443000Y-91313000D01*
X126087901Y-92056379D02*
X126831280Y-91313000D01*
X132334000Y-101354000D02*
X133000201Y-101354000D01*
X132150201Y-101201632D02*
X132302569Y-101354000D01*
X131254500Y-96520002D02*
X131445000Y-96710502D01*
X131426000Y-97787652D02*
X132150201Y-98511853D01*
X132302569Y-101354000D02*
X133000201Y-101354000D01*
X132150201Y-98511853D02*
X132150201Y-101201632D01*
%TO.N,SCL-5V*%
X132334000Y-96520002D02*
X132377265Y-96563267D01*
X132377265Y-96563267D02*
X132377265Y-96984735D01*
X132226000Y-97136000D02*
X132226000Y-97674000D01*
X130581000Y-92100000D02*
X132207000Y-93726000D01*
X132226000Y-97674000D02*
X132842000Y-98290000D01*
X132377265Y-96984735D02*
X132226000Y-97136000D01*
X132842000Y-100695799D02*
X133000201Y-100854000D01*
X132842000Y-98290000D02*
X132842000Y-100695799D01*
X132207000Y-93726000D02*
X132207000Y-94107000D01*
X127443000Y-92583000D02*
X127926000Y-92100000D01*
X127926000Y-92100000D02*
X130581000Y-92100000D01*
%TO.N,/Signal1-MCU*%
X124460000Y-86590001D02*
X124460000Y-93853000D01*
X123467999Y-85598000D02*
X124460000Y-86590001D01*
X122493000Y-85598000D02*
X123467999Y-85598000D01*
%TO.N,V_Input_REF*%
X121312500Y-109712000D02*
X121334501Y-109734001D01*
X122428000Y-116929000D02*
X122616500Y-117117500D01*
X121334501Y-110666501D02*
X122428000Y-111760000D01*
X122428000Y-111760000D02*
X122428000Y-116929000D01*
X121334501Y-109734001D02*
X121334501Y-110666501D01*
%TO.N,Net-(Q8-D)*%
X123774000Y-103771500D02*
X123774000Y-104013000D01*
X121841500Y-102870000D02*
X122631000Y-102870000D01*
X122631000Y-102870000D02*
X123774000Y-104013000D01*
%TO.N,V_Input_Float*%
X128700501Y-111583499D02*
X127508000Y-112776000D01*
X127508000Y-112776000D02*
X127508000Y-116929000D01*
X128678500Y-109712000D02*
X128700501Y-109734001D01*
X128700501Y-109734001D02*
X128700501Y-111583499D01*
%TO.N,/Gate_Control-iso*%
X121370499Y-97918030D02*
X125257000Y-94031529D01*
X125257000Y-94031529D02*
X125257000Y-86809001D01*
X118872000Y-104521000D02*
X118872000Y-103014500D01*
X119966500Y-101920000D02*
X121370499Y-100516001D01*
X125257000Y-86809001D02*
X126468001Y-85598000D01*
X120091500Y-105217000D02*
X119568000Y-105217000D01*
X121370499Y-100516001D02*
X121370499Y-97918030D01*
X119568000Y-105217000D02*
X118872000Y-104521000D01*
X126468001Y-85598000D02*
X127443000Y-85598000D01*
X118872000Y-103014500D02*
X119966500Y-101920000D01*
%TD*%
M02*
