M48
; DRILL file KiCad 10.0.0 date 2026-09-05T06:55:12
; FORMAT={-:-/ absolute / metric / decimal}
; #@! TF.CreationDate,2026-09-05T06:55:12-05:00
; #@! TF.GenerationSoftware,Kicad,Pcbnew,10.0.0
; #@! TF.FileFunction,Plated,1,2,PTH
FMAT,2
METRIC
; #@! TA.AperFunction,Plated,PTH,ViaDrill
T1C0.300
; #@! TA.AperFunction,Plated,PTH,ComponentDrill
T2C1.000
; #@! TA.AperFunction,Plated,PTH,ComponentDrill
T3C1.100
; #@! TA.AperFunction,Plated,PTH,ComponentDrill
T4C1.600
%
G90
G05
T1
X30.8Y-69.6
X31.8Y-56.4
X31.8Y-67.0
X35.8Y-77.6
X37.0Y-78.6
X42.2Y-75.8
X46.6Y-72.6
X47.0Y-70.0
X50.0Y-95.0
X51.0Y-45.0
X51.0Y-63.0
X52.8Y-90.4
X54.8Y-40.6
X55.6Y-93.2
X55.6Y-95.4
X56.0Y-39.0
X56.0Y-90.0
X56.4Y-86.6
X57.0Y-59.2
X57.2Y-34.8
X57.8Y-71.4
X57.8Y-77.0
X57.8Y-85.6
X57.8Y-86.8
X57.8Y-88.0
X57.8Y-89.4
X57.8Y-90.6
X57.8Y-92.0
X57.8Y-93.2
X57.8Y-94.4
X58.2Y-36.8
X59.4Y-37.8
X59.4Y-56.6
X59.4Y-58.0
X61.4Y-56.0
X66.6Y-36.0
X68.6Y-70.8
X72.8Y-88.4
X72.8Y-92.0
X74.8Y-55.4
X78.0Y-83.0
X78.0Y-86.8
X80.0Y-61.6
X81.0Y-54.6
X91.0Y-41.0
X103.0Y-68.0
T2
X29.0Y-40.0
X29.0Y-42.54
X29.0Y-45.08
X29.0Y-47.62
X29.0Y-50.16
X29.0Y-52.7
X29.0Y-55.24
X29.0Y-57.78
X29.0Y-60.32
X29.0Y-62.86
T3
X80.92Y-58.0
X83.46Y-58.0
X86.0Y-38.0
X86.0Y-58.0
X88.54Y-38.0
X91.08Y-38.0
T4
X114.0Y-28.38
X114.0Y-36.0
X114.0Y-60.38
X114.0Y-68.0
M30
