%TF.GenerationSoftware,KiCad,Pcbnew,10.0.0*%
%TF.CreationDate,2026-09-05T06:55:12-05:00*%
%TF.ProjectId,SI8751AB-IS_devboard,53493837-3531-4414-922d-49535f646576,rev?*%
%TF.SameCoordinates,Original*%
%TF.FileFunction,Legend,Top*%
%TF.FilePolarity,Positive*%
%FSLAX46Y46*%
G04 Gerber Fmt 4.6, Leading zero omitted, Abs format (unit mm)*
G04 Created by KiCad (PCBNEW 10.0.0) date 2026-09-05 06:55:12*
%MOMM*%
%LPD*%
G01*
G04 APERTURE LIST*
G04 Aperture macros list*
%AMRoundRect*
0 Rectangle with rounded corners*
0 $1 Rounding radius*
0 $2 $3 $4 $5 $6 $7 $8 $9 X,Y pos of 4 corners*
0 Add a 4 corners polygon primitive as box body*
4,1,4,$2,$3,$4,$5,$6,$7,$8,$9,$2,$3,0*
0 Add four circle primitives for the rounded corners*
1,1,$1+$1,$2,$3*
1,1,$1+$1,$4,$5*
1,1,$1+$1,$6,$7*
1,1,$1+$1,$8,$9*
0 Add four rect primitives between the rounded corners*
20,1,$1+$1,$2,$3,$4,$5,0*
20,1,$1+$1,$4,$5,$6,$7,0*
20,1,$1+$1,$6,$7,$8,$9,0*
20,1,$1+$1,$8,$9,$2,$3,0*%
G04 Aperture macros list end*
%ADD10C,0.150000*%
%ADD11C,0.130000*%
%ADD12C,0.120000*%
%ADD13RoundRect,0.250000X0.475000X-0.250000X0.475000X0.250000X-0.475000X0.250000X-0.475000X-0.250000X0*%
%ADD14RoundRect,0.250000X-0.262500X-0.450000X0.262500X-0.450000X0.262500X0.450000X-0.262500X0.450000X0*%
%ADD15RoundRect,0.150000X0.825000X0.150000X-0.825000X0.150000X-0.825000X-0.150000X0.825000X-0.150000X0*%
%ADD16C,3.200000*%
%ADD17RoundRect,0.250000X0.450000X-0.262500X0.450000X0.262500X-0.450000X0.262500X-0.450000X-0.262500X0*%
%ADD18RoundRect,0.150000X0.875000X0.150000X-0.875000X0.150000X-0.875000X-0.150000X0.875000X-0.150000X0*%
%ADD19R,2.540000X2.540000*%
%ADD20C,2.540000*%
%ADD21R,1.700000X1.700000*%
%ADD22C,1.700000*%
%ADD23R,1.650000X1.905000*%
%ADD24O,1.650000X1.905000*%
%ADD25RoundRect,0.250000X-0.250000X-0.475000X0.250000X-0.475000X0.250000X0.475000X-0.250000X0.475000X0*%
%ADD26RoundRect,0.150000X-0.825000X-0.150000X0.825000X-0.150000X0.825000X0.150000X-0.825000X0.150000X0*%
G04 APERTURE END LIST*
D10*
X64000000Y-23000000D02*
X64000000Y-32000000D01*
X64000000Y-43000000D02*
X64000000Y-52000000D01*
X64000000Y-63000000D02*
X64000000Y-68000000D01*
X64000000Y-78000000D02*
X64000000Y-83000000D01*
X64000000Y-97000000D02*
X64000000Y-101000000D01*
X33421429Y-40385427D02*
X32935714Y-40385427D01*
X33178571Y-40385427D02*
X33178571Y-39535427D01*
X33178571Y-39535427D02*
X33097619Y-39656855D01*
X33097619Y-39656855D02*
X33016667Y-39737808D01*
X33016667Y-39737808D02*
X32935714Y-39778284D01*
X35000000Y-39535427D02*
X35526191Y-39535427D01*
X35526191Y-39535427D02*
X35242857Y-39859236D01*
X35242857Y-39859236D02*
X35364286Y-39859236D01*
X35364286Y-39859236D02*
X35445238Y-39899712D01*
X35445238Y-39899712D02*
X35485714Y-39940189D01*
X35485714Y-39940189D02*
X35526191Y-40021141D01*
X35526191Y-40021141D02*
X35526191Y-40223522D01*
X35526191Y-40223522D02*
X35485714Y-40304474D01*
X35485714Y-40304474D02*
X35445238Y-40344951D01*
X35445238Y-40344951D02*
X35364286Y-40385427D01*
X35364286Y-40385427D02*
X35121429Y-40385427D01*
X35121429Y-40385427D02*
X35040476Y-40344951D01*
X35040476Y-40344951D02*
X35000000Y-40304474D01*
X35769048Y-39535427D02*
X36052381Y-40385427D01*
X36052381Y-40385427D02*
X36335715Y-39535427D01*
X36538095Y-39535427D02*
X37064286Y-39535427D01*
X37064286Y-39535427D02*
X36780952Y-39859236D01*
X36780952Y-39859236D02*
X36902381Y-39859236D01*
X36902381Y-39859236D02*
X36983333Y-39899712D01*
X36983333Y-39899712D02*
X37023809Y-39940189D01*
X37023809Y-39940189D02*
X37064286Y-40021141D01*
X37064286Y-40021141D02*
X37064286Y-40223522D01*
X37064286Y-40223522D02*
X37023809Y-40304474D01*
X37023809Y-40304474D02*
X36983333Y-40344951D01*
X36983333Y-40344951D02*
X36902381Y-40385427D01*
X36902381Y-40385427D02*
X36659524Y-40385427D01*
X36659524Y-40385427D02*
X36578571Y-40344951D01*
X36578571Y-40344951D02*
X36538095Y-40304474D01*
X32814285Y-42156379D02*
X32854761Y-42115903D01*
X32854761Y-42115903D02*
X32935714Y-42075427D01*
X32935714Y-42075427D02*
X33138095Y-42075427D01*
X33138095Y-42075427D02*
X33219047Y-42115903D01*
X33219047Y-42115903D02*
X33259523Y-42156379D01*
X33259523Y-42156379D02*
X33300000Y-42237331D01*
X33300000Y-42237331D02*
X33300000Y-42318284D01*
X33300000Y-42318284D02*
X33259523Y-42439712D01*
X33259523Y-42439712D02*
X32773809Y-42925427D01*
X32773809Y-42925427D02*
X33300000Y-42925427D01*
X35404762Y-42115903D02*
X35323809Y-42075427D01*
X35323809Y-42075427D02*
X35202381Y-42075427D01*
X35202381Y-42075427D02*
X35080952Y-42115903D01*
X35080952Y-42115903D02*
X35000000Y-42196855D01*
X35000000Y-42196855D02*
X34959523Y-42277808D01*
X34959523Y-42277808D02*
X34919047Y-42439712D01*
X34919047Y-42439712D02*
X34919047Y-42561141D01*
X34919047Y-42561141D02*
X34959523Y-42723046D01*
X34959523Y-42723046D02*
X35000000Y-42803998D01*
X35000000Y-42803998D02*
X35080952Y-42884951D01*
X35080952Y-42884951D02*
X35202381Y-42925427D01*
X35202381Y-42925427D02*
X35283333Y-42925427D01*
X35283333Y-42925427D02*
X35404762Y-42884951D01*
X35404762Y-42884951D02*
X35445238Y-42844474D01*
X35445238Y-42844474D02*
X35445238Y-42561141D01*
X35445238Y-42561141D02*
X35283333Y-42561141D01*
X35809523Y-42925427D02*
X35809523Y-42075427D01*
X35809523Y-42075427D02*
X36295238Y-42925427D01*
X36295238Y-42925427D02*
X36295238Y-42075427D01*
X36699999Y-42925427D02*
X36699999Y-42075427D01*
X36699999Y-42075427D02*
X36902380Y-42075427D01*
X36902380Y-42075427D02*
X37023809Y-42115903D01*
X37023809Y-42115903D02*
X37104761Y-42196855D01*
X37104761Y-42196855D02*
X37145238Y-42277808D01*
X37145238Y-42277808D02*
X37185714Y-42439712D01*
X37185714Y-42439712D02*
X37185714Y-42561141D01*
X37185714Y-42561141D02*
X37145238Y-42723046D01*
X37145238Y-42723046D02*
X37104761Y-42803998D01*
X37104761Y-42803998D02*
X37023809Y-42884951D01*
X37023809Y-42884951D02*
X36902380Y-42925427D01*
X36902380Y-42925427D02*
X36699999Y-42925427D01*
X33239285Y-44615427D02*
X33765476Y-44615427D01*
X33765476Y-44615427D02*
X33482142Y-44939236D01*
X33482142Y-44939236D02*
X33603571Y-44939236D01*
X33603571Y-44939236D02*
X33684523Y-44979712D01*
X33684523Y-44979712D02*
X33724999Y-45020189D01*
X33724999Y-45020189D02*
X33765476Y-45101141D01*
X33765476Y-45101141D02*
X33765476Y-45303522D01*
X33765476Y-45303522D02*
X33724999Y-45384474D01*
X33724999Y-45384474D02*
X33684523Y-45424951D01*
X33684523Y-45424951D02*
X33603571Y-45465427D01*
X33603571Y-45465427D02*
X33360714Y-45465427D01*
X33360714Y-45465427D02*
X33279761Y-45424951D01*
X33279761Y-45424951D02*
X33239285Y-45384474D01*
X35424999Y-45020189D02*
X35708333Y-45020189D01*
X35829761Y-45465427D02*
X35424999Y-45465427D01*
X35424999Y-45465427D02*
X35424999Y-44615427D01*
X35424999Y-44615427D02*
X35829761Y-44615427D01*
X36194047Y-45465427D02*
X36194047Y-44615427D01*
X36194047Y-44615427D02*
X36679762Y-45465427D01*
X36679762Y-45465427D02*
X36679762Y-44615427D01*
X33725000Y-47438760D02*
X33725000Y-48005427D01*
X33522619Y-47114951D02*
X33320238Y-47722093D01*
X33320238Y-47722093D02*
X33846429Y-47722093D01*
X35344048Y-47155427D02*
X35627381Y-48005427D01*
X35627381Y-48005427D02*
X35910715Y-47155427D01*
X36194047Y-48005427D02*
X36194047Y-47155427D01*
X36194047Y-47155427D02*
X36517857Y-47155427D01*
X36517857Y-47155427D02*
X36598809Y-47195903D01*
X36598809Y-47195903D02*
X36639286Y-47236379D01*
X36639286Y-47236379D02*
X36679762Y-47317331D01*
X36679762Y-47317331D02*
X36679762Y-47438760D01*
X36679762Y-47438760D02*
X36639286Y-47519712D01*
X36639286Y-47519712D02*
X36598809Y-47560189D01*
X36598809Y-47560189D02*
X36517857Y-47600665D01*
X36517857Y-47600665D02*
X36194047Y-47600665D01*
X33745238Y-49695427D02*
X33340476Y-49695427D01*
X33340476Y-49695427D02*
X33300000Y-50100189D01*
X33300000Y-50100189D02*
X33340476Y-50059712D01*
X33340476Y-50059712D02*
X33421429Y-50019236D01*
X33421429Y-50019236D02*
X33623810Y-50019236D01*
X33623810Y-50019236D02*
X33704762Y-50059712D01*
X33704762Y-50059712D02*
X33745238Y-50100189D01*
X33745238Y-50100189D02*
X33785715Y-50181141D01*
X33785715Y-50181141D02*
X33785715Y-50383522D01*
X33785715Y-50383522D02*
X33745238Y-50464474D01*
X33745238Y-50464474D02*
X33704762Y-50504951D01*
X33704762Y-50504951D02*
X33623810Y-50545427D01*
X33623810Y-50545427D02*
X33421429Y-50545427D01*
X33421429Y-50545427D02*
X33340476Y-50504951D01*
X33340476Y-50504951D02*
X33300000Y-50464474D01*
X35323810Y-49695427D02*
X35607143Y-50545427D01*
X35607143Y-50545427D02*
X35890477Y-49695427D01*
X36173809Y-50545427D02*
X36173809Y-49695427D01*
X36173809Y-49695427D02*
X36659524Y-50545427D01*
X36659524Y-50545427D02*
X36659524Y-49695427D01*
X33219047Y-52235427D02*
X33057142Y-52235427D01*
X33057142Y-52235427D02*
X32976190Y-52275903D01*
X32976190Y-52275903D02*
X32935714Y-52316379D01*
X32935714Y-52316379D02*
X32854761Y-52437808D01*
X32854761Y-52437808D02*
X32814285Y-52599712D01*
X32814285Y-52599712D02*
X32814285Y-52923522D01*
X32814285Y-52923522D02*
X32854761Y-53004474D01*
X32854761Y-53004474D02*
X32895238Y-53044951D01*
X32895238Y-53044951D02*
X32976190Y-53085427D01*
X32976190Y-53085427D02*
X33138095Y-53085427D01*
X33138095Y-53085427D02*
X33219047Y-53044951D01*
X33219047Y-53044951D02*
X33259523Y-53004474D01*
X33259523Y-53004474D02*
X33300000Y-52923522D01*
X33300000Y-52923522D02*
X33300000Y-52721141D01*
X33300000Y-52721141D02*
X33259523Y-52640189D01*
X33259523Y-52640189D02*
X33219047Y-52599712D01*
X33219047Y-52599712D02*
X33138095Y-52559236D01*
X33138095Y-52559236D02*
X32976190Y-52559236D01*
X32976190Y-52559236D02*
X32895238Y-52599712D01*
X32895238Y-52599712D02*
X32854761Y-52640189D01*
X32854761Y-52640189D02*
X32814285Y-52721141D01*
X35404762Y-52275903D02*
X35323809Y-52235427D01*
X35323809Y-52235427D02*
X35202381Y-52235427D01*
X35202381Y-52235427D02*
X35080952Y-52275903D01*
X35080952Y-52275903D02*
X35000000Y-52356855D01*
X35000000Y-52356855D02*
X34959523Y-52437808D01*
X34959523Y-52437808D02*
X34919047Y-52599712D01*
X34919047Y-52599712D02*
X34919047Y-52721141D01*
X34919047Y-52721141D02*
X34959523Y-52883046D01*
X34959523Y-52883046D02*
X35000000Y-52963998D01*
X35000000Y-52963998D02*
X35080952Y-53044951D01*
X35080952Y-53044951D02*
X35202381Y-53085427D01*
X35202381Y-53085427D02*
X35283333Y-53085427D01*
X35283333Y-53085427D02*
X35404762Y-53044951D01*
X35404762Y-53044951D02*
X35445238Y-53004474D01*
X35445238Y-53004474D02*
X35445238Y-52721141D01*
X35445238Y-52721141D02*
X35283333Y-52721141D01*
X35809523Y-53085427D02*
X35809523Y-52235427D01*
X35809523Y-52235427D02*
X36295238Y-53085427D01*
X36295238Y-53085427D02*
X36295238Y-52235427D01*
X36699999Y-53085427D02*
X36699999Y-52235427D01*
X36699999Y-52235427D02*
X36902380Y-52235427D01*
X36902380Y-52235427D02*
X37023809Y-52275903D01*
X37023809Y-52275903D02*
X37104761Y-52356855D01*
X37104761Y-52356855D02*
X37145238Y-52437808D01*
X37145238Y-52437808D02*
X37185714Y-52599712D01*
X37185714Y-52599712D02*
X37185714Y-52721141D01*
X37185714Y-52721141D02*
X37145238Y-52883046D01*
X37145238Y-52883046D02*
X37104761Y-52963998D01*
X37104761Y-52963998D02*
X37023809Y-53044951D01*
X37023809Y-53044951D02*
X36902380Y-53085427D01*
X36902380Y-53085427D02*
X36699999Y-53085427D01*
X33300000Y-54775427D02*
X33866667Y-54775427D01*
X33866667Y-54775427D02*
X33502381Y-55625427D01*
X35890476Y-54775427D02*
X35485714Y-54775427D01*
X35485714Y-54775427D02*
X35445238Y-55180189D01*
X35445238Y-55180189D02*
X35485714Y-55139712D01*
X35485714Y-55139712D02*
X35566667Y-55099236D01*
X35566667Y-55099236D02*
X35769048Y-55099236D01*
X35769048Y-55099236D02*
X35850000Y-55139712D01*
X35850000Y-55139712D02*
X35890476Y-55180189D01*
X35890476Y-55180189D02*
X35930953Y-55261141D01*
X35930953Y-55261141D02*
X35930953Y-55463522D01*
X35930953Y-55463522D02*
X35890476Y-55544474D01*
X35890476Y-55544474D02*
X35850000Y-55584951D01*
X35850000Y-55584951D02*
X35769048Y-55625427D01*
X35769048Y-55625427D02*
X35566667Y-55625427D01*
X35566667Y-55625427D02*
X35485714Y-55584951D01*
X35485714Y-55584951D02*
X35445238Y-55544474D01*
X36173810Y-54775427D02*
X36457143Y-55625427D01*
X36457143Y-55625427D02*
X36740477Y-54775427D01*
X32854762Y-57679712D02*
X32773810Y-57639236D01*
X32773810Y-57639236D02*
X32733333Y-57598760D01*
X32733333Y-57598760D02*
X32692857Y-57517808D01*
X32692857Y-57517808D02*
X32692857Y-57477331D01*
X32692857Y-57477331D02*
X32733333Y-57396379D01*
X32733333Y-57396379D02*
X32773810Y-57355903D01*
X32773810Y-57355903D02*
X32854762Y-57315427D01*
X32854762Y-57315427D02*
X33016667Y-57315427D01*
X33016667Y-57315427D02*
X33097619Y-57355903D01*
X33097619Y-57355903D02*
X33138095Y-57396379D01*
X33138095Y-57396379D02*
X33178572Y-57477331D01*
X33178572Y-57477331D02*
X33178572Y-57517808D01*
X33178572Y-57517808D02*
X33138095Y-57598760D01*
X33138095Y-57598760D02*
X33097619Y-57639236D01*
X33097619Y-57639236D02*
X33016667Y-57679712D01*
X33016667Y-57679712D02*
X32854762Y-57679712D01*
X32854762Y-57679712D02*
X32773810Y-57720189D01*
X32773810Y-57720189D02*
X32733333Y-57760665D01*
X32733333Y-57760665D02*
X32692857Y-57841617D01*
X32692857Y-57841617D02*
X32692857Y-58003522D01*
X32692857Y-58003522D02*
X32733333Y-58084474D01*
X32733333Y-58084474D02*
X32773810Y-58124951D01*
X32773810Y-58124951D02*
X32854762Y-58165427D01*
X32854762Y-58165427D02*
X33016667Y-58165427D01*
X33016667Y-58165427D02*
X33097619Y-58124951D01*
X33097619Y-58124951D02*
X33138095Y-58084474D01*
X33138095Y-58084474D02*
X33178572Y-58003522D01*
X33178572Y-58003522D02*
X33178572Y-57841617D01*
X33178572Y-57841617D02*
X33138095Y-57760665D01*
X33138095Y-57760665D02*
X33097619Y-57720189D01*
X33097619Y-57720189D02*
X33016667Y-57679712D01*
X34838095Y-58165427D02*
X34838095Y-57315427D01*
X35404762Y-57315427D02*
X35566667Y-57315427D01*
X35566667Y-57315427D02*
X35647619Y-57355903D01*
X35647619Y-57355903D02*
X35728572Y-57436855D01*
X35728572Y-57436855D02*
X35769048Y-57598760D01*
X35769048Y-57598760D02*
X35769048Y-57882093D01*
X35769048Y-57882093D02*
X35728572Y-58043998D01*
X35728572Y-58043998D02*
X35647619Y-58124951D01*
X35647619Y-58124951D02*
X35566667Y-58165427D01*
X35566667Y-58165427D02*
X35404762Y-58165427D01*
X35404762Y-58165427D02*
X35323810Y-58124951D01*
X35323810Y-58124951D02*
X35242857Y-58043998D01*
X35242857Y-58043998D02*
X35202381Y-57882093D01*
X35202381Y-57882093D02*
X35202381Y-57598760D01*
X35202381Y-57598760D02*
X35242857Y-57436855D01*
X35242857Y-57436855D02*
X35323810Y-57355903D01*
X35323810Y-57355903D02*
X35404762Y-57315427D01*
X36133333Y-57315427D02*
X36133333Y-58003522D01*
X36133333Y-58003522D02*
X36173810Y-58084474D01*
X36173810Y-58084474D02*
X36214286Y-58124951D01*
X36214286Y-58124951D02*
X36295238Y-58165427D01*
X36295238Y-58165427D02*
X36457143Y-58165427D01*
X36457143Y-58165427D02*
X36538095Y-58124951D01*
X36538095Y-58124951D02*
X36578572Y-58084474D01*
X36578572Y-58084474D02*
X36619048Y-58003522D01*
X36619048Y-58003522D02*
X36619048Y-57315427D01*
X36902381Y-57315427D02*
X37388095Y-57315427D01*
X37145238Y-58165427D02*
X37145238Y-57315427D01*
X32773810Y-60705427D02*
X32935714Y-60705427D01*
X32935714Y-60705427D02*
X33016667Y-60664951D01*
X33016667Y-60664951D02*
X33057143Y-60624474D01*
X33057143Y-60624474D02*
X33138095Y-60503046D01*
X33138095Y-60503046D02*
X33178572Y-60341141D01*
X33178572Y-60341141D02*
X33178572Y-60017331D01*
X33178572Y-60017331D02*
X33138095Y-59936379D01*
X33138095Y-59936379D02*
X33097619Y-59895903D01*
X33097619Y-59895903D02*
X33016667Y-59855427D01*
X33016667Y-59855427D02*
X32854762Y-59855427D01*
X32854762Y-59855427D02*
X32773810Y-59895903D01*
X32773810Y-59895903D02*
X32733333Y-59936379D01*
X32733333Y-59936379D02*
X32692857Y-60017331D01*
X32692857Y-60017331D02*
X32692857Y-60219712D01*
X32692857Y-60219712D02*
X32733333Y-60300665D01*
X32733333Y-60300665D02*
X32773810Y-60341141D01*
X32773810Y-60341141D02*
X32854762Y-60381617D01*
X32854762Y-60381617D02*
X33016667Y-60381617D01*
X33016667Y-60381617D02*
X33097619Y-60341141D01*
X33097619Y-60341141D02*
X33138095Y-60300665D01*
X33138095Y-60300665D02*
X33178572Y-60219712D01*
X34838095Y-60705427D02*
X34838095Y-59855427D01*
X34838095Y-59855427D02*
X35040476Y-59855427D01*
X35040476Y-59855427D02*
X35161905Y-59895903D01*
X35161905Y-59895903D02*
X35242857Y-59976855D01*
X35242857Y-59976855D02*
X35283334Y-60057808D01*
X35283334Y-60057808D02*
X35323810Y-60219712D01*
X35323810Y-60219712D02*
X35323810Y-60341141D01*
X35323810Y-60341141D02*
X35283334Y-60503046D01*
X35283334Y-60503046D02*
X35242857Y-60583998D01*
X35242857Y-60583998D02*
X35161905Y-60664951D01*
X35161905Y-60664951D02*
X35040476Y-60705427D01*
X35040476Y-60705427D02*
X34838095Y-60705427D01*
X35688095Y-60705427D02*
X35688095Y-59855427D01*
X36052381Y-60462570D02*
X36457143Y-60462570D01*
X35971429Y-60705427D02*
X36254762Y-59855427D01*
X36254762Y-59855427D02*
X36538096Y-60705427D01*
X37266667Y-59895903D02*
X37185714Y-59855427D01*
X37185714Y-59855427D02*
X37064286Y-59855427D01*
X37064286Y-59855427D02*
X36942857Y-59895903D01*
X36942857Y-59895903D02*
X36861905Y-59976855D01*
X36861905Y-59976855D02*
X36821428Y-60057808D01*
X36821428Y-60057808D02*
X36780952Y-60219712D01*
X36780952Y-60219712D02*
X36780952Y-60341141D01*
X36780952Y-60341141D02*
X36821428Y-60503046D01*
X36821428Y-60503046D02*
X36861905Y-60583998D01*
X36861905Y-60583998D02*
X36942857Y-60664951D01*
X36942857Y-60664951D02*
X37064286Y-60705427D01*
X37064286Y-60705427D02*
X37145238Y-60705427D01*
X37145238Y-60705427D02*
X37266667Y-60664951D01*
X37266667Y-60664951D02*
X37307143Y-60624474D01*
X37307143Y-60624474D02*
X37307143Y-60341141D01*
X37307143Y-60341141D02*
X37145238Y-60341141D01*
X33219048Y-63245427D02*
X32733333Y-63245427D01*
X32976190Y-63245427D02*
X32976190Y-62395427D01*
X32976190Y-62395427D02*
X32895238Y-62516855D01*
X32895238Y-62516855D02*
X32814286Y-62597808D01*
X32814286Y-62597808D02*
X32733333Y-62638284D01*
X33745238Y-62395427D02*
X33826191Y-62395427D01*
X33826191Y-62395427D02*
X33907143Y-62435903D01*
X33907143Y-62435903D02*
X33947619Y-62476379D01*
X33947619Y-62476379D02*
X33988095Y-62557331D01*
X33988095Y-62557331D02*
X34028572Y-62719236D01*
X34028572Y-62719236D02*
X34028572Y-62921617D01*
X34028572Y-62921617D02*
X33988095Y-63083522D01*
X33988095Y-63083522D02*
X33947619Y-63164474D01*
X33947619Y-63164474D02*
X33907143Y-63204951D01*
X33907143Y-63204951D02*
X33826191Y-63245427D01*
X33826191Y-63245427D02*
X33745238Y-63245427D01*
X33745238Y-63245427D02*
X33664286Y-63204951D01*
X33664286Y-63204951D02*
X33623810Y-63164474D01*
X33623810Y-63164474D02*
X33583333Y-63083522D01*
X33583333Y-63083522D02*
X33542857Y-62921617D01*
X33542857Y-62921617D02*
X33542857Y-62719236D01*
X33542857Y-62719236D02*
X33583333Y-62557331D01*
X33583333Y-62557331D02*
X33623810Y-62476379D01*
X33623810Y-62476379D02*
X33664286Y-62435903D01*
X33664286Y-62435903D02*
X33745238Y-62395427D01*
X35485715Y-62435903D02*
X35404762Y-62395427D01*
X35404762Y-62395427D02*
X35283334Y-62395427D01*
X35283334Y-62395427D02*
X35161905Y-62435903D01*
X35161905Y-62435903D02*
X35080953Y-62516855D01*
X35080953Y-62516855D02*
X35040476Y-62597808D01*
X35040476Y-62597808D02*
X35000000Y-62759712D01*
X35000000Y-62759712D02*
X35000000Y-62881141D01*
X35000000Y-62881141D02*
X35040476Y-63043046D01*
X35040476Y-63043046D02*
X35080953Y-63123998D01*
X35080953Y-63123998D02*
X35161905Y-63204951D01*
X35161905Y-63204951D02*
X35283334Y-63245427D01*
X35283334Y-63245427D02*
X35364286Y-63245427D01*
X35364286Y-63245427D02*
X35485715Y-63204951D01*
X35485715Y-63204951D02*
X35526191Y-63164474D01*
X35526191Y-63164474D02*
X35526191Y-62881141D01*
X35526191Y-62881141D02*
X35364286Y-62881141D01*
X35890476Y-63245427D02*
X35890476Y-62395427D01*
X35890476Y-62395427D02*
X36376191Y-63245427D01*
X36376191Y-63245427D02*
X36376191Y-62395427D01*
X36780952Y-63245427D02*
X36780952Y-62395427D01*
X36780952Y-62395427D02*
X36983333Y-62395427D01*
X36983333Y-62395427D02*
X37104762Y-62435903D01*
X37104762Y-62435903D02*
X37185714Y-62516855D01*
X37185714Y-62516855D02*
X37226191Y-62597808D01*
X37226191Y-62597808D02*
X37266667Y-62759712D01*
X37266667Y-62759712D02*
X37266667Y-62881141D01*
X37266667Y-62881141D02*
X37226191Y-63043046D01*
X37226191Y-63043046D02*
X37185714Y-63123998D01*
X37185714Y-63123998D02*
X37104762Y-63204951D01*
X37104762Y-63204951D02*
X36983333Y-63245427D01*
X36983333Y-63245427D02*
X36780952Y-63245427D01*
X119239286Y-28765427D02*
X118955952Y-28360665D01*
X118753571Y-28765427D02*
X118753571Y-27915427D01*
X118753571Y-27915427D02*
X119077381Y-27915427D01*
X119077381Y-27915427D02*
X119158333Y-27955903D01*
X119158333Y-27955903D02*
X119198810Y-27996379D01*
X119198810Y-27996379D02*
X119239286Y-28077331D01*
X119239286Y-28077331D02*
X119239286Y-28198760D01*
X119239286Y-28198760D02*
X119198810Y-28279712D01*
X119198810Y-28279712D02*
X119158333Y-28320189D01*
X119158333Y-28320189D02*
X119077381Y-28360665D01*
X119077381Y-28360665D02*
X118753571Y-28360665D01*
X119603571Y-28320189D02*
X119886905Y-28320189D01*
X120008333Y-28765427D02*
X119603571Y-28765427D01*
X119603571Y-28765427D02*
X119603571Y-27915427D01*
X119603571Y-27915427D02*
X120008333Y-27915427D01*
X120251191Y-27915427D02*
X120736905Y-27915427D01*
X120494048Y-28765427D02*
X120494048Y-27915427D01*
X121020238Y-27915427D02*
X121020238Y-28603522D01*
X121020238Y-28603522D02*
X121060715Y-28684474D01*
X121060715Y-28684474D02*
X121101191Y-28724951D01*
X121101191Y-28724951D02*
X121182143Y-28765427D01*
X121182143Y-28765427D02*
X121344048Y-28765427D01*
X121344048Y-28765427D02*
X121425000Y-28724951D01*
X121425000Y-28724951D02*
X121465477Y-28684474D01*
X121465477Y-28684474D02*
X121505953Y-28603522D01*
X121505953Y-28603522D02*
X121505953Y-27915427D01*
X122396429Y-28765427D02*
X122113095Y-28360665D01*
X121910714Y-28765427D02*
X121910714Y-27915427D01*
X121910714Y-27915427D02*
X122234524Y-27915427D01*
X122234524Y-27915427D02*
X122315476Y-27955903D01*
X122315476Y-27955903D02*
X122355953Y-27996379D01*
X122355953Y-27996379D02*
X122396429Y-28077331D01*
X122396429Y-28077331D02*
X122396429Y-28198760D01*
X122396429Y-28198760D02*
X122355953Y-28279712D01*
X122355953Y-28279712D02*
X122315476Y-28320189D01*
X122315476Y-28320189D02*
X122234524Y-28360665D01*
X122234524Y-28360665D02*
X121910714Y-28360665D01*
X122760714Y-28765427D02*
X122760714Y-27915427D01*
X122760714Y-27915427D02*
X123246429Y-28765427D01*
X123246429Y-28765427D02*
X123246429Y-27915427D01*
X120230952Y-36385427D02*
X119826190Y-36385427D01*
X119826190Y-36385427D02*
X119826190Y-35535427D01*
X120514285Y-36385427D02*
X120514285Y-35535427D01*
X120919047Y-36385427D02*
X120919047Y-35535427D01*
X120919047Y-35535427D02*
X121404762Y-36385427D01*
X121404762Y-36385427D02*
X121404762Y-35535427D01*
X121809523Y-35940189D02*
X122092857Y-35940189D01*
X122214285Y-36385427D02*
X121809523Y-36385427D01*
X121809523Y-36385427D02*
X121809523Y-35535427D01*
X121809523Y-35535427D02*
X122214285Y-35535427D01*
X119239286Y-60765427D02*
X118955952Y-60360665D01*
X118753571Y-60765427D02*
X118753571Y-59915427D01*
X118753571Y-59915427D02*
X119077381Y-59915427D01*
X119077381Y-59915427D02*
X119158333Y-59955903D01*
X119158333Y-59955903D02*
X119198810Y-59996379D01*
X119198810Y-59996379D02*
X119239286Y-60077331D01*
X119239286Y-60077331D02*
X119239286Y-60198760D01*
X119239286Y-60198760D02*
X119198810Y-60279712D01*
X119198810Y-60279712D02*
X119158333Y-60320189D01*
X119158333Y-60320189D02*
X119077381Y-60360665D01*
X119077381Y-60360665D02*
X118753571Y-60360665D01*
X119603571Y-60320189D02*
X119886905Y-60320189D01*
X120008333Y-60765427D02*
X119603571Y-60765427D01*
X119603571Y-60765427D02*
X119603571Y-59915427D01*
X119603571Y-59915427D02*
X120008333Y-59915427D01*
X120251191Y-59915427D02*
X120736905Y-59915427D01*
X120494048Y-60765427D02*
X120494048Y-59915427D01*
X121020238Y-59915427D02*
X121020238Y-60603522D01*
X121020238Y-60603522D02*
X121060715Y-60684474D01*
X121060715Y-60684474D02*
X121101191Y-60724951D01*
X121101191Y-60724951D02*
X121182143Y-60765427D01*
X121182143Y-60765427D02*
X121344048Y-60765427D01*
X121344048Y-60765427D02*
X121425000Y-60724951D01*
X121425000Y-60724951D02*
X121465477Y-60684474D01*
X121465477Y-60684474D02*
X121505953Y-60603522D01*
X121505953Y-60603522D02*
X121505953Y-59915427D01*
X122396429Y-60765427D02*
X122113095Y-60360665D01*
X121910714Y-60765427D02*
X121910714Y-59915427D01*
X121910714Y-59915427D02*
X122234524Y-59915427D01*
X122234524Y-59915427D02*
X122315476Y-59955903D01*
X122315476Y-59955903D02*
X122355953Y-59996379D01*
X122355953Y-59996379D02*
X122396429Y-60077331D01*
X122396429Y-60077331D02*
X122396429Y-60198760D01*
X122396429Y-60198760D02*
X122355953Y-60279712D01*
X122355953Y-60279712D02*
X122315476Y-60320189D01*
X122315476Y-60320189D02*
X122234524Y-60360665D01*
X122234524Y-60360665D02*
X121910714Y-60360665D01*
X122760714Y-60765427D02*
X122760714Y-59915427D01*
X122760714Y-59915427D02*
X123246429Y-60765427D01*
X123246429Y-60765427D02*
X123246429Y-59915427D01*
X120230952Y-68385427D02*
X119826190Y-68385427D01*
X119826190Y-68385427D02*
X119826190Y-67535427D01*
X120514285Y-68385427D02*
X120514285Y-67535427D01*
X120919047Y-68385427D02*
X120919047Y-67535427D01*
X120919047Y-67535427D02*
X121404762Y-68385427D01*
X121404762Y-68385427D02*
X121404762Y-67535427D01*
X121809523Y-67940189D02*
X122092857Y-67940189D01*
X122214285Y-68385427D02*
X121809523Y-68385427D01*
X121809523Y-68385427D02*
X121809523Y-67535427D01*
X121809523Y-67535427D02*
X122214285Y-67535427D01*
X35107143Y-101508557D02*
X35664286Y-101508557D01*
X35664286Y-101508557D02*
X35364286Y-101851414D01*
X35364286Y-101851414D02*
X35492857Y-101851414D01*
X35492857Y-101851414D02*
X35578572Y-101894271D01*
X35578572Y-101894271D02*
X35621429Y-101937128D01*
X35621429Y-101937128D02*
X35664286Y-102022842D01*
X35664286Y-102022842D02*
X35664286Y-102237128D01*
X35664286Y-102237128D02*
X35621429Y-102322842D01*
X35621429Y-102322842D02*
X35578572Y-102365700D01*
X35578572Y-102365700D02*
X35492857Y-102408557D01*
X35492857Y-102408557D02*
X35235714Y-102408557D01*
X35235714Y-102408557D02*
X35150000Y-102365700D01*
X35150000Y-102365700D02*
X35107143Y-102322842D01*
X35921429Y-101508557D02*
X36221429Y-102408557D01*
X36221429Y-102408557D02*
X36521429Y-101508557D01*
X36735715Y-101508557D02*
X37292858Y-101508557D01*
X37292858Y-101508557D02*
X36992858Y-101851414D01*
X36992858Y-101851414D02*
X37121429Y-101851414D01*
X37121429Y-101851414D02*
X37207144Y-101894271D01*
X37207144Y-101894271D02*
X37250001Y-101937128D01*
X37250001Y-101937128D02*
X37292858Y-102022842D01*
X37292858Y-102022842D02*
X37292858Y-102237128D01*
X37292858Y-102237128D02*
X37250001Y-102322842D01*
X37250001Y-102322842D02*
X37207144Y-102365700D01*
X37207144Y-102365700D02*
X37121429Y-102408557D01*
X37121429Y-102408557D02*
X36864286Y-102408557D01*
X36864286Y-102408557D02*
X36778572Y-102365700D01*
X36778572Y-102365700D02*
X36735715Y-102322842D01*
X38364286Y-102065700D02*
X39050001Y-102065700D01*
X38707143Y-102408557D02*
X38707143Y-101722842D01*
X40592858Y-101508557D02*
X40164286Y-101508557D01*
X40164286Y-101508557D02*
X40121429Y-101937128D01*
X40121429Y-101937128D02*
X40164286Y-101894271D01*
X40164286Y-101894271D02*
X40250001Y-101851414D01*
X40250001Y-101851414D02*
X40464286Y-101851414D01*
X40464286Y-101851414D02*
X40550001Y-101894271D01*
X40550001Y-101894271D02*
X40592858Y-101937128D01*
X40592858Y-101937128D02*
X40635715Y-102022842D01*
X40635715Y-102022842D02*
X40635715Y-102237128D01*
X40635715Y-102237128D02*
X40592858Y-102322842D01*
X40592858Y-102322842D02*
X40550001Y-102365700D01*
X40550001Y-102365700D02*
X40464286Y-102408557D01*
X40464286Y-102408557D02*
X40250001Y-102408557D01*
X40250001Y-102408557D02*
X40164286Y-102365700D01*
X40164286Y-102365700D02*
X40121429Y-102322842D01*
X40892858Y-101508557D02*
X41192858Y-102408557D01*
X41192858Y-102408557D02*
X41492858Y-101508557D01*
X42478572Y-102408557D02*
X42478572Y-101508557D01*
X42907143Y-102408557D02*
X42907143Y-101508557D01*
X42907143Y-101508557D02*
X43421429Y-102408557D01*
X43421429Y-102408557D02*
X43421429Y-101508557D01*
X43850000Y-102408557D02*
X43850000Y-101508557D01*
X43850000Y-101508557D02*
X44192857Y-101508557D01*
X44192857Y-101508557D02*
X44278572Y-101551414D01*
X44278572Y-101551414D02*
X44321429Y-101594271D01*
X44321429Y-101594271D02*
X44364286Y-101679985D01*
X44364286Y-101679985D02*
X44364286Y-101808557D01*
X44364286Y-101808557D02*
X44321429Y-101894271D01*
X44321429Y-101894271D02*
X44278572Y-101937128D01*
X44278572Y-101937128D02*
X44192857Y-101979985D01*
X44192857Y-101979985D02*
X43850000Y-101979985D01*
X44750000Y-101508557D02*
X44750000Y-102237128D01*
X44750000Y-102237128D02*
X44792857Y-102322842D01*
X44792857Y-102322842D02*
X44835715Y-102365700D01*
X44835715Y-102365700D02*
X44921429Y-102408557D01*
X44921429Y-102408557D02*
X45092857Y-102408557D01*
X45092857Y-102408557D02*
X45178572Y-102365700D01*
X45178572Y-102365700D02*
X45221429Y-102322842D01*
X45221429Y-102322842D02*
X45264286Y-102237128D01*
X45264286Y-102237128D02*
X45264286Y-101508557D01*
X45564286Y-101508557D02*
X46078572Y-101508557D01*
X45821429Y-102408557D02*
X45821429Y-101508557D01*
X46335714Y-102365700D02*
X46464286Y-102408557D01*
X46464286Y-102408557D02*
X46678571Y-102408557D01*
X46678571Y-102408557D02*
X46764286Y-102365700D01*
X46764286Y-102365700D02*
X46807143Y-102322842D01*
X46807143Y-102322842D02*
X46850000Y-102237128D01*
X46850000Y-102237128D02*
X46850000Y-102151414D01*
X46850000Y-102151414D02*
X46807143Y-102065700D01*
X46807143Y-102065700D02*
X46764286Y-102022842D01*
X46764286Y-102022842D02*
X46678571Y-101979985D01*
X46678571Y-101979985D02*
X46507143Y-101937128D01*
X46507143Y-101937128D02*
X46421428Y-101894271D01*
X46421428Y-101894271D02*
X46378571Y-101851414D01*
X46378571Y-101851414D02*
X46335714Y-101765700D01*
X46335714Y-101765700D02*
X46335714Y-101679985D01*
X46335714Y-101679985D02*
X46378571Y-101594271D01*
X46378571Y-101594271D02*
X46421428Y-101551414D01*
X46421428Y-101551414D02*
X46507143Y-101508557D01*
X46507143Y-101508557D02*
X46721428Y-101508557D01*
X46721428Y-101508557D02*
X46850000Y-101551414D01*
X99649999Y-99937128D02*
X99949999Y-99937128D01*
X100078571Y-100408557D02*
X99649999Y-100408557D01*
X99649999Y-100408557D02*
X99649999Y-99508557D01*
X99649999Y-99508557D02*
X100078571Y-99508557D01*
X100378571Y-99508557D02*
X100978571Y-100408557D01*
X100978571Y-99508557D02*
X100378571Y-100408557D01*
X101192857Y-99508557D02*
X101707143Y-99508557D01*
X101450000Y-100408557D02*
X101450000Y-99508557D01*
X102007142Y-99937128D02*
X102307142Y-99937128D01*
X102435714Y-100408557D02*
X102007142Y-100408557D01*
X102007142Y-100408557D02*
X102007142Y-99508557D01*
X102007142Y-99508557D02*
X102435714Y-99508557D01*
X103335714Y-100408557D02*
X103035714Y-99979985D01*
X102821428Y-100408557D02*
X102821428Y-99508557D01*
X102821428Y-99508557D02*
X103164285Y-99508557D01*
X103164285Y-99508557D02*
X103250000Y-99551414D01*
X103250000Y-99551414D02*
X103292857Y-99594271D01*
X103292857Y-99594271D02*
X103335714Y-99679985D01*
X103335714Y-99679985D02*
X103335714Y-99808557D01*
X103335714Y-99808557D02*
X103292857Y-99894271D01*
X103292857Y-99894271D02*
X103250000Y-99937128D01*
X103250000Y-99937128D02*
X103164285Y-99979985D01*
X103164285Y-99979985D02*
X102821428Y-99979985D01*
X103721428Y-100408557D02*
X103721428Y-99508557D01*
X103721428Y-99508557D02*
X104235714Y-100408557D01*
X104235714Y-100408557D02*
X104235714Y-99508557D01*
X104621428Y-100151414D02*
X105050000Y-100151414D01*
X104535714Y-100408557D02*
X104835714Y-99508557D01*
X104835714Y-99508557D02*
X105135714Y-100408557D01*
X105864286Y-100408557D02*
X105435714Y-100408557D01*
X105435714Y-100408557D02*
X105435714Y-99508557D01*
X107149999Y-99937128D02*
X106849999Y-99937128D01*
X106849999Y-100408557D02*
X106849999Y-99508557D01*
X106849999Y-99508557D02*
X107278571Y-99508557D01*
X107621428Y-99508557D02*
X107621428Y-100237128D01*
X107621428Y-100237128D02*
X107664285Y-100322842D01*
X107664285Y-100322842D02*
X107707143Y-100365700D01*
X107707143Y-100365700D02*
X107792857Y-100408557D01*
X107792857Y-100408557D02*
X107964285Y-100408557D01*
X107964285Y-100408557D02*
X108050000Y-100365700D01*
X108050000Y-100365700D02*
X108092857Y-100322842D01*
X108092857Y-100322842D02*
X108135714Y-100237128D01*
X108135714Y-100237128D02*
X108135714Y-99508557D01*
X108521428Y-100365700D02*
X108650000Y-100408557D01*
X108650000Y-100408557D02*
X108864285Y-100408557D01*
X108864285Y-100408557D02*
X108950000Y-100365700D01*
X108950000Y-100365700D02*
X108992857Y-100322842D01*
X108992857Y-100322842D02*
X109035714Y-100237128D01*
X109035714Y-100237128D02*
X109035714Y-100151414D01*
X109035714Y-100151414D02*
X108992857Y-100065700D01*
X108992857Y-100065700D02*
X108950000Y-100022842D01*
X108950000Y-100022842D02*
X108864285Y-99979985D01*
X108864285Y-99979985D02*
X108692857Y-99937128D01*
X108692857Y-99937128D02*
X108607142Y-99894271D01*
X108607142Y-99894271D02*
X108564285Y-99851414D01*
X108564285Y-99851414D02*
X108521428Y-99765700D01*
X108521428Y-99765700D02*
X108521428Y-99679985D01*
X108521428Y-99679985D02*
X108564285Y-99594271D01*
X108564285Y-99594271D02*
X108607142Y-99551414D01*
X108607142Y-99551414D02*
X108692857Y-99508557D01*
X108692857Y-99508557D02*
X108907142Y-99508557D01*
X108907142Y-99508557D02*
X109035714Y-99551414D01*
X109421428Y-99937128D02*
X109721428Y-99937128D01*
X109850000Y-100408557D02*
X109421428Y-100408557D01*
X109421428Y-100408557D02*
X109421428Y-99508557D01*
X109421428Y-99508557D02*
X109850000Y-99508557D01*
X111607143Y-99808557D02*
X110921428Y-100065700D01*
X110921428Y-100065700D02*
X111607143Y-100322842D01*
X112035714Y-99937128D02*
X112721429Y-99937128D01*
X112721429Y-100194271D02*
X112035714Y-100194271D01*
X113621429Y-100408557D02*
X113107143Y-100408557D01*
X113364286Y-100408557D02*
X113364286Y-99508557D01*
X113364286Y-99508557D02*
X113278572Y-99637128D01*
X113278572Y-99637128D02*
X113192857Y-99722842D01*
X113192857Y-99722842D02*
X113107143Y-99765700D01*
X113964286Y-100151414D02*
X114392858Y-100151414D01*
X113878572Y-100408557D02*
X114178572Y-99508557D01*
X114178572Y-99508557D02*
X114478572Y-100408557D01*
X37452380Y-28359580D02*
X37404761Y-28407200D01*
X37404761Y-28407200D02*
X37261904Y-28454819D01*
X37261904Y-28454819D02*
X37166666Y-28454819D01*
X37166666Y-28454819D02*
X37023809Y-28407200D01*
X37023809Y-28407200D02*
X36928571Y-28311961D01*
X36928571Y-28311961D02*
X36880952Y-28216723D01*
X36880952Y-28216723D02*
X36833333Y-28026247D01*
X36833333Y-28026247D02*
X36833333Y-27883390D01*
X36833333Y-27883390D02*
X36880952Y-27692914D01*
X36880952Y-27692914D02*
X36928571Y-27597676D01*
X36928571Y-27597676D02*
X37023809Y-27502438D01*
X37023809Y-27502438D02*
X37166666Y-27454819D01*
X37166666Y-27454819D02*
X37261904Y-27454819D01*
X37261904Y-27454819D02*
X37404761Y-27502438D01*
X37404761Y-27502438D02*
X37452380Y-27550057D01*
X38071428Y-27454819D02*
X38261904Y-27454819D01*
X38261904Y-27454819D02*
X38357142Y-27502438D01*
X38357142Y-27502438D02*
X38452380Y-27597676D01*
X38452380Y-27597676D02*
X38499999Y-27788152D01*
X38499999Y-27788152D02*
X38499999Y-28121485D01*
X38499999Y-28121485D02*
X38452380Y-28311961D01*
X38452380Y-28311961D02*
X38357142Y-28407200D01*
X38357142Y-28407200D02*
X38261904Y-28454819D01*
X38261904Y-28454819D02*
X38071428Y-28454819D01*
X38071428Y-28454819D02*
X37976190Y-28407200D01*
X37976190Y-28407200D02*
X37880952Y-28311961D01*
X37880952Y-28311961D02*
X37833333Y-28121485D01*
X37833333Y-28121485D02*
X37833333Y-27788152D01*
X37833333Y-27788152D02*
X37880952Y-27597676D01*
X37880952Y-27597676D02*
X37976190Y-27502438D01*
X37976190Y-27502438D02*
X38071428Y-27454819D01*
X38928571Y-28454819D02*
X38928571Y-27454819D01*
X38928571Y-27454819D02*
X39499999Y-28454819D01*
X39499999Y-28454819D02*
X39499999Y-27454819D01*
X39833333Y-27454819D02*
X40404761Y-27454819D01*
X40119047Y-28454819D02*
X40119047Y-27454819D01*
X41309523Y-28454819D02*
X40976190Y-27978628D01*
X40738095Y-28454819D02*
X40738095Y-27454819D01*
X40738095Y-27454819D02*
X41119047Y-27454819D01*
X41119047Y-27454819D02*
X41214285Y-27502438D01*
X41214285Y-27502438D02*
X41261904Y-27550057D01*
X41261904Y-27550057D02*
X41309523Y-27645295D01*
X41309523Y-27645295D02*
X41309523Y-27788152D01*
X41309523Y-27788152D02*
X41261904Y-27883390D01*
X41261904Y-27883390D02*
X41214285Y-27931009D01*
X41214285Y-27931009D02*
X41119047Y-27978628D01*
X41119047Y-27978628D02*
X40738095Y-27978628D01*
X41928571Y-27454819D02*
X42119047Y-27454819D01*
X42119047Y-27454819D02*
X42214285Y-27502438D01*
X42214285Y-27502438D02*
X42309523Y-27597676D01*
X42309523Y-27597676D02*
X42357142Y-27788152D01*
X42357142Y-27788152D02*
X42357142Y-28121485D01*
X42357142Y-28121485D02*
X42309523Y-28311961D01*
X42309523Y-28311961D02*
X42214285Y-28407200D01*
X42214285Y-28407200D02*
X42119047Y-28454819D01*
X42119047Y-28454819D02*
X41928571Y-28454819D01*
X41928571Y-28454819D02*
X41833333Y-28407200D01*
X41833333Y-28407200D02*
X41738095Y-28311961D01*
X41738095Y-28311961D02*
X41690476Y-28121485D01*
X41690476Y-28121485D02*
X41690476Y-27788152D01*
X41690476Y-27788152D02*
X41738095Y-27597676D01*
X41738095Y-27597676D02*
X41833333Y-27502438D01*
X41833333Y-27502438D02*
X41928571Y-27454819D01*
X43261904Y-28454819D02*
X42785714Y-28454819D01*
X42785714Y-28454819D02*
X42785714Y-27454819D01*
X58999999Y-106931009D02*
X59142856Y-106978628D01*
X59142856Y-106978628D02*
X59190475Y-107026247D01*
X59190475Y-107026247D02*
X59238094Y-107121485D01*
X59238094Y-107121485D02*
X59238094Y-107264342D01*
X59238094Y-107264342D02*
X59190475Y-107359580D01*
X59190475Y-107359580D02*
X59142856Y-107407200D01*
X59142856Y-107407200D02*
X59047618Y-107454819D01*
X59047618Y-107454819D02*
X58666666Y-107454819D01*
X58666666Y-107454819D02*
X58666666Y-106454819D01*
X58666666Y-106454819D02*
X58999999Y-106454819D01*
X58999999Y-106454819D02*
X59095237Y-106502438D01*
X59095237Y-106502438D02*
X59142856Y-106550057D01*
X59142856Y-106550057D02*
X59190475Y-106645295D01*
X59190475Y-106645295D02*
X59190475Y-106740533D01*
X59190475Y-106740533D02*
X59142856Y-106835771D01*
X59142856Y-106835771D02*
X59095237Y-106883390D01*
X59095237Y-106883390D02*
X58999999Y-106931009D01*
X58999999Y-106931009D02*
X58666666Y-106931009D01*
X59666666Y-106931009D02*
X59999999Y-106931009D01*
X60142856Y-107454819D02*
X59666666Y-107454819D01*
X59666666Y-107454819D02*
X59666666Y-106454819D01*
X59666666Y-106454819D02*
X60142856Y-106454819D01*
X60571428Y-107454819D02*
X60571428Y-106454819D01*
X60571428Y-106454819D02*
X61142856Y-107454819D01*
X61142856Y-107454819D02*
X61142856Y-106454819D01*
X62190475Y-107359580D02*
X62142856Y-107407200D01*
X62142856Y-107407200D02*
X61999999Y-107454819D01*
X61999999Y-107454819D02*
X61904761Y-107454819D01*
X61904761Y-107454819D02*
X61761904Y-107407200D01*
X61761904Y-107407200D02*
X61666666Y-107311961D01*
X61666666Y-107311961D02*
X61619047Y-107216723D01*
X61619047Y-107216723D02*
X61571428Y-107026247D01*
X61571428Y-107026247D02*
X61571428Y-106883390D01*
X61571428Y-106883390D02*
X61619047Y-106692914D01*
X61619047Y-106692914D02*
X61666666Y-106597676D01*
X61666666Y-106597676D02*
X61761904Y-106502438D01*
X61761904Y-106502438D02*
X61904761Y-106454819D01*
X61904761Y-106454819D02*
X61999999Y-106454819D01*
X61999999Y-106454819D02*
X62142856Y-106502438D01*
X62142856Y-106502438D02*
X62190475Y-106550057D01*
X62619047Y-107454819D02*
X62619047Y-106454819D01*
X62619047Y-106931009D02*
X63190475Y-106931009D01*
X63190475Y-107454819D02*
X63190475Y-106454819D01*
X64428571Y-107454819D02*
X64428571Y-106454819D01*
X64428571Y-106454819D02*
X64809523Y-106454819D01*
X64809523Y-106454819D02*
X64904761Y-106502438D01*
X64904761Y-106502438D02*
X64952380Y-106550057D01*
X64952380Y-106550057D02*
X64999999Y-106645295D01*
X64999999Y-106645295D02*
X64999999Y-106788152D01*
X64999999Y-106788152D02*
X64952380Y-106883390D01*
X64952380Y-106883390D02*
X64904761Y-106931009D01*
X64904761Y-106931009D02*
X64809523Y-106978628D01*
X64809523Y-106978628D02*
X64428571Y-106978628D01*
X65999999Y-107454819D02*
X65666666Y-106978628D01*
X65428571Y-107454819D02*
X65428571Y-106454819D01*
X65428571Y-106454819D02*
X65809523Y-106454819D01*
X65809523Y-106454819D02*
X65904761Y-106502438D01*
X65904761Y-106502438D02*
X65952380Y-106550057D01*
X65952380Y-106550057D02*
X65999999Y-106645295D01*
X65999999Y-106645295D02*
X65999999Y-106788152D01*
X65999999Y-106788152D02*
X65952380Y-106883390D01*
X65952380Y-106883390D02*
X65904761Y-106931009D01*
X65904761Y-106931009D02*
X65809523Y-106978628D01*
X65809523Y-106978628D02*
X65428571Y-106978628D01*
X66619047Y-106454819D02*
X66809523Y-106454819D01*
X66809523Y-106454819D02*
X66904761Y-106502438D01*
X66904761Y-106502438D02*
X66999999Y-106597676D01*
X66999999Y-106597676D02*
X67047618Y-106788152D01*
X67047618Y-106788152D02*
X67047618Y-107121485D01*
X67047618Y-107121485D02*
X66999999Y-107311961D01*
X66999999Y-107311961D02*
X66904761Y-107407200D01*
X66904761Y-107407200D02*
X66809523Y-107454819D01*
X66809523Y-107454819D02*
X66619047Y-107454819D01*
X66619047Y-107454819D02*
X66523809Y-107407200D01*
X66523809Y-107407200D02*
X66428571Y-107311961D01*
X66428571Y-107311961D02*
X66380952Y-107121485D01*
X66380952Y-107121485D02*
X66380952Y-106788152D01*
X66380952Y-106788152D02*
X66428571Y-106597676D01*
X66428571Y-106597676D02*
X66523809Y-106502438D01*
X66523809Y-106502438D02*
X66619047Y-106454819D01*
X67333333Y-106454819D02*
X67904761Y-106454819D01*
X67619047Y-107454819D02*
X67619047Y-106454819D01*
X68428571Y-106454819D02*
X68619047Y-106454819D01*
X68619047Y-106454819D02*
X68714285Y-106502438D01*
X68714285Y-106502438D02*
X68809523Y-106597676D01*
X68809523Y-106597676D02*
X68857142Y-106788152D01*
X68857142Y-106788152D02*
X68857142Y-107121485D01*
X68857142Y-107121485D02*
X68809523Y-107311961D01*
X68809523Y-107311961D02*
X68714285Y-107407200D01*
X68714285Y-107407200D02*
X68619047Y-107454819D01*
X68619047Y-107454819D02*
X68428571Y-107454819D01*
X68428571Y-107454819D02*
X68333333Y-107407200D01*
X68333333Y-107407200D02*
X68238095Y-107311961D01*
X68238095Y-107311961D02*
X68190476Y-107121485D01*
X68190476Y-107121485D02*
X68190476Y-106788152D01*
X68190476Y-106788152D02*
X68238095Y-106597676D01*
X68238095Y-106597676D02*
X68333333Y-106502438D01*
X68333333Y-106502438D02*
X68428571Y-106454819D01*
X69142857Y-106454819D02*
X69714285Y-106454819D01*
X69428571Y-107454819D02*
X69428571Y-106454819D01*
X70238095Y-106978628D02*
X70238095Y-107454819D01*
X69904762Y-106454819D02*
X70238095Y-106978628D01*
X70238095Y-106978628D02*
X70571428Y-106454819D01*
X70904762Y-107454819D02*
X70904762Y-106454819D01*
X70904762Y-106454819D02*
X71285714Y-106454819D01*
X71285714Y-106454819D02*
X71380952Y-106502438D01*
X71380952Y-106502438D02*
X71428571Y-106550057D01*
X71428571Y-106550057D02*
X71476190Y-106645295D01*
X71476190Y-106645295D02*
X71476190Y-106788152D01*
X71476190Y-106788152D02*
X71428571Y-106883390D01*
X71428571Y-106883390D02*
X71380952Y-106931009D01*
X71380952Y-106931009D02*
X71285714Y-106978628D01*
X71285714Y-106978628D02*
X70904762Y-106978628D01*
X71904762Y-106931009D02*
X72238095Y-106931009D01*
X72380952Y-107454819D02*
X71904762Y-107454819D01*
X71904762Y-107454819D02*
X71904762Y-106454819D01*
X71904762Y-106454819D02*
X72380952Y-106454819D01*
X73571429Y-107073866D02*
X74333334Y-107073866D01*
X75571429Y-107454819D02*
X75571429Y-106454819D01*
X75571429Y-106454819D02*
X76142857Y-107454819D01*
X76142857Y-107454819D02*
X76142857Y-106454819D01*
X76809524Y-106454819D02*
X77000000Y-106454819D01*
X77000000Y-106454819D02*
X77095238Y-106502438D01*
X77095238Y-106502438D02*
X77190476Y-106597676D01*
X77190476Y-106597676D02*
X77238095Y-106788152D01*
X77238095Y-106788152D02*
X77238095Y-107121485D01*
X77238095Y-107121485D02*
X77190476Y-107311961D01*
X77190476Y-107311961D02*
X77095238Y-107407200D01*
X77095238Y-107407200D02*
X77000000Y-107454819D01*
X77000000Y-107454819D02*
X76809524Y-107454819D01*
X76809524Y-107454819D02*
X76714286Y-107407200D01*
X76714286Y-107407200D02*
X76619048Y-107311961D01*
X76619048Y-107311961D02*
X76571429Y-107121485D01*
X76571429Y-107121485D02*
X76571429Y-106788152D01*
X76571429Y-106788152D02*
X76619048Y-106597676D01*
X76619048Y-106597676D02*
X76714286Y-106502438D01*
X76714286Y-106502438D02*
X76809524Y-106454819D01*
X77523810Y-106454819D02*
X78095238Y-106454819D01*
X77809524Y-107454819D02*
X77809524Y-106454819D01*
X79190477Y-107454819D02*
X79190477Y-106454819D01*
X79190477Y-106454819D02*
X79523810Y-107169104D01*
X79523810Y-107169104D02*
X79857143Y-106454819D01*
X79857143Y-106454819D02*
X79857143Y-107454819D01*
X80285715Y-107169104D02*
X80761905Y-107169104D01*
X80190477Y-107454819D02*
X80523810Y-106454819D01*
X80523810Y-106454819D02*
X80857143Y-107454819D01*
X81190477Y-107454819D02*
X81190477Y-106454819D01*
X81666667Y-107454819D02*
X81666667Y-106454819D01*
X81666667Y-106454819D02*
X82238095Y-107454819D01*
X82238095Y-107454819D02*
X82238095Y-106454819D01*
X82666667Y-107407200D02*
X82809524Y-107454819D01*
X82809524Y-107454819D02*
X83047619Y-107454819D01*
X83047619Y-107454819D02*
X83142857Y-107407200D01*
X83142857Y-107407200D02*
X83190476Y-107359580D01*
X83190476Y-107359580D02*
X83238095Y-107264342D01*
X83238095Y-107264342D02*
X83238095Y-107169104D01*
X83238095Y-107169104D02*
X83190476Y-107073866D01*
X83190476Y-107073866D02*
X83142857Y-107026247D01*
X83142857Y-107026247D02*
X83047619Y-106978628D01*
X83047619Y-106978628D02*
X82857143Y-106931009D01*
X82857143Y-106931009D02*
X82761905Y-106883390D01*
X82761905Y-106883390D02*
X82714286Y-106835771D01*
X82714286Y-106835771D02*
X82666667Y-106740533D01*
X82666667Y-106740533D02*
X82666667Y-106645295D01*
X82666667Y-106645295D02*
X82714286Y-106550057D01*
X82714286Y-106550057D02*
X82761905Y-106502438D01*
X82761905Y-106502438D02*
X82857143Y-106454819D01*
X82857143Y-106454819D02*
X83095238Y-106454819D01*
X83095238Y-106454819D02*
X83238095Y-106502438D01*
X85000000Y-107359580D02*
X84952381Y-107407200D01*
X84952381Y-107407200D02*
X84809524Y-107454819D01*
X84809524Y-107454819D02*
X84714286Y-107454819D01*
X84714286Y-107454819D02*
X84571429Y-107407200D01*
X84571429Y-107407200D02*
X84476191Y-107311961D01*
X84476191Y-107311961D02*
X84428572Y-107216723D01*
X84428572Y-107216723D02*
X84380953Y-107026247D01*
X84380953Y-107026247D02*
X84380953Y-106883390D01*
X84380953Y-106883390D02*
X84428572Y-106692914D01*
X84428572Y-106692914D02*
X84476191Y-106597676D01*
X84476191Y-106597676D02*
X84571429Y-106502438D01*
X84571429Y-106502438D02*
X84714286Y-106454819D01*
X84714286Y-106454819D02*
X84809524Y-106454819D01*
X84809524Y-106454819D02*
X84952381Y-106502438D01*
X84952381Y-106502438D02*
X85000000Y-106550057D01*
X85428572Y-106931009D02*
X85761905Y-106931009D01*
X85904762Y-107454819D02*
X85428572Y-107454819D01*
X85428572Y-107454819D02*
X85428572Y-106454819D01*
X85428572Y-106454819D02*
X85904762Y-106454819D01*
X86904762Y-107454819D02*
X86571429Y-106978628D01*
X86333334Y-107454819D02*
X86333334Y-106454819D01*
X86333334Y-106454819D02*
X86714286Y-106454819D01*
X86714286Y-106454819D02*
X86809524Y-106502438D01*
X86809524Y-106502438D02*
X86857143Y-106550057D01*
X86857143Y-106550057D02*
X86904762Y-106645295D01*
X86904762Y-106645295D02*
X86904762Y-106788152D01*
X86904762Y-106788152D02*
X86857143Y-106883390D01*
X86857143Y-106883390D02*
X86809524Y-106931009D01*
X86809524Y-106931009D02*
X86714286Y-106978628D01*
X86714286Y-106978628D02*
X86333334Y-106978628D01*
X87190477Y-106454819D02*
X87761905Y-106454819D01*
X87476191Y-107454819D02*
X87476191Y-106454819D01*
X88095239Y-107454819D02*
X88095239Y-106454819D01*
X88904762Y-106931009D02*
X88571429Y-106931009D01*
X88571429Y-107454819D02*
X88571429Y-106454819D01*
X88571429Y-106454819D02*
X89047619Y-106454819D01*
X89428572Y-107454819D02*
X89428572Y-106454819D01*
X89904762Y-106931009D02*
X90238095Y-106931009D01*
X90380952Y-107454819D02*
X89904762Y-107454819D01*
X89904762Y-107454819D02*
X89904762Y-106454819D01*
X89904762Y-106454819D02*
X90380952Y-106454819D01*
X90809524Y-107454819D02*
X90809524Y-106454819D01*
X90809524Y-106454819D02*
X91047619Y-106454819D01*
X91047619Y-106454819D02*
X91190476Y-106502438D01*
X91190476Y-106502438D02*
X91285714Y-106597676D01*
X91285714Y-106597676D02*
X91333333Y-106692914D01*
X91333333Y-106692914D02*
X91380952Y-106883390D01*
X91380952Y-106883390D02*
X91380952Y-107026247D01*
X91380952Y-107026247D02*
X91333333Y-107216723D01*
X91333333Y-107216723D02*
X91285714Y-107311961D01*
X91285714Y-107311961D02*
X91190476Y-107407200D01*
X91190476Y-107407200D02*
X91047619Y-107454819D01*
X91047619Y-107454819D02*
X90809524Y-107454819D01*
X76261902Y-103454819D02*
X75928569Y-102978628D01*
X75690474Y-103454819D02*
X75690474Y-102454819D01*
X75690474Y-102454819D02*
X76071426Y-102454819D01*
X76071426Y-102454819D02*
X76166664Y-102502438D01*
X76166664Y-102502438D02*
X76214283Y-102550057D01*
X76214283Y-102550057D02*
X76261902Y-102645295D01*
X76261902Y-102645295D02*
X76261902Y-102788152D01*
X76261902Y-102788152D02*
X76214283Y-102883390D01*
X76214283Y-102883390D02*
X76166664Y-102931009D01*
X76166664Y-102931009D02*
X76071426Y-102978628D01*
X76071426Y-102978628D02*
X75690474Y-102978628D01*
X76690474Y-102931009D02*
X77023807Y-102931009D01*
X77166664Y-103454819D02*
X76690474Y-103454819D01*
X76690474Y-103454819D02*
X76690474Y-102454819D01*
X76690474Y-102454819D02*
X77166664Y-102454819D01*
X77452379Y-102454819D02*
X77785712Y-103454819D01*
X77785712Y-103454819D02*
X78119045Y-102454819D01*
X79547617Y-102931009D02*
X79690474Y-102978628D01*
X79690474Y-102978628D02*
X79738093Y-103026247D01*
X79738093Y-103026247D02*
X79785712Y-103121485D01*
X79785712Y-103121485D02*
X79785712Y-103264342D01*
X79785712Y-103264342D02*
X79738093Y-103359580D01*
X79738093Y-103359580D02*
X79690474Y-103407200D01*
X79690474Y-103407200D02*
X79595236Y-103454819D01*
X79595236Y-103454819D02*
X79214284Y-103454819D01*
X79214284Y-103454819D02*
X79214284Y-102454819D01*
X79214284Y-102454819D02*
X79547617Y-102454819D01*
X79547617Y-102454819D02*
X79642855Y-102502438D01*
X79642855Y-102502438D02*
X79690474Y-102550057D01*
X79690474Y-102550057D02*
X79738093Y-102645295D01*
X79738093Y-102645295D02*
X79738093Y-102740533D01*
X79738093Y-102740533D02*
X79690474Y-102835771D01*
X79690474Y-102835771D02*
X79642855Y-102883390D01*
X79642855Y-102883390D02*
X79547617Y-102931009D01*
X79547617Y-102931009D02*
X79214284Y-102931009D01*
X81976189Y-103788152D02*
X81976189Y-102359580D01*
X84738094Y-103454819D02*
X84166666Y-103454819D01*
X84452380Y-103454819D02*
X84452380Y-102454819D01*
X84452380Y-102454819D02*
X84357142Y-102597676D01*
X84357142Y-102597676D02*
X84261904Y-102692914D01*
X84261904Y-102692914D02*
X84166666Y-102740533D01*
X85119047Y-102550057D02*
X85166666Y-102502438D01*
X85166666Y-102502438D02*
X85261904Y-102454819D01*
X85261904Y-102454819D02*
X85499999Y-102454819D01*
X85499999Y-102454819D02*
X85595237Y-102502438D01*
X85595237Y-102502438D02*
X85642856Y-102550057D01*
X85642856Y-102550057D02*
X85690475Y-102645295D01*
X85690475Y-102645295D02*
X85690475Y-102740533D01*
X85690475Y-102740533D02*
X85642856Y-102883390D01*
X85642856Y-102883390D02*
X85071428Y-103454819D01*
X85071428Y-103454819D02*
X85690475Y-103454819D01*
X86309523Y-102454819D02*
X86404761Y-102454819D01*
X86404761Y-102454819D02*
X86499999Y-102502438D01*
X86499999Y-102502438D02*
X86547618Y-102550057D01*
X86547618Y-102550057D02*
X86595237Y-102645295D01*
X86595237Y-102645295D02*
X86642856Y-102835771D01*
X86642856Y-102835771D02*
X86642856Y-103073866D01*
X86642856Y-103073866D02*
X86595237Y-103264342D01*
X86595237Y-103264342D02*
X86547618Y-103359580D01*
X86547618Y-103359580D02*
X86499999Y-103407200D01*
X86499999Y-103407200D02*
X86404761Y-103454819D01*
X86404761Y-103454819D02*
X86309523Y-103454819D01*
X86309523Y-103454819D02*
X86214285Y-103407200D01*
X86214285Y-103407200D02*
X86166666Y-103359580D01*
X86166666Y-103359580D02*
X86119047Y-103264342D01*
X86119047Y-103264342D02*
X86071428Y-103073866D01*
X86071428Y-103073866D02*
X86071428Y-102835771D01*
X86071428Y-102835771D02*
X86119047Y-102645295D01*
X86119047Y-102645295D02*
X86166666Y-102550057D01*
X86166666Y-102550057D02*
X86214285Y-102502438D01*
X86214285Y-102502438D02*
X86309523Y-102454819D01*
X86928571Y-102454819D02*
X87261904Y-103454819D01*
X87261904Y-103454819D02*
X87595237Y-102454819D01*
X88357142Y-103454819D02*
X88357142Y-102931009D01*
X88357142Y-102931009D02*
X88309523Y-102835771D01*
X88309523Y-102835771D02*
X88214285Y-102788152D01*
X88214285Y-102788152D02*
X88023809Y-102788152D01*
X88023809Y-102788152D02*
X87928571Y-102835771D01*
X88357142Y-103407200D02*
X88261904Y-103454819D01*
X88261904Y-103454819D02*
X88023809Y-103454819D01*
X88023809Y-103454819D02*
X87928571Y-103407200D01*
X87928571Y-103407200D02*
X87880952Y-103311961D01*
X87880952Y-103311961D02*
X87880952Y-103216723D01*
X87880952Y-103216723D02*
X87928571Y-103121485D01*
X87928571Y-103121485D02*
X88023809Y-103073866D01*
X88023809Y-103073866D02*
X88261904Y-103073866D01*
X88261904Y-103073866D02*
X88357142Y-103026247D01*
X89261904Y-103407200D02*
X89166666Y-103454819D01*
X89166666Y-103454819D02*
X88976190Y-103454819D01*
X88976190Y-103454819D02*
X88880952Y-103407200D01*
X88880952Y-103407200D02*
X88833333Y-103359580D01*
X88833333Y-103359580D02*
X88785714Y-103264342D01*
X88785714Y-103264342D02*
X88785714Y-102978628D01*
X88785714Y-102978628D02*
X88833333Y-102883390D01*
X88833333Y-102883390D02*
X88880952Y-102835771D01*
X88880952Y-102835771D02*
X88976190Y-102788152D01*
X88976190Y-102788152D02*
X89166666Y-102788152D01*
X89166666Y-102788152D02*
X89261904Y-102835771D01*
X91166666Y-102407200D02*
X90309524Y-103692914D01*
X92785714Y-103454819D02*
X92214286Y-103454819D01*
X92500000Y-103454819D02*
X92500000Y-102454819D01*
X92500000Y-102454819D02*
X92404762Y-102597676D01*
X92404762Y-102597676D02*
X92309524Y-102692914D01*
X92309524Y-102692914D02*
X92214286Y-102740533D01*
X93119048Y-102454819D02*
X93785714Y-102454819D01*
X93785714Y-102454819D02*
X93357143Y-103454819D01*
X94357143Y-102454819D02*
X94452381Y-102454819D01*
X94452381Y-102454819D02*
X94547619Y-102502438D01*
X94547619Y-102502438D02*
X94595238Y-102550057D01*
X94595238Y-102550057D02*
X94642857Y-102645295D01*
X94642857Y-102645295D02*
X94690476Y-102835771D01*
X94690476Y-102835771D02*
X94690476Y-103073866D01*
X94690476Y-103073866D02*
X94642857Y-103264342D01*
X94642857Y-103264342D02*
X94595238Y-103359580D01*
X94595238Y-103359580D02*
X94547619Y-103407200D01*
X94547619Y-103407200D02*
X94452381Y-103454819D01*
X94452381Y-103454819D02*
X94357143Y-103454819D01*
X94357143Y-103454819D02*
X94261905Y-103407200D01*
X94261905Y-103407200D02*
X94214286Y-103359580D01*
X94214286Y-103359580D02*
X94166667Y-103264342D01*
X94166667Y-103264342D02*
X94119048Y-103073866D01*
X94119048Y-103073866D02*
X94119048Y-102835771D01*
X94119048Y-102835771D02*
X94166667Y-102645295D01*
X94166667Y-102645295D02*
X94214286Y-102550057D01*
X94214286Y-102550057D02*
X94261905Y-102502438D01*
X94261905Y-102502438D02*
X94357143Y-102454819D01*
X94976191Y-102454819D02*
X95309524Y-103454819D01*
X95309524Y-103454819D02*
X95642857Y-102454819D01*
X96404762Y-103454819D02*
X96404762Y-102454819D01*
X96404762Y-103407200D02*
X96309524Y-103454819D01*
X96309524Y-103454819D02*
X96119048Y-103454819D01*
X96119048Y-103454819D02*
X96023810Y-103407200D01*
X96023810Y-103407200D02*
X95976191Y-103359580D01*
X95976191Y-103359580D02*
X95928572Y-103264342D01*
X95928572Y-103264342D02*
X95928572Y-102978628D01*
X95928572Y-102978628D02*
X95976191Y-102883390D01*
X95976191Y-102883390D02*
X96023810Y-102835771D01*
X96023810Y-102835771D02*
X96119048Y-102788152D01*
X96119048Y-102788152D02*
X96309524Y-102788152D01*
X96309524Y-102788152D02*
X96404762Y-102835771D01*
X97309524Y-103407200D02*
X97214286Y-103454819D01*
X97214286Y-103454819D02*
X97023810Y-103454819D01*
X97023810Y-103454819D02*
X96928572Y-103407200D01*
X96928572Y-103407200D02*
X96880953Y-103359580D01*
X96880953Y-103359580D02*
X96833334Y-103264342D01*
X96833334Y-103264342D02*
X96833334Y-102978628D01*
X96833334Y-102978628D02*
X96880953Y-102883390D01*
X96880953Y-102883390D02*
X96928572Y-102835771D01*
X96928572Y-102835771D02*
X97023810Y-102788152D01*
X97023810Y-102788152D02*
X97214286Y-102788152D01*
X97214286Y-102788152D02*
X97309524Y-102835771D01*
X99500001Y-103788152D02*
X99500001Y-102359580D01*
X102500002Y-102788152D02*
X101738097Y-103073866D01*
X101738097Y-103073866D02*
X102500002Y-103359580D01*
X103500001Y-103454819D02*
X102928573Y-103454819D01*
X103214287Y-103454819D02*
X103214287Y-102454819D01*
X103214287Y-102454819D02*
X103119049Y-102597676D01*
X103119049Y-102597676D02*
X103023811Y-102692914D01*
X103023811Y-102692914D02*
X102928573Y-102740533D01*
X103880954Y-103169104D02*
X104357144Y-103169104D01*
X103785716Y-103454819D02*
X104119049Y-102454819D01*
X104119049Y-102454819D02*
X104452382Y-103454819D01*
X110214286Y-43407200D02*
X110357143Y-43454819D01*
X110357143Y-43454819D02*
X110595238Y-43454819D01*
X110595238Y-43454819D02*
X110690476Y-43407200D01*
X110690476Y-43407200D02*
X110738095Y-43359580D01*
X110738095Y-43359580D02*
X110785714Y-43264342D01*
X110785714Y-43264342D02*
X110785714Y-43169104D01*
X110785714Y-43169104D02*
X110738095Y-43073866D01*
X110738095Y-43073866D02*
X110690476Y-43026247D01*
X110690476Y-43026247D02*
X110595238Y-42978628D01*
X110595238Y-42978628D02*
X110404762Y-42931009D01*
X110404762Y-42931009D02*
X110309524Y-42883390D01*
X110309524Y-42883390D02*
X110261905Y-42835771D01*
X110261905Y-42835771D02*
X110214286Y-42740533D01*
X110214286Y-42740533D02*
X110214286Y-42645295D01*
X110214286Y-42645295D02*
X110261905Y-42550057D01*
X110261905Y-42550057D02*
X110309524Y-42502438D01*
X110309524Y-42502438D02*
X110404762Y-42454819D01*
X110404762Y-42454819D02*
X110642857Y-42454819D01*
X110642857Y-42454819D02*
X110785714Y-42502438D01*
X111404762Y-42454819D02*
X111595238Y-42454819D01*
X111595238Y-42454819D02*
X111690476Y-42502438D01*
X111690476Y-42502438D02*
X111785714Y-42597676D01*
X111785714Y-42597676D02*
X111833333Y-42788152D01*
X111833333Y-42788152D02*
X111833333Y-43121485D01*
X111833333Y-43121485D02*
X111785714Y-43311961D01*
X111785714Y-43311961D02*
X111690476Y-43407200D01*
X111690476Y-43407200D02*
X111595238Y-43454819D01*
X111595238Y-43454819D02*
X111404762Y-43454819D01*
X111404762Y-43454819D02*
X111309524Y-43407200D01*
X111309524Y-43407200D02*
X111214286Y-43311961D01*
X111214286Y-43311961D02*
X111166667Y-43121485D01*
X111166667Y-43121485D02*
X111166667Y-42788152D01*
X111166667Y-42788152D02*
X111214286Y-42597676D01*
X111214286Y-42597676D02*
X111309524Y-42502438D01*
X111309524Y-42502438D02*
X111404762Y-42454819D01*
X112261905Y-42454819D02*
X112261905Y-43264342D01*
X112261905Y-43264342D02*
X112309524Y-43359580D01*
X112309524Y-43359580D02*
X112357143Y-43407200D01*
X112357143Y-43407200D02*
X112452381Y-43454819D01*
X112452381Y-43454819D02*
X112642857Y-43454819D01*
X112642857Y-43454819D02*
X112738095Y-43407200D01*
X112738095Y-43407200D02*
X112785714Y-43359580D01*
X112785714Y-43359580D02*
X112833333Y-43264342D01*
X112833333Y-43264342D02*
X112833333Y-42454819D01*
X113880952Y-43454819D02*
X113547619Y-42978628D01*
X113309524Y-43454819D02*
X113309524Y-42454819D01*
X113309524Y-42454819D02*
X113690476Y-42454819D01*
X113690476Y-42454819D02*
X113785714Y-42502438D01*
X113785714Y-42502438D02*
X113833333Y-42550057D01*
X113833333Y-42550057D02*
X113880952Y-42645295D01*
X113880952Y-42645295D02*
X113880952Y-42788152D01*
X113880952Y-42788152D02*
X113833333Y-42883390D01*
X113833333Y-42883390D02*
X113785714Y-42931009D01*
X113785714Y-42931009D02*
X113690476Y-42978628D01*
X113690476Y-42978628D02*
X113309524Y-42978628D01*
X114880952Y-43359580D02*
X114833333Y-43407200D01*
X114833333Y-43407200D02*
X114690476Y-43454819D01*
X114690476Y-43454819D02*
X114595238Y-43454819D01*
X114595238Y-43454819D02*
X114452381Y-43407200D01*
X114452381Y-43407200D02*
X114357143Y-43311961D01*
X114357143Y-43311961D02*
X114309524Y-43216723D01*
X114309524Y-43216723D02*
X114261905Y-43026247D01*
X114261905Y-43026247D02*
X114261905Y-42883390D01*
X114261905Y-42883390D02*
X114309524Y-42692914D01*
X114309524Y-42692914D02*
X114357143Y-42597676D01*
X114357143Y-42597676D02*
X114452381Y-42502438D01*
X114452381Y-42502438D02*
X114595238Y-42454819D01*
X114595238Y-42454819D02*
X114690476Y-42454819D01*
X114690476Y-42454819D02*
X114833333Y-42502438D01*
X114833333Y-42502438D02*
X114880952Y-42550057D01*
X115309524Y-42931009D02*
X115642857Y-42931009D01*
X115785714Y-43454819D02*
X115309524Y-43454819D01*
X115309524Y-43454819D02*
X115309524Y-42454819D01*
X115309524Y-42454819D02*
X115785714Y-42454819D01*
X111857142Y-75454819D02*
X111380952Y-75454819D01*
X111380952Y-75454819D02*
X111380952Y-74454819D01*
X112380952Y-74454819D02*
X112571428Y-74454819D01*
X112571428Y-74454819D02*
X112666666Y-74502438D01*
X112666666Y-74502438D02*
X112761904Y-74597676D01*
X112761904Y-74597676D02*
X112809523Y-74788152D01*
X112809523Y-74788152D02*
X112809523Y-75121485D01*
X112809523Y-75121485D02*
X112761904Y-75311961D01*
X112761904Y-75311961D02*
X112666666Y-75407200D01*
X112666666Y-75407200D02*
X112571428Y-75454819D01*
X112571428Y-75454819D02*
X112380952Y-75454819D01*
X112380952Y-75454819D02*
X112285714Y-75407200D01*
X112285714Y-75407200D02*
X112190476Y-75311961D01*
X112190476Y-75311961D02*
X112142857Y-75121485D01*
X112142857Y-75121485D02*
X112142857Y-74788152D01*
X112142857Y-74788152D02*
X112190476Y-74597676D01*
X112190476Y-74597676D02*
X112285714Y-74502438D01*
X112285714Y-74502438D02*
X112380952Y-74454819D01*
X113190476Y-75169104D02*
X113666666Y-75169104D01*
X113095238Y-75454819D02*
X113428571Y-74454819D01*
X113428571Y-74454819D02*
X113761904Y-75454819D01*
X114095238Y-75454819D02*
X114095238Y-74454819D01*
X114095238Y-74454819D02*
X114333333Y-74454819D01*
X114333333Y-74454819D02*
X114476190Y-74502438D01*
X114476190Y-74502438D02*
X114571428Y-74597676D01*
X114571428Y-74597676D02*
X114619047Y-74692914D01*
X114619047Y-74692914D02*
X114666666Y-74883390D01*
X114666666Y-74883390D02*
X114666666Y-75026247D01*
X114666666Y-75026247D02*
X114619047Y-75216723D01*
X114619047Y-75216723D02*
X114571428Y-75311961D01*
X114571428Y-75311961D02*
X114476190Y-75407200D01*
X114476190Y-75407200D02*
X114333333Y-75454819D01*
X114333333Y-75454819D02*
X114095238Y-75454819D01*
X88633333Y-25639866D02*
X87966666Y-25639866D01*
X87966666Y-25639866D02*
X87966666Y-24239866D01*
X89099999Y-25639866D02*
X89099999Y-24239866D01*
X89566666Y-24239866D02*
X90033333Y-25639866D01*
X90033333Y-25639866D02*
X90499999Y-24239866D01*
X90966666Y-24906533D02*
X91433333Y-24906533D01*
X91633333Y-25639866D02*
X90966666Y-25639866D01*
X90966666Y-25639866D02*
X90966666Y-24239866D01*
X90966666Y-24239866D02*
X91633333Y-24239866D01*
X93766667Y-24906533D02*
X93300000Y-24906533D01*
X93300000Y-25639866D02*
X93300000Y-24239866D01*
X93300000Y-24239866D02*
X93966667Y-24239866D01*
X94500000Y-25639866D02*
X94500000Y-24239866D01*
X95166667Y-24906533D02*
X95633334Y-24906533D01*
X95833334Y-25639866D02*
X95166667Y-25639866D01*
X95166667Y-25639866D02*
X95166667Y-24239866D01*
X95166667Y-24239866D02*
X95833334Y-24239866D01*
X97100001Y-25639866D02*
X96433334Y-25639866D01*
X96433334Y-25639866D02*
X96433334Y-24239866D01*
X97566667Y-25639866D02*
X97566667Y-24239866D01*
X97566667Y-24239866D02*
X97900000Y-24239866D01*
X97900000Y-24239866D02*
X98100000Y-24306533D01*
X98100000Y-24306533D02*
X98233334Y-24439866D01*
X98233334Y-24439866D02*
X98300000Y-24573200D01*
X98300000Y-24573200D02*
X98366667Y-24839866D01*
X98366667Y-24839866D02*
X98366667Y-25039866D01*
X98366667Y-25039866D02*
X98300000Y-25306533D01*
X98300000Y-25306533D02*
X98233334Y-25439866D01*
X98233334Y-25439866D02*
X98100000Y-25573200D01*
X98100000Y-25573200D02*
X97900000Y-25639866D01*
X97900000Y-25639866D02*
X97566667Y-25639866D01*
X99966667Y-25573200D02*
X100166667Y-25639866D01*
X100166667Y-25639866D02*
X100500001Y-25639866D01*
X100500001Y-25639866D02*
X100633334Y-25573200D01*
X100633334Y-25573200D02*
X100700001Y-25506533D01*
X100700001Y-25506533D02*
X100766667Y-25373200D01*
X100766667Y-25373200D02*
X100766667Y-25239866D01*
X100766667Y-25239866D02*
X100700001Y-25106533D01*
X100700001Y-25106533D02*
X100633334Y-25039866D01*
X100633334Y-25039866D02*
X100500001Y-24973200D01*
X100500001Y-24973200D02*
X100233334Y-24906533D01*
X100233334Y-24906533D02*
X100100001Y-24839866D01*
X100100001Y-24839866D02*
X100033334Y-24773200D01*
X100033334Y-24773200D02*
X99966667Y-24639866D01*
X99966667Y-24639866D02*
X99966667Y-24506533D01*
X99966667Y-24506533D02*
X100033334Y-24373200D01*
X100033334Y-24373200D02*
X100100001Y-24306533D01*
X100100001Y-24306533D02*
X100233334Y-24239866D01*
X100233334Y-24239866D02*
X100566667Y-24239866D01*
X100566667Y-24239866D02*
X100766667Y-24306533D01*
X101366667Y-25639866D02*
X101366667Y-24239866D01*
X102033334Y-25639866D02*
X102033334Y-24239866D01*
X102033334Y-24239866D02*
X102366667Y-24239866D01*
X102366667Y-24239866D02*
X102566667Y-24306533D01*
X102566667Y-24306533D02*
X102700001Y-24439866D01*
X102700001Y-24439866D02*
X102766667Y-24573200D01*
X102766667Y-24573200D02*
X102833334Y-24839866D01*
X102833334Y-24839866D02*
X102833334Y-25039866D01*
X102833334Y-25039866D02*
X102766667Y-25306533D01*
X102766667Y-25306533D02*
X102700001Y-25439866D01*
X102700001Y-25439866D02*
X102566667Y-25573200D01*
X102566667Y-25573200D02*
X102366667Y-25639866D01*
X102366667Y-25639866D02*
X102033334Y-25639866D01*
X103433334Y-24906533D02*
X103900001Y-24906533D01*
X104100001Y-25639866D02*
X103433334Y-25639866D01*
X103433334Y-25639866D02*
X103433334Y-24239866D01*
X103433334Y-24239866D02*
X104100001Y-24239866D01*
X35500001Y-24614700D02*
X35714287Y-24686128D01*
X35714287Y-24686128D02*
X36071429Y-24686128D01*
X36071429Y-24686128D02*
X36214287Y-24614700D01*
X36214287Y-24614700D02*
X36285715Y-24543271D01*
X36285715Y-24543271D02*
X36357144Y-24400414D01*
X36357144Y-24400414D02*
X36357144Y-24257557D01*
X36357144Y-24257557D02*
X36285715Y-24114700D01*
X36285715Y-24114700D02*
X36214287Y-24043271D01*
X36214287Y-24043271D02*
X36071429Y-23971842D01*
X36071429Y-23971842D02*
X35785715Y-23900414D01*
X35785715Y-23900414D02*
X35642858Y-23828985D01*
X35642858Y-23828985D02*
X35571429Y-23757557D01*
X35571429Y-23757557D02*
X35500001Y-23614700D01*
X35500001Y-23614700D02*
X35500001Y-23471842D01*
X35500001Y-23471842D02*
X35571429Y-23328985D01*
X35571429Y-23328985D02*
X35642858Y-23257557D01*
X35642858Y-23257557D02*
X35785715Y-23186128D01*
X35785715Y-23186128D02*
X36142858Y-23186128D01*
X36142858Y-23186128D02*
X36357144Y-23257557D01*
X37000000Y-24686128D02*
X37000000Y-23686128D01*
X37000000Y-23186128D02*
X36928572Y-23257557D01*
X36928572Y-23257557D02*
X37000000Y-23328985D01*
X37000000Y-23328985D02*
X37071429Y-23257557D01*
X37071429Y-23257557D02*
X37000000Y-23186128D01*
X37000000Y-23186128D02*
X37000000Y-23328985D01*
X37928572Y-23828985D02*
X37785715Y-23757557D01*
X37785715Y-23757557D02*
X37714286Y-23686128D01*
X37714286Y-23686128D02*
X37642858Y-23543271D01*
X37642858Y-23543271D02*
X37642858Y-23471842D01*
X37642858Y-23471842D02*
X37714286Y-23328985D01*
X37714286Y-23328985D02*
X37785715Y-23257557D01*
X37785715Y-23257557D02*
X37928572Y-23186128D01*
X37928572Y-23186128D02*
X38214286Y-23186128D01*
X38214286Y-23186128D02*
X38357144Y-23257557D01*
X38357144Y-23257557D02*
X38428572Y-23328985D01*
X38428572Y-23328985D02*
X38500001Y-23471842D01*
X38500001Y-23471842D02*
X38500001Y-23543271D01*
X38500001Y-23543271D02*
X38428572Y-23686128D01*
X38428572Y-23686128D02*
X38357144Y-23757557D01*
X38357144Y-23757557D02*
X38214286Y-23828985D01*
X38214286Y-23828985D02*
X37928572Y-23828985D01*
X37928572Y-23828985D02*
X37785715Y-23900414D01*
X37785715Y-23900414D02*
X37714286Y-23971842D01*
X37714286Y-23971842D02*
X37642858Y-24114700D01*
X37642858Y-24114700D02*
X37642858Y-24400414D01*
X37642858Y-24400414D02*
X37714286Y-24543271D01*
X37714286Y-24543271D02*
X37785715Y-24614700D01*
X37785715Y-24614700D02*
X37928572Y-24686128D01*
X37928572Y-24686128D02*
X38214286Y-24686128D01*
X38214286Y-24686128D02*
X38357144Y-24614700D01*
X38357144Y-24614700D02*
X38428572Y-24543271D01*
X38428572Y-24543271D02*
X38500001Y-24400414D01*
X38500001Y-24400414D02*
X38500001Y-24114700D01*
X38500001Y-24114700D02*
X38428572Y-23971842D01*
X38428572Y-23971842D02*
X38357144Y-23900414D01*
X38357144Y-23900414D02*
X38214286Y-23828985D01*
X39000000Y-23186128D02*
X40000000Y-23186128D01*
X40000000Y-23186128D02*
X39357143Y-24686128D01*
X41285714Y-23186128D02*
X40571428Y-23186128D01*
X40571428Y-23186128D02*
X40500000Y-23900414D01*
X40500000Y-23900414D02*
X40571428Y-23828985D01*
X40571428Y-23828985D02*
X40714286Y-23757557D01*
X40714286Y-23757557D02*
X41071428Y-23757557D01*
X41071428Y-23757557D02*
X41214286Y-23828985D01*
X41214286Y-23828985D02*
X41285714Y-23900414D01*
X41285714Y-23900414D02*
X41357143Y-24043271D01*
X41357143Y-24043271D02*
X41357143Y-24400414D01*
X41357143Y-24400414D02*
X41285714Y-24543271D01*
X41285714Y-24543271D02*
X41214286Y-24614700D01*
X41214286Y-24614700D02*
X41071428Y-24686128D01*
X41071428Y-24686128D02*
X40714286Y-24686128D01*
X40714286Y-24686128D02*
X40571428Y-24614700D01*
X40571428Y-24614700D02*
X40500000Y-24543271D01*
X42785714Y-24686128D02*
X41928571Y-24686128D01*
X42357142Y-24686128D02*
X42357142Y-23186128D01*
X42357142Y-23186128D02*
X42214285Y-23400414D01*
X42214285Y-23400414D02*
X42071428Y-23543271D01*
X42071428Y-23543271D02*
X41928571Y-23614700D01*
X44499999Y-24257557D02*
X45214285Y-24257557D01*
X44357142Y-24686128D02*
X44857142Y-23186128D01*
X44857142Y-23186128D02*
X45357142Y-24686128D01*
X46714284Y-24543271D02*
X46642856Y-24614700D01*
X46642856Y-24614700D02*
X46428570Y-24686128D01*
X46428570Y-24686128D02*
X46285713Y-24686128D01*
X46285713Y-24686128D02*
X46071427Y-24614700D01*
X46071427Y-24614700D02*
X45928570Y-24471842D01*
X45928570Y-24471842D02*
X45857141Y-24328985D01*
X45857141Y-24328985D02*
X45785713Y-24043271D01*
X45785713Y-24043271D02*
X45785713Y-23828985D01*
X45785713Y-23828985D02*
X45857141Y-23543271D01*
X45857141Y-23543271D02*
X45928570Y-23400414D01*
X45928570Y-23400414D02*
X46071427Y-23257557D01*
X46071427Y-23257557D02*
X46285713Y-23186128D01*
X46285713Y-23186128D02*
X46428570Y-23186128D01*
X46428570Y-23186128D02*
X46642856Y-23257557D01*
X46642856Y-23257557D02*
X46714284Y-23328985D01*
X48428570Y-23114700D02*
X47142856Y-25043271D01*
X48928570Y-24686128D02*
X48928570Y-23186128D01*
X48928570Y-23186128D02*
X49285713Y-23186128D01*
X49285713Y-23186128D02*
X49499999Y-23257557D01*
X49499999Y-23257557D02*
X49642856Y-23400414D01*
X49642856Y-23400414D02*
X49714285Y-23543271D01*
X49714285Y-23543271D02*
X49785713Y-23828985D01*
X49785713Y-23828985D02*
X49785713Y-24043271D01*
X49785713Y-24043271D02*
X49714285Y-24328985D01*
X49714285Y-24328985D02*
X49642856Y-24471842D01*
X49642856Y-24471842D02*
X49499999Y-24614700D01*
X49499999Y-24614700D02*
X49285713Y-24686128D01*
X49285713Y-24686128D02*
X48928570Y-24686128D01*
X51285713Y-24543271D02*
X51214285Y-24614700D01*
X51214285Y-24614700D02*
X50999999Y-24686128D01*
X50999999Y-24686128D02*
X50857142Y-24686128D01*
X50857142Y-24686128D02*
X50642856Y-24614700D01*
X50642856Y-24614700D02*
X50499999Y-24471842D01*
X50499999Y-24471842D02*
X50428570Y-24328985D01*
X50428570Y-24328985D02*
X50357142Y-24043271D01*
X50357142Y-24043271D02*
X50357142Y-23828985D01*
X50357142Y-23828985D02*
X50428570Y-23543271D01*
X50428570Y-23543271D02*
X50499999Y-23400414D01*
X50499999Y-23400414D02*
X50642856Y-23257557D01*
X50642856Y-23257557D02*
X50857142Y-23186128D01*
X50857142Y-23186128D02*
X50999999Y-23186128D01*
X50999999Y-23186128D02*
X51214285Y-23257557D01*
X51214285Y-23257557D02*
X51285713Y-23328985D01*
X52999999Y-24614700D02*
X53214285Y-24686128D01*
X53214285Y-24686128D02*
X53571427Y-24686128D01*
X53571427Y-24686128D02*
X53714285Y-24614700D01*
X53714285Y-24614700D02*
X53785713Y-24543271D01*
X53785713Y-24543271D02*
X53857142Y-24400414D01*
X53857142Y-24400414D02*
X53857142Y-24257557D01*
X53857142Y-24257557D02*
X53785713Y-24114700D01*
X53785713Y-24114700D02*
X53714285Y-24043271D01*
X53714285Y-24043271D02*
X53571427Y-23971842D01*
X53571427Y-23971842D02*
X53285713Y-23900414D01*
X53285713Y-23900414D02*
X53142856Y-23828985D01*
X53142856Y-23828985D02*
X53071427Y-23757557D01*
X53071427Y-23757557D02*
X52999999Y-23614700D01*
X52999999Y-23614700D02*
X52999999Y-23471842D01*
X52999999Y-23471842D02*
X53071427Y-23328985D01*
X53071427Y-23328985D02*
X53142856Y-23257557D01*
X53142856Y-23257557D02*
X53285713Y-23186128D01*
X53285713Y-23186128D02*
X53642856Y-23186128D01*
X53642856Y-23186128D02*
X53857142Y-23257557D01*
X54357141Y-23186128D02*
X54714284Y-24686128D01*
X54714284Y-24686128D02*
X54999998Y-23614700D01*
X54999998Y-23614700D02*
X55285713Y-24686128D01*
X55285713Y-24686128D02*
X55642856Y-23186128D01*
X56214284Y-24686128D02*
X56214284Y-23186128D01*
X56714285Y-23186128D02*
X57571428Y-23186128D01*
X57142856Y-24686128D02*
X57142856Y-23186128D01*
X58928570Y-24543271D02*
X58857142Y-24614700D01*
X58857142Y-24614700D02*
X58642856Y-24686128D01*
X58642856Y-24686128D02*
X58499999Y-24686128D01*
X58499999Y-24686128D02*
X58285713Y-24614700D01*
X58285713Y-24614700D02*
X58142856Y-24471842D01*
X58142856Y-24471842D02*
X58071427Y-24328985D01*
X58071427Y-24328985D02*
X57999999Y-24043271D01*
X57999999Y-24043271D02*
X57999999Y-23828985D01*
X57999999Y-23828985D02*
X58071427Y-23543271D01*
X58071427Y-23543271D02*
X58142856Y-23400414D01*
X58142856Y-23400414D02*
X58285713Y-23257557D01*
X58285713Y-23257557D02*
X58499999Y-23186128D01*
X58499999Y-23186128D02*
X58642856Y-23186128D01*
X58642856Y-23186128D02*
X58857142Y-23257557D01*
X58857142Y-23257557D02*
X58928570Y-23328985D01*
X59571427Y-24686128D02*
X59571427Y-23186128D01*
X59571427Y-23900414D02*
X60428570Y-23900414D01*
X60428570Y-24686128D02*
X60428570Y-23186128D01*
D11*
X77453571Y-81705514D02*
X77413095Y-81745991D01*
X77413095Y-81745991D02*
X77291666Y-81786467D01*
X77291666Y-81786467D02*
X77210714Y-81786467D01*
X77210714Y-81786467D02*
X77089285Y-81745991D01*
X77089285Y-81745991D02*
X77008333Y-81665038D01*
X77008333Y-81665038D02*
X76967856Y-81584086D01*
X76967856Y-81584086D02*
X76927380Y-81422181D01*
X76927380Y-81422181D02*
X76927380Y-81300752D01*
X76927380Y-81300752D02*
X76967856Y-81138848D01*
X76967856Y-81138848D02*
X77008333Y-81057895D01*
X77008333Y-81057895D02*
X77089285Y-80976943D01*
X77089285Y-80976943D02*
X77210714Y-80936467D01*
X77210714Y-80936467D02*
X77291666Y-80936467D01*
X77291666Y-80936467D02*
X77413095Y-80976943D01*
X77413095Y-80976943D02*
X77453571Y-81017419D01*
X78263095Y-81786467D02*
X77777380Y-81786467D01*
X78020237Y-81786467D02*
X78020237Y-80936467D01*
X78020237Y-80936467D02*
X77939285Y-81057895D01*
X77939285Y-81057895D02*
X77858333Y-81138848D01*
X77858333Y-81138848D02*
X77777380Y-81179324D01*
X78991666Y-81219800D02*
X78991666Y-81786467D01*
X78789285Y-80895991D02*
X78586904Y-81503133D01*
X78586904Y-81503133D02*
X79113095Y-81503133D01*
X76858333Y-92205514D02*
X76817857Y-92245991D01*
X76817857Y-92245991D02*
X76696428Y-92286467D01*
X76696428Y-92286467D02*
X76615476Y-92286467D01*
X76615476Y-92286467D02*
X76494047Y-92245991D01*
X76494047Y-92245991D02*
X76413095Y-92165038D01*
X76413095Y-92165038D02*
X76372618Y-92084086D01*
X76372618Y-92084086D02*
X76332142Y-91922181D01*
X76332142Y-91922181D02*
X76332142Y-91800752D01*
X76332142Y-91800752D02*
X76372618Y-91638848D01*
X76372618Y-91638848D02*
X76413095Y-91557895D01*
X76413095Y-91557895D02*
X76494047Y-91476943D01*
X76494047Y-91476943D02*
X76615476Y-91436467D01*
X76615476Y-91436467D02*
X76696428Y-91436467D01*
X76696428Y-91436467D02*
X76817857Y-91476943D01*
X76817857Y-91476943D02*
X76858333Y-91517419D01*
X77586904Y-91436467D02*
X77424999Y-91436467D01*
X77424999Y-91436467D02*
X77344047Y-91476943D01*
X77344047Y-91476943D02*
X77303571Y-91517419D01*
X77303571Y-91517419D02*
X77222618Y-91638848D01*
X77222618Y-91638848D02*
X77182142Y-91800752D01*
X77182142Y-91800752D02*
X77182142Y-92124562D01*
X77182142Y-92124562D02*
X77222618Y-92205514D01*
X77222618Y-92205514D02*
X77263095Y-92245991D01*
X77263095Y-92245991D02*
X77344047Y-92286467D01*
X77344047Y-92286467D02*
X77505952Y-92286467D01*
X77505952Y-92286467D02*
X77586904Y-92245991D01*
X77586904Y-92245991D02*
X77627380Y-92205514D01*
X77627380Y-92205514D02*
X77667857Y-92124562D01*
X77667857Y-92124562D02*
X77667857Y-91922181D01*
X77667857Y-91922181D02*
X77627380Y-91841229D01*
X77627380Y-91841229D02*
X77586904Y-91800752D01*
X77586904Y-91800752D02*
X77505952Y-91760276D01*
X77505952Y-91760276D02*
X77344047Y-91760276D01*
X77344047Y-91760276D02*
X77263095Y-91800752D01*
X77263095Y-91800752D02*
X77222618Y-91841229D01*
X77222618Y-91841229D02*
X77182142Y-91922181D01*
X49953571Y-87105514D02*
X49913095Y-87145991D01*
X49913095Y-87145991D02*
X49791666Y-87186467D01*
X49791666Y-87186467D02*
X49710714Y-87186467D01*
X49710714Y-87186467D02*
X49589285Y-87145991D01*
X49589285Y-87145991D02*
X49508333Y-87065038D01*
X49508333Y-87065038D02*
X49467856Y-86984086D01*
X49467856Y-86984086D02*
X49427380Y-86822181D01*
X49427380Y-86822181D02*
X49427380Y-86700752D01*
X49427380Y-86700752D02*
X49467856Y-86538848D01*
X49467856Y-86538848D02*
X49508333Y-86457895D01*
X49508333Y-86457895D02*
X49589285Y-86376943D01*
X49589285Y-86376943D02*
X49710714Y-86336467D01*
X49710714Y-86336467D02*
X49791666Y-86336467D01*
X49791666Y-86336467D02*
X49913095Y-86376943D01*
X49913095Y-86376943D02*
X49953571Y-86417419D01*
X50763095Y-87186467D02*
X50277380Y-87186467D01*
X50520237Y-87186467D02*
X50520237Y-86336467D01*
X50520237Y-86336467D02*
X50439285Y-86457895D01*
X50439285Y-86457895D02*
X50358333Y-86538848D01*
X50358333Y-86538848D02*
X50277380Y-86579324D01*
X51086904Y-86417419D02*
X51127380Y-86376943D01*
X51127380Y-86376943D02*
X51208333Y-86336467D01*
X51208333Y-86336467D02*
X51410714Y-86336467D01*
X51410714Y-86336467D02*
X51491666Y-86376943D01*
X51491666Y-86376943D02*
X51532142Y-86417419D01*
X51532142Y-86417419D02*
X51572619Y-86498371D01*
X51572619Y-86498371D02*
X51572619Y-86579324D01*
X51572619Y-86579324D02*
X51532142Y-86700752D01*
X51532142Y-86700752D02*
X51046428Y-87186467D01*
X51046428Y-87186467D02*
X51572619Y-87186467D01*
X42858333Y-54786467D02*
X42574999Y-54381705D01*
X42372618Y-54786467D02*
X42372618Y-53936467D01*
X42372618Y-53936467D02*
X42696428Y-53936467D01*
X42696428Y-53936467D02*
X42777380Y-53976943D01*
X42777380Y-53976943D02*
X42817857Y-54017419D01*
X42817857Y-54017419D02*
X42858333Y-54098371D01*
X42858333Y-54098371D02*
X42858333Y-54219800D01*
X42858333Y-54219800D02*
X42817857Y-54300752D01*
X42817857Y-54300752D02*
X42777380Y-54341229D01*
X42777380Y-54341229D02*
X42696428Y-54381705D01*
X42696428Y-54381705D02*
X42372618Y-54381705D01*
X43141666Y-53936467D02*
X43667857Y-53936467D01*
X43667857Y-53936467D02*
X43384523Y-54260276D01*
X43384523Y-54260276D02*
X43505952Y-54260276D01*
X43505952Y-54260276D02*
X43586904Y-54300752D01*
X43586904Y-54300752D02*
X43627380Y-54341229D01*
X43627380Y-54341229D02*
X43667857Y-54422181D01*
X43667857Y-54422181D02*
X43667857Y-54624562D01*
X43667857Y-54624562D02*
X43627380Y-54705514D01*
X43627380Y-54705514D02*
X43586904Y-54745991D01*
X43586904Y-54745991D02*
X43505952Y-54786467D01*
X43505952Y-54786467D02*
X43263095Y-54786467D01*
X43263095Y-54786467D02*
X43182142Y-54745991D01*
X43182142Y-54745991D02*
X43141666Y-54705514D01*
X72558333Y-92205514D02*
X72517857Y-92245991D01*
X72517857Y-92245991D02*
X72396428Y-92286467D01*
X72396428Y-92286467D02*
X72315476Y-92286467D01*
X72315476Y-92286467D02*
X72194047Y-92245991D01*
X72194047Y-92245991D02*
X72113095Y-92165038D01*
X72113095Y-92165038D02*
X72072618Y-92084086D01*
X72072618Y-92084086D02*
X72032142Y-91922181D01*
X72032142Y-91922181D02*
X72032142Y-91800752D01*
X72032142Y-91800752D02*
X72072618Y-91638848D01*
X72072618Y-91638848D02*
X72113095Y-91557895D01*
X72113095Y-91557895D02*
X72194047Y-91476943D01*
X72194047Y-91476943D02*
X72315476Y-91436467D01*
X72315476Y-91436467D02*
X72396428Y-91436467D01*
X72396428Y-91436467D02*
X72517857Y-91476943D01*
X72517857Y-91476943D02*
X72558333Y-91517419D01*
X73327380Y-91436467D02*
X72922618Y-91436467D01*
X72922618Y-91436467D02*
X72882142Y-91841229D01*
X72882142Y-91841229D02*
X72922618Y-91800752D01*
X72922618Y-91800752D02*
X73003571Y-91760276D01*
X73003571Y-91760276D02*
X73205952Y-91760276D01*
X73205952Y-91760276D02*
X73286904Y-91800752D01*
X73286904Y-91800752D02*
X73327380Y-91841229D01*
X73327380Y-91841229D02*
X73367857Y-91922181D01*
X73367857Y-91922181D02*
X73367857Y-92124562D01*
X73367857Y-92124562D02*
X73327380Y-92205514D01*
X73327380Y-92205514D02*
X73286904Y-92245991D01*
X73286904Y-92245991D02*
X73205952Y-92286467D01*
X73205952Y-92286467D02*
X73003571Y-92286467D01*
X73003571Y-92286467D02*
X72922618Y-92245991D01*
X72922618Y-92245991D02*
X72882142Y-92205514D01*
X91453571Y-82786467D02*
X91170237Y-82381705D01*
X90967856Y-82786467D02*
X90967856Y-81936467D01*
X90967856Y-81936467D02*
X91291666Y-81936467D01*
X91291666Y-81936467D02*
X91372618Y-81976943D01*
X91372618Y-81976943D02*
X91413095Y-82017419D01*
X91413095Y-82017419D02*
X91453571Y-82098371D01*
X91453571Y-82098371D02*
X91453571Y-82219800D01*
X91453571Y-82219800D02*
X91413095Y-82300752D01*
X91413095Y-82300752D02*
X91372618Y-82341229D01*
X91372618Y-82341229D02*
X91291666Y-82381705D01*
X91291666Y-82381705D02*
X90967856Y-82381705D01*
X92263095Y-82786467D02*
X91777380Y-82786467D01*
X92020237Y-82786467D02*
X92020237Y-81936467D01*
X92020237Y-81936467D02*
X91939285Y-82057895D01*
X91939285Y-82057895D02*
X91858333Y-82138848D01*
X91858333Y-82138848D02*
X91777380Y-82179324D01*
X92586904Y-82017419D02*
X92627380Y-81976943D01*
X92627380Y-81976943D02*
X92708333Y-81936467D01*
X92708333Y-81936467D02*
X92910714Y-81936467D01*
X92910714Y-81936467D02*
X92991666Y-81976943D01*
X92991666Y-81976943D02*
X93032142Y-82017419D01*
X93032142Y-82017419D02*
X93072619Y-82098371D01*
X93072619Y-82098371D02*
X93072619Y-82179324D01*
X93072619Y-82179324D02*
X93032142Y-82300752D01*
X93032142Y-82300752D02*
X92546428Y-82786467D01*
X92546428Y-82786467D02*
X93072619Y-82786467D01*
X57858333Y-30705514D02*
X57817857Y-30745991D01*
X57817857Y-30745991D02*
X57696428Y-30786467D01*
X57696428Y-30786467D02*
X57615476Y-30786467D01*
X57615476Y-30786467D02*
X57494047Y-30745991D01*
X57494047Y-30745991D02*
X57413095Y-30665038D01*
X57413095Y-30665038D02*
X57372618Y-30584086D01*
X57372618Y-30584086D02*
X57332142Y-30422181D01*
X57332142Y-30422181D02*
X57332142Y-30300752D01*
X57332142Y-30300752D02*
X57372618Y-30138848D01*
X57372618Y-30138848D02*
X57413095Y-30057895D01*
X57413095Y-30057895D02*
X57494047Y-29976943D01*
X57494047Y-29976943D02*
X57615476Y-29936467D01*
X57615476Y-29936467D02*
X57696428Y-29936467D01*
X57696428Y-29936467D02*
X57817857Y-29976943D01*
X57817857Y-29976943D02*
X57858333Y-30017419D01*
X58667857Y-30786467D02*
X58182142Y-30786467D01*
X58424999Y-30786467D02*
X58424999Y-29936467D01*
X58424999Y-29936467D02*
X58344047Y-30057895D01*
X58344047Y-30057895D02*
X58263095Y-30138848D01*
X58263095Y-30138848D02*
X58182142Y-30179324D01*
X63352380Y-75936467D02*
X63352380Y-76624562D01*
X63352380Y-76624562D02*
X63392857Y-76705514D01*
X63392857Y-76705514D02*
X63433333Y-76745991D01*
X63433333Y-76745991D02*
X63514285Y-76786467D01*
X63514285Y-76786467D02*
X63676190Y-76786467D01*
X63676190Y-76786467D02*
X63757142Y-76745991D01*
X63757142Y-76745991D02*
X63797619Y-76705514D01*
X63797619Y-76705514D02*
X63838095Y-76624562D01*
X63838095Y-76624562D02*
X63838095Y-75936467D01*
X64607142Y-75936467D02*
X64445237Y-75936467D01*
X64445237Y-75936467D02*
X64364285Y-75976943D01*
X64364285Y-75976943D02*
X64323809Y-76017419D01*
X64323809Y-76017419D02*
X64242856Y-76138848D01*
X64242856Y-76138848D02*
X64202380Y-76300752D01*
X64202380Y-76300752D02*
X64202380Y-76624562D01*
X64202380Y-76624562D02*
X64242856Y-76705514D01*
X64242856Y-76705514D02*
X64283333Y-76745991D01*
X64283333Y-76745991D02*
X64364285Y-76786467D01*
X64364285Y-76786467D02*
X64526190Y-76786467D01*
X64526190Y-76786467D02*
X64607142Y-76745991D01*
X64607142Y-76745991D02*
X64647618Y-76705514D01*
X64647618Y-76705514D02*
X64688095Y-76624562D01*
X64688095Y-76624562D02*
X64688095Y-76422181D01*
X64688095Y-76422181D02*
X64647618Y-76341229D01*
X64647618Y-76341229D02*
X64607142Y-76300752D01*
X64607142Y-76300752D02*
X64526190Y-76260276D01*
X64526190Y-76260276D02*
X64364285Y-76260276D01*
X64364285Y-76260276D02*
X64283333Y-76300752D01*
X64283333Y-76300752D02*
X64242856Y-76341229D01*
X64242856Y-76341229D02*
X64202380Y-76422181D01*
X97453571Y-82786467D02*
X97170237Y-82381705D01*
X96967856Y-82786467D02*
X96967856Y-81936467D01*
X96967856Y-81936467D02*
X97291666Y-81936467D01*
X97291666Y-81936467D02*
X97372618Y-81976943D01*
X97372618Y-81976943D02*
X97413095Y-82017419D01*
X97413095Y-82017419D02*
X97453571Y-82098371D01*
X97453571Y-82098371D02*
X97453571Y-82219800D01*
X97453571Y-82219800D02*
X97413095Y-82300752D01*
X97413095Y-82300752D02*
X97372618Y-82341229D01*
X97372618Y-82341229D02*
X97291666Y-82381705D01*
X97291666Y-82381705D02*
X96967856Y-82381705D01*
X98263095Y-82786467D02*
X97777380Y-82786467D01*
X98020237Y-82786467D02*
X98020237Y-81936467D01*
X98020237Y-81936467D02*
X97939285Y-82057895D01*
X97939285Y-82057895D02*
X97858333Y-82138848D01*
X97858333Y-82138848D02*
X97777380Y-82179324D01*
X99072619Y-82786467D02*
X98586904Y-82786467D01*
X98829761Y-82786467D02*
X98829761Y-81936467D01*
X98829761Y-81936467D02*
X98748809Y-82057895D01*
X98748809Y-82057895D02*
X98667857Y-82138848D01*
X98667857Y-82138848D02*
X98586904Y-82179324D01*
X55858333Y-35786467D02*
X55574999Y-35381705D01*
X55372618Y-35786467D02*
X55372618Y-34936467D01*
X55372618Y-34936467D02*
X55696428Y-34936467D01*
X55696428Y-34936467D02*
X55777380Y-34976943D01*
X55777380Y-34976943D02*
X55817857Y-35017419D01*
X55817857Y-35017419D02*
X55858333Y-35098371D01*
X55858333Y-35098371D02*
X55858333Y-35219800D01*
X55858333Y-35219800D02*
X55817857Y-35300752D01*
X55817857Y-35300752D02*
X55777380Y-35341229D01*
X55777380Y-35341229D02*
X55696428Y-35381705D01*
X55696428Y-35381705D02*
X55372618Y-35381705D01*
X56627380Y-34936467D02*
X56222618Y-34936467D01*
X56222618Y-34936467D02*
X56182142Y-35341229D01*
X56182142Y-35341229D02*
X56222618Y-35300752D01*
X56222618Y-35300752D02*
X56303571Y-35260276D01*
X56303571Y-35260276D02*
X56505952Y-35260276D01*
X56505952Y-35260276D02*
X56586904Y-35300752D01*
X56586904Y-35300752D02*
X56627380Y-35341229D01*
X56627380Y-35341229D02*
X56667857Y-35422181D01*
X56667857Y-35422181D02*
X56667857Y-35624562D01*
X56667857Y-35624562D02*
X56627380Y-35705514D01*
X56627380Y-35705514D02*
X56586904Y-35745991D01*
X56586904Y-35745991D02*
X56505952Y-35786467D01*
X56505952Y-35786467D02*
X56303571Y-35786467D01*
X56303571Y-35786467D02*
X56222618Y-35745991D01*
X56222618Y-35745991D02*
X56182142Y-35705514D01*
X49453571Y-93786467D02*
X49170237Y-93381705D01*
X48967856Y-93786467D02*
X48967856Y-92936467D01*
X48967856Y-92936467D02*
X49291666Y-92936467D01*
X49291666Y-92936467D02*
X49372618Y-92976943D01*
X49372618Y-92976943D02*
X49413095Y-93017419D01*
X49413095Y-93017419D02*
X49453571Y-93098371D01*
X49453571Y-93098371D02*
X49453571Y-93219800D01*
X49453571Y-93219800D02*
X49413095Y-93300752D01*
X49413095Y-93300752D02*
X49372618Y-93341229D01*
X49372618Y-93341229D02*
X49291666Y-93381705D01*
X49291666Y-93381705D02*
X48967856Y-93381705D01*
X50263095Y-93786467D02*
X49777380Y-93786467D01*
X50020237Y-93786467D02*
X50020237Y-92936467D01*
X50020237Y-92936467D02*
X49939285Y-93057895D01*
X49939285Y-93057895D02*
X49858333Y-93138848D01*
X49858333Y-93138848D02*
X49777380Y-93179324D01*
X50991666Y-93219800D02*
X50991666Y-93786467D01*
X50789285Y-92895991D02*
X50586904Y-93503133D01*
X50586904Y-93503133D02*
X51113095Y-93503133D01*
X63352380Y-95636467D02*
X63352380Y-96324562D01*
X63352380Y-96324562D02*
X63392857Y-96405514D01*
X63392857Y-96405514D02*
X63433333Y-96445991D01*
X63433333Y-96445991D02*
X63514285Y-96486467D01*
X63514285Y-96486467D02*
X63676190Y-96486467D01*
X63676190Y-96486467D02*
X63757142Y-96445991D01*
X63757142Y-96445991D02*
X63797619Y-96405514D01*
X63797619Y-96405514D02*
X63838095Y-96324562D01*
X63838095Y-96324562D02*
X63838095Y-95636467D01*
X64647618Y-95636467D02*
X64242856Y-95636467D01*
X64242856Y-95636467D02*
X64202380Y-96041229D01*
X64202380Y-96041229D02*
X64242856Y-96000752D01*
X64242856Y-96000752D02*
X64323809Y-95960276D01*
X64323809Y-95960276D02*
X64526190Y-95960276D01*
X64526190Y-95960276D02*
X64607142Y-96000752D01*
X64607142Y-96000752D02*
X64647618Y-96041229D01*
X64647618Y-96041229D02*
X64688095Y-96122181D01*
X64688095Y-96122181D02*
X64688095Y-96324562D01*
X64688095Y-96324562D02*
X64647618Y-96405514D01*
X64647618Y-96405514D02*
X64607142Y-96445991D01*
X64607142Y-96445991D02*
X64526190Y-96486467D01*
X64526190Y-96486467D02*
X64323809Y-96486467D01*
X64323809Y-96486467D02*
X64242856Y-96445991D01*
X64242856Y-96445991D02*
X64202380Y-96405514D01*
X77858333Y-87105514D02*
X77817857Y-87145991D01*
X77817857Y-87145991D02*
X77696428Y-87186467D01*
X77696428Y-87186467D02*
X77615476Y-87186467D01*
X77615476Y-87186467D02*
X77494047Y-87145991D01*
X77494047Y-87145991D02*
X77413095Y-87065038D01*
X77413095Y-87065038D02*
X77372618Y-86984086D01*
X77372618Y-86984086D02*
X77332142Y-86822181D01*
X77332142Y-86822181D02*
X77332142Y-86700752D01*
X77332142Y-86700752D02*
X77372618Y-86538848D01*
X77372618Y-86538848D02*
X77413095Y-86457895D01*
X77413095Y-86457895D02*
X77494047Y-86376943D01*
X77494047Y-86376943D02*
X77615476Y-86336467D01*
X77615476Y-86336467D02*
X77696428Y-86336467D01*
X77696428Y-86336467D02*
X77817857Y-86376943D01*
X77817857Y-86376943D02*
X77858333Y-86417419D01*
X78344047Y-86700752D02*
X78263095Y-86660276D01*
X78263095Y-86660276D02*
X78222618Y-86619800D01*
X78222618Y-86619800D02*
X78182142Y-86538848D01*
X78182142Y-86538848D02*
X78182142Y-86498371D01*
X78182142Y-86498371D02*
X78222618Y-86417419D01*
X78222618Y-86417419D02*
X78263095Y-86376943D01*
X78263095Y-86376943D02*
X78344047Y-86336467D01*
X78344047Y-86336467D02*
X78505952Y-86336467D01*
X78505952Y-86336467D02*
X78586904Y-86376943D01*
X78586904Y-86376943D02*
X78627380Y-86417419D01*
X78627380Y-86417419D02*
X78667857Y-86498371D01*
X78667857Y-86498371D02*
X78667857Y-86538848D01*
X78667857Y-86538848D02*
X78627380Y-86619800D01*
X78627380Y-86619800D02*
X78586904Y-86660276D01*
X78586904Y-86660276D02*
X78505952Y-86700752D01*
X78505952Y-86700752D02*
X78344047Y-86700752D01*
X78344047Y-86700752D02*
X78263095Y-86741229D01*
X78263095Y-86741229D02*
X78222618Y-86781705D01*
X78222618Y-86781705D02*
X78182142Y-86862657D01*
X78182142Y-86862657D02*
X78182142Y-87024562D01*
X78182142Y-87024562D02*
X78222618Y-87105514D01*
X78222618Y-87105514D02*
X78263095Y-87145991D01*
X78263095Y-87145991D02*
X78344047Y-87186467D01*
X78344047Y-87186467D02*
X78505952Y-87186467D01*
X78505952Y-87186467D02*
X78586904Y-87145991D01*
X78586904Y-87145991D02*
X78627380Y-87105514D01*
X78627380Y-87105514D02*
X78667857Y-87024562D01*
X78667857Y-87024562D02*
X78667857Y-86862657D01*
X78667857Y-86862657D02*
X78627380Y-86781705D01*
X78627380Y-86781705D02*
X78586904Y-86741229D01*
X78586904Y-86741229D02*
X78505952Y-86700752D01*
X107716667Y-31726467D02*
X107716667Y-32333610D01*
X107716667Y-32333610D02*
X107676190Y-32455038D01*
X107676190Y-32455038D02*
X107595238Y-32535991D01*
X107595238Y-32535991D02*
X107473809Y-32576467D01*
X107473809Y-32576467D02*
X107392857Y-32576467D01*
X108080952Y-31807419D02*
X108121428Y-31766943D01*
X108121428Y-31766943D02*
X108202381Y-31726467D01*
X108202381Y-31726467D02*
X108404762Y-31726467D01*
X108404762Y-31726467D02*
X108485714Y-31766943D01*
X108485714Y-31766943D02*
X108526190Y-31807419D01*
X108526190Y-31807419D02*
X108566667Y-31888371D01*
X108566667Y-31888371D02*
X108566667Y-31969324D01*
X108566667Y-31969324D02*
X108526190Y-32090752D01*
X108526190Y-32090752D02*
X108040476Y-32576467D01*
X108040476Y-32576467D02*
X108566667Y-32576467D01*
X107716667Y-63726467D02*
X107716667Y-64333610D01*
X107716667Y-64333610D02*
X107676190Y-64455038D01*
X107676190Y-64455038D02*
X107595238Y-64535991D01*
X107595238Y-64535991D02*
X107473809Y-64576467D01*
X107473809Y-64576467D02*
X107392857Y-64576467D01*
X108040476Y-63726467D02*
X108566667Y-63726467D01*
X108566667Y-63726467D02*
X108283333Y-64050276D01*
X108283333Y-64050276D02*
X108404762Y-64050276D01*
X108404762Y-64050276D02*
X108485714Y-64090752D01*
X108485714Y-64090752D02*
X108526190Y-64131229D01*
X108526190Y-64131229D02*
X108566667Y-64212181D01*
X108566667Y-64212181D02*
X108566667Y-64414562D01*
X108566667Y-64414562D02*
X108526190Y-64495514D01*
X108526190Y-64495514D02*
X108485714Y-64535991D01*
X108485714Y-64535991D02*
X108404762Y-64576467D01*
X108404762Y-64576467D02*
X108161905Y-64576467D01*
X108161905Y-64576467D02*
X108080952Y-64535991D01*
X108080952Y-64535991D02*
X108040476Y-64495514D01*
X28716667Y-37156467D02*
X28716667Y-37763610D01*
X28716667Y-37763610D02*
X28676190Y-37885038D01*
X28676190Y-37885038D02*
X28595238Y-37965991D01*
X28595238Y-37965991D02*
X28473809Y-38006467D01*
X28473809Y-38006467D02*
X28392857Y-38006467D01*
X29566667Y-38006467D02*
X29080952Y-38006467D01*
X29323809Y-38006467D02*
X29323809Y-37156467D01*
X29323809Y-37156467D02*
X29242857Y-37277895D01*
X29242857Y-37277895D02*
X29161905Y-37358848D01*
X29161905Y-37358848D02*
X29080952Y-37399324D01*
X57858333Y-50705514D02*
X57817857Y-50745991D01*
X57817857Y-50745991D02*
X57696428Y-50786467D01*
X57696428Y-50786467D02*
X57615476Y-50786467D01*
X57615476Y-50786467D02*
X57494047Y-50745991D01*
X57494047Y-50745991D02*
X57413095Y-50665038D01*
X57413095Y-50665038D02*
X57372618Y-50584086D01*
X57372618Y-50584086D02*
X57332142Y-50422181D01*
X57332142Y-50422181D02*
X57332142Y-50300752D01*
X57332142Y-50300752D02*
X57372618Y-50138848D01*
X57372618Y-50138848D02*
X57413095Y-50057895D01*
X57413095Y-50057895D02*
X57494047Y-49976943D01*
X57494047Y-49976943D02*
X57615476Y-49936467D01*
X57615476Y-49936467D02*
X57696428Y-49936467D01*
X57696428Y-49936467D02*
X57817857Y-49976943D01*
X57817857Y-49976943D02*
X57858333Y-50017419D01*
X58182142Y-50017419D02*
X58222618Y-49976943D01*
X58222618Y-49976943D02*
X58303571Y-49936467D01*
X58303571Y-49936467D02*
X58505952Y-49936467D01*
X58505952Y-49936467D02*
X58586904Y-49976943D01*
X58586904Y-49976943D02*
X58627380Y-50017419D01*
X58627380Y-50017419D02*
X58667857Y-50098371D01*
X58667857Y-50098371D02*
X58667857Y-50179324D01*
X58667857Y-50179324D02*
X58627380Y-50300752D01*
X58627380Y-50300752D02*
X58141666Y-50786467D01*
X58141666Y-50786467D02*
X58667857Y-50786467D01*
X72453571Y-81786467D02*
X72170237Y-81381705D01*
X71967856Y-81786467D02*
X71967856Y-80936467D01*
X71967856Y-80936467D02*
X72291666Y-80936467D01*
X72291666Y-80936467D02*
X72372618Y-80976943D01*
X72372618Y-80976943D02*
X72413095Y-81017419D01*
X72413095Y-81017419D02*
X72453571Y-81098371D01*
X72453571Y-81098371D02*
X72453571Y-81219800D01*
X72453571Y-81219800D02*
X72413095Y-81300752D01*
X72413095Y-81300752D02*
X72372618Y-81341229D01*
X72372618Y-81341229D02*
X72291666Y-81381705D01*
X72291666Y-81381705D02*
X71967856Y-81381705D01*
X73263095Y-81786467D02*
X72777380Y-81786467D01*
X73020237Y-81786467D02*
X73020237Y-80936467D01*
X73020237Y-80936467D02*
X72939285Y-81057895D01*
X72939285Y-81057895D02*
X72858333Y-81138848D01*
X72858333Y-81138848D02*
X72777380Y-81179324D01*
X73546428Y-80936467D02*
X74072619Y-80936467D01*
X74072619Y-80936467D02*
X73789285Y-81260276D01*
X73789285Y-81260276D02*
X73910714Y-81260276D01*
X73910714Y-81260276D02*
X73991666Y-81300752D01*
X73991666Y-81300752D02*
X74032142Y-81341229D01*
X74032142Y-81341229D02*
X74072619Y-81422181D01*
X74072619Y-81422181D02*
X74072619Y-81624562D01*
X74072619Y-81624562D02*
X74032142Y-81705514D01*
X74032142Y-81705514D02*
X73991666Y-81745991D01*
X73991666Y-81745991D02*
X73910714Y-81786467D01*
X73910714Y-81786467D02*
X73667857Y-81786467D01*
X73667857Y-81786467D02*
X73586904Y-81745991D01*
X73586904Y-81745991D02*
X73546428Y-81705514D01*
X83379047Y-62567419D02*
X83298095Y-62526943D01*
X83298095Y-62526943D02*
X83217142Y-62445991D01*
X83217142Y-62445991D02*
X83095714Y-62324562D01*
X83095714Y-62324562D02*
X83014761Y-62284086D01*
X83014761Y-62284086D02*
X82933809Y-62284086D01*
X82974285Y-62486467D02*
X82893333Y-62445991D01*
X82893333Y-62445991D02*
X82812380Y-62365038D01*
X82812380Y-62365038D02*
X82771904Y-62203133D01*
X82771904Y-62203133D02*
X82771904Y-61919800D01*
X82771904Y-61919800D02*
X82812380Y-61757895D01*
X82812380Y-61757895D02*
X82893333Y-61676943D01*
X82893333Y-61676943D02*
X82974285Y-61636467D01*
X82974285Y-61636467D02*
X83136190Y-61636467D01*
X83136190Y-61636467D02*
X83217142Y-61676943D01*
X83217142Y-61676943D02*
X83298095Y-61757895D01*
X83298095Y-61757895D02*
X83338571Y-61919800D01*
X83338571Y-61919800D02*
X83338571Y-62203133D01*
X83338571Y-62203133D02*
X83298095Y-62365038D01*
X83298095Y-62365038D02*
X83217142Y-62445991D01*
X83217142Y-62445991D02*
X83136190Y-62486467D01*
X83136190Y-62486467D02*
X82974285Y-62486467D01*
X83662380Y-61717419D02*
X83702856Y-61676943D01*
X83702856Y-61676943D02*
X83783809Y-61636467D01*
X83783809Y-61636467D02*
X83986190Y-61636467D01*
X83986190Y-61636467D02*
X84067142Y-61676943D01*
X84067142Y-61676943D02*
X84107618Y-61717419D01*
X84107618Y-61717419D02*
X84148095Y-61798371D01*
X84148095Y-61798371D02*
X84148095Y-61879324D01*
X84148095Y-61879324D02*
X84107618Y-62000752D01*
X84107618Y-62000752D02*
X83621904Y-62486467D01*
X83621904Y-62486467D02*
X84148095Y-62486467D01*
X54953571Y-92205514D02*
X54913095Y-92245991D01*
X54913095Y-92245991D02*
X54791666Y-92286467D01*
X54791666Y-92286467D02*
X54710714Y-92286467D01*
X54710714Y-92286467D02*
X54589285Y-92245991D01*
X54589285Y-92245991D02*
X54508333Y-92165038D01*
X54508333Y-92165038D02*
X54467856Y-92084086D01*
X54467856Y-92084086D02*
X54427380Y-91922181D01*
X54427380Y-91922181D02*
X54427380Y-91800752D01*
X54427380Y-91800752D02*
X54467856Y-91638848D01*
X54467856Y-91638848D02*
X54508333Y-91557895D01*
X54508333Y-91557895D02*
X54589285Y-91476943D01*
X54589285Y-91476943D02*
X54710714Y-91436467D01*
X54710714Y-91436467D02*
X54791666Y-91436467D01*
X54791666Y-91436467D02*
X54913095Y-91476943D01*
X54913095Y-91476943D02*
X54953571Y-91517419D01*
X55763095Y-92286467D02*
X55277380Y-92286467D01*
X55520237Y-92286467D02*
X55520237Y-91436467D01*
X55520237Y-91436467D02*
X55439285Y-91557895D01*
X55439285Y-91557895D02*
X55358333Y-91638848D01*
X55358333Y-91638848D02*
X55277380Y-91679324D01*
X56046428Y-91436467D02*
X56572619Y-91436467D01*
X56572619Y-91436467D02*
X56289285Y-91760276D01*
X56289285Y-91760276D02*
X56410714Y-91760276D01*
X56410714Y-91760276D02*
X56491666Y-91800752D01*
X56491666Y-91800752D02*
X56532142Y-91841229D01*
X56532142Y-91841229D02*
X56572619Y-91922181D01*
X56572619Y-91922181D02*
X56572619Y-92124562D01*
X56572619Y-92124562D02*
X56532142Y-92205514D01*
X56532142Y-92205514D02*
X56491666Y-92245991D01*
X56491666Y-92245991D02*
X56410714Y-92286467D01*
X56410714Y-92286467D02*
X56167857Y-92286467D01*
X56167857Y-92286467D02*
X56086904Y-92245991D01*
X56086904Y-92245991D02*
X56046428Y-92205514D01*
X55858333Y-55786467D02*
X55574999Y-55381705D01*
X55372618Y-55786467D02*
X55372618Y-54936467D01*
X55372618Y-54936467D02*
X55696428Y-54936467D01*
X55696428Y-54936467D02*
X55777380Y-54976943D01*
X55777380Y-54976943D02*
X55817857Y-55017419D01*
X55817857Y-55017419D02*
X55858333Y-55098371D01*
X55858333Y-55098371D02*
X55858333Y-55219800D01*
X55858333Y-55219800D02*
X55817857Y-55300752D01*
X55817857Y-55300752D02*
X55777380Y-55341229D01*
X55777380Y-55341229D02*
X55696428Y-55381705D01*
X55696428Y-55381705D02*
X55372618Y-55381705D01*
X56586904Y-54936467D02*
X56424999Y-54936467D01*
X56424999Y-54936467D02*
X56344047Y-54976943D01*
X56344047Y-54976943D02*
X56303571Y-55017419D01*
X56303571Y-55017419D02*
X56222618Y-55138848D01*
X56222618Y-55138848D02*
X56182142Y-55300752D01*
X56182142Y-55300752D02*
X56182142Y-55624562D01*
X56182142Y-55624562D02*
X56222618Y-55705514D01*
X56222618Y-55705514D02*
X56263095Y-55745991D01*
X56263095Y-55745991D02*
X56344047Y-55786467D01*
X56344047Y-55786467D02*
X56505952Y-55786467D01*
X56505952Y-55786467D02*
X56586904Y-55745991D01*
X56586904Y-55745991D02*
X56627380Y-55705514D01*
X56627380Y-55705514D02*
X56667857Y-55624562D01*
X56667857Y-55624562D02*
X56667857Y-55422181D01*
X56667857Y-55422181D02*
X56627380Y-55341229D01*
X56627380Y-55341229D02*
X56586904Y-55300752D01*
X56586904Y-55300752D02*
X56505952Y-55260276D01*
X56505952Y-55260276D02*
X56344047Y-55260276D01*
X56344047Y-55260276D02*
X56263095Y-55300752D01*
X56263095Y-55300752D02*
X56222618Y-55341229D01*
X56222618Y-55341229D02*
X56182142Y-55422181D01*
X57453571Y-75705514D02*
X57413095Y-75745991D01*
X57413095Y-75745991D02*
X57291666Y-75786467D01*
X57291666Y-75786467D02*
X57210714Y-75786467D01*
X57210714Y-75786467D02*
X57089285Y-75745991D01*
X57089285Y-75745991D02*
X57008333Y-75665038D01*
X57008333Y-75665038D02*
X56967856Y-75584086D01*
X56967856Y-75584086D02*
X56927380Y-75422181D01*
X56927380Y-75422181D02*
X56927380Y-75300752D01*
X56927380Y-75300752D02*
X56967856Y-75138848D01*
X56967856Y-75138848D02*
X57008333Y-75057895D01*
X57008333Y-75057895D02*
X57089285Y-74976943D01*
X57089285Y-74976943D02*
X57210714Y-74936467D01*
X57210714Y-74936467D02*
X57291666Y-74936467D01*
X57291666Y-74936467D02*
X57413095Y-74976943D01*
X57413095Y-74976943D02*
X57453571Y-75017419D01*
X58263095Y-75786467D02*
X57777380Y-75786467D01*
X58020237Y-75786467D02*
X58020237Y-74936467D01*
X58020237Y-74936467D02*
X57939285Y-75057895D01*
X57939285Y-75057895D02*
X57858333Y-75138848D01*
X57858333Y-75138848D02*
X57777380Y-75179324D01*
X59032142Y-74936467D02*
X58627380Y-74936467D01*
X58627380Y-74936467D02*
X58586904Y-75341229D01*
X58586904Y-75341229D02*
X58627380Y-75300752D01*
X58627380Y-75300752D02*
X58708333Y-75260276D01*
X58708333Y-75260276D02*
X58910714Y-75260276D01*
X58910714Y-75260276D02*
X58991666Y-75300752D01*
X58991666Y-75300752D02*
X59032142Y-75341229D01*
X59032142Y-75341229D02*
X59072619Y-75422181D01*
X59072619Y-75422181D02*
X59072619Y-75624562D01*
X59072619Y-75624562D02*
X59032142Y-75705514D01*
X59032142Y-75705514D02*
X58991666Y-75745991D01*
X58991666Y-75745991D02*
X58910714Y-75786467D01*
X58910714Y-75786467D02*
X58708333Y-75786467D01*
X58708333Y-75786467D02*
X58627380Y-75745991D01*
X58627380Y-75745991D02*
X58586904Y-75705514D01*
X50858333Y-59786467D02*
X50574999Y-59381705D01*
X50372618Y-59786467D02*
X50372618Y-58936467D01*
X50372618Y-58936467D02*
X50696428Y-58936467D01*
X50696428Y-58936467D02*
X50777380Y-58976943D01*
X50777380Y-58976943D02*
X50817857Y-59017419D01*
X50817857Y-59017419D02*
X50858333Y-59098371D01*
X50858333Y-59098371D02*
X50858333Y-59219800D01*
X50858333Y-59219800D02*
X50817857Y-59300752D01*
X50817857Y-59300752D02*
X50777380Y-59341229D01*
X50777380Y-59341229D02*
X50696428Y-59381705D01*
X50696428Y-59381705D02*
X50372618Y-59381705D01*
X51586904Y-59219800D02*
X51586904Y-59786467D01*
X51384523Y-58895991D02*
X51182142Y-59503133D01*
X51182142Y-59503133D02*
X51708333Y-59503133D01*
X88459047Y-34367419D02*
X88378095Y-34326943D01*
X88378095Y-34326943D02*
X88297142Y-34245991D01*
X88297142Y-34245991D02*
X88175714Y-34124562D01*
X88175714Y-34124562D02*
X88094761Y-34084086D01*
X88094761Y-34084086D02*
X88013809Y-34084086D01*
X88054285Y-34286467D02*
X87973333Y-34245991D01*
X87973333Y-34245991D02*
X87892380Y-34165038D01*
X87892380Y-34165038D02*
X87851904Y-34003133D01*
X87851904Y-34003133D02*
X87851904Y-33719800D01*
X87851904Y-33719800D02*
X87892380Y-33557895D01*
X87892380Y-33557895D02*
X87973333Y-33476943D01*
X87973333Y-33476943D02*
X88054285Y-33436467D01*
X88054285Y-33436467D02*
X88216190Y-33436467D01*
X88216190Y-33436467D02*
X88297142Y-33476943D01*
X88297142Y-33476943D02*
X88378095Y-33557895D01*
X88378095Y-33557895D02*
X88418571Y-33719800D01*
X88418571Y-33719800D02*
X88418571Y-34003133D01*
X88418571Y-34003133D02*
X88378095Y-34165038D01*
X88378095Y-34165038D02*
X88297142Y-34245991D01*
X88297142Y-34245991D02*
X88216190Y-34286467D01*
X88216190Y-34286467D02*
X88054285Y-34286467D01*
X89228095Y-34286467D02*
X88742380Y-34286467D01*
X88985237Y-34286467D02*
X88985237Y-33436467D01*
X88985237Y-33436467D02*
X88904285Y-33557895D01*
X88904285Y-33557895D02*
X88823333Y-33638848D01*
X88823333Y-33638848D02*
X88742380Y-33679324D01*
X55453571Y-67705514D02*
X55413095Y-67745991D01*
X55413095Y-67745991D02*
X55291666Y-67786467D01*
X55291666Y-67786467D02*
X55210714Y-67786467D01*
X55210714Y-67786467D02*
X55089285Y-67745991D01*
X55089285Y-67745991D02*
X55008333Y-67665038D01*
X55008333Y-67665038D02*
X54967856Y-67584086D01*
X54967856Y-67584086D02*
X54927380Y-67422181D01*
X54927380Y-67422181D02*
X54927380Y-67300752D01*
X54927380Y-67300752D02*
X54967856Y-67138848D01*
X54967856Y-67138848D02*
X55008333Y-67057895D01*
X55008333Y-67057895D02*
X55089285Y-66976943D01*
X55089285Y-66976943D02*
X55210714Y-66936467D01*
X55210714Y-66936467D02*
X55291666Y-66936467D01*
X55291666Y-66936467D02*
X55413095Y-66976943D01*
X55413095Y-66976943D02*
X55453571Y-67017419D01*
X56263095Y-67786467D02*
X55777380Y-67786467D01*
X56020237Y-67786467D02*
X56020237Y-66936467D01*
X56020237Y-66936467D02*
X55939285Y-67057895D01*
X55939285Y-67057895D02*
X55858333Y-67138848D01*
X55858333Y-67138848D02*
X55777380Y-67179324D01*
X56546428Y-66936467D02*
X57113095Y-66936467D01*
X57113095Y-66936467D02*
X56748809Y-67786467D01*
X72558333Y-87105514D02*
X72517857Y-87145991D01*
X72517857Y-87145991D02*
X72396428Y-87186467D01*
X72396428Y-87186467D02*
X72315476Y-87186467D01*
X72315476Y-87186467D02*
X72194047Y-87145991D01*
X72194047Y-87145991D02*
X72113095Y-87065038D01*
X72113095Y-87065038D02*
X72072618Y-86984086D01*
X72072618Y-86984086D02*
X72032142Y-86822181D01*
X72032142Y-86822181D02*
X72032142Y-86700752D01*
X72032142Y-86700752D02*
X72072618Y-86538848D01*
X72072618Y-86538848D02*
X72113095Y-86457895D01*
X72113095Y-86457895D02*
X72194047Y-86376943D01*
X72194047Y-86376943D02*
X72315476Y-86336467D01*
X72315476Y-86336467D02*
X72396428Y-86336467D01*
X72396428Y-86336467D02*
X72517857Y-86376943D01*
X72517857Y-86376943D02*
X72558333Y-86417419D01*
X72841666Y-86336467D02*
X73408333Y-86336467D01*
X73408333Y-86336467D02*
X73044047Y-87186467D01*
X75858333Y-31705514D02*
X75817857Y-31745991D01*
X75817857Y-31745991D02*
X75696428Y-31786467D01*
X75696428Y-31786467D02*
X75615476Y-31786467D01*
X75615476Y-31786467D02*
X75494047Y-31745991D01*
X75494047Y-31745991D02*
X75413095Y-31665038D01*
X75413095Y-31665038D02*
X75372618Y-31584086D01*
X75372618Y-31584086D02*
X75332142Y-31422181D01*
X75332142Y-31422181D02*
X75332142Y-31300752D01*
X75332142Y-31300752D02*
X75372618Y-31138848D01*
X75372618Y-31138848D02*
X75413095Y-31057895D01*
X75413095Y-31057895D02*
X75494047Y-30976943D01*
X75494047Y-30976943D02*
X75615476Y-30936467D01*
X75615476Y-30936467D02*
X75696428Y-30936467D01*
X75696428Y-30936467D02*
X75817857Y-30976943D01*
X75817857Y-30976943D02*
X75858333Y-31017419D01*
X76141666Y-30936467D02*
X76667857Y-30936467D01*
X76667857Y-30936467D02*
X76384523Y-31260276D01*
X76384523Y-31260276D02*
X76505952Y-31260276D01*
X76505952Y-31260276D02*
X76586904Y-31300752D01*
X76586904Y-31300752D02*
X76627380Y-31341229D01*
X76627380Y-31341229D02*
X76667857Y-31422181D01*
X76667857Y-31422181D02*
X76667857Y-31624562D01*
X76667857Y-31624562D02*
X76627380Y-31705514D01*
X76627380Y-31705514D02*
X76586904Y-31745991D01*
X76586904Y-31745991D02*
X76505952Y-31786467D01*
X76505952Y-31786467D02*
X76263095Y-31786467D01*
X76263095Y-31786467D02*
X76182142Y-31745991D01*
X76182142Y-31745991D02*
X76141666Y-31705514D01*
X75858333Y-52705514D02*
X75817857Y-52745991D01*
X75817857Y-52745991D02*
X75696428Y-52786467D01*
X75696428Y-52786467D02*
X75615476Y-52786467D01*
X75615476Y-52786467D02*
X75494047Y-52745991D01*
X75494047Y-52745991D02*
X75413095Y-52665038D01*
X75413095Y-52665038D02*
X75372618Y-52584086D01*
X75372618Y-52584086D02*
X75332142Y-52422181D01*
X75332142Y-52422181D02*
X75332142Y-52300752D01*
X75332142Y-52300752D02*
X75372618Y-52138848D01*
X75372618Y-52138848D02*
X75413095Y-52057895D01*
X75413095Y-52057895D02*
X75494047Y-51976943D01*
X75494047Y-51976943D02*
X75615476Y-51936467D01*
X75615476Y-51936467D02*
X75696428Y-51936467D01*
X75696428Y-51936467D02*
X75817857Y-51976943D01*
X75817857Y-51976943D02*
X75858333Y-52017419D01*
X76586904Y-52219800D02*
X76586904Y-52786467D01*
X76384523Y-51895991D02*
X76182142Y-52503133D01*
X76182142Y-52503133D02*
X76708333Y-52503133D01*
X52453571Y-75705514D02*
X52413095Y-75745991D01*
X52413095Y-75745991D02*
X52291666Y-75786467D01*
X52291666Y-75786467D02*
X52210714Y-75786467D01*
X52210714Y-75786467D02*
X52089285Y-75745991D01*
X52089285Y-75745991D02*
X52008333Y-75665038D01*
X52008333Y-75665038D02*
X51967856Y-75584086D01*
X51967856Y-75584086D02*
X51927380Y-75422181D01*
X51927380Y-75422181D02*
X51927380Y-75300752D01*
X51927380Y-75300752D02*
X51967856Y-75138848D01*
X51967856Y-75138848D02*
X52008333Y-75057895D01*
X52008333Y-75057895D02*
X52089285Y-74976943D01*
X52089285Y-74976943D02*
X52210714Y-74936467D01*
X52210714Y-74936467D02*
X52291666Y-74936467D01*
X52291666Y-74936467D02*
X52413095Y-74976943D01*
X52413095Y-74976943D02*
X52453571Y-75017419D01*
X53263095Y-75786467D02*
X52777380Y-75786467D01*
X53020237Y-75786467D02*
X53020237Y-74936467D01*
X53020237Y-74936467D02*
X52939285Y-75057895D01*
X52939285Y-75057895D02*
X52858333Y-75138848D01*
X52858333Y-75138848D02*
X52777380Y-75179324D01*
X53991666Y-74936467D02*
X53829761Y-74936467D01*
X53829761Y-74936467D02*
X53748809Y-74976943D01*
X53748809Y-74976943D02*
X53708333Y-75017419D01*
X53708333Y-75017419D02*
X53627380Y-75138848D01*
X53627380Y-75138848D02*
X53586904Y-75300752D01*
X53586904Y-75300752D02*
X53586904Y-75624562D01*
X53586904Y-75624562D02*
X53627380Y-75705514D01*
X53627380Y-75705514D02*
X53667857Y-75745991D01*
X53667857Y-75745991D02*
X53748809Y-75786467D01*
X53748809Y-75786467D02*
X53910714Y-75786467D01*
X53910714Y-75786467D02*
X53991666Y-75745991D01*
X53991666Y-75745991D02*
X54032142Y-75705514D01*
X54032142Y-75705514D02*
X54072619Y-75624562D01*
X54072619Y-75624562D02*
X54072619Y-75422181D01*
X54072619Y-75422181D02*
X54032142Y-75341229D01*
X54032142Y-75341229D02*
X53991666Y-75300752D01*
X53991666Y-75300752D02*
X53910714Y-75260276D01*
X53910714Y-75260276D02*
X53748809Y-75260276D01*
X53748809Y-75260276D02*
X53667857Y-75300752D01*
X53667857Y-75300752D02*
X53627380Y-75341229D01*
X53627380Y-75341229D02*
X53586904Y-75422181D01*
X42858333Y-40786467D02*
X42574999Y-40381705D01*
X42372618Y-40786467D02*
X42372618Y-39936467D01*
X42372618Y-39936467D02*
X42696428Y-39936467D01*
X42696428Y-39936467D02*
X42777380Y-39976943D01*
X42777380Y-39976943D02*
X42817857Y-40017419D01*
X42817857Y-40017419D02*
X42858333Y-40098371D01*
X42858333Y-40098371D02*
X42858333Y-40219800D01*
X42858333Y-40219800D02*
X42817857Y-40300752D01*
X42817857Y-40300752D02*
X42777380Y-40341229D01*
X42777380Y-40341229D02*
X42696428Y-40381705D01*
X42696428Y-40381705D02*
X42372618Y-40381705D01*
X43667857Y-40786467D02*
X43182142Y-40786467D01*
X43424999Y-40786467D02*
X43424999Y-39936467D01*
X43424999Y-39936467D02*
X43344047Y-40057895D01*
X43344047Y-40057895D02*
X43263095Y-40138848D01*
X43263095Y-40138848D02*
X43182142Y-40179324D01*
X54953571Y-87105514D02*
X54913095Y-87145991D01*
X54913095Y-87145991D02*
X54791666Y-87186467D01*
X54791666Y-87186467D02*
X54710714Y-87186467D01*
X54710714Y-87186467D02*
X54589285Y-87145991D01*
X54589285Y-87145991D02*
X54508333Y-87065038D01*
X54508333Y-87065038D02*
X54467856Y-86984086D01*
X54467856Y-86984086D02*
X54427380Y-86822181D01*
X54427380Y-86822181D02*
X54427380Y-86700752D01*
X54427380Y-86700752D02*
X54467856Y-86538848D01*
X54467856Y-86538848D02*
X54508333Y-86457895D01*
X54508333Y-86457895D02*
X54589285Y-86376943D01*
X54589285Y-86376943D02*
X54710714Y-86336467D01*
X54710714Y-86336467D02*
X54791666Y-86336467D01*
X54791666Y-86336467D02*
X54913095Y-86376943D01*
X54913095Y-86376943D02*
X54953571Y-86417419D01*
X55763095Y-87186467D02*
X55277380Y-87186467D01*
X55520237Y-87186467D02*
X55520237Y-86336467D01*
X55520237Y-86336467D02*
X55439285Y-86457895D01*
X55439285Y-86457895D02*
X55358333Y-86538848D01*
X55358333Y-86538848D02*
X55277380Y-86579324D01*
X56572619Y-87186467D02*
X56086904Y-87186467D01*
X56329761Y-87186467D02*
X56329761Y-86336467D01*
X56329761Y-86336467D02*
X56248809Y-86457895D01*
X56248809Y-86457895D02*
X56167857Y-86538848D01*
X56167857Y-86538848D02*
X56086904Y-86579324D01*
X63352380Y-34136467D02*
X63352380Y-34824562D01*
X63352380Y-34824562D02*
X63392857Y-34905514D01*
X63392857Y-34905514D02*
X63433333Y-34945991D01*
X63433333Y-34945991D02*
X63514285Y-34986467D01*
X63514285Y-34986467D02*
X63676190Y-34986467D01*
X63676190Y-34986467D02*
X63757142Y-34945991D01*
X63757142Y-34945991D02*
X63797619Y-34905514D01*
X63797619Y-34905514D02*
X63838095Y-34824562D01*
X63838095Y-34824562D02*
X63838095Y-34136467D01*
X64688095Y-34986467D02*
X64202380Y-34986467D01*
X64445237Y-34986467D02*
X64445237Y-34136467D01*
X64445237Y-34136467D02*
X64364285Y-34257895D01*
X64364285Y-34257895D02*
X64283333Y-34338848D01*
X64283333Y-34338848D02*
X64202380Y-34379324D01*
X50858333Y-41786467D02*
X50574999Y-41381705D01*
X50372618Y-41786467D02*
X50372618Y-40936467D01*
X50372618Y-40936467D02*
X50696428Y-40936467D01*
X50696428Y-40936467D02*
X50777380Y-40976943D01*
X50777380Y-40976943D02*
X50817857Y-41017419D01*
X50817857Y-41017419D02*
X50858333Y-41098371D01*
X50858333Y-41098371D02*
X50858333Y-41219800D01*
X50858333Y-41219800D02*
X50817857Y-41300752D01*
X50817857Y-41300752D02*
X50777380Y-41341229D01*
X50777380Y-41341229D02*
X50696428Y-41381705D01*
X50696428Y-41381705D02*
X50372618Y-41381705D01*
X51182142Y-41017419D02*
X51222618Y-40976943D01*
X51222618Y-40976943D02*
X51303571Y-40936467D01*
X51303571Y-40936467D02*
X51505952Y-40936467D01*
X51505952Y-40936467D02*
X51586904Y-40976943D01*
X51586904Y-40976943D02*
X51627380Y-41017419D01*
X51627380Y-41017419D02*
X51667857Y-41098371D01*
X51667857Y-41098371D02*
X51667857Y-41179324D01*
X51667857Y-41179324D02*
X51627380Y-41300752D01*
X51627380Y-41300752D02*
X51141666Y-41786467D01*
X51141666Y-41786467D02*
X51667857Y-41786467D01*
X63352380Y-54136467D02*
X63352380Y-54824562D01*
X63352380Y-54824562D02*
X63392857Y-54905514D01*
X63392857Y-54905514D02*
X63433333Y-54945991D01*
X63433333Y-54945991D02*
X63514285Y-54986467D01*
X63514285Y-54986467D02*
X63676190Y-54986467D01*
X63676190Y-54986467D02*
X63757142Y-54945991D01*
X63757142Y-54945991D02*
X63797619Y-54905514D01*
X63797619Y-54905514D02*
X63838095Y-54824562D01*
X63838095Y-54824562D02*
X63838095Y-54136467D01*
X64202380Y-54217419D02*
X64242856Y-54176943D01*
X64242856Y-54176943D02*
X64323809Y-54136467D01*
X64323809Y-54136467D02*
X64526190Y-54136467D01*
X64526190Y-54136467D02*
X64607142Y-54176943D01*
X64607142Y-54176943D02*
X64647618Y-54217419D01*
X64647618Y-54217419D02*
X64688095Y-54298371D01*
X64688095Y-54298371D02*
X64688095Y-54379324D01*
X64688095Y-54379324D02*
X64647618Y-54500752D01*
X64647618Y-54500752D02*
X64161904Y-54986467D01*
X64161904Y-54986467D02*
X64688095Y-54986467D01*
X103453571Y-82786467D02*
X103170237Y-82381705D01*
X102967856Y-82786467D02*
X102967856Y-81936467D01*
X102967856Y-81936467D02*
X103291666Y-81936467D01*
X103291666Y-81936467D02*
X103372618Y-81976943D01*
X103372618Y-81976943D02*
X103413095Y-82017419D01*
X103413095Y-82017419D02*
X103453571Y-82098371D01*
X103453571Y-82098371D02*
X103453571Y-82219800D01*
X103453571Y-82219800D02*
X103413095Y-82300752D01*
X103413095Y-82300752D02*
X103372618Y-82341229D01*
X103372618Y-82341229D02*
X103291666Y-82381705D01*
X103291666Y-82381705D02*
X102967856Y-82381705D01*
X104263095Y-82786467D02*
X103777380Y-82786467D01*
X104020237Y-82786467D02*
X104020237Y-81936467D01*
X104020237Y-81936467D02*
X103939285Y-82057895D01*
X103939285Y-82057895D02*
X103858333Y-82138848D01*
X103858333Y-82138848D02*
X103777380Y-82179324D01*
X104789285Y-81936467D02*
X104870238Y-81936467D01*
X104870238Y-81936467D02*
X104951190Y-81976943D01*
X104951190Y-81976943D02*
X104991666Y-82017419D01*
X104991666Y-82017419D02*
X105032142Y-82098371D01*
X105032142Y-82098371D02*
X105072619Y-82260276D01*
X105072619Y-82260276D02*
X105072619Y-82462657D01*
X105072619Y-82462657D02*
X105032142Y-82624562D01*
X105032142Y-82624562D02*
X104991666Y-82705514D01*
X104991666Y-82705514D02*
X104951190Y-82745991D01*
X104951190Y-82745991D02*
X104870238Y-82786467D01*
X104870238Y-82786467D02*
X104789285Y-82786467D01*
X104789285Y-82786467D02*
X104708333Y-82745991D01*
X104708333Y-82745991D02*
X104667857Y-82705514D01*
X104667857Y-82705514D02*
X104627380Y-82624562D01*
X104627380Y-82624562D02*
X104586904Y-82462657D01*
X104586904Y-82462657D02*
X104586904Y-82260276D01*
X104586904Y-82260276D02*
X104627380Y-82098371D01*
X104627380Y-82098371D02*
X104667857Y-82017419D01*
X104667857Y-82017419D02*
X104708333Y-81976943D01*
X104708333Y-81976943D02*
X104789285Y-81936467D01*
X81453571Y-92205514D02*
X81413095Y-92245991D01*
X81413095Y-92245991D02*
X81291666Y-92286467D01*
X81291666Y-92286467D02*
X81210714Y-92286467D01*
X81210714Y-92286467D02*
X81089285Y-92245991D01*
X81089285Y-92245991D02*
X81008333Y-92165038D01*
X81008333Y-92165038D02*
X80967856Y-92084086D01*
X80967856Y-92084086D02*
X80927380Y-91922181D01*
X80927380Y-91922181D02*
X80927380Y-91800752D01*
X80927380Y-91800752D02*
X80967856Y-91638848D01*
X80967856Y-91638848D02*
X81008333Y-91557895D01*
X81008333Y-91557895D02*
X81089285Y-91476943D01*
X81089285Y-91476943D02*
X81210714Y-91436467D01*
X81210714Y-91436467D02*
X81291666Y-91436467D01*
X81291666Y-91436467D02*
X81413095Y-91476943D01*
X81413095Y-91476943D02*
X81453571Y-91517419D01*
X82263095Y-92286467D02*
X81777380Y-92286467D01*
X82020237Y-92286467D02*
X82020237Y-91436467D01*
X82020237Y-91436467D02*
X81939285Y-91557895D01*
X81939285Y-91557895D02*
X81858333Y-91638848D01*
X81858333Y-91638848D02*
X81777380Y-91679324D01*
X82667857Y-92286467D02*
X82829761Y-92286467D01*
X82829761Y-92286467D02*
X82910714Y-92245991D01*
X82910714Y-92245991D02*
X82951190Y-92205514D01*
X82951190Y-92205514D02*
X83032142Y-92084086D01*
X83032142Y-92084086D02*
X83072619Y-91922181D01*
X83072619Y-91922181D02*
X83072619Y-91598371D01*
X83072619Y-91598371D02*
X83032142Y-91517419D01*
X83032142Y-91517419D02*
X82991666Y-91476943D01*
X82991666Y-91476943D02*
X82910714Y-91436467D01*
X82910714Y-91436467D02*
X82748809Y-91436467D01*
X82748809Y-91436467D02*
X82667857Y-91476943D01*
X82667857Y-91476943D02*
X82627380Y-91517419D01*
X82627380Y-91517419D02*
X82586904Y-91598371D01*
X82586904Y-91598371D02*
X82586904Y-91800752D01*
X82586904Y-91800752D02*
X82627380Y-91881705D01*
X82627380Y-91881705D02*
X82667857Y-91922181D01*
X82667857Y-91922181D02*
X82748809Y-91962657D01*
X82748809Y-91962657D02*
X82910714Y-91962657D01*
X82910714Y-91962657D02*
X82991666Y-91922181D01*
X82991666Y-91922181D02*
X83032142Y-91881705D01*
X83032142Y-91881705D02*
X83072619Y-91800752D01*
X47453571Y-67786467D02*
X47170237Y-67381705D01*
X46967856Y-67786467D02*
X46967856Y-66936467D01*
X46967856Y-66936467D02*
X47291666Y-66936467D01*
X47291666Y-66936467D02*
X47372618Y-66976943D01*
X47372618Y-66976943D02*
X47413095Y-67017419D01*
X47413095Y-67017419D02*
X47453571Y-67098371D01*
X47453571Y-67098371D02*
X47453571Y-67219800D01*
X47453571Y-67219800D02*
X47413095Y-67300752D01*
X47413095Y-67300752D02*
X47372618Y-67341229D01*
X47372618Y-67341229D02*
X47291666Y-67381705D01*
X47291666Y-67381705D02*
X46967856Y-67381705D01*
X48263095Y-67786467D02*
X47777380Y-67786467D01*
X48020237Y-67786467D02*
X48020237Y-66936467D01*
X48020237Y-66936467D02*
X47939285Y-67057895D01*
X47939285Y-67057895D02*
X47858333Y-67138848D01*
X47858333Y-67138848D02*
X47777380Y-67179324D01*
X49032142Y-66936467D02*
X48627380Y-66936467D01*
X48627380Y-66936467D02*
X48586904Y-67341229D01*
X48586904Y-67341229D02*
X48627380Y-67300752D01*
X48627380Y-67300752D02*
X48708333Y-67260276D01*
X48708333Y-67260276D02*
X48910714Y-67260276D01*
X48910714Y-67260276D02*
X48991666Y-67300752D01*
X48991666Y-67300752D02*
X49032142Y-67341229D01*
X49032142Y-67341229D02*
X49072619Y-67422181D01*
X49072619Y-67422181D02*
X49072619Y-67624562D01*
X49072619Y-67624562D02*
X49032142Y-67705514D01*
X49032142Y-67705514D02*
X48991666Y-67745991D01*
X48991666Y-67745991D02*
X48910714Y-67786467D01*
X48910714Y-67786467D02*
X48708333Y-67786467D01*
X48708333Y-67786467D02*
X48627380Y-67745991D01*
X48627380Y-67745991D02*
X48586904Y-67705514D01*
X41453571Y-72786467D02*
X41170237Y-72381705D01*
X40967856Y-72786467D02*
X40967856Y-71936467D01*
X40967856Y-71936467D02*
X41291666Y-71936467D01*
X41291666Y-71936467D02*
X41372618Y-71976943D01*
X41372618Y-71976943D02*
X41413095Y-72017419D01*
X41413095Y-72017419D02*
X41453571Y-72098371D01*
X41453571Y-72098371D02*
X41453571Y-72219800D01*
X41453571Y-72219800D02*
X41413095Y-72300752D01*
X41413095Y-72300752D02*
X41372618Y-72341229D01*
X41372618Y-72341229D02*
X41291666Y-72381705D01*
X41291666Y-72381705D02*
X40967856Y-72381705D01*
X42263095Y-72786467D02*
X41777380Y-72786467D01*
X42020237Y-72786467D02*
X42020237Y-71936467D01*
X42020237Y-71936467D02*
X41939285Y-72057895D01*
X41939285Y-72057895D02*
X41858333Y-72138848D01*
X41858333Y-72138848D02*
X41777380Y-72179324D01*
X42991666Y-71936467D02*
X42829761Y-71936467D01*
X42829761Y-71936467D02*
X42748809Y-71976943D01*
X42748809Y-71976943D02*
X42708333Y-72017419D01*
X42708333Y-72017419D02*
X42627380Y-72138848D01*
X42627380Y-72138848D02*
X42586904Y-72300752D01*
X42586904Y-72300752D02*
X42586904Y-72624562D01*
X42586904Y-72624562D02*
X42627380Y-72705514D01*
X42627380Y-72705514D02*
X42667857Y-72745991D01*
X42667857Y-72745991D02*
X42748809Y-72786467D01*
X42748809Y-72786467D02*
X42910714Y-72786467D01*
X42910714Y-72786467D02*
X42991666Y-72745991D01*
X42991666Y-72745991D02*
X43032142Y-72705514D01*
X43032142Y-72705514D02*
X43072619Y-72624562D01*
X43072619Y-72624562D02*
X43072619Y-72422181D01*
X43072619Y-72422181D02*
X43032142Y-72341229D01*
X43032142Y-72341229D02*
X42991666Y-72300752D01*
X42991666Y-72300752D02*
X42910714Y-72260276D01*
X42910714Y-72260276D02*
X42748809Y-72260276D01*
X42748809Y-72260276D02*
X42667857Y-72300752D01*
X42667857Y-72300752D02*
X42627380Y-72341229D01*
X42627380Y-72341229D02*
X42586904Y-72422181D01*
X36453571Y-72705514D02*
X36413095Y-72745991D01*
X36413095Y-72745991D02*
X36291666Y-72786467D01*
X36291666Y-72786467D02*
X36210714Y-72786467D01*
X36210714Y-72786467D02*
X36089285Y-72745991D01*
X36089285Y-72745991D02*
X36008333Y-72665038D01*
X36008333Y-72665038D02*
X35967856Y-72584086D01*
X35967856Y-72584086D02*
X35927380Y-72422181D01*
X35927380Y-72422181D02*
X35927380Y-72300752D01*
X35927380Y-72300752D02*
X35967856Y-72138848D01*
X35967856Y-72138848D02*
X36008333Y-72057895D01*
X36008333Y-72057895D02*
X36089285Y-71976943D01*
X36089285Y-71976943D02*
X36210714Y-71936467D01*
X36210714Y-71936467D02*
X36291666Y-71936467D01*
X36291666Y-71936467D02*
X36413095Y-71976943D01*
X36413095Y-71976943D02*
X36453571Y-72017419D01*
X37263095Y-72786467D02*
X36777380Y-72786467D01*
X37020237Y-72786467D02*
X37020237Y-71936467D01*
X37020237Y-71936467D02*
X36939285Y-72057895D01*
X36939285Y-72057895D02*
X36858333Y-72138848D01*
X36858333Y-72138848D02*
X36777380Y-72179324D01*
X37748809Y-72300752D02*
X37667857Y-72260276D01*
X37667857Y-72260276D02*
X37627380Y-72219800D01*
X37627380Y-72219800D02*
X37586904Y-72138848D01*
X37586904Y-72138848D02*
X37586904Y-72098371D01*
X37586904Y-72098371D02*
X37627380Y-72017419D01*
X37627380Y-72017419D02*
X37667857Y-71976943D01*
X37667857Y-71976943D02*
X37748809Y-71936467D01*
X37748809Y-71936467D02*
X37910714Y-71936467D01*
X37910714Y-71936467D02*
X37991666Y-71976943D01*
X37991666Y-71976943D02*
X38032142Y-72017419D01*
X38032142Y-72017419D02*
X38072619Y-72098371D01*
X38072619Y-72098371D02*
X38072619Y-72138848D01*
X38072619Y-72138848D02*
X38032142Y-72219800D01*
X38032142Y-72219800D02*
X37991666Y-72260276D01*
X37991666Y-72260276D02*
X37910714Y-72300752D01*
X37910714Y-72300752D02*
X37748809Y-72300752D01*
X37748809Y-72300752D02*
X37667857Y-72341229D01*
X37667857Y-72341229D02*
X37627380Y-72381705D01*
X37627380Y-72381705D02*
X37586904Y-72462657D01*
X37586904Y-72462657D02*
X37586904Y-72624562D01*
X37586904Y-72624562D02*
X37627380Y-72705514D01*
X37627380Y-72705514D02*
X37667857Y-72745991D01*
X37667857Y-72745991D02*
X37748809Y-72786467D01*
X37748809Y-72786467D02*
X37910714Y-72786467D01*
X37910714Y-72786467D02*
X37991666Y-72745991D01*
X37991666Y-72745991D02*
X38032142Y-72705514D01*
X38032142Y-72705514D02*
X38072619Y-72624562D01*
X38072619Y-72624562D02*
X38072619Y-72462657D01*
X38072619Y-72462657D02*
X38032142Y-72381705D01*
X38032142Y-72381705D02*
X37991666Y-72341229D01*
X37991666Y-72341229D02*
X37910714Y-72300752D01*
%TO.C,C14*%
D12*
X77265000Y-84261252D02*
X77265000Y-83738748D01*
X78735000Y-84261252D02*
X78735000Y-83738748D01*
%TO.C,C6*%
X76265000Y-94761252D02*
X76265000Y-94238748D01*
X77735000Y-94761252D02*
X77735000Y-94238748D01*
%TO.C,C12*%
X49765000Y-89661252D02*
X49765000Y-89138748D01*
X51235000Y-89661252D02*
X51235000Y-89138748D01*
%TO.C,R3*%
X42772936Y-56265000D02*
X43227064Y-56265000D01*
X42772936Y-57735000D02*
X43227064Y-57735000D01*
%TO.C,C5*%
X71965000Y-94761252D02*
X71965000Y-94238748D01*
X73435000Y-94761252D02*
X73435000Y-94238748D01*
%TO.C,R12*%
X91772936Y-84265000D02*
X92227064Y-84265000D01*
X91772936Y-85735000D02*
X92227064Y-85735000D01*
%TO.C,C1*%
X57265000Y-33261252D02*
X57265000Y-32738748D01*
X58735000Y-33261252D02*
X58735000Y-32738748D01*
%TO.C,U6*%
X61940000Y-70440000D02*
X66060000Y-70440000D01*
X61940000Y-70535000D02*
X61940000Y-70440000D01*
X61940000Y-75560000D02*
X61940000Y-75465000D01*
X66060000Y-70440000D02*
X66060000Y-70535000D01*
X66060000Y-75465000D02*
X66060000Y-75560000D01*
X66060000Y-75560000D02*
X61940000Y-75560000D01*
X66840000Y-75800000D02*
X66360000Y-75800000D01*
X66600000Y-75470000D01*
X66840000Y-75800000D01*
G36*
X66840000Y-75800000D02*
G01*
X66360000Y-75800000D01*
X66600000Y-75470000D01*
X66840000Y-75800000D01*
G37*
%TO.C,R11*%
X97772936Y-84265000D02*
X98227064Y-84265000D01*
X97772936Y-85735000D02*
X98227064Y-85735000D01*
%TO.C,R5*%
X55265000Y-38227064D02*
X55265000Y-37772936D01*
X56735000Y-38227064D02*
X56735000Y-37772936D01*
%TO.C,R14*%
X49265000Y-96227064D02*
X49265000Y-95772936D01*
X50735000Y-96227064D02*
X50735000Y-95772936D01*
%TO.C,U5*%
X60140000Y-84740000D02*
X67860000Y-84740000D01*
X60140000Y-84995000D02*
X60140000Y-84740000D01*
X60140000Y-95260000D02*
X60140000Y-95005000D01*
X67860000Y-84740000D02*
X67860000Y-84995000D01*
X67860000Y-95005000D02*
X67860000Y-95260000D01*
X67860000Y-95260000D02*
X60140000Y-95260000D01*
X68990000Y-95480000D02*
X68310000Y-95480000D01*
X68650000Y-95010000D01*
X68990000Y-95480000D01*
G36*
X68990000Y-95480000D02*
G01*
X68310000Y-95480000D01*
X68650000Y-95010000D01*
X68990000Y-95480000D01*
G37*
%TO.C,C8*%
X77265000Y-89661252D02*
X77265000Y-89138748D01*
X78735000Y-89661252D02*
X78735000Y-89138748D01*
%TO.C,J2*%
X108930000Y-40170000D02*
X108930000Y-39170000D01*
X108930000Y-40170000D02*
X109930000Y-40170000D01*
X109230000Y-24510000D02*
X117870000Y-24510000D01*
X109230000Y-39860000D02*
X109230000Y-24510000D01*
X110800000Y-25470000D02*
X110800000Y-38890000D01*
X110800000Y-38890000D02*
X116100000Y-38890000D01*
X116100000Y-25470000D02*
X110800000Y-25470000D01*
X116100000Y-26220000D02*
X116100000Y-25470000D01*
X116100000Y-33860000D02*
X116100000Y-30540000D01*
X116100000Y-38890000D02*
X116100000Y-38140000D01*
X117870000Y-24510000D02*
X117870000Y-39870000D01*
X117870000Y-39870000D02*
X109230000Y-39870000D01*
X116099291Y-33859304D02*
G75*
G02*
X116100000Y-38140000I-2099291J-2140696D01*
G01*
X116100522Y-26220508D02*
G75*
G02*
X116100000Y-30540000I-2100522J-2159492D01*
G01*
%TO.C,J3*%
X108930000Y-72170000D02*
X108930000Y-71170000D01*
X108930000Y-72170000D02*
X109930000Y-72170000D01*
X109230000Y-56510000D02*
X117870000Y-56510000D01*
X109230000Y-71860000D02*
X109230000Y-56510000D01*
X110800000Y-57470000D02*
X110800000Y-70890000D01*
X110800000Y-70890000D02*
X116100000Y-70890000D01*
X116100000Y-57470000D02*
X110800000Y-57470000D01*
X116100000Y-58220000D02*
X116100000Y-57470000D01*
X116100000Y-65860000D02*
X116100000Y-62540000D01*
X116100000Y-70890000D02*
X116100000Y-70140000D01*
X117870000Y-56510000D02*
X117870000Y-71870000D01*
X117870000Y-71870000D02*
X109230000Y-71870000D01*
X116099291Y-65859304D02*
G75*
G02*
X116100000Y-70140000I-2099291J-2140696D01*
G01*
X116100522Y-58220508D02*
G75*
G02*
X116100000Y-62540000I-2100522J-2159492D01*
G01*
%TO.C,J1*%
X27620000Y-38620000D02*
X29000000Y-38620000D01*
X27620000Y-40000000D02*
X27620000Y-38620000D01*
X27620000Y-41270000D02*
X27620000Y-64240000D01*
X27620000Y-41270000D02*
X30380000Y-41270000D01*
X27620000Y-64240000D02*
X30380000Y-64240000D01*
X30380000Y-41270000D02*
X30380000Y-64240000D01*
%TO.C,C2*%
X57265000Y-53261252D02*
X57265000Y-52738748D01*
X58735000Y-53261252D02*
X58735000Y-52738748D01*
%TO.C,R13*%
X72265000Y-84227064D02*
X72265000Y-83772936D01*
X73735000Y-84227064D02*
X73735000Y-83772936D01*
%TO.C,Q2*%
X78350000Y-56640000D02*
X88570000Y-56640000D01*
X78350000Y-61260000D02*
X78350000Y-56640000D01*
X81610000Y-61260000D02*
X81610000Y-59880000D01*
X85310000Y-61260000D02*
X85310000Y-59880000D01*
X88570000Y-56640000D02*
X88570000Y-61260000D01*
X88570000Y-59880000D02*
X78350000Y-59880000D01*
X88570000Y-61260000D02*
X78350000Y-61260000D01*
%TO.C,C13*%
X54765000Y-94761252D02*
X54765000Y-94238748D01*
X56235000Y-94761252D02*
X56235000Y-94238748D01*
%TO.C,R6*%
X55265000Y-58227064D02*
X55265000Y-57772936D01*
X56735000Y-58227064D02*
X56735000Y-57772936D01*
%TO.C,C15*%
X57265000Y-78261252D02*
X57265000Y-77738748D01*
X58735000Y-78261252D02*
X58735000Y-77738748D01*
%TO.C,R4*%
X50265000Y-62227064D02*
X50265000Y-61772936D01*
X51735000Y-62227064D02*
X51735000Y-61772936D01*
%TO.C,Q1*%
X83430000Y-34740000D02*
X93650000Y-34740000D01*
X83430000Y-36120000D02*
X93650000Y-36120000D01*
X83430000Y-39360000D02*
X83430000Y-34740000D01*
X86690000Y-34740000D02*
X86690000Y-36120000D01*
X90390000Y-34740000D02*
X90390000Y-36120000D01*
X93650000Y-34740000D02*
X93650000Y-39360000D01*
X93650000Y-39360000D02*
X83430000Y-39360000D01*
%TO.C,C17*%
X55265000Y-70261252D02*
X55265000Y-69738748D01*
X56735000Y-70261252D02*
X56735000Y-69738748D01*
%TO.C,C7*%
X71965000Y-89661252D02*
X71965000Y-89138748D01*
X73435000Y-89661252D02*
X73435000Y-89138748D01*
%TO.C,C3*%
X75738748Y-33265000D02*
X76261252Y-33265000D01*
X75738748Y-34735000D02*
X76261252Y-34735000D01*
%TO.C,C4*%
X75738748Y-54265000D02*
X76261252Y-54265000D01*
X75738748Y-55735000D02*
X76261252Y-55735000D01*
%TO.C,C16*%
X52265000Y-78261252D02*
X52265000Y-77738748D01*
X53735000Y-78261252D02*
X53735000Y-77738748D01*
%TO.C,R1*%
X42772936Y-42265000D02*
X43227064Y-42265000D01*
X42772936Y-43735000D02*
X43227064Y-43735000D01*
%TO.C,C11*%
X54765000Y-89661252D02*
X54765000Y-89138748D01*
X56235000Y-89661252D02*
X56235000Y-89138748D01*
%TO.C,U1*%
X61940000Y-35440000D02*
X66060000Y-35440000D01*
X61940000Y-35535000D02*
X61940000Y-35440000D01*
X61940000Y-40560000D02*
X61940000Y-40465000D01*
X66060000Y-35440000D02*
X66060000Y-35535000D01*
X66060000Y-40465000D02*
X66060000Y-40560000D01*
X66060000Y-40560000D02*
X61940000Y-40560000D01*
X61400000Y-35530000D02*
X61160000Y-35200000D01*
X61640000Y-35200000D01*
X61400000Y-35530000D01*
G36*
X61400000Y-35530000D02*
G01*
X61160000Y-35200000D01*
X61640000Y-35200000D01*
X61400000Y-35530000D01*
G37*
%TO.C,R2*%
X50265000Y-44227064D02*
X50265000Y-43772936D01*
X51735000Y-44227064D02*
X51735000Y-43772936D01*
%TO.C,U2*%
X61940000Y-55440000D02*
X66060000Y-55440000D01*
X61940000Y-55535000D02*
X61940000Y-55440000D01*
X61940000Y-60560000D02*
X61940000Y-60465000D01*
X66060000Y-55440000D02*
X66060000Y-55535000D01*
X66060000Y-60465000D02*
X66060000Y-60560000D01*
X66060000Y-60560000D02*
X61940000Y-60560000D01*
X61400000Y-55530000D02*
X61160000Y-55200000D01*
X61640000Y-55200000D01*
X61400000Y-55530000D01*
G36*
X61400000Y-55530000D02*
G01*
X61160000Y-55200000D01*
X61640000Y-55200000D01*
X61400000Y-55530000D01*
G37*
%TO.C,R10*%
X103772936Y-84265000D02*
X104227064Y-84265000D01*
X103772936Y-85735000D02*
X104227064Y-85735000D01*
%TO.C,C19*%
X81265000Y-94761252D02*
X81265000Y-94238748D01*
X82735000Y-94761252D02*
X82735000Y-94238748D01*
%TO.C,R15*%
X47772936Y-69265000D02*
X48227064Y-69265000D01*
X47772936Y-70735000D02*
X48227064Y-70735000D01*
%TO.C,R16*%
X41265000Y-75227064D02*
X41265000Y-74772936D01*
X42735000Y-75227064D02*
X42735000Y-74772936D01*
%TO.C,C18*%
X36265000Y-75261252D02*
X36265000Y-74738748D01*
X37735000Y-75261252D02*
X37735000Y-74738748D01*
%TD*%
%LPC*%
D13*
%TO.C,C14*%
X78000000Y-84950000D03*
X78000000Y-83050000D03*
%TD*%
%TO.C,C6*%
X77000000Y-95450000D03*
X77000000Y-93550000D03*
%TD*%
%TO.C,C12*%
X50500000Y-90350000D03*
X50500000Y-88450000D03*
%TD*%
D14*
%TO.C,R3*%
X42087500Y-57000000D03*
X43912500Y-57000000D03*
%TD*%
D13*
%TO.C,C5*%
X72700000Y-95450000D03*
X72700000Y-93550000D03*
%TD*%
D14*
%TO.C,R12*%
X91087500Y-85000000D03*
X92912500Y-85000000D03*
%TD*%
D13*
%TO.C,C1*%
X58000000Y-33950000D03*
X58000000Y-32050000D03*
%TD*%
D15*
%TO.C,U6*%
X66475000Y-74905000D03*
X66475000Y-73635000D03*
X66475000Y-72365000D03*
X66475000Y-71095000D03*
X61525000Y-71095000D03*
X61525000Y-72365000D03*
X61525000Y-73635000D03*
X61525000Y-74905000D03*
%TD*%
D16*
%TO.C,H2*%
X126000000Y-24000000D03*
%TD*%
D14*
%TO.C,R11*%
X97087500Y-85000000D03*
X98912500Y-85000000D03*
%TD*%
D17*
%TO.C,R5*%
X56000000Y-38912500D03*
X56000000Y-37087500D03*
%TD*%
%TO.C,R14*%
X50000000Y-96912500D03*
X50000000Y-95087500D03*
%TD*%
D18*
%TO.C,U5*%
X68650000Y-94445000D03*
X68650000Y-93175000D03*
X68650000Y-91905000D03*
X68650000Y-90635000D03*
X68650000Y-89365000D03*
X68650000Y-88095000D03*
X68650000Y-86825000D03*
X68650000Y-85555000D03*
X59350000Y-85555000D03*
X59350000Y-86825000D03*
X59350000Y-88095000D03*
X59350000Y-89365000D03*
X59350000Y-90635000D03*
X59350000Y-91905000D03*
X59350000Y-93175000D03*
X59350000Y-94445000D03*
%TD*%
D13*
%TO.C,C8*%
X78000000Y-90350000D03*
X78000000Y-88450000D03*
%TD*%
D19*
%TO.C,J2*%
X114000000Y-36000000D03*
D20*
X114000000Y-28380000D03*
%TD*%
D16*
%TO.C,H1*%
X24000000Y-24000000D03*
%TD*%
D19*
%TO.C,J3*%
X114000000Y-68000000D03*
D20*
X114000000Y-60380000D03*
%TD*%
D21*
%TO.C,J1*%
X29000000Y-40000000D03*
D22*
X29000000Y-42540000D03*
X29000000Y-45080000D03*
X29000000Y-47620000D03*
X29000000Y-50160000D03*
X29000000Y-52700000D03*
X29000000Y-55240000D03*
X29000000Y-57780000D03*
X29000000Y-60320000D03*
X29000000Y-62860000D03*
%TD*%
D13*
%TO.C,C2*%
X58000000Y-53950000D03*
X58000000Y-52050000D03*
%TD*%
D17*
%TO.C,R13*%
X73000000Y-84912500D03*
X73000000Y-83087500D03*
%TD*%
D23*
%TO.C,Q2*%
X86000000Y-58000000D03*
D24*
X83460000Y-58000000D03*
X80920000Y-58000000D03*
%TD*%
D13*
%TO.C,C13*%
X55500000Y-95450000D03*
X55500000Y-93550000D03*
%TD*%
D17*
%TO.C,R6*%
X56000000Y-58912500D03*
X56000000Y-57087500D03*
%TD*%
D16*
%TO.C,H4*%
X126000000Y-106000000D03*
%TD*%
D13*
%TO.C,C15*%
X58000000Y-78950000D03*
X58000000Y-77050000D03*
%TD*%
D17*
%TO.C,R4*%
X51000000Y-62912500D03*
X51000000Y-61087500D03*
%TD*%
D23*
%TO.C,Q1*%
X86000000Y-38000000D03*
D24*
X88540000Y-38000000D03*
X91080000Y-38000000D03*
%TD*%
D13*
%TO.C,C17*%
X56000000Y-70950000D03*
X56000000Y-69050000D03*
%TD*%
%TO.C,C7*%
X72700000Y-90350000D03*
X72700000Y-88450000D03*
%TD*%
D25*
%TO.C,C3*%
X75050000Y-34000000D03*
X76950000Y-34000000D03*
%TD*%
%TO.C,C4*%
X75050000Y-55000000D03*
X76950000Y-55000000D03*
%TD*%
D13*
%TO.C,C16*%
X53000000Y-78950000D03*
X53000000Y-77050000D03*
%TD*%
D14*
%TO.C,R1*%
X42087500Y-43000000D03*
X43912500Y-43000000D03*
%TD*%
D13*
%TO.C,C11*%
X55500000Y-90350000D03*
X55500000Y-88450000D03*
%TD*%
D26*
%TO.C,U1*%
X61525000Y-36095000D03*
X61525000Y-37365000D03*
X61525000Y-38635000D03*
X61525000Y-39905000D03*
X66475000Y-39905000D03*
X66475000Y-38635000D03*
X66475000Y-37365000D03*
X66475000Y-36095000D03*
%TD*%
D16*
%TO.C,H3*%
X24000000Y-106000000D03*
%TD*%
D17*
%TO.C,R2*%
X51000000Y-44912500D03*
X51000000Y-43087500D03*
%TD*%
D26*
%TO.C,U2*%
X61525000Y-56095000D03*
X61525000Y-57365000D03*
X61525000Y-58635000D03*
X61525000Y-59905000D03*
X66475000Y-59905000D03*
X66475000Y-58635000D03*
X66475000Y-57365000D03*
X66475000Y-56095000D03*
%TD*%
D14*
%TO.C,R10*%
X103087500Y-85000000D03*
X104912500Y-85000000D03*
%TD*%
D13*
%TO.C,C19*%
X82000000Y-95450000D03*
X82000000Y-93550000D03*
%TD*%
D14*
%TO.C,R15*%
X47087500Y-70000000D03*
X48912500Y-70000000D03*
%TD*%
D17*
%TO.C,R16*%
X42000000Y-75912500D03*
X42000000Y-74087500D03*
%TD*%
D13*
%TO.C,C18*%
X37000000Y-75950000D03*
X37000000Y-74050000D03*
%TD*%
%LPD*%
M02*
