%TF.GenerationSoftware,KiCad,Pcbnew,9.0.3*%
%TF.CreationDate,2025-08-02T21:51:47-05:00*%
%TF.ProjectId,DMM_KiCAD_V3_next KiCAD9,444d4d5f-4b69-4434-9144-5f56335f6e65,rev?*%
%TF.SameCoordinates,Original*%
%TF.FileFunction,Profile,NP*%
%FSLAX46Y46*%
G04 Gerber Fmt 4.6, Leading zero omitted, Abs format (unit mm)*
G04 Created by KiCad (PCBNEW 9.0.3) date 2025-08-02 21:51:47*
%MOMM*%
%LPD*%
G01*
G04 APERTURE LIST*
%TA.AperFunction,Profile*%
%ADD10C,0.120000*%
%TD*%
%TA.AperFunction,Profile*%
%ADD11C,0.100000*%
%TD*%
G04 APERTURE END LIST*
D10*
X79155572Y-48342318D02*
X79409482Y-48300000D01*
D11*
X80915000Y-80375000D02*
G75*
G02*
X81915000Y-79375000I1000000J0D01*
G01*
D10*
X78711229Y-48596228D02*
X78922821Y-48448114D01*
X78922821Y-101423045D02*
X78711229Y-101253771D01*
X146899617Y-96521794D02*
X144360514Y-99060897D01*
X79409482Y-48300000D02*
X142837052Y-48300000D01*
X79155572Y-101507681D02*
X78922821Y-101423045D01*
X144318196Y-100809428D02*
X144233559Y-101042179D01*
X144233559Y-101042179D02*
X144064285Y-101253771D01*
X143852694Y-101423045D02*
X143619942Y-101507681D01*
X78415000Y-49315641D02*
X78457318Y-49040571D01*
X144360514Y-99060897D02*
X144360514Y-100555518D01*
D11*
X97155000Y-80375000D02*
X97155000Y-89805000D01*
X145500000Y-48300000D02*
X146900000Y-49800000D01*
X81915000Y-90805000D02*
G75*
G02*
X80915000Y-89805000I0J1000000D01*
G01*
D10*
X78457318Y-100809428D02*
X78415000Y-100555518D01*
X143619942Y-101507681D02*
X143366032Y-101550000D01*
D11*
X96155000Y-79375000D02*
G75*
G02*
X97155000Y-80375000I0J-1000000D01*
G01*
D10*
X144064285Y-101253771D02*
X143852694Y-101423045D01*
X78711229Y-101253771D02*
X78541955Y-101042179D01*
X79409482Y-101550000D02*
X79155572Y-101507681D01*
D11*
X109903931Y-80491437D02*
G75*
G02*
X107856995Y-80491437I-1023468J0D01*
G01*
X107856995Y-80491437D02*
G75*
G02*
X109903931Y-80491437I1023468J0D01*
G01*
X81915000Y-90805000D02*
X96155000Y-90805000D01*
D10*
X144360514Y-100555518D02*
X144318196Y-100809428D01*
X78415000Y-100555518D02*
X78415000Y-49315641D01*
D11*
X96155000Y-79375000D02*
X81915000Y-79375000D01*
X133433800Y-80422661D02*
G75*
G02*
X131386864Y-80422661I-1023468J0D01*
G01*
X131386864Y-80422661D02*
G75*
G02*
X133433800Y-80422661I1023468J0D01*
G01*
D10*
X143366032Y-101550000D02*
X79409482Y-101550000D01*
X78541955Y-48807820D02*
X78711229Y-48596228D01*
X78541955Y-101042179D02*
X78457318Y-100809428D01*
D11*
X97155000Y-89805000D02*
G75*
G02*
X96155000Y-90805000I-1000000J0D01*
G01*
X80915000Y-89805000D02*
X80915000Y-80375000D01*
X146900000Y-49800000D02*
X146899617Y-63788527D01*
D10*
X78922821Y-48448114D02*
X79155572Y-48342318D01*
X78457318Y-49040571D02*
X78541955Y-48807820D01*
D11*
X142837052Y-48300000D02*
X145500000Y-48300000D01*
D10*
X146899617Y-63788527D02*
X146899617Y-96521794D01*
M02*
