M48
; DRILL file KiCad 10.0.0 date 2026-08-19T17:40:11
; FORMAT={-:-/ absolute / inch / decimal}
; #@! TF.CreationDate,2026-08-19T17:40:11-05:00
; #@! TF.GenerationSoftware,Kicad,Pcbnew,10.0.0
; #@! TF.FileFunction,Plated,1,4,PTH
FMAT,2
INCH
; #@! TA.AperFunction,Plated,PTH,ViaDrill
T1C0.0118
; #@! TA.AperFunction,Plated,PTH,ComponentDrill
T2C0.0256
; #@! TA.AperFunction,Plated,PTH,ComponentDrill
T3C0.0394
; #@! TA.AperFunction,Plated,PTH,ComponentDrill
T4C0.0453
%
G90
G05
T1
X5.815Y-3.145
X5.875Y-3.85
X5.8875Y-3.7225
X5.905Y-3.485
X5.92Y-3.99
X6.05Y-3.57
X6.2025Y-3.6125
X6.35Y-3.73
X6.465Y-3.615
X6.65Y-3.61
T2
X6.665Y-3.495
X6.665Y-3.545
T3
X5.935Y-2.665
X5.935Y-2.765
X5.935Y-2.865
X5.935Y-2.965
X5.935Y-3.065
X5.935Y-3.165
X5.935Y-3.265
X6.535Y-2.665
X6.535Y-2.765
X6.535Y-2.865
X6.535Y-2.965
X6.535Y-3.065
X6.535Y-3.165
X6.535Y-3.265
T4
X6.245Y-3.46
M30
