%TF.GenerationSoftware,KiCad,Pcbnew,10.0.0*%
%TF.CreationDate,2026-09-16T20:10:36-05:00*%
%TF.ProjectId,BlinkyHawk_V3b,426c696e-6b79-4486-9177-6b5f5633622e,rev?*%
%TF.SameCoordinates,Original*%
%TF.FileFunction,Legend,Top*%
%TF.FilePolarity,Positive*%
%FSLAX46Y46*%
G04 Gerber Fmt 4.6, Leading zero omitted, Abs format (unit mm)*
G04 Created by KiCad (PCBNEW 10.0.0) date 2026-09-16 20:10:36*
%MOMM*%
%LPD*%
G01*
G04 APERTURE LIST*
G04 Aperture macros list*
%AMRoundRect*
0 Rectangle with rounded corners*
0 $1 Rounding radius*
0 $2 $3 $4 $5 $6 $7 $8 $9 X,Y pos of 4 corners*
0 Add a 4 corners polygon primitive as box body*
4,1,4,$2,$3,$4,$5,$6,$7,$8,$9,$2,$3,0*
0 Add four circle primitives for the rounded corners*
1,1,$1+$1,$2,$3*
1,1,$1+$1,$4,$5*
1,1,$1+$1,$6,$7*
1,1,$1+$1,$8,$9*
0 Add four rect primitives between the rounded corners*
20,1,$1+$1,$2,$3,$4,$5,0*
20,1,$1+$1,$4,$5,$6,$7,0*
20,1,$1+$1,$6,$7,$8,$9,0*
20,1,$1+$1,$8,$9,$2,$3,0*%
%AMFreePoly0*
4,1,21,0.535278,0.635455,0.549923,0.600100,0.549923,-0.599897,0.535278,-0.635252,0.499923,-0.649897,-0.050063,-0.649897,-0.085418,-0.635252,-0.100063,-0.599897,-0.100063,-0.249923,-0.500075,-0.249923,-0.535430,-0.235278,-0.550075,-0.199923,-0.550075,0.350114,-0.535430,0.385469,-0.500075,0.400114,-0.100063,0.400114,-0.100063,0.600100,-0.085418,0.635455,-0.050063,0.650100,0.499923,0.650100,
0.535278,0.635455,0.535278,0.635455,$1*%
%AMFreePoly1*
4,1,13,0.385265,0.635303,0.399910,0.599948,0.399910,-0.600050,0.385265,-0.635405,0.349910,-0.650050,-0.350088,-0.650050,-0.385443,-0.635405,-0.400088,-0.600050,-0.400088,0.599948,-0.385443,0.635303,-0.350088,0.649948,0.349910,0.649948,0.385265,0.635303,0.385265,0.635303,$1*%
%AMFreePoly2*
4,1,13,0.260348,0.635278,0.274993,0.599923,0.274993,-0.600075,0.260348,-0.635430,0.224993,-0.650075,-0.225019,-0.650075,-0.260374,-0.635430,-0.275019,-0.600075,-0.275019,0.599923,-0.260374,0.635278,-0.225019,0.649923,0.224993,0.649923,0.260348,0.635278,0.260348,0.635278,$1*%
%AMFreePoly3*
4,1,21,0.085365,0.635256,0.100013,0.599902,0.099951,0.399788,0.499993,0.399834,0.535350,0.385193,0.549999,0.349839,0.550050,-0.200147,0.535409,-0.235504,0.500055,-0.250152,0.100013,-0.250129,0.100013,-0.599999,0.085368,-0.635354,0.050022,-0.649999,-0.500066,-0.650100,-0.535424,-0.635462,-0.550075,-0.600109,-0.550075,0.599846,-0.535430,0.635201,-0.500080,0.649846,0.050008,0.649897,
0.085365,0.635256,0.085365,0.635256,$1*%
G04 Aperture macros list end*
%ADD10C,0.080000*%
%ADD11C,0.504000*%
%ADD12C,0.100000*%
%ADD13C,0.127000*%
%ADD14C,0.120000*%
%ADD15C,0.060000*%
%ADD16C,0.250000*%
%ADD17C,0.150000*%
%ADD18RoundRect,0.152400X-1.013600X-0.609600X1.013600X-0.609600X1.013600X0.609600X-1.013600X0.609600X0*%
%ADD19C,1.524000*%
%ADD20RoundRect,0.152400X1.013600X0.609600X-1.013600X0.609600X-1.013600X-0.609600X1.013600X-0.609600X0*%
%ADD21RoundRect,0.250000X0.450000X-0.262500X0.450000X0.262500X-0.450000X0.262500X-0.450000X-0.262500X0*%
%ADD22RoundRect,0.250000X-0.450000X0.262500X-0.450000X-0.262500X0.450000X-0.262500X0.450000X0.262500X0*%
%ADD23RoundRect,0.250000X0.262500X0.450000X-0.262500X0.450000X-0.262500X-0.450000X0.262500X-0.450000X0*%
%ADD24RoundRect,0.375000X0.375000X1.125000X-0.375000X1.125000X-0.375000X-1.125000X0.375000X-1.125000X0*%
%ADD25RoundRect,0.140000X0.140000X0.170000X-0.140000X0.170000X-0.140000X-0.170000X0.140000X-0.170000X0*%
%ADD26RoundRect,0.150000X-0.150000X0.587500X-0.150000X-0.587500X0.150000X-0.587500X0.150000X0.587500X0*%
%ADD27RoundRect,0.140000X-0.140000X-0.170000X0.140000X-0.170000X0.140000X0.170000X-0.140000X0.170000X0*%
%ADD28C,0.180000*%
%ADD29RoundRect,0.140000X0.170000X-0.140000X0.170000X0.140000X-0.170000X0.140000X-0.170000X-0.140000X0*%
%ADD30RoundRect,0.140000X-0.170000X0.140000X-0.170000X-0.140000X0.170000X-0.140000X0.170000X0.140000X0*%
%ADD31R,1.000000X1.000000*%
%ADD32C,1.000000*%
%ADD33R,4.500000X1.500000*%
%ADD34RoundRect,0.250000X-0.262500X-0.450000X0.262500X-0.450000X0.262500X0.450000X-0.262500X0.450000X0*%
%ADD35FreePoly0,90.000000*%
%ADD36FreePoly1,90.000000*%
%ADD37FreePoly2,90.000000*%
%ADD38FreePoly3,90.000000*%
%ADD39R,0.250000X0.600000*%
%ADD40R,0.600000X0.250000*%
%ADD41R,1.500000X1.500000*%
%ADD42RoundRect,0.150000X0.150000X-0.587500X0.150000X0.587500X-0.150000X0.587500X-0.150000X-0.587500X0*%
G04 APERTURE END LIST*
D10*
X153198369Y-88112173D02*
X153807893Y-88112173D01*
X153503131Y-88416935D02*
X153503131Y-87807411D01*
X152513887Y-88009226D02*
X152551982Y-87894940D01*
X152551982Y-87894940D02*
X152590078Y-87856845D01*
X152590078Y-87856845D02*
X152666268Y-87818749D01*
X152666268Y-87818749D02*
X152780554Y-87818749D01*
X152780554Y-87818749D02*
X152856744Y-87856845D01*
X152856744Y-87856845D02*
X152894840Y-87894940D01*
X152894840Y-87894940D02*
X152932935Y-87971130D01*
X152932935Y-87971130D02*
X152932935Y-88275892D01*
X152932935Y-88275892D02*
X152132935Y-88275892D01*
X152132935Y-88275892D02*
X152132935Y-88009226D01*
X152132935Y-88009226D02*
X152171030Y-87933035D01*
X152171030Y-87933035D02*
X152209125Y-87894940D01*
X152209125Y-87894940D02*
X152285316Y-87856845D01*
X152285316Y-87856845D02*
X152361506Y-87856845D01*
X152361506Y-87856845D02*
X152437697Y-87894940D01*
X152437697Y-87894940D02*
X152475792Y-87933035D01*
X152475792Y-87933035D02*
X152513887Y-88009226D01*
X152513887Y-88009226D02*
X152513887Y-88275892D01*
X152932935Y-87133035D02*
X152513887Y-87133035D01*
X152513887Y-87133035D02*
X152437697Y-87171130D01*
X152437697Y-87171130D02*
X152399601Y-87247321D01*
X152399601Y-87247321D02*
X152399601Y-87399702D01*
X152399601Y-87399702D02*
X152437697Y-87475892D01*
X152894840Y-87133035D02*
X152932935Y-87209226D01*
X152932935Y-87209226D02*
X152932935Y-87399702D01*
X152932935Y-87399702D02*
X152894840Y-87475892D01*
X152894840Y-87475892D02*
X152818649Y-87513988D01*
X152818649Y-87513988D02*
X152742459Y-87513988D01*
X152742459Y-87513988D02*
X152666268Y-87475892D01*
X152666268Y-87475892D02*
X152628173Y-87399702D01*
X152628173Y-87399702D02*
X152628173Y-87209226D01*
X152628173Y-87209226D02*
X152590078Y-87133035D01*
X152399601Y-86866368D02*
X152399601Y-86561606D01*
X152132935Y-86752082D02*
X152818649Y-86752082D01*
X152818649Y-86752082D02*
X152894840Y-86713987D01*
X152894840Y-86713987D02*
X152932935Y-86637797D01*
X152932935Y-86637797D02*
X152932935Y-86561606D01*
X152399601Y-86409225D02*
X152399601Y-86104463D01*
X152132935Y-86294939D02*
X152818649Y-86294939D01*
X152818649Y-86294939D02*
X152894840Y-86256844D01*
X152894840Y-86256844D02*
X152932935Y-86180654D01*
X152932935Y-86180654D02*
X152932935Y-86104463D01*
X153517173Y-86751892D02*
X153517173Y-86142369D01*
X158013476Y-61544935D02*
X158013476Y-62192554D01*
X158013476Y-62192554D02*
X158051571Y-62268744D01*
X158051571Y-62268744D02*
X158089666Y-62306840D01*
X158089666Y-62306840D02*
X158165857Y-62344935D01*
X158165857Y-62344935D02*
X158318238Y-62344935D01*
X158318238Y-62344935D02*
X158394428Y-62306840D01*
X158394428Y-62306840D02*
X158432523Y-62268744D01*
X158432523Y-62268744D02*
X158470619Y-62192554D01*
X158470619Y-62192554D02*
X158470619Y-61544935D01*
X158813475Y-61621125D02*
X158851571Y-61583030D01*
X158851571Y-61583030D02*
X158927761Y-61544935D01*
X158927761Y-61544935D02*
X159118237Y-61544935D01*
X159118237Y-61544935D02*
X159194428Y-61583030D01*
X159194428Y-61583030D02*
X159232523Y-61621125D01*
X159232523Y-61621125D02*
X159270618Y-61697316D01*
X159270618Y-61697316D02*
X159270618Y-61773506D01*
X159270618Y-61773506D02*
X159232523Y-61887792D01*
X159232523Y-61887792D02*
X158775380Y-62344935D01*
X158775380Y-62344935D02*
X159270618Y-62344935D01*
X147558935Y-69475285D02*
X147177982Y-69741952D01*
X147558935Y-69932428D02*
X146758935Y-69932428D01*
X146758935Y-69932428D02*
X146758935Y-69627666D01*
X146758935Y-69627666D02*
X146797030Y-69551476D01*
X146797030Y-69551476D02*
X146835125Y-69513381D01*
X146835125Y-69513381D02*
X146911316Y-69475285D01*
X146911316Y-69475285D02*
X147025601Y-69475285D01*
X147025601Y-69475285D02*
X147101792Y-69513381D01*
X147101792Y-69513381D02*
X147139887Y-69551476D01*
X147139887Y-69551476D02*
X147177982Y-69627666D01*
X147177982Y-69627666D02*
X147177982Y-69932428D01*
X146835125Y-69170524D02*
X146797030Y-69132428D01*
X146797030Y-69132428D02*
X146758935Y-69056238D01*
X146758935Y-69056238D02*
X146758935Y-68865762D01*
X146758935Y-68865762D02*
X146797030Y-68789571D01*
X146797030Y-68789571D02*
X146835125Y-68751476D01*
X146835125Y-68751476D02*
X146911316Y-68713381D01*
X146911316Y-68713381D02*
X146987506Y-68713381D01*
X146987506Y-68713381D02*
X147101792Y-68751476D01*
X147101792Y-68751476D02*
X147558935Y-69208619D01*
X147558935Y-69208619D02*
X147558935Y-68713381D01*
X146758935Y-68218142D02*
X146758935Y-68141952D01*
X146758935Y-68141952D02*
X146797030Y-68065761D01*
X146797030Y-68065761D02*
X146835125Y-68027666D01*
X146835125Y-68027666D02*
X146911316Y-67989571D01*
X146911316Y-67989571D02*
X147063697Y-67951476D01*
X147063697Y-67951476D02*
X147254173Y-67951476D01*
X147254173Y-67951476D02*
X147406554Y-67989571D01*
X147406554Y-67989571D02*
X147482744Y-68027666D01*
X147482744Y-68027666D02*
X147520840Y-68065761D01*
X147520840Y-68065761D02*
X147558935Y-68141952D01*
X147558935Y-68141952D02*
X147558935Y-68218142D01*
X147558935Y-68218142D02*
X147520840Y-68294333D01*
X147520840Y-68294333D02*
X147482744Y-68332428D01*
X147482744Y-68332428D02*
X147406554Y-68370523D01*
X147406554Y-68370523D02*
X147254173Y-68408619D01*
X147254173Y-68408619D02*
X147063697Y-68408619D01*
X147063697Y-68408619D02*
X146911316Y-68370523D01*
X146911316Y-68370523D02*
X146835125Y-68332428D01*
X146835125Y-68332428D02*
X146797030Y-68294333D01*
X146797030Y-68294333D02*
X146758935Y-68218142D01*
X147558935Y-79000285D02*
X147177982Y-79266952D01*
X147558935Y-79457428D02*
X146758935Y-79457428D01*
X146758935Y-79457428D02*
X146758935Y-79152666D01*
X146758935Y-79152666D02*
X146797030Y-79076476D01*
X146797030Y-79076476D02*
X146835125Y-79038381D01*
X146835125Y-79038381D02*
X146911316Y-79000285D01*
X146911316Y-79000285D02*
X147025601Y-79000285D01*
X147025601Y-79000285D02*
X147101792Y-79038381D01*
X147101792Y-79038381D02*
X147139887Y-79076476D01*
X147139887Y-79076476D02*
X147177982Y-79152666D01*
X147177982Y-79152666D02*
X147177982Y-79457428D01*
X146835125Y-78695524D02*
X146797030Y-78657428D01*
X146797030Y-78657428D02*
X146758935Y-78581238D01*
X146758935Y-78581238D02*
X146758935Y-78390762D01*
X146758935Y-78390762D02*
X146797030Y-78314571D01*
X146797030Y-78314571D02*
X146835125Y-78276476D01*
X146835125Y-78276476D02*
X146911316Y-78238381D01*
X146911316Y-78238381D02*
X146987506Y-78238381D01*
X146987506Y-78238381D02*
X147101792Y-78276476D01*
X147101792Y-78276476D02*
X147558935Y-78733619D01*
X147558935Y-78733619D02*
X147558935Y-78238381D01*
X147558935Y-77476476D02*
X147558935Y-77933619D01*
X147558935Y-77705047D02*
X146758935Y-77705047D01*
X146758935Y-77705047D02*
X146873220Y-77781238D01*
X146873220Y-77781238D02*
X146949411Y-77857428D01*
X146949411Y-77857428D02*
X146987506Y-77933619D01*
X160117214Y-107045935D02*
X159850547Y-106664982D01*
X159660071Y-107045935D02*
X159660071Y-106245935D01*
X159660071Y-106245935D02*
X159964833Y-106245935D01*
X159964833Y-106245935D02*
X160041023Y-106284030D01*
X160041023Y-106284030D02*
X160079118Y-106322125D01*
X160079118Y-106322125D02*
X160117214Y-106398316D01*
X160117214Y-106398316D02*
X160117214Y-106512601D01*
X160117214Y-106512601D02*
X160079118Y-106588792D01*
X160079118Y-106588792D02*
X160041023Y-106626887D01*
X160041023Y-106626887D02*
X159964833Y-106664982D01*
X159964833Y-106664982D02*
X159660071Y-106664982D01*
X160879118Y-107045935D02*
X160421975Y-107045935D01*
X160650547Y-107045935D02*
X160650547Y-106245935D01*
X160650547Y-106245935D02*
X160574356Y-106360220D01*
X160574356Y-106360220D02*
X160498166Y-106436411D01*
X160498166Y-106436411D02*
X160421975Y-106474506D01*
X161641023Y-107045935D02*
X161183880Y-107045935D01*
X161412452Y-107045935D02*
X161412452Y-106245935D01*
X161412452Y-106245935D02*
X161336261Y-106360220D01*
X161336261Y-106360220D02*
X161260071Y-106436411D01*
X161260071Y-106436411D02*
X161183880Y-106474506D01*
X159626333Y-110690935D02*
X159626333Y-111262363D01*
X159626333Y-111262363D02*
X159588238Y-111376649D01*
X159588238Y-111376649D02*
X159512047Y-111452840D01*
X159512047Y-111452840D02*
X159397762Y-111490935D01*
X159397762Y-111490935D02*
X159321571Y-111490935D01*
X159969190Y-110767125D02*
X160007286Y-110729030D01*
X160007286Y-110729030D02*
X160083476Y-110690935D01*
X160083476Y-110690935D02*
X160273952Y-110690935D01*
X160273952Y-110690935D02*
X160350143Y-110729030D01*
X160350143Y-110729030D02*
X160388238Y-110767125D01*
X160388238Y-110767125D02*
X160426333Y-110843316D01*
X160426333Y-110843316D02*
X160426333Y-110919506D01*
X160426333Y-110919506D02*
X160388238Y-111033792D01*
X160388238Y-111033792D02*
X159931095Y-111490935D01*
X159931095Y-111490935D02*
X160426333Y-111490935D01*
X166117667Y-89721744D02*
X166079571Y-89759840D01*
X166079571Y-89759840D02*
X165965286Y-89797935D01*
X165965286Y-89797935D02*
X165889095Y-89797935D01*
X165889095Y-89797935D02*
X165774809Y-89759840D01*
X165774809Y-89759840D02*
X165698619Y-89683649D01*
X165698619Y-89683649D02*
X165660524Y-89607459D01*
X165660524Y-89607459D02*
X165622428Y-89455078D01*
X165622428Y-89455078D02*
X165622428Y-89340792D01*
X165622428Y-89340792D02*
X165660524Y-89188411D01*
X165660524Y-89188411D02*
X165698619Y-89112220D01*
X165698619Y-89112220D02*
X165774809Y-89036030D01*
X165774809Y-89036030D02*
X165889095Y-88997935D01*
X165889095Y-88997935D02*
X165965286Y-88997935D01*
X165965286Y-88997935D02*
X166079571Y-89036030D01*
X166079571Y-89036030D02*
X166117667Y-89074125D01*
X166803381Y-89264601D02*
X166803381Y-89797935D01*
X166612905Y-88959840D02*
X166422428Y-89531268D01*
X166422428Y-89531268D02*
X166917667Y-89531268D01*
X148964667Y-89841744D02*
X148926571Y-89879840D01*
X148926571Y-89879840D02*
X148812286Y-89917935D01*
X148812286Y-89917935D02*
X148736095Y-89917935D01*
X148736095Y-89917935D02*
X148621809Y-89879840D01*
X148621809Y-89879840D02*
X148545619Y-89803649D01*
X148545619Y-89803649D02*
X148507524Y-89727459D01*
X148507524Y-89727459D02*
X148469428Y-89575078D01*
X148469428Y-89575078D02*
X148469428Y-89460792D01*
X148469428Y-89460792D02*
X148507524Y-89308411D01*
X148507524Y-89308411D02*
X148545619Y-89232220D01*
X148545619Y-89232220D02*
X148621809Y-89156030D01*
X148621809Y-89156030D02*
X148736095Y-89117935D01*
X148736095Y-89117935D02*
X148812286Y-89117935D01*
X148812286Y-89117935D02*
X148926571Y-89156030D01*
X148926571Y-89156030D02*
X148964667Y-89194125D01*
X149345619Y-89917935D02*
X149498000Y-89917935D01*
X149498000Y-89917935D02*
X149574190Y-89879840D01*
X149574190Y-89879840D02*
X149612286Y-89841744D01*
X149612286Y-89841744D02*
X149688476Y-89727459D01*
X149688476Y-89727459D02*
X149726571Y-89575078D01*
X149726571Y-89575078D02*
X149726571Y-89270316D01*
X149726571Y-89270316D02*
X149688476Y-89194125D01*
X149688476Y-89194125D02*
X149650381Y-89156030D01*
X149650381Y-89156030D02*
X149574190Y-89117935D01*
X149574190Y-89117935D02*
X149421809Y-89117935D01*
X149421809Y-89117935D02*
X149345619Y-89156030D01*
X149345619Y-89156030D02*
X149307524Y-89194125D01*
X149307524Y-89194125D02*
X149269428Y-89270316D01*
X149269428Y-89270316D02*
X149269428Y-89460792D01*
X149269428Y-89460792D02*
X149307524Y-89536982D01*
X149307524Y-89536982D02*
X149345619Y-89575078D01*
X149345619Y-89575078D02*
X149421809Y-89613173D01*
X149421809Y-89613173D02*
X149574190Y-89613173D01*
X149574190Y-89613173D02*
X149650381Y-89575078D01*
X149650381Y-89575078D02*
X149688476Y-89536982D01*
X149688476Y-89536982D02*
X149726571Y-89460792D01*
X153409667Y-91147435D02*
X153143000Y-90766482D01*
X152952524Y-91147435D02*
X152952524Y-90347435D01*
X152952524Y-90347435D02*
X153257286Y-90347435D01*
X153257286Y-90347435D02*
X153333476Y-90385530D01*
X153333476Y-90385530D02*
X153371571Y-90423625D01*
X153371571Y-90423625D02*
X153409667Y-90499816D01*
X153409667Y-90499816D02*
X153409667Y-90614101D01*
X153409667Y-90614101D02*
X153371571Y-90690292D01*
X153371571Y-90690292D02*
X153333476Y-90728387D01*
X153333476Y-90728387D02*
X153257286Y-90766482D01*
X153257286Y-90766482D02*
X152952524Y-90766482D01*
X154095381Y-90614101D02*
X154095381Y-91147435D01*
X153904905Y-90309340D02*
X153714428Y-90880768D01*
X153714428Y-90880768D02*
X154209667Y-90880768D01*
X148560167Y-107172935D02*
X148293500Y-106791982D01*
X148103024Y-107172935D02*
X148103024Y-106372935D01*
X148103024Y-106372935D02*
X148407786Y-106372935D01*
X148407786Y-106372935D02*
X148483976Y-106411030D01*
X148483976Y-106411030D02*
X148522071Y-106449125D01*
X148522071Y-106449125D02*
X148560167Y-106525316D01*
X148560167Y-106525316D02*
X148560167Y-106639601D01*
X148560167Y-106639601D02*
X148522071Y-106715792D01*
X148522071Y-106715792D02*
X148483976Y-106753887D01*
X148483976Y-106753887D02*
X148407786Y-106791982D01*
X148407786Y-106791982D02*
X148103024Y-106791982D01*
X149017309Y-106715792D02*
X148941119Y-106677697D01*
X148941119Y-106677697D02*
X148903024Y-106639601D01*
X148903024Y-106639601D02*
X148864928Y-106563411D01*
X148864928Y-106563411D02*
X148864928Y-106525316D01*
X148864928Y-106525316D02*
X148903024Y-106449125D01*
X148903024Y-106449125D02*
X148941119Y-106411030D01*
X148941119Y-106411030D02*
X149017309Y-106372935D01*
X149017309Y-106372935D02*
X149169690Y-106372935D01*
X149169690Y-106372935D02*
X149245881Y-106411030D01*
X149245881Y-106411030D02*
X149283976Y-106449125D01*
X149283976Y-106449125D02*
X149322071Y-106525316D01*
X149322071Y-106525316D02*
X149322071Y-106563411D01*
X149322071Y-106563411D02*
X149283976Y-106639601D01*
X149283976Y-106639601D02*
X149245881Y-106677697D01*
X149245881Y-106677697D02*
X149169690Y-106715792D01*
X149169690Y-106715792D02*
X149017309Y-106715792D01*
X149017309Y-106715792D02*
X148941119Y-106753887D01*
X148941119Y-106753887D02*
X148903024Y-106791982D01*
X148903024Y-106791982D02*
X148864928Y-106868173D01*
X148864928Y-106868173D02*
X148864928Y-107020554D01*
X148864928Y-107020554D02*
X148903024Y-107096744D01*
X148903024Y-107096744D02*
X148941119Y-107134840D01*
X148941119Y-107134840D02*
X149017309Y-107172935D01*
X149017309Y-107172935D02*
X149169690Y-107172935D01*
X149169690Y-107172935D02*
X149245881Y-107134840D01*
X149245881Y-107134840D02*
X149283976Y-107096744D01*
X149283976Y-107096744D02*
X149322071Y-107020554D01*
X149322071Y-107020554D02*
X149322071Y-106868173D01*
X149322071Y-106868173D02*
X149283976Y-106791982D01*
X149283976Y-106791982D02*
X149245881Y-106753887D01*
X149245881Y-106753887D02*
X149169690Y-106715792D01*
X155308333Y-110944935D02*
X155308333Y-111516363D01*
X155308333Y-111516363D02*
X155270238Y-111630649D01*
X155270238Y-111630649D02*
X155194047Y-111706840D01*
X155194047Y-111706840D02*
X155079762Y-111744935D01*
X155079762Y-111744935D02*
X155003571Y-111744935D01*
X156108333Y-111744935D02*
X155651190Y-111744935D01*
X155879762Y-111744935D02*
X155879762Y-110944935D01*
X155879762Y-110944935D02*
X155803571Y-111059220D01*
X155803571Y-111059220D02*
X155727381Y-111135411D01*
X155727381Y-111135411D02*
X155651190Y-111173506D01*
X151688809Y-99502125D02*
X151612619Y-99464030D01*
X151612619Y-99464030D02*
X151536428Y-99387840D01*
X151536428Y-99387840D02*
X151422142Y-99273554D01*
X151422142Y-99273554D02*
X151345952Y-99235459D01*
X151345952Y-99235459D02*
X151269761Y-99235459D01*
X151307857Y-99425935D02*
X151231666Y-99387840D01*
X151231666Y-99387840D02*
X151155476Y-99311649D01*
X151155476Y-99311649D02*
X151117380Y-99159268D01*
X151117380Y-99159268D02*
X151117380Y-98892601D01*
X151117380Y-98892601D02*
X151155476Y-98740220D01*
X151155476Y-98740220D02*
X151231666Y-98664030D01*
X151231666Y-98664030D02*
X151307857Y-98625935D01*
X151307857Y-98625935D02*
X151460238Y-98625935D01*
X151460238Y-98625935D02*
X151536428Y-98664030D01*
X151536428Y-98664030D02*
X151612619Y-98740220D01*
X151612619Y-98740220D02*
X151650714Y-98892601D01*
X151650714Y-98892601D02*
X151650714Y-99159268D01*
X151650714Y-99159268D02*
X151612619Y-99311649D01*
X151612619Y-99311649D02*
X151536428Y-99387840D01*
X151536428Y-99387840D02*
X151460238Y-99425935D01*
X151460238Y-99425935D02*
X151307857Y-99425935D01*
X152412618Y-99425935D02*
X151955475Y-99425935D01*
X152184047Y-99425935D02*
X152184047Y-98625935D01*
X152184047Y-98625935D02*
X152107856Y-98740220D01*
X152107856Y-98740220D02*
X152031666Y-98816411D01*
X152031666Y-98816411D02*
X151955475Y-98854506D01*
X165990667Y-85259744D02*
X165952571Y-85297840D01*
X165952571Y-85297840D02*
X165838286Y-85335935D01*
X165838286Y-85335935D02*
X165762095Y-85335935D01*
X165762095Y-85335935D02*
X165647809Y-85297840D01*
X165647809Y-85297840D02*
X165571619Y-85221649D01*
X165571619Y-85221649D02*
X165533524Y-85145459D01*
X165533524Y-85145459D02*
X165495428Y-84993078D01*
X165495428Y-84993078D02*
X165495428Y-84878792D01*
X165495428Y-84878792D02*
X165533524Y-84726411D01*
X165533524Y-84726411D02*
X165571619Y-84650220D01*
X165571619Y-84650220D02*
X165647809Y-84574030D01*
X165647809Y-84574030D02*
X165762095Y-84535935D01*
X165762095Y-84535935D02*
X165838286Y-84535935D01*
X165838286Y-84535935D02*
X165952571Y-84574030D01*
X165952571Y-84574030D02*
X165990667Y-84612125D01*
X166676381Y-84535935D02*
X166524000Y-84535935D01*
X166524000Y-84535935D02*
X166447809Y-84574030D01*
X166447809Y-84574030D02*
X166409714Y-84612125D01*
X166409714Y-84612125D02*
X166333524Y-84726411D01*
X166333524Y-84726411D02*
X166295428Y-84878792D01*
X166295428Y-84878792D02*
X166295428Y-85183554D01*
X166295428Y-85183554D02*
X166333524Y-85259744D01*
X166333524Y-85259744D02*
X166371619Y-85297840D01*
X166371619Y-85297840D02*
X166447809Y-85335935D01*
X166447809Y-85335935D02*
X166600190Y-85335935D01*
X166600190Y-85335935D02*
X166676381Y-85297840D01*
X166676381Y-85297840D02*
X166714476Y-85259744D01*
X166714476Y-85259744D02*
X166752571Y-85183554D01*
X166752571Y-85183554D02*
X166752571Y-84993078D01*
X166752571Y-84993078D02*
X166714476Y-84916887D01*
X166714476Y-84916887D02*
X166676381Y-84878792D01*
X166676381Y-84878792D02*
X166600190Y-84840697D01*
X166600190Y-84840697D02*
X166447809Y-84840697D01*
X166447809Y-84840697D02*
X166371619Y-84878792D01*
X166371619Y-84878792D02*
X166333524Y-84916887D01*
X166333524Y-84916887D02*
X166295428Y-84993078D01*
X169189476Y-97609935D02*
X169189476Y-98257554D01*
X169189476Y-98257554D02*
X169227571Y-98333744D01*
X169227571Y-98333744D02*
X169265666Y-98371840D01*
X169265666Y-98371840D02*
X169341857Y-98409935D01*
X169341857Y-98409935D02*
X169494238Y-98409935D01*
X169494238Y-98409935D02*
X169570428Y-98371840D01*
X169570428Y-98371840D02*
X169608523Y-98333744D01*
X169608523Y-98333744D02*
X169646619Y-98257554D01*
X169646619Y-98257554D02*
X169646619Y-97609935D01*
X170370428Y-97876601D02*
X170370428Y-98409935D01*
X170179952Y-97571840D02*
X169989475Y-98143268D01*
X169989475Y-98143268D02*
X170484714Y-98143268D01*
X145869935Y-88747523D02*
X146517554Y-88747523D01*
X146517554Y-88747523D02*
X146593744Y-88709428D01*
X146593744Y-88709428D02*
X146631840Y-88671333D01*
X146631840Y-88671333D02*
X146669935Y-88595142D01*
X146669935Y-88595142D02*
X146669935Y-88442761D01*
X146669935Y-88442761D02*
X146631840Y-88366571D01*
X146631840Y-88366571D02*
X146593744Y-88328476D01*
X146593744Y-88328476D02*
X146517554Y-88290380D01*
X146517554Y-88290380D02*
X145869935Y-88290380D01*
X146669935Y-87490381D02*
X146669935Y-87947524D01*
X146669935Y-87718952D02*
X145869935Y-87718952D01*
X145869935Y-87718952D02*
X145984220Y-87795143D01*
X145984220Y-87795143D02*
X146060411Y-87871333D01*
X146060411Y-87871333D02*
X146098506Y-87947524D01*
X150530744Y-94875332D02*
X150568840Y-94913428D01*
X150568840Y-94913428D02*
X150606935Y-95027713D01*
X150606935Y-95027713D02*
X150606935Y-95103904D01*
X150606935Y-95103904D02*
X150568840Y-95218190D01*
X150568840Y-95218190D02*
X150492649Y-95294380D01*
X150492649Y-95294380D02*
X150416459Y-95332475D01*
X150416459Y-95332475D02*
X150264078Y-95370571D01*
X150264078Y-95370571D02*
X150149792Y-95370571D01*
X150149792Y-95370571D02*
X149997411Y-95332475D01*
X149997411Y-95332475D02*
X149921220Y-95294380D01*
X149921220Y-95294380D02*
X149845030Y-95218190D01*
X149845030Y-95218190D02*
X149806935Y-95103904D01*
X149806935Y-95103904D02*
X149806935Y-95027713D01*
X149806935Y-95027713D02*
X149845030Y-94913428D01*
X149845030Y-94913428D02*
X149883125Y-94875332D01*
X149883125Y-94570571D02*
X149845030Y-94532475D01*
X149845030Y-94532475D02*
X149806935Y-94456285D01*
X149806935Y-94456285D02*
X149806935Y-94265809D01*
X149806935Y-94265809D02*
X149845030Y-94189618D01*
X149845030Y-94189618D02*
X149883125Y-94151523D01*
X149883125Y-94151523D02*
X149959316Y-94113428D01*
X149959316Y-94113428D02*
X150035506Y-94113428D01*
X150035506Y-94113428D02*
X150149792Y-94151523D01*
X150149792Y-94151523D02*
X150606935Y-94608666D01*
X150606935Y-94608666D02*
X150606935Y-94113428D01*
X169007214Y-110601935D02*
X168740547Y-110220982D01*
X168550071Y-110601935D02*
X168550071Y-109801935D01*
X168550071Y-109801935D02*
X168854833Y-109801935D01*
X168854833Y-109801935D02*
X168931023Y-109840030D01*
X168931023Y-109840030D02*
X168969118Y-109878125D01*
X168969118Y-109878125D02*
X169007214Y-109954316D01*
X169007214Y-109954316D02*
X169007214Y-110068601D01*
X169007214Y-110068601D02*
X168969118Y-110144792D01*
X168969118Y-110144792D02*
X168931023Y-110182887D01*
X168931023Y-110182887D02*
X168854833Y-110220982D01*
X168854833Y-110220982D02*
X168550071Y-110220982D01*
X169769118Y-110601935D02*
X169311975Y-110601935D01*
X169540547Y-110601935D02*
X169540547Y-109801935D01*
X169540547Y-109801935D02*
X169464356Y-109916220D01*
X169464356Y-109916220D02*
X169388166Y-109992411D01*
X169388166Y-109992411D02*
X169311975Y-110030506D01*
X170454833Y-110068601D02*
X170454833Y-110601935D01*
X170264357Y-109763840D02*
X170073880Y-110335268D01*
X170073880Y-110335268D02*
X170569119Y-110335268D01*
X168437744Y-101606332D02*
X168475840Y-101644428D01*
X168475840Y-101644428D02*
X168513935Y-101758713D01*
X168513935Y-101758713D02*
X168513935Y-101834904D01*
X168513935Y-101834904D02*
X168475840Y-101949190D01*
X168475840Y-101949190D02*
X168399649Y-102025380D01*
X168399649Y-102025380D02*
X168323459Y-102063475D01*
X168323459Y-102063475D02*
X168171078Y-102101571D01*
X168171078Y-102101571D02*
X168056792Y-102101571D01*
X168056792Y-102101571D02*
X167904411Y-102063475D01*
X167904411Y-102063475D02*
X167828220Y-102025380D01*
X167828220Y-102025380D02*
X167752030Y-101949190D01*
X167752030Y-101949190D02*
X167713935Y-101834904D01*
X167713935Y-101834904D02*
X167713935Y-101758713D01*
X167713935Y-101758713D02*
X167752030Y-101644428D01*
X167752030Y-101644428D02*
X167790125Y-101606332D01*
X168056792Y-101149190D02*
X168018697Y-101225380D01*
X168018697Y-101225380D02*
X167980601Y-101263475D01*
X167980601Y-101263475D02*
X167904411Y-101301571D01*
X167904411Y-101301571D02*
X167866316Y-101301571D01*
X167866316Y-101301571D02*
X167790125Y-101263475D01*
X167790125Y-101263475D02*
X167752030Y-101225380D01*
X167752030Y-101225380D02*
X167713935Y-101149190D01*
X167713935Y-101149190D02*
X167713935Y-100996809D01*
X167713935Y-100996809D02*
X167752030Y-100920618D01*
X167752030Y-100920618D02*
X167790125Y-100882523D01*
X167790125Y-100882523D02*
X167866316Y-100844428D01*
X167866316Y-100844428D02*
X167904411Y-100844428D01*
X167904411Y-100844428D02*
X167980601Y-100882523D01*
X167980601Y-100882523D02*
X168018697Y-100920618D01*
X168018697Y-100920618D02*
X168056792Y-100996809D01*
X168056792Y-100996809D02*
X168056792Y-101149190D01*
X168056792Y-101149190D02*
X168094887Y-101225380D01*
X168094887Y-101225380D02*
X168132982Y-101263475D01*
X168132982Y-101263475D02*
X168209173Y-101301571D01*
X168209173Y-101301571D02*
X168361554Y-101301571D01*
X168361554Y-101301571D02*
X168437744Y-101263475D01*
X168437744Y-101263475D02*
X168475840Y-101225380D01*
X168475840Y-101225380D02*
X168513935Y-101149190D01*
X168513935Y-101149190D02*
X168513935Y-100996809D01*
X168513935Y-100996809D02*
X168475840Y-100920618D01*
X168475840Y-100920618D02*
X168437744Y-100882523D01*
X168437744Y-100882523D02*
X168361554Y-100844428D01*
X168361554Y-100844428D02*
X168209173Y-100844428D01*
X168209173Y-100844428D02*
X168132982Y-100882523D01*
X168132982Y-100882523D02*
X168094887Y-100920618D01*
X168094887Y-100920618D02*
X168056792Y-100996809D01*
X148329667Y-103430744D02*
X148291571Y-103468840D01*
X148291571Y-103468840D02*
X148177286Y-103506935D01*
X148177286Y-103506935D02*
X148101095Y-103506935D01*
X148101095Y-103506935D02*
X147986809Y-103468840D01*
X147986809Y-103468840D02*
X147910619Y-103392649D01*
X147910619Y-103392649D02*
X147872524Y-103316459D01*
X147872524Y-103316459D02*
X147834428Y-103164078D01*
X147834428Y-103164078D02*
X147834428Y-103049792D01*
X147834428Y-103049792D02*
X147872524Y-102897411D01*
X147872524Y-102897411D02*
X147910619Y-102821220D01*
X147910619Y-102821220D02*
X147986809Y-102745030D01*
X147986809Y-102745030D02*
X148101095Y-102706935D01*
X148101095Y-102706935D02*
X148177286Y-102706935D01*
X148177286Y-102706935D02*
X148291571Y-102745030D01*
X148291571Y-102745030D02*
X148329667Y-102783125D01*
X149091571Y-103506935D02*
X148634428Y-103506935D01*
X148863000Y-103506935D02*
X148863000Y-102706935D01*
X148863000Y-102706935D02*
X148786809Y-102821220D01*
X148786809Y-102821220D02*
X148710619Y-102897411D01*
X148710619Y-102897411D02*
X148634428Y-102935506D01*
X153409667Y-102727935D02*
X153143000Y-102346982D01*
X152952524Y-102727935D02*
X152952524Y-101927935D01*
X152952524Y-101927935D02*
X153257286Y-101927935D01*
X153257286Y-101927935D02*
X153333476Y-101966030D01*
X153333476Y-101966030D02*
X153371571Y-102004125D01*
X153371571Y-102004125D02*
X153409667Y-102080316D01*
X153409667Y-102080316D02*
X153409667Y-102194601D01*
X153409667Y-102194601D02*
X153371571Y-102270792D01*
X153371571Y-102270792D02*
X153333476Y-102308887D01*
X153333476Y-102308887D02*
X153257286Y-102346982D01*
X153257286Y-102346982D02*
X152952524Y-102346982D01*
X154133476Y-101927935D02*
X153752524Y-101927935D01*
X153752524Y-101927935D02*
X153714428Y-102308887D01*
X153714428Y-102308887D02*
X153752524Y-102270792D01*
X153752524Y-102270792D02*
X153828714Y-102232697D01*
X153828714Y-102232697D02*
X154019190Y-102232697D01*
X154019190Y-102232697D02*
X154095381Y-102270792D01*
X154095381Y-102270792D02*
X154133476Y-102308887D01*
X154133476Y-102308887D02*
X154171571Y-102385078D01*
X154171571Y-102385078D02*
X154171571Y-102575554D01*
X154171571Y-102575554D02*
X154133476Y-102651744D01*
X154133476Y-102651744D02*
X154095381Y-102689840D01*
X154095381Y-102689840D02*
X154019190Y-102727935D01*
X154019190Y-102727935D02*
X153828714Y-102727935D01*
X153828714Y-102727935D02*
X153752524Y-102689840D01*
X153752524Y-102689840D02*
X153714428Y-102651744D01*
X155181333Y-84528935D02*
X155181333Y-85100363D01*
X155181333Y-85100363D02*
X155143238Y-85214649D01*
X155143238Y-85214649D02*
X155067047Y-85290840D01*
X155067047Y-85290840D02*
X154952762Y-85328935D01*
X154952762Y-85328935D02*
X154876571Y-85328935D01*
X155905143Y-84795601D02*
X155905143Y-85328935D01*
X155714667Y-84490840D02*
X155524190Y-85062268D01*
X155524190Y-85062268D02*
X156019429Y-85062268D01*
X150973214Y-109077935D02*
X150706547Y-108696982D01*
X150516071Y-109077935D02*
X150516071Y-108277935D01*
X150516071Y-108277935D02*
X150820833Y-108277935D01*
X150820833Y-108277935D02*
X150897023Y-108316030D01*
X150897023Y-108316030D02*
X150935118Y-108354125D01*
X150935118Y-108354125D02*
X150973214Y-108430316D01*
X150973214Y-108430316D02*
X150973214Y-108544601D01*
X150973214Y-108544601D02*
X150935118Y-108620792D01*
X150935118Y-108620792D02*
X150897023Y-108658887D01*
X150897023Y-108658887D02*
X150820833Y-108696982D01*
X150820833Y-108696982D02*
X150516071Y-108696982D01*
X151735118Y-109077935D02*
X151277975Y-109077935D01*
X151506547Y-109077935D02*
X151506547Y-108277935D01*
X151506547Y-108277935D02*
X151430356Y-108392220D01*
X151430356Y-108392220D02*
X151354166Y-108468411D01*
X151354166Y-108468411D02*
X151277975Y-108506506D01*
X152230357Y-108277935D02*
X152306547Y-108277935D01*
X152306547Y-108277935D02*
X152382738Y-108316030D01*
X152382738Y-108316030D02*
X152420833Y-108354125D01*
X152420833Y-108354125D02*
X152458928Y-108430316D01*
X152458928Y-108430316D02*
X152497023Y-108582697D01*
X152497023Y-108582697D02*
X152497023Y-108773173D01*
X152497023Y-108773173D02*
X152458928Y-108925554D01*
X152458928Y-108925554D02*
X152420833Y-109001744D01*
X152420833Y-109001744D02*
X152382738Y-109039840D01*
X152382738Y-109039840D02*
X152306547Y-109077935D01*
X152306547Y-109077935D02*
X152230357Y-109077935D01*
X152230357Y-109077935D02*
X152154166Y-109039840D01*
X152154166Y-109039840D02*
X152116071Y-109001744D01*
X152116071Y-109001744D02*
X152077976Y-108925554D01*
X152077976Y-108925554D02*
X152039880Y-108773173D01*
X152039880Y-108773173D02*
X152039880Y-108582697D01*
X152039880Y-108582697D02*
X152077976Y-108430316D01*
X152077976Y-108430316D02*
X152116071Y-108354125D01*
X152116071Y-108354125D02*
X152154166Y-108316030D01*
X152154166Y-108316030D02*
X152230357Y-108277935D01*
X165236887Y-97058762D02*
X165274982Y-96944476D01*
X165274982Y-96944476D02*
X165313078Y-96906381D01*
X165313078Y-96906381D02*
X165389268Y-96868285D01*
X165389268Y-96868285D02*
X165503554Y-96868285D01*
X165503554Y-96868285D02*
X165579744Y-96906381D01*
X165579744Y-96906381D02*
X165617840Y-96944476D01*
X165617840Y-96944476D02*
X165655935Y-97020666D01*
X165655935Y-97020666D02*
X165655935Y-97325428D01*
X165655935Y-97325428D02*
X164855935Y-97325428D01*
X164855935Y-97325428D02*
X164855935Y-97058762D01*
X164855935Y-97058762D02*
X164894030Y-96982571D01*
X164894030Y-96982571D02*
X164932125Y-96944476D01*
X164932125Y-96944476D02*
X165008316Y-96906381D01*
X165008316Y-96906381D02*
X165084506Y-96906381D01*
X165084506Y-96906381D02*
X165160697Y-96944476D01*
X165160697Y-96944476D02*
X165198792Y-96982571D01*
X165198792Y-96982571D02*
X165236887Y-97058762D01*
X165236887Y-97058762D02*
X165236887Y-97325428D01*
X164855935Y-96601619D02*
X164855935Y-96068285D01*
X164855935Y-96068285D02*
X165655935Y-96601619D01*
X165655935Y-96601619D02*
X165655935Y-96068285D01*
X165655935Y-95344476D02*
X165655935Y-95801619D01*
X165655935Y-95573047D02*
X164855935Y-95573047D01*
X164855935Y-95573047D02*
X164970220Y-95649238D01*
X164970220Y-95649238D02*
X165046411Y-95725428D01*
X165046411Y-95725428D02*
X165084506Y-95801619D01*
X164943214Y-108569935D02*
X164676547Y-108188982D01*
X164486071Y-108569935D02*
X164486071Y-107769935D01*
X164486071Y-107769935D02*
X164790833Y-107769935D01*
X164790833Y-107769935D02*
X164867023Y-107808030D01*
X164867023Y-107808030D02*
X164905118Y-107846125D01*
X164905118Y-107846125D02*
X164943214Y-107922316D01*
X164943214Y-107922316D02*
X164943214Y-108036601D01*
X164943214Y-108036601D02*
X164905118Y-108112792D01*
X164905118Y-108112792D02*
X164867023Y-108150887D01*
X164867023Y-108150887D02*
X164790833Y-108188982D01*
X164790833Y-108188982D02*
X164486071Y-108188982D01*
X165705118Y-108569935D02*
X165247975Y-108569935D01*
X165476547Y-108569935D02*
X165476547Y-107769935D01*
X165476547Y-107769935D02*
X165400356Y-107884220D01*
X165400356Y-107884220D02*
X165324166Y-107960411D01*
X165324166Y-107960411D02*
X165247975Y-107998506D01*
X166428928Y-107769935D02*
X166047976Y-107769935D01*
X166047976Y-107769935D02*
X166009880Y-108150887D01*
X166009880Y-108150887D02*
X166047976Y-108112792D01*
X166047976Y-108112792D02*
X166124166Y-108074697D01*
X166124166Y-108074697D02*
X166314642Y-108074697D01*
X166314642Y-108074697D02*
X166390833Y-108112792D01*
X166390833Y-108112792D02*
X166428928Y-108150887D01*
X166428928Y-108150887D02*
X166467023Y-108227078D01*
X166467023Y-108227078D02*
X166467023Y-108417554D01*
X166467023Y-108417554D02*
X166428928Y-108493744D01*
X166428928Y-108493744D02*
X166390833Y-108531840D01*
X166390833Y-108531840D02*
X166314642Y-108569935D01*
X166314642Y-108569935D02*
X166124166Y-108569935D01*
X166124166Y-108569935D02*
X166047976Y-108531840D01*
X166047976Y-108531840D02*
X166009880Y-108493744D01*
X158531744Y-88676332D02*
X158569840Y-88714428D01*
X158569840Y-88714428D02*
X158607935Y-88828713D01*
X158607935Y-88828713D02*
X158607935Y-88904904D01*
X158607935Y-88904904D02*
X158569840Y-89019190D01*
X158569840Y-89019190D02*
X158493649Y-89095380D01*
X158493649Y-89095380D02*
X158417459Y-89133475D01*
X158417459Y-89133475D02*
X158265078Y-89171571D01*
X158265078Y-89171571D02*
X158150792Y-89171571D01*
X158150792Y-89171571D02*
X157998411Y-89133475D01*
X157998411Y-89133475D02*
X157922220Y-89095380D01*
X157922220Y-89095380D02*
X157846030Y-89019190D01*
X157846030Y-89019190D02*
X157807935Y-88904904D01*
X157807935Y-88904904D02*
X157807935Y-88828713D01*
X157807935Y-88828713D02*
X157846030Y-88714428D01*
X157846030Y-88714428D02*
X157884125Y-88676332D01*
X157807935Y-88409666D02*
X157807935Y-87914428D01*
X157807935Y-87914428D02*
X158112697Y-88181094D01*
X158112697Y-88181094D02*
X158112697Y-88066809D01*
X158112697Y-88066809D02*
X158150792Y-87990618D01*
X158150792Y-87990618D02*
X158188887Y-87952523D01*
X158188887Y-87952523D02*
X158265078Y-87914428D01*
X158265078Y-87914428D02*
X158455554Y-87914428D01*
X158455554Y-87914428D02*
X158531744Y-87952523D01*
X158531744Y-87952523D02*
X158569840Y-87990618D01*
X158569840Y-87990618D02*
X158607935Y-88066809D01*
X158607935Y-88066809D02*
X158607935Y-88295380D01*
X158607935Y-88295380D02*
X158569840Y-88371571D01*
X158569840Y-88371571D02*
X158531744Y-88409666D01*
X168513935Y-93859238D02*
X168513935Y-94240190D01*
X168513935Y-94240190D02*
X167713935Y-94240190D01*
X168094887Y-93592571D02*
X168094887Y-93325905D01*
X168513935Y-93211619D02*
X168513935Y-93592571D01*
X168513935Y-93592571D02*
X167713935Y-93592571D01*
X167713935Y-93592571D02*
X167713935Y-93211619D01*
X168513935Y-92868761D02*
X167713935Y-92868761D01*
X167713935Y-92868761D02*
X167713935Y-92678285D01*
X167713935Y-92678285D02*
X167752030Y-92563999D01*
X167752030Y-92563999D02*
X167828220Y-92487809D01*
X167828220Y-92487809D02*
X167904411Y-92449714D01*
X167904411Y-92449714D02*
X168056792Y-92411618D01*
X168056792Y-92411618D02*
X168171078Y-92411618D01*
X168171078Y-92411618D02*
X168323459Y-92449714D01*
X168323459Y-92449714D02*
X168399649Y-92487809D01*
X168399649Y-92487809D02*
X168475840Y-92563999D01*
X168475840Y-92563999D02*
X168513935Y-92678285D01*
X168513935Y-92678285D02*
X168513935Y-92868761D01*
X168513935Y-91649714D02*
X168513935Y-92106857D01*
X168513935Y-91878285D02*
X167713935Y-91878285D01*
X167713935Y-91878285D02*
X167828220Y-91954476D01*
X167828220Y-91954476D02*
X167904411Y-92030666D01*
X167904411Y-92030666D02*
X167942506Y-92106857D01*
X169961744Y-103440285D02*
X169999840Y-103478381D01*
X169999840Y-103478381D02*
X170037935Y-103592666D01*
X170037935Y-103592666D02*
X170037935Y-103668857D01*
X170037935Y-103668857D02*
X169999840Y-103783143D01*
X169999840Y-103783143D02*
X169923649Y-103859333D01*
X169923649Y-103859333D02*
X169847459Y-103897428D01*
X169847459Y-103897428D02*
X169695078Y-103935524D01*
X169695078Y-103935524D02*
X169580792Y-103935524D01*
X169580792Y-103935524D02*
X169428411Y-103897428D01*
X169428411Y-103897428D02*
X169352220Y-103859333D01*
X169352220Y-103859333D02*
X169276030Y-103783143D01*
X169276030Y-103783143D02*
X169237935Y-103668857D01*
X169237935Y-103668857D02*
X169237935Y-103592666D01*
X169237935Y-103592666D02*
X169276030Y-103478381D01*
X169276030Y-103478381D02*
X169314125Y-103440285D01*
X170037935Y-102678381D02*
X170037935Y-103135524D01*
X170037935Y-102906952D02*
X169237935Y-102906952D01*
X169237935Y-102906952D02*
X169352220Y-102983143D01*
X169352220Y-102983143D02*
X169428411Y-103059333D01*
X169428411Y-103059333D02*
X169466506Y-103135524D01*
X169237935Y-102183142D02*
X169237935Y-102106952D01*
X169237935Y-102106952D02*
X169276030Y-102030761D01*
X169276030Y-102030761D02*
X169314125Y-101992666D01*
X169314125Y-101992666D02*
X169390316Y-101954571D01*
X169390316Y-101954571D02*
X169542697Y-101916476D01*
X169542697Y-101916476D02*
X169733173Y-101916476D01*
X169733173Y-101916476D02*
X169885554Y-101954571D01*
X169885554Y-101954571D02*
X169961744Y-101992666D01*
X169961744Y-101992666D02*
X169999840Y-102030761D01*
X169999840Y-102030761D02*
X170037935Y-102106952D01*
X170037935Y-102106952D02*
X170037935Y-102183142D01*
X170037935Y-102183142D02*
X169999840Y-102259333D01*
X169999840Y-102259333D02*
X169961744Y-102297428D01*
X169961744Y-102297428D02*
X169885554Y-102335523D01*
X169885554Y-102335523D02*
X169733173Y-102373619D01*
X169733173Y-102373619D02*
X169542697Y-102373619D01*
X169542697Y-102373619D02*
X169390316Y-102335523D01*
X169390316Y-102335523D02*
X169314125Y-102297428D01*
X169314125Y-102297428D02*
X169276030Y-102259333D01*
X169276030Y-102259333D02*
X169237935Y-102183142D01*
X153362197Y-107045935D02*
X153095530Y-106664982D01*
X152905054Y-107045935D02*
X152905054Y-106245935D01*
X152905054Y-106245935D02*
X153209816Y-106245935D01*
X153209816Y-106245935D02*
X153286006Y-106284030D01*
X153286006Y-106284030D02*
X153324101Y-106322125D01*
X153324101Y-106322125D02*
X153362197Y-106398316D01*
X153362197Y-106398316D02*
X153362197Y-106512601D01*
X153362197Y-106512601D02*
X153324101Y-106588792D01*
X153324101Y-106588792D02*
X153286006Y-106626887D01*
X153286006Y-106626887D02*
X153209816Y-106664982D01*
X153209816Y-106664982D02*
X152905054Y-106664982D01*
X154047911Y-106245935D02*
X153895530Y-106245935D01*
X153895530Y-106245935D02*
X153819339Y-106284030D01*
X153819339Y-106284030D02*
X153781244Y-106322125D01*
X153781244Y-106322125D02*
X153705054Y-106436411D01*
X153705054Y-106436411D02*
X153666958Y-106588792D01*
X153666958Y-106588792D02*
X153666958Y-106893554D01*
X153666958Y-106893554D02*
X153705054Y-106969744D01*
X153705054Y-106969744D02*
X153743149Y-107007840D01*
X153743149Y-107007840D02*
X153819339Y-107045935D01*
X153819339Y-107045935D02*
X153971720Y-107045935D01*
X153971720Y-107045935D02*
X154047911Y-107007840D01*
X154047911Y-107007840D02*
X154086006Y-106969744D01*
X154086006Y-106969744D02*
X154124101Y-106893554D01*
X154124101Y-106893554D02*
X154124101Y-106703078D01*
X154124101Y-106703078D02*
X154086006Y-106626887D01*
X154086006Y-106626887D02*
X154047911Y-106588792D01*
X154047911Y-106588792D02*
X153971720Y-106550697D01*
X153971720Y-106550697D02*
X153819339Y-106550697D01*
X153819339Y-106550697D02*
X153743149Y-106588792D01*
X153743149Y-106588792D02*
X153705054Y-106626887D01*
X153705054Y-106626887D02*
X153666958Y-106703078D01*
X151100167Y-107045935D02*
X150833500Y-106664982D01*
X150643024Y-107045935D02*
X150643024Y-106245935D01*
X150643024Y-106245935D02*
X150947786Y-106245935D01*
X150947786Y-106245935D02*
X151023976Y-106284030D01*
X151023976Y-106284030D02*
X151062071Y-106322125D01*
X151062071Y-106322125D02*
X151100167Y-106398316D01*
X151100167Y-106398316D02*
X151100167Y-106512601D01*
X151100167Y-106512601D02*
X151062071Y-106588792D01*
X151062071Y-106588792D02*
X151023976Y-106626887D01*
X151023976Y-106626887D02*
X150947786Y-106664982D01*
X150947786Y-106664982D02*
X150643024Y-106664982D01*
X151366833Y-106245935D02*
X151900167Y-106245935D01*
X151900167Y-106245935D02*
X151557309Y-107045935D01*
X148932435Y-108464332D02*
X148551482Y-108730999D01*
X148932435Y-108921475D02*
X148132435Y-108921475D01*
X148132435Y-108921475D02*
X148132435Y-108616713D01*
X148132435Y-108616713D02*
X148170530Y-108540523D01*
X148170530Y-108540523D02*
X148208625Y-108502428D01*
X148208625Y-108502428D02*
X148284816Y-108464332D01*
X148284816Y-108464332D02*
X148399101Y-108464332D01*
X148399101Y-108464332D02*
X148475292Y-108502428D01*
X148475292Y-108502428D02*
X148513387Y-108540523D01*
X148513387Y-108540523D02*
X148551482Y-108616713D01*
X148551482Y-108616713D02*
X148551482Y-108921475D01*
X148932435Y-108083380D02*
X148932435Y-107930999D01*
X148932435Y-107930999D02*
X148894340Y-107854809D01*
X148894340Y-107854809D02*
X148856244Y-107816713D01*
X148856244Y-107816713D02*
X148741959Y-107740523D01*
X148741959Y-107740523D02*
X148589578Y-107702428D01*
X148589578Y-107702428D02*
X148284816Y-107702428D01*
X148284816Y-107702428D02*
X148208625Y-107740523D01*
X148208625Y-107740523D02*
X148170530Y-107778618D01*
X148170530Y-107778618D02*
X148132435Y-107854809D01*
X148132435Y-107854809D02*
X148132435Y-108007190D01*
X148132435Y-108007190D02*
X148170530Y-108083380D01*
X148170530Y-108083380D02*
X148208625Y-108121475D01*
X148208625Y-108121475D02*
X148284816Y-108159571D01*
X148284816Y-108159571D02*
X148475292Y-108159571D01*
X148475292Y-108159571D02*
X148551482Y-108121475D01*
X148551482Y-108121475D02*
X148589578Y-108083380D01*
X148589578Y-108083380D02*
X148627673Y-108007190D01*
X148627673Y-108007190D02*
X148627673Y-107854809D01*
X148627673Y-107854809D02*
X148589578Y-107778618D01*
X148589578Y-107778618D02*
X148551482Y-107740523D01*
X148551482Y-107740523D02*
X148475292Y-107702428D01*
X146706667Y-90967744D02*
X146668571Y-91005840D01*
X146668571Y-91005840D02*
X146554286Y-91043935D01*
X146554286Y-91043935D02*
X146478095Y-91043935D01*
X146478095Y-91043935D02*
X146363809Y-91005840D01*
X146363809Y-91005840D02*
X146287619Y-90929649D01*
X146287619Y-90929649D02*
X146249524Y-90853459D01*
X146249524Y-90853459D02*
X146211428Y-90701078D01*
X146211428Y-90701078D02*
X146211428Y-90586792D01*
X146211428Y-90586792D02*
X146249524Y-90434411D01*
X146249524Y-90434411D02*
X146287619Y-90358220D01*
X146287619Y-90358220D02*
X146363809Y-90282030D01*
X146363809Y-90282030D02*
X146478095Y-90243935D01*
X146478095Y-90243935D02*
X146554286Y-90243935D01*
X146554286Y-90243935D02*
X146668571Y-90282030D01*
X146668571Y-90282030D02*
X146706667Y-90320125D01*
X146973333Y-90243935D02*
X147506667Y-90243935D01*
X147506667Y-90243935D02*
X147163809Y-91043935D01*
X166848214Y-107045935D02*
X166581547Y-106664982D01*
X166391071Y-107045935D02*
X166391071Y-106245935D01*
X166391071Y-106245935D02*
X166695833Y-106245935D01*
X166695833Y-106245935D02*
X166772023Y-106284030D01*
X166772023Y-106284030D02*
X166810118Y-106322125D01*
X166810118Y-106322125D02*
X166848214Y-106398316D01*
X166848214Y-106398316D02*
X166848214Y-106512601D01*
X166848214Y-106512601D02*
X166810118Y-106588792D01*
X166810118Y-106588792D02*
X166772023Y-106626887D01*
X166772023Y-106626887D02*
X166695833Y-106664982D01*
X166695833Y-106664982D02*
X166391071Y-106664982D01*
X167610118Y-107045935D02*
X167152975Y-107045935D01*
X167381547Y-107045935D02*
X167381547Y-106245935D01*
X167381547Y-106245935D02*
X167305356Y-106360220D01*
X167305356Y-106360220D02*
X167229166Y-106436411D01*
X167229166Y-106436411D02*
X167152975Y-106474506D01*
X167876785Y-106245935D02*
X168372023Y-106245935D01*
X168372023Y-106245935D02*
X168105357Y-106550697D01*
X168105357Y-106550697D02*
X168219642Y-106550697D01*
X168219642Y-106550697D02*
X168295833Y-106588792D01*
X168295833Y-106588792D02*
X168333928Y-106626887D01*
X168333928Y-106626887D02*
X168372023Y-106703078D01*
X168372023Y-106703078D02*
X168372023Y-106893554D01*
X168372023Y-106893554D02*
X168333928Y-106969744D01*
X168333928Y-106969744D02*
X168295833Y-107007840D01*
X168295833Y-107007840D02*
X168219642Y-107045935D01*
X168219642Y-107045935D02*
X167991071Y-107045935D01*
X167991071Y-107045935D02*
X167914880Y-107007840D01*
X167914880Y-107007840D02*
X167876785Y-106969744D01*
X158902476Y-84909935D02*
X158902476Y-85557554D01*
X158902476Y-85557554D02*
X158940571Y-85633744D01*
X158940571Y-85633744D02*
X158978666Y-85671840D01*
X158978666Y-85671840D02*
X159054857Y-85709935D01*
X159054857Y-85709935D02*
X159207238Y-85709935D01*
X159207238Y-85709935D02*
X159283428Y-85671840D01*
X159283428Y-85671840D02*
X159321523Y-85633744D01*
X159321523Y-85633744D02*
X159359619Y-85557554D01*
X159359619Y-85557554D02*
X159359619Y-84909935D01*
X160121523Y-84909935D02*
X159740571Y-84909935D01*
X159740571Y-84909935D02*
X159702475Y-85290887D01*
X159702475Y-85290887D02*
X159740571Y-85252792D01*
X159740571Y-85252792D02*
X159816761Y-85214697D01*
X159816761Y-85214697D02*
X160007237Y-85214697D01*
X160007237Y-85214697D02*
X160083428Y-85252792D01*
X160083428Y-85252792D02*
X160121523Y-85290887D01*
X160121523Y-85290887D02*
X160159618Y-85367078D01*
X160159618Y-85367078D02*
X160159618Y-85557554D01*
X160159618Y-85557554D02*
X160121523Y-85633744D01*
X160121523Y-85633744D02*
X160083428Y-85671840D01*
X160083428Y-85671840D02*
X160007237Y-85709935D01*
X160007237Y-85709935D02*
X159816761Y-85709935D01*
X159816761Y-85709935D02*
X159740571Y-85671840D01*
X159740571Y-85671840D02*
X159702475Y-85633744D01*
X148996476Y-96339935D02*
X148996476Y-96987554D01*
X148996476Y-96987554D02*
X149034571Y-97063744D01*
X149034571Y-97063744D02*
X149072666Y-97101840D01*
X149072666Y-97101840D02*
X149148857Y-97139935D01*
X149148857Y-97139935D02*
X149301238Y-97139935D01*
X149301238Y-97139935D02*
X149377428Y-97101840D01*
X149377428Y-97101840D02*
X149415523Y-97063744D01*
X149415523Y-97063744D02*
X149453619Y-96987554D01*
X149453619Y-96987554D02*
X149453619Y-96339935D01*
X149758380Y-96339935D02*
X150253618Y-96339935D01*
X150253618Y-96339935D02*
X149986952Y-96644697D01*
X149986952Y-96644697D02*
X150101237Y-96644697D01*
X150101237Y-96644697D02*
X150177428Y-96682792D01*
X150177428Y-96682792D02*
X150215523Y-96720887D01*
X150215523Y-96720887D02*
X150253618Y-96797078D01*
X150253618Y-96797078D02*
X150253618Y-96987554D01*
X150253618Y-96987554D02*
X150215523Y-97063744D01*
X150215523Y-97063744D02*
X150177428Y-97101840D01*
X150177428Y-97101840D02*
X150101237Y-97139935D01*
X150101237Y-97139935D02*
X149872666Y-97139935D01*
X149872666Y-97139935D02*
X149796475Y-97101840D01*
X149796475Y-97101840D02*
X149758380Y-97063744D01*
X166752667Y-87943744D02*
X166714571Y-87981840D01*
X166714571Y-87981840D02*
X166600286Y-88019935D01*
X166600286Y-88019935D02*
X166524095Y-88019935D01*
X166524095Y-88019935D02*
X166409809Y-87981840D01*
X166409809Y-87981840D02*
X166333619Y-87905649D01*
X166333619Y-87905649D02*
X166295524Y-87829459D01*
X166295524Y-87829459D02*
X166257428Y-87677078D01*
X166257428Y-87677078D02*
X166257428Y-87562792D01*
X166257428Y-87562792D02*
X166295524Y-87410411D01*
X166295524Y-87410411D02*
X166333619Y-87334220D01*
X166333619Y-87334220D02*
X166409809Y-87258030D01*
X166409809Y-87258030D02*
X166524095Y-87219935D01*
X166524095Y-87219935D02*
X166600286Y-87219935D01*
X166600286Y-87219935D02*
X166714571Y-87258030D01*
X166714571Y-87258030D02*
X166752667Y-87296125D01*
X167476476Y-87219935D02*
X167095524Y-87219935D01*
X167095524Y-87219935D02*
X167057428Y-87600887D01*
X167057428Y-87600887D02*
X167095524Y-87562792D01*
X167095524Y-87562792D02*
X167171714Y-87524697D01*
X167171714Y-87524697D02*
X167362190Y-87524697D01*
X167362190Y-87524697D02*
X167438381Y-87562792D01*
X167438381Y-87562792D02*
X167476476Y-87600887D01*
X167476476Y-87600887D02*
X167514571Y-87677078D01*
X167514571Y-87677078D02*
X167514571Y-87867554D01*
X167514571Y-87867554D02*
X167476476Y-87943744D01*
X167476476Y-87943744D02*
X167438381Y-87981840D01*
X167438381Y-87981840D02*
X167362190Y-88019935D01*
X167362190Y-88019935D02*
X167171714Y-88019935D01*
X167171714Y-88019935D02*
X167095524Y-87981840D01*
X167095524Y-87981840D02*
X167057428Y-87943744D01*
X148460935Y-91903475D02*
X147660935Y-91903475D01*
X147660935Y-91903475D02*
X147660935Y-91712999D01*
X147660935Y-91712999D02*
X147699030Y-91598713D01*
X147699030Y-91598713D02*
X147775220Y-91522523D01*
X147775220Y-91522523D02*
X147851411Y-91484428D01*
X147851411Y-91484428D02*
X148003792Y-91446332D01*
X148003792Y-91446332D02*
X148118078Y-91446332D01*
X148118078Y-91446332D02*
X148270459Y-91484428D01*
X148270459Y-91484428D02*
X148346649Y-91522523D01*
X148346649Y-91522523D02*
X148422840Y-91598713D01*
X148422840Y-91598713D02*
X148460935Y-91712999D01*
X148460935Y-91712999D02*
X148460935Y-91903475D01*
X147660935Y-91179666D02*
X147660935Y-90684428D01*
X147660935Y-90684428D02*
X147965697Y-90951094D01*
X147965697Y-90951094D02*
X147965697Y-90836809D01*
X147965697Y-90836809D02*
X148003792Y-90760618D01*
X148003792Y-90760618D02*
X148041887Y-90722523D01*
X148041887Y-90722523D02*
X148118078Y-90684428D01*
X148118078Y-90684428D02*
X148308554Y-90684428D01*
X148308554Y-90684428D02*
X148384744Y-90722523D01*
X148384744Y-90722523D02*
X148422840Y-90760618D01*
X148422840Y-90760618D02*
X148460935Y-90836809D01*
X148460935Y-90836809D02*
X148460935Y-91065380D01*
X148460935Y-91065380D02*
X148422840Y-91141571D01*
X148422840Y-91141571D02*
X148384744Y-91179666D01*
X163800214Y-107045935D02*
X163533547Y-106664982D01*
X163343071Y-107045935D02*
X163343071Y-106245935D01*
X163343071Y-106245935D02*
X163647833Y-106245935D01*
X163647833Y-106245935D02*
X163724023Y-106284030D01*
X163724023Y-106284030D02*
X163762118Y-106322125D01*
X163762118Y-106322125D02*
X163800214Y-106398316D01*
X163800214Y-106398316D02*
X163800214Y-106512601D01*
X163800214Y-106512601D02*
X163762118Y-106588792D01*
X163762118Y-106588792D02*
X163724023Y-106626887D01*
X163724023Y-106626887D02*
X163647833Y-106664982D01*
X163647833Y-106664982D02*
X163343071Y-106664982D01*
X164562118Y-107045935D02*
X164104975Y-107045935D01*
X164333547Y-107045935D02*
X164333547Y-106245935D01*
X164333547Y-106245935D02*
X164257356Y-106360220D01*
X164257356Y-106360220D02*
X164181166Y-106436411D01*
X164181166Y-106436411D02*
X164104975Y-106474506D01*
X164866880Y-106322125D02*
X164904976Y-106284030D01*
X164904976Y-106284030D02*
X164981166Y-106245935D01*
X164981166Y-106245935D02*
X165171642Y-106245935D01*
X165171642Y-106245935D02*
X165247833Y-106284030D01*
X165247833Y-106284030D02*
X165285928Y-106322125D01*
X165285928Y-106322125D02*
X165324023Y-106398316D01*
X165324023Y-106398316D02*
X165324023Y-106474506D01*
X165324023Y-106474506D02*
X165285928Y-106588792D01*
X165285928Y-106588792D02*
X164828785Y-107045935D01*
X164828785Y-107045935D02*
X165324023Y-107045935D01*
X156688214Y-107045935D02*
X156421547Y-106664982D01*
X156231071Y-107045935D02*
X156231071Y-106245935D01*
X156231071Y-106245935D02*
X156535833Y-106245935D01*
X156535833Y-106245935D02*
X156612023Y-106284030D01*
X156612023Y-106284030D02*
X156650118Y-106322125D01*
X156650118Y-106322125D02*
X156688214Y-106398316D01*
X156688214Y-106398316D02*
X156688214Y-106512601D01*
X156688214Y-106512601D02*
X156650118Y-106588792D01*
X156650118Y-106588792D02*
X156612023Y-106626887D01*
X156612023Y-106626887D02*
X156535833Y-106664982D01*
X156535833Y-106664982D02*
X156231071Y-106664982D01*
X156992975Y-106322125D02*
X157031071Y-106284030D01*
X157031071Y-106284030D02*
X157107261Y-106245935D01*
X157107261Y-106245935D02*
X157297737Y-106245935D01*
X157297737Y-106245935D02*
X157373928Y-106284030D01*
X157373928Y-106284030D02*
X157412023Y-106322125D01*
X157412023Y-106322125D02*
X157450118Y-106398316D01*
X157450118Y-106398316D02*
X157450118Y-106474506D01*
X157450118Y-106474506D02*
X157412023Y-106588792D01*
X157412023Y-106588792D02*
X156954880Y-107045935D01*
X156954880Y-107045935D02*
X157450118Y-107045935D01*
X157754880Y-106322125D02*
X157792976Y-106284030D01*
X157792976Y-106284030D02*
X157869166Y-106245935D01*
X157869166Y-106245935D02*
X158059642Y-106245935D01*
X158059642Y-106245935D02*
X158135833Y-106284030D01*
X158135833Y-106284030D02*
X158173928Y-106322125D01*
X158173928Y-106322125D02*
X158212023Y-106398316D01*
X158212023Y-106398316D02*
X158212023Y-106474506D01*
X158212023Y-106474506D02*
X158173928Y-106588792D01*
X158173928Y-106588792D02*
X157716785Y-107045935D01*
X157716785Y-107045935D02*
X158212023Y-107045935D01*
X147304935Y-92716332D02*
X146923982Y-92982999D01*
X147304935Y-93173475D02*
X146504935Y-93173475D01*
X146504935Y-93173475D02*
X146504935Y-92868713D01*
X146504935Y-92868713D02*
X146543030Y-92792523D01*
X146543030Y-92792523D02*
X146581125Y-92754428D01*
X146581125Y-92754428D02*
X146657316Y-92716332D01*
X146657316Y-92716332D02*
X146771601Y-92716332D01*
X146771601Y-92716332D02*
X146847792Y-92754428D01*
X146847792Y-92754428D02*
X146885887Y-92792523D01*
X146885887Y-92792523D02*
X146923982Y-92868713D01*
X146923982Y-92868713D02*
X146923982Y-93173475D01*
X147304935Y-91954428D02*
X147304935Y-92411571D01*
X147304935Y-92182999D02*
X146504935Y-92182999D01*
X146504935Y-92182999D02*
X146619220Y-92259190D01*
X146619220Y-92259190D02*
X146695411Y-92335380D01*
X146695411Y-92335380D02*
X146733506Y-92411571D01*
%TO.C,U2*%
D11*
X151072000Y-63789000D02*
G75*
G02*
X150568000Y-63789000I-252000J0D01*
G01*
X150568000Y-63789000D02*
G75*
G02*
X151072000Y-63789000I252000J0D01*
G01*
X149929000Y-62909000D02*
G75*
G02*
X149425000Y-62909000I-252000J0D01*
G01*
X149425000Y-62909000D02*
G75*
G02*
X149929000Y-62909000I252000J0D01*
G01*
D12*
X167513000Y-81788000D02*
G75*
G02*
X165608000Y-83693000I-1905001J1D01*
G01*
X165608000Y-62738000D02*
G75*
G02*
X167513000Y-64643000I0J-1905000D01*
G01*
D13*
X162620988Y-60684988D02*
G75*
G02*
X163121012Y-61184988I12J-500012D01*
G01*
X154125716Y-61184716D02*
G75*
G02*
X154625716Y-60684916I500184J-384D01*
G01*
D12*
X151638000Y-83693000D02*
G75*
G02*
X149733000Y-81788000I1J1905001D01*
G01*
X149733000Y-64643000D02*
G75*
G02*
X151638000Y-62738000I1905000J0D01*
G01*
X167513000Y-81788000D02*
X167513000Y-64643000D01*
X165608000Y-62738000D02*
X151638000Y-62738000D01*
X165608000Y-62738000D02*
X151638000Y-62738000D01*
D13*
X163120988Y-61184988D02*
X163122000Y-62729000D01*
X154625716Y-60684988D02*
X162620988Y-60684988D01*
X154125000Y-62726000D02*
X154125716Y-61184716D01*
D12*
X151638000Y-83693000D02*
X165608000Y-83693000D01*
X149733000Y-81788000D02*
X149733000Y-64643000D01*
%TO.C,R20*%
D14*
X147928000Y-71982064D02*
X147928000Y-71527936D01*
X146458000Y-71982064D02*
X146458000Y-71527936D01*
%TO.C,R21*%
X147928000Y-75337936D02*
X147928000Y-75792064D01*
X146458000Y-75337936D02*
X146458000Y-75792064D01*
%TO.C,R11*%
X161366564Y-104294000D02*
X160912436Y-104294000D01*
X161366564Y-105764000D02*
X160912436Y-105764000D01*
%TO.C,C4*%
X164453836Y-89072000D02*
X164238164Y-89072000D01*
X164453836Y-89792000D02*
X164238164Y-89792000D01*
%TO.C,C9*%
X149205836Y-88032000D02*
X148990164Y-88032000D01*
X149205836Y-88752000D02*
X148990164Y-88752000D01*
%TO.C,R4*%
X152808000Y-92840436D02*
X152808000Y-93294564D01*
X154278000Y-92840436D02*
X154278000Y-93294564D01*
%TO.C,R8*%
X146180500Y-106018064D02*
X146180500Y-105563936D01*
X147650500Y-106018064D02*
X147650500Y-105563936D01*
%TO.C,Q1*%
X151475000Y-96600500D02*
X151525000Y-96600500D01*
X151475000Y-98120500D02*
X151475000Y-96600500D01*
X152475000Y-98120500D02*
X151475000Y-98120500D01*
X152645000Y-96600500D02*
X153425000Y-96600500D01*
X154545000Y-96600500D02*
X154595000Y-96600500D01*
X154595000Y-96600500D02*
X154595000Y-98120500D01*
X154595000Y-98120500D02*
X153595000Y-98120500D01*
X153415000Y-96060500D02*
X153085000Y-96300500D01*
X153085000Y-95820500D01*
X153415000Y-96060500D01*
G36*
X153415000Y-96060500D02*
G01*
X153085000Y-96300500D01*
X153085000Y-95820500D01*
X153415000Y-96060500D01*
G37*
%TO.C,C6*%
X166016164Y-85770000D02*
X166231836Y-85770000D01*
X166016164Y-86490000D02*
X166231836Y-86490000D01*
%TO.C,U4*%
D12*
X169089000Y-99545000D02*
X169089000Y-99695000D01*
X169089000Y-99695000D02*
X169239000Y-99695000D01*
D10*
X169199000Y-98785000D02*
X169999000Y-98785000D01*
X169199000Y-99585000D02*
X169199000Y-98785000D01*
D12*
X169239000Y-99695000D02*
X169089000Y-99545000D01*
D10*
X169999000Y-98785000D02*
X169999000Y-99585000D01*
X169999000Y-99585000D02*
X169199000Y-99585000D01*
D15*
X169229000Y-99585000D02*
G75*
G02*
X169169000Y-99585000I-30000J0D01*
G01*
X169169000Y-99585000D02*
G75*
G02*
X169229000Y-99585000I30000J0D01*
G01*
%TO.C,U1*%
D10*
X147002000Y-88065000D02*
X147802000Y-88065000D01*
X147002000Y-88865000D02*
X147002000Y-88065000D01*
D12*
X147762000Y-88975000D02*
X147912000Y-88975000D01*
D10*
X147802000Y-88065000D02*
X147802000Y-88865000D01*
X147802000Y-88865000D02*
X147002000Y-88865000D01*
D12*
X147912000Y-88825000D02*
X147762000Y-88975000D01*
X147912000Y-88975000D02*
X147912000Y-88825000D01*
D15*
X147832000Y-88865000D02*
G75*
G02*
X147772000Y-88865000I-30000J0D01*
G01*
X147772000Y-88865000D02*
G75*
G02*
X147832000Y-88865000I30000J0D01*
G01*
%TO.C,C2*%
D14*
X148738000Y-94849836D02*
X148738000Y-94634164D01*
X149458000Y-94849836D02*
X149458000Y-94634164D01*
%TO.C,R14*%
X168913500Y-108177064D02*
X168913500Y-107722936D01*
X170383500Y-108177064D02*
X170383500Y-107722936D01*
%TO.C,C8*%
X167788000Y-99658164D02*
X167788000Y-99873836D01*
X168508000Y-99658164D02*
X168508000Y-99873836D01*
%TO.C,C1*%
X148570836Y-101621000D02*
X148355164Y-101621000D01*
X148570836Y-102341000D02*
X148355164Y-102341000D01*
%TO.C,R5*%
X152627064Y-99976000D02*
X152172936Y-99976000D01*
X152627064Y-101446000D02*
X152172936Y-101446000D01*
%TO.C,J4*%
X154288000Y-85804000D02*
X155448000Y-85804000D01*
X154288000Y-86614000D02*
X154288000Y-85804000D01*
X154288000Y-87424000D02*
X154288000Y-88629000D01*
X154288000Y-87424000D02*
X154781292Y-87424000D01*
X154288000Y-88629000D02*
X155130077Y-88629000D01*
X155765923Y-88629000D02*
X156608000Y-88629000D01*
X156114708Y-87424000D02*
X156608000Y-87424000D01*
X156608000Y-87424000D02*
X156608000Y-88629000D01*
%TO.C,R10*%
X150063564Y-109628000D02*
X149609436Y-109628000D01*
X150063564Y-111098000D02*
X149609436Y-111098000D01*
%TO.C,BZ1*%
D16*
X155190000Y-90254000D02*
X155190000Y-102454000D01*
X155190000Y-93814000D02*
X156720000Y-93814000D01*
X155190000Y-102454000D02*
X158750000Y-102454000D01*
X156720000Y-93814000D02*
X156720000Y-98894000D01*
X156720000Y-98894000D02*
X155190000Y-98894000D01*
X158750000Y-90254000D02*
X155190000Y-90254000D01*
X163830000Y-102454000D02*
X167390000Y-102454000D01*
X167390000Y-90254000D02*
X163830000Y-90254000D01*
X167390000Y-96354000D02*
X167390000Y-90254000D01*
X167390000Y-102454000D02*
X167390000Y-96354000D01*
D15*
X155320000Y-90354000D02*
G75*
G02*
X155260000Y-90354000I-30000J0D01*
G01*
X155260000Y-90354000D02*
G75*
G02*
X155320000Y-90354000I30000J0D01*
G01*
%TO.C,R15*%
D14*
X166373436Y-108993000D02*
X166827564Y-108993000D01*
X166373436Y-110463000D02*
X166827564Y-110463000D01*
%TO.C,C3*%
X158898000Y-88523836D02*
X158898000Y-88308164D01*
X159618000Y-88523836D02*
X159618000Y-88308164D01*
%TO.C,LED1*%
D17*
X170101474Y-92614988D02*
X170771474Y-92614988D01*
X170521474Y-93724988D02*
X170771474Y-93474988D01*
X170521474Y-95494988D02*
X170521474Y-93724988D01*
X170771474Y-92614988D02*
X170771474Y-96614988D01*
X170771474Y-95744988D02*
X170521474Y-95494988D01*
X170771474Y-95784988D02*
X170771474Y-95744988D01*
X170771474Y-96614988D02*
X170121474Y-96614988D01*
X169981474Y-96744988D02*
G75*
G02*
X169821474Y-96744988I-80000J0D01*
G01*
X169821474Y-96744988D02*
G75*
G02*
X169981474Y-96744988I80000J0D01*
G01*
D15*
X170801474Y-96614988D02*
G75*
G02*
X170741474Y-96614988I-30000J0D01*
G01*
X170741474Y-96614988D02*
G75*
G02*
X170801474Y-96614988I30000J0D01*
G01*
%TO.C,C10*%
D14*
X169312000Y-100973836D02*
X169312000Y-100758164D01*
X170032000Y-100973836D02*
X170032000Y-100758164D01*
%TO.C,R6*%
X153292436Y-104294000D02*
X153746564Y-104294000D01*
X153292436Y-105764000D02*
X153746564Y-105764000D01*
%TO.C,R7*%
X149585936Y-104294000D02*
X150040064Y-104294000D01*
X149585936Y-105764000D02*
X150040064Y-105764000D01*
%TO.C,R9*%
X146180500Y-109724564D02*
X146180500Y-109270436D01*
X147650500Y-109724564D02*
X147650500Y-109270436D01*
%TO.C,C7*%
X146986164Y-89175000D02*
X147201836Y-89175000D01*
X146986164Y-89895000D02*
X147201836Y-89895000D01*
%TO.C,R13*%
X168883064Y-104294000D02*
X168428936Y-104294000D01*
X168883064Y-105764000D02*
X168428936Y-105764000D01*
%TO.C,U5*%
D16*
X160564000Y-85368000D02*
X160564000Y-85768000D01*
X160564000Y-87978000D02*
X160564000Y-88368000D01*
X160954000Y-85368000D02*
X160564000Y-85368000D01*
X160954000Y-88368000D02*
X160564000Y-88368000D01*
X163564000Y-85368000D02*
X163164000Y-85368000D01*
X163564000Y-85768000D02*
X163564000Y-85368000D01*
X163564000Y-88368000D02*
X163164000Y-88368000D01*
X163564000Y-88368000D02*
X163564000Y-87978000D01*
X163414000Y-85028000D02*
G75*
G02*
X163294000Y-85028000I-60000J0D01*
G01*
X163294000Y-85028000D02*
G75*
G02*
X163414000Y-85028000I60000J0D01*
G01*
D15*
X163594000Y-85368000D02*
G75*
G02*
X163534000Y-85368000I-30000J0D01*
G01*
X163534000Y-85368000D02*
G75*
G02*
X163594000Y-85368000I30000J0D01*
G01*
%TO.C,U3*%
D14*
X146649000Y-98378500D02*
X147649000Y-98378500D01*
X146649000Y-99898500D02*
X146649000Y-98378500D01*
X146699000Y-99898500D02*
X146649000Y-99898500D01*
X148599000Y-99898500D02*
X147819000Y-99898500D01*
X148769000Y-98378500D02*
X149769000Y-98378500D01*
X149769000Y-98378500D02*
X149769000Y-99898500D01*
X149769000Y-99898500D02*
X149719000Y-99898500D01*
X148159000Y-100678500D02*
X147829000Y-100438500D01*
X148159000Y-100198500D01*
X148159000Y-100678500D01*
G36*
X148159000Y-100678500D02*
G01*
X147829000Y-100438500D01*
X148159000Y-100198500D01*
X148159000Y-100678500D01*
G37*
%TO.C,C5*%
X165000164Y-87294000D02*
X165215836Y-87294000D01*
X165000164Y-88014000D02*
X165215836Y-88014000D01*
%TO.C,D3*%
X148935000Y-90553000D02*
X149935000Y-90553000D01*
X148935000Y-92073000D02*
X148935000Y-90553000D01*
X148985000Y-92073000D02*
X148935000Y-92073000D01*
X150885000Y-92073000D02*
X150105000Y-92073000D01*
X151055000Y-90553000D02*
X152055000Y-90553000D01*
X152055000Y-90553000D02*
X152055000Y-92073000D01*
X152055000Y-92073000D02*
X152005000Y-92073000D01*
X150445000Y-92853000D02*
X150115000Y-92613000D01*
X150445000Y-92373000D01*
X150445000Y-92853000D01*
G36*
X150445000Y-92853000D02*
G01*
X150115000Y-92613000D01*
X150445000Y-92373000D01*
X150445000Y-92853000D01*
G37*
%TO.C,R12*%
X165176564Y-104294000D02*
X164722436Y-104294000D01*
X165176564Y-105764000D02*
X164722436Y-105764000D01*
%TO.C,R22*%
X157102436Y-104294000D02*
X157556564Y-104294000D01*
X157102436Y-105764000D02*
X157556564Y-105764000D01*
%TO.C,R1*%
X146331000Y-94895936D02*
X146331000Y-95350064D01*
X147801000Y-94895936D02*
X147801000Y-95350064D01*
%TD*%
%LPC*%
D18*
%TO.C,U2*%
X167028000Y-65659000D03*
D19*
X166243000Y-65659000D03*
D18*
X167028000Y-68199000D03*
D19*
X166243000Y-68199000D03*
D18*
X167028000Y-70739000D03*
D19*
X166243000Y-70739000D03*
D18*
X167028000Y-73279000D03*
D19*
X166243000Y-73279000D03*
D18*
X167028000Y-75819000D03*
D19*
X166243000Y-75819000D03*
D18*
X167028000Y-78359000D03*
D19*
X166243000Y-78359000D03*
D18*
X167028000Y-80899000D03*
D19*
X166243000Y-80899000D03*
X151003000Y-80899000D03*
D20*
X150218000Y-80899000D03*
D19*
X151003000Y-78359000D03*
D20*
X150218000Y-78359000D03*
D19*
X151003000Y-75819000D03*
D20*
X150218000Y-75819000D03*
D19*
X151003000Y-73279000D03*
D20*
X150218000Y-73279000D03*
D19*
X151003000Y-70739000D03*
D20*
X150218000Y-70739000D03*
D19*
X151003000Y-68199000D03*
D20*
X150218000Y-68199000D03*
D19*
X151003000Y-65659000D03*
D20*
X150218000Y-65659000D03*
%TD*%
D21*
%TO.C,R20*%
X147193000Y-70842500D03*
X147193000Y-72667500D03*
%TD*%
D22*
%TO.C,R21*%
X147193000Y-76477500D03*
X147193000Y-74652500D03*
%TD*%
D23*
%TO.C,R11*%
X162052000Y-105029000D03*
X160227000Y-105029000D03*
%TD*%
D24*
%TO.C,J2*%
X162052000Y-110998000D03*
%TD*%
D25*
%TO.C,C4*%
X164826000Y-89432000D03*
X163866000Y-89432000D03*
%TD*%
%TO.C,C9*%
X149578000Y-88392000D03*
X148618000Y-88392000D03*
%TD*%
D22*
%TO.C,R4*%
X153543000Y-92155000D03*
X153543000Y-93980000D03*
%TD*%
D21*
%TO.C,R8*%
X146915500Y-106703500D03*
X146915500Y-104878500D03*
%TD*%
D24*
%TO.C,J1*%
X153416000Y-110998000D03*
%TD*%
D26*
%TO.C,Q1*%
X153985000Y-96423000D03*
X152085000Y-96423000D03*
X153035000Y-98298000D03*
%TD*%
D27*
%TO.C,C6*%
X165644000Y-86130000D03*
X166604000Y-86130000D03*
%TD*%
D28*
%TO.C,U4*%
X169399000Y-99385000D03*
X169399000Y-98985000D03*
X169799000Y-99385000D03*
X169799000Y-98985000D03*
%TD*%
%TO.C,U1*%
X147602000Y-88665000D03*
X147202000Y-88665000D03*
X147602000Y-88265000D03*
X147202000Y-88265000D03*
%TD*%
D29*
%TO.C,C2*%
X149098000Y-95222000D03*
X149098000Y-94262000D03*
%TD*%
D21*
%TO.C,R14*%
X169648500Y-108862500D03*
X169648500Y-107037500D03*
%TD*%
D30*
%TO.C,C8*%
X168148000Y-99286000D03*
X168148000Y-100246000D03*
%TD*%
D25*
%TO.C,C1*%
X148943000Y-101981000D03*
X147983000Y-101981000D03*
%TD*%
D23*
%TO.C,R5*%
X153312500Y-100711000D03*
X151487500Y-100711000D03*
%TD*%
D31*
%TO.C,J4*%
X155448000Y-86614000D03*
D32*
X155448000Y-87884000D03*
%TD*%
D23*
%TO.C,R10*%
X150749000Y-110363000D03*
X148924000Y-110363000D03*
%TD*%
D33*
%TO.C,BZ1*%
X161290000Y-90854000D03*
X161290000Y-101854000D03*
%TD*%
D34*
%TO.C,R15*%
X165688000Y-109728000D03*
X167513000Y-109728000D03*
%TD*%
D29*
%TO.C,C3*%
X159258000Y-88896000D03*
X159258000Y-87936000D03*
%TD*%
D35*
%TO.C,LED1*%
X169421474Y-96414988D03*
D36*
X169401474Y-95064988D03*
D37*
X169401474Y-94044988D03*
D38*
X169401474Y-92814988D03*
%TD*%
D29*
%TO.C,C10*%
X169672000Y-101346000D03*
X169672000Y-100386000D03*
%TD*%
D34*
%TO.C,R6*%
X152607000Y-105029000D03*
X154432000Y-105029000D03*
%TD*%
%TO.C,R7*%
X148900500Y-105029000D03*
X150725500Y-105029000D03*
%TD*%
D21*
%TO.C,R9*%
X146915500Y-110410000D03*
X146915500Y-108585000D03*
%TD*%
D27*
%TO.C,C7*%
X146614000Y-89535000D03*
X147574000Y-89535000D03*
%TD*%
D23*
%TO.C,R13*%
X169568500Y-105029000D03*
X167743500Y-105029000D03*
%TD*%
D39*
%TO.C,U5*%
X162814000Y-85368000D03*
X162314000Y-85368000D03*
X161814000Y-85368000D03*
X161314000Y-85368000D03*
D40*
X160564000Y-86118000D03*
X160564000Y-86618000D03*
X160564000Y-87118000D03*
X160564000Y-87618000D03*
D39*
X161314000Y-88368000D03*
X161814000Y-88368000D03*
X162314000Y-88368000D03*
X162814000Y-88368000D03*
D40*
X163564000Y-87618000D03*
X163564000Y-87118000D03*
X163564000Y-86618000D03*
X163564000Y-86118000D03*
D41*
X162064000Y-86868000D03*
%TD*%
D42*
%TO.C,U3*%
X147259000Y-100076000D03*
X149159000Y-100076000D03*
X148209000Y-98201000D03*
%TD*%
D27*
%TO.C,C5*%
X164628000Y-87654000D03*
X165588000Y-87654000D03*
%TD*%
D42*
%TO.C,D3*%
X149545000Y-92250500D03*
X151445000Y-92250500D03*
X150495000Y-90375500D03*
%TD*%
D23*
%TO.C,R12*%
X165862000Y-105029000D03*
X164037000Y-105029000D03*
%TD*%
D34*
%TO.C,R22*%
X156417000Y-105029000D03*
X158242000Y-105029000D03*
%TD*%
D22*
%TO.C,R1*%
X147066000Y-94210500D03*
X147066000Y-96035500D03*
%TD*%
%LPD*%
M02*
