M48
; DRILL file KiCad 10.0.0 date 2026-09-16T20:10:36
; FORMAT={-:-/ absolute / inch / decimal}
; #@! TF.CreationDate,2026-09-16T20:10:36-05:00
; #@! TF.GenerationSoftware,Kicad,Pcbnew,10.0.0
; #@! TF.FileFunction,Plated,1,4,PTH
FMAT,2
INCH
; #@! TA.AperFunction,Plated,PTH,ViaDrill
T1C0.0118
; #@! TA.AperFunction,Plated,PTH,ComponentDrill
T2C0.0256
; #@! TA.AperFunction,Plated,PTH,ComponentDrill
T3C0.0350
%
G90
G05
T1
X5.775Y-3.565
X5.815Y-3.555
X5.825Y-3.065
X5.825Y-3.45
X5.845Y-3.65
X5.855Y-3.785
X5.875Y-3.85
X5.89Y-3.445
X5.9Y-4.015
X5.97Y-3.43
X5.995Y-3.5786
X6.09Y-3.63
X6.13Y-3.7
X6.2825Y-3.4141
X6.3022Y-3.4986
X6.305Y-3.765
X6.32Y-3.665
X6.325Y-3.3409
X6.3273Y-3.5209
X6.3969Y-3.5088
X6.46Y-3.585
X6.4722Y-3.3928
X6.5004Y-3.281
X6.5103Y-3.4859
X6.575Y-3.775
X6.5853Y-3.4209
X6.6266Y-3.7427
X6.645Y-3.9717
X6.65Y-3.61
X6.6526Y-3.9399
X6.685Y-3.865
T2
X6.12Y-3.41
X6.12Y-3.46
T3
X5.945Y-2.585
X5.945Y-2.685
X5.945Y-2.785
X5.945Y-2.885
X5.945Y-2.985
X5.945Y-3.085
X5.945Y-3.185
X6.545Y-2.585
X6.545Y-2.685
X6.545Y-2.785
X6.545Y-2.885
X6.545Y-2.985
X6.545Y-3.085
X6.545Y-3.185
M30
