%TF.GenerationSoftware,KiCad,Pcbnew,10.0.0*%
%TF.CreationDate,2026-08-19T17:40:11-05:00*%
%TF.ProjectId,BlinkyHawk_V3b,426c696e-6b79-4486-9177-6b5f5633622e,rev?*%
%TF.SameCoordinates,Original*%
%TF.FileFunction,Legend,Top*%
%TF.FilePolarity,Positive*%
%FSLAX46Y46*%
G04 Gerber Fmt 4.6, Leading zero omitted, Abs format (unit mm)*
G04 Created by KiCad (PCBNEW 10.0.0) date 2026-08-19 17:40:11*
%MOMM*%
%LPD*%
G01*
G04 APERTURE LIST*
G04 Aperture macros list*
%AMRoundRect*
0 Rectangle with rounded corners*
0 $1 Rounding radius*
0 $2 $3 $4 $5 $6 $7 $8 $9 X,Y pos of 4 corners*
0 Add a 4 corners polygon primitive as box body*
4,1,4,$2,$3,$4,$5,$6,$7,$8,$9,$2,$3,0*
0 Add four circle primitives for the rounded corners*
1,1,$1+$1,$2,$3*
1,1,$1+$1,$4,$5*
1,1,$1+$1,$6,$7*
1,1,$1+$1,$8,$9*
0 Add four rect primitives between the rounded corners*
20,1,$1+$1,$2,$3,$4,$5,0*
20,1,$1+$1,$4,$5,$6,$7,0*
20,1,$1+$1,$6,$7,$8,$9,0*
20,1,$1+$1,$8,$9,$2,$3,0*%
%AMFreePoly0*
4,1,21,0.535278,0.635455,0.549923,0.600100,0.549923,-0.599897,0.535278,-0.635252,0.499923,-0.649897,-0.050063,-0.649897,-0.085418,-0.635252,-0.100063,-0.599897,-0.100063,-0.249923,-0.500075,-0.249923,-0.535430,-0.235278,-0.550075,-0.199923,-0.550075,0.350114,-0.535430,0.385469,-0.500075,0.400114,-0.100063,0.400114,-0.100063,0.600100,-0.085418,0.635455,-0.050063,0.650100,0.499923,0.650100,
0.535278,0.635455,0.535278,0.635455,$1*%
%AMFreePoly1*
4,1,13,0.385265,0.635303,0.399910,0.599948,0.399910,-0.600050,0.385265,-0.635405,0.349910,-0.650050,-0.350088,-0.650050,-0.385443,-0.635405,-0.400088,-0.600050,-0.400088,0.599948,-0.385443,0.635303,-0.350088,0.649948,0.349910,0.649948,0.385265,0.635303,0.385265,0.635303,$1*%
%AMFreePoly2*
4,1,13,0.260348,0.635278,0.274993,0.599923,0.274993,-0.600075,0.260348,-0.635430,0.224993,-0.650075,-0.225019,-0.650075,-0.260374,-0.635430,-0.275019,-0.600075,-0.275019,0.599923,-0.260374,0.635278,-0.225019,0.649923,0.224993,0.649923,0.260348,0.635278,0.260348,0.635278,$1*%
%AMFreePoly3*
4,1,21,0.085365,0.635256,0.100013,0.599902,0.099951,0.399788,0.499993,0.399834,0.535350,0.385193,0.549999,0.349839,0.550050,-0.200147,0.535409,-0.235504,0.500055,-0.250152,0.100013,-0.250129,0.100013,-0.599999,0.085368,-0.635354,0.050022,-0.649999,-0.500066,-0.650100,-0.535424,-0.635462,-0.550075,-0.600109,-0.550075,0.599846,-0.535430,0.635201,-0.500080,0.649846,0.050008,0.649897,
0.085365,0.635256,0.085365,0.635256,$1*%
G04 Aperture macros list end*
%ADD10C,0.090000*%
%ADD11C,0.120000*%
%ADD12C,0.150000*%
%ADD13C,0.060000*%
%ADD14RoundRect,0.250000X0.262500X0.450000X-0.262500X0.450000X-0.262500X-0.450000X0.262500X-0.450000X0*%
%ADD15RoundRect,0.375000X0.375000X1.125000X-0.375000X1.125000X-0.375000X-1.125000X0.375000X-1.125000X0*%
%ADD16RoundRect,0.250000X-0.450000X0.262500X-0.450000X-0.262500X0.450000X-0.262500X0.450000X0.262500X0*%
%ADD17R,2.754996X1.699990*%
%ADD18O,2.754988X1.699990*%
%ADD19O,2.739337X1.724033*%
%ADD20O,2.754996X1.699996*%
%ADD21O,2.754980X1.699982*%
%ADD22O,2.754994X1.699996*%
%ADD23O,2.754978X1.699980*%
%ADD24RoundRect,0.250000X0.450000X-0.262500X0.450000X0.262500X-0.450000X0.262500X-0.450000X-0.262500X0*%
%ADD25RoundRect,0.150000X-0.150000X0.587500X-0.150000X-0.587500X0.150000X-0.587500X0.150000X0.587500X0*%
%ADD26RoundRect,0.250000X0.250000X0.475000X-0.250000X0.475000X-0.250000X-0.475000X0.250000X-0.475000X0*%
%ADD27R,1.000000X1.000000*%
%ADD28C,1.000000*%
%ADD29RoundRect,0.250000X-0.262500X-0.450000X0.262500X-0.450000X0.262500X0.450000X-0.262500X0.450000X0*%
%ADD30RoundRect,0.225000X0.375000X-0.225000X0.375000X0.225000X-0.375000X0.225000X-0.375000X-0.225000X0*%
%ADD31R,2.755000X1.699996*%
%ADD32O,2.755000X1.699998*%
%ADD33O,2.774819X1.667010*%
%ADD34FreePoly0,90.000000*%
%ADD35FreePoly1,90.000000*%
%ADD36FreePoly2,90.000000*%
%ADD37FreePoly3,90.000000*%
%ADD38RoundRect,0.250000X-0.825000X-0.825000X0.825000X-0.825000X0.825000X0.825000X-0.825000X0.825000X0*%
%ADD39RoundRect,0.150000X0.150000X-0.587500X0.150000X0.587500X-0.150000X0.587500X-0.150000X-0.587500X0*%
%ADD40R,4.000000X1.200000*%
G04 APERTURE END LIST*
D10*
X160117214Y-107045415D02*
X159850547Y-106664462D01*
X159660071Y-107045415D02*
X159660071Y-106245415D01*
X159660071Y-106245415D02*
X159964833Y-106245415D01*
X159964833Y-106245415D02*
X160041023Y-106283510D01*
X160041023Y-106283510D02*
X160079118Y-106321605D01*
X160079118Y-106321605D02*
X160117214Y-106397796D01*
X160117214Y-106397796D02*
X160117214Y-106512081D01*
X160117214Y-106512081D02*
X160079118Y-106588272D01*
X160079118Y-106588272D02*
X160041023Y-106626367D01*
X160041023Y-106626367D02*
X159964833Y-106664462D01*
X159964833Y-106664462D02*
X159660071Y-106664462D01*
X160879118Y-107045415D02*
X160421975Y-107045415D01*
X160650547Y-107045415D02*
X160650547Y-106245415D01*
X160650547Y-106245415D02*
X160574356Y-106359700D01*
X160574356Y-106359700D02*
X160498166Y-106435891D01*
X160498166Y-106435891D02*
X160421975Y-106473986D01*
X161641023Y-107045415D02*
X161183880Y-107045415D01*
X161412452Y-107045415D02*
X161412452Y-106245415D01*
X161412452Y-106245415D02*
X161336261Y-106359700D01*
X161336261Y-106359700D02*
X161260071Y-106435891D01*
X161260071Y-106435891D02*
X161183880Y-106473986D01*
X159626333Y-110690415D02*
X159626333Y-111261843D01*
X159626333Y-111261843D02*
X159588238Y-111376129D01*
X159588238Y-111376129D02*
X159512047Y-111452320D01*
X159512047Y-111452320D02*
X159397762Y-111490415D01*
X159397762Y-111490415D02*
X159321571Y-111490415D01*
X159969190Y-110766605D02*
X160007286Y-110728510D01*
X160007286Y-110728510D02*
X160083476Y-110690415D01*
X160083476Y-110690415D02*
X160273952Y-110690415D01*
X160273952Y-110690415D02*
X160350143Y-110728510D01*
X160350143Y-110728510D02*
X160388238Y-110766605D01*
X160388238Y-110766605D02*
X160426333Y-110842796D01*
X160426333Y-110842796D02*
X160426333Y-110918986D01*
X160426333Y-110918986D02*
X160388238Y-111033272D01*
X160388238Y-111033272D02*
X159931095Y-111490415D01*
X159931095Y-111490415D02*
X160426333Y-111490415D01*
X152139667Y-89138415D02*
X151873000Y-88757462D01*
X151682524Y-89138415D02*
X151682524Y-88338415D01*
X151682524Y-88338415D02*
X151987286Y-88338415D01*
X151987286Y-88338415D02*
X152063476Y-88376510D01*
X152063476Y-88376510D02*
X152101571Y-88414605D01*
X152101571Y-88414605D02*
X152139667Y-88490796D01*
X152139667Y-88490796D02*
X152139667Y-88605081D01*
X152139667Y-88605081D02*
X152101571Y-88681272D01*
X152101571Y-88681272D02*
X152063476Y-88719367D01*
X152063476Y-88719367D02*
X151987286Y-88757462D01*
X151987286Y-88757462D02*
X151682524Y-88757462D01*
X152825381Y-88605081D02*
X152825381Y-89138415D01*
X152634905Y-88300320D02*
X152444428Y-88871748D01*
X152444428Y-88871748D02*
X152939667Y-88871748D01*
X164706333Y-64716415D02*
X164706333Y-65287843D01*
X164706333Y-65287843D02*
X164668238Y-65402129D01*
X164668238Y-65402129D02*
X164592047Y-65478320D01*
X164592047Y-65478320D02*
X164477762Y-65516415D01*
X164477762Y-65516415D02*
X164401571Y-65516415D01*
X165430143Y-64716415D02*
X165277762Y-64716415D01*
X165277762Y-64716415D02*
X165201571Y-64754510D01*
X165201571Y-64754510D02*
X165163476Y-64792605D01*
X165163476Y-64792605D02*
X165087286Y-64906891D01*
X165087286Y-64906891D02*
X165049190Y-65059272D01*
X165049190Y-65059272D02*
X165049190Y-65364034D01*
X165049190Y-65364034D02*
X165087286Y-65440224D01*
X165087286Y-65440224D02*
X165125381Y-65478320D01*
X165125381Y-65478320D02*
X165201571Y-65516415D01*
X165201571Y-65516415D02*
X165353952Y-65516415D01*
X165353952Y-65516415D02*
X165430143Y-65478320D01*
X165430143Y-65478320D02*
X165468238Y-65440224D01*
X165468238Y-65440224D02*
X165506333Y-65364034D01*
X165506333Y-65364034D02*
X165506333Y-65173558D01*
X165506333Y-65173558D02*
X165468238Y-65097367D01*
X165468238Y-65097367D02*
X165430143Y-65059272D01*
X165430143Y-65059272D02*
X165353952Y-65021177D01*
X165353952Y-65021177D02*
X165201571Y-65021177D01*
X165201571Y-65021177D02*
X165125381Y-65059272D01*
X165125381Y-65059272D02*
X165087286Y-65097367D01*
X165087286Y-65097367D02*
X165049190Y-65173558D01*
X148560167Y-107172415D02*
X148293500Y-106791462D01*
X148103024Y-107172415D02*
X148103024Y-106372415D01*
X148103024Y-106372415D02*
X148407786Y-106372415D01*
X148407786Y-106372415D02*
X148483976Y-106410510D01*
X148483976Y-106410510D02*
X148522071Y-106448605D01*
X148522071Y-106448605D02*
X148560167Y-106524796D01*
X148560167Y-106524796D02*
X148560167Y-106639081D01*
X148560167Y-106639081D02*
X148522071Y-106715272D01*
X148522071Y-106715272D02*
X148483976Y-106753367D01*
X148483976Y-106753367D02*
X148407786Y-106791462D01*
X148407786Y-106791462D02*
X148103024Y-106791462D01*
X149017309Y-106715272D02*
X148941119Y-106677177D01*
X148941119Y-106677177D02*
X148903024Y-106639081D01*
X148903024Y-106639081D02*
X148864928Y-106562891D01*
X148864928Y-106562891D02*
X148864928Y-106524796D01*
X148864928Y-106524796D02*
X148903024Y-106448605D01*
X148903024Y-106448605D02*
X148941119Y-106410510D01*
X148941119Y-106410510D02*
X149017309Y-106372415D01*
X149017309Y-106372415D02*
X149169690Y-106372415D01*
X149169690Y-106372415D02*
X149245881Y-106410510D01*
X149245881Y-106410510D02*
X149283976Y-106448605D01*
X149283976Y-106448605D02*
X149322071Y-106524796D01*
X149322071Y-106524796D02*
X149322071Y-106562891D01*
X149322071Y-106562891D02*
X149283976Y-106639081D01*
X149283976Y-106639081D02*
X149245881Y-106677177D01*
X149245881Y-106677177D02*
X149169690Y-106715272D01*
X149169690Y-106715272D02*
X149017309Y-106715272D01*
X149017309Y-106715272D02*
X148941119Y-106753367D01*
X148941119Y-106753367D02*
X148903024Y-106791462D01*
X148903024Y-106791462D02*
X148864928Y-106867653D01*
X148864928Y-106867653D02*
X148864928Y-107020034D01*
X148864928Y-107020034D02*
X148903024Y-107096224D01*
X148903024Y-107096224D02*
X148941119Y-107134320D01*
X148941119Y-107134320D02*
X149017309Y-107172415D01*
X149017309Y-107172415D02*
X149169690Y-107172415D01*
X149169690Y-107172415D02*
X149245881Y-107134320D01*
X149245881Y-107134320D02*
X149283976Y-107096224D01*
X149283976Y-107096224D02*
X149322071Y-107020034D01*
X149322071Y-107020034D02*
X149322071Y-106867653D01*
X149322071Y-106867653D02*
X149283976Y-106791462D01*
X149283976Y-106791462D02*
X149245881Y-106753367D01*
X149245881Y-106753367D02*
X149169690Y-106715272D01*
X155308333Y-110944415D02*
X155308333Y-111515843D01*
X155308333Y-111515843D02*
X155270238Y-111630129D01*
X155270238Y-111630129D02*
X155194047Y-111706320D01*
X155194047Y-111706320D02*
X155079762Y-111744415D01*
X155079762Y-111744415D02*
X155003571Y-111744415D01*
X156108333Y-111744415D02*
X155651190Y-111744415D01*
X155879762Y-111744415D02*
X155879762Y-110944415D01*
X155879762Y-110944415D02*
X155803571Y-111058700D01*
X155803571Y-111058700D02*
X155727381Y-111134891D01*
X155727381Y-111134891D02*
X155651190Y-111172986D01*
X151688809Y-97469605D02*
X151612619Y-97431510D01*
X151612619Y-97431510D02*
X151536428Y-97355320D01*
X151536428Y-97355320D02*
X151422142Y-97241034D01*
X151422142Y-97241034D02*
X151345952Y-97202939D01*
X151345952Y-97202939D02*
X151269761Y-97202939D01*
X151307857Y-97393415D02*
X151231666Y-97355320D01*
X151231666Y-97355320D02*
X151155476Y-97279129D01*
X151155476Y-97279129D02*
X151117380Y-97126748D01*
X151117380Y-97126748D02*
X151117380Y-96860081D01*
X151117380Y-96860081D02*
X151155476Y-96707700D01*
X151155476Y-96707700D02*
X151231666Y-96631510D01*
X151231666Y-96631510D02*
X151307857Y-96593415D01*
X151307857Y-96593415D02*
X151460238Y-96593415D01*
X151460238Y-96593415D02*
X151536428Y-96631510D01*
X151536428Y-96631510D02*
X151612619Y-96707700D01*
X151612619Y-96707700D02*
X151650714Y-96860081D01*
X151650714Y-96860081D02*
X151650714Y-97126748D01*
X151650714Y-97126748D02*
X151612619Y-97279129D01*
X151612619Y-97279129D02*
X151536428Y-97355320D01*
X151536428Y-97355320D02*
X151460238Y-97393415D01*
X151460238Y-97393415D02*
X151307857Y-97393415D01*
X152412618Y-97393415D02*
X151955475Y-97393415D01*
X152184047Y-97393415D02*
X152184047Y-96593415D01*
X152184047Y-96593415D02*
X152107856Y-96707700D01*
X152107856Y-96707700D02*
X152031666Y-96783891D01*
X152031666Y-96783891D02*
X151955475Y-96821986D01*
X169007214Y-110601415D02*
X168740547Y-110220462D01*
X168550071Y-110601415D02*
X168550071Y-109801415D01*
X168550071Y-109801415D02*
X168854833Y-109801415D01*
X168854833Y-109801415D02*
X168931023Y-109839510D01*
X168931023Y-109839510D02*
X168969118Y-109877605D01*
X168969118Y-109877605D02*
X169007214Y-109953796D01*
X169007214Y-109953796D02*
X169007214Y-110068081D01*
X169007214Y-110068081D02*
X168969118Y-110144272D01*
X168969118Y-110144272D02*
X168931023Y-110182367D01*
X168931023Y-110182367D02*
X168854833Y-110220462D01*
X168854833Y-110220462D02*
X168550071Y-110220462D01*
X169769118Y-110601415D02*
X169311975Y-110601415D01*
X169540547Y-110601415D02*
X169540547Y-109801415D01*
X169540547Y-109801415D02*
X169464356Y-109915700D01*
X169464356Y-109915700D02*
X169388166Y-109991891D01*
X169388166Y-109991891D02*
X169311975Y-110029986D01*
X170454833Y-110068081D02*
X170454833Y-110601415D01*
X170264357Y-109763320D02*
X170073880Y-110334748D01*
X170073880Y-110334748D02*
X170569119Y-110334748D01*
X150911224Y-102749332D02*
X150949320Y-102787428D01*
X150949320Y-102787428D02*
X150987415Y-102901713D01*
X150987415Y-102901713D02*
X150987415Y-102977904D01*
X150987415Y-102977904D02*
X150949320Y-103092190D01*
X150949320Y-103092190D02*
X150873129Y-103168380D01*
X150873129Y-103168380D02*
X150796939Y-103206475D01*
X150796939Y-103206475D02*
X150644558Y-103244571D01*
X150644558Y-103244571D02*
X150530272Y-103244571D01*
X150530272Y-103244571D02*
X150377891Y-103206475D01*
X150377891Y-103206475D02*
X150301700Y-103168380D01*
X150301700Y-103168380D02*
X150225510Y-103092190D01*
X150225510Y-103092190D02*
X150187415Y-102977904D01*
X150187415Y-102977904D02*
X150187415Y-102901713D01*
X150187415Y-102901713D02*
X150225510Y-102787428D01*
X150225510Y-102787428D02*
X150263605Y-102749332D01*
X150987415Y-101987428D02*
X150987415Y-102444571D01*
X150987415Y-102215999D02*
X150187415Y-102215999D01*
X150187415Y-102215999D02*
X150301700Y-102292190D01*
X150301700Y-102292190D02*
X150377891Y-102368380D01*
X150377891Y-102368380D02*
X150415986Y-102444571D01*
X154289415Y-99066332D02*
X153908462Y-99332999D01*
X154289415Y-99523475D02*
X153489415Y-99523475D01*
X153489415Y-99523475D02*
X153489415Y-99218713D01*
X153489415Y-99218713D02*
X153527510Y-99142523D01*
X153527510Y-99142523D02*
X153565605Y-99104428D01*
X153565605Y-99104428D02*
X153641796Y-99066332D01*
X153641796Y-99066332D02*
X153756081Y-99066332D01*
X153756081Y-99066332D02*
X153832272Y-99104428D01*
X153832272Y-99104428D02*
X153870367Y-99142523D01*
X153870367Y-99142523D02*
X153908462Y-99218713D01*
X153908462Y-99218713D02*
X153908462Y-99523475D01*
X153489415Y-98342523D02*
X153489415Y-98723475D01*
X153489415Y-98723475D02*
X153870367Y-98761571D01*
X153870367Y-98761571D02*
X153832272Y-98723475D01*
X153832272Y-98723475D02*
X153794177Y-98647285D01*
X153794177Y-98647285D02*
X153794177Y-98456809D01*
X153794177Y-98456809D02*
X153832272Y-98380618D01*
X153832272Y-98380618D02*
X153870367Y-98342523D01*
X153870367Y-98342523D02*
X153946558Y-98304428D01*
X153946558Y-98304428D02*
X154137034Y-98304428D01*
X154137034Y-98304428D02*
X154213224Y-98342523D01*
X154213224Y-98342523D02*
X154251320Y-98380618D01*
X154251320Y-98380618D02*
X154289415Y-98456809D01*
X154289415Y-98456809D02*
X154289415Y-98647285D01*
X154289415Y-98647285D02*
X154251320Y-98723475D01*
X154251320Y-98723475D02*
X154213224Y-98761571D01*
X169024333Y-86593415D02*
X169024333Y-87164843D01*
X169024333Y-87164843D02*
X168986238Y-87279129D01*
X168986238Y-87279129D02*
X168910047Y-87355320D01*
X168910047Y-87355320D02*
X168795762Y-87393415D01*
X168795762Y-87393415D02*
X168719571Y-87393415D01*
X169748143Y-86860081D02*
X169748143Y-87393415D01*
X169557667Y-86555320D02*
X169367190Y-87126748D01*
X169367190Y-87126748D02*
X169862429Y-87126748D01*
X150973214Y-109077415D02*
X150706547Y-108696462D01*
X150516071Y-109077415D02*
X150516071Y-108277415D01*
X150516071Y-108277415D02*
X150820833Y-108277415D01*
X150820833Y-108277415D02*
X150897023Y-108315510D01*
X150897023Y-108315510D02*
X150935118Y-108353605D01*
X150935118Y-108353605D02*
X150973214Y-108429796D01*
X150973214Y-108429796D02*
X150973214Y-108544081D01*
X150973214Y-108544081D02*
X150935118Y-108620272D01*
X150935118Y-108620272D02*
X150897023Y-108658367D01*
X150897023Y-108658367D02*
X150820833Y-108696462D01*
X150820833Y-108696462D02*
X150516071Y-108696462D01*
X151735118Y-109077415D02*
X151277975Y-109077415D01*
X151506547Y-109077415D02*
X151506547Y-108277415D01*
X151506547Y-108277415D02*
X151430356Y-108391700D01*
X151430356Y-108391700D02*
X151354166Y-108467891D01*
X151354166Y-108467891D02*
X151277975Y-108505986D01*
X152230357Y-108277415D02*
X152306547Y-108277415D01*
X152306547Y-108277415D02*
X152382738Y-108315510D01*
X152382738Y-108315510D02*
X152420833Y-108353605D01*
X152420833Y-108353605D02*
X152458928Y-108429796D01*
X152458928Y-108429796D02*
X152497023Y-108582177D01*
X152497023Y-108582177D02*
X152497023Y-108772653D01*
X152497023Y-108772653D02*
X152458928Y-108925034D01*
X152458928Y-108925034D02*
X152420833Y-109001224D01*
X152420833Y-109001224D02*
X152382738Y-109039320D01*
X152382738Y-109039320D02*
X152306547Y-109077415D01*
X152306547Y-109077415D02*
X152230357Y-109077415D01*
X152230357Y-109077415D02*
X152154166Y-109039320D01*
X152154166Y-109039320D02*
X152116071Y-109001224D01*
X152116071Y-109001224D02*
X152077976Y-108925034D01*
X152077976Y-108925034D02*
X152039880Y-108772653D01*
X152039880Y-108772653D02*
X152039880Y-108582177D01*
X152039880Y-108582177D02*
X152077976Y-108429796D01*
X152077976Y-108429796D02*
X152116071Y-108353605D01*
X152116071Y-108353605D02*
X152154166Y-108315510D01*
X152154166Y-108315510D02*
X152230357Y-108277415D01*
X147304415Y-71507285D02*
X146923462Y-71773952D01*
X147304415Y-71964428D02*
X146504415Y-71964428D01*
X146504415Y-71964428D02*
X146504415Y-71659666D01*
X146504415Y-71659666D02*
X146542510Y-71583476D01*
X146542510Y-71583476D02*
X146580605Y-71545381D01*
X146580605Y-71545381D02*
X146656796Y-71507285D01*
X146656796Y-71507285D02*
X146771081Y-71507285D01*
X146771081Y-71507285D02*
X146847272Y-71545381D01*
X146847272Y-71545381D02*
X146885367Y-71583476D01*
X146885367Y-71583476D02*
X146923462Y-71659666D01*
X146923462Y-71659666D02*
X146923462Y-71964428D01*
X146580605Y-71202524D02*
X146542510Y-71164428D01*
X146542510Y-71164428D02*
X146504415Y-71088238D01*
X146504415Y-71088238D02*
X146504415Y-70897762D01*
X146504415Y-70897762D02*
X146542510Y-70821571D01*
X146542510Y-70821571D02*
X146580605Y-70783476D01*
X146580605Y-70783476D02*
X146656796Y-70745381D01*
X146656796Y-70745381D02*
X146732986Y-70745381D01*
X146732986Y-70745381D02*
X146847272Y-70783476D01*
X146847272Y-70783476D02*
X147304415Y-71240619D01*
X147304415Y-71240619D02*
X147304415Y-70745381D01*
X146504415Y-70250142D02*
X146504415Y-70173952D01*
X146504415Y-70173952D02*
X146542510Y-70097761D01*
X146542510Y-70097761D02*
X146580605Y-70059666D01*
X146580605Y-70059666D02*
X146656796Y-70021571D01*
X146656796Y-70021571D02*
X146809177Y-69983476D01*
X146809177Y-69983476D02*
X146999653Y-69983476D01*
X146999653Y-69983476D02*
X147152034Y-70021571D01*
X147152034Y-70021571D02*
X147228224Y-70059666D01*
X147228224Y-70059666D02*
X147266320Y-70097761D01*
X147266320Y-70097761D02*
X147304415Y-70173952D01*
X147304415Y-70173952D02*
X147304415Y-70250142D01*
X147304415Y-70250142D02*
X147266320Y-70326333D01*
X147266320Y-70326333D02*
X147228224Y-70364428D01*
X147228224Y-70364428D02*
X147152034Y-70402523D01*
X147152034Y-70402523D02*
X146999653Y-70440619D01*
X146999653Y-70440619D02*
X146809177Y-70440619D01*
X146809177Y-70440619D02*
X146656796Y-70402523D01*
X146656796Y-70402523D02*
X146580605Y-70364428D01*
X146580605Y-70364428D02*
X146542510Y-70326333D01*
X146542510Y-70326333D02*
X146504415Y-70250142D01*
X164943214Y-108569415D02*
X164676547Y-108188462D01*
X164486071Y-108569415D02*
X164486071Y-107769415D01*
X164486071Y-107769415D02*
X164790833Y-107769415D01*
X164790833Y-107769415D02*
X164867023Y-107807510D01*
X164867023Y-107807510D02*
X164905118Y-107845605D01*
X164905118Y-107845605D02*
X164943214Y-107921796D01*
X164943214Y-107921796D02*
X164943214Y-108036081D01*
X164943214Y-108036081D02*
X164905118Y-108112272D01*
X164905118Y-108112272D02*
X164867023Y-108150367D01*
X164867023Y-108150367D02*
X164790833Y-108188462D01*
X164790833Y-108188462D02*
X164486071Y-108188462D01*
X165705118Y-108569415D02*
X165247975Y-108569415D01*
X165476547Y-108569415D02*
X165476547Y-107769415D01*
X165476547Y-107769415D02*
X165400356Y-107883700D01*
X165400356Y-107883700D02*
X165324166Y-107959891D01*
X165324166Y-107959891D02*
X165247975Y-107997986D01*
X166428928Y-107769415D02*
X166047976Y-107769415D01*
X166047976Y-107769415D02*
X166009880Y-108150367D01*
X166009880Y-108150367D02*
X166047976Y-108112272D01*
X166047976Y-108112272D02*
X166124166Y-108074177D01*
X166124166Y-108074177D02*
X166314642Y-108074177D01*
X166314642Y-108074177D02*
X166390833Y-108112272D01*
X166390833Y-108112272D02*
X166428928Y-108150367D01*
X166428928Y-108150367D02*
X166467023Y-108226558D01*
X166467023Y-108226558D02*
X166467023Y-108417034D01*
X166467023Y-108417034D02*
X166428928Y-108493224D01*
X166428928Y-108493224D02*
X166390833Y-108531320D01*
X166390833Y-108531320D02*
X166314642Y-108569415D01*
X166314642Y-108569415D02*
X166124166Y-108569415D01*
X166124166Y-108569415D02*
X166047976Y-108531320D01*
X166047976Y-108531320D02*
X166009880Y-108493224D01*
X148447415Y-92792475D02*
X147647415Y-92792475D01*
X147647415Y-92792475D02*
X147647415Y-92601999D01*
X147647415Y-92601999D02*
X147685510Y-92487713D01*
X147685510Y-92487713D02*
X147761700Y-92411523D01*
X147761700Y-92411523D02*
X147837891Y-92373428D01*
X147837891Y-92373428D02*
X147990272Y-92335332D01*
X147990272Y-92335332D02*
X148104558Y-92335332D01*
X148104558Y-92335332D02*
X148256939Y-92373428D01*
X148256939Y-92373428D02*
X148333129Y-92411523D01*
X148333129Y-92411523D02*
X148409320Y-92487713D01*
X148409320Y-92487713D02*
X148447415Y-92601999D01*
X148447415Y-92601999D02*
X148447415Y-92792475D01*
X147723605Y-92030571D02*
X147685510Y-91992475D01*
X147685510Y-91992475D02*
X147647415Y-91916285D01*
X147647415Y-91916285D02*
X147647415Y-91725809D01*
X147647415Y-91725809D02*
X147685510Y-91649618D01*
X147685510Y-91649618D02*
X147723605Y-91611523D01*
X147723605Y-91611523D02*
X147799796Y-91573428D01*
X147799796Y-91573428D02*
X147875986Y-91573428D01*
X147875986Y-91573428D02*
X147990272Y-91611523D01*
X147990272Y-91611523D02*
X148447415Y-92068666D01*
X148447415Y-92068666D02*
X148447415Y-91573428D01*
X151625333Y-64716415D02*
X151625333Y-65287843D01*
X151625333Y-65287843D02*
X151587238Y-65402129D01*
X151587238Y-65402129D02*
X151511047Y-65478320D01*
X151511047Y-65478320D02*
X151396762Y-65516415D01*
X151396762Y-65516415D02*
X151320571Y-65516415D01*
X151930095Y-64716415D02*
X152425333Y-64716415D01*
X152425333Y-64716415D02*
X152158667Y-65021177D01*
X152158667Y-65021177D02*
X152272952Y-65021177D01*
X152272952Y-65021177D02*
X152349143Y-65059272D01*
X152349143Y-65059272D02*
X152387238Y-65097367D01*
X152387238Y-65097367D02*
X152425333Y-65173558D01*
X152425333Y-65173558D02*
X152425333Y-65364034D01*
X152425333Y-65364034D02*
X152387238Y-65440224D01*
X152387238Y-65440224D02*
X152349143Y-65478320D01*
X152349143Y-65478320D02*
X152272952Y-65516415D01*
X152272952Y-65516415D02*
X152044381Y-65516415D01*
X152044381Y-65516415D02*
X151968190Y-65478320D01*
X151968190Y-65478320D02*
X151930095Y-65440224D01*
X170164415Y-99574238D02*
X170164415Y-99955190D01*
X170164415Y-99955190D02*
X169364415Y-99955190D01*
X169745367Y-99307571D02*
X169745367Y-99040905D01*
X170164415Y-98926619D02*
X170164415Y-99307571D01*
X170164415Y-99307571D02*
X169364415Y-99307571D01*
X169364415Y-99307571D02*
X169364415Y-98926619D01*
X170164415Y-98583761D02*
X169364415Y-98583761D01*
X169364415Y-98583761D02*
X169364415Y-98393285D01*
X169364415Y-98393285D02*
X169402510Y-98278999D01*
X169402510Y-98278999D02*
X169478700Y-98202809D01*
X169478700Y-98202809D02*
X169554891Y-98164714D01*
X169554891Y-98164714D02*
X169707272Y-98126618D01*
X169707272Y-98126618D02*
X169821558Y-98126618D01*
X169821558Y-98126618D02*
X169973939Y-98164714D01*
X169973939Y-98164714D02*
X170050129Y-98202809D01*
X170050129Y-98202809D02*
X170126320Y-98278999D01*
X170126320Y-98278999D02*
X170164415Y-98393285D01*
X170164415Y-98393285D02*
X170164415Y-98583761D01*
X170164415Y-97364714D02*
X170164415Y-97821857D01*
X170164415Y-97593285D02*
X169364415Y-97593285D01*
X169364415Y-97593285D02*
X169478700Y-97669476D01*
X169478700Y-97669476D02*
X169554891Y-97745666D01*
X169554891Y-97745666D02*
X169592986Y-97821857D01*
X153362197Y-107045415D02*
X153095530Y-106664462D01*
X152905054Y-107045415D02*
X152905054Y-106245415D01*
X152905054Y-106245415D02*
X153209816Y-106245415D01*
X153209816Y-106245415D02*
X153286006Y-106283510D01*
X153286006Y-106283510D02*
X153324101Y-106321605D01*
X153324101Y-106321605D02*
X153362197Y-106397796D01*
X153362197Y-106397796D02*
X153362197Y-106512081D01*
X153362197Y-106512081D02*
X153324101Y-106588272D01*
X153324101Y-106588272D02*
X153286006Y-106626367D01*
X153286006Y-106626367D02*
X153209816Y-106664462D01*
X153209816Y-106664462D02*
X152905054Y-106664462D01*
X154047911Y-106245415D02*
X153895530Y-106245415D01*
X153895530Y-106245415D02*
X153819339Y-106283510D01*
X153819339Y-106283510D02*
X153781244Y-106321605D01*
X153781244Y-106321605D02*
X153705054Y-106435891D01*
X153705054Y-106435891D02*
X153666958Y-106588272D01*
X153666958Y-106588272D02*
X153666958Y-106893034D01*
X153666958Y-106893034D02*
X153705054Y-106969224D01*
X153705054Y-106969224D02*
X153743149Y-107007320D01*
X153743149Y-107007320D02*
X153819339Y-107045415D01*
X153819339Y-107045415D02*
X153971720Y-107045415D01*
X153971720Y-107045415D02*
X154047911Y-107007320D01*
X154047911Y-107007320D02*
X154086006Y-106969224D01*
X154086006Y-106969224D02*
X154124101Y-106893034D01*
X154124101Y-106893034D02*
X154124101Y-106702558D01*
X154124101Y-106702558D02*
X154086006Y-106626367D01*
X154086006Y-106626367D02*
X154047911Y-106588272D01*
X154047911Y-106588272D02*
X153971720Y-106550177D01*
X153971720Y-106550177D02*
X153819339Y-106550177D01*
X153819339Y-106550177D02*
X153743149Y-106588272D01*
X153743149Y-106588272D02*
X153705054Y-106626367D01*
X153705054Y-106626367D02*
X153666958Y-106702558D01*
X151100167Y-107045415D02*
X150833500Y-106664462D01*
X150643024Y-107045415D02*
X150643024Y-106245415D01*
X150643024Y-106245415D02*
X150947786Y-106245415D01*
X150947786Y-106245415D02*
X151023976Y-106283510D01*
X151023976Y-106283510D02*
X151062071Y-106321605D01*
X151062071Y-106321605D02*
X151100167Y-106397796D01*
X151100167Y-106397796D02*
X151100167Y-106512081D01*
X151100167Y-106512081D02*
X151062071Y-106588272D01*
X151062071Y-106588272D02*
X151023976Y-106626367D01*
X151023976Y-106626367D02*
X150947786Y-106664462D01*
X150947786Y-106664462D02*
X150643024Y-106664462D01*
X151366833Y-106245415D02*
X151900167Y-106245415D01*
X151900167Y-106245415D02*
X151557309Y-107045415D01*
X148931915Y-108464332D02*
X148550962Y-108730999D01*
X148931915Y-108921475D02*
X148131915Y-108921475D01*
X148131915Y-108921475D02*
X148131915Y-108616713D01*
X148131915Y-108616713D02*
X148170010Y-108540523D01*
X148170010Y-108540523D02*
X148208105Y-108502428D01*
X148208105Y-108502428D02*
X148284296Y-108464332D01*
X148284296Y-108464332D02*
X148398581Y-108464332D01*
X148398581Y-108464332D02*
X148474772Y-108502428D01*
X148474772Y-108502428D02*
X148512867Y-108540523D01*
X148512867Y-108540523D02*
X148550962Y-108616713D01*
X148550962Y-108616713D02*
X148550962Y-108921475D01*
X148931915Y-108083380D02*
X148931915Y-107930999D01*
X148931915Y-107930999D02*
X148893820Y-107854809D01*
X148893820Y-107854809D02*
X148855724Y-107816713D01*
X148855724Y-107816713D02*
X148741439Y-107740523D01*
X148741439Y-107740523D02*
X148589058Y-107702428D01*
X148589058Y-107702428D02*
X148284296Y-107702428D01*
X148284296Y-107702428D02*
X148208105Y-107740523D01*
X148208105Y-107740523D02*
X148170010Y-107778618D01*
X148170010Y-107778618D02*
X148131915Y-107854809D01*
X148131915Y-107854809D02*
X148131915Y-108007190D01*
X148131915Y-108007190D02*
X148170010Y-108083380D01*
X148170010Y-108083380D02*
X148208105Y-108121475D01*
X148208105Y-108121475D02*
X148284296Y-108159571D01*
X148284296Y-108159571D02*
X148474772Y-108159571D01*
X148474772Y-108159571D02*
X148550962Y-108121475D01*
X148550962Y-108121475D02*
X148589058Y-108083380D01*
X148589058Y-108083380D02*
X148627153Y-108007190D01*
X148627153Y-108007190D02*
X148627153Y-107854809D01*
X148627153Y-107854809D02*
X148589058Y-107778618D01*
X148589058Y-107778618D02*
X148550962Y-107740523D01*
X148550962Y-107740523D02*
X148474772Y-107702428D01*
X166848214Y-107045415D02*
X166581547Y-106664462D01*
X166391071Y-107045415D02*
X166391071Y-106245415D01*
X166391071Y-106245415D02*
X166695833Y-106245415D01*
X166695833Y-106245415D02*
X166772023Y-106283510D01*
X166772023Y-106283510D02*
X166810118Y-106321605D01*
X166810118Y-106321605D02*
X166848214Y-106397796D01*
X166848214Y-106397796D02*
X166848214Y-106512081D01*
X166848214Y-106512081D02*
X166810118Y-106588272D01*
X166810118Y-106588272D02*
X166772023Y-106626367D01*
X166772023Y-106626367D02*
X166695833Y-106664462D01*
X166695833Y-106664462D02*
X166391071Y-106664462D01*
X167610118Y-107045415D02*
X167152975Y-107045415D01*
X167381547Y-107045415D02*
X167381547Y-106245415D01*
X167381547Y-106245415D02*
X167305356Y-106359700D01*
X167305356Y-106359700D02*
X167229166Y-106435891D01*
X167229166Y-106435891D02*
X167152975Y-106473986D01*
X167876785Y-106245415D02*
X168372023Y-106245415D01*
X168372023Y-106245415D02*
X168105357Y-106550177D01*
X168105357Y-106550177D02*
X168219642Y-106550177D01*
X168219642Y-106550177D02*
X168295833Y-106588272D01*
X168295833Y-106588272D02*
X168333928Y-106626367D01*
X168333928Y-106626367D02*
X168372023Y-106702558D01*
X168372023Y-106702558D02*
X168372023Y-106893034D01*
X168372023Y-106893034D02*
X168333928Y-106969224D01*
X168333928Y-106969224D02*
X168295833Y-107007320D01*
X168295833Y-107007320D02*
X168219642Y-107045415D01*
X168219642Y-107045415D02*
X167991071Y-107045415D01*
X167991071Y-107045415D02*
X167914880Y-107007320D01*
X167914880Y-107007320D02*
X167876785Y-106969224D01*
X149269524Y-86344415D02*
X149269524Y-85544415D01*
X149269524Y-85544415D02*
X149460000Y-85544415D01*
X149460000Y-85544415D02*
X149574286Y-85582510D01*
X149574286Y-85582510D02*
X149650476Y-85658700D01*
X149650476Y-85658700D02*
X149688571Y-85734891D01*
X149688571Y-85734891D02*
X149726667Y-85887272D01*
X149726667Y-85887272D02*
X149726667Y-86001558D01*
X149726667Y-86001558D02*
X149688571Y-86153939D01*
X149688571Y-86153939D02*
X149650476Y-86230129D01*
X149650476Y-86230129D02*
X149574286Y-86306320D01*
X149574286Y-86306320D02*
X149460000Y-86344415D01*
X149460000Y-86344415D02*
X149269524Y-86344415D01*
X150488571Y-86344415D02*
X150031428Y-86344415D01*
X150260000Y-86344415D02*
X150260000Y-85544415D01*
X150260000Y-85544415D02*
X150183809Y-85658700D01*
X150183809Y-85658700D02*
X150107619Y-85734891D01*
X150107619Y-85734891D02*
X150031428Y-85772986D01*
X161023333Y-86814415D02*
X161023333Y-87385843D01*
X161023333Y-87385843D02*
X160985238Y-87500129D01*
X160985238Y-87500129D02*
X160909047Y-87576320D01*
X160909047Y-87576320D02*
X160794762Y-87614415D01*
X160794762Y-87614415D02*
X160718571Y-87614415D01*
X161785238Y-86814415D02*
X161404286Y-86814415D01*
X161404286Y-86814415D02*
X161366190Y-87195367D01*
X161366190Y-87195367D02*
X161404286Y-87157272D01*
X161404286Y-87157272D02*
X161480476Y-87119177D01*
X161480476Y-87119177D02*
X161670952Y-87119177D01*
X161670952Y-87119177D02*
X161747143Y-87157272D01*
X161747143Y-87157272D02*
X161785238Y-87195367D01*
X161785238Y-87195367D02*
X161823333Y-87271558D01*
X161823333Y-87271558D02*
X161823333Y-87462034D01*
X161823333Y-87462034D02*
X161785238Y-87538224D01*
X161785238Y-87538224D02*
X161747143Y-87576320D01*
X161747143Y-87576320D02*
X161670952Y-87614415D01*
X161670952Y-87614415D02*
X161480476Y-87614415D01*
X161480476Y-87614415D02*
X161404286Y-87576320D01*
X161404286Y-87576320D02*
X161366190Y-87538224D01*
X150060415Y-99034523D02*
X150708034Y-99034523D01*
X150708034Y-99034523D02*
X150784224Y-98996428D01*
X150784224Y-98996428D02*
X150822320Y-98958333D01*
X150822320Y-98958333D02*
X150860415Y-98882142D01*
X150860415Y-98882142D02*
X150860415Y-98729761D01*
X150860415Y-98729761D02*
X150822320Y-98653571D01*
X150822320Y-98653571D02*
X150784224Y-98615476D01*
X150784224Y-98615476D02*
X150708034Y-98577380D01*
X150708034Y-98577380D02*
X150060415Y-98577380D01*
X150060415Y-98272619D02*
X150060415Y-97777381D01*
X150060415Y-97777381D02*
X150365177Y-98044047D01*
X150365177Y-98044047D02*
X150365177Y-97929762D01*
X150365177Y-97929762D02*
X150403272Y-97853571D01*
X150403272Y-97853571D02*
X150441367Y-97815476D01*
X150441367Y-97815476D02*
X150517558Y-97777381D01*
X150517558Y-97777381D02*
X150708034Y-97777381D01*
X150708034Y-97777381D02*
X150784224Y-97815476D01*
X150784224Y-97815476D02*
X150822320Y-97853571D01*
X150822320Y-97853571D02*
X150860415Y-97929762D01*
X150860415Y-97929762D02*
X150860415Y-98158333D01*
X150860415Y-98158333D02*
X150822320Y-98234524D01*
X150822320Y-98234524D02*
X150784224Y-98272619D01*
X163800214Y-107045415D02*
X163533547Y-106664462D01*
X163343071Y-107045415D02*
X163343071Y-106245415D01*
X163343071Y-106245415D02*
X163647833Y-106245415D01*
X163647833Y-106245415D02*
X163724023Y-106283510D01*
X163724023Y-106283510D02*
X163762118Y-106321605D01*
X163762118Y-106321605D02*
X163800214Y-106397796D01*
X163800214Y-106397796D02*
X163800214Y-106512081D01*
X163800214Y-106512081D02*
X163762118Y-106588272D01*
X163762118Y-106588272D02*
X163724023Y-106626367D01*
X163724023Y-106626367D02*
X163647833Y-106664462D01*
X163647833Y-106664462D02*
X163343071Y-106664462D01*
X164562118Y-107045415D02*
X164104975Y-107045415D01*
X164333547Y-107045415D02*
X164333547Y-106245415D01*
X164333547Y-106245415D02*
X164257356Y-106359700D01*
X164257356Y-106359700D02*
X164181166Y-106435891D01*
X164181166Y-106435891D02*
X164104975Y-106473986D01*
X164866880Y-106321605D02*
X164904976Y-106283510D01*
X164904976Y-106283510D02*
X164981166Y-106245415D01*
X164981166Y-106245415D02*
X165171642Y-106245415D01*
X165171642Y-106245415D02*
X165247833Y-106283510D01*
X165247833Y-106283510D02*
X165285928Y-106321605D01*
X165285928Y-106321605D02*
X165324023Y-106397796D01*
X165324023Y-106397796D02*
X165324023Y-106473986D01*
X165324023Y-106473986D02*
X165285928Y-106588272D01*
X165285928Y-106588272D02*
X164828785Y-107045415D01*
X164828785Y-107045415D02*
X165324023Y-107045415D01*
X165792237Y-103197367D02*
X165906523Y-103235462D01*
X165906523Y-103235462D02*
X165944618Y-103273558D01*
X165944618Y-103273558D02*
X165982714Y-103349748D01*
X165982714Y-103349748D02*
X165982714Y-103464034D01*
X165982714Y-103464034D02*
X165944618Y-103540224D01*
X165944618Y-103540224D02*
X165906523Y-103578320D01*
X165906523Y-103578320D02*
X165830333Y-103616415D01*
X165830333Y-103616415D02*
X165525571Y-103616415D01*
X165525571Y-103616415D02*
X165525571Y-102816415D01*
X165525571Y-102816415D02*
X165792237Y-102816415D01*
X165792237Y-102816415D02*
X165868428Y-102854510D01*
X165868428Y-102854510D02*
X165906523Y-102892605D01*
X165906523Y-102892605D02*
X165944618Y-102968796D01*
X165944618Y-102968796D02*
X165944618Y-103044986D01*
X165944618Y-103044986D02*
X165906523Y-103121177D01*
X165906523Y-103121177D02*
X165868428Y-103159272D01*
X165868428Y-103159272D02*
X165792237Y-103197367D01*
X165792237Y-103197367D02*
X165525571Y-103197367D01*
X166249380Y-102816415D02*
X166782714Y-102816415D01*
X166782714Y-102816415D02*
X166249380Y-103616415D01*
X166249380Y-103616415D02*
X166782714Y-103616415D01*
X167506523Y-103616415D02*
X167049380Y-103616415D01*
X167277952Y-103616415D02*
X167277952Y-102816415D01*
X167277952Y-102816415D02*
X167201761Y-102930700D01*
X167201761Y-102930700D02*
X167125571Y-103006891D01*
X167125571Y-103006891D02*
X167049380Y-103044986D01*
X156688214Y-107045415D02*
X156421547Y-106664462D01*
X156231071Y-107045415D02*
X156231071Y-106245415D01*
X156231071Y-106245415D02*
X156535833Y-106245415D01*
X156535833Y-106245415D02*
X156612023Y-106283510D01*
X156612023Y-106283510D02*
X156650118Y-106321605D01*
X156650118Y-106321605D02*
X156688214Y-106397796D01*
X156688214Y-106397796D02*
X156688214Y-106512081D01*
X156688214Y-106512081D02*
X156650118Y-106588272D01*
X156650118Y-106588272D02*
X156612023Y-106626367D01*
X156612023Y-106626367D02*
X156535833Y-106664462D01*
X156535833Y-106664462D02*
X156231071Y-106664462D01*
X156992975Y-106321605D02*
X157031071Y-106283510D01*
X157031071Y-106283510D02*
X157107261Y-106245415D01*
X157107261Y-106245415D02*
X157297737Y-106245415D01*
X157297737Y-106245415D02*
X157373928Y-106283510D01*
X157373928Y-106283510D02*
X157412023Y-106321605D01*
X157412023Y-106321605D02*
X157450118Y-106397796D01*
X157450118Y-106397796D02*
X157450118Y-106473986D01*
X157450118Y-106473986D02*
X157412023Y-106588272D01*
X157412023Y-106588272D02*
X156954880Y-107045415D01*
X156954880Y-107045415D02*
X157450118Y-107045415D01*
X157754880Y-106321605D02*
X157792976Y-106283510D01*
X157792976Y-106283510D02*
X157869166Y-106245415D01*
X157869166Y-106245415D02*
X158059642Y-106245415D01*
X158059642Y-106245415D02*
X158135833Y-106283510D01*
X158135833Y-106283510D02*
X158173928Y-106321605D01*
X158173928Y-106321605D02*
X158212023Y-106397796D01*
X158212023Y-106397796D02*
X158212023Y-106473986D01*
X158212023Y-106473986D02*
X158173928Y-106588272D01*
X158173928Y-106588272D02*
X157716785Y-107045415D01*
X157716785Y-107045415D02*
X158212023Y-107045415D01*
X147304415Y-81032285D02*
X146923462Y-81298952D01*
X147304415Y-81489428D02*
X146504415Y-81489428D01*
X146504415Y-81489428D02*
X146504415Y-81184666D01*
X146504415Y-81184666D02*
X146542510Y-81108476D01*
X146542510Y-81108476D02*
X146580605Y-81070381D01*
X146580605Y-81070381D02*
X146656796Y-81032285D01*
X146656796Y-81032285D02*
X146771081Y-81032285D01*
X146771081Y-81032285D02*
X146847272Y-81070381D01*
X146847272Y-81070381D02*
X146885367Y-81108476D01*
X146885367Y-81108476D02*
X146923462Y-81184666D01*
X146923462Y-81184666D02*
X146923462Y-81489428D01*
X146580605Y-80727524D02*
X146542510Y-80689428D01*
X146542510Y-80689428D02*
X146504415Y-80613238D01*
X146504415Y-80613238D02*
X146504415Y-80422762D01*
X146504415Y-80422762D02*
X146542510Y-80346571D01*
X146542510Y-80346571D02*
X146580605Y-80308476D01*
X146580605Y-80308476D02*
X146656796Y-80270381D01*
X146656796Y-80270381D02*
X146732986Y-80270381D01*
X146732986Y-80270381D02*
X146847272Y-80308476D01*
X146847272Y-80308476D02*
X147304415Y-80765619D01*
X147304415Y-80765619D02*
X147304415Y-80270381D01*
X147304415Y-79508476D02*
X147304415Y-79965619D01*
X147304415Y-79737047D02*
X146504415Y-79737047D01*
X146504415Y-79737047D02*
X146618700Y-79813238D01*
X146618700Y-79813238D02*
X146694891Y-79889428D01*
X146694891Y-79889428D02*
X146732986Y-79965619D01*
X147304415Y-92716332D02*
X146923462Y-92982999D01*
X147304415Y-93173475D02*
X146504415Y-93173475D01*
X146504415Y-93173475D02*
X146504415Y-92868713D01*
X146504415Y-92868713D02*
X146542510Y-92792523D01*
X146542510Y-92792523D02*
X146580605Y-92754428D01*
X146580605Y-92754428D02*
X146656796Y-92716332D01*
X146656796Y-92716332D02*
X146771081Y-92716332D01*
X146771081Y-92716332D02*
X146847272Y-92754428D01*
X146847272Y-92754428D02*
X146885367Y-92792523D01*
X146885367Y-92792523D02*
X146923462Y-92868713D01*
X146923462Y-92868713D02*
X146923462Y-93173475D01*
X147304415Y-91954428D02*
X147304415Y-92411571D01*
X147304415Y-92182999D02*
X146504415Y-92182999D01*
X146504415Y-92182999D02*
X146618700Y-92259190D01*
X146618700Y-92259190D02*
X146694891Y-92335380D01*
X146694891Y-92335380D02*
X146732986Y-92411571D01*
%TO.C,R11*%
D11*
X161366564Y-104294000D02*
X160912436Y-104294000D01*
X161366564Y-105764000D02*
X160912436Y-105764000D01*
%TO.C,R4*%
X151538000Y-90831936D02*
X151538000Y-91286064D01*
X153008000Y-90831936D02*
X153008000Y-91286064D01*
%TO.C,R8*%
X146180500Y-106018064D02*
X146180500Y-105563936D01*
X147650500Y-106018064D02*
X147650500Y-105563936D01*
%TO.C,Q1*%
X151475000Y-94568500D02*
X151525000Y-94568500D01*
X151475000Y-96088500D02*
X151475000Y-94568500D01*
X152475000Y-96088500D02*
X151475000Y-96088500D01*
X152645000Y-94568500D02*
X153425000Y-94568500D01*
X154545000Y-94568500D02*
X154595000Y-94568500D01*
X154595000Y-94568500D02*
X154595000Y-96088500D01*
X154595000Y-96088500D02*
X153595000Y-96088500D01*
X153415000Y-94028500D02*
X153085000Y-94268500D01*
X153085000Y-93788500D01*
X153415000Y-94028500D01*
G36*
X153415000Y-94028500D02*
G01*
X153085000Y-94268500D01*
X153085000Y-93788500D01*
X153415000Y-94028500D01*
G37*
%TO.C,R14*%
X168913500Y-108177064D02*
X168913500Y-107722936D01*
X170383500Y-108177064D02*
X170383500Y-107722936D01*
%TO.C,C1*%
X148531252Y-101500000D02*
X148008748Y-101500000D01*
X148531252Y-102970000D02*
X148008748Y-102970000D01*
%TO.C,R5*%
X152627064Y-99976000D02*
X152172936Y-99976000D01*
X152627064Y-101446000D02*
X152172936Y-101446000D01*
%TO.C,J4*%
X168131000Y-87963000D02*
X169291000Y-87963000D01*
X168131000Y-88773000D02*
X168131000Y-87963000D01*
X168131000Y-89583000D02*
X168131000Y-90788000D01*
X168131000Y-89583000D02*
X168624292Y-89583000D01*
X168131000Y-90788000D02*
X168973077Y-90788000D01*
X169608923Y-90788000D02*
X170451000Y-90788000D01*
X169957708Y-89583000D02*
X170451000Y-89583000D01*
X170451000Y-89583000D02*
X170451000Y-90788000D01*
%TO.C,R10*%
X150063564Y-109628000D02*
X149609436Y-109628000D01*
X150063564Y-111098000D02*
X149609436Y-111098000D01*
%TO.C,R20*%
X146204000Y-74014064D02*
X146204000Y-73559936D01*
X147674000Y-74014064D02*
X147674000Y-73559936D01*
%TO.C,R15*%
X166373436Y-108993000D02*
X166827564Y-108993000D01*
X166373436Y-110463000D02*
X166827564Y-110463000D01*
%TO.C,D2*%
X148860000Y-96594000D02*
X148860000Y-92584000D01*
X148860000Y-96594000D02*
X150860000Y-96594000D01*
X150860000Y-96594000D02*
X150860000Y-92584000D01*
%TO.C,LED1*%
D12*
X170101474Y-92614988D02*
X170771474Y-92614988D01*
X170521474Y-93724988D02*
X170771474Y-93474988D01*
X170521474Y-95494988D02*
X170521474Y-93724988D01*
X170771474Y-92614988D02*
X170771474Y-96614988D01*
X170771474Y-95744988D02*
X170521474Y-95494988D01*
X170771474Y-95784988D02*
X170771474Y-95744988D01*
X170771474Y-96614988D02*
X170121474Y-96614988D01*
X169981474Y-96744988D02*
G75*
G02*
X169821474Y-96744988I-80000J0D01*
G01*
X169821474Y-96744988D02*
G75*
G02*
X169981474Y-96744988I80000J0D01*
G01*
D13*
X170801474Y-96614988D02*
G75*
G02*
X170741474Y-96614988I-30000J0D01*
G01*
X170741474Y-96614988D02*
G75*
G02*
X170801474Y-96614988I30000J0D01*
G01*
%TO.C,R6*%
D11*
X153292436Y-104294000D02*
X153746564Y-104294000D01*
X153292436Y-105764000D02*
X153746564Y-105764000D01*
%TO.C,R7*%
X149585936Y-104294000D02*
X150040064Y-104294000D01*
X149585936Y-105764000D02*
X150040064Y-105764000D01*
%TO.C,R9*%
X146180500Y-109724564D02*
X146180500Y-109270436D01*
X147650500Y-109724564D02*
X147650500Y-109270436D01*
%TO.C,R13*%
X168883064Y-104294000D02*
X168428936Y-104294000D01*
X168883064Y-105764000D02*
X168428936Y-105764000D01*
%TO.C,D1*%
X148860000Y-91387000D02*
X148860000Y-87377000D01*
X148860000Y-91387000D02*
X150860000Y-91387000D01*
X150860000Y-91387000D02*
X150860000Y-87377000D01*
%TO.C,U3*%
X146649000Y-98378500D02*
X147649000Y-98378500D01*
X146649000Y-99898500D02*
X146649000Y-98378500D01*
X146699000Y-99898500D02*
X146649000Y-99898500D01*
X148599000Y-99898500D02*
X147819000Y-99898500D01*
X148769000Y-98378500D02*
X149769000Y-98378500D01*
X149769000Y-98378500D02*
X149769000Y-99898500D01*
X149769000Y-99898500D02*
X149719000Y-99898500D01*
X148159000Y-100678500D02*
X147829000Y-100438500D01*
X148159000Y-100198500D01*
X148159000Y-100678500D01*
G36*
X148159000Y-100678500D02*
G01*
X147829000Y-100438500D01*
X148159000Y-100198500D01*
X148159000Y-100678500D01*
G37*
%TO.C,R12*%
X165176564Y-104294000D02*
X164722436Y-104294000D01*
X165176564Y-105764000D02*
X164722436Y-105764000D01*
%TO.C,BZ1*%
X155170000Y-90019000D02*
X159030000Y-90019000D01*
X155170000Y-102259000D02*
X155170000Y-90019000D01*
X159030000Y-102259000D02*
X155170000Y-102259000D01*
X163550000Y-90019000D02*
X163550000Y-89719000D01*
X163550000Y-90019000D02*
X167410000Y-90019000D01*
X167410000Y-90019000D02*
X167410000Y-102259000D01*
X167410000Y-102259000D02*
X163550000Y-102259000D01*
%TO.C,R22*%
X157102436Y-104294000D02*
X157556564Y-104294000D01*
X157102436Y-105764000D02*
X157556564Y-105764000D01*
%TO.C,R21*%
X146204000Y-77369936D02*
X146204000Y-77824064D01*
X147674000Y-77369936D02*
X147674000Y-77824064D01*
%TO.C,R1*%
X146331000Y-94895936D02*
X146331000Y-95350064D01*
X147801000Y-94895936D02*
X147801000Y-95350064D01*
%TD*%
%LPC*%
D14*
%TO.C,R11*%
X162052000Y-105029000D03*
X160227000Y-105029000D03*
%TD*%
D15*
%TO.C,J2*%
X162052000Y-110998000D03*
%TD*%
D16*
%TO.C,R4*%
X152273000Y-90146500D03*
X152273000Y-91971500D03*
%TD*%
D17*
%TO.C,J6*%
X166516502Y-67691005D03*
D18*
X166516506Y-70231005D03*
D19*
X166508679Y-72783025D03*
D20*
X166516502Y-75311002D03*
D21*
X166516510Y-77851009D03*
D22*
X166516503Y-80391002D03*
D23*
X166516511Y-82931010D03*
%TD*%
D24*
%TO.C,R8*%
X146915500Y-106703500D03*
X146915500Y-104878500D03*
%TD*%
D15*
%TO.C,J1*%
X153416000Y-110998000D03*
%TD*%
D25*
%TO.C,Q1*%
X153985000Y-94391000D03*
X152085000Y-94391000D03*
X153035000Y-96266000D03*
%TD*%
D24*
%TO.C,R14*%
X169648500Y-108862500D03*
X169648500Y-107037500D03*
%TD*%
D26*
%TO.C,C1*%
X149220000Y-102235000D03*
X147320000Y-102235000D03*
%TD*%
D14*
%TO.C,R5*%
X153312500Y-100711000D03*
X151487500Y-100711000D03*
%TD*%
D27*
%TO.C,J4*%
X169291000Y-88773000D03*
D28*
X169291000Y-90043000D03*
%TD*%
D14*
%TO.C,R10*%
X150749000Y-110363000D03*
X148924000Y-110363000D03*
%TD*%
D24*
%TO.C,R20*%
X146939000Y-74699500D03*
X146939000Y-72874500D03*
%TD*%
D29*
%TO.C,R15*%
X165688000Y-109728000D03*
X167513000Y-109728000D03*
%TD*%
D30*
%TO.C,D2*%
X149860000Y-95884000D03*
X149860000Y-92584000D03*
%TD*%
D31*
%TO.C,J3*%
X150221500Y-67691002D03*
D32*
X150221500Y-70231001D03*
X150221500Y-72771001D03*
D33*
X150211591Y-75294505D03*
D32*
X150221500Y-77851001D03*
X150221500Y-80391001D03*
X150221500Y-82931001D03*
%TD*%
D34*
%TO.C,LED1*%
X169421474Y-96414988D03*
D35*
X169401474Y-95064988D03*
D36*
X169401474Y-94044988D03*
D37*
X169401474Y-92814988D03*
%TD*%
D29*
%TO.C,R6*%
X152607000Y-105029000D03*
X154432000Y-105029000D03*
%TD*%
%TO.C,R7*%
X148900500Y-105029000D03*
X150725500Y-105029000D03*
%TD*%
D24*
%TO.C,R9*%
X146915500Y-110410000D03*
X146915500Y-108585000D03*
%TD*%
D14*
%TO.C,R13*%
X169568500Y-105029000D03*
X167743500Y-105029000D03*
%TD*%
D30*
%TO.C,D1*%
X149860000Y-90677000D03*
X149860000Y-87377000D03*
%TD*%
D38*
%TO.C,J5*%
X158623000Y-87884000D03*
%TD*%
D39*
%TO.C,U3*%
X147259000Y-100076000D03*
X149159000Y-100076000D03*
X148209000Y-98201000D03*
%TD*%
D14*
%TO.C,R12*%
X165862000Y-105029000D03*
X164037000Y-105029000D03*
%TD*%
D40*
%TO.C,BZ1*%
X161290000Y-90539000D03*
X161290000Y-101739000D03*
%TD*%
D29*
%TO.C,R22*%
X156417000Y-105029000D03*
X158242000Y-105029000D03*
%TD*%
D16*
%TO.C,R21*%
X146939000Y-76684500D03*
X146939000Y-78509500D03*
%TD*%
%TO.C,R1*%
X147066000Y-94210500D03*
X147066000Y-96035500D03*
%TD*%
%LPD*%
M02*
