%TF.GenerationSoftware,KiCad,Pcbnew,10.0.0*%
%TF.CreationDate,2026-09-16T20:10:36-05:00*%
%TF.ProjectId,BlinkyHawk_V3b,426c696e-6b79-4486-9177-6b5f5633622e,rev?*%
%TF.SameCoordinates,Original*%
%TF.FileFunction,Soldermask,Top*%
%TF.FilePolarity,Negative*%
%FSLAX46Y46*%
G04 Gerber Fmt 4.6, Leading zero omitted, Abs format (unit mm)*
G04 Created by KiCad (PCBNEW 10.0.0) date 2026-09-16 20:10:36*
%MOMM*%
%LPD*%
G01*
G04 APERTURE LIST*
G04 Aperture macros list*
%AMRoundRect*
0 Rectangle with rounded corners*
0 $1 Rounding radius*
0 $2 $3 $4 $5 $6 $7 $8 $9 X,Y pos of 4 corners*
0 Add a 4 corners polygon primitive as box body*
4,1,4,$2,$3,$4,$5,$6,$7,$8,$9,$2,$3,0*
0 Add four circle primitives for the rounded corners*
1,1,$1+$1,$2,$3*
1,1,$1+$1,$4,$5*
1,1,$1+$1,$6,$7*
1,1,$1+$1,$8,$9*
0 Add four rect primitives between the rounded corners*
20,1,$1+$1,$2,$3,$4,$5,0*
20,1,$1+$1,$4,$5,$6,$7,0*
20,1,$1+$1,$6,$7,$8,$9,0*
20,1,$1+$1,$8,$9,$2,$3,0*%
%AMFreePoly0*
4,1,21,0.535278,0.635455,0.549923,0.600100,0.549923,-0.599897,0.535278,-0.635252,0.499923,-0.649897,-0.050063,-0.649897,-0.085418,-0.635252,-0.100063,-0.599897,-0.100063,-0.249923,-0.500075,-0.249923,-0.535430,-0.235278,-0.550075,-0.199923,-0.550075,0.350114,-0.535430,0.385469,-0.500075,0.400114,-0.100063,0.400114,-0.100063,0.600100,-0.085418,0.635455,-0.050063,0.650100,0.499923,0.650100,
0.535278,0.635455,0.535278,0.635455,$1*%
%AMFreePoly1*
4,1,13,0.385265,0.635303,0.399910,0.599948,0.399910,-0.600050,0.385265,-0.635405,0.349910,-0.650050,-0.350088,-0.650050,-0.385443,-0.635405,-0.400088,-0.600050,-0.400088,0.599948,-0.385443,0.635303,-0.350088,0.649948,0.349910,0.649948,0.385265,0.635303,0.385265,0.635303,$1*%
%AMFreePoly2*
4,1,13,0.260348,0.635278,0.274993,0.599923,0.274993,-0.600075,0.260348,-0.635430,0.224993,-0.650075,-0.225019,-0.650075,-0.260374,-0.635430,-0.275019,-0.600075,-0.275019,0.599923,-0.260374,0.635278,-0.225019,0.649923,0.224993,0.649923,0.260348,0.635278,0.260348,0.635278,$1*%
%AMFreePoly3*
4,1,21,0.085365,0.635256,0.100013,0.599902,0.099951,0.399788,0.499993,0.399834,0.535350,0.385193,0.549999,0.349839,0.550050,-0.200147,0.535409,-0.235504,0.500055,-0.250152,0.100013,-0.250129,0.100013,-0.599999,0.085368,-0.635354,0.050022,-0.649999,-0.500066,-0.650100,-0.535424,-0.635462,-0.550075,-0.600109,-0.550075,0.599846,-0.535430,0.635201,-0.500080,0.649846,0.050008,0.649897,
0.085365,0.635256,0.085365,0.635256,$1*%
G04 Aperture macros list end*
%ADD10RoundRect,0.152400X-1.013600X-0.609600X1.013600X-0.609600X1.013600X0.609600X-1.013600X0.609600X0*%
%ADD11C,1.524000*%
%ADD12RoundRect,0.152400X1.013600X0.609600X-1.013600X0.609600X-1.013600X-0.609600X1.013600X-0.609600X0*%
%ADD13RoundRect,0.250000X0.450000X-0.262500X0.450000X0.262500X-0.450000X0.262500X-0.450000X-0.262500X0*%
%ADD14RoundRect,0.250000X-0.450000X0.262500X-0.450000X-0.262500X0.450000X-0.262500X0.450000X0.262500X0*%
%ADD15RoundRect,0.250000X0.262500X0.450000X-0.262500X0.450000X-0.262500X-0.450000X0.262500X-0.450000X0*%
%ADD16RoundRect,0.375000X0.375000X1.125000X-0.375000X1.125000X-0.375000X-1.125000X0.375000X-1.125000X0*%
%ADD17RoundRect,0.140000X0.140000X0.170000X-0.140000X0.170000X-0.140000X-0.170000X0.140000X-0.170000X0*%
%ADD18RoundRect,0.150000X-0.150000X0.587500X-0.150000X-0.587500X0.150000X-0.587500X0.150000X0.587500X0*%
%ADD19RoundRect,0.140000X-0.140000X-0.170000X0.140000X-0.170000X0.140000X0.170000X-0.140000X0.170000X0*%
%ADD20C,0.180000*%
%ADD21RoundRect,0.140000X0.170000X-0.140000X0.170000X0.140000X-0.170000X0.140000X-0.170000X-0.140000X0*%
%ADD22RoundRect,0.140000X-0.170000X0.140000X-0.170000X-0.140000X0.170000X-0.140000X0.170000X0.140000X0*%
%ADD23R,1.000000X1.000000*%
%ADD24C,1.000000*%
%ADD25R,4.500000X1.500000*%
%ADD26RoundRect,0.250000X-0.262500X-0.450000X0.262500X-0.450000X0.262500X0.450000X-0.262500X0.450000X0*%
%ADD27FreePoly0,90.000000*%
%ADD28FreePoly1,90.000000*%
%ADD29FreePoly2,90.000000*%
%ADD30FreePoly3,90.000000*%
%ADD31R,0.250000X0.600000*%
%ADD32R,0.600000X0.250000*%
%ADD33R,1.500000X1.500000*%
%ADD34RoundRect,0.150000X0.150000X-0.587500X0.150000X0.587500X-0.150000X0.587500X-0.150000X-0.587500X0*%
G04 APERTURE END LIST*
D10*
%TO.C,U2*%
X167028000Y-65659000D03*
D11*
X166243000Y-65659000D03*
D10*
X167028000Y-68199000D03*
D11*
X166243000Y-68199000D03*
D10*
X167028000Y-70739000D03*
D11*
X166243000Y-70739000D03*
D10*
X167028000Y-73279000D03*
D11*
X166243000Y-73279000D03*
D10*
X167028000Y-75819000D03*
D11*
X166243000Y-75819000D03*
D10*
X167028000Y-78359000D03*
D11*
X166243000Y-78359000D03*
D10*
X167028000Y-80899000D03*
D11*
X166243000Y-80899000D03*
X151003000Y-80899000D03*
D12*
X150218000Y-80899000D03*
D11*
X151003000Y-78359000D03*
D12*
X150218000Y-78359000D03*
D11*
X151003000Y-75819000D03*
D12*
X150218000Y-75819000D03*
D11*
X151003000Y-73279000D03*
D12*
X150218000Y-73279000D03*
D11*
X151003000Y-70739000D03*
D12*
X150218000Y-70739000D03*
D11*
X151003000Y-68199000D03*
D12*
X150218000Y-68199000D03*
D11*
X151003000Y-65659000D03*
D12*
X150218000Y-65659000D03*
%TD*%
D13*
%TO.C,R20*%
X147193000Y-70842500D03*
X147193000Y-72667500D03*
%TD*%
D14*
%TO.C,R21*%
X147193000Y-76477500D03*
X147193000Y-74652500D03*
%TD*%
D15*
%TO.C,R11*%
X162052000Y-105029000D03*
X160227000Y-105029000D03*
%TD*%
D16*
%TO.C,J2*%
X162052000Y-110998000D03*
%TD*%
D17*
%TO.C,C4*%
X164826000Y-89432000D03*
X163866000Y-89432000D03*
%TD*%
%TO.C,C9*%
X149578000Y-88392000D03*
X148618000Y-88392000D03*
%TD*%
D14*
%TO.C,R4*%
X153543000Y-92155000D03*
X153543000Y-93980000D03*
%TD*%
D13*
%TO.C,R8*%
X146915500Y-106703500D03*
X146915500Y-104878500D03*
%TD*%
D16*
%TO.C,J1*%
X153416000Y-110998000D03*
%TD*%
D18*
%TO.C,Q1*%
X153985000Y-96423000D03*
X152085000Y-96423000D03*
X153035000Y-98298000D03*
%TD*%
D19*
%TO.C,C6*%
X165644000Y-86130000D03*
X166604000Y-86130000D03*
%TD*%
D20*
%TO.C,U4*%
X169399000Y-99385000D03*
X169399000Y-98985000D03*
X169799000Y-99385000D03*
X169799000Y-98985000D03*
%TD*%
%TO.C,U1*%
X147602000Y-88665000D03*
X147202000Y-88665000D03*
X147602000Y-88265000D03*
X147202000Y-88265000D03*
%TD*%
D21*
%TO.C,C2*%
X149098000Y-95222000D03*
X149098000Y-94262000D03*
%TD*%
D13*
%TO.C,R14*%
X169648500Y-108862500D03*
X169648500Y-107037500D03*
%TD*%
D22*
%TO.C,C8*%
X168148000Y-99286000D03*
X168148000Y-100246000D03*
%TD*%
D17*
%TO.C,C1*%
X148943000Y-101981000D03*
X147983000Y-101981000D03*
%TD*%
D15*
%TO.C,R5*%
X153312500Y-100711000D03*
X151487500Y-100711000D03*
%TD*%
D23*
%TO.C,J4*%
X155448000Y-86614000D03*
D24*
X155448000Y-87884000D03*
%TD*%
D15*
%TO.C,R10*%
X150749000Y-110363000D03*
X148924000Y-110363000D03*
%TD*%
D25*
%TO.C,BZ1*%
X161290000Y-90854000D03*
X161290000Y-101854000D03*
%TD*%
D26*
%TO.C,R15*%
X165688000Y-109728000D03*
X167513000Y-109728000D03*
%TD*%
D21*
%TO.C,C3*%
X159258000Y-88896000D03*
X159258000Y-87936000D03*
%TD*%
D27*
%TO.C,LED1*%
X169421474Y-96414988D03*
D28*
X169401474Y-95064988D03*
D29*
X169401474Y-94044988D03*
D30*
X169401474Y-92814988D03*
%TD*%
D21*
%TO.C,C10*%
X169672000Y-101346000D03*
X169672000Y-100386000D03*
%TD*%
D26*
%TO.C,R6*%
X152607000Y-105029000D03*
X154432000Y-105029000D03*
%TD*%
%TO.C,R7*%
X148900500Y-105029000D03*
X150725500Y-105029000D03*
%TD*%
D13*
%TO.C,R9*%
X146915500Y-110410000D03*
X146915500Y-108585000D03*
%TD*%
D19*
%TO.C,C7*%
X146614000Y-89535000D03*
X147574000Y-89535000D03*
%TD*%
D15*
%TO.C,R13*%
X169568500Y-105029000D03*
X167743500Y-105029000D03*
%TD*%
D31*
%TO.C,U5*%
X162814000Y-85368000D03*
X162314000Y-85368000D03*
X161814000Y-85368000D03*
X161314000Y-85368000D03*
D32*
X160564000Y-86118000D03*
X160564000Y-86618000D03*
X160564000Y-87118000D03*
X160564000Y-87618000D03*
D31*
X161314000Y-88368000D03*
X161814000Y-88368000D03*
X162314000Y-88368000D03*
X162814000Y-88368000D03*
D32*
X163564000Y-87618000D03*
X163564000Y-87118000D03*
X163564000Y-86618000D03*
X163564000Y-86118000D03*
D33*
X162064000Y-86868000D03*
%TD*%
D34*
%TO.C,U3*%
X147259000Y-100076000D03*
X149159000Y-100076000D03*
X148209000Y-98201000D03*
%TD*%
D19*
%TO.C,C5*%
X164628000Y-87654000D03*
X165588000Y-87654000D03*
%TD*%
D34*
%TO.C,D3*%
X149545000Y-92250500D03*
X151445000Y-92250500D03*
X150495000Y-90375500D03*
%TD*%
D15*
%TO.C,R12*%
X165862000Y-105029000D03*
X164037000Y-105029000D03*
%TD*%
D26*
%TO.C,R22*%
X156417000Y-105029000D03*
X158242000Y-105029000D03*
%TD*%
D14*
%TO.C,R1*%
X147066000Y-94210500D03*
X147066000Y-96035500D03*
%TD*%
M02*
