%TF.GenerationSoftware,KiCad,Pcbnew,10.0.0*%
%TF.CreationDate,2026-08-19T17:40:11-05:00*%
%TF.ProjectId,BlinkyHawk_V3b,426c696e-6b79-4486-9177-6b5f5633622e,rev?*%
%TF.SameCoordinates,Original*%
%TF.FileFunction,Legend,Bot*%
%TF.FilePolarity,Positive*%
%FSLAX46Y46*%
G04 Gerber Fmt 4.6, Leading zero omitted, Abs format (unit mm)*
G04 Created by KiCad (PCBNEW 10.0.0) date 2026-08-19 17:40:11*
%MOMM*%
%LPD*%
G01*
G04 APERTURE LIST*
G04 Aperture macros list*
%AMRoundRect*
0 Rectangle with rounded corners*
0 $1 Rounding radius*
0 $2 $3 $4 $5 $6 $7 $8 $9 X,Y pos of 4 corners*
0 Add a 4 corners polygon primitive as box body*
4,1,4,$2,$3,$4,$5,$6,$7,$8,$9,$2,$3,0*
0 Add four circle primitives for the rounded corners*
1,1,$1+$1,$2,$3*
1,1,$1+$1,$4,$5*
1,1,$1+$1,$6,$7*
1,1,$1+$1,$8,$9*
0 Add four rect primitives between the rounded corners*
20,1,$1+$1,$2,$3,$4,$5,0*
20,1,$1+$1,$4,$5,$6,$7,0*
20,1,$1+$1,$6,$7,$8,$9,0*
20,1,$1+$1,$8,$9,$2,$3,0*%
G04 Aperture macros list end*
%ADD10C,0.090000*%
%ADD11R,2.754996X1.699990*%
%ADD12O,2.754988X1.699990*%
%ADD13O,2.739337X1.724033*%
%ADD14O,2.754996X1.699996*%
%ADD15O,2.754980X1.699982*%
%ADD16O,2.754994X1.699996*%
%ADD17O,2.754978X1.699980*%
%ADD18R,1.000000X1.000000*%
%ADD19C,1.000000*%
%ADD20R,2.755000X1.699996*%
%ADD21O,2.755000X1.699998*%
%ADD22O,2.774819X1.667010*%
%ADD23RoundRect,0.250000X-0.825000X-0.825000X0.825000X-0.825000X0.825000X0.825000X-0.825000X0.825000X0*%
G04 APERTURE END LIST*
D10*
X167834813Y-90016653D02*
X167225290Y-90016653D01*
X167530051Y-90321415D02*
X167530051Y-89711891D01*
X146635505Y-89937067D02*
X146635505Y-90089448D01*
X146635505Y-90089448D02*
X146673600Y-90165638D01*
X146673600Y-90165638D02*
X146749790Y-90241829D01*
X146749790Y-90241829D02*
X146902171Y-90279924D01*
X146902171Y-90279924D02*
X147168838Y-90279924D01*
X147168838Y-90279924D02*
X147321219Y-90241829D01*
X147321219Y-90241829D02*
X147397410Y-90165638D01*
X147397410Y-90165638D02*
X147435505Y-90089448D01*
X147435505Y-90089448D02*
X147435505Y-89937067D01*
X147435505Y-89937067D02*
X147397410Y-89860876D01*
X147397410Y-89860876D02*
X147321219Y-89784686D01*
X147321219Y-89784686D02*
X147168838Y-89746590D01*
X147168838Y-89746590D02*
X146902171Y-89746590D01*
X146902171Y-89746590D02*
X146749790Y-89784686D01*
X146749790Y-89784686D02*
X146673600Y-89860876D01*
X146673600Y-89860876D02*
X146635505Y-89937067D01*
X147435505Y-90622781D02*
X146635505Y-90622781D01*
X147435505Y-91003733D02*
X146635505Y-91003733D01*
X147016457Y-91003733D02*
X147016457Y-91460876D01*
X147435505Y-91460876D02*
X146635505Y-91460876D01*
X147435505Y-92451352D02*
X146635505Y-92451352D01*
X146635505Y-92451352D02*
X146635505Y-92641828D01*
X146635505Y-92641828D02*
X146673600Y-92756114D01*
X146673600Y-92756114D02*
X146749790Y-92832304D01*
X146749790Y-92832304D02*
X146825981Y-92870399D01*
X146825981Y-92870399D02*
X146978362Y-92908495D01*
X146978362Y-92908495D02*
X147092648Y-92908495D01*
X147092648Y-92908495D02*
X147245029Y-92870399D01*
X147245029Y-92870399D02*
X147321219Y-92832304D01*
X147321219Y-92832304D02*
X147397410Y-92756114D01*
X147397410Y-92756114D02*
X147435505Y-92641828D01*
X147435505Y-92641828D02*
X147435505Y-92451352D01*
X147397410Y-93556114D02*
X147435505Y-93479923D01*
X147435505Y-93479923D02*
X147435505Y-93327542D01*
X147435505Y-93327542D02*
X147397410Y-93251352D01*
X147397410Y-93251352D02*
X147321219Y-93213256D01*
X147321219Y-93213256D02*
X147016457Y-93213256D01*
X147016457Y-93213256D02*
X146940267Y-93251352D01*
X146940267Y-93251352D02*
X146902171Y-93327542D01*
X146902171Y-93327542D02*
X146902171Y-93479923D01*
X146902171Y-93479923D02*
X146940267Y-93556114D01*
X146940267Y-93556114D02*
X147016457Y-93594209D01*
X147016457Y-93594209D02*
X147092648Y-93594209D01*
X147092648Y-93594209D02*
X147168838Y-93213256D01*
X147397410Y-93898970D02*
X147435505Y-93975161D01*
X147435505Y-93975161D02*
X147435505Y-94127542D01*
X147435505Y-94127542D02*
X147397410Y-94203732D01*
X147397410Y-94203732D02*
X147321219Y-94241828D01*
X147321219Y-94241828D02*
X147283124Y-94241828D01*
X147283124Y-94241828D02*
X147206933Y-94203732D01*
X147206933Y-94203732D02*
X147168838Y-94127542D01*
X147168838Y-94127542D02*
X147168838Y-94013256D01*
X147168838Y-94013256D02*
X147130743Y-93937066D01*
X147130743Y-93937066D02*
X147054552Y-93898970D01*
X147054552Y-93898970D02*
X147016457Y-93898970D01*
X147016457Y-93898970D02*
X146940267Y-93937066D01*
X146940267Y-93937066D02*
X146902171Y-94013256D01*
X146902171Y-94013256D02*
X146902171Y-94127542D01*
X146902171Y-94127542D02*
X146940267Y-94203732D01*
X147435505Y-94584685D02*
X146902171Y-94584685D01*
X146635505Y-94584685D02*
X146673600Y-94546589D01*
X146673600Y-94546589D02*
X146711695Y-94584685D01*
X146711695Y-94584685D02*
X146673600Y-94622780D01*
X146673600Y-94622780D02*
X146635505Y-94584685D01*
X146635505Y-94584685D02*
X146711695Y-94584685D01*
X146902171Y-95308494D02*
X147549790Y-95308494D01*
X147549790Y-95308494D02*
X147625981Y-95270399D01*
X147625981Y-95270399D02*
X147664076Y-95232303D01*
X147664076Y-95232303D02*
X147702171Y-95156113D01*
X147702171Y-95156113D02*
X147702171Y-95041827D01*
X147702171Y-95041827D02*
X147664076Y-94965637D01*
X147397410Y-95308494D02*
X147435505Y-95232303D01*
X147435505Y-95232303D02*
X147435505Y-95079922D01*
X147435505Y-95079922D02*
X147397410Y-95003732D01*
X147397410Y-95003732D02*
X147359314Y-94965637D01*
X147359314Y-94965637D02*
X147283124Y-94927541D01*
X147283124Y-94927541D02*
X147054552Y-94927541D01*
X147054552Y-94927541D02*
X146978362Y-94965637D01*
X146978362Y-94965637D02*
X146940267Y-95003732D01*
X146940267Y-95003732D02*
X146902171Y-95079922D01*
X146902171Y-95079922D02*
X146902171Y-95232303D01*
X146902171Y-95232303D02*
X146940267Y-95308494D01*
X146902171Y-95689447D02*
X147435505Y-95689447D01*
X146978362Y-95689447D02*
X146940267Y-95727542D01*
X146940267Y-95727542D02*
X146902171Y-95803732D01*
X146902171Y-95803732D02*
X146902171Y-95918018D01*
X146902171Y-95918018D02*
X146940267Y-95994209D01*
X146940267Y-95994209D02*
X147016457Y-96032304D01*
X147016457Y-96032304D02*
X147435505Y-96032304D01*
X147397410Y-96375161D02*
X147435505Y-96451352D01*
X147435505Y-96451352D02*
X147435505Y-96603733D01*
X147435505Y-96603733D02*
X147397410Y-96679923D01*
X147397410Y-96679923D02*
X147321219Y-96718019D01*
X147321219Y-96718019D02*
X147283124Y-96718019D01*
X147283124Y-96718019D02*
X147206933Y-96679923D01*
X147206933Y-96679923D02*
X147168838Y-96603733D01*
X147168838Y-96603733D02*
X147168838Y-96489447D01*
X147168838Y-96489447D02*
X147130743Y-96413257D01*
X147130743Y-96413257D02*
X147054552Y-96375161D01*
X147054552Y-96375161D02*
X147016457Y-96375161D01*
X147016457Y-96375161D02*
X146940267Y-96413257D01*
X146940267Y-96413257D02*
X146902171Y-96489447D01*
X146902171Y-96489447D02*
X146902171Y-96603733D01*
X146902171Y-96603733D02*
X146940267Y-96679923D01*
X147923460Y-89746590D02*
X148075841Y-89746590D01*
X147923460Y-90051352D02*
X148075841Y-90051352D01*
X148304412Y-90660876D02*
X148342507Y-90775162D01*
X148342507Y-90775162D02*
X148380603Y-90813257D01*
X148380603Y-90813257D02*
X148456793Y-90851353D01*
X148456793Y-90851353D02*
X148571079Y-90851353D01*
X148571079Y-90851353D02*
X148647269Y-90813257D01*
X148647269Y-90813257D02*
X148685365Y-90775162D01*
X148685365Y-90775162D02*
X148723460Y-90698972D01*
X148723460Y-90698972D02*
X148723460Y-90394210D01*
X148723460Y-90394210D02*
X147923460Y-90394210D01*
X147923460Y-90394210D02*
X147923460Y-90660876D01*
X147923460Y-90660876D02*
X147961555Y-90737067D01*
X147961555Y-90737067D02*
X147999650Y-90775162D01*
X147999650Y-90775162D02*
X148075841Y-90813257D01*
X148075841Y-90813257D02*
X148152031Y-90813257D01*
X148152031Y-90813257D02*
X148228222Y-90775162D01*
X148228222Y-90775162D02*
X148266317Y-90737067D01*
X148266317Y-90737067D02*
X148304412Y-90660876D01*
X148304412Y-90660876D02*
X148304412Y-90394210D01*
X148723460Y-91308495D02*
X148685365Y-91232305D01*
X148685365Y-91232305D02*
X148609174Y-91194210D01*
X148609174Y-91194210D02*
X147923460Y-91194210D01*
X148723460Y-91613258D02*
X148190126Y-91613258D01*
X147923460Y-91613258D02*
X147961555Y-91575162D01*
X147961555Y-91575162D02*
X147999650Y-91613258D01*
X147999650Y-91613258D02*
X147961555Y-91651353D01*
X147961555Y-91651353D02*
X147923460Y-91613258D01*
X147923460Y-91613258D02*
X147999650Y-91613258D01*
X148190126Y-91994210D02*
X148723460Y-91994210D01*
X148266317Y-91994210D02*
X148228222Y-92032305D01*
X148228222Y-92032305D02*
X148190126Y-92108495D01*
X148190126Y-92108495D02*
X148190126Y-92222781D01*
X148190126Y-92222781D02*
X148228222Y-92298972D01*
X148228222Y-92298972D02*
X148304412Y-92337067D01*
X148304412Y-92337067D02*
X148723460Y-92337067D01*
X148723460Y-92718020D02*
X147923460Y-92718020D01*
X148418698Y-92794210D02*
X148723460Y-93022782D01*
X148190126Y-93022782D02*
X148494888Y-92718020D01*
X148190126Y-93289448D02*
X148723460Y-93479924D01*
X148190126Y-93670401D02*
X148723460Y-93479924D01*
X148723460Y-93479924D02*
X148913936Y-93403734D01*
X148913936Y-93403734D02*
X148952031Y-93365639D01*
X148952031Y-93365639D02*
X148990126Y-93289448D01*
X148723460Y-94584687D02*
X147923460Y-94584687D01*
X148304412Y-94584687D02*
X148304412Y-95041830D01*
X148723460Y-95041830D02*
X147923460Y-95041830D01*
X148723460Y-95765639D02*
X148304412Y-95765639D01*
X148304412Y-95765639D02*
X148228222Y-95727544D01*
X148228222Y-95727544D02*
X148190126Y-95651353D01*
X148190126Y-95651353D02*
X148190126Y-95498972D01*
X148190126Y-95498972D02*
X148228222Y-95422782D01*
X148685365Y-95765639D02*
X148723460Y-95689448D01*
X148723460Y-95689448D02*
X148723460Y-95498972D01*
X148723460Y-95498972D02*
X148685365Y-95422782D01*
X148685365Y-95422782D02*
X148609174Y-95384686D01*
X148609174Y-95384686D02*
X148532984Y-95384686D01*
X148532984Y-95384686D02*
X148456793Y-95422782D01*
X148456793Y-95422782D02*
X148418698Y-95498972D01*
X148418698Y-95498972D02*
X148418698Y-95689448D01*
X148418698Y-95689448D02*
X148380603Y-95765639D01*
X148190126Y-96070401D02*
X148723460Y-96222782D01*
X148723460Y-96222782D02*
X148342507Y-96375163D01*
X148342507Y-96375163D02*
X148723460Y-96527544D01*
X148723460Y-96527544D02*
X148190126Y-96679925D01*
X148723460Y-96984687D02*
X147923460Y-96984687D01*
X148418698Y-97060877D02*
X148723460Y-97289449D01*
X148190126Y-97289449D02*
X148494888Y-96984687D01*
X147923460Y-97594210D02*
X148075841Y-97594210D01*
X147923460Y-97898972D02*
X148075841Y-97898972D01*
X149287605Y-89746590D02*
X149249510Y-89784686D01*
X149249510Y-89784686D02*
X149211415Y-89860876D01*
X149211415Y-89860876D02*
X149211415Y-90051352D01*
X149211415Y-90051352D02*
X149249510Y-90127543D01*
X149249510Y-90127543D02*
X149287605Y-90165638D01*
X149287605Y-90165638D02*
X149363796Y-90203733D01*
X149363796Y-90203733D02*
X149439986Y-90203733D01*
X149439986Y-90203733D02*
X149554272Y-90165638D01*
X149554272Y-90165638D02*
X150011415Y-89708495D01*
X150011415Y-89708495D02*
X150011415Y-90203733D01*
X149211415Y-90698972D02*
X149211415Y-90775162D01*
X149211415Y-90775162D02*
X149249510Y-90851353D01*
X149249510Y-90851353D02*
X149287605Y-90889448D01*
X149287605Y-90889448D02*
X149363796Y-90927543D01*
X149363796Y-90927543D02*
X149516177Y-90965638D01*
X149516177Y-90965638D02*
X149706653Y-90965638D01*
X149706653Y-90965638D02*
X149859034Y-90927543D01*
X149859034Y-90927543D02*
X149935224Y-90889448D01*
X149935224Y-90889448D02*
X149973320Y-90851353D01*
X149973320Y-90851353D02*
X150011415Y-90775162D01*
X150011415Y-90775162D02*
X150011415Y-90698972D01*
X150011415Y-90698972D02*
X149973320Y-90622781D01*
X149973320Y-90622781D02*
X149935224Y-90584686D01*
X149935224Y-90584686D02*
X149859034Y-90546591D01*
X149859034Y-90546591D02*
X149706653Y-90508495D01*
X149706653Y-90508495D02*
X149516177Y-90508495D01*
X149516177Y-90508495D02*
X149363796Y-90546591D01*
X149363796Y-90546591D02*
X149287605Y-90584686D01*
X149287605Y-90584686D02*
X149249510Y-90622781D01*
X149249510Y-90622781D02*
X149211415Y-90698972D01*
X149287605Y-91270400D02*
X149249510Y-91308496D01*
X149249510Y-91308496D02*
X149211415Y-91384686D01*
X149211415Y-91384686D02*
X149211415Y-91575162D01*
X149211415Y-91575162D02*
X149249510Y-91651353D01*
X149249510Y-91651353D02*
X149287605Y-91689448D01*
X149287605Y-91689448D02*
X149363796Y-91727543D01*
X149363796Y-91727543D02*
X149439986Y-91727543D01*
X149439986Y-91727543D02*
X149554272Y-91689448D01*
X149554272Y-91689448D02*
X150011415Y-91232305D01*
X150011415Y-91232305D02*
X150011415Y-91727543D01*
X149211415Y-92413258D02*
X149211415Y-92260877D01*
X149211415Y-92260877D02*
X149249510Y-92184686D01*
X149249510Y-92184686D02*
X149287605Y-92146591D01*
X149287605Y-92146591D02*
X149401891Y-92070401D01*
X149401891Y-92070401D02*
X149554272Y-92032305D01*
X149554272Y-92032305D02*
X149859034Y-92032305D01*
X149859034Y-92032305D02*
X149935224Y-92070401D01*
X149935224Y-92070401D02*
X149973320Y-92108496D01*
X149973320Y-92108496D02*
X150011415Y-92184686D01*
X150011415Y-92184686D02*
X150011415Y-92337067D01*
X150011415Y-92337067D02*
X149973320Y-92413258D01*
X149973320Y-92413258D02*
X149935224Y-92451353D01*
X149935224Y-92451353D02*
X149859034Y-92489448D01*
X149859034Y-92489448D02*
X149668558Y-92489448D01*
X149668558Y-92489448D02*
X149592367Y-92451353D01*
X149592367Y-92451353D02*
X149554272Y-92413258D01*
X149554272Y-92413258D02*
X149516177Y-92337067D01*
X149516177Y-92337067D02*
X149516177Y-92184686D01*
X149516177Y-92184686D02*
X149554272Y-92108496D01*
X149554272Y-92108496D02*
X149592367Y-92070401D01*
X149592367Y-92070401D02*
X149668558Y-92032305D01*
X149211415Y-92984687D02*
X149211415Y-93060877D01*
X149211415Y-93060877D02*
X149249510Y-93137068D01*
X149249510Y-93137068D02*
X149287605Y-93175163D01*
X149287605Y-93175163D02*
X149363796Y-93213258D01*
X149363796Y-93213258D02*
X149516177Y-93251353D01*
X149516177Y-93251353D02*
X149706653Y-93251353D01*
X149706653Y-93251353D02*
X149859034Y-93213258D01*
X149859034Y-93213258D02*
X149935224Y-93175163D01*
X149935224Y-93175163D02*
X149973320Y-93137068D01*
X149973320Y-93137068D02*
X150011415Y-93060877D01*
X150011415Y-93060877D02*
X150011415Y-92984687D01*
X150011415Y-92984687D02*
X149973320Y-92908496D01*
X149973320Y-92908496D02*
X149935224Y-92870401D01*
X149935224Y-92870401D02*
X149859034Y-92832306D01*
X149859034Y-92832306D02*
X149706653Y-92794210D01*
X149706653Y-92794210D02*
X149516177Y-92794210D01*
X149516177Y-92794210D02*
X149363796Y-92832306D01*
X149363796Y-92832306D02*
X149287605Y-92870401D01*
X149287605Y-92870401D02*
X149249510Y-92908496D01*
X149249510Y-92908496D02*
X149211415Y-92984687D01*
X149554272Y-93708496D02*
X149516177Y-93632306D01*
X149516177Y-93632306D02*
X149478081Y-93594211D01*
X149478081Y-93594211D02*
X149401891Y-93556115D01*
X149401891Y-93556115D02*
X149363796Y-93556115D01*
X149363796Y-93556115D02*
X149287605Y-93594211D01*
X149287605Y-93594211D02*
X149249510Y-93632306D01*
X149249510Y-93632306D02*
X149211415Y-93708496D01*
X149211415Y-93708496D02*
X149211415Y-93860877D01*
X149211415Y-93860877D02*
X149249510Y-93937068D01*
X149249510Y-93937068D02*
X149287605Y-93975163D01*
X149287605Y-93975163D02*
X149363796Y-94013258D01*
X149363796Y-94013258D02*
X149401891Y-94013258D01*
X149401891Y-94013258D02*
X149478081Y-93975163D01*
X149478081Y-93975163D02*
X149516177Y-93937068D01*
X149516177Y-93937068D02*
X149554272Y-93860877D01*
X149554272Y-93860877D02*
X149554272Y-93708496D01*
X149554272Y-93708496D02*
X149592367Y-93632306D01*
X149592367Y-93632306D02*
X149630462Y-93594211D01*
X149630462Y-93594211D02*
X149706653Y-93556115D01*
X149706653Y-93556115D02*
X149859034Y-93556115D01*
X149859034Y-93556115D02*
X149935224Y-93594211D01*
X149935224Y-93594211D02*
X149973320Y-93632306D01*
X149973320Y-93632306D02*
X150011415Y-93708496D01*
X150011415Y-93708496D02*
X150011415Y-93860877D01*
X150011415Y-93860877D02*
X149973320Y-93937068D01*
X149973320Y-93937068D02*
X149935224Y-93975163D01*
X149935224Y-93975163D02*
X149859034Y-94013258D01*
X149859034Y-94013258D02*
X149706653Y-94013258D01*
X149706653Y-94013258D02*
X149630462Y-93975163D01*
X149630462Y-93975163D02*
X149592367Y-93937068D01*
X149592367Y-93937068D02*
X149554272Y-93860877D01*
X149211415Y-94508497D02*
X149211415Y-94584687D01*
X149211415Y-94584687D02*
X149249510Y-94660878D01*
X149249510Y-94660878D02*
X149287605Y-94698973D01*
X149287605Y-94698973D02*
X149363796Y-94737068D01*
X149363796Y-94737068D02*
X149516177Y-94775163D01*
X149516177Y-94775163D02*
X149706653Y-94775163D01*
X149706653Y-94775163D02*
X149859034Y-94737068D01*
X149859034Y-94737068D02*
X149935224Y-94698973D01*
X149935224Y-94698973D02*
X149973320Y-94660878D01*
X149973320Y-94660878D02*
X150011415Y-94584687D01*
X150011415Y-94584687D02*
X150011415Y-94508497D01*
X150011415Y-94508497D02*
X149973320Y-94432306D01*
X149973320Y-94432306D02*
X149935224Y-94394211D01*
X149935224Y-94394211D02*
X149859034Y-94356116D01*
X149859034Y-94356116D02*
X149706653Y-94318020D01*
X149706653Y-94318020D02*
X149516177Y-94318020D01*
X149516177Y-94318020D02*
X149363796Y-94356116D01*
X149363796Y-94356116D02*
X149287605Y-94394211D01*
X149287605Y-94394211D02*
X149249510Y-94432306D01*
X149249510Y-94432306D02*
X149211415Y-94508497D01*
X150011415Y-95537068D02*
X150011415Y-95079925D01*
X150011415Y-95308497D02*
X149211415Y-95308497D01*
X149211415Y-95308497D02*
X149325700Y-95232306D01*
X149325700Y-95232306D02*
X149401891Y-95156116D01*
X149401891Y-95156116D02*
X149439986Y-95079925D01*
X155289412Y-87003352D02*
X155327507Y-87117638D01*
X155327507Y-87117638D02*
X155365603Y-87155733D01*
X155365603Y-87155733D02*
X155441793Y-87193829D01*
X155441793Y-87193829D02*
X155556079Y-87193829D01*
X155556079Y-87193829D02*
X155632269Y-87155733D01*
X155632269Y-87155733D02*
X155670365Y-87117638D01*
X155670365Y-87117638D02*
X155708460Y-87041448D01*
X155708460Y-87041448D02*
X155708460Y-86736686D01*
X155708460Y-86736686D02*
X154908460Y-86736686D01*
X154908460Y-86736686D02*
X154908460Y-87003352D01*
X154908460Y-87003352D02*
X154946555Y-87079543D01*
X154946555Y-87079543D02*
X154984650Y-87117638D01*
X154984650Y-87117638D02*
X155060841Y-87155733D01*
X155060841Y-87155733D02*
X155137031Y-87155733D01*
X155137031Y-87155733D02*
X155213222Y-87117638D01*
X155213222Y-87117638D02*
X155251317Y-87079543D01*
X155251317Y-87079543D02*
X155289412Y-87003352D01*
X155289412Y-87003352D02*
X155289412Y-86736686D01*
X155708460Y-87879543D02*
X155289412Y-87879543D01*
X155289412Y-87879543D02*
X155213222Y-87841448D01*
X155213222Y-87841448D02*
X155175126Y-87765257D01*
X155175126Y-87765257D02*
X155175126Y-87612876D01*
X155175126Y-87612876D02*
X155213222Y-87536686D01*
X155670365Y-87879543D02*
X155708460Y-87803352D01*
X155708460Y-87803352D02*
X155708460Y-87612876D01*
X155708460Y-87612876D02*
X155670365Y-87536686D01*
X155670365Y-87536686D02*
X155594174Y-87498590D01*
X155594174Y-87498590D02*
X155517984Y-87498590D01*
X155517984Y-87498590D02*
X155441793Y-87536686D01*
X155441793Y-87536686D02*
X155403698Y-87612876D01*
X155403698Y-87612876D02*
X155403698Y-87803352D01*
X155403698Y-87803352D02*
X155365603Y-87879543D01*
X155175126Y-88146210D02*
X155175126Y-88450972D01*
X154908460Y-88260496D02*
X155594174Y-88260496D01*
X155594174Y-88260496D02*
X155670365Y-88298591D01*
X155670365Y-88298591D02*
X155708460Y-88374781D01*
X155708460Y-88374781D02*
X155708460Y-88450972D01*
X155175126Y-88603353D02*
X155175126Y-88908115D01*
X154908460Y-88717639D02*
X155594174Y-88717639D01*
X155594174Y-88717639D02*
X155670365Y-88755734D01*
X155670365Y-88755734D02*
X155708460Y-88831924D01*
X155708460Y-88831924D02*
X155708460Y-88908115D01*
X155403698Y-89174782D02*
X155403698Y-89784306D01*
X155708460Y-89479544D02*
X155098936Y-89479544D01*
X156463081Y-86622400D02*
X156463081Y-86927162D01*
X156196415Y-86736686D02*
X156882129Y-86736686D01*
X156882129Y-86736686D02*
X156958320Y-86774781D01*
X156958320Y-86774781D02*
X156996415Y-86850971D01*
X156996415Y-86850971D02*
X156996415Y-86927162D01*
X156996415Y-87308114D02*
X156958320Y-87231924D01*
X156958320Y-87231924D02*
X156920224Y-87193829D01*
X156920224Y-87193829D02*
X156844034Y-87155733D01*
X156844034Y-87155733D02*
X156615462Y-87155733D01*
X156615462Y-87155733D02*
X156539272Y-87193829D01*
X156539272Y-87193829D02*
X156501177Y-87231924D01*
X156501177Y-87231924D02*
X156463081Y-87308114D01*
X156463081Y-87308114D02*
X156463081Y-87422400D01*
X156463081Y-87422400D02*
X156501177Y-87498591D01*
X156501177Y-87498591D02*
X156539272Y-87536686D01*
X156539272Y-87536686D02*
X156615462Y-87574781D01*
X156615462Y-87574781D02*
X156844034Y-87574781D01*
X156844034Y-87574781D02*
X156920224Y-87536686D01*
X156920224Y-87536686D02*
X156958320Y-87498591D01*
X156958320Y-87498591D02*
X156996415Y-87422400D01*
X156996415Y-87422400D02*
X156996415Y-87308114D01*
X156996415Y-88527163D02*
X156196415Y-88527163D01*
X156196415Y-88527163D02*
X156767843Y-88793829D01*
X156767843Y-88793829D02*
X156196415Y-89060496D01*
X156196415Y-89060496D02*
X156996415Y-89060496D01*
X156920224Y-89898592D02*
X156958320Y-89860496D01*
X156958320Y-89860496D02*
X156996415Y-89746211D01*
X156996415Y-89746211D02*
X156996415Y-89670020D01*
X156996415Y-89670020D02*
X156958320Y-89555734D01*
X156958320Y-89555734D02*
X156882129Y-89479544D01*
X156882129Y-89479544D02*
X156805939Y-89441449D01*
X156805939Y-89441449D02*
X156653558Y-89403353D01*
X156653558Y-89403353D02*
X156539272Y-89403353D01*
X156539272Y-89403353D02*
X156386891Y-89441449D01*
X156386891Y-89441449D02*
X156310700Y-89479544D01*
X156310700Y-89479544D02*
X156234510Y-89555734D01*
X156234510Y-89555734D02*
X156196415Y-89670020D01*
X156196415Y-89670020D02*
X156196415Y-89746211D01*
X156196415Y-89746211D02*
X156234510Y-89860496D01*
X156234510Y-89860496D02*
X156272605Y-89898592D01*
X156196415Y-90241449D02*
X156844034Y-90241449D01*
X156844034Y-90241449D02*
X156920224Y-90279544D01*
X156920224Y-90279544D02*
X156958320Y-90317639D01*
X156958320Y-90317639D02*
X156996415Y-90393830D01*
X156996415Y-90393830D02*
X156996415Y-90546211D01*
X156996415Y-90546211D02*
X156958320Y-90622401D01*
X156958320Y-90622401D02*
X156920224Y-90660496D01*
X156920224Y-90660496D02*
X156844034Y-90698592D01*
X156844034Y-90698592D02*
X156196415Y-90698592D01*
X166292867Y-88590852D02*
X166330962Y-88705138D01*
X166330962Y-88705138D02*
X166369058Y-88743233D01*
X166369058Y-88743233D02*
X166445248Y-88781329D01*
X166445248Y-88781329D02*
X166559534Y-88781329D01*
X166559534Y-88781329D02*
X166635724Y-88743233D01*
X166635724Y-88743233D02*
X166673820Y-88705138D01*
X166673820Y-88705138D02*
X166711915Y-88628948D01*
X166711915Y-88628948D02*
X166711915Y-88324186D01*
X166711915Y-88324186D02*
X165911915Y-88324186D01*
X165911915Y-88324186D02*
X165911915Y-88590852D01*
X165911915Y-88590852D02*
X165950010Y-88667043D01*
X165950010Y-88667043D02*
X165988105Y-88705138D01*
X165988105Y-88705138D02*
X166064296Y-88743233D01*
X166064296Y-88743233D02*
X166140486Y-88743233D01*
X166140486Y-88743233D02*
X166216677Y-88705138D01*
X166216677Y-88705138D02*
X166254772Y-88667043D01*
X166254772Y-88667043D02*
X166292867Y-88590852D01*
X166292867Y-88590852D02*
X166292867Y-88324186D01*
X166711915Y-89467043D02*
X166292867Y-89467043D01*
X166292867Y-89467043D02*
X166216677Y-89428948D01*
X166216677Y-89428948D02*
X166178581Y-89352757D01*
X166178581Y-89352757D02*
X166178581Y-89200376D01*
X166178581Y-89200376D02*
X166216677Y-89124186D01*
X166673820Y-89467043D02*
X166711915Y-89390852D01*
X166711915Y-89390852D02*
X166711915Y-89200376D01*
X166711915Y-89200376D02*
X166673820Y-89124186D01*
X166673820Y-89124186D02*
X166597629Y-89086090D01*
X166597629Y-89086090D02*
X166521439Y-89086090D01*
X166521439Y-89086090D02*
X166445248Y-89124186D01*
X166445248Y-89124186D02*
X166407153Y-89200376D01*
X166407153Y-89200376D02*
X166407153Y-89390852D01*
X166407153Y-89390852D02*
X166369058Y-89467043D01*
X166178581Y-89733710D02*
X166178581Y-90038472D01*
X165911915Y-89847996D02*
X166597629Y-89847996D01*
X166597629Y-89847996D02*
X166673820Y-89886091D01*
X166673820Y-89886091D02*
X166711915Y-89962281D01*
X166711915Y-89962281D02*
X166711915Y-90038472D01*
X166178581Y-90190853D02*
X166178581Y-90495615D01*
X165911915Y-90305139D02*
X166597629Y-90305139D01*
X166597629Y-90305139D02*
X166673820Y-90343234D01*
X166673820Y-90343234D02*
X166711915Y-90419424D01*
X166711915Y-90419424D02*
X166711915Y-90495615D01*
X167486653Y-88387686D02*
X167486653Y-88997210D01*
%LPC*%
D11*
%TO.C,J6*%
X166516502Y-67691005D03*
D12*
X166516506Y-70231005D03*
D13*
X166508679Y-72783025D03*
D14*
X166516502Y-75311002D03*
D15*
X166516510Y-77851009D03*
D16*
X166516503Y-80391002D03*
D17*
X166516511Y-82931010D03*
%TD*%
D18*
%TO.C,J4*%
X169291000Y-88773000D03*
D19*
X169291000Y-90043000D03*
%TD*%
D20*
%TO.C,J3*%
X150221500Y-67691002D03*
D21*
X150221500Y-70231001D03*
X150221500Y-72771001D03*
D22*
X150211591Y-75294505D03*
D21*
X150221500Y-77851001D03*
X150221500Y-80391001D03*
X150221500Y-82931001D03*
%TD*%
D23*
%TO.C,J5*%
X158623000Y-87884000D03*
%TD*%
%LPD*%
M02*
