%TF.GenerationSoftware,KiCad,Pcbnew,10.0.0*%
%TF.CreationDate,2026-09-16T20:10:36-05:00*%
%TF.ProjectId,BlinkyHawk_V3b,426c696e-6b79-4486-9177-6b5f5633622e,rev?*%
%TF.SameCoordinates,Original*%
%TF.FileFunction,Copper,L4,Bot*%
%TF.FilePolarity,Positive*%
%FSLAX46Y46*%
G04 Gerber Fmt 4.6, Leading zero omitted, Abs format (unit mm)*
G04 Created by KiCad (PCBNEW 10.0.0) date 2026-09-16 20:10:36*
%MOMM*%
%LPD*%
G01*
G04 APERTURE LIST*
%TA.AperFunction,ComponentPad*%
%ADD10C,1.524000*%
%TD*%
%TA.AperFunction,ComponentPad*%
%ADD11R,1.000000X1.000000*%
%TD*%
%TA.AperFunction,ComponentPad*%
%ADD12C,1.000000*%
%TD*%
%TA.AperFunction,SMDPad,CuDef*%
%ADD13R,1.000000X1.000000*%
%TD*%
%TA.AperFunction,ViaPad*%
%ADD14C,0.600000*%
%TD*%
%TA.AperFunction,Conductor*%
%ADD15C,0.200000*%
%TD*%
G04 APERTURE END LIST*
D10*
%TO.P,U2,14,5V_14*%
%TO.N,Vbus*%
X166243000Y-65659000D03*
%TO.P,U2,13,GND_13*%
%TO.N,Gnd*%
X166243000Y-68199000D03*
%TO.P,U2,12,3V3_12*%
%TO.N,+3V3*%
X166243000Y-70739000D03*
%TO.P,U2,11,PA6_A10_D10_MOSI_11*%
%TO.N,D10*%
X166243000Y-73279000D03*
%TO.P,U2,10,PA5_A9_D9_MISO_10*%
%TO.N,D9*%
X166243000Y-75819000D03*
%TO.P,U2,9,PA7_A8_D8_SCK_9*%
%TO.N,D8*%
X166243000Y-78359000D03*
%TO.P,U2,8,PB09_A7_D7_RX_8*%
%TO.N,Bridge_CRTL*%
X166243000Y-80899000D03*
%TO.P,U2,7,PB08_A6_D6_TX_7*%
%TO.N,D6*%
X151003000Y-80899000D03*
%TO.P,U2,6,PA9_A5_D5_SCL_6*%
%TO.N,SCL{slash}A5*%
X151003000Y-78359000D03*
%TO.P,U2,5,PA8_A4_D4_SDA_5*%
%TO.N,SDA*%
X151003000Y-75819000D03*
%TO.P,U2,4,PA11_A3_D3_4*%
%TO.N,A3*%
X151003000Y-73279000D03*
%TO.P,U2,3,PA10_A2_D2_3*%
%TO.N,A2*%
X151003000Y-70739000D03*
%TO.P,U2,2,PA4_A1_D1_2*%
%TO.N,A1*%
X151003000Y-68199000D03*
%TO.P,U2,1,PA02_A0_D0_1*%
%TO.N,A0*%
X151003000Y-65659000D03*
%TD*%
D11*
%TO.P,J4,1,Pin_1_1*%
%TO.N,Gnd*%
X155448000Y-86614000D03*
D12*
%TO.P,J4,2,Pin_2_2*%
%TO.N,BatteryRail*%
X155448000Y-87884000D03*
%TD*%
D13*
%TO.P,J5,1,Pin_1_1*%
%TO.N,BatteryRail*%
X157988000Y-86360000D03*
%TD*%
%TO.P,J7,1,Pin_1_1*%
%TO.N,D15*%
X163322000Y-85749000D03*
%TD*%
D14*
%TO.N,D9*%
X165110632Y-83337666D03*
%TO.N,Gnd*%
X147955000Y-77851000D03*
X167267000Y-86892000D03*
X149606000Y-87503000D03*
X159576765Y-86718000D03*
X148717000Y-96139000D03*
X165362000Y-88543000D03*
X149225000Y-97790000D03*
X168783000Y-100881000D03*
X147701000Y-90297000D03*
X149860000Y-101981000D03*
X168910000Y-91694000D03*
X148463000Y-92710000D03*
X147955000Y-87630000D03*
X154686000Y-92202000D03*
%TO.N,Bridge_CRTL*%
X155702000Y-93980000D03*
%TO.N,+3V3*%
X164393500Y-86177500D03*
%TO.N,LEDRail*%
X168976401Y-100072611D03*
X168315488Y-95064988D03*
%TO.N,BatteryRail*%
X164084000Y-91059000D03*
X146685000Y-90551000D03*
X152273000Y-90897000D03*
%TO.N,D10*%
X169799000Y-98171000D03*
%TO.N,Net-(BZ1--)*%
X160075647Y-88865118D03*
X160528000Y-93091000D03*
%TO.N,Net-(U5-CP1)*%
X162481763Y-89123032D03*
X160714000Y-89432000D03*
%TO.N,D6*%
X160147000Y-95631000D03*
X167005000Y-95885000D03*
X151638000Y-87122000D03*
%TO.N,D15*%
X160655000Y-84860000D03*
%TD*%
%TO.N,Net-(BZ1--)*%
D15*
X160528000Y-90165530D02*
X160528000Y-93091000D01*
X160075647Y-89713177D02*
X160528000Y-90165530D01*
%TO.N,Net-(U5-CP1)*%
X162481763Y-89150897D02*
X162200660Y-89432000D01*
X162481763Y-89123032D02*
X162481763Y-89150897D01*
X162200660Y-89432000D02*
X160714000Y-89432000D01*
%TO.N,D6*%
X166751000Y-95631000D02*
X167005000Y-95885000D01*
X160147000Y-95631000D02*
X166751000Y-95631000D01*
X151638000Y-87122000D02*
X151003000Y-86487000D01*
X151003000Y-86487000D02*
X151003000Y-80899000D01*
%TO.N,BatteryRail*%
X156464000Y-87884000D02*
X157988000Y-86360000D01*
X155448000Y-87884000D02*
X156464000Y-87884000D01*
X152435000Y-90897000D02*
X155448000Y-87884000D01*
X146685000Y-90551000D02*
X147031000Y-90897000D01*
X147031000Y-90897000D02*
X152435000Y-90897000D01*
%TO.N,Bridge_CRTL*%
X166243000Y-89789000D02*
X166243000Y-80899000D01*
%TO.N,D10*%
X169799000Y-98171000D02*
X169799000Y-97155000D01*
X169799000Y-97155000D02*
X170180000Y-96774000D01*
X170180000Y-96774000D02*
X170180000Y-74803000D01*
%TO.N,BatteryRail*%
X164084000Y-89865635D02*
X164084000Y-91059000D01*
X161536365Y-87318000D02*
X164084000Y-89865635D01*
X158946000Y-87318000D02*
X161536365Y-87318000D01*
X157988000Y-86360000D02*
X158946000Y-87318000D01*
%TO.N,D10*%
X170180000Y-74803000D02*
X168656000Y-73279000D01*
X168656000Y-73279000D02*
X166243000Y-73279000D01*
%TO.N,A1*%
X150861656Y-68199000D02*
X151003000Y-68199000D01*
%TO.N,Net-(BZ1--)*%
X160075647Y-88865118D02*
X160075647Y-89713177D01*
%TO.N,Bridge_CRTL*%
X162052000Y-93980000D02*
X155702000Y-93980000D01*
X166243000Y-89789000D02*
X162052000Y-93980000D01*
%TO.N,LEDRail*%
X168976401Y-100072611D02*
X168976401Y-98364401D01*
X168148000Y-95232476D02*
X168315488Y-95064988D01*
X168148000Y-97536000D02*
X168148000Y-95232476D01*
X168976401Y-98364401D02*
X168148000Y-97536000D01*
%TO.N,D15*%
X160655000Y-84860000D02*
X161036000Y-84860000D01*
X161925000Y-85749000D02*
X163322000Y-85749000D01*
X161036000Y-84860000D02*
X161925000Y-85749000D01*
%TO.N,D9*%
X165110632Y-76951368D02*
X166243000Y-75819000D01*
X165110632Y-83337666D02*
X165110632Y-76951368D01*
%TD*%
M02*
