%TF.GenerationSoftware,KiCad,Pcbnew,10.0.0*%
%TF.CreationDate,2026-09-16T20:10:36-05:00*%
%TF.ProjectId,BlinkyHawk_V3b,426c696e-6b79-4486-9177-6b5f5633622e,rev?*%
%TF.SameCoordinates,Original*%
%TF.FileFunction,Copper,L1,Top*%
%TF.FilePolarity,Positive*%
%FSLAX46Y46*%
G04 Gerber Fmt 4.6, Leading zero omitted, Abs format (unit mm)*
G04 Created by KiCad (PCBNEW 10.0.0) date 2026-09-16 20:10:36*
%MOMM*%
%LPD*%
G01*
G04 APERTURE LIST*
G04 Aperture macros list*
%AMRoundRect*
0 Rectangle with rounded corners*
0 $1 Rounding radius*
0 $2 $3 $4 $5 $6 $7 $8 $9 X,Y pos of 4 corners*
0 Add a 4 corners polygon primitive as box body*
4,1,4,$2,$3,$4,$5,$6,$7,$8,$9,$2,$3,0*
0 Add four circle primitives for the rounded corners*
1,1,$1+$1,$2,$3*
1,1,$1+$1,$4,$5*
1,1,$1+$1,$6,$7*
1,1,$1+$1,$8,$9*
0 Add four rect primitives between the rounded corners*
20,1,$1+$1,$2,$3,$4,$5,0*
20,1,$1+$1,$4,$5,$6,$7,0*
20,1,$1+$1,$6,$7,$8,$9,0*
20,1,$1+$1,$8,$9,$2,$3,0*%
%AMFreePoly0*
4,1,21,0.535278,0.635455,0.549923,0.600100,0.549923,-0.599897,0.535278,-0.635252,0.499923,-0.649897,-0.050063,-0.649897,-0.085418,-0.635252,-0.100063,-0.599897,-0.100063,-0.249923,-0.500075,-0.249923,-0.535430,-0.235278,-0.550075,-0.199923,-0.550075,0.350114,-0.535430,0.385469,-0.500075,0.400114,-0.100063,0.400114,-0.100063,0.600100,-0.085418,0.635455,-0.050063,0.650100,0.499923,0.650100,
0.535278,0.635455,0.535278,0.635455,$1*%
%AMFreePoly1*
4,1,13,0.385265,0.635303,0.399910,0.599948,0.399910,-0.600050,0.385265,-0.635405,0.349910,-0.650050,-0.350088,-0.650050,-0.385443,-0.635405,-0.400088,-0.600050,-0.400088,0.599948,-0.385443,0.635303,-0.350088,0.649948,0.349910,0.649948,0.385265,0.635303,0.385265,0.635303,$1*%
%AMFreePoly2*
4,1,13,0.260348,0.635278,0.274993,0.599923,0.274993,-0.600075,0.260348,-0.635430,0.224993,-0.650075,-0.225019,-0.650075,-0.260374,-0.635430,-0.275019,-0.600075,-0.275019,0.599923,-0.260374,0.635278,-0.225019,0.649923,0.224993,0.649923,0.260348,0.635278,0.260348,0.635278,$1*%
%AMFreePoly3*
4,1,21,0.085365,0.635256,0.100013,0.599902,0.099951,0.399788,0.499993,0.399834,0.535350,0.385193,0.549999,0.349839,0.550050,-0.200147,0.535409,-0.235504,0.500055,-0.250152,0.100013,-0.250129,0.100013,-0.599999,0.085368,-0.635354,0.050022,-0.649999,-0.500066,-0.650100,-0.535424,-0.635462,-0.550075,-0.600109,-0.550075,0.599846,-0.535430,0.635201,-0.500080,0.649846,0.050008,0.649897,
0.085365,0.635256,0.085365,0.635256,$1*%
G04 Aperture macros list end*
%TA.AperFunction,SMDPad,CuDef*%
%ADD10RoundRect,0.152400X-1.013600X-0.609600X1.013600X-0.609600X1.013600X0.609600X-1.013600X0.609600X0*%
%TD*%
%TA.AperFunction,ComponentPad*%
%ADD11C,1.524000*%
%TD*%
%TA.AperFunction,SMDPad,CuDef*%
%ADD12RoundRect,0.152400X1.013600X0.609600X-1.013600X0.609600X-1.013600X-0.609600X1.013600X-0.609600X0*%
%TD*%
%TA.AperFunction,SMDPad,CuDef*%
%ADD13RoundRect,0.250000X0.450000X-0.262500X0.450000X0.262500X-0.450000X0.262500X-0.450000X-0.262500X0*%
%TD*%
%TA.AperFunction,SMDPad,CuDef*%
%ADD14RoundRect,0.250000X-0.450000X0.262500X-0.450000X-0.262500X0.450000X-0.262500X0.450000X0.262500X0*%
%TD*%
%TA.AperFunction,SMDPad,CuDef*%
%ADD15RoundRect,0.250000X0.262500X0.450000X-0.262500X0.450000X-0.262500X-0.450000X0.262500X-0.450000X0*%
%TD*%
%TA.AperFunction,SMDPad,CuDef*%
%ADD16RoundRect,0.375000X0.375000X1.125000X-0.375000X1.125000X-0.375000X-1.125000X0.375000X-1.125000X0*%
%TD*%
%TA.AperFunction,SMDPad,CuDef*%
%ADD17RoundRect,0.140000X0.140000X0.170000X-0.140000X0.170000X-0.140000X-0.170000X0.140000X-0.170000X0*%
%TD*%
%TA.AperFunction,SMDPad,CuDef*%
%ADD18RoundRect,0.150000X-0.150000X0.587500X-0.150000X-0.587500X0.150000X-0.587500X0.150000X0.587500X0*%
%TD*%
%TA.AperFunction,SMDPad,CuDef*%
%ADD19RoundRect,0.140000X-0.140000X-0.170000X0.140000X-0.170000X0.140000X0.170000X-0.140000X0.170000X0*%
%TD*%
%TA.AperFunction,SMDPad,CuDef*%
%ADD20C,0.180000*%
%TD*%
%TA.AperFunction,SMDPad,CuDef*%
%ADD21RoundRect,0.140000X0.170000X-0.140000X0.170000X0.140000X-0.170000X0.140000X-0.170000X-0.140000X0*%
%TD*%
%TA.AperFunction,SMDPad,CuDef*%
%ADD22RoundRect,0.140000X-0.170000X0.140000X-0.170000X-0.140000X0.170000X-0.140000X0.170000X0.140000X0*%
%TD*%
%TA.AperFunction,ComponentPad*%
%ADD23R,1.000000X1.000000*%
%TD*%
%TA.AperFunction,ComponentPad*%
%ADD24C,1.000000*%
%TD*%
%TA.AperFunction,SMDPad,CuDef*%
%ADD25R,4.500000X1.500000*%
%TD*%
%TA.AperFunction,SMDPad,CuDef*%
%ADD26RoundRect,0.250000X-0.262500X-0.450000X0.262500X-0.450000X0.262500X0.450000X-0.262500X0.450000X0*%
%TD*%
%TA.AperFunction,SMDPad,CuDef*%
%ADD27FreePoly0,90.000000*%
%TD*%
%TA.AperFunction,SMDPad,CuDef*%
%ADD28FreePoly1,90.000000*%
%TD*%
%TA.AperFunction,SMDPad,CuDef*%
%ADD29FreePoly2,90.000000*%
%TD*%
%TA.AperFunction,SMDPad,CuDef*%
%ADD30FreePoly3,90.000000*%
%TD*%
%TA.AperFunction,SMDPad,CuDef*%
%ADD31R,0.250000X0.600000*%
%TD*%
%TA.AperFunction,SMDPad,CuDef*%
%ADD32R,0.600000X0.250000*%
%TD*%
%TA.AperFunction,SMDPad,CuDef*%
%ADD33R,1.500000X1.500000*%
%TD*%
%TA.AperFunction,SMDPad,CuDef*%
%ADD34RoundRect,0.150000X0.150000X-0.587500X0.150000X0.587500X-0.150000X0.587500X-0.150000X-0.587500X0*%
%TD*%
%TA.AperFunction,ViaPad*%
%ADD35C,0.600000*%
%TD*%
%TA.AperFunction,Conductor*%
%ADD36C,0.200000*%
%TD*%
G04 APERTURE END LIST*
D10*
%TO.P,U2,14,5V_14*%
%TO.N,Vbus*%
X167028000Y-65659000D03*
D11*
X166243000Y-65659000D03*
D10*
%TO.P,U2,13,GND_13*%
%TO.N,Gnd*%
X167028000Y-68199000D03*
D11*
X166243000Y-68199000D03*
D10*
%TO.P,U2,12,3V3_12*%
%TO.N,+3V3*%
X167028000Y-70739000D03*
D11*
X166243000Y-70739000D03*
D10*
%TO.P,U2,11,PA6_A10_D10_MOSI_11*%
%TO.N,D10*%
X167028000Y-73279000D03*
D11*
X166243000Y-73279000D03*
D10*
%TO.P,U2,10,PA5_A9_D9_MISO_10*%
%TO.N,D9*%
X167028000Y-75819000D03*
D11*
X166243000Y-75819000D03*
D10*
%TO.P,U2,9,PA7_A8_D8_SCK_9*%
%TO.N,D8*%
X167028000Y-78359000D03*
D11*
X166243000Y-78359000D03*
D10*
%TO.P,U2,8,PB09_A7_D7_RX_8*%
%TO.N,Bridge_CRTL*%
X167028000Y-80899000D03*
D11*
X166243000Y-80899000D03*
%TO.P,U2,7,PB08_A6_D6_TX_7*%
%TO.N,D6*%
X151003000Y-80899000D03*
D12*
X150218000Y-80899000D03*
D11*
%TO.P,U2,6,PA9_A5_D5_SCL_6*%
%TO.N,SCL{slash}A5*%
X151003000Y-78359000D03*
D12*
X150218000Y-78359000D03*
D11*
%TO.P,U2,5,PA8_A4_D4_SDA_5*%
%TO.N,SDA*%
X151003000Y-75819000D03*
D12*
X150218000Y-75819000D03*
D11*
%TO.P,U2,4,PA11_A3_D3_4*%
%TO.N,A3*%
X151003000Y-73279000D03*
D12*
X150218000Y-73279000D03*
D11*
%TO.P,U2,3,PA10_A2_D2_3*%
%TO.N,A2*%
X151003000Y-70739000D03*
D12*
X150218000Y-70739000D03*
D11*
%TO.P,U2,2,PA4_A1_D1_2*%
%TO.N,A1*%
X151003000Y-68199000D03*
D12*
X150218000Y-68199000D03*
D11*
%TO.P,U2,1,PA02_A0_D0_1*%
%TO.N,A0*%
X151003000Y-65659000D03*
D12*
X150218000Y-65659000D03*
%TD*%
D13*
%TO.P,R20,2*%
%TO.N,Vbus*%
X147193000Y-70842500D03*
%TO.P,R20,1*%
%TO.N,A1*%
X147193000Y-72667500D03*
%TD*%
D14*
%TO.P,R21,2*%
%TO.N,Gnd*%
X147193000Y-76477500D03*
%TO.P,R21,1*%
%TO.N,A1*%
X147193000Y-74652500D03*
%TD*%
D15*
%TO.P,R11,1*%
%TO.N,Net-(R11-Pad1)*%
X162052000Y-105029000D03*
%TO.P,R11,2*%
%TO.N,A2*%
X160227000Y-105029000D03*
%TD*%
D16*
%TO.P,J2,1,Pin_1_1*%
%TO.N,V_Input_Float*%
X162052000Y-110998000D03*
%TD*%
D17*
%TO.P,C4,1*%
%TO.N,Net-(U5-CP2)*%
X164826000Y-89432000D03*
%TO.P,C4,2*%
%TO.N,Net-(U5-CN2)*%
X163866000Y-89432000D03*
%TD*%
%TO.P,C9,1*%
%TO.N,Gnd*%
X149578000Y-88392000D03*
%TO.P,C9,2*%
%TO.N,Analog_Rail*%
X148618000Y-88392000D03*
%TD*%
D14*
%TO.P,R4,1*%
%TO.N,Gnd*%
X153543000Y-92155000D03*
%TO.P,R4,2*%
%TO.N,Bridge_CRTL*%
X153543000Y-93980000D03*
%TD*%
D13*
%TO.P,R8,1*%
%TO.N,Net-(R8-Pad1)*%
X146915500Y-106703500D03*
%TO.P,R8,2*%
%TO.N,Net-(R7-Pad1)*%
X146915500Y-104878500D03*
%TD*%
D16*
%TO.P,J1,1,Pin_1_1*%
%TO.N,V_Input_REF*%
X153416000Y-110998000D03*
%TD*%
D18*
%TO.P,Q1,1,G_1*%
%TO.N,Bridge_CRTL*%
X153985000Y-96423000D03*
%TO.P,Q1,2,S_2*%
%TO.N,A2*%
X152085000Y-96423000D03*
%TO.P,Q1,3,D_3*%
%TO.N,Net-(Q1-D)*%
X153035000Y-98298000D03*
%TD*%
D19*
%TO.P,C6,1*%
%TO.N,+3V3*%
X165644000Y-86130000D03*
%TO.P,C6,2*%
%TO.N,Gnd*%
X166604000Y-86130000D03*
%TD*%
D20*
%TO.P,U4,A1,VOUT_A1*%
%TO.N,LEDRail*%
X169399000Y-99385000D03*
%TO.P,U4,A2,VIN_A2*%
%TO.N,BatteryRail*%
X169399000Y-98985000D03*
%TO.P,U4,B1,GND_B1*%
%TO.N,Gnd*%
X169799000Y-99385000D03*
%TO.P,U4,B2,ON_B2*%
%TO.N,D10*%
X169799000Y-98985000D03*
%TD*%
%TO.P,U1,A1,VOUT_A1*%
%TO.N,Analog_Rail*%
X147602000Y-88665000D03*
%TO.P,U1,A2,VIN_A2*%
%TO.N,BatteryRail*%
X147202000Y-88665000D03*
%TO.P,U1,B1,GND_B1*%
%TO.N,Gnd*%
X147602000Y-88265000D03*
%TO.P,U1,B2,ON_B2*%
%TO.N,A3*%
X147202000Y-88265000D03*
%TD*%
D21*
%TO.P,C2,1*%
%TO.N,Gnd*%
X149098000Y-95222000D03*
%TO.P,C2,2*%
%TO.N,Analog_Rail*%
X149098000Y-94262000D03*
%TD*%
D13*
%TO.P,R14,1*%
%TO.N,Net-(R14-Pad1)*%
X169648500Y-108862500D03*
%TO.P,R14,2*%
%TO.N,Net-(R13-Pad1)*%
X169648500Y-107037500D03*
%TD*%
D22*
%TO.P,C8,1*%
%TO.N,BatteryRail*%
X168148000Y-99286000D03*
%TO.P,C8,2*%
%TO.N,Gnd*%
X168148000Y-100246000D03*
%TD*%
D17*
%TO.P,C1,1*%
%TO.N,Gnd*%
X148943000Y-101981000D03*
%TO.P,C1,2*%
%TO.N,Net-(U3-K)*%
X147983000Y-101981000D03*
%TD*%
D15*
%TO.P,R5,1*%
%TO.N,Net-(Q1-D)*%
X153312500Y-100711000D03*
%TO.P,R5,2*%
%TO.N,Net-(U3-K)*%
X151487500Y-100711000D03*
%TD*%
D23*
%TO.P,J4,1,Pin_1_1*%
%TO.N,Gnd*%
X155448000Y-86614000D03*
D24*
%TO.P,J4,2,Pin_2_2*%
%TO.N,BatteryRail*%
X155448000Y-87884000D03*
%TD*%
D15*
%TO.P,R10,1*%
%TO.N,V_Input_REF*%
X150749000Y-110363000D03*
%TO.P,R10,2*%
%TO.N,Net-(R10-Pad2)*%
X148924000Y-110363000D03*
%TD*%
D25*
%TO.P,BZ1,1,+_1*%
%TO.N,Net-(BZ1-+)*%
X161290000Y-90854000D03*
%TO.P,BZ1,2,-_2*%
%TO.N,Net-(BZ1--)*%
X161290000Y-101854000D03*
%TD*%
D26*
%TO.P,R15,1*%
%TO.N,V_Input_Float*%
X165688000Y-109728000D03*
%TO.P,R15,2*%
%TO.N,Net-(R14-Pad1)*%
X167513000Y-109728000D03*
%TD*%
D21*
%TO.P,C3,1*%
%TO.N,Net-(U5-CP1)*%
X159258000Y-88896000D03*
%TO.P,C3,2*%
%TO.N,Net-(U5-CN1)*%
X159258000Y-87936000D03*
%TD*%
D27*
%TO.P,LED1,1,DIN_1*%
%TO.N,D6*%
X169421474Y-96414988D03*
D28*
%TO.P,LED1,2,VDD_2*%
%TO.N,LEDRail*%
X169401474Y-95064988D03*
D29*
%TO.P,LED1,3,DOUT_3*%
%TO.N,unconnected-(LED1-DOUT-Pad3)*%
X169401474Y-94044988D03*
D30*
%TO.P,LED1,4,GND_4*%
%TO.N,Gnd*%
X169401474Y-92814988D03*
%TD*%
D21*
%TO.P,C10,1*%
%TO.N,Gnd*%
X169672000Y-101346000D03*
%TO.P,C10,2*%
%TO.N,LEDRail*%
X169672000Y-100386000D03*
%TD*%
D26*
%TO.P,R6,1*%
%TO.N,Net-(R6-Pad1)*%
X152607000Y-105029000D03*
%TO.P,R6,2*%
%TO.N,Net-(U3-K)*%
X154432000Y-105029000D03*
%TD*%
%TO.P,R7,1*%
%TO.N,Net-(R7-Pad1)*%
X148900500Y-105029000D03*
%TO.P,R7,2*%
%TO.N,Net-(R6-Pad1)*%
X150725500Y-105029000D03*
%TD*%
D13*
%TO.P,R9,1*%
%TO.N,Net-(R10-Pad2)*%
X146915500Y-110410000D03*
%TO.P,R9,2*%
%TO.N,Net-(R8-Pad1)*%
X146915500Y-108585000D03*
%TD*%
D19*
%TO.P,C7,1*%
%TO.N,BatteryRail*%
X146614000Y-89535000D03*
%TO.P,C7,2*%
%TO.N,Gnd*%
X147574000Y-89535000D03*
%TD*%
D15*
%TO.P,R13,1*%
%TO.N,Net-(R13-Pad1)*%
X169568500Y-105029000D03*
%TO.P,R13,2*%
%TO.N,Net-(R12-Pad1)*%
X167743500Y-105029000D03*
%TD*%
D31*
%TO.P,U5,1,EN1_1*%
%TO.N,D8*%
X162814000Y-85368000D03*
%TO.P,U5,2,EN2_2*%
%TO.N,D9*%
X162314000Y-85368000D03*
%TO.P,U5,3,DIN_3*%
%TO.N,D15*%
X161814000Y-85368000D03*
%TO.P,U5,4,NC_4*%
%TO.N,unconnected-(U5-NC-Pad4)*%
X161314000Y-85368000D03*
D32*
%TO.P,U5,5,CN1_5*%
%TO.N,Net-(U5-CN1)*%
X160564000Y-86118000D03*
%TO.P,U5,6,GND_6*%
%TO.N,Gnd*%
X160564000Y-86618000D03*
%TO.P,U5,7,VO2_7*%
%TO.N,Net-(BZ1--)*%
X160564000Y-87118000D03*
%TO.P,U5,8,NC_8*%
%TO.N,unconnected-(U5-NC-Pad8)*%
X160564000Y-87618000D03*
D31*
%TO.P,U5,9,VO1_9*%
%TO.N,Net-(BZ1-+)*%
X161314000Y-88368000D03*
%TO.P,U5,10,CN2_10*%
%TO.N,Net-(U5-CN2)*%
X161814000Y-88368000D03*
%TO.P,U5,11,CP1_11*%
%TO.N,Net-(U5-CP1)*%
X162314000Y-88368000D03*
%TO.P,U5,12,NC_12*%
%TO.N,unconnected-(U5-NC-Pad12)*%
X162814000Y-88368000D03*
D32*
%TO.P,U5,13,VOUT_13*%
%TO.N,Net-(U5-VOUT)*%
X163564000Y-87618000D03*
%TO.P,U5,14,CP2_14*%
%TO.N,Net-(U5-CP2)*%
X163564000Y-87118000D03*
%TO.P,U5,15,VIN_15*%
%TO.N,+3V3*%
X163564000Y-86618000D03*
%TO.P,U5,16,NC_16*%
%TO.N,unconnected-(U5-NC-Pad16)*%
X163564000Y-86118000D03*
D33*
%TO.P,U5,17,EP_17*%
%TO.N,unconnected-(U5-EP-Pad17)*%
X162064000Y-86868000D03*
%TD*%
D34*
%TO.P,U3,1,K_1*%
%TO.N,Net-(U3-K)*%
X147259000Y-100076000D03*
%TO.P,U3,2,REF_2*%
X149159000Y-100076000D03*
%TO.P,U3,3,A_3*%
%TO.N,Gnd*%
X148209000Y-98201000D03*
%TD*%
D19*
%TO.P,C5,1*%
%TO.N,Net-(U5-VOUT)*%
X164628000Y-87654000D03*
%TO.P,C5,2*%
%TO.N,Gnd*%
X165588000Y-87654000D03*
%TD*%
D34*
%TO.P,D3,1,A_1*%
%TO.N,Gnd*%
X149545000Y-92250500D03*
%TO.P,D3,2,K_2*%
%TO.N,BatteryRail*%
X151445000Y-92250500D03*
%TO.P,D3,3,COM_3*%
%TO.N,A2*%
X150495000Y-90375500D03*
%TD*%
D15*
%TO.P,R12,1*%
%TO.N,Net-(R12-Pad1)*%
X165862000Y-105029000D03*
%TO.P,R12,2*%
%TO.N,Net-(R11-Pad1)*%
X164037000Y-105029000D03*
%TD*%
D26*
%TO.P,R22,1*%
%TO.N,Net-(U3-K)*%
X156417000Y-105029000D03*
%TO.P,R22,2*%
%TO.N,A2*%
X158242000Y-105029000D03*
%TD*%
D14*
%TO.P,R1,1*%
%TO.N,Analog_Rail*%
X147066000Y-94210500D03*
%TO.P,R1,2*%
%TO.N,Net-(U3-K)*%
X147066000Y-96035500D03*
%TD*%
D35*
%TO.N,D9*%
X165110632Y-83337666D03*
%TO.N,Gnd*%
X147955000Y-77851000D03*
X167267000Y-86892000D03*
X149606000Y-87503000D03*
X159576765Y-86718000D03*
X148717000Y-96139000D03*
X165362000Y-88543000D03*
X149225000Y-97790000D03*
X168783000Y-100881000D03*
X147701000Y-90297000D03*
X149860000Y-101981000D03*
X168910000Y-91694000D03*
X148463000Y-92710000D03*
X147955000Y-87630000D03*
X154686000Y-92202000D03*
%TO.N,Bridge_CRTL*%
X155702000Y-93980000D03*
%TO.N,+3V3*%
X164393500Y-86177500D03*
%TO.N,LEDRail*%
X168976401Y-100072611D03*
X168315488Y-95064988D03*
%TO.N,BatteryRail*%
X164084000Y-91059000D03*
X146685000Y-90551000D03*
X152273000Y-90897000D03*
%TO.N,D10*%
X169799000Y-98171000D03*
%TO.N,Net-(BZ1--)*%
X160075647Y-88865118D03*
X160528000Y-93091000D03*
%TO.N,Net-(U5-CP1)*%
X162481763Y-89123032D03*
X160714000Y-89432000D03*
%TO.N,D6*%
X160147000Y-95631000D03*
X167005000Y-95885000D03*
X151638000Y-87122000D03*
%TO.N,D15*%
X160655000Y-84860000D03*
%TD*%
%TO.N,A2*%
D36*
X150495000Y-90375500D02*
X150495000Y-86486500D01*
%TO.N,Net-(BZ1-+)*%
X161314000Y-90830000D02*
X161290000Y-90854000D01*
X161314000Y-88368000D02*
X161314000Y-90830000D01*
%TO.N,Net-(U5-CN2)*%
X161909000Y-89408000D02*
X161814000Y-89313000D01*
X161918202Y-89408000D02*
X161909000Y-89408000D01*
X162233234Y-89723032D02*
X161918202Y-89408000D01*
X162730292Y-89723032D02*
X162233234Y-89723032D01*
X163842000Y-89408000D02*
X163045324Y-89408000D01*
X161814000Y-89313000D02*
X161814000Y-88368000D01*
X163866000Y-89432000D02*
X163842000Y-89408000D01*
X163045324Y-89408000D02*
X162730292Y-89723032D01*
%TO.N,Net-(U5-CP1)*%
X162314000Y-88893000D02*
X162314000Y-88368000D01*
X162481763Y-89123032D02*
X162501248Y-89103547D01*
X162501248Y-89103547D02*
X162501248Y-89080248D01*
X162501248Y-89080248D02*
X162314000Y-88893000D01*
%TO.N,D6*%
X160147000Y-95631000D02*
X151638000Y-87122000D01*
%TO.N,A3*%
X148590000Y-84859000D02*
X148590000Y-74676000D01*
X147202000Y-86247000D02*
X148590000Y-84859000D01*
X147202000Y-88265000D02*
X147202000Y-86247000D01*
%TO.N,D8*%
X168910000Y-79883000D02*
X168910000Y-81407000D01*
X167386000Y-78359000D02*
X168910000Y-79883000D01*
X166243000Y-78359000D02*
X167386000Y-78359000D01*
%TO.N,Vbus*%
X163830000Y-63246000D02*
X166243000Y-65659000D01*
X148590000Y-64717004D02*
X150061004Y-63246000D01*
X150061004Y-63246000D02*
X163830000Y-63246000D01*
X147193000Y-70842500D02*
X148590000Y-69445500D01*
X148590000Y-69445500D02*
X148590000Y-64717004D01*
%TO.N,A3*%
X151003000Y-73279000D02*
X150391500Y-72667500D01*
X149987000Y-73279000D02*
X148590000Y-74676000D01*
%TO.N,A1*%
X147193000Y-74652500D02*
X147193000Y-72667500D01*
%TO.N,A3*%
X151003000Y-73279000D02*
X149987000Y-73279000D01*
%TO.N,D9*%
X166306000Y-75756000D02*
X167895000Y-75756000D01*
X166243000Y-75819000D02*
X166306000Y-75756000D01*
%TO.N,A1*%
X148193000Y-70430328D02*
X148193000Y-71667500D01*
X151003000Y-68199000D02*
X150424328Y-68199000D01*
X148193000Y-71667500D02*
X147193000Y-72667500D01*
X150424328Y-68199000D02*
X148193000Y-70430328D01*
%TO.N,Net-(U5-CN1)*%
X159180000Y-86118000D02*
X160564000Y-86118000D01*
X158877000Y-86421000D02*
X159180000Y-86118000D01*
%TO.N,D8*%
X164949000Y-85368000D02*
X162814000Y-85368000D01*
X165989000Y-84328000D02*
X164949000Y-85368000D01*
%TO.N,BatteryRail*%
X168148000Y-98679000D02*
X168148000Y-99286000D01*
X164084000Y-94615000D02*
X168148000Y-98679000D01*
X164084000Y-91059000D02*
X164084000Y-94615000D01*
%TO.N,Net-(R11-Pad1)*%
X162052000Y-105029000D02*
X164037000Y-105029000D01*
%TO.N,A2*%
X150495000Y-90375500D02*
X150495000Y-94833000D01*
X152606948Y-96423000D02*
X152085000Y-96423000D01*
X150495000Y-94833000D02*
X152085000Y-96423000D01*
X158242000Y-102058052D02*
X152606948Y-96423000D01*
X158242000Y-105029000D02*
X158242000Y-102058052D01*
X158242000Y-105029000D02*
X160227000Y-105029000D01*
%TO.N,V_Input_Float*%
X165688000Y-109728000D02*
X164846000Y-109728000D01*
X163576000Y-110998000D02*
X162052000Y-110998000D01*
X164846000Y-109728000D02*
X163576000Y-110998000D01*
%TO.N,Net-(U5-CP2)*%
X166251000Y-87315256D02*
X165827744Y-86892000D01*
X164018686Y-87118000D02*
X163564000Y-87118000D01*
X165827744Y-86892000D02*
X164244686Y-86892000D01*
X166251000Y-88543000D02*
X166251000Y-87315256D01*
X164244686Y-86892000D02*
X164018686Y-87118000D01*
X164826000Y-89432000D02*
X165362000Y-89432000D01*
X165362000Y-89432000D02*
X166251000Y-88543000D01*
%TO.N,Gnd*%
X147602000Y-88265000D02*
X147602000Y-87983000D01*
X154686000Y-92202000D02*
X154455500Y-92202000D01*
X167267000Y-86892000D02*
X167013000Y-86892000D01*
X148620000Y-97790000D02*
X148209000Y-98201000D01*
X149225000Y-97790000D02*
X148620000Y-97790000D01*
X154455500Y-92202000D02*
X154408500Y-92155000D01*
X149578000Y-87531000D02*
X149606000Y-87503000D01*
X147602000Y-87983000D02*
X147955000Y-87630000D01*
X168783000Y-100881000D02*
X169248000Y-101346000D01*
X169401474Y-92185474D02*
X168910000Y-91694000D01*
X165588000Y-87654000D02*
X165588000Y-88317000D01*
X169401474Y-92814988D02*
X169401474Y-92185474D01*
X165588000Y-88317000D02*
X165362000Y-88543000D01*
X148463000Y-92710000D02*
X148831500Y-92710000D01*
X169926000Y-101346000D02*
X170282000Y-100990000D01*
X169672000Y-101346000D02*
X169926000Y-101346000D01*
X166604000Y-86483000D02*
X166604000Y-86130000D01*
X149578000Y-88392000D02*
X149578000Y-87531000D01*
X170282000Y-100990000D02*
X170282000Y-99868000D01*
X160163530Y-86618000D02*
X160564000Y-86618000D01*
X154408500Y-92155000D02*
X153543000Y-92155000D01*
X169248000Y-101346000D02*
X169672000Y-101346000D01*
X149098000Y-95222000D02*
X149098000Y-95758000D01*
X148831500Y-92710000D02*
X149545000Y-91996500D01*
X168783000Y-100881000D02*
X168148000Y-100246000D01*
X160063530Y-86718000D02*
X160163530Y-86618000D01*
X149098000Y-95758000D02*
X148717000Y-96139000D01*
X167013000Y-86892000D02*
X166604000Y-86483000D01*
X159576765Y-86718000D02*
X160063530Y-86718000D01*
X147574000Y-89535000D02*
X147701000Y-89662000D01*
X149860000Y-101981000D02*
X148943000Y-101981000D01*
X170282000Y-99868000D02*
X169799000Y-99385000D01*
X147701000Y-89662000D02*
X147701000Y-90297000D01*
%TO.N,Analog_Rail*%
X148336000Y-91988471D02*
X147066000Y-93258471D01*
X148345000Y-88665000D02*
X147602000Y-88665000D01*
X147602000Y-88665000D02*
X147729279Y-88665000D01*
X147729279Y-88665000D02*
X148336000Y-89271721D01*
X148618000Y-88392000D02*
X148345000Y-88665000D01*
X147066000Y-94210500D02*
X147324500Y-94210500D01*
X147117500Y-94262000D02*
X147066000Y-94210500D01*
X148336000Y-89271721D02*
X148336000Y-91988471D01*
X147066000Y-93258471D02*
X147066000Y-94210500D01*
X149098000Y-94262000D02*
X147117500Y-94262000D01*
%TO.N,Bridge_CRTL*%
X153924000Y-94361000D02*
X153924000Y-96362000D01*
X153924000Y-96362000D02*
X153985000Y-96423000D01*
X153543000Y-93980000D02*
X153924000Y-94361000D01*
X153543000Y-93980000D02*
X155702000Y-93980000D01*
%TO.N,Net-(R8-Pad1)*%
X146915500Y-108585000D02*
X146915500Y-106703500D01*
%TO.N,Net-(R7-Pad1)*%
X146915500Y-104878500D02*
X148750000Y-104878500D01*
X148750000Y-104878500D02*
X148900500Y-105029000D01*
%TO.N,V_Input_REF*%
X152908000Y-110490000D02*
X150749000Y-110490000D01*
X153416000Y-110998000D02*
X152908000Y-110490000D01*
X150749000Y-110490000D02*
X150749000Y-110363000D01*
%TO.N,Net-(Q1-D)*%
X153312500Y-100711000D02*
X153312500Y-98575500D01*
X153035000Y-100433500D02*
X153312500Y-100711000D01*
X153312500Y-98575500D02*
X153035000Y-98298000D01*
%TO.N,+3V3*%
X164393500Y-86177500D02*
X163953000Y-86618000D01*
X164393500Y-86177500D02*
X164441000Y-86130000D01*
X164441000Y-86130000D02*
X165644000Y-86130000D01*
X163953000Y-86618000D02*
X163564000Y-86618000D01*
%TO.N,LEDRail*%
X169399000Y-99385000D02*
X169399000Y-99550686D01*
X169672000Y-99823686D02*
X169672000Y-100203000D01*
X169672000Y-100386000D02*
X169289790Y-100386000D01*
X169399000Y-99550686D02*
X169672000Y-99823686D01*
X168315488Y-95064988D02*
X169401474Y-95064988D01*
X169289790Y-100386000D02*
X168976401Y-100072611D01*
%TO.N,BatteryRail*%
X146685000Y-89606000D02*
X146685000Y-90551000D01*
X169399000Y-98985000D02*
X168703000Y-98985000D01*
X168703000Y-98985000D02*
X168402000Y-99286000D01*
X152273000Y-91422500D02*
X151445000Y-92250500D01*
X146614000Y-89535000D02*
X146685000Y-89606000D01*
X147202000Y-88947000D02*
X146614000Y-89535000D01*
X152273000Y-90897000D02*
X152273000Y-91422500D01*
X147202000Y-88665000D02*
X147202000Y-88947000D01*
%TO.N,D10*%
X169799000Y-98171000D02*
X169799000Y-98985000D01*
%TO.N,Net-(R14-Pad1)*%
X168378500Y-108862500D02*
X167513000Y-109728000D01*
X169648500Y-108862500D02*
X168378500Y-108862500D01*
%TO.N,Net-(R13-Pad1)*%
X169568500Y-105029000D02*
X169568500Y-106957500D01*
X169568500Y-106957500D02*
X169648500Y-107037500D01*
%TO.N,Net-(U3-K)*%
X154432000Y-105029000D02*
X156417000Y-105029000D01*
X147066000Y-96035500D02*
X147193000Y-96162500D01*
X147259000Y-99888000D02*
X147193000Y-99822000D01*
X151487500Y-102084500D02*
X154432000Y-105029000D01*
X147259000Y-100076000D02*
X147259000Y-101257000D01*
X147193000Y-100010000D02*
X147259000Y-100076000D01*
X149159000Y-100076000D02*
X149794000Y-100711000D01*
X149794000Y-100711000D02*
X151487500Y-100711000D01*
X147259000Y-100076000D02*
X147259000Y-99888000D01*
X147259000Y-100076000D02*
X149159000Y-100076000D01*
X147259000Y-101257000D02*
X147983000Y-101981000D01*
X147193000Y-96162500D02*
X147193000Y-100010000D01*
X151487500Y-100711000D02*
X151487500Y-102084500D01*
%TO.N,Net-(R10-Pad2)*%
X148924000Y-110363000D02*
X146962500Y-110363000D01*
X146962500Y-110363000D02*
X146915500Y-110410000D01*
%TO.N,Net-(BZ1--)*%
X160039000Y-87118000D02*
X159964000Y-87193000D01*
X159964000Y-87193000D02*
X159964000Y-88753471D01*
X160564000Y-87118000D02*
X160039000Y-87118000D01*
X161290000Y-93853000D02*
X161290000Y-101854000D01*
X160528000Y-93091000D02*
X161290000Y-93853000D01*
X159964000Y-88753471D02*
X160075647Y-88865118D01*
%TO.N,Net-(U5-CP1)*%
X160673235Y-89472765D02*
X159834765Y-89472765D01*
X159834765Y-89472765D02*
X159258000Y-88896000D01*
X160714000Y-89432000D02*
X160673235Y-89472765D01*
%TO.N,Net-(U5-CN1)*%
X158877000Y-87555000D02*
X158877000Y-86421000D01*
X159258000Y-87936000D02*
X158877000Y-87555000D01*
%TO.N,D6*%
X167534988Y-96414988D02*
X167005000Y-95885000D01*
X169421474Y-96414988D02*
X167534988Y-96414988D01*
%TO.N,Net-(R6-Pad1)*%
X150725500Y-105029000D02*
X152607000Y-105029000D01*
%TO.N,D8*%
X168910000Y-81407000D02*
X165989000Y-84328000D01*
%TO.N,Net-(R12-Pad1)*%
X165862000Y-105029000D02*
X167743500Y-105029000D01*
%TO.N,D15*%
X161814000Y-85368000D02*
X161814000Y-84843000D01*
X160747000Y-84768000D02*
X160655000Y-84860000D01*
X161814000Y-84843000D02*
X161739000Y-84768000D01*
X161739000Y-84768000D02*
X160747000Y-84768000D01*
%TO.N,Net-(U5-VOUT)*%
X163598000Y-87652000D02*
X163564000Y-87618000D01*
X164600000Y-87654000D02*
X164598000Y-87652000D01*
X164598000Y-87652000D02*
X163598000Y-87652000D01*
%TO.N,Gnd*%
X147193000Y-77089000D02*
X147955000Y-77851000D01*
X147193000Y-76477500D02*
X147193000Y-77089000D01*
%TO.N,D6*%
X151003000Y-80899000D02*
X151511000Y-81407000D01*
%TO.N,D9*%
X162314000Y-84935000D02*
X162314000Y-85368000D01*
X162481000Y-84768000D02*
X162314000Y-84935000D01*
X165110632Y-83809368D02*
X164152000Y-84768000D01*
X165110632Y-83337666D02*
X165110632Y-83809368D01*
X164152000Y-84768000D02*
X162481000Y-84768000D01*
%TO.N,A2*%
X150495000Y-86486500D02*
X152273000Y-84708500D01*
X152273000Y-72009000D02*
X151003000Y-70739000D01*
X152273000Y-84708500D02*
X152273000Y-72009000D01*
%TD*%
M02*
