%TF.GenerationSoftware,KiCad,Pcbnew,10.0.0*%
%TF.CreationDate,2026-08-19T17:40:11-05:00*%
%TF.ProjectId,BlinkyHawk_V3b,426c696e-6b79-4486-9177-6b5f5633622e,rev?*%
%TF.SameCoordinates,Original*%
%TF.FileFunction,Copper,L2,Inr*%
%TF.FilePolarity,Positive*%
%FSLAX46Y46*%
G04 Gerber Fmt 4.6, Leading zero omitted, Abs format (unit mm)*
G04 Created by KiCad (PCBNEW 10.0.0) date 2026-08-19 17:40:11*
%MOMM*%
%LPD*%
G01*
G04 APERTURE LIST*
G04 Aperture macros list*
%AMRoundRect*
0 Rectangle with rounded corners*
0 $1 Rounding radius*
0 $2 $3 $4 $5 $6 $7 $8 $9 X,Y pos of 4 corners*
0 Add a 4 corners polygon primitive as box body*
4,1,4,$2,$3,$4,$5,$6,$7,$8,$9,$2,$3,0*
0 Add four circle primitives for the rounded corners*
1,1,$1+$1,$2,$3*
1,1,$1+$1,$4,$5*
1,1,$1+$1,$6,$7*
1,1,$1+$1,$8,$9*
0 Add four rect primitives between the rounded corners*
20,1,$1+$1,$2,$3,$4,$5,0*
20,1,$1+$1,$4,$5,$6,$7,0*
20,1,$1+$1,$6,$7,$8,$9,0*
20,1,$1+$1,$8,$9,$2,$3,0*%
G04 Aperture macros list end*
%TA.AperFunction,ComponentPad*%
%ADD10R,2.754996X1.699990*%
%TD*%
%TA.AperFunction,ComponentPad*%
%ADD11O,2.754988X1.699990*%
%TD*%
%TA.AperFunction,ComponentPad*%
%ADD12O,2.739337X1.724033*%
%TD*%
%TA.AperFunction,ComponentPad*%
%ADD13O,2.754996X1.699996*%
%TD*%
%TA.AperFunction,ComponentPad*%
%ADD14O,2.754980X1.699982*%
%TD*%
%TA.AperFunction,ComponentPad*%
%ADD15O,2.754994X1.699996*%
%TD*%
%TA.AperFunction,ComponentPad*%
%ADD16O,2.754978X1.699980*%
%TD*%
%TA.AperFunction,ComponentPad*%
%ADD17R,1.000000X1.000000*%
%TD*%
%TA.AperFunction,ComponentPad*%
%ADD18C,1.000000*%
%TD*%
%TA.AperFunction,ComponentPad*%
%ADD19R,2.755000X1.699996*%
%TD*%
%TA.AperFunction,ComponentPad*%
%ADD20O,2.755000X1.699998*%
%TD*%
%TA.AperFunction,ComponentPad*%
%ADD21O,2.774819X1.667010*%
%TD*%
%TA.AperFunction,ComponentPad*%
%ADD22RoundRect,0.250000X-0.825000X-0.825000X0.825000X-0.825000X0.825000X0.825000X-0.825000X0.825000X0*%
%TD*%
%TA.AperFunction,ViaPad*%
%ADD23C,0.600000*%
%TD*%
G04 APERTURE END LIST*
D10*
%TO.N,Vbus*%
%TO.C,J6*%
X166516502Y-67691005D03*
D11*
%TO.N,Gnd*%
X166516506Y-70231005D03*
D12*
%TO.N,+3V3*%
X166508679Y-72783025D03*
D13*
%TO.N,D10*%
X166516502Y-75311002D03*
D14*
%TO.N,D9*%
X166516510Y-77851009D03*
D15*
%TO.N,D8*%
X166516503Y-80391002D03*
D16*
%TO.N,Bridge_CRTL*%
X166516511Y-82931010D03*
%TD*%
D17*
%TO.N,Gnd*%
%TO.C,J4*%
X169291000Y-88773000D03*
D18*
%TO.N,BatteryRail*%
X169291000Y-90043000D03*
%TD*%
D19*
%TO.N,A0*%
%TO.C,J3*%
X150221500Y-67691002D03*
D20*
%TO.N,A1*%
X150221500Y-70231001D03*
%TO.N,A2*%
X150221500Y-72771001D03*
D21*
%TO.N,A3*%
X150211591Y-75294505D03*
D20*
%TO.N,SDA*%
X150221500Y-77851001D03*
%TO.N,SCL{slash}A5*%
X150221500Y-80391001D03*
%TO.N,D6*%
X150221500Y-82931001D03*
%TD*%
D22*
%TO.N,BatteryRail*%
%TO.C,J5*%
X158623000Y-87884000D03*
%TD*%
D23*
%TO.N,Gnd*%
X147701000Y-79883000D03*
X149225000Y-97790000D03*
X150368000Y-101346000D03*
X168910000Y-91694000D03*
X153670000Y-90678000D03*
X149987000Y-88519000D03*
%TO.N,+3V3*%
X149542500Y-94551500D03*
%TO.N,D6*%
X157543500Y-91757500D03*
%TO.N,D9*%
X161290000Y-94742000D03*
X164211000Y-91821000D03*
%TD*%
%TA.AperFunction,Conductor*%
%TO.N,Gnd*%
G36*
X168999980Y-64508815D02*
G01*
X169147101Y-64519337D01*
X169164611Y-64521855D01*
X169356874Y-64563680D01*
X169373833Y-64568659D01*
X169558210Y-64637428D01*
X169574282Y-64644768D01*
X169694228Y-64710263D01*
X169746977Y-64739066D01*
X169761860Y-64748631D01*
X169919368Y-64866540D01*
X169932739Y-64878126D01*
X170071868Y-65017255D01*
X170083454Y-65030625D01*
X170201367Y-65188138D01*
X170201369Y-65188140D01*
X170210932Y-65203021D01*
X170280227Y-65329926D01*
X170305225Y-65375705D01*
X170312575Y-65391799D01*
X170381336Y-65576156D01*
X170386320Y-65593131D01*
X170428143Y-65785387D01*
X170430661Y-65802898D01*
X170441184Y-65950018D01*
X170441500Y-65958865D01*
X170441500Y-87935066D01*
X170421815Y-88002105D01*
X170369011Y-88047860D01*
X170299853Y-88057804D01*
X170236297Y-88028779D01*
X170218234Y-88009378D01*
X170148187Y-87915809D01*
X170033093Y-87829649D01*
X170033086Y-87829645D01*
X169898379Y-87779403D01*
X169898372Y-87779401D01*
X169838844Y-87773000D01*
X169541000Y-87773000D01*
X169541000Y-88563382D01*
X169490554Y-88512936D01*
X169416445Y-88470149D01*
X169333787Y-88448000D01*
X169248213Y-88448000D01*
X169165555Y-88470149D01*
X169091446Y-88512936D01*
X169030936Y-88573446D01*
X168988149Y-88647555D01*
X168966000Y-88730213D01*
X168966000Y-88815787D01*
X168988149Y-88898445D01*
X169030936Y-88972554D01*
X169081382Y-89023000D01*
X168291000Y-89023000D01*
X168291000Y-89320844D01*
X168297401Y-89380372D01*
X168297402Y-89380376D01*
X168347647Y-89515088D01*
X168347649Y-89515092D01*
X168356247Y-89526577D01*
X168380663Y-89592041D01*
X168371541Y-89648337D01*
X168328948Y-89751168D01*
X168328947Y-89751171D01*
X168290500Y-89944456D01*
X168290500Y-89944459D01*
X168290500Y-90141541D01*
X168290500Y-90141543D01*
X168290499Y-90141543D01*
X168328947Y-90334829D01*
X168328950Y-90334839D01*
X168404364Y-90516907D01*
X168404371Y-90516920D01*
X168513860Y-90680781D01*
X168513863Y-90680785D01*
X168653214Y-90820136D01*
X168653218Y-90820139D01*
X168817079Y-90929628D01*
X168817092Y-90929635D01*
X168957430Y-90987764D01*
X168999165Y-91005051D01*
X168999169Y-91005051D01*
X168999170Y-91005052D01*
X169192456Y-91043500D01*
X169192459Y-91043500D01*
X169389543Y-91043500D01*
X169519582Y-91017632D01*
X169582835Y-91005051D01*
X169764914Y-90929632D01*
X169928782Y-90820139D01*
X170068139Y-90680782D01*
X170177632Y-90516914D01*
X170177635Y-90516907D01*
X170202939Y-90455818D01*
X170246779Y-90401414D01*
X170313074Y-90379349D01*
X170380773Y-90396628D01*
X170428384Y-90447765D01*
X170441500Y-90503270D01*
X170441500Y-103254000D01*
X170421815Y-103321039D01*
X170369011Y-103366794D01*
X170317500Y-103378000D01*
X146166500Y-103378000D01*
X146099461Y-103358315D01*
X146053706Y-103305511D01*
X146042500Y-103254000D01*
X146042500Y-94472653D01*
X148742000Y-94472653D01*
X148742000Y-94630346D01*
X148772761Y-94784989D01*
X148772764Y-94785001D01*
X148833102Y-94930672D01*
X148833109Y-94930685D01*
X148920710Y-95061788D01*
X148920713Y-95061792D01*
X149032207Y-95173286D01*
X149032211Y-95173289D01*
X149163314Y-95260890D01*
X149163327Y-95260897D01*
X149308998Y-95321235D01*
X149309003Y-95321237D01*
X149463653Y-95351999D01*
X149463656Y-95352000D01*
X149463658Y-95352000D01*
X149621344Y-95352000D01*
X149621345Y-95351999D01*
X149775997Y-95321237D01*
X149921679Y-95260894D01*
X150052789Y-95173289D01*
X150164289Y-95061789D01*
X150251894Y-94930679D01*
X150312237Y-94784997D01*
X150319182Y-94750077D01*
X150336474Y-94663153D01*
X160489500Y-94663153D01*
X160489500Y-94820846D01*
X160520261Y-94975489D01*
X160520264Y-94975501D01*
X160580602Y-95121172D01*
X160580609Y-95121185D01*
X160668210Y-95252288D01*
X160668213Y-95252292D01*
X160779707Y-95363786D01*
X160779711Y-95363789D01*
X160910814Y-95451390D01*
X160910827Y-95451397D01*
X161056498Y-95511735D01*
X161056503Y-95511737D01*
X161211153Y-95542499D01*
X161211156Y-95542500D01*
X161211158Y-95542500D01*
X161368844Y-95542500D01*
X161368845Y-95542499D01*
X161523497Y-95511737D01*
X161669179Y-95451394D01*
X161800289Y-95363789D01*
X161911789Y-95252289D01*
X161999394Y-95121179D01*
X162059737Y-94975497D01*
X162090500Y-94820842D01*
X162090500Y-94663158D01*
X162090500Y-94663155D01*
X162090499Y-94663153D01*
X162059738Y-94508510D01*
X162059737Y-94508503D01*
X162044890Y-94472658D01*
X161999397Y-94362827D01*
X161999390Y-94362814D01*
X161911789Y-94231711D01*
X161911786Y-94231707D01*
X161800292Y-94120213D01*
X161800288Y-94120210D01*
X161669185Y-94032609D01*
X161669172Y-94032602D01*
X161523501Y-93972264D01*
X161523489Y-93972261D01*
X161368845Y-93941500D01*
X161368842Y-93941500D01*
X161211158Y-93941500D01*
X161211155Y-93941500D01*
X161056510Y-93972261D01*
X161056498Y-93972264D01*
X160910827Y-94032602D01*
X160910814Y-94032609D01*
X160779711Y-94120210D01*
X160779707Y-94120213D01*
X160668213Y-94231707D01*
X160668210Y-94231711D01*
X160580609Y-94362814D01*
X160580602Y-94362827D01*
X160520264Y-94508498D01*
X160520261Y-94508510D01*
X160489500Y-94663153D01*
X150336474Y-94663153D01*
X150342497Y-94632874D01*
X150343000Y-94630343D01*
X150343000Y-94472655D01*
X150342999Y-94472653D01*
X150321152Y-94362821D01*
X150312237Y-94318003D01*
X150276494Y-94231711D01*
X150251897Y-94172327D01*
X150251890Y-94172314D01*
X150164289Y-94041211D01*
X150164286Y-94041207D01*
X150052792Y-93929713D01*
X150052788Y-93929710D01*
X149921685Y-93842109D01*
X149921672Y-93842102D01*
X149776001Y-93781764D01*
X149775989Y-93781761D01*
X149621345Y-93751000D01*
X149621342Y-93751000D01*
X149463658Y-93751000D01*
X149463655Y-93751000D01*
X149309010Y-93781761D01*
X149308998Y-93781764D01*
X149163327Y-93842102D01*
X149163314Y-93842109D01*
X149032211Y-93929710D01*
X149032207Y-93929713D01*
X148920713Y-94041207D01*
X148920710Y-94041211D01*
X148833109Y-94172314D01*
X148833102Y-94172327D01*
X148772764Y-94317998D01*
X148772761Y-94318010D01*
X148742000Y-94472653D01*
X146042500Y-94472653D01*
X146042500Y-91678653D01*
X156743000Y-91678653D01*
X156743000Y-91836346D01*
X156773761Y-91990989D01*
X156773764Y-91991001D01*
X156834102Y-92136672D01*
X156834109Y-92136685D01*
X156921710Y-92267788D01*
X156921713Y-92267792D01*
X157033207Y-92379286D01*
X157033211Y-92379289D01*
X157164314Y-92466890D01*
X157164327Y-92466897D01*
X157309998Y-92527235D01*
X157310003Y-92527237D01*
X157464653Y-92557999D01*
X157464656Y-92558000D01*
X157464658Y-92558000D01*
X157622344Y-92558000D01*
X157622345Y-92557999D01*
X157776997Y-92527237D01*
X157922679Y-92466894D01*
X158053789Y-92379289D01*
X158165289Y-92267789D01*
X158252894Y-92136679D01*
X158313237Y-91990997D01*
X158344000Y-91836342D01*
X158344000Y-91742153D01*
X163410500Y-91742153D01*
X163410500Y-91899846D01*
X163441261Y-92054489D01*
X163441264Y-92054501D01*
X163501602Y-92200172D01*
X163501609Y-92200185D01*
X163589210Y-92331288D01*
X163589213Y-92331292D01*
X163700707Y-92442786D01*
X163700711Y-92442789D01*
X163831814Y-92530390D01*
X163831827Y-92530397D01*
X163898468Y-92558000D01*
X163977503Y-92590737D01*
X164132153Y-92621499D01*
X164132156Y-92621500D01*
X164132158Y-92621500D01*
X164289844Y-92621500D01*
X164289845Y-92621499D01*
X164444497Y-92590737D01*
X164590179Y-92530394D01*
X164721289Y-92442789D01*
X164832789Y-92331289D01*
X164920394Y-92200179D01*
X164980737Y-92054497D01*
X165011500Y-91899842D01*
X165011500Y-91742158D01*
X165011500Y-91742155D01*
X165011499Y-91742153D01*
X164980738Y-91587510D01*
X164980737Y-91587503D01*
X164954433Y-91523998D01*
X164920397Y-91441827D01*
X164920390Y-91441814D01*
X164832789Y-91310711D01*
X164832786Y-91310707D01*
X164721292Y-91199213D01*
X164721288Y-91199210D01*
X164590185Y-91111609D01*
X164590172Y-91111602D01*
X164444501Y-91051264D01*
X164444489Y-91051261D01*
X164289845Y-91020500D01*
X164289842Y-91020500D01*
X164132158Y-91020500D01*
X164132155Y-91020500D01*
X163977510Y-91051261D01*
X163977498Y-91051264D01*
X163831827Y-91111602D01*
X163831814Y-91111609D01*
X163700711Y-91199210D01*
X163700707Y-91199213D01*
X163589213Y-91310707D01*
X163589210Y-91310711D01*
X163501609Y-91441814D01*
X163501602Y-91441827D01*
X163441264Y-91587498D01*
X163441261Y-91587510D01*
X163410500Y-91742153D01*
X158344000Y-91742153D01*
X158344000Y-91678658D01*
X158344000Y-91678655D01*
X158343999Y-91678653D01*
X158313238Y-91524010D01*
X158313237Y-91524003D01*
X158279199Y-91441827D01*
X158252897Y-91378327D01*
X158252890Y-91378314D01*
X158165289Y-91247211D01*
X158165286Y-91247207D01*
X158053792Y-91135713D01*
X158053788Y-91135710D01*
X157922685Y-91048109D01*
X157922672Y-91048102D01*
X157777001Y-90987764D01*
X157776989Y-90987761D01*
X157622345Y-90957000D01*
X157622342Y-90957000D01*
X157464658Y-90957000D01*
X157464655Y-90957000D01*
X157310010Y-90987761D01*
X157309998Y-90987764D01*
X157164327Y-91048102D01*
X157164314Y-91048109D01*
X157033211Y-91135710D01*
X157033207Y-91135713D01*
X156921713Y-91247207D01*
X156921710Y-91247211D01*
X156834109Y-91378314D01*
X156834102Y-91378327D01*
X156773764Y-91523998D01*
X156773761Y-91524010D01*
X156743000Y-91678653D01*
X146042500Y-91678653D01*
X146042500Y-75189517D01*
X148323682Y-75189517D01*
X148323682Y-75399493D01*
X148340106Y-75503189D01*
X148356530Y-75606886D01*
X148421414Y-75806582D01*
X148421415Y-75806585D01*
X148474853Y-75911461D01*
X148513314Y-75986945D01*
X148516746Y-75993679D01*
X148640159Y-76163544D01*
X148640163Y-76163549D01*
X148788642Y-76312028D01*
X148788647Y-76312032D01*
X148828662Y-76341104D01*
X148958516Y-76435448D01*
X149001234Y-76457214D01*
X149011143Y-76462263D01*
X149061939Y-76510238D01*
X149078734Y-76578059D01*
X149056196Y-76644194D01*
X149011144Y-76683232D01*
X148986185Y-76695949D01*
X148814205Y-76820900D01*
X148663898Y-76971207D01*
X148538949Y-77143184D01*
X148442441Y-77332588D01*
X148442440Y-77332591D01*
X148376754Y-77534756D01*
X148343500Y-77744714D01*
X148343500Y-77957287D01*
X148376754Y-78167245D01*
X148442440Y-78369410D01*
X148442441Y-78369413D01*
X148523466Y-78528430D01*
X148538949Y-78558817D01*
X148663896Y-78730792D01*
X148814208Y-78881104D01*
X148986183Y-79006051D01*
X148986185Y-79006052D01*
X148994947Y-79010517D01*
X149045742Y-79058492D01*
X149062537Y-79126313D01*
X149039999Y-79192448D01*
X148994947Y-79231485D01*
X148986185Y-79235949D01*
X148814205Y-79360900D01*
X148663898Y-79511207D01*
X148538949Y-79683184D01*
X148442441Y-79872588D01*
X148442440Y-79872591D01*
X148376754Y-80074756D01*
X148343500Y-80284714D01*
X148343500Y-80497287D01*
X148376754Y-80707245D01*
X148442440Y-80909410D01*
X148442441Y-80909413D01*
X148503310Y-81028872D01*
X148538949Y-81098817D01*
X148663896Y-81270792D01*
X148814208Y-81421104D01*
X148986183Y-81546051D01*
X148986185Y-81546052D01*
X148994947Y-81550517D01*
X149045742Y-81598492D01*
X149062537Y-81666313D01*
X149039999Y-81732448D01*
X148994947Y-81771485D01*
X148986185Y-81775949D01*
X148814205Y-81900900D01*
X148663898Y-82051207D01*
X148538949Y-82223184D01*
X148442441Y-82412588D01*
X148442440Y-82412591D01*
X148376754Y-82614756D01*
X148343500Y-82824714D01*
X148343500Y-83037287D01*
X148376754Y-83247245D01*
X148442440Y-83449410D01*
X148442441Y-83449413D01*
X148520360Y-83602334D01*
X148538949Y-83638817D01*
X148663896Y-83810792D01*
X148814208Y-83961104D01*
X148986183Y-84086051D01*
X149079079Y-84133384D01*
X149175586Y-84182558D01*
X149175589Y-84182559D01*
X149276671Y-84215402D01*
X149377756Y-84248246D01*
X149587712Y-84281500D01*
X149587713Y-84281500D01*
X150855287Y-84281500D01*
X150855288Y-84281500D01*
X151065244Y-84248246D01*
X151267413Y-84182558D01*
X151456817Y-84086051D01*
X151628792Y-83961104D01*
X151779104Y-83810792D01*
X151904051Y-83638817D01*
X151922641Y-83602331D01*
X151970613Y-83551537D01*
X152038433Y-83534741D01*
X152104569Y-83557277D01*
X152148021Y-83611991D01*
X152157125Y-83658671D01*
X152156658Y-84965507D01*
X152156655Y-84973691D01*
X152156633Y-84973774D01*
X152156633Y-85038197D01*
X152156633Y-85038242D01*
X152156606Y-85113173D01*
X152156632Y-85113574D01*
X152156632Y-85146985D01*
X152187174Y-85359429D01*
X152187178Y-85359445D01*
X152247641Y-85565371D01*
X152247644Y-85565379D01*
X152247645Y-85565380D01*
X152247645Y-85565381D01*
X152336805Y-85760614D01*
X152336808Y-85760621D01*
X152452851Y-85941189D01*
X152452854Y-85941192D01*
X152593404Y-86103397D01*
X152593406Y-86103399D01*
X152755611Y-86243949D01*
X152755614Y-86243952D01*
X152755616Y-86243953D01*
X152755618Y-86243955D01*
X152936183Y-86359996D01*
X153131424Y-86449159D01*
X153131428Y-86449160D01*
X153131432Y-86449162D01*
X153264373Y-86488195D01*
X153337367Y-86509628D01*
X153549819Y-86540172D01*
X153657138Y-86540171D01*
X153723030Y-86540171D01*
X157014061Y-86540171D01*
X157081100Y-86559856D01*
X157126855Y-86612660D01*
X157136799Y-86681818D01*
X157119600Y-86729266D01*
X157117224Y-86733118D01*
X157113187Y-86739663D01*
X157113186Y-86739666D01*
X157058001Y-86906203D01*
X157058001Y-86906204D01*
X157058000Y-86906204D01*
X157047500Y-87008983D01*
X157047500Y-88759001D01*
X157047501Y-88759018D01*
X157058000Y-88861796D01*
X157058001Y-88861799D01*
X157113185Y-89028331D01*
X157113187Y-89028336D01*
X157142495Y-89075851D01*
X157205288Y-89177656D01*
X157329344Y-89301712D01*
X157478666Y-89393814D01*
X157645203Y-89448999D01*
X157747991Y-89459500D01*
X159498008Y-89459499D01*
X159600797Y-89448999D01*
X159767334Y-89393814D01*
X159916656Y-89301712D01*
X160040712Y-89177656D01*
X160132814Y-89028334D01*
X160187999Y-88861797D01*
X160198500Y-88759009D01*
X160198499Y-88225155D01*
X168291000Y-88225155D01*
X168291000Y-88523000D01*
X169041000Y-88523000D01*
X169041000Y-87773000D01*
X168743155Y-87773000D01*
X168683627Y-87779401D01*
X168683620Y-87779403D01*
X168548913Y-87829645D01*
X168548906Y-87829649D01*
X168433812Y-87915809D01*
X168433809Y-87915812D01*
X168347649Y-88030906D01*
X168347645Y-88030913D01*
X168297403Y-88165620D01*
X168297401Y-88165627D01*
X168291000Y-88225155D01*
X160198499Y-88225155D01*
X160198499Y-87829649D01*
X160198499Y-87008998D01*
X160198498Y-87008981D01*
X160187999Y-86906203D01*
X160187998Y-86906200D01*
X160132814Y-86739666D01*
X160126399Y-86729266D01*
X160107960Y-86661875D01*
X160128883Y-86595212D01*
X160182525Y-86550442D01*
X160231939Y-86540171D01*
X163087125Y-86540171D01*
X163194444Y-86540173D01*
X163406897Y-86509629D01*
X163612842Y-86449161D01*
X163808084Y-86359999D01*
X163808091Y-86359995D01*
X163830585Y-86345538D01*
X163988649Y-86243957D01*
X164150862Y-86103400D01*
X164291419Y-85941187D01*
X164407461Y-85760622D01*
X164496623Y-85565380D01*
X164557091Y-85359435D01*
X164587635Y-85146982D01*
X164587633Y-85039663D01*
X164587632Y-85038601D01*
X164588119Y-83672764D01*
X164607827Y-83605735D01*
X164660648Y-83559999D01*
X164729810Y-83550080D01*
X164793355Y-83579128D01*
X164822603Y-83616515D01*
X164828757Y-83628592D01*
X164833969Y-83638821D01*
X164958916Y-83810795D01*
X165109227Y-83961106D01*
X165281201Y-84086053D01*
X165470604Y-84182558D01*
X165470606Y-84182559D01*
X165659173Y-84243827D01*
X165672772Y-84248246D01*
X165882726Y-84281500D01*
X165882727Y-84281500D01*
X167150295Y-84281500D01*
X167150296Y-84281500D01*
X167360250Y-84248246D01*
X167360253Y-84248245D01*
X167360254Y-84248245D01*
X167562415Y-84182559D01*
X167562415Y-84182558D01*
X167562418Y-84182558D01*
X167751821Y-84086053D01*
X167923795Y-83961106D01*
X168074106Y-83810795D01*
X168199053Y-83638821D01*
X168295558Y-83449418D01*
X168361246Y-83247250D01*
X168394500Y-83037296D01*
X168394500Y-82824724D01*
X168361246Y-82614770D01*
X168361245Y-82614766D01*
X168361245Y-82614765D01*
X168295559Y-82412604D01*
X168295557Y-82412601D01*
X168295551Y-82412588D01*
X168199053Y-82223199D01*
X168074106Y-82051225D01*
X167923795Y-81900914D01*
X167751821Y-81775967D01*
X167743039Y-81771492D01*
X167692244Y-81723518D01*
X167675449Y-81655697D01*
X167697986Y-81589563D01*
X167743040Y-81550523D01*
X167743056Y-81550515D01*
X167751817Y-81546051D01*
X167923792Y-81421104D01*
X168074104Y-81270792D01*
X168199051Y-81098817D01*
X168295558Y-80909413D01*
X168361246Y-80707244D01*
X168394500Y-80497288D01*
X168394500Y-80284716D01*
X168361246Y-80074760D01*
X168295558Y-79872591D01*
X168295558Y-79872590D01*
X168231918Y-79747691D01*
X168199051Y-79683187D01*
X168074104Y-79511212D01*
X167923792Y-79360900D01*
X167751817Y-79235953D01*
X167751816Y-79235952D01*
X167751814Y-79235951D01*
X167743053Y-79231487D01*
X167692258Y-79183512D01*
X167675463Y-79115691D01*
X167698001Y-79049556D01*
X167743057Y-79010517D01*
X167751821Y-79006052D01*
X167751823Y-79006050D01*
X167751826Y-79006049D01*
X167923788Y-78881111D01*
X167923786Y-78881111D01*
X167923795Y-78881106D01*
X168074106Y-78730795D01*
X168199052Y-78558821D01*
X168295558Y-78369418D01*
X168361246Y-78167250D01*
X168394500Y-77957295D01*
X168394500Y-77744723D01*
X168361246Y-77534768D01*
X168295558Y-77332600D01*
X168199052Y-77143197D01*
X168170976Y-77104554D01*
X168074111Y-76971229D01*
X168074107Y-76971224D01*
X167923793Y-76820910D01*
X167923788Y-76820906D01*
X167751822Y-76695966D01*
X167743038Y-76691490D01*
X167692243Y-76643514D01*
X167675450Y-76575693D01*
X167697990Y-76509558D01*
X167743044Y-76470521D01*
X167751817Y-76466051D01*
X167923792Y-76341104D01*
X168074104Y-76190792D01*
X168199051Y-76018817D01*
X168295558Y-75829413D01*
X168361246Y-75627244D01*
X168394500Y-75417288D01*
X168394500Y-75204716D01*
X168361246Y-74994760D01*
X168295558Y-74792591D01*
X168295558Y-74792590D01*
X168243294Y-74690018D01*
X168199051Y-74603187D01*
X168074104Y-74431212D01*
X167923792Y-74280900D01*
X167751817Y-74155953D01*
X167751816Y-74155952D01*
X167751814Y-74155951D01*
X167751596Y-74155840D01*
X167751526Y-74155774D01*
X167747665Y-74153408D01*
X167748162Y-74152596D01*
X167700801Y-74107865D01*
X167684006Y-74040044D01*
X167706544Y-73973910D01*
X167735005Y-73945039D01*
X167903950Y-73822294D01*
X168055600Y-73670644D01*
X168181659Y-73497139D01*
X168279024Y-73306050D01*
X168345297Y-73102082D01*
X168378847Y-72890257D01*
X168378847Y-72675793D01*
X168345297Y-72463968D01*
X168345296Y-72463964D01*
X168345296Y-72463963D01*
X168279025Y-72260002D01*
X168230274Y-72164324D01*
X168181659Y-72068911D01*
X168055600Y-71895406D01*
X167903950Y-71743756D01*
X167730445Y-71617697D01*
X167730441Y-71617694D01*
X167730097Y-71617519D01*
X167729988Y-71617416D01*
X167726293Y-71615152D01*
X167726768Y-71614375D01*
X167679304Y-71569541D01*
X167662513Y-71501719D01*
X167685055Y-71435586D01*
X167730108Y-71396551D01*
X167751557Y-71385623D01*
X167923468Y-71260720D01*
X167923469Y-71260720D01*
X168073720Y-71110469D01*
X168073720Y-71110468D01*
X168198623Y-70938556D01*
X168295095Y-70749220D01*
X168360757Y-70547130D01*
X168371231Y-70481005D01*
X166640506Y-70481005D01*
X166573467Y-70461320D01*
X166527712Y-70408516D01*
X166516506Y-70357005D01*
X166516506Y-70105005D01*
X166536191Y-70037966D01*
X166588995Y-69992211D01*
X166640506Y-69981005D01*
X168371231Y-69981005D01*
X168360757Y-69914879D01*
X168295095Y-69712789D01*
X168198623Y-69523453D01*
X168073720Y-69351541D01*
X168073720Y-69351540D01*
X167960047Y-69237867D01*
X167926562Y-69176544D01*
X167931546Y-69106852D01*
X167973418Y-69050919D01*
X168004392Y-69034005D01*
X168115646Y-68992511D01*
X168136326Y-68984798D01*
X168136326Y-68984797D01*
X168136331Y-68984796D01*
X168251546Y-68898546D01*
X168337796Y-68783331D01*
X168388091Y-68648483D01*
X168394500Y-68588873D01*
X168394499Y-66793138D01*
X168388091Y-66733527D01*
X168385835Y-66727479D01*
X168337797Y-66598681D01*
X168337793Y-66598674D01*
X168251547Y-66483465D01*
X168251544Y-66483462D01*
X168136335Y-66397216D01*
X168136328Y-66397212D01*
X168001482Y-66346918D01*
X168001483Y-66346918D01*
X167941883Y-66340511D01*
X167941881Y-66340510D01*
X167941873Y-66340510D01*
X167941864Y-66340510D01*
X165091133Y-66340510D01*
X165091127Y-66340511D01*
X165031520Y-66346918D01*
X164896675Y-66397212D01*
X164896668Y-66397216D01*
X164781459Y-66483462D01*
X164702893Y-66588411D01*
X164646958Y-66630282D01*
X164577267Y-66635265D01*
X164515944Y-66601779D01*
X164490834Y-66565613D01*
X164413856Y-66397054D01*
X164381635Y-66346918D01*
X164297815Y-66216491D01*
X164157258Y-66054279D01*
X163995046Y-65913722D01*
X163814488Y-65797684D01*
X163814472Y-65797675D01*
X163619247Y-65708520D01*
X163619235Y-65708515D01*
X163413305Y-65648050D01*
X163413301Y-65648049D01*
X163226655Y-65621214D01*
X163200852Y-65617504D01*
X163159426Y-65617504D01*
X153729426Y-65617504D01*
X153663534Y-65617504D01*
X153556216Y-65617504D01*
X153343766Y-65648049D01*
X153343762Y-65648050D01*
X153137832Y-65708515D01*
X153137820Y-65708520D01*
X152942595Y-65797675D01*
X152942579Y-65797684D01*
X152762021Y-65913722D01*
X152599809Y-66054279D01*
X152459252Y-66216491D01*
X152343214Y-66397049D01*
X152343205Y-66397065D01*
X152259012Y-66581424D01*
X152213257Y-66634228D01*
X152146218Y-66653913D01*
X152079179Y-66634228D01*
X152046951Y-66604224D01*
X152042796Y-66598674D01*
X152042796Y-66598673D01*
X151956546Y-66483458D01*
X151933709Y-66466362D01*
X151841335Y-66397210D01*
X151841328Y-66397206D01*
X151706482Y-66346912D01*
X151706483Y-66346912D01*
X151646883Y-66340505D01*
X151646881Y-66340504D01*
X151646873Y-66340504D01*
X151646864Y-66340504D01*
X148796129Y-66340504D01*
X148796123Y-66340505D01*
X148736516Y-66346912D01*
X148601671Y-66397206D01*
X148601664Y-66397210D01*
X148486455Y-66483456D01*
X148486452Y-66483459D01*
X148400206Y-66598668D01*
X148400202Y-66598675D01*
X148349908Y-66733521D01*
X148343501Y-66793120D01*
X148343500Y-66793139D01*
X148343500Y-68588870D01*
X148343501Y-68588876D01*
X148349908Y-68648483D01*
X148400202Y-68783328D01*
X148400206Y-68783335D01*
X148486452Y-68898544D01*
X148486455Y-68898547D01*
X148601664Y-68984793D01*
X148601673Y-68984798D01*
X148656946Y-69005413D01*
X148733083Y-69033810D01*
X148789017Y-69075680D01*
X148813435Y-69141145D01*
X148798584Y-69209418D01*
X148777433Y-69237673D01*
X148663895Y-69351211D01*
X148538949Y-69523184D01*
X148442441Y-69712588D01*
X148442440Y-69712591D01*
X148376754Y-69914756D01*
X148357240Y-70037966D01*
X148343500Y-70124714D01*
X148343500Y-70337288D01*
X148357233Y-70423993D01*
X148376754Y-70547245D01*
X148442440Y-70749410D01*
X148442441Y-70749413D01*
X148523956Y-70909392D01*
X148538949Y-70938817D01*
X148663896Y-71110792D01*
X148814208Y-71261104D01*
X148986183Y-71386051D01*
X148986185Y-71386052D01*
X148994947Y-71390517D01*
X149045742Y-71438492D01*
X149062537Y-71506313D01*
X149039999Y-71572448D01*
X148994947Y-71611485D01*
X148986185Y-71615949D01*
X148814205Y-71740900D01*
X148663898Y-71891207D01*
X148538949Y-72063184D01*
X148442441Y-72252588D01*
X148442440Y-72252591D01*
X148376754Y-72454756D01*
X148343500Y-72664714D01*
X148343500Y-72877287D01*
X148376754Y-73087245D01*
X148442440Y-73289410D01*
X148442441Y-73289413D01*
X148533318Y-73467765D01*
X148538949Y-73478817D01*
X148663896Y-73650792D01*
X148814208Y-73801104D01*
X148986179Y-73926048D01*
X148986186Y-73926053D01*
X148987534Y-73926879D01*
X148987939Y-73927327D01*
X148990125Y-73928915D01*
X148989791Y-73929373D01*
X149034415Y-73978685D01*
X149045845Y-74047614D01*
X149018195Y-74111780D01*
X148979055Y-74143096D01*
X148958512Y-74153563D01*
X148788647Y-74276977D01*
X148788642Y-74276981D01*
X148640163Y-74425460D01*
X148640159Y-74425465D01*
X148516746Y-74595330D01*
X148421415Y-74782424D01*
X148421414Y-74782427D01*
X148356530Y-74982123D01*
X148323682Y-75189517D01*
X146042500Y-75189517D01*
X146042500Y-65958864D01*
X146042816Y-65950019D01*
X146053337Y-65802900D01*
X146055855Y-65785387D01*
X146097681Y-65593120D01*
X146102658Y-65576169D01*
X146171430Y-65391783D01*
X146178765Y-65375721D01*
X146273070Y-65203013D01*
X146282630Y-65188140D01*
X146400545Y-65030623D01*
X146412119Y-65017266D01*
X146551262Y-64878123D01*
X146564616Y-64866551D01*
X146722151Y-64748621D01*
X146737012Y-64739071D01*
X146909721Y-64644765D01*
X146925783Y-64637430D01*
X147110169Y-64568658D01*
X147127120Y-64563681D01*
X147319389Y-64521854D01*
X147336895Y-64519337D01*
X147484019Y-64508815D01*
X147492864Y-64508500D01*
X168991136Y-64508500D01*
X168999980Y-64508815D01*
G37*
%TD.AperFunction*%
%TD*%
M02*
