%TF.GenerationSoftware,KiCad,Pcbnew,9.0.3*%
%TF.CreationDate,2026-02-14T21:05:33-06:00*%
%TF.ProjectId,SimplifiedOpenLeadVoltmeter,53696d70-6c69-4666-9965-644f70656e4c,rev?*%
%TF.SameCoordinates,Original*%
%TF.FileFunction,Legend,Top*%
%TF.FilePolarity,Positive*%
%FSLAX46Y46*%
G04 Gerber Fmt 4.6, Leading zero omitted, Abs format (unit mm)*
G04 Created by KiCad (PCBNEW 9.0.3) date 2026-02-14 21:05:33*
%MOMM*%
%LPD*%
G01*
G04 APERTURE LIST*
%ADD10C,0.100000*%
%ADD11C,0.150000*%
%ADD12C,0.120000*%
G04 APERTURE END LIST*
D10*
X164049419Y-67278094D02*
X164858942Y-67278094D01*
X164858942Y-67278094D02*
X164954180Y-67230475D01*
X164954180Y-67230475D02*
X165001800Y-67182856D01*
X165001800Y-67182856D02*
X165049419Y-67087618D01*
X165049419Y-67087618D02*
X165049419Y-66897142D01*
X165049419Y-66897142D02*
X165001800Y-66801904D01*
X165001800Y-66801904D02*
X164954180Y-66754285D01*
X164954180Y-66754285D02*
X164858942Y-66706666D01*
X164858942Y-66706666D02*
X164049419Y-66706666D01*
X165049419Y-65706666D02*
X165049419Y-66278094D01*
X165049419Y-65992380D02*
X164049419Y-65992380D01*
X164049419Y-65992380D02*
X164192276Y-66087618D01*
X164192276Y-66087618D02*
X164287514Y-66182856D01*
X164287514Y-66182856D02*
X164335133Y-66278094D01*
X164382752Y-64849523D02*
X165049419Y-64849523D01*
X164001800Y-65087618D02*
X164716085Y-65325713D01*
X164716085Y-65325713D02*
X164716085Y-64706666D01*
D11*
X152725333Y-75130819D02*
X152392000Y-74654628D01*
X152153905Y-75130819D02*
X152153905Y-74130819D01*
X152153905Y-74130819D02*
X152534857Y-74130819D01*
X152534857Y-74130819D02*
X152630095Y-74178438D01*
X152630095Y-74178438D02*
X152677714Y-74226057D01*
X152677714Y-74226057D02*
X152725333Y-74321295D01*
X152725333Y-74321295D02*
X152725333Y-74464152D01*
X152725333Y-74464152D02*
X152677714Y-74559390D01*
X152677714Y-74559390D02*
X152630095Y-74607009D01*
X152630095Y-74607009D02*
X152534857Y-74654628D01*
X152534857Y-74654628D02*
X152153905Y-74654628D01*
X153677714Y-75130819D02*
X153106286Y-75130819D01*
X153392000Y-75130819D02*
X153392000Y-74130819D01*
X153392000Y-74130819D02*
X153296762Y-74273676D01*
X153296762Y-74273676D02*
X153201524Y-74368914D01*
X153201524Y-74368914D02*
X153106286Y-74416533D01*
X152741333Y-71574819D02*
X152408000Y-71098628D01*
X152169905Y-71574819D02*
X152169905Y-70574819D01*
X152169905Y-70574819D02*
X152550857Y-70574819D01*
X152550857Y-70574819D02*
X152646095Y-70622438D01*
X152646095Y-70622438D02*
X152693714Y-70670057D01*
X152693714Y-70670057D02*
X152741333Y-70765295D01*
X152741333Y-70765295D02*
X152741333Y-70908152D01*
X152741333Y-70908152D02*
X152693714Y-71003390D01*
X152693714Y-71003390D02*
X152646095Y-71051009D01*
X152646095Y-71051009D02*
X152550857Y-71098628D01*
X152550857Y-71098628D02*
X152169905Y-71098628D01*
X153122286Y-70670057D02*
X153169905Y-70622438D01*
X153169905Y-70622438D02*
X153265143Y-70574819D01*
X153265143Y-70574819D02*
X153503238Y-70574819D01*
X153503238Y-70574819D02*
X153598476Y-70622438D01*
X153598476Y-70622438D02*
X153646095Y-70670057D01*
X153646095Y-70670057D02*
X153693714Y-70765295D01*
X153693714Y-70765295D02*
X153693714Y-70860533D01*
X153693714Y-70860533D02*
X153646095Y-71003390D01*
X153646095Y-71003390D02*
X153074667Y-71574819D01*
X153074667Y-71574819D02*
X153693714Y-71574819D01*
X158750095Y-68190819D02*
X158750095Y-69000342D01*
X158750095Y-69000342D02*
X158797714Y-69095580D01*
X158797714Y-69095580D02*
X158845333Y-69143200D01*
X158845333Y-69143200D02*
X158940571Y-69190819D01*
X158940571Y-69190819D02*
X159131047Y-69190819D01*
X159131047Y-69190819D02*
X159226285Y-69143200D01*
X159226285Y-69143200D02*
X159273904Y-69095580D01*
X159273904Y-69095580D02*
X159321523Y-69000342D01*
X159321523Y-69000342D02*
X159321523Y-68190819D01*
X160321523Y-69190819D02*
X159750095Y-69190819D01*
X160035809Y-69190819D02*
X160035809Y-68190819D01*
X160035809Y-68190819D02*
X159940571Y-68333676D01*
X159940571Y-68333676D02*
X159845333Y-68428914D01*
X159845333Y-68428914D02*
X159750095Y-68476533D01*
X148002666Y-76002819D02*
X148002666Y-76717104D01*
X148002666Y-76717104D02*
X147955047Y-76859961D01*
X147955047Y-76859961D02*
X147859809Y-76955200D01*
X147859809Y-76955200D02*
X147716952Y-77002819D01*
X147716952Y-77002819D02*
X147621714Y-77002819D01*
X148431238Y-76098057D02*
X148478857Y-76050438D01*
X148478857Y-76050438D02*
X148574095Y-76002819D01*
X148574095Y-76002819D02*
X148812190Y-76002819D01*
X148812190Y-76002819D02*
X148907428Y-76050438D01*
X148907428Y-76050438D02*
X148955047Y-76098057D01*
X148955047Y-76098057D02*
X149002666Y-76193295D01*
X149002666Y-76193295D02*
X149002666Y-76288533D01*
X149002666Y-76288533D02*
X148955047Y-76431390D01*
X148955047Y-76431390D02*
X148383619Y-77002819D01*
X148383619Y-77002819D02*
X149002666Y-77002819D01*
X168322666Y-96642819D02*
X168322666Y-97357104D01*
X168322666Y-97357104D02*
X168275047Y-97499961D01*
X168275047Y-97499961D02*
X168179809Y-97595200D01*
X168179809Y-97595200D02*
X168036952Y-97642819D01*
X168036952Y-97642819D02*
X167941714Y-97642819D01*
X169275047Y-96642819D02*
X168798857Y-96642819D01*
X168798857Y-96642819D02*
X168751238Y-97119009D01*
X168751238Y-97119009D02*
X168798857Y-97071390D01*
X168798857Y-97071390D02*
X168894095Y-97023771D01*
X168894095Y-97023771D02*
X169132190Y-97023771D01*
X169132190Y-97023771D02*
X169227428Y-97071390D01*
X169227428Y-97071390D02*
X169275047Y-97119009D01*
X169275047Y-97119009D02*
X169322666Y-97214247D01*
X169322666Y-97214247D02*
X169322666Y-97452342D01*
X169322666Y-97452342D02*
X169275047Y-97547580D01*
X169275047Y-97547580D02*
X169227428Y-97595200D01*
X169227428Y-97595200D02*
X169132190Y-97642819D01*
X169132190Y-97642819D02*
X168894095Y-97642819D01*
X168894095Y-97642819D02*
X168798857Y-97595200D01*
X168798857Y-97595200D02*
X168751238Y-97547580D01*
X166965333Y-77670819D02*
X166632000Y-77194628D01*
X166393905Y-77670819D02*
X166393905Y-76670819D01*
X166393905Y-76670819D02*
X166774857Y-76670819D01*
X166774857Y-76670819D02*
X166870095Y-76718438D01*
X166870095Y-76718438D02*
X166917714Y-76766057D01*
X166917714Y-76766057D02*
X166965333Y-76861295D01*
X166965333Y-76861295D02*
X166965333Y-77004152D01*
X166965333Y-77004152D02*
X166917714Y-77099390D01*
X166917714Y-77099390D02*
X166870095Y-77147009D01*
X166870095Y-77147009D02*
X166774857Y-77194628D01*
X166774857Y-77194628D02*
X166393905Y-77194628D01*
X167298667Y-76670819D02*
X167965333Y-76670819D01*
X167965333Y-76670819D02*
X167536762Y-77670819D01*
X166981333Y-74114819D02*
X166648000Y-73638628D01*
X166409905Y-74114819D02*
X166409905Y-73114819D01*
X166409905Y-73114819D02*
X166790857Y-73114819D01*
X166790857Y-73114819D02*
X166886095Y-73162438D01*
X166886095Y-73162438D02*
X166933714Y-73210057D01*
X166933714Y-73210057D02*
X166981333Y-73305295D01*
X166981333Y-73305295D02*
X166981333Y-73448152D01*
X166981333Y-73448152D02*
X166933714Y-73543390D01*
X166933714Y-73543390D02*
X166886095Y-73591009D01*
X166886095Y-73591009D02*
X166790857Y-73638628D01*
X166790857Y-73638628D02*
X166409905Y-73638628D01*
X167886095Y-73114819D02*
X167409905Y-73114819D01*
X167409905Y-73114819D02*
X167362286Y-73591009D01*
X167362286Y-73591009D02*
X167409905Y-73543390D01*
X167409905Y-73543390D02*
X167505143Y-73495771D01*
X167505143Y-73495771D02*
X167743238Y-73495771D01*
X167743238Y-73495771D02*
X167838476Y-73543390D01*
X167838476Y-73543390D02*
X167886095Y-73591009D01*
X167886095Y-73591009D02*
X167933714Y-73686247D01*
X167933714Y-73686247D02*
X167933714Y-73924342D01*
X167933714Y-73924342D02*
X167886095Y-74019580D01*
X167886095Y-74019580D02*
X167838476Y-74067200D01*
X167838476Y-74067200D02*
X167743238Y-74114819D01*
X167743238Y-74114819D02*
X167505143Y-74114819D01*
X167505143Y-74114819D02*
X167409905Y-74067200D01*
X167409905Y-74067200D02*
X167362286Y-74019580D01*
X166838333Y-70558819D02*
X166505000Y-70082628D01*
X166266905Y-70558819D02*
X166266905Y-69558819D01*
X166266905Y-69558819D02*
X166647857Y-69558819D01*
X166647857Y-69558819D02*
X166743095Y-69606438D01*
X166743095Y-69606438D02*
X166790714Y-69654057D01*
X166790714Y-69654057D02*
X166838333Y-69749295D01*
X166838333Y-69749295D02*
X166838333Y-69892152D01*
X166838333Y-69892152D02*
X166790714Y-69987390D01*
X166790714Y-69987390D02*
X166743095Y-70035009D01*
X166743095Y-70035009D02*
X166647857Y-70082628D01*
X166647857Y-70082628D02*
X166266905Y-70082628D01*
X167695476Y-69558819D02*
X167505000Y-69558819D01*
X167505000Y-69558819D02*
X167409762Y-69606438D01*
X167409762Y-69606438D02*
X167362143Y-69654057D01*
X167362143Y-69654057D02*
X167266905Y-69796914D01*
X167266905Y-69796914D02*
X167219286Y-69987390D01*
X167219286Y-69987390D02*
X167219286Y-70368342D01*
X167219286Y-70368342D02*
X167266905Y-70463580D01*
X167266905Y-70463580D02*
X167314524Y-70511200D01*
X167314524Y-70511200D02*
X167409762Y-70558819D01*
X167409762Y-70558819D02*
X167600238Y-70558819D01*
X167600238Y-70558819D02*
X167695476Y-70511200D01*
X167695476Y-70511200D02*
X167743095Y-70463580D01*
X167743095Y-70463580D02*
X167790714Y-70368342D01*
X167790714Y-70368342D02*
X167790714Y-70130247D01*
X167790714Y-70130247D02*
X167743095Y-70035009D01*
X167743095Y-70035009D02*
X167695476Y-69987390D01*
X167695476Y-69987390D02*
X167600238Y-69939771D01*
X167600238Y-69939771D02*
X167409762Y-69939771D01*
X167409762Y-69939771D02*
X167314524Y-69987390D01*
X167314524Y-69987390D02*
X167266905Y-70035009D01*
X167266905Y-70035009D02*
X167219286Y-70130247D01*
X168618819Y-92193904D02*
X168618819Y-91622476D01*
X169618819Y-91908190D02*
X168618819Y-91908190D01*
X169618819Y-91289142D02*
X168618819Y-91289142D01*
X168618819Y-91289142D02*
X168618819Y-90908190D01*
X168618819Y-90908190D02*
X168666438Y-90812952D01*
X168666438Y-90812952D02*
X168714057Y-90765333D01*
X168714057Y-90765333D02*
X168809295Y-90717714D01*
X168809295Y-90717714D02*
X168952152Y-90717714D01*
X168952152Y-90717714D02*
X169047390Y-90765333D01*
X169047390Y-90765333D02*
X169095009Y-90812952D01*
X169095009Y-90812952D02*
X169142628Y-90908190D01*
X169142628Y-90908190D02*
X169142628Y-91289142D01*
X168714057Y-90336761D02*
X168666438Y-90289142D01*
X168666438Y-90289142D02*
X168618819Y-90193904D01*
X168618819Y-90193904D02*
X168618819Y-89955809D01*
X168618819Y-89955809D02*
X168666438Y-89860571D01*
X168666438Y-89860571D02*
X168714057Y-89812952D01*
X168714057Y-89812952D02*
X168809295Y-89765333D01*
X168809295Y-89765333D02*
X168904533Y-89765333D01*
X168904533Y-89765333D02*
X169047390Y-89812952D01*
X169047390Y-89812952D02*
X169618819Y-90384380D01*
X169618819Y-90384380D02*
X169618819Y-89765333D01*
X166299595Y-83284819D02*
X166871023Y-83284819D01*
X166585309Y-84284819D02*
X166585309Y-83284819D01*
X167204357Y-84284819D02*
X167204357Y-83284819D01*
X167204357Y-83284819D02*
X167585309Y-83284819D01*
X167585309Y-83284819D02*
X167680547Y-83332438D01*
X167680547Y-83332438D02*
X167728166Y-83380057D01*
X167728166Y-83380057D02*
X167775785Y-83475295D01*
X167775785Y-83475295D02*
X167775785Y-83618152D01*
X167775785Y-83618152D02*
X167728166Y-83713390D01*
X167728166Y-83713390D02*
X167680547Y-83761009D01*
X167680547Y-83761009D02*
X167585309Y-83808628D01*
X167585309Y-83808628D02*
X167204357Y-83808628D01*
X168728166Y-84284819D02*
X168156738Y-84284819D01*
X168442452Y-84284819D02*
X168442452Y-83284819D01*
X168442452Y-83284819D02*
X168347214Y-83427676D01*
X168347214Y-83427676D02*
X168251976Y-83522914D01*
X168251976Y-83522914D02*
X168156738Y-83570533D01*
X153701905Y-83782819D02*
X153701905Y-84592342D01*
X153701905Y-84592342D02*
X153749524Y-84687580D01*
X153749524Y-84687580D02*
X153797143Y-84735200D01*
X153797143Y-84735200D02*
X153892381Y-84782819D01*
X153892381Y-84782819D02*
X154082857Y-84782819D01*
X154082857Y-84782819D02*
X154178095Y-84735200D01*
X154178095Y-84735200D02*
X154225714Y-84687580D01*
X154225714Y-84687580D02*
X154273333Y-84592342D01*
X154273333Y-84592342D02*
X154273333Y-83782819D01*
X155273333Y-84782819D02*
X154701905Y-84782819D01*
X154987619Y-84782819D02*
X154987619Y-83782819D01*
X154987619Y-83782819D02*
X154892381Y-83925676D01*
X154892381Y-83925676D02*
X154797143Y-84020914D01*
X154797143Y-84020914D02*
X154701905Y-84068533D01*
X155892381Y-83782819D02*
X155987619Y-83782819D01*
X155987619Y-83782819D02*
X156082857Y-83830438D01*
X156082857Y-83830438D02*
X156130476Y-83878057D01*
X156130476Y-83878057D02*
X156178095Y-83973295D01*
X156178095Y-83973295D02*
X156225714Y-84163771D01*
X156225714Y-84163771D02*
X156225714Y-84401866D01*
X156225714Y-84401866D02*
X156178095Y-84592342D01*
X156178095Y-84592342D02*
X156130476Y-84687580D01*
X156130476Y-84687580D02*
X156082857Y-84735200D01*
X156082857Y-84735200D02*
X155987619Y-84782819D01*
X155987619Y-84782819D02*
X155892381Y-84782819D01*
X155892381Y-84782819D02*
X155797143Y-84735200D01*
X155797143Y-84735200D02*
X155749524Y-84687580D01*
X155749524Y-84687580D02*
X155701905Y-84592342D01*
X155701905Y-84592342D02*
X155654286Y-84401866D01*
X155654286Y-84401866D02*
X155654286Y-84163771D01*
X155654286Y-84163771D02*
X155701905Y-83973295D01*
X155701905Y-83973295D02*
X155749524Y-83878057D01*
X155749524Y-83878057D02*
X155797143Y-83830438D01*
X155797143Y-83830438D02*
X155892381Y-83782819D01*
X157774642Y-90939580D02*
X157727023Y-90987200D01*
X157727023Y-90987200D02*
X157584166Y-91034819D01*
X157584166Y-91034819D02*
X157488928Y-91034819D01*
X157488928Y-91034819D02*
X157346071Y-90987200D01*
X157346071Y-90987200D02*
X157250833Y-90891961D01*
X157250833Y-90891961D02*
X157203214Y-90796723D01*
X157203214Y-90796723D02*
X157155595Y-90606247D01*
X157155595Y-90606247D02*
X157155595Y-90463390D01*
X157155595Y-90463390D02*
X157203214Y-90272914D01*
X157203214Y-90272914D02*
X157250833Y-90177676D01*
X157250833Y-90177676D02*
X157346071Y-90082438D01*
X157346071Y-90082438D02*
X157488928Y-90034819D01*
X157488928Y-90034819D02*
X157584166Y-90034819D01*
X157584166Y-90034819D02*
X157727023Y-90082438D01*
X157727023Y-90082438D02*
X157774642Y-90130057D01*
X158727023Y-91034819D02*
X158155595Y-91034819D01*
X158441309Y-91034819D02*
X158441309Y-90034819D01*
X158441309Y-90034819D02*
X158346071Y-90177676D01*
X158346071Y-90177676D02*
X158250833Y-90272914D01*
X158250833Y-90272914D02*
X158155595Y-90320533D01*
X159060357Y-90034819D02*
X159727023Y-90034819D01*
X159727023Y-90034819D02*
X159298452Y-91034819D01*
X163984319Y-99988094D02*
X162984319Y-99988094D01*
X162984319Y-99988094D02*
X162984319Y-99749999D01*
X162984319Y-99749999D02*
X163031938Y-99607142D01*
X163031938Y-99607142D02*
X163127176Y-99511904D01*
X163127176Y-99511904D02*
X163222414Y-99464285D01*
X163222414Y-99464285D02*
X163412890Y-99416666D01*
X163412890Y-99416666D02*
X163555747Y-99416666D01*
X163555747Y-99416666D02*
X163746223Y-99464285D01*
X163746223Y-99464285D02*
X163841461Y-99511904D01*
X163841461Y-99511904D02*
X163936700Y-99607142D01*
X163936700Y-99607142D02*
X163984319Y-99749999D01*
X163984319Y-99749999D02*
X163984319Y-99988094D01*
X163317652Y-98559523D02*
X163984319Y-98559523D01*
X162936700Y-98797618D02*
X163650985Y-99035713D01*
X163650985Y-99035713D02*
X163650985Y-98416666D01*
X150838819Y-104441523D02*
X151553104Y-104441523D01*
X151553104Y-104441523D02*
X151695961Y-104489142D01*
X151695961Y-104489142D02*
X151791200Y-104584380D01*
X151791200Y-104584380D02*
X151838819Y-104727237D01*
X151838819Y-104727237D02*
X151838819Y-104822475D01*
X151838819Y-103441523D02*
X151838819Y-104012951D01*
X151838819Y-103727237D02*
X150838819Y-103727237D01*
X150838819Y-103727237D02*
X150981676Y-103822475D01*
X150981676Y-103822475D02*
X151076914Y-103917713D01*
X151076914Y-103917713D02*
X151124533Y-104012951D01*
X151172152Y-102584380D02*
X151838819Y-102584380D01*
X150791200Y-102822475D02*
X151505485Y-103060570D01*
X151505485Y-103060570D02*
X151505485Y-102441523D01*
X155909405Y-76699819D02*
X155909405Y-77509342D01*
X155909405Y-77509342D02*
X155957024Y-77604580D01*
X155957024Y-77604580D02*
X156004643Y-77652200D01*
X156004643Y-77652200D02*
X156099881Y-77699819D01*
X156099881Y-77699819D02*
X156290357Y-77699819D01*
X156290357Y-77699819D02*
X156385595Y-77652200D01*
X156385595Y-77652200D02*
X156433214Y-77604580D01*
X156433214Y-77604580D02*
X156480833Y-77509342D01*
X156480833Y-77509342D02*
X156480833Y-76699819D01*
X157480833Y-77699819D02*
X156909405Y-77699819D01*
X157195119Y-77699819D02*
X157195119Y-76699819D01*
X157195119Y-76699819D02*
X157099881Y-76842676D01*
X157099881Y-76842676D02*
X157004643Y-76937914D01*
X157004643Y-76937914D02*
X156909405Y-76985533D01*
X157814167Y-76699819D02*
X158433214Y-76699819D01*
X158433214Y-76699819D02*
X158099881Y-77080771D01*
X158099881Y-77080771D02*
X158242738Y-77080771D01*
X158242738Y-77080771D02*
X158337976Y-77128390D01*
X158337976Y-77128390D02*
X158385595Y-77176009D01*
X158385595Y-77176009D02*
X158433214Y-77271247D01*
X158433214Y-77271247D02*
X158433214Y-77509342D01*
X158433214Y-77509342D02*
X158385595Y-77604580D01*
X158385595Y-77604580D02*
X158337976Y-77652200D01*
X158337976Y-77652200D02*
X158242738Y-77699819D01*
X158242738Y-77699819D02*
X157957024Y-77699819D01*
X157957024Y-77699819D02*
X157861786Y-77652200D01*
X157861786Y-77652200D02*
X157814167Y-77604580D01*
X167524319Y-89595904D02*
X168333842Y-89595904D01*
X168333842Y-89595904D02*
X168429080Y-89548285D01*
X168429080Y-89548285D02*
X168476700Y-89500666D01*
X168476700Y-89500666D02*
X168524319Y-89405428D01*
X168524319Y-89405428D02*
X168524319Y-89214952D01*
X168524319Y-89214952D02*
X168476700Y-89119714D01*
X168476700Y-89119714D02*
X168429080Y-89072095D01*
X168429080Y-89072095D02*
X168333842Y-89024476D01*
X168333842Y-89024476D02*
X167524319Y-89024476D01*
X167524319Y-88643523D02*
X167524319Y-88024476D01*
X167524319Y-88024476D02*
X167905271Y-88357809D01*
X167905271Y-88357809D02*
X167905271Y-88214952D01*
X167905271Y-88214952D02*
X167952890Y-88119714D01*
X167952890Y-88119714D02*
X168000509Y-88072095D01*
X168000509Y-88072095D02*
X168095747Y-88024476D01*
X168095747Y-88024476D02*
X168333842Y-88024476D01*
X168333842Y-88024476D02*
X168429080Y-88072095D01*
X168429080Y-88072095D02*
X168476700Y-88119714D01*
X168476700Y-88119714D02*
X168524319Y-88214952D01*
X168524319Y-88214952D02*
X168524319Y-88500666D01*
X168524319Y-88500666D02*
X168476700Y-88595904D01*
X168476700Y-88595904D02*
X168429080Y-88643523D01*
X153744819Y-89558857D02*
X153268628Y-89892190D01*
X153744819Y-90130285D02*
X152744819Y-90130285D01*
X152744819Y-90130285D02*
X152744819Y-89749333D01*
X152744819Y-89749333D02*
X152792438Y-89654095D01*
X152792438Y-89654095D02*
X152840057Y-89606476D01*
X152840057Y-89606476D02*
X152935295Y-89558857D01*
X152935295Y-89558857D02*
X153078152Y-89558857D01*
X153078152Y-89558857D02*
X153173390Y-89606476D01*
X153173390Y-89606476D02*
X153221009Y-89654095D01*
X153221009Y-89654095D02*
X153268628Y-89749333D01*
X153268628Y-89749333D02*
X153268628Y-90130285D01*
X152840057Y-89177904D02*
X152792438Y-89130285D01*
X152792438Y-89130285D02*
X152744819Y-89035047D01*
X152744819Y-89035047D02*
X152744819Y-88796952D01*
X152744819Y-88796952D02*
X152792438Y-88701714D01*
X152792438Y-88701714D02*
X152840057Y-88654095D01*
X152840057Y-88654095D02*
X152935295Y-88606476D01*
X152935295Y-88606476D02*
X153030533Y-88606476D01*
X153030533Y-88606476D02*
X153173390Y-88654095D01*
X153173390Y-88654095D02*
X153744819Y-89225523D01*
X153744819Y-89225523D02*
X153744819Y-88606476D01*
X152744819Y-88273142D02*
X152744819Y-87606476D01*
X152744819Y-87606476D02*
X153744819Y-88035047D01*
X160314642Y-93926819D02*
X159981309Y-93450628D01*
X159743214Y-93926819D02*
X159743214Y-92926819D01*
X159743214Y-92926819D02*
X160124166Y-92926819D01*
X160124166Y-92926819D02*
X160219404Y-92974438D01*
X160219404Y-92974438D02*
X160267023Y-93022057D01*
X160267023Y-93022057D02*
X160314642Y-93117295D01*
X160314642Y-93117295D02*
X160314642Y-93260152D01*
X160314642Y-93260152D02*
X160267023Y-93355390D01*
X160267023Y-93355390D02*
X160219404Y-93403009D01*
X160219404Y-93403009D02*
X160124166Y-93450628D01*
X160124166Y-93450628D02*
X159743214Y-93450628D01*
X160695595Y-93022057D02*
X160743214Y-92974438D01*
X160743214Y-92974438D02*
X160838452Y-92926819D01*
X160838452Y-92926819D02*
X161076547Y-92926819D01*
X161076547Y-92926819D02*
X161171785Y-92974438D01*
X161171785Y-92974438D02*
X161219404Y-93022057D01*
X161219404Y-93022057D02*
X161267023Y-93117295D01*
X161267023Y-93117295D02*
X161267023Y-93212533D01*
X161267023Y-93212533D02*
X161219404Y-93355390D01*
X161219404Y-93355390D02*
X160647976Y-93926819D01*
X160647976Y-93926819D02*
X161267023Y-93926819D01*
X162124166Y-93260152D02*
X162124166Y-93926819D01*
X161886071Y-92879200D02*
X161647976Y-93593485D01*
X161647976Y-93593485D02*
X162267023Y-93593485D01*
X159762319Y-99144857D02*
X159286128Y-99478190D01*
X159762319Y-99716285D02*
X158762319Y-99716285D01*
X158762319Y-99716285D02*
X158762319Y-99335333D01*
X158762319Y-99335333D02*
X158809938Y-99240095D01*
X158809938Y-99240095D02*
X158857557Y-99192476D01*
X158857557Y-99192476D02*
X158952795Y-99144857D01*
X158952795Y-99144857D02*
X159095652Y-99144857D01*
X159095652Y-99144857D02*
X159190890Y-99192476D01*
X159190890Y-99192476D02*
X159238509Y-99240095D01*
X159238509Y-99240095D02*
X159286128Y-99335333D01*
X159286128Y-99335333D02*
X159286128Y-99716285D01*
X159762319Y-98192476D02*
X159762319Y-98763904D01*
X159762319Y-98478190D02*
X158762319Y-98478190D01*
X158762319Y-98478190D02*
X158905176Y-98573428D01*
X158905176Y-98573428D02*
X159000414Y-98668666D01*
X159000414Y-98668666D02*
X159048033Y-98763904D01*
X159190890Y-97621047D02*
X159143271Y-97716285D01*
X159143271Y-97716285D02*
X159095652Y-97763904D01*
X159095652Y-97763904D02*
X159000414Y-97811523D01*
X159000414Y-97811523D02*
X158952795Y-97811523D01*
X158952795Y-97811523D02*
X158857557Y-97763904D01*
X158857557Y-97763904D02*
X158809938Y-97716285D01*
X158809938Y-97716285D02*
X158762319Y-97621047D01*
X158762319Y-97621047D02*
X158762319Y-97430571D01*
X158762319Y-97430571D02*
X158809938Y-97335333D01*
X158809938Y-97335333D02*
X158857557Y-97287714D01*
X158857557Y-97287714D02*
X158952795Y-97240095D01*
X158952795Y-97240095D02*
X159000414Y-97240095D01*
X159000414Y-97240095D02*
X159095652Y-97287714D01*
X159095652Y-97287714D02*
X159143271Y-97335333D01*
X159143271Y-97335333D02*
X159190890Y-97430571D01*
X159190890Y-97430571D02*
X159190890Y-97621047D01*
X159190890Y-97621047D02*
X159238509Y-97716285D01*
X159238509Y-97716285D02*
X159286128Y-97763904D01*
X159286128Y-97763904D02*
X159381366Y-97811523D01*
X159381366Y-97811523D02*
X159571842Y-97811523D01*
X159571842Y-97811523D02*
X159667080Y-97763904D01*
X159667080Y-97763904D02*
X159714700Y-97716285D01*
X159714700Y-97716285D02*
X159762319Y-97621047D01*
X159762319Y-97621047D02*
X159762319Y-97430571D01*
X159762319Y-97430571D02*
X159714700Y-97335333D01*
X159714700Y-97335333D02*
X159667080Y-97287714D01*
X159667080Y-97287714D02*
X159571842Y-97240095D01*
X159571842Y-97240095D02*
X159381366Y-97240095D01*
X159381366Y-97240095D02*
X159286128Y-97287714D01*
X159286128Y-97287714D02*
X159238509Y-97335333D01*
X159238509Y-97335333D02*
X159190890Y-97430571D01*
X152728819Y-98686857D02*
X152252628Y-99020190D01*
X152728819Y-99258285D02*
X151728819Y-99258285D01*
X151728819Y-99258285D02*
X151728819Y-98877333D01*
X151728819Y-98877333D02*
X151776438Y-98782095D01*
X151776438Y-98782095D02*
X151824057Y-98734476D01*
X151824057Y-98734476D02*
X151919295Y-98686857D01*
X151919295Y-98686857D02*
X152062152Y-98686857D01*
X152062152Y-98686857D02*
X152157390Y-98734476D01*
X152157390Y-98734476D02*
X152205009Y-98782095D01*
X152205009Y-98782095D02*
X152252628Y-98877333D01*
X152252628Y-98877333D02*
X152252628Y-99258285D01*
X152728819Y-97734476D02*
X152728819Y-98305904D01*
X152728819Y-98020190D02*
X151728819Y-98020190D01*
X151728819Y-98020190D02*
X151871676Y-98115428D01*
X151871676Y-98115428D02*
X151966914Y-98210666D01*
X151966914Y-98210666D02*
X152014533Y-98305904D01*
X151728819Y-97401142D02*
X151728819Y-96734476D01*
X151728819Y-96734476D02*
X152728819Y-97163047D01*
X159885142Y-95958819D02*
X159551809Y-95482628D01*
X159313714Y-95958819D02*
X159313714Y-94958819D01*
X159313714Y-94958819D02*
X159694666Y-94958819D01*
X159694666Y-94958819D02*
X159789904Y-95006438D01*
X159789904Y-95006438D02*
X159837523Y-95054057D01*
X159837523Y-95054057D02*
X159885142Y-95149295D01*
X159885142Y-95149295D02*
X159885142Y-95292152D01*
X159885142Y-95292152D02*
X159837523Y-95387390D01*
X159837523Y-95387390D02*
X159789904Y-95435009D01*
X159789904Y-95435009D02*
X159694666Y-95482628D01*
X159694666Y-95482628D02*
X159313714Y-95482628D01*
X160837523Y-95958819D02*
X160266095Y-95958819D01*
X160551809Y-95958819D02*
X160551809Y-94958819D01*
X160551809Y-94958819D02*
X160456571Y-95101676D01*
X160456571Y-95101676D02*
X160361333Y-95196914D01*
X160361333Y-95196914D02*
X160266095Y-95244533D01*
X161694666Y-95292152D02*
X161694666Y-95958819D01*
X161456571Y-94911200D02*
X161218476Y-95625485D01*
X161218476Y-95625485D02*
X161837523Y-95625485D01*
X166442642Y-81160819D02*
X166109309Y-80684628D01*
X165871214Y-81160819D02*
X165871214Y-80160819D01*
X165871214Y-80160819D02*
X166252166Y-80160819D01*
X166252166Y-80160819D02*
X166347404Y-80208438D01*
X166347404Y-80208438D02*
X166395023Y-80256057D01*
X166395023Y-80256057D02*
X166442642Y-80351295D01*
X166442642Y-80351295D02*
X166442642Y-80494152D01*
X166442642Y-80494152D02*
X166395023Y-80589390D01*
X166395023Y-80589390D02*
X166347404Y-80637009D01*
X166347404Y-80637009D02*
X166252166Y-80684628D01*
X166252166Y-80684628D02*
X165871214Y-80684628D01*
X167395023Y-81160819D02*
X166823595Y-81160819D01*
X167109309Y-81160819D02*
X167109309Y-80160819D01*
X167109309Y-80160819D02*
X167014071Y-80303676D01*
X167014071Y-80303676D02*
X166918833Y-80398914D01*
X166918833Y-80398914D02*
X166823595Y-80446533D01*
X167775976Y-80256057D02*
X167823595Y-80208438D01*
X167823595Y-80208438D02*
X167918833Y-80160819D01*
X167918833Y-80160819D02*
X168156928Y-80160819D01*
X168156928Y-80160819D02*
X168252166Y-80208438D01*
X168252166Y-80208438D02*
X168299785Y-80256057D01*
X168299785Y-80256057D02*
X168347404Y-80351295D01*
X168347404Y-80351295D02*
X168347404Y-80446533D01*
X168347404Y-80446533D02*
X168299785Y-80589390D01*
X168299785Y-80589390D02*
X167728357Y-81160819D01*
X167728357Y-81160819D02*
X168347404Y-81160819D01*
X150822819Y-97178857D02*
X150346628Y-97512190D01*
X150822819Y-97750285D02*
X149822819Y-97750285D01*
X149822819Y-97750285D02*
X149822819Y-97369333D01*
X149822819Y-97369333D02*
X149870438Y-97274095D01*
X149870438Y-97274095D02*
X149918057Y-97226476D01*
X149918057Y-97226476D02*
X150013295Y-97178857D01*
X150013295Y-97178857D02*
X150156152Y-97178857D01*
X150156152Y-97178857D02*
X150251390Y-97226476D01*
X150251390Y-97226476D02*
X150299009Y-97274095D01*
X150299009Y-97274095D02*
X150346628Y-97369333D01*
X150346628Y-97369333D02*
X150346628Y-97750285D01*
X150822819Y-96226476D02*
X150822819Y-96797904D01*
X150822819Y-96512190D02*
X149822819Y-96512190D01*
X149822819Y-96512190D02*
X149965676Y-96607428D01*
X149965676Y-96607428D02*
X150060914Y-96702666D01*
X150060914Y-96702666D02*
X150108533Y-96797904D01*
X149822819Y-95607428D02*
X149822819Y-95512190D01*
X149822819Y-95512190D02*
X149870438Y-95416952D01*
X149870438Y-95416952D02*
X149918057Y-95369333D01*
X149918057Y-95369333D02*
X150013295Y-95321714D01*
X150013295Y-95321714D02*
X150203771Y-95274095D01*
X150203771Y-95274095D02*
X150441866Y-95274095D01*
X150441866Y-95274095D02*
X150632342Y-95321714D01*
X150632342Y-95321714D02*
X150727580Y-95369333D01*
X150727580Y-95369333D02*
X150775200Y-95416952D01*
X150775200Y-95416952D02*
X150822819Y-95512190D01*
X150822819Y-95512190D02*
X150822819Y-95607428D01*
X150822819Y-95607428D02*
X150775200Y-95702666D01*
X150775200Y-95702666D02*
X150727580Y-95750285D01*
X150727580Y-95750285D02*
X150632342Y-95797904D01*
X150632342Y-95797904D02*
X150441866Y-95845523D01*
X150441866Y-95845523D02*
X150203771Y-95845523D01*
X150203771Y-95845523D02*
X150013295Y-95797904D01*
X150013295Y-95797904D02*
X149918057Y-95750285D01*
X149918057Y-95750285D02*
X149870438Y-95702666D01*
X149870438Y-95702666D02*
X149822819Y-95607428D01*
X151288761Y-91114057D02*
X151193523Y-91066438D01*
X151193523Y-91066438D02*
X151098285Y-90971200D01*
X151098285Y-90971200D02*
X150955428Y-90828342D01*
X150955428Y-90828342D02*
X150860190Y-90780723D01*
X150860190Y-90780723D02*
X150764952Y-90780723D01*
X150812571Y-91018819D02*
X150717333Y-90971200D01*
X150717333Y-90971200D02*
X150622095Y-90875961D01*
X150622095Y-90875961D02*
X150574476Y-90685485D01*
X150574476Y-90685485D02*
X150574476Y-90352152D01*
X150574476Y-90352152D02*
X150622095Y-90161676D01*
X150622095Y-90161676D02*
X150717333Y-90066438D01*
X150717333Y-90066438D02*
X150812571Y-90018819D01*
X150812571Y-90018819D02*
X151003047Y-90018819D01*
X151003047Y-90018819D02*
X151098285Y-90066438D01*
X151098285Y-90066438D02*
X151193523Y-90161676D01*
X151193523Y-90161676D02*
X151241142Y-90352152D01*
X151241142Y-90352152D02*
X151241142Y-90685485D01*
X151241142Y-90685485D02*
X151193523Y-90875961D01*
X151193523Y-90875961D02*
X151098285Y-90971200D01*
X151098285Y-90971200D02*
X151003047Y-91018819D01*
X151003047Y-91018819D02*
X150812571Y-91018819D01*
X151812571Y-90447390D02*
X151717333Y-90399771D01*
X151717333Y-90399771D02*
X151669714Y-90352152D01*
X151669714Y-90352152D02*
X151622095Y-90256914D01*
X151622095Y-90256914D02*
X151622095Y-90209295D01*
X151622095Y-90209295D02*
X151669714Y-90114057D01*
X151669714Y-90114057D02*
X151717333Y-90066438D01*
X151717333Y-90066438D02*
X151812571Y-90018819D01*
X151812571Y-90018819D02*
X152003047Y-90018819D01*
X152003047Y-90018819D02*
X152098285Y-90066438D01*
X152098285Y-90066438D02*
X152145904Y-90114057D01*
X152145904Y-90114057D02*
X152193523Y-90209295D01*
X152193523Y-90209295D02*
X152193523Y-90256914D01*
X152193523Y-90256914D02*
X152145904Y-90352152D01*
X152145904Y-90352152D02*
X152098285Y-90399771D01*
X152098285Y-90399771D02*
X152003047Y-90447390D01*
X152003047Y-90447390D02*
X151812571Y-90447390D01*
X151812571Y-90447390D02*
X151717333Y-90495009D01*
X151717333Y-90495009D02*
X151669714Y-90542628D01*
X151669714Y-90542628D02*
X151622095Y-90637866D01*
X151622095Y-90637866D02*
X151622095Y-90828342D01*
X151622095Y-90828342D02*
X151669714Y-90923580D01*
X151669714Y-90923580D02*
X151717333Y-90971200D01*
X151717333Y-90971200D02*
X151812571Y-91018819D01*
X151812571Y-91018819D02*
X152003047Y-91018819D01*
X152003047Y-91018819D02*
X152098285Y-90971200D01*
X152098285Y-90971200D02*
X152145904Y-90923580D01*
X152145904Y-90923580D02*
X152193523Y-90828342D01*
X152193523Y-90828342D02*
X152193523Y-90637866D01*
X152193523Y-90637866D02*
X152145904Y-90542628D01*
X152145904Y-90542628D02*
X152098285Y-90495009D01*
X152098285Y-90495009D02*
X152003047Y-90447390D01*
X147282819Y-90249333D02*
X147997104Y-90249333D01*
X147997104Y-90249333D02*
X148139961Y-90296952D01*
X148139961Y-90296952D02*
X148235200Y-90392190D01*
X148235200Y-90392190D02*
X148282819Y-90535047D01*
X148282819Y-90535047D02*
X148282819Y-90630285D01*
X147282819Y-89868380D02*
X147282819Y-89249333D01*
X147282819Y-89249333D02*
X147663771Y-89582666D01*
X147663771Y-89582666D02*
X147663771Y-89439809D01*
X147663771Y-89439809D02*
X147711390Y-89344571D01*
X147711390Y-89344571D02*
X147759009Y-89296952D01*
X147759009Y-89296952D02*
X147854247Y-89249333D01*
X147854247Y-89249333D02*
X148092342Y-89249333D01*
X148092342Y-89249333D02*
X148187580Y-89296952D01*
X148187580Y-89296952D02*
X148235200Y-89344571D01*
X148235200Y-89344571D02*
X148282819Y-89439809D01*
X148282819Y-89439809D02*
X148282819Y-89725523D01*
X148282819Y-89725523D02*
X148235200Y-89820761D01*
X148235200Y-89820761D02*
X148187580Y-89868380D01*
X163952319Y-94652094D02*
X162952319Y-94652094D01*
X162952319Y-94652094D02*
X162952319Y-94413999D01*
X162952319Y-94413999D02*
X162999938Y-94271142D01*
X162999938Y-94271142D02*
X163095176Y-94175904D01*
X163095176Y-94175904D02*
X163190414Y-94128285D01*
X163190414Y-94128285D02*
X163380890Y-94080666D01*
X163380890Y-94080666D02*
X163523747Y-94080666D01*
X163523747Y-94080666D02*
X163714223Y-94128285D01*
X163714223Y-94128285D02*
X163809461Y-94175904D01*
X163809461Y-94175904D02*
X163904700Y-94271142D01*
X163904700Y-94271142D02*
X163952319Y-94413999D01*
X163952319Y-94413999D02*
X163952319Y-94652094D01*
X162952319Y-93175904D02*
X162952319Y-93652094D01*
X162952319Y-93652094D02*
X163428509Y-93699713D01*
X163428509Y-93699713D02*
X163380890Y-93652094D01*
X163380890Y-93652094D02*
X163333271Y-93556856D01*
X163333271Y-93556856D02*
X163333271Y-93318761D01*
X163333271Y-93318761D02*
X163380890Y-93223523D01*
X163380890Y-93223523D02*
X163428509Y-93175904D01*
X163428509Y-93175904D02*
X163523747Y-93128285D01*
X163523747Y-93128285D02*
X163761842Y-93128285D01*
X163761842Y-93128285D02*
X163857080Y-93175904D01*
X163857080Y-93175904D02*
X163904700Y-93223523D01*
X163904700Y-93223523D02*
X163952319Y-93318761D01*
X163952319Y-93318761D02*
X163952319Y-93556856D01*
X163952319Y-93556856D02*
X163904700Y-93652094D01*
X163904700Y-93652094D02*
X163857080Y-93699713D01*
X150727580Y-78906666D02*
X150775200Y-78954285D01*
X150775200Y-78954285D02*
X150822819Y-79097142D01*
X150822819Y-79097142D02*
X150822819Y-79192380D01*
X150822819Y-79192380D02*
X150775200Y-79335237D01*
X150775200Y-79335237D02*
X150679961Y-79430475D01*
X150679961Y-79430475D02*
X150584723Y-79478094D01*
X150584723Y-79478094D02*
X150394247Y-79525713D01*
X150394247Y-79525713D02*
X150251390Y-79525713D01*
X150251390Y-79525713D02*
X150060914Y-79478094D01*
X150060914Y-79478094D02*
X149965676Y-79430475D01*
X149965676Y-79430475D02*
X149870438Y-79335237D01*
X149870438Y-79335237D02*
X149822819Y-79192380D01*
X149822819Y-79192380D02*
X149822819Y-79097142D01*
X149822819Y-79097142D02*
X149870438Y-78954285D01*
X149870438Y-78954285D02*
X149918057Y-78906666D01*
X150251390Y-78335237D02*
X150203771Y-78430475D01*
X150203771Y-78430475D02*
X150156152Y-78478094D01*
X150156152Y-78478094D02*
X150060914Y-78525713D01*
X150060914Y-78525713D02*
X150013295Y-78525713D01*
X150013295Y-78525713D02*
X149918057Y-78478094D01*
X149918057Y-78478094D02*
X149870438Y-78430475D01*
X149870438Y-78430475D02*
X149822819Y-78335237D01*
X149822819Y-78335237D02*
X149822819Y-78144761D01*
X149822819Y-78144761D02*
X149870438Y-78049523D01*
X149870438Y-78049523D02*
X149918057Y-78001904D01*
X149918057Y-78001904D02*
X150013295Y-77954285D01*
X150013295Y-77954285D02*
X150060914Y-77954285D01*
X150060914Y-77954285D02*
X150156152Y-78001904D01*
X150156152Y-78001904D02*
X150203771Y-78049523D01*
X150203771Y-78049523D02*
X150251390Y-78144761D01*
X150251390Y-78144761D02*
X150251390Y-78335237D01*
X150251390Y-78335237D02*
X150299009Y-78430475D01*
X150299009Y-78430475D02*
X150346628Y-78478094D01*
X150346628Y-78478094D02*
X150441866Y-78525713D01*
X150441866Y-78525713D02*
X150632342Y-78525713D01*
X150632342Y-78525713D02*
X150727580Y-78478094D01*
X150727580Y-78478094D02*
X150775200Y-78430475D01*
X150775200Y-78430475D02*
X150822819Y-78335237D01*
X150822819Y-78335237D02*
X150822819Y-78144761D01*
X150822819Y-78144761D02*
X150775200Y-78049523D01*
X150775200Y-78049523D02*
X150727580Y-78001904D01*
X150727580Y-78001904D02*
X150632342Y-77954285D01*
X150632342Y-77954285D02*
X150441866Y-77954285D01*
X150441866Y-77954285D02*
X150346628Y-78001904D01*
X150346628Y-78001904D02*
X150299009Y-78049523D01*
X150299009Y-78049523D02*
X150251390Y-78144761D01*
X164267080Y-80811666D02*
X164314700Y-80859285D01*
X164314700Y-80859285D02*
X164362319Y-81002142D01*
X164362319Y-81002142D02*
X164362319Y-81097380D01*
X164362319Y-81097380D02*
X164314700Y-81240237D01*
X164314700Y-81240237D02*
X164219461Y-81335475D01*
X164219461Y-81335475D02*
X164124223Y-81383094D01*
X164124223Y-81383094D02*
X163933747Y-81430713D01*
X163933747Y-81430713D02*
X163790890Y-81430713D01*
X163790890Y-81430713D02*
X163600414Y-81383094D01*
X163600414Y-81383094D02*
X163505176Y-81335475D01*
X163505176Y-81335475D02*
X163409938Y-81240237D01*
X163409938Y-81240237D02*
X163362319Y-81097380D01*
X163362319Y-81097380D02*
X163362319Y-81002142D01*
X163362319Y-81002142D02*
X163409938Y-80859285D01*
X163409938Y-80859285D02*
X163457557Y-80811666D01*
X163362319Y-80478332D02*
X163362319Y-79811666D01*
X163362319Y-79811666D02*
X164362319Y-80240237D01*
X163965833Y-84113580D02*
X163918214Y-84161200D01*
X163918214Y-84161200D02*
X163775357Y-84208819D01*
X163775357Y-84208819D02*
X163680119Y-84208819D01*
X163680119Y-84208819D02*
X163537262Y-84161200D01*
X163537262Y-84161200D02*
X163442024Y-84065961D01*
X163442024Y-84065961D02*
X163394405Y-83970723D01*
X163394405Y-83970723D02*
X163346786Y-83780247D01*
X163346786Y-83780247D02*
X163346786Y-83637390D01*
X163346786Y-83637390D02*
X163394405Y-83446914D01*
X163394405Y-83446914D02*
X163442024Y-83351676D01*
X163442024Y-83351676D02*
X163537262Y-83256438D01*
X163537262Y-83256438D02*
X163680119Y-83208819D01*
X163680119Y-83208819D02*
X163775357Y-83208819D01*
X163775357Y-83208819D02*
X163918214Y-83256438D01*
X163918214Y-83256438D02*
X163965833Y-83304057D01*
X164822976Y-83542152D02*
X164822976Y-84208819D01*
X164584881Y-83161200D02*
X164346786Y-83875485D01*
X164346786Y-83875485D02*
X164965833Y-83875485D01*
%TO.C,U14*%
D10*
X152188000Y-61008000D02*
X163788000Y-61008000D01*
X163788000Y-67008000D01*
X152188000Y-67008000D01*
X152188000Y-61008000D01*
X154530947Y-64250423D02*
X154581747Y-64250423D01*
X154175347Y-64656823D02*
X154581747Y-64250423D01*
X154175347Y-64656823D02*
X153768947Y-64250423D01*
X153768947Y-64250423D02*
X154530947Y-64250423D01*
X152188000Y-65738000D02*
X153458000Y-67008000D01*
D12*
%TO.C,R1*%
X152680936Y-73887000D02*
X153135064Y-73887000D01*
X152680936Y-72417000D02*
X153135064Y-72417000D01*
%TO.C,R2*%
X152680936Y-70331000D02*
X153135064Y-70331000D01*
X152680936Y-68861000D02*
X153135064Y-68861000D01*
%TO.C,U1*%
X156812000Y-69671000D02*
X156572000Y-69341000D01*
X157052000Y-69341000D01*
X156812000Y-69671000D01*
G36*
X156812000Y-69671000D02*
G01*
X156572000Y-69341000D01*
X157052000Y-69341000D01*
X156812000Y-69671000D01*
G37*
X159512000Y-74696000D02*
X161462000Y-74696000D01*
X159512000Y-74696000D02*
X157562000Y-74696000D01*
X159512000Y-69576000D02*
X161462000Y-69576000D01*
X159512000Y-69576000D02*
X157562000Y-69576000D01*
%TO.C,J2*%
X149716000Y-75548000D02*
X148336000Y-75548000D01*
X149716000Y-74168000D02*
X149716000Y-75548000D01*
X149716000Y-72898000D02*
X149716000Y-67708000D01*
X149716000Y-72898000D02*
X146956000Y-72898000D01*
X149716000Y-67708000D02*
X146956000Y-67708000D01*
X146956000Y-72898000D02*
X146956000Y-67708000D01*
%TO.C,J5*%
X167276000Y-98188000D02*
X168656000Y-98188000D01*
X167276000Y-99568000D02*
X167276000Y-98188000D01*
X167276000Y-100838000D02*
X167276000Y-106028000D01*
X167276000Y-100838000D02*
X170036000Y-100838000D01*
X167276000Y-106028000D02*
X170036000Y-106028000D01*
X170036000Y-100838000D02*
X170036000Y-106028000D01*
%TO.C,R7*%
X167359064Y-78005000D02*
X166904936Y-78005000D01*
X167359064Y-79475000D02*
X166904936Y-79475000D01*
%TO.C,R5*%
X167359064Y-74449000D02*
X166904936Y-74449000D01*
X167359064Y-75919000D02*
X166904936Y-75919000D01*
%TO.C,R6*%
X167359064Y-70893000D02*
X166904936Y-70893000D01*
X167359064Y-72363000D02*
X166904936Y-72363000D01*
%TO.C,TP2*%
X169356000Y-93472000D02*
G75*
G02*
X167956000Y-93472000I-700000J0D01*
G01*
X167956000Y-93472000D02*
G75*
G02*
X169356000Y-93472000I700000J0D01*
G01*
%TO.C,TP1*%
X168261500Y-85278000D02*
G75*
G02*
X166861500Y-85278000I-700000J0D01*
G01*
X166861500Y-85278000D02*
G75*
G02*
X168261500Y-85278000I700000J0D01*
G01*
%TO.C,U10*%
X156973500Y-86585000D02*
X156643500Y-86825000D01*
X156643500Y-86345000D01*
X156973500Y-86585000D01*
G36*
X156973500Y-86585000D02*
G01*
X156643500Y-86825000D01*
X156643500Y-86345000D01*
X156973500Y-86585000D01*
G37*
X160043500Y-85422500D02*
X160043500Y-84772500D01*
X160043500Y-85422500D02*
X160043500Y-86072500D01*
X156923500Y-85422500D02*
X156923500Y-84772500D01*
X156923500Y-85422500D02*
X156923500Y-86072500D01*
%TO.C,C17*%
X158678752Y-88165000D02*
X158156248Y-88165000D01*
X158678752Y-89635000D02*
X158156248Y-89635000D01*
%TO.C,D4*%
X166529500Y-101610000D02*
X166529500Y-97600000D01*
X164529500Y-101610000D02*
X164529500Y-97600000D01*
X164529500Y-101610000D02*
X166529500Y-101610000D01*
%TO.C,J14*%
X152372000Y-116512000D02*
X152372000Y-101812000D01*
X161572000Y-116512000D02*
X152372000Y-116512000D01*
X161572000Y-107712000D02*
X161572000Y-116512000D01*
X152172000Y-102662000D02*
X152172000Y-101612000D01*
X152372000Y-101812000D02*
X154972000Y-101812000D01*
X158872000Y-101812000D02*
X161572000Y-101812000D01*
X161572000Y-101812000D02*
X161572000Y-103712000D01*
X153222000Y-101612000D02*
X152172000Y-101612000D01*
%TO.C,U13*%
X157147500Y-78085000D02*
X155197500Y-78085000D01*
X157147500Y-78085000D02*
X159097500Y-78085000D01*
X157147500Y-83205000D02*
X155197500Y-83205000D01*
X157147500Y-83205000D02*
X159097500Y-83205000D01*
X154447500Y-78180000D02*
X154207500Y-77850000D01*
X154687500Y-77850000D01*
X154447500Y-78180000D01*
G36*
X154447500Y-78180000D02*
G01*
X154207500Y-77850000D01*
X154687500Y-77850000D01*
X154447500Y-78180000D01*
G37*
D11*
%TO.C,U3*%
X162507500Y-86955000D02*
X162507500Y-87180000D01*
X162507500Y-86955000D02*
X165757500Y-86955000D01*
X162507500Y-90205000D02*
X162507500Y-89980000D01*
X162507500Y-90205000D02*
X165757500Y-90205000D01*
X165757500Y-86955000D02*
X165757500Y-87180000D01*
X165757500Y-90205000D02*
X165757500Y-89980000D01*
D12*
X162032500Y-87180000D02*
X161792500Y-86850000D01*
X162272500Y-86850000D01*
X162032500Y-87180000D01*
G36*
X162032500Y-87180000D02*
G01*
X161792500Y-86850000D01*
X162272500Y-86850000D01*
X162032500Y-87180000D01*
G37*
%TO.C,R27*%
X154205000Y-89143064D02*
X154205000Y-88688936D01*
X155675000Y-89143064D02*
X155675000Y-88688936D01*
%TO.C,R24*%
X157158436Y-92229000D02*
X157612564Y-92229000D01*
X157158436Y-93699000D02*
X157612564Y-93699000D01*
%TO.C,R18*%
X160222500Y-98729064D02*
X160222500Y-98274936D01*
X161692500Y-98729064D02*
X161692500Y-98274936D01*
%TO.C,R17*%
X153189000Y-98271064D02*
X153189000Y-97816936D01*
X154659000Y-98271064D02*
X154659000Y-97816936D01*
%TO.C,R14*%
X157374564Y-96239000D02*
X156920436Y-96239000D01*
X157374564Y-94769000D02*
X156920436Y-94769000D01*
%TO.C,R12*%
X166985436Y-81368000D02*
X167439564Y-81368000D01*
X166985436Y-82838000D02*
X167439564Y-82838000D01*
%TO.C,R10*%
X148109000Y-96763064D02*
X148109000Y-96308936D01*
X149579000Y-96763064D02*
X149579000Y-96308936D01*
%TO.C,Q8*%
X151384000Y-91404000D02*
X150734000Y-91404000D01*
X151384000Y-91404000D02*
X152034000Y-91404000D01*
X151384000Y-94524000D02*
X150734000Y-94524000D01*
X151384000Y-94524000D02*
X152034000Y-94524000D01*
X150221500Y-91454000D02*
X149981500Y-91124000D01*
X150461500Y-91124000D01*
X150221500Y-91454000D01*
G36*
X150221500Y-91454000D02*
G01*
X149981500Y-91124000D01*
X150461500Y-91124000D01*
X150221500Y-91454000D01*
G37*
%TO.C,J3*%
X151488000Y-82234000D02*
X151488000Y-83284000D01*
X148988000Y-82234000D02*
X151488000Y-82234000D01*
X151488000Y-83284000D02*
X152478000Y-83284000D01*
X147018000Y-83404000D02*
X147018000Y-87284000D01*
X151488000Y-88454000D02*
X151488000Y-87404000D01*
X148988000Y-88454000D02*
X151488000Y-88454000D01*
%TO.C,D5*%
X164529500Y-96275000D02*
X166529500Y-96275000D01*
X164529500Y-96275000D02*
X164529500Y-92265000D01*
X166529500Y-96275000D02*
X166529500Y-92265000D01*
%TO.C,C8*%
X152627000Y-78478748D02*
X152627000Y-79001252D01*
X151157000Y-78478748D02*
X151157000Y-79001252D01*
%TO.C,C7*%
X162962500Y-80383748D02*
X162962500Y-80906252D01*
X161492500Y-80383748D02*
X161492500Y-80906252D01*
%TO.C,C4*%
X163871248Y-84670000D02*
X164393752Y-84670000D01*
X163871248Y-86140000D02*
X164393752Y-86140000D01*
%TD*%
M02*
