%TF.GenerationSoftware,KiCad,Pcbnew,9.0.3*%
%TF.CreationDate,2026-02-14T21:05:33-06:00*%
%TF.ProjectId,SimplifiedOpenLeadVoltmeter,53696d70-6c69-4666-9965-644f70656e4c,rev?*%
%TF.SameCoordinates,Original*%
%TF.FileFunction,Copper,L3,Inr*%
%TF.FilePolarity,Positive*%
%FSLAX46Y46*%
G04 Gerber Fmt 4.6, Leading zero omitted, Abs format (unit mm)*
G04 Created by KiCad (PCBNEW 9.0.3) date 2026-02-14 21:05:33*
%MOMM*%
%LPD*%
G01*
G04 APERTURE LIST*
G04 Aperture macros list*
%AMRoundRect*
0 Rectangle with rounded corners*
0 $1 Rounding radius*
0 $2 $3 $4 $5 $6 $7 $8 $9 X,Y pos of 4 corners*
0 Add a 4 corners polygon primitive as box body*
4,1,4,$2,$3,$4,$5,$6,$7,$8,$9,$2,$3,0*
0 Add four circle primitives for the rounded corners*
1,1,$1+$1,$2,$3*
1,1,$1+$1,$4,$5*
1,1,$1+$1,$6,$7*
1,1,$1+$1,$8,$9*
0 Add four rect primitives between the rounded corners*
20,1,$1+$1,$2,$3,$4,$5,0*
20,1,$1+$1,$4,$5,$6,$7,0*
20,1,$1+$1,$6,$7,$8,$9,0*
20,1,$1+$1,$8,$9,$2,$3,0*%
G04 Aperture macros list end*
%TA.AperFunction,ComponentPad*%
%ADD10C,1.500000*%
%TD*%
%TA.AperFunction,ComponentPad*%
%ADD11R,1.700000X1.700000*%
%TD*%
%TA.AperFunction,ComponentPad*%
%ADD12C,1.700000*%
%TD*%
%TA.AperFunction,ComponentPad*%
%ADD13C,4.400000*%
%TD*%
%TA.AperFunction,ComponentPad*%
%ADD14R,3.500000X3.500000*%
%TD*%
%TA.AperFunction,ComponentPad*%
%ADD15RoundRect,0.750000X1.000000X-0.750000X1.000000X0.750000X-1.000000X0.750000X-1.000000X-0.750000X0*%
%TD*%
%TA.AperFunction,ComponentPad*%
%ADD16RoundRect,0.875000X0.875000X-0.875000X0.875000X0.875000X-0.875000X0.875000X-0.875000X-0.875000X0*%
%TD*%
%TA.AperFunction,ViaPad*%
%ADD17C,0.600000*%
%TD*%
G04 APERTURE END LIST*
D10*
%TO.N,5V-iso*%
%TO.C,U14*%
X161798000Y-65738000D03*
%TO.N,Gnd-iso*%
X159258000Y-65738000D03*
%TO.N,VDD*%
X156718000Y-65738000D03*
%TO.N,GND*%
X154178000Y-65738000D03*
%TD*%
D11*
%TO.N,GND*%
%TO.C,J2*%
X148336000Y-74168000D03*
D12*
%TO.N,unconnected-(J2-Pin_2-Pad2)*%
X148336000Y-71628000D03*
%TO.N,VDD*%
X148336000Y-69088000D03*
%TD*%
D11*
%TO.N,/Signal1-MCU*%
%TO.C,J5*%
X168656000Y-99568000D03*
D12*
%TO.N,SCL*%
X168656000Y-102108000D03*
%TO.N,SDA*%
X168656000Y-104648000D03*
%TD*%
D13*
%TO.N,N/C*%
%TO.C,H3*%
X149590802Y-108453302D03*
%TD*%
%TO.N,N/C*%
%TO.C,H2*%
X167401197Y-62750455D03*
%TD*%
%TO.N,N/C*%
%TO.C,H1*%
X149578264Y-62771386D03*
%TD*%
D14*
%TO.N,V_Input_REF*%
%TO.C,J14*%
X156972000Y-102712000D03*
D15*
%TO.N,V_Input_Float*%
X156972000Y-108712000D03*
D16*
%TO.N,N/C*%
X161672000Y-105712000D03*
%TD*%
D17*
%TO.N,/Signal1-MCU*%
X158496000Y-72092099D03*
%TO.N,5V-iso*%
X165192000Y-86810313D03*
X165100000Y-88900000D03*
%TO.N,SDA-5V*%
X161544000Y-77724000D03*
X164592000Y-87376000D03*
%TO.N,SCL-5V*%
X163678981Y-78748437D03*
X165608000Y-83820000D03*
%TO.N,SCL*%
X155956000Y-80772000D03*
%TO.N,5V-iso*%
X168132000Y-73152000D03*
X157988000Y-79248000D03*
X153416000Y-90932000D03*
%TO.N,Gnd-iso*%
X158710750Y-85637250D03*
X163095000Y-87376000D03*
X162052000Y-82804000D03*
%TO.N,5V-iso*%
X163068000Y-78232000D03*
%TO.N,SDA*%
X153908000Y-76692000D03*
X153416000Y-83820000D03*
X153351200Y-80706681D03*
%TO.N,/AIN1*%
X161982500Y-91440000D03*
X157321750Y-94329750D03*
%TO.N,Gnd-iso*%
X150368000Y-98552000D03*
%TO.N,5V-iso*%
X165100000Y-100076000D03*
%TO.N,Gnd-iso*%
X165529500Y-93901500D03*
X169164000Y-80772000D03*
%TO.N,VDD*%
X149352000Y-84328000D03*
%TO.N,GND*%
X156972000Y-75184000D03*
%TD*%
%TA.AperFunction,Conductor*%
%TO.N,5V-iso*%
G36*
X158138318Y-62516677D02*
G01*
X164951905Y-63997892D01*
X165013229Y-64031367D01*
X165031794Y-64056029D01*
X165032081Y-64055850D01*
X165033931Y-64058795D01*
X165033932Y-64058796D01*
X165195305Y-64315619D01*
X165384418Y-64552759D01*
X165598893Y-64767234D01*
X165836033Y-64956347D01*
X166092856Y-65117720D01*
X166366132Y-65249323D01*
X166524728Y-65304818D01*
X166652413Y-65349497D01*
X166652425Y-65349501D01*
X166948134Y-65416995D01*
X166948143Y-65416996D01*
X166948148Y-65416997D01*
X167133903Y-65437926D01*
X167249534Y-65450954D01*
X167249537Y-65450955D01*
X167249540Y-65450955D01*
X167552857Y-65450955D01*
X167552858Y-65450954D01*
X167706891Y-65433599D01*
X167854245Y-65416997D01*
X167854248Y-65416996D01*
X167854260Y-65416995D01*
X168149969Y-65349501D01*
X168436262Y-65249323D01*
X168709538Y-65117720D01*
X168966361Y-64956347D01*
X169004780Y-64925708D01*
X169069463Y-64899300D01*
X169108430Y-64901484D01*
X169574343Y-65002770D01*
X169635669Y-65036246D01*
X169669163Y-65097564D01*
X169672000Y-65123939D01*
X169672000Y-79930386D01*
X169652315Y-79997425D01*
X169599511Y-80043180D01*
X169530353Y-80053124D01*
X169500548Y-80044947D01*
X169397501Y-80002264D01*
X169397489Y-80002261D01*
X169242845Y-79971500D01*
X169242842Y-79971500D01*
X169085158Y-79971500D01*
X169085155Y-79971500D01*
X168930510Y-80002261D01*
X168930498Y-80002264D01*
X168784827Y-80062602D01*
X168784814Y-80062609D01*
X168653711Y-80150210D01*
X168653707Y-80150213D01*
X168542213Y-80261707D01*
X168542210Y-80261711D01*
X168454609Y-80392814D01*
X168454602Y-80392827D01*
X168394264Y-80538498D01*
X168394261Y-80538510D01*
X168363500Y-80693153D01*
X168363500Y-80850846D01*
X168394261Y-81005489D01*
X168394264Y-81005501D01*
X168454602Y-81151172D01*
X168454609Y-81151185D01*
X168542210Y-81282288D01*
X168542213Y-81282292D01*
X168653707Y-81393786D01*
X168653711Y-81393789D01*
X168784814Y-81481390D01*
X168784827Y-81481397D01*
X168930498Y-81541735D01*
X168930503Y-81541737D01*
X169085153Y-81572499D01*
X169085156Y-81572500D01*
X169085158Y-81572500D01*
X169242844Y-81572500D01*
X169242845Y-81572499D01*
X169397497Y-81541737D01*
X169500549Y-81499051D01*
X169570017Y-81491583D01*
X169632496Y-81522858D01*
X169668148Y-81582947D01*
X169672000Y-81613613D01*
X169672000Y-94952503D01*
X169652315Y-95019542D01*
X169644828Y-95029965D01*
X167640000Y-97536000D01*
X167639999Y-97536001D01*
X167383549Y-98433575D01*
X167363592Y-98473813D01*
X167362205Y-98475665D01*
X167311908Y-98610517D01*
X167305501Y-98670116D01*
X167305500Y-98670135D01*
X167305500Y-98689382D01*
X167300729Y-98723447D01*
X166649696Y-101002065D01*
X166612352Y-101061118D01*
X166549010Y-101090606D01*
X166530467Y-101092000D01*
X162684000Y-101092000D01*
X162616961Y-101072315D01*
X162571206Y-101019511D01*
X162560000Y-100968000D01*
X162560000Y-96012000D01*
X152400000Y-96012000D01*
X151107932Y-97950100D01*
X151054367Y-97994961D01*
X150985051Y-98003741D01*
X150921992Y-97973652D01*
X150917077Y-97968998D01*
X150878292Y-97930213D01*
X150878288Y-97930210D01*
X150747185Y-97842609D01*
X150747172Y-97842602D01*
X150601501Y-97782264D01*
X150601489Y-97782261D01*
X150446845Y-97751500D01*
X150446842Y-97751500D01*
X150289158Y-97751500D01*
X150289155Y-97751500D01*
X150134510Y-97782261D01*
X150134498Y-97782264D01*
X149988827Y-97842602D01*
X149988814Y-97842609D01*
X149857711Y-97930210D01*
X149857707Y-97930213D01*
X149746213Y-98041707D01*
X149746210Y-98041711D01*
X149658609Y-98172814D01*
X149658602Y-98172827D01*
X149598264Y-98318498D01*
X149598261Y-98318510D01*
X149567500Y-98473153D01*
X149567500Y-98630846D01*
X149598261Y-98785489D01*
X149598264Y-98785501D01*
X149640947Y-98888548D01*
X149648416Y-98958017D01*
X149617140Y-99020496D01*
X149557051Y-99056148D01*
X149526386Y-99060000D01*
X147444000Y-99060000D01*
X147376961Y-99040315D01*
X147331206Y-98987511D01*
X147320000Y-98936000D01*
X147320000Y-94250903D01*
X156521250Y-94250903D01*
X156521250Y-94408596D01*
X156552011Y-94563239D01*
X156552014Y-94563251D01*
X156612352Y-94708922D01*
X156612359Y-94708935D01*
X156699960Y-94840038D01*
X156699963Y-94840042D01*
X156811457Y-94951536D01*
X156811461Y-94951539D01*
X156942564Y-95039140D01*
X156942577Y-95039147D01*
X157088248Y-95099485D01*
X157088253Y-95099487D01*
X157242903Y-95130249D01*
X157242906Y-95130250D01*
X157242908Y-95130250D01*
X157400594Y-95130250D01*
X157400595Y-95130249D01*
X157555247Y-95099487D01*
X157700929Y-95039144D01*
X157832039Y-94951539D01*
X157943539Y-94840039D01*
X158031144Y-94708929D01*
X158034015Y-94701999D01*
X158091485Y-94563251D01*
X158091487Y-94563247D01*
X158122250Y-94408592D01*
X158122250Y-94250908D01*
X158122250Y-94250905D01*
X158122249Y-94250903D01*
X158091487Y-94096253D01*
X158091485Y-94096248D01*
X158031147Y-93950577D01*
X158031140Y-93950564D01*
X157987637Y-93885457D01*
X157945672Y-93822653D01*
X164729000Y-93822653D01*
X164729000Y-93980346D01*
X164759761Y-94134989D01*
X164759764Y-94135001D01*
X164820102Y-94280672D01*
X164820109Y-94280685D01*
X164907710Y-94411788D01*
X164907713Y-94411792D01*
X165019207Y-94523286D01*
X165019211Y-94523289D01*
X165150314Y-94610890D01*
X165150327Y-94610897D01*
X165295998Y-94671235D01*
X165296003Y-94671237D01*
X165450653Y-94701999D01*
X165450656Y-94702000D01*
X165450658Y-94702000D01*
X165608344Y-94702000D01*
X165608345Y-94701999D01*
X165762997Y-94671237D01*
X165908679Y-94610894D01*
X166039789Y-94523289D01*
X166151289Y-94411789D01*
X166238894Y-94280679D01*
X166299237Y-94134997D01*
X166330000Y-93980342D01*
X166330000Y-93822658D01*
X166330000Y-93822655D01*
X166329999Y-93822653D01*
X166329363Y-93819457D01*
X166299237Y-93668003D01*
X166299235Y-93667998D01*
X166238897Y-93522327D01*
X166238890Y-93522314D01*
X166151289Y-93391211D01*
X166151286Y-93391207D01*
X166039792Y-93279713D01*
X166039788Y-93279710D01*
X165908685Y-93192109D01*
X165908672Y-93192102D01*
X165763001Y-93131764D01*
X165762989Y-93131761D01*
X165608345Y-93101000D01*
X165608342Y-93101000D01*
X165450658Y-93101000D01*
X165450655Y-93101000D01*
X165296010Y-93131761D01*
X165295998Y-93131764D01*
X165150327Y-93192102D01*
X165150314Y-93192109D01*
X165019211Y-93279710D01*
X165019207Y-93279713D01*
X164907713Y-93391207D01*
X164907710Y-93391211D01*
X164820109Y-93522314D01*
X164820102Y-93522327D01*
X164759764Y-93667998D01*
X164759761Y-93668010D01*
X164729000Y-93822653D01*
X157945672Y-93822653D01*
X157943539Y-93819461D01*
X157943536Y-93819457D01*
X157832042Y-93707963D01*
X157832038Y-93707960D01*
X157700935Y-93620359D01*
X157700922Y-93620352D01*
X157555251Y-93560014D01*
X157555239Y-93560011D01*
X157400595Y-93529250D01*
X157400592Y-93529250D01*
X157242908Y-93529250D01*
X157242905Y-93529250D01*
X157088260Y-93560011D01*
X157088248Y-93560014D01*
X156942577Y-93620352D01*
X156942564Y-93620359D01*
X156811461Y-93707960D01*
X156811457Y-93707963D01*
X156699963Y-93819457D01*
X156699960Y-93819461D01*
X156612359Y-93950564D01*
X156612352Y-93950577D01*
X156552014Y-94096248D01*
X156552011Y-94096260D01*
X156521250Y-94250903D01*
X147320000Y-94250903D01*
X147320000Y-91361153D01*
X161182000Y-91361153D01*
X161182000Y-91518846D01*
X161212761Y-91673489D01*
X161212764Y-91673501D01*
X161273102Y-91819172D01*
X161273109Y-91819185D01*
X161360710Y-91950288D01*
X161360713Y-91950292D01*
X161472207Y-92061786D01*
X161472211Y-92061789D01*
X161603314Y-92149390D01*
X161603327Y-92149397D01*
X161748998Y-92209735D01*
X161749003Y-92209737D01*
X161903653Y-92240499D01*
X161903656Y-92240500D01*
X161903658Y-92240500D01*
X162061344Y-92240500D01*
X162061345Y-92240499D01*
X162215997Y-92209737D01*
X162361679Y-92149394D01*
X162492789Y-92061789D01*
X162604289Y-91950289D01*
X162691894Y-91819179D01*
X162752237Y-91673497D01*
X162783000Y-91518842D01*
X162783000Y-91361158D01*
X162783000Y-91361155D01*
X162782999Y-91361153D01*
X162752238Y-91206510D01*
X162752237Y-91206503D01*
X162752235Y-91206498D01*
X162691897Y-91060827D01*
X162691890Y-91060814D01*
X162604289Y-90929711D01*
X162604286Y-90929707D01*
X162492792Y-90818213D01*
X162492788Y-90818210D01*
X162361685Y-90730609D01*
X162361672Y-90730602D01*
X162216001Y-90670264D01*
X162215989Y-90670261D01*
X162061345Y-90639500D01*
X162061342Y-90639500D01*
X161903658Y-90639500D01*
X161903655Y-90639500D01*
X161749010Y-90670261D01*
X161748998Y-90670264D01*
X161603327Y-90730602D01*
X161603314Y-90730609D01*
X161472211Y-90818210D01*
X161472207Y-90818213D01*
X161360713Y-90929707D01*
X161360710Y-90929711D01*
X161273109Y-91060814D01*
X161273102Y-91060827D01*
X161212764Y-91206498D01*
X161212761Y-91206510D01*
X161182000Y-91361153D01*
X147320000Y-91361153D01*
X147320000Y-91005610D01*
X147339685Y-90938571D01*
X147384620Y-90896752D01*
X152908000Y-87884000D01*
X153494847Y-87297153D01*
X162294500Y-87297153D01*
X162294500Y-87454846D01*
X162325261Y-87609489D01*
X162325264Y-87609501D01*
X162385602Y-87755172D01*
X162385609Y-87755185D01*
X162473210Y-87886288D01*
X162473213Y-87886292D01*
X162584707Y-87997786D01*
X162584711Y-87997789D01*
X162715814Y-88085390D01*
X162715827Y-88085397D01*
X162861498Y-88145735D01*
X162861503Y-88145737D01*
X163016153Y-88176499D01*
X163016156Y-88176500D01*
X163016158Y-88176500D01*
X163173844Y-88176500D01*
X163173845Y-88176499D01*
X163328497Y-88145737D01*
X163474179Y-88085394D01*
X163605289Y-87997789D01*
X163716789Y-87886289D01*
X163740398Y-87850956D01*
X163794010Y-87806151D01*
X163863335Y-87797444D01*
X163926362Y-87827598D01*
X163946602Y-87850956D01*
X163970210Y-87886289D01*
X164081707Y-87997786D01*
X164081711Y-87997789D01*
X164212814Y-88085390D01*
X164212827Y-88085397D01*
X164358498Y-88145735D01*
X164358503Y-88145737D01*
X164513153Y-88176499D01*
X164513156Y-88176500D01*
X164513158Y-88176500D01*
X164670844Y-88176500D01*
X164670845Y-88176499D01*
X164825497Y-88145737D01*
X164971179Y-88085394D01*
X165102289Y-87997789D01*
X165213789Y-87886289D01*
X165301394Y-87755179D01*
X165361737Y-87609497D01*
X165392500Y-87454842D01*
X165392500Y-87297158D01*
X165392500Y-87297155D01*
X165392499Y-87297153D01*
X165361738Y-87142510D01*
X165361737Y-87142503D01*
X165340500Y-87091231D01*
X165301397Y-86996827D01*
X165301390Y-86996814D01*
X165213789Y-86865711D01*
X165213786Y-86865707D01*
X165102292Y-86754213D01*
X165102288Y-86754210D01*
X164971185Y-86666609D01*
X164971172Y-86666602D01*
X164825501Y-86606264D01*
X164825489Y-86606261D01*
X164670845Y-86575500D01*
X164670842Y-86575500D01*
X164513158Y-86575500D01*
X164513155Y-86575500D01*
X164358510Y-86606261D01*
X164358498Y-86606264D01*
X164212827Y-86666602D01*
X164212814Y-86666609D01*
X164081711Y-86754210D01*
X164081707Y-86754213D01*
X163970213Y-86865707D01*
X163946602Y-86901044D01*
X163892989Y-86945848D01*
X163823664Y-86954555D01*
X163760637Y-86924400D01*
X163740398Y-86901044D01*
X163716786Y-86865707D01*
X163605292Y-86754213D01*
X163605288Y-86754210D01*
X163474185Y-86666609D01*
X163474172Y-86666602D01*
X163328501Y-86606264D01*
X163328489Y-86606261D01*
X163173845Y-86575500D01*
X163173842Y-86575500D01*
X163016158Y-86575500D01*
X163016155Y-86575500D01*
X162861510Y-86606261D01*
X162861498Y-86606264D01*
X162715827Y-86666602D01*
X162715814Y-86666609D01*
X162584711Y-86754210D01*
X162584707Y-86754213D01*
X162473213Y-86865707D01*
X162473210Y-86865711D01*
X162385609Y-86996814D01*
X162385602Y-86996827D01*
X162325264Y-87142498D01*
X162325261Y-87142510D01*
X162294500Y-87297153D01*
X153494847Y-87297153D01*
X155233597Y-85558403D01*
X157910250Y-85558403D01*
X157910250Y-85716096D01*
X157941011Y-85870739D01*
X157941014Y-85870751D01*
X158001352Y-86016422D01*
X158001359Y-86016435D01*
X158088960Y-86147538D01*
X158088963Y-86147542D01*
X158200457Y-86259036D01*
X158200461Y-86259039D01*
X158331564Y-86346640D01*
X158331577Y-86346647D01*
X158477248Y-86406985D01*
X158477253Y-86406987D01*
X158631903Y-86437749D01*
X158631906Y-86437750D01*
X158631908Y-86437750D01*
X158789594Y-86437750D01*
X158789595Y-86437749D01*
X158944247Y-86406987D01*
X159089929Y-86346644D01*
X159221039Y-86259039D01*
X159332539Y-86147539D01*
X159420144Y-86016429D01*
X159480487Y-85870747D01*
X159511250Y-85716092D01*
X159511250Y-85558408D01*
X159511250Y-85558405D01*
X159511249Y-85558403D01*
X159480488Y-85403760D01*
X159480487Y-85403753D01*
X159480485Y-85403748D01*
X159420147Y-85258077D01*
X159420140Y-85258064D01*
X159332539Y-85126961D01*
X159332536Y-85126957D01*
X159221042Y-85015463D01*
X159221038Y-85015460D01*
X159089935Y-84927859D01*
X159089922Y-84927852D01*
X158944251Y-84867514D01*
X158944239Y-84867511D01*
X158789595Y-84836750D01*
X158789592Y-84836750D01*
X158631908Y-84836750D01*
X158631905Y-84836750D01*
X158477260Y-84867511D01*
X158477248Y-84867514D01*
X158331577Y-84927852D01*
X158331564Y-84927859D01*
X158200461Y-85015460D01*
X158200457Y-85015463D01*
X158088963Y-85126957D01*
X158088960Y-85126961D01*
X158001359Y-85258064D01*
X158001352Y-85258077D01*
X157941014Y-85403748D01*
X157941011Y-85403760D01*
X157910250Y-85558403D01*
X155233597Y-85558403D01*
X156972000Y-83820000D01*
X156972000Y-83741153D01*
X164807500Y-83741153D01*
X164807500Y-83898846D01*
X164838261Y-84053489D01*
X164838264Y-84053501D01*
X164898602Y-84199172D01*
X164898609Y-84199185D01*
X164986210Y-84330288D01*
X164986213Y-84330292D01*
X165097707Y-84441786D01*
X165097711Y-84441789D01*
X165228814Y-84529390D01*
X165228827Y-84529397D01*
X165374498Y-84589735D01*
X165374503Y-84589737D01*
X165529153Y-84620499D01*
X165529156Y-84620500D01*
X165529158Y-84620500D01*
X165686844Y-84620500D01*
X165686845Y-84620499D01*
X165841497Y-84589737D01*
X165987179Y-84529394D01*
X166118289Y-84441789D01*
X166229789Y-84330289D01*
X166317394Y-84199179D01*
X166377737Y-84053497D01*
X166408500Y-83898842D01*
X166408500Y-83741158D01*
X166408500Y-83741155D01*
X166408499Y-83741153D01*
X166377737Y-83586503D01*
X166366040Y-83558263D01*
X166317397Y-83440827D01*
X166317390Y-83440814D01*
X166229789Y-83309711D01*
X166229786Y-83309707D01*
X166118292Y-83198213D01*
X166118288Y-83198210D01*
X165987185Y-83110609D01*
X165987172Y-83110602D01*
X165841501Y-83050264D01*
X165841489Y-83050261D01*
X165686845Y-83019500D01*
X165686842Y-83019500D01*
X165529158Y-83019500D01*
X165529155Y-83019500D01*
X165374510Y-83050261D01*
X165374498Y-83050264D01*
X165228827Y-83110602D01*
X165228814Y-83110609D01*
X165097711Y-83198210D01*
X165097707Y-83198213D01*
X164986213Y-83309707D01*
X164986210Y-83309711D01*
X164898609Y-83440814D01*
X164898602Y-83440827D01*
X164838264Y-83586498D01*
X164838261Y-83586510D01*
X164807500Y-83741153D01*
X156972000Y-83741153D01*
X156972000Y-82725153D01*
X161251500Y-82725153D01*
X161251500Y-82882846D01*
X161282261Y-83037489D01*
X161282264Y-83037501D01*
X161342602Y-83183172D01*
X161342609Y-83183185D01*
X161430210Y-83314288D01*
X161430213Y-83314292D01*
X161541707Y-83425786D01*
X161541711Y-83425789D01*
X161672814Y-83513390D01*
X161672827Y-83513397D01*
X161781145Y-83558263D01*
X161818503Y-83573737D01*
X161973153Y-83604499D01*
X161973156Y-83604500D01*
X161973158Y-83604500D01*
X162130844Y-83604500D01*
X162130845Y-83604499D01*
X162285497Y-83573737D01*
X162431179Y-83513394D01*
X162562289Y-83425789D01*
X162673789Y-83314289D01*
X162761394Y-83183179D01*
X162821737Y-83037497D01*
X162852500Y-82882842D01*
X162852500Y-82725158D01*
X162852500Y-82725155D01*
X162852499Y-82725153D01*
X162821738Y-82570510D01*
X162821737Y-82570503D01*
X162821735Y-82570498D01*
X162761397Y-82424827D01*
X162761390Y-82424814D01*
X162673789Y-82293711D01*
X162673786Y-82293707D01*
X162562292Y-82182213D01*
X162562288Y-82182210D01*
X162431185Y-82094609D01*
X162431172Y-82094602D01*
X162285501Y-82034264D01*
X162285489Y-82034261D01*
X162130845Y-82003500D01*
X162130842Y-82003500D01*
X161973158Y-82003500D01*
X161973155Y-82003500D01*
X161818510Y-82034261D01*
X161818498Y-82034264D01*
X161672827Y-82094602D01*
X161672814Y-82094609D01*
X161541711Y-82182210D01*
X161541707Y-82182213D01*
X161430213Y-82293707D01*
X161430210Y-82293711D01*
X161342609Y-82424814D01*
X161342602Y-82424827D01*
X161282264Y-82570498D01*
X161282261Y-82570510D01*
X161251500Y-82725153D01*
X156972000Y-82725153D01*
X156972000Y-78784893D01*
X156979119Y-78760645D01*
X156982234Y-78735564D01*
X156990359Y-78722368D01*
X156991685Y-78717854D01*
X157000727Y-78705526D01*
X157030674Y-78669590D01*
X162878481Y-78669590D01*
X162878481Y-78827283D01*
X162909242Y-78981926D01*
X162909245Y-78981938D01*
X162969583Y-79127609D01*
X162969590Y-79127622D01*
X163057191Y-79258725D01*
X163057194Y-79258729D01*
X163168688Y-79370223D01*
X163168692Y-79370226D01*
X163299795Y-79457827D01*
X163299808Y-79457834D01*
X163445479Y-79518172D01*
X163445484Y-79518174D01*
X163600134Y-79548936D01*
X163600137Y-79548937D01*
X163600139Y-79548937D01*
X163757825Y-79548937D01*
X163757826Y-79548936D01*
X163912478Y-79518174D01*
X164058160Y-79457831D01*
X164189270Y-79370226D01*
X164300770Y-79258726D01*
X164388375Y-79127616D01*
X164448718Y-78981934D01*
X164479481Y-78827279D01*
X164479481Y-78669595D01*
X164479481Y-78669592D01*
X164479480Y-78669590D01*
X164448718Y-78514940D01*
X164439936Y-78493738D01*
X164388378Y-78369264D01*
X164388371Y-78369251D01*
X164300770Y-78238148D01*
X164300767Y-78238144D01*
X164189273Y-78126650D01*
X164189269Y-78126647D01*
X164058166Y-78039046D01*
X164058153Y-78039039D01*
X163912482Y-77978701D01*
X163912470Y-77978698D01*
X163757826Y-77947937D01*
X163757823Y-77947937D01*
X163600139Y-77947937D01*
X163600136Y-77947937D01*
X163445491Y-77978698D01*
X163445479Y-77978701D01*
X163299808Y-78039039D01*
X163299795Y-78039046D01*
X163168692Y-78126647D01*
X163168688Y-78126650D01*
X163057194Y-78238144D01*
X163057191Y-78238148D01*
X162969590Y-78369251D01*
X162969583Y-78369264D01*
X162909245Y-78514935D01*
X162909242Y-78514947D01*
X162878481Y-78669590D01*
X157030674Y-78669590D01*
X157884372Y-77645153D01*
X160743500Y-77645153D01*
X160743500Y-77802846D01*
X160774261Y-77957489D01*
X160774264Y-77957501D01*
X160834602Y-78103172D01*
X160834609Y-78103185D01*
X160922210Y-78234288D01*
X160922213Y-78234292D01*
X161033707Y-78345786D01*
X161033711Y-78345789D01*
X161164814Y-78433390D01*
X161164827Y-78433397D01*
X161310498Y-78493735D01*
X161310503Y-78493737D01*
X161465153Y-78524499D01*
X161465156Y-78524500D01*
X161465158Y-78524500D01*
X161622844Y-78524500D01*
X161622845Y-78524499D01*
X161777497Y-78493737D01*
X161923179Y-78433394D01*
X162054289Y-78345789D01*
X162165789Y-78234289D01*
X162253394Y-78103179D01*
X162313737Y-77957497D01*
X162344500Y-77802842D01*
X162344500Y-77645158D01*
X162344500Y-77645155D01*
X162344499Y-77645153D01*
X162313738Y-77490510D01*
X162313737Y-77490503D01*
X162276827Y-77401394D01*
X162253397Y-77344827D01*
X162253390Y-77344814D01*
X162165789Y-77213711D01*
X162165786Y-77213707D01*
X162054292Y-77102213D01*
X162054288Y-77102210D01*
X161923185Y-77014609D01*
X161923172Y-77014602D01*
X161777501Y-76954264D01*
X161777489Y-76954261D01*
X161622845Y-76923500D01*
X161622842Y-76923500D01*
X161465158Y-76923500D01*
X161465155Y-76923500D01*
X161310510Y-76954261D01*
X161310498Y-76954264D01*
X161164827Y-77014602D01*
X161164814Y-77014609D01*
X161033711Y-77102210D01*
X161033707Y-77102213D01*
X160922213Y-77213707D01*
X160922210Y-77213711D01*
X160834609Y-77344814D01*
X160834602Y-77344827D01*
X160774264Y-77490498D01*
X160774261Y-77490510D01*
X160743500Y-77645153D01*
X157884372Y-77645153D01*
X159512000Y-75692000D01*
X159512000Y-70104000D01*
X158592036Y-67037456D01*
X158591627Y-66967592D01*
X158629057Y-66908593D01*
X158692441Y-66879197D01*
X158761657Y-66888735D01*
X158767102Y-66891344D01*
X158777970Y-66896882D01*
X158777972Y-66896882D01*
X158777975Y-66896884D01*
X158878317Y-66929487D01*
X158965173Y-66957709D01*
X159159578Y-66988500D01*
X159159583Y-66988500D01*
X159356422Y-66988500D01*
X159550826Y-66957709D01*
X159552328Y-66957221D01*
X159738025Y-66896884D01*
X159913405Y-66807524D01*
X160072646Y-66691828D01*
X160211828Y-66552646D01*
X160327524Y-66393405D01*
X160416884Y-66218025D01*
X160416884Y-66218022D01*
X160417795Y-66216236D01*
X160465769Y-66165440D01*
X160533590Y-66148644D01*
X160599725Y-66171181D01*
X160638765Y-66216235D01*
X160728905Y-66393145D01*
X160754319Y-66428125D01*
X160754320Y-66428125D01*
X161398000Y-65784445D01*
X161398000Y-65790661D01*
X161425259Y-65892394D01*
X161477920Y-65983606D01*
X161552394Y-66058080D01*
X161643606Y-66110741D01*
X161745339Y-66138000D01*
X161751553Y-66138000D01*
X161107873Y-66781677D01*
X161107873Y-66781678D01*
X161142858Y-66807096D01*
X161318164Y-66896418D01*
X161505294Y-66957221D01*
X161699618Y-66988000D01*
X161896382Y-66988000D01*
X162090705Y-66957221D01*
X162277835Y-66896418D01*
X162453143Y-66807095D01*
X162488125Y-66781678D01*
X162488126Y-66781678D01*
X161844448Y-66138000D01*
X161850661Y-66138000D01*
X161952394Y-66110741D01*
X162043606Y-66058080D01*
X162118080Y-65983606D01*
X162170741Y-65892394D01*
X162198000Y-65790661D01*
X162198000Y-65784448D01*
X162841678Y-66428126D01*
X162841678Y-66428125D01*
X162867095Y-66393143D01*
X162956418Y-66217835D01*
X163017221Y-66030705D01*
X163048000Y-65836382D01*
X163048000Y-65639617D01*
X163017221Y-65445294D01*
X162956418Y-65258164D01*
X162867096Y-65082858D01*
X162841678Y-65047873D01*
X162841677Y-65047873D01*
X162198000Y-65691551D01*
X162198000Y-65685339D01*
X162170741Y-65583606D01*
X162118080Y-65492394D01*
X162043606Y-65417920D01*
X161952394Y-65365259D01*
X161850661Y-65338000D01*
X161844447Y-65338000D01*
X162488125Y-64694320D01*
X162488125Y-64694319D01*
X162453145Y-64668905D01*
X162277835Y-64579581D01*
X162090705Y-64518778D01*
X161896382Y-64488000D01*
X161699618Y-64488000D01*
X161505294Y-64518778D01*
X161318161Y-64579582D01*
X161142863Y-64668899D01*
X161142859Y-64668902D01*
X161107873Y-64694320D01*
X161107872Y-64694320D01*
X161751554Y-65338000D01*
X161745339Y-65338000D01*
X161643606Y-65365259D01*
X161552394Y-65417920D01*
X161477920Y-65492394D01*
X161425259Y-65583606D01*
X161398000Y-65685339D01*
X161398000Y-65691552D01*
X160754320Y-65047872D01*
X160754320Y-65047873D01*
X160728902Y-65082859D01*
X160638765Y-65259764D01*
X160590790Y-65310560D01*
X160522969Y-65327355D01*
X160456835Y-65304818D01*
X160417795Y-65259763D01*
X160327525Y-65082596D01*
X160293849Y-65036246D01*
X160211828Y-64923354D01*
X160072646Y-64784172D01*
X159913405Y-64668476D01*
X159738029Y-64579117D01*
X159550826Y-64518290D01*
X159356422Y-64487500D01*
X159356417Y-64487500D01*
X159159583Y-64487500D01*
X159159578Y-64487500D01*
X158965173Y-64518290D01*
X158777970Y-64579117D01*
X158602594Y-64668476D01*
X158511741Y-64734485D01*
X158443354Y-64784172D01*
X158443352Y-64784174D01*
X158443351Y-64784174D01*
X158304173Y-64923352D01*
X158212318Y-65049779D01*
X158156987Y-65092444D01*
X158087374Y-65098423D01*
X158025579Y-65065817D01*
X157991222Y-65004978D01*
X157988000Y-64976893D01*
X157988000Y-62637852D01*
X158007685Y-62570813D01*
X158060489Y-62525058D01*
X158129647Y-62515114D01*
X158138318Y-62516677D01*
G37*
%TD.AperFunction*%
%TD*%
%TA.AperFunction,Conductor*%
%TO.N,VDD*%
G36*
X157423039Y-62503685D02*
G01*
X157468794Y-62556489D01*
X157480000Y-62608000D01*
X157480000Y-64521001D01*
X157460315Y-64588040D01*
X157407511Y-64633795D01*
X157338353Y-64643739D01*
X157299705Y-64631486D01*
X157197835Y-64579581D01*
X157010705Y-64518778D01*
X156816382Y-64488000D01*
X156619618Y-64488000D01*
X156425294Y-64518778D01*
X156238161Y-64579582D01*
X156062863Y-64668899D01*
X156062859Y-64668902D01*
X156027873Y-64694320D01*
X156027872Y-64694320D01*
X156671553Y-65338000D01*
X156665339Y-65338000D01*
X156563606Y-65365259D01*
X156472394Y-65417920D01*
X156397920Y-65492394D01*
X156345259Y-65583606D01*
X156318000Y-65685339D01*
X156318000Y-65691552D01*
X155674320Y-65047872D01*
X155674320Y-65047873D01*
X155648902Y-65082859D01*
X155558765Y-65259764D01*
X155510790Y-65310560D01*
X155442969Y-65327355D01*
X155376835Y-65304818D01*
X155337795Y-65259763D01*
X155247525Y-65082596D01*
X155219121Y-65043502D01*
X155131828Y-64923354D01*
X154992646Y-64784172D01*
X154833405Y-64668476D01*
X154784856Y-64643739D01*
X154658029Y-64579117D01*
X154470826Y-64518290D01*
X154276422Y-64487500D01*
X154276417Y-64487500D01*
X154079583Y-64487500D01*
X154079578Y-64487500D01*
X153885173Y-64518290D01*
X153697970Y-64579117D01*
X153522594Y-64668476D01*
X153431741Y-64734485D01*
X153363354Y-64784172D01*
X153363352Y-64784174D01*
X153363351Y-64784174D01*
X153224174Y-64923351D01*
X153224174Y-64923352D01*
X153224172Y-64923354D01*
X153184994Y-64977278D01*
X153108476Y-65082594D01*
X153019117Y-65257970D01*
X152958290Y-65445173D01*
X152927500Y-65639577D01*
X152927500Y-65836422D01*
X152958290Y-66030826D01*
X153019117Y-66218029D01*
X153108344Y-66393145D01*
X153108476Y-66393405D01*
X153224172Y-66552646D01*
X153363354Y-66691828D01*
X153522595Y-66807524D01*
X153562817Y-66828018D01*
X153697970Y-66896882D01*
X153697972Y-66896882D01*
X153697975Y-66896884D01*
X153798317Y-66929487D01*
X153885173Y-66957709D01*
X154079578Y-66988500D01*
X154079583Y-66988500D01*
X154276422Y-66988500D01*
X154470826Y-66957709D01*
X154472328Y-66957221D01*
X154658025Y-66896884D01*
X154833405Y-66807524D01*
X154992646Y-66691828D01*
X155131828Y-66552646D01*
X155247524Y-66393405D01*
X155336884Y-66218025D01*
X155336884Y-66218022D01*
X155337795Y-66216236D01*
X155385769Y-66165440D01*
X155453590Y-66148644D01*
X155519725Y-66171181D01*
X155558765Y-66216235D01*
X155648905Y-66393145D01*
X155674319Y-66428125D01*
X155674320Y-66428125D01*
X156318000Y-65784445D01*
X156318000Y-65790661D01*
X156345259Y-65892394D01*
X156397920Y-65983606D01*
X156472394Y-66058080D01*
X156563606Y-66110741D01*
X156665339Y-66138000D01*
X156671553Y-66138000D01*
X156027873Y-66781677D01*
X156027873Y-66781678D01*
X156062858Y-66807096D01*
X156238164Y-66896418D01*
X156425294Y-66957221D01*
X156619618Y-66988000D01*
X156816382Y-66988000D01*
X157010705Y-66957221D01*
X157197835Y-66896418D01*
X157373143Y-66807095D01*
X157408125Y-66781678D01*
X157408126Y-66781678D01*
X156764448Y-66138000D01*
X156770661Y-66138000D01*
X156872394Y-66110741D01*
X156963606Y-66058080D01*
X157038080Y-65983606D01*
X157090741Y-65892394D01*
X157118000Y-65790661D01*
X157118000Y-65784446D01*
X157761677Y-66428125D01*
X157798270Y-66425246D01*
X157866647Y-66439610D01*
X157916404Y-66488661D01*
X157926769Y-66513233D01*
X158085611Y-67042705D01*
X158089473Y-67059970D01*
X158107855Y-67182710D01*
X158107856Y-67182717D01*
X158659695Y-69022174D01*
X158799472Y-69488099D01*
X158998770Y-70152422D01*
X159004000Y-70188053D01*
X159004000Y-71250485D01*
X158984315Y-71317524D01*
X158931511Y-71363279D01*
X158862353Y-71373223D01*
X158832548Y-71365046D01*
X158729501Y-71322363D01*
X158729489Y-71322360D01*
X158574845Y-71291599D01*
X158574842Y-71291599D01*
X158417158Y-71291599D01*
X158417155Y-71291599D01*
X158262510Y-71322360D01*
X158262498Y-71322363D01*
X158116827Y-71382701D01*
X158116814Y-71382708D01*
X157985711Y-71470309D01*
X157985707Y-71470312D01*
X157874213Y-71581806D01*
X157874210Y-71581810D01*
X157786609Y-71712913D01*
X157786602Y-71712926D01*
X157726264Y-71858597D01*
X157726261Y-71858609D01*
X157695500Y-72013252D01*
X157695500Y-72170945D01*
X157726261Y-72325588D01*
X157726264Y-72325600D01*
X157786602Y-72471271D01*
X157786609Y-72471284D01*
X157874210Y-72602387D01*
X157874213Y-72602391D01*
X157985707Y-72713885D01*
X157985711Y-72713888D01*
X158116814Y-72801489D01*
X158116827Y-72801496D01*
X158262498Y-72861834D01*
X158262503Y-72861836D01*
X158417153Y-72892598D01*
X158417156Y-72892599D01*
X158417158Y-72892599D01*
X158574844Y-72892599D01*
X158574845Y-72892598D01*
X158729497Y-72861836D01*
X158832549Y-72819150D01*
X158902017Y-72811682D01*
X158964496Y-72842957D01*
X159000148Y-72903046D01*
X159004000Y-72933712D01*
X159004000Y-75467089D01*
X158984315Y-75534128D01*
X158975259Y-75546472D01*
X157496036Y-77321540D01*
X157184868Y-77694941D01*
X156643261Y-78344869D01*
X156643247Y-78344886D01*
X156642340Y-78345975D01*
X156612393Y-78381911D01*
X156593112Y-78406560D01*
X156584070Y-78418888D01*
X156581832Y-78422144D01*
X156580595Y-78423701D01*
X156577609Y-78428290D01*
X156566464Y-78444509D01*
X156566457Y-78444521D01*
X156565778Y-78446008D01*
X156558592Y-78459471D01*
X156551795Y-78470511D01*
X156551787Y-78470524D01*
X156518461Y-78534454D01*
X156510449Y-78563816D01*
X156507007Y-78574497D01*
X156506668Y-78575403D01*
X156501994Y-78591326D01*
X156501990Y-78591341D01*
X156490901Y-78629090D01*
X156490886Y-78629158D01*
X156486975Y-78642480D01*
X156486969Y-78642507D01*
X156485821Y-78650492D01*
X156482715Y-78665465D01*
X156480586Y-78673268D01*
X156478239Y-78692168D01*
X156467069Y-78717973D01*
X156471406Y-78719543D01*
X156464000Y-78740000D01*
X156464000Y-79930386D01*
X156444315Y-79997425D01*
X156391511Y-80043180D01*
X156322353Y-80053124D01*
X156292548Y-80044947D01*
X156189501Y-80002264D01*
X156189489Y-80002261D01*
X156034845Y-79971500D01*
X156034842Y-79971500D01*
X155877158Y-79971500D01*
X155877155Y-79971500D01*
X155722510Y-80002261D01*
X155722498Y-80002264D01*
X155576827Y-80062602D01*
X155576814Y-80062609D01*
X155445711Y-80150210D01*
X155445707Y-80150213D01*
X155334213Y-80261707D01*
X155334210Y-80261711D01*
X155246609Y-80392814D01*
X155246602Y-80392827D01*
X155186264Y-80538498D01*
X155186261Y-80538510D01*
X155155500Y-80693153D01*
X155155500Y-80850846D01*
X155186261Y-81005489D01*
X155186264Y-81005501D01*
X155246602Y-81151172D01*
X155246609Y-81151185D01*
X155334210Y-81282288D01*
X155334213Y-81282292D01*
X155445707Y-81393786D01*
X155445711Y-81393789D01*
X155576814Y-81481390D01*
X155576827Y-81481397D01*
X155722498Y-81541735D01*
X155722503Y-81541737D01*
X155877153Y-81572499D01*
X155877156Y-81572500D01*
X155877158Y-81572500D01*
X156034844Y-81572500D01*
X156034845Y-81572499D01*
X156189497Y-81541737D01*
X156292549Y-81499051D01*
X156362017Y-81491583D01*
X156424496Y-81522858D01*
X156460148Y-81582947D01*
X156464000Y-81613613D01*
X156464000Y-83264855D01*
X156444315Y-83331894D01*
X156432679Y-83347236D01*
X154057488Y-86019326D01*
X154052490Y-86024626D01*
X153137405Y-86939711D01*
X152730176Y-87346938D01*
X152730174Y-87346940D01*
X152730174Y-87346941D01*
X152672062Y-87405053D01*
X152614662Y-87462453D01*
X152586359Y-87483630D01*
X147503378Y-90256165D01*
X147435098Y-90270986D01*
X147369645Y-90246540D01*
X147327799Y-90190587D01*
X147320000Y-90147306D01*
X147320000Y-83741153D01*
X152615500Y-83741153D01*
X152615500Y-83898846D01*
X152646261Y-84053489D01*
X152646264Y-84053501D01*
X152706602Y-84199172D01*
X152706609Y-84199185D01*
X152794210Y-84330288D01*
X152794213Y-84330292D01*
X152905707Y-84441786D01*
X152905711Y-84441789D01*
X153036814Y-84529390D01*
X153036827Y-84529397D01*
X153182498Y-84589735D01*
X153182503Y-84589737D01*
X153337153Y-84620499D01*
X153337156Y-84620500D01*
X153337158Y-84620500D01*
X153494844Y-84620500D01*
X153494845Y-84620499D01*
X153649497Y-84589737D01*
X153795179Y-84529394D01*
X153926289Y-84441789D01*
X154037789Y-84330289D01*
X154125394Y-84199179D01*
X154185737Y-84053497D01*
X154216500Y-83898842D01*
X154216500Y-83741158D01*
X154216500Y-83741155D01*
X154216499Y-83741153D01*
X154204387Y-83680263D01*
X154185737Y-83586503D01*
X154160262Y-83525000D01*
X154125397Y-83440827D01*
X154125390Y-83440814D01*
X154037789Y-83309711D01*
X154037786Y-83309707D01*
X153926292Y-83198213D01*
X153926288Y-83198210D01*
X153795185Y-83110609D01*
X153795172Y-83110602D01*
X153649501Y-83050264D01*
X153649489Y-83050261D01*
X153494845Y-83019500D01*
X153494842Y-83019500D01*
X153337158Y-83019500D01*
X153337155Y-83019500D01*
X153182510Y-83050261D01*
X153182498Y-83050264D01*
X153036827Y-83110602D01*
X153036814Y-83110609D01*
X152905711Y-83198210D01*
X152905707Y-83198213D01*
X152794213Y-83309707D01*
X152794210Y-83309711D01*
X152706609Y-83440814D01*
X152706602Y-83440827D01*
X152646264Y-83586498D01*
X152646261Y-83586510D01*
X152615500Y-83741153D01*
X147320000Y-83741153D01*
X147320000Y-80627834D01*
X152550700Y-80627834D01*
X152550700Y-80785527D01*
X152581461Y-80940170D01*
X152581464Y-80940182D01*
X152641802Y-81085853D01*
X152641809Y-81085866D01*
X152729410Y-81216969D01*
X152729413Y-81216973D01*
X152840907Y-81328467D01*
X152840911Y-81328470D01*
X152972014Y-81416071D01*
X152972027Y-81416078D01*
X153073083Y-81457936D01*
X153117703Y-81476418D01*
X153272353Y-81507180D01*
X153272356Y-81507181D01*
X153272358Y-81507181D01*
X153430044Y-81507181D01*
X153430045Y-81507180D01*
X153584697Y-81476418D01*
X153730379Y-81416075D01*
X153861489Y-81328470D01*
X153972989Y-81216970D01*
X154060594Y-81085860D01*
X154120937Y-80940178D01*
X154151700Y-80785523D01*
X154151700Y-80627839D01*
X154151700Y-80627836D01*
X154151699Y-80627834D01*
X154136909Y-80553479D01*
X154120937Y-80473184D01*
X154101066Y-80425211D01*
X154060597Y-80327508D01*
X154060590Y-80327495D01*
X153972989Y-80196392D01*
X153972986Y-80196388D01*
X153861492Y-80084894D01*
X153861488Y-80084891D01*
X153730385Y-79997290D01*
X153730372Y-79997283D01*
X153584701Y-79936945D01*
X153584689Y-79936942D01*
X153430045Y-79906181D01*
X153430042Y-79906181D01*
X153272358Y-79906181D01*
X153272355Y-79906181D01*
X153117710Y-79936942D01*
X153117698Y-79936945D01*
X152972027Y-79997283D01*
X152972014Y-79997290D01*
X152840911Y-80084891D01*
X152840907Y-80084894D01*
X152729413Y-80196388D01*
X152729410Y-80196392D01*
X152641809Y-80327495D01*
X152641802Y-80327508D01*
X152581464Y-80473179D01*
X152581461Y-80473191D01*
X152550700Y-80627834D01*
X147320000Y-80627834D01*
X147320000Y-76613153D01*
X153107500Y-76613153D01*
X153107500Y-76770846D01*
X153138261Y-76925489D01*
X153138264Y-76925501D01*
X153198602Y-77071172D01*
X153198609Y-77071185D01*
X153286210Y-77202288D01*
X153286213Y-77202292D01*
X153397707Y-77313786D01*
X153397711Y-77313789D01*
X153528814Y-77401390D01*
X153528827Y-77401397D01*
X153674498Y-77461735D01*
X153674503Y-77461737D01*
X153829153Y-77492499D01*
X153829156Y-77492500D01*
X153829158Y-77492500D01*
X153986844Y-77492500D01*
X153986845Y-77492499D01*
X154141497Y-77461737D01*
X154287179Y-77401394D01*
X154418289Y-77313789D01*
X154529789Y-77202289D01*
X154617394Y-77071179D01*
X154677737Y-76925497D01*
X154708500Y-76770842D01*
X154708500Y-76613158D01*
X154708500Y-76613155D01*
X154708499Y-76613153D01*
X154677738Y-76458510D01*
X154677737Y-76458503D01*
X154677735Y-76458498D01*
X154617397Y-76312827D01*
X154617390Y-76312814D01*
X154529789Y-76181711D01*
X154529786Y-76181707D01*
X154418292Y-76070213D01*
X154418288Y-76070210D01*
X154287185Y-75982609D01*
X154287172Y-75982602D01*
X154141501Y-75922264D01*
X154141489Y-75922261D01*
X153986845Y-75891500D01*
X153986842Y-75891500D01*
X153829158Y-75891500D01*
X153829155Y-75891500D01*
X153674510Y-75922261D01*
X153674498Y-75922264D01*
X153528827Y-75982602D01*
X153528814Y-75982609D01*
X153397711Y-76070210D01*
X153397707Y-76070213D01*
X153286213Y-76181707D01*
X153286210Y-76181711D01*
X153198609Y-76312814D01*
X153198602Y-76312827D01*
X153138264Y-76458498D01*
X153138261Y-76458510D01*
X153107500Y-76613153D01*
X147320000Y-76613153D01*
X147320000Y-75642499D01*
X147339685Y-75575460D01*
X147392489Y-75529705D01*
X147443995Y-75518499D01*
X149233872Y-75518499D01*
X149293483Y-75512091D01*
X149428331Y-75461796D01*
X149543546Y-75375546D01*
X149629796Y-75260331D01*
X149680091Y-75125483D01*
X149682277Y-75105153D01*
X156171500Y-75105153D01*
X156171500Y-75262846D01*
X156202261Y-75417489D01*
X156202264Y-75417501D01*
X156262602Y-75563172D01*
X156262609Y-75563185D01*
X156350210Y-75694288D01*
X156350213Y-75694292D01*
X156461707Y-75805786D01*
X156461711Y-75805789D01*
X156592814Y-75893390D01*
X156592827Y-75893397D01*
X156738498Y-75953735D01*
X156738503Y-75953737D01*
X156893153Y-75984499D01*
X156893156Y-75984500D01*
X156893158Y-75984500D01*
X157050844Y-75984500D01*
X157050845Y-75984499D01*
X157205497Y-75953737D01*
X157351179Y-75893394D01*
X157482289Y-75805789D01*
X157593789Y-75694289D01*
X157681394Y-75563179D01*
X157741737Y-75417497D01*
X157772500Y-75262842D01*
X157772500Y-75105158D01*
X157772500Y-75105155D01*
X157772499Y-75105153D01*
X157741738Y-74950510D01*
X157741737Y-74950503D01*
X157741735Y-74950498D01*
X157681397Y-74804827D01*
X157681390Y-74804814D01*
X157593789Y-74673711D01*
X157593786Y-74673707D01*
X157482292Y-74562213D01*
X157482288Y-74562210D01*
X157351185Y-74474609D01*
X157351172Y-74474602D01*
X157205501Y-74414264D01*
X157205489Y-74414261D01*
X157050845Y-74383500D01*
X157050842Y-74383500D01*
X156893158Y-74383500D01*
X156893155Y-74383500D01*
X156738510Y-74414261D01*
X156738498Y-74414264D01*
X156592827Y-74474602D01*
X156592814Y-74474609D01*
X156461711Y-74562210D01*
X156461707Y-74562213D01*
X156350213Y-74673707D01*
X156350210Y-74673711D01*
X156262609Y-74804814D01*
X156262602Y-74804827D01*
X156202264Y-74950498D01*
X156202261Y-74950510D01*
X156171500Y-75105153D01*
X149682277Y-75105153D01*
X149686500Y-75065873D01*
X149686499Y-73270128D01*
X149680091Y-73210517D01*
X149629796Y-73075669D01*
X149629795Y-73075668D01*
X149629793Y-73075664D01*
X149543547Y-72960455D01*
X149543544Y-72960452D01*
X149428335Y-72874206D01*
X149428328Y-72874202D01*
X149296917Y-72825189D01*
X149240983Y-72783318D01*
X149216566Y-72717853D01*
X149231418Y-72649580D01*
X149252563Y-72621332D01*
X149366104Y-72507792D01*
X149392629Y-72471284D01*
X149491048Y-72335820D01*
X149491047Y-72335820D01*
X149491051Y-72335816D01*
X149587557Y-72146412D01*
X149653246Y-71944243D01*
X149686500Y-71734287D01*
X149686500Y-71521713D01*
X149653246Y-71311757D01*
X149587557Y-71109588D01*
X149491051Y-70920184D01*
X149491049Y-70920181D01*
X149491048Y-70920179D01*
X149366109Y-70748213D01*
X149215786Y-70597890D01*
X149043817Y-70472949D01*
X149034504Y-70468204D01*
X148983707Y-70420230D01*
X148966912Y-70352409D01*
X148989449Y-70286274D01*
X149034507Y-70247232D01*
X149043555Y-70242622D01*
X149097716Y-70203270D01*
X149097717Y-70203270D01*
X148465409Y-69570962D01*
X148528993Y-69553925D01*
X148643007Y-69488099D01*
X148736099Y-69395007D01*
X148801925Y-69280993D01*
X148818962Y-69217408D01*
X149451270Y-69849717D01*
X149451270Y-69849716D01*
X149490622Y-69795554D01*
X149587095Y-69606217D01*
X149652757Y-69404130D01*
X149652757Y-69404127D01*
X149686000Y-69194246D01*
X149686000Y-68981753D01*
X149652757Y-68771872D01*
X149652757Y-68771869D01*
X149587095Y-68569782D01*
X149490624Y-68380449D01*
X149451270Y-68326282D01*
X149451269Y-68326282D01*
X148818962Y-68958590D01*
X148801925Y-68895007D01*
X148736099Y-68780993D01*
X148643007Y-68687901D01*
X148528993Y-68622075D01*
X148465407Y-68605036D01*
X149097716Y-67972728D01*
X149043550Y-67933375D01*
X148854217Y-67836904D01*
X148652129Y-67771242D01*
X148442246Y-67738000D01*
X148229754Y-67738000D01*
X148019872Y-67771242D01*
X148019869Y-67771242D01*
X147817782Y-67836904D01*
X147628446Y-67933376D01*
X147516885Y-68014430D01*
X147451078Y-68037909D01*
X147383024Y-68022083D01*
X147334330Y-67971977D01*
X147320000Y-67914111D01*
X147320000Y-65611339D01*
X147339685Y-65544300D01*
X147392037Y-65498752D01*
X147508125Y-65445173D01*
X148169041Y-65140134D01*
X148238157Y-65129914D01*
X148274804Y-65141002D01*
X148503960Y-65251357D01*
X148543199Y-65270254D01*
X148758215Y-65345491D01*
X148829480Y-65370428D01*
X148829492Y-65370432D01*
X149125201Y-65437926D01*
X149125210Y-65437927D01*
X149125215Y-65437928D01*
X149326138Y-65460566D01*
X149426601Y-65471885D01*
X149426604Y-65471886D01*
X149426607Y-65471886D01*
X149729924Y-65471886D01*
X149729925Y-65471885D01*
X149883958Y-65454530D01*
X150031312Y-65437928D01*
X150031315Y-65437927D01*
X150031327Y-65437926D01*
X150327036Y-65370432D01*
X150613329Y-65270254D01*
X150886605Y-65138651D01*
X151143428Y-64977278D01*
X151380568Y-64788165D01*
X151595043Y-64573690D01*
X151784156Y-64336550D01*
X151945529Y-64079727D01*
X152077132Y-63806451D01*
X152177310Y-63520158D01*
X152222419Y-63322523D01*
X152256525Y-63261548D01*
X152291340Y-63237535D01*
X153899272Y-62495413D01*
X153951235Y-62484000D01*
X157356000Y-62484000D01*
X157423039Y-62503685D01*
G37*
%TD.AperFunction*%
%TD*%
M02*
