M48
; DRILL file {KiCad 9.0.3} date 2026-02-14T21:05:36-0600
; FORMAT={-:-/ absolute / inch / decimal}
; #@! TF.CreationDate,2026-02-14T21:05:36-06:00
; #@! TF.GenerationSoftware,Kicad,Pcbnew,9.0.3
; #@! TF.FileFunction,Plated,1,4,PTH
FMAT,2
INCH
; #@! TA.AperFunction,Plated,PTH,ViaDrill
T1C0.0118
; #@! TA.AperFunction,Plated,PTH,ComponentDrill
T2C0.0315
; #@! TA.AperFunction,Plated,PTH,ComponentDrill
T3C0.0394
; #@! TA.AperFunction,Plated,PTH,ComponentDrill
T4C0.0866
%
G90
G05
T1
X5.88Y-3.32
X5.92Y-3.88
X6.0374Y-3.1774
X6.04Y-3.3
X6.04Y-3.58
X6.0594Y-3.0194
X6.14Y-3.18
X6.18Y-2.96
X6.1938Y-3.7138
X6.22Y-3.12
X6.24Y-2.8383
X6.2485Y-3.3715
X6.36Y-3.06
X6.3773Y-3.6
X6.38Y-3.26
X6.42Y-3.08
X6.4211Y-3.44
X6.4441Y-3.1003
X6.48Y-3.44
X6.5Y-3.5
X6.5Y-3.94
X6.5036Y-3.4177
X6.5169Y-3.6969
X6.52Y-3.3
X6.6194Y-2.88
X6.66Y-3.18
T2
X6.07Y-2.5881
X6.17Y-2.5881
X6.27Y-2.5881
X6.37Y-2.5881
T3
X5.84Y-2.72
X5.84Y-2.82
X5.84Y-2.92
X6.64Y-3.92
X6.64Y-4.02
X6.64Y-4.12
T4
X5.8889Y-2.4713
X5.8894Y-4.2698
X6.5906Y-2.4705
T3
G00X6.1406Y-4.0438
M15
G01X6.2194Y-4.0438
M16
G05
G00X6.1406Y-4.28
M15
G01X6.2194Y-4.28
M16
G05
G00X6.365Y-4.2013
M15
G01X6.365Y-4.1225
M16
G05
M30
