%TF.GenerationSoftware,KiCad,Pcbnew,9.0.3*%
%TF.CreationDate,2026-02-14T21:05:33-06:00*%
%TF.ProjectId,SimplifiedOpenLeadVoltmeter,53696d70-6c69-4666-9965-644f70656e4c,rev?*%
%TF.SameCoordinates,Original*%
%TF.FileFunction,Copper,L1,Top*%
%TF.FilePolarity,Positive*%
%FSLAX46Y46*%
G04 Gerber Fmt 4.6, Leading zero omitted, Abs format (unit mm)*
G04 Created by KiCad (PCBNEW 9.0.3) date 2026-02-14 21:05:33*
%MOMM*%
%LPD*%
G01*
G04 APERTURE LIST*
G04 Aperture macros list*
%AMRoundRect*
0 Rectangle with rounded corners*
0 $1 Rounding radius*
0 $2 $3 $4 $5 $6 $7 $8 $9 X,Y pos of 4 corners*
0 Add a 4 corners polygon primitive as box body*
4,1,4,$2,$3,$4,$5,$6,$7,$8,$9,$2,$3,0*
0 Add four circle primitives for the rounded corners*
1,1,$1+$1,$2,$3*
1,1,$1+$1,$4,$5*
1,1,$1+$1,$6,$7*
1,1,$1+$1,$8,$9*
0 Add four rect primitives between the rounded corners*
20,1,$1+$1,$2,$3,$4,$5,0*
20,1,$1+$1,$4,$5,$6,$7,0*
20,1,$1+$1,$6,$7,$8,$9,0*
20,1,$1+$1,$8,$9,$2,$3,0*%
G04 Aperture macros list end*
%TA.AperFunction,ComponentPad*%
%ADD10C,1.500000*%
%TD*%
%TA.AperFunction,SMDPad,CuDef*%
%ADD11RoundRect,0.250000X-0.350000X-0.450000X0.350000X-0.450000X0.350000X0.450000X-0.350000X0.450000X0*%
%TD*%
%TA.AperFunction,SMDPad,CuDef*%
%ADD12RoundRect,0.150000X-0.825000X-0.150000X0.825000X-0.150000X0.825000X0.150000X-0.825000X0.150000X0*%
%TD*%
%TA.AperFunction,ComponentPad*%
%ADD13R,1.700000X1.700000*%
%TD*%
%TA.AperFunction,ComponentPad*%
%ADD14C,1.700000*%
%TD*%
%TA.AperFunction,ComponentPad*%
%ADD15C,4.400000*%
%TD*%
%TA.AperFunction,SMDPad,CuDef*%
%ADD16RoundRect,0.250000X0.350000X0.450000X-0.350000X0.450000X-0.350000X-0.450000X0.350000X-0.450000X0*%
%TD*%
%TA.AperFunction,SMDPad,CuDef*%
%ADD17C,1.000000*%
%TD*%
%TA.AperFunction,SMDPad,CuDef*%
%ADD18RoundRect,0.150000X0.150000X-0.587500X0.150000X0.587500X-0.150000X0.587500X-0.150000X-0.587500X0*%
%TD*%
%TA.AperFunction,SMDPad,CuDef*%
%ADD19RoundRect,0.250000X0.337500X0.475000X-0.337500X0.475000X-0.337500X-0.475000X0.337500X-0.475000X0*%
%TD*%
%TA.AperFunction,SMDPad,CuDef*%
%ADD20RoundRect,0.225000X0.375000X-0.225000X0.375000X0.225000X-0.375000X0.225000X-0.375000X-0.225000X0*%
%TD*%
%TA.AperFunction,ComponentPad*%
%ADD21R,3.500000X3.500000*%
%TD*%
%TA.AperFunction,ComponentPad*%
%ADD22RoundRect,0.750000X1.000000X-0.750000X1.000000X0.750000X-1.000000X0.750000X-1.000000X-0.750000X0*%
%TD*%
%TA.AperFunction,ComponentPad*%
%ADD23RoundRect,0.875000X0.875000X-0.875000X0.875000X0.875000X-0.875000X0.875000X-0.875000X-0.875000X0*%
%TD*%
%TA.AperFunction,SMDPad,CuDef*%
%ADD24R,1.100000X0.250000*%
%TD*%
%TA.AperFunction,SMDPad,CuDef*%
%ADD25RoundRect,0.250000X0.450000X-0.350000X0.450000X0.350000X-0.450000X0.350000X-0.450000X-0.350000X0*%
%TD*%
%TA.AperFunction,SMDPad,CuDef*%
%ADD26RoundRect,0.150000X-0.587500X-0.150000X0.587500X-0.150000X0.587500X0.150000X-0.587500X0.150000X0*%
%TD*%
%TA.AperFunction,SMDPad,CuDef*%
%ADD27RoundRect,0.150000X-0.625000X0.150000X-0.625000X-0.150000X0.625000X-0.150000X0.625000X0.150000X0*%
%TD*%
%TA.AperFunction,SMDPad,CuDef*%
%ADD28RoundRect,0.250000X-0.650000X0.350000X-0.650000X-0.350000X0.650000X-0.350000X0.650000X0.350000X0*%
%TD*%
%TA.AperFunction,SMDPad,CuDef*%
%ADD29RoundRect,0.250000X-0.475000X0.337500X-0.475000X-0.337500X0.475000X-0.337500X0.475000X0.337500X0*%
%TD*%
%TA.AperFunction,SMDPad,CuDef*%
%ADD30RoundRect,0.250000X-0.337500X-0.475000X0.337500X-0.475000X0.337500X0.475000X-0.337500X0.475000X0*%
%TD*%
%TA.AperFunction,ViaPad*%
%ADD31C,0.600000*%
%TD*%
%TA.AperFunction,Conductor*%
%ADD32C,0.200000*%
%TD*%
G04 APERTURE END LIST*
D10*
%TO.P,U14,4,Vout+*%
%TO.N,5V-iso*%
X161798000Y-65738000D03*
%TO.P,U14,3,Vout-*%
%TO.N,Gnd-iso*%
X159258000Y-65738000D03*
%TO.P,U14,2,VIN+*%
%TO.N,VDD*%
X156718000Y-65738000D03*
%TO.P,U14,1,VIN-*%
%TO.N,GND*%
X154178000Y-65738000D03*
%TD*%
D11*
%TO.P,R1,2*%
%TO.N,SDA*%
X153908000Y-73152000D03*
%TO.P,R1,1*%
%TO.N,VDD*%
X151908000Y-73152000D03*
%TD*%
%TO.P,R2,2*%
%TO.N,SCL*%
X153908000Y-69596000D03*
%TO.P,R2,1*%
%TO.N,VDD*%
X151908000Y-69596000D03*
%TD*%
D12*
%TO.P,U1,8,VDD2*%
%TO.N,5V-iso*%
X161987000Y-70231000D03*
%TO.P,U1,7,VOA*%
%TO.N,/MOSFET_Gate*%
X161987000Y-71501000D03*
%TO.P,U1,6,VOB*%
%TO.N,/Signal2-ISO*%
X161987000Y-72771000D03*
%TO.P,U1,5,GND2*%
%TO.N,Gnd-iso*%
X161987000Y-74041000D03*
%TO.P,U1,4,GND1*%
%TO.N,GND*%
X157037000Y-74041000D03*
%TO.P,U1,3,VIB*%
%TO.N,/Signal2-MCU*%
X157037000Y-72771000D03*
%TO.P,U1,2,VIA*%
%TO.N,/Signal1-MCU*%
X157037000Y-71501000D03*
%TO.P,U1,1,VDD1*%
%TO.N,VDD*%
X157037000Y-70231000D03*
%TD*%
D13*
%TO.P,J2,1,Pin_1*%
%TO.N,GND*%
X148336000Y-74168000D03*
D14*
%TO.P,J2,2,Pin_2*%
%TO.N,unconnected-(J2-Pin_2-Pad2)*%
X148336000Y-71628000D03*
%TO.P,J2,3,Pin_3*%
%TO.N,VDD*%
X148336000Y-69088000D03*
%TD*%
D13*
%TO.P,J5,1,Pin_1*%
%TO.N,/Signal1-MCU*%
X168656000Y-99568000D03*
D14*
%TO.P,J5,2,Pin_2*%
%TO.N,SCL*%
X168656000Y-102108000D03*
%TO.P,J5,3,Pin_3*%
%TO.N,SDA*%
X168656000Y-104648000D03*
%TD*%
D15*
%TO.P,H3,1*%
%TO.N,N/C*%
X149590802Y-108453302D03*
%TD*%
%TO.P,H2,1*%
%TO.N,N/C*%
X167401197Y-62750455D03*
%TD*%
%TO.P,H1,1*%
%TO.N,N/C*%
X149578264Y-62771386D03*
%TD*%
D16*
%TO.P,R7,2*%
%TO.N,ADS_ALERT*%
X166132000Y-78740000D03*
%TO.P,R7,1*%
%TO.N,5V-iso*%
X168132000Y-78740000D03*
%TD*%
%TO.P,R5,2*%
%TO.N,SCL-5V*%
X166132000Y-75184000D03*
%TO.P,R5,1*%
%TO.N,5V-iso*%
X168132000Y-75184000D03*
%TD*%
%TO.P,R6,2*%
%TO.N,SDA-5V*%
X166132000Y-71628000D03*
%TO.P,R6,1*%
%TO.N,5V-iso*%
X168132000Y-71628000D03*
%TD*%
D17*
%TO.P,TP2,1,1*%
%TO.N,/AIN2*%
X168656000Y-93472000D03*
%TD*%
%TO.P,TP1,1,1*%
%TO.N,/AIN3*%
X167561500Y-85278000D03*
%TD*%
D18*
%TO.P,U10,3,nc_(gnd)*%
%TO.N,Gnd-iso*%
X158483500Y-84485000D03*
%TO.P,U10,2,A*%
X159433500Y-86360000D03*
%TO.P,U10,1,K*%
%TO.N,/AIN0*%
X157533500Y-86360000D03*
%TD*%
D19*
%TO.P,C17,2*%
%TO.N,/AIN0*%
X157380000Y-88900000D03*
%TO.P,C17,1*%
%TO.N,Gnd-iso*%
X159455000Y-88900000D03*
%TD*%
D20*
%TO.P,D4,2,A*%
%TO.N,/AIN1*%
X165529500Y-97600000D03*
%TO.P,D4,1,K*%
%TO.N,5V-iso*%
X165529500Y-100900000D03*
%TD*%
D21*
%TO.P,J14,1*%
%TO.N,V_Input_REF*%
X156972000Y-102712000D03*
D22*
%TO.P,J14,2*%
%TO.N,V_Input_Float*%
X156972000Y-108712000D03*
D23*
%TO.P,J14,3*%
%TO.N,N/C*%
X161672000Y-105712000D03*
%TD*%
D12*
%TO.P,U13,1,VCC1*%
%TO.N,VDD*%
X154672500Y-78740000D03*
%TO.P,U13,2,SDA1*%
%TO.N,SDA*%
X154672500Y-80010000D03*
%TO.P,U13,3,SCL1*%
%TO.N,SCL*%
X154672500Y-81280000D03*
%TO.P,U13,4,GND1*%
%TO.N,GND*%
X154672500Y-82550000D03*
%TO.P,U13,5,GND2*%
%TO.N,Gnd-iso*%
X159622500Y-82550000D03*
%TO.P,U13,6,SCL2*%
%TO.N,SCL-5V*%
X159622500Y-81280000D03*
%TO.P,U13,7,SDA2*%
%TO.N,SDA-5V*%
X159622500Y-80010000D03*
%TO.P,U13,8,VCC2*%
%TO.N,5V-iso*%
X159622500Y-78740000D03*
%TD*%
D24*
%TO.P,U3,1,ADDR*%
%TO.N,ADS_ADDR*%
X161982500Y-87580000D03*
%TO.P,U3,2,ALERT/RDY*%
%TO.N,ADS_ALERT*%
X161982500Y-88080000D03*
%TO.P,U3,3,GND*%
%TO.N,Gnd-iso*%
X161982500Y-88580000D03*
%TO.P,U3,4,AIN0*%
%TO.N,/AIN0*%
X161982500Y-89080000D03*
%TO.P,U3,5,AIN1*%
%TO.N,/AIN1*%
X161982500Y-89580000D03*
%TO.P,U3,6,AIN2*%
%TO.N,/AIN2*%
X166282500Y-89580000D03*
%TO.P,U3,7,AIN3*%
%TO.N,/AIN3*%
X166282500Y-89080000D03*
%TO.P,U3,8,VDD*%
%TO.N,5V-iso*%
X166282500Y-88580000D03*
%TO.P,U3,9,SDA*%
%TO.N,SDA-5V*%
X166282500Y-88080000D03*
%TO.P,U3,10,SCL*%
%TO.N,SCL-5V*%
X166282500Y-87580000D03*
%TD*%
D25*
%TO.P,R27,1*%
%TO.N,5V-iso*%
X154940000Y-89916000D03*
%TO.P,R27,2*%
%TO.N,/AIN0*%
X154940000Y-87916000D03*
%TD*%
D11*
%TO.P,R24,1*%
%TO.N,Net-(Q8-D)*%
X156385500Y-92964000D03*
%TO.P,R24,2*%
%TO.N,/AIN0*%
X158385500Y-92964000D03*
%TD*%
D25*
%TO.P,R18,1*%
%TO.N,V_Input_REF*%
X160957500Y-99502000D03*
%TO.P,R18,2*%
%TO.N,/AIN0*%
X160957500Y-97502000D03*
%TD*%
%TO.P,R17,1*%
%TO.N,V_Input_Float*%
X153924000Y-99044000D03*
%TO.P,R17,2*%
%TO.N,/AIN1*%
X153924000Y-97044000D03*
%TD*%
D16*
%TO.P,R14,1*%
%TO.N,/AIN0*%
X158147500Y-95504000D03*
%TO.P,R14,2*%
%TO.N,/AIN1*%
X156147500Y-95504000D03*
%TD*%
D11*
%TO.P,R12,1*%
%TO.N,ADS_ADDR*%
X166212500Y-82103000D03*
%TO.P,R12,2*%
%TO.N,Gnd-iso*%
X168212500Y-82103000D03*
%TD*%
D25*
%TO.P,R10,1*%
%TO.N,Gnd-iso*%
X148844000Y-97536000D03*
%TO.P,R10,2*%
%TO.N,/MOSFET_Gate*%
X148844000Y-95536000D03*
%TD*%
D26*
%TO.P,Q8,1,G*%
%TO.N,/MOSFET_Gate*%
X150446500Y-92014000D03*
%TO.P,Q8,2,S*%
%TO.N,/AIN1*%
X150446500Y-93914000D03*
%TO.P,Q8,3,D*%
%TO.N,Net-(Q8-D)*%
X152321500Y-92964000D03*
%TD*%
D27*
%TO.P,J3,1,Pin_1*%
%TO.N,GND*%
X151703000Y-83844000D03*
%TO.P,J3,2,Pin_2*%
%TO.N,VDD*%
X151703000Y-84844000D03*
%TO.P,J3,3,Pin_3*%
%TO.N,SDA*%
X151703000Y-85844000D03*
%TO.P,J3,4,Pin_4*%
%TO.N,SCL*%
X151703000Y-86844000D03*
D28*
%TO.P,J3,MP,MountPin*%
%TO.N,unconnected-(J3-MountPin-PadMP)*%
X147828000Y-82544000D03*
X147828000Y-88144000D03*
%TD*%
D20*
%TO.P,D5,1,K*%
%TO.N,/AIN1*%
X165529500Y-95565000D03*
%TO.P,D5,2,A*%
%TO.N,Gnd-iso*%
X165529500Y-92265000D03*
%TD*%
D29*
%TO.P,C8,1*%
%TO.N,VDD*%
X151892000Y-77702500D03*
%TO.P,C8,2*%
%TO.N,GND*%
X151892000Y-79777500D03*
%TD*%
%TO.P,C7,1*%
%TO.N,5V-iso*%
X162227500Y-79607500D03*
%TO.P,C7,2*%
%TO.N,Gnd-iso*%
X162227500Y-81682500D03*
%TD*%
D30*
%TO.P,C4,1*%
%TO.N,Gnd-iso*%
X163095000Y-85405000D03*
%TO.P,C4,2*%
%TO.N,5V-iso*%
X165170000Y-85405000D03*
%TD*%
D31*
%TO.N,/Signal1-MCU*%
X158496000Y-72092099D03*
%TO.N,5V-iso*%
X165192000Y-86810313D03*
X165100000Y-88900000D03*
%TO.N,SDA-5V*%
X161544000Y-77724000D03*
X164592000Y-87376000D03*
%TO.N,SCL-5V*%
X163678981Y-78748437D03*
X165608000Y-83820000D03*
%TO.N,SCL*%
X155956000Y-80772000D03*
%TO.N,5V-iso*%
X168132000Y-73152000D03*
X157988000Y-79248000D03*
X153416000Y-90932000D03*
%TO.N,Gnd-iso*%
X158710750Y-85637250D03*
X163095000Y-87376000D03*
X162052000Y-82804000D03*
%TO.N,5V-iso*%
X163068000Y-78232000D03*
%TO.N,SDA*%
X153908000Y-76692000D03*
X153416000Y-83820000D03*
X153351200Y-80706681D03*
%TO.N,/AIN1*%
X161982500Y-91440000D03*
X157321750Y-94329750D03*
%TO.N,Gnd-iso*%
X150368000Y-98552000D03*
%TO.N,5V-iso*%
X165100000Y-100076000D03*
%TO.N,Gnd-iso*%
X165529500Y-93901500D03*
X169164000Y-80772000D03*
%TO.N,VDD*%
X149352000Y-84328000D03*
%TO.N,GND*%
X156972000Y-75184000D03*
%TD*%
D32*
%TO.N,/MOSFET_Gate*%
X161987000Y-71501000D02*
X162961999Y-71501000D01*
X162961999Y-71501000D02*
X163263000Y-71802001D01*
X163263000Y-71802001D02*
X163263000Y-74481000D01*
%TO.N,Gnd-iso*%
X161012001Y-74041000D02*
X161987000Y-74041000D01*
%TO.N,unconnected-(J3-MountPin-PadMP)*%
X147828000Y-82544000D02*
X147828000Y-88144000D01*
%TO.N,SDA*%
X152908000Y-85062999D02*
X152126999Y-85844000D01*
X152126999Y-85844000D02*
X151352000Y-85844000D01*
X152908000Y-84328000D02*
X152908000Y-85062999D01*
X153416000Y-83820000D02*
X152908000Y-84328000D01*
%TO.N,5V-iso*%
X165170000Y-86798000D02*
X165157687Y-86810313D01*
X165170000Y-85405000D02*
X165170000Y-86798000D01*
X165157687Y-86810313D02*
X165192000Y-86810313D01*
X165420000Y-88580000D02*
X165100000Y-88900000D01*
X166282500Y-88580000D02*
X165420000Y-88580000D01*
%TO.N,SDA-5V*%
X161544000Y-77724000D02*
X160898500Y-78369500D01*
X165296000Y-88080000D02*
X164592000Y-87376000D01*
X166282500Y-88080000D02*
X165296000Y-88080000D01*
%TO.N,SCL-5V*%
X166282500Y-84494500D02*
X165608000Y-83820000D01*
X166282500Y-87580000D02*
X166282500Y-84494500D01*
%TO.N,5V-iso*%
X165529500Y-100505500D02*
X165100000Y-100076000D01*
X165529500Y-100900000D02*
X165529500Y-100505500D01*
%TO.N,/AIN1*%
X161982500Y-92018000D02*
X165529500Y-95565000D01*
X161982500Y-91440000D02*
X161982500Y-92018000D01*
X161982500Y-91440000D02*
X161982500Y-89580000D01*
%TO.N,/MOSFET_Gate*%
X150446500Y-90790968D02*
X150446500Y-92014000D01*
X158247057Y-78139000D02*
X156972000Y-79414057D01*
X159605000Y-78139000D02*
X158247057Y-78139000D01*
X156972000Y-79414057D02*
X156972000Y-84265468D01*
X156972000Y-84265468D02*
X150446500Y-90790968D01*
%TO.N,SDA-5V*%
X160597499Y-80010000D02*
X159622500Y-80010000D01*
X160898500Y-79708999D02*
X160597499Y-80010000D01*
X166132000Y-73136000D02*
X161544000Y-77724000D01*
X160898500Y-78369500D02*
X160898500Y-79708999D01*
X166132000Y-71628000D02*
X166132000Y-73136000D01*
%TO.N,SCL-5V*%
X162937660Y-80496000D02*
X163669000Y-79764660D01*
X163669000Y-77647000D02*
X166132000Y-75184000D01*
X160597499Y-81280000D02*
X161381499Y-80496000D01*
X161381499Y-80496000D02*
X162937660Y-80496000D01*
X163669000Y-79764660D02*
X163669000Y-77647000D01*
X159622500Y-81280000D02*
X160597499Y-81280000D01*
%TO.N,5V-iso*%
X168132000Y-73152000D02*
X168132000Y-79105000D01*
X168132000Y-75184000D02*
X168132000Y-74692000D01*
X168132000Y-79105000D02*
X168275000Y-79248000D01*
X168132000Y-71628000D02*
X168132000Y-73152000D01*
X158496000Y-78740000D02*
X157988000Y-79248000D01*
X159622500Y-78740000D02*
X158496000Y-78740000D01*
%TO.N,ADS_ADDR*%
X164785000Y-82103000D02*
X166212500Y-82103000D01*
X161982500Y-84905500D02*
X164785000Y-82103000D01*
X161982500Y-87580000D02*
X161982500Y-84905500D01*
%TO.N,Gnd-iso*%
X162052000Y-82804000D02*
X162052000Y-81858000D01*
X162052000Y-81858000D02*
X162227500Y-81682500D01*
%TO.N,ADS_ALERT*%
X161205500Y-88080000D02*
X161982500Y-88080000D01*
X161131500Y-85165471D02*
X161131500Y-88006000D01*
X166275000Y-80021971D02*
X161131500Y-85165471D01*
X161131500Y-88006000D02*
X161205500Y-88080000D01*
X166275000Y-79248000D02*
X166275000Y-80021971D01*
%TO.N,5V-iso*%
X153924000Y-90932000D02*
X153416000Y-90932000D01*
X154940000Y-89916000D02*
X153924000Y-90932000D01*
%TO.N,/AIN0*%
X155924000Y-88900000D02*
X154940000Y-87916000D01*
X157380000Y-88900000D02*
X155924000Y-88900000D01*
X157533500Y-88746500D02*
X157380000Y-88900000D01*
X157533500Y-86360000D02*
X157533500Y-88746500D01*
%TO.N,Gnd-iso*%
X158710750Y-85637250D02*
X159433500Y-86360000D01*
X163095000Y-87376000D02*
X163095000Y-88244500D01*
X163095000Y-88244500D02*
X162759500Y-88580000D01*
X163095000Y-85405000D02*
X163095000Y-87376000D01*
X162759500Y-88580000D02*
X161982500Y-88580000D01*
X158483500Y-85410000D02*
X158710750Y-85637250D01*
X158483500Y-84485000D02*
X158483500Y-85410000D01*
X158483500Y-83689000D02*
X158483500Y-84485000D01*
X159622500Y-82550000D02*
X158483500Y-83689000D01*
%TO.N,5V-iso*%
X162227500Y-79072500D02*
X163068000Y-78232000D01*
X162227500Y-79607500D02*
X162227500Y-79072500D01*
%TO.N,SDA*%
X153924000Y-76708000D02*
X153908000Y-76692000D01*
X153908000Y-73152000D02*
X153908000Y-76692000D01*
%TO.N,SCL*%
X155647499Y-81280000D02*
X154672500Y-81280000D01*
%TO.N,SDA*%
X153416000Y-80772000D02*
X153351200Y-80707200D01*
X154178000Y-80010000D02*
X153416000Y-80772000D01*
X153351200Y-80707200D02*
X153351200Y-80706681D01*
X154672500Y-80010000D02*
X154178000Y-80010000D01*
%TO.N,SCL*%
X152126999Y-86844000D02*
X151352000Y-86844000D01*
X155948500Y-83022499D02*
X152126999Y-86844000D01*
X155948500Y-81581001D02*
X155948500Y-83022499D01*
X155647499Y-81280000D02*
X155948500Y-81581001D01*
%TO.N,/AIN1*%
X157321750Y-94329750D02*
X156147500Y-95504000D01*
%TO.N,/AIN0*%
X158406000Y-89926000D02*
X157380000Y-88900000D01*
X160027660Y-89926000D02*
X158406000Y-89926000D01*
X160873660Y-89080000D02*
X160027660Y-89926000D01*
X161982500Y-89080000D02*
X160873660Y-89080000D01*
X157380000Y-91958500D02*
X158385500Y-92964000D01*
X157380000Y-88900000D02*
X157380000Y-91958500D01*
%TO.N,Gnd-iso*%
X159775000Y-88580000D02*
X161982500Y-88580000D01*
X159455000Y-88900000D02*
X159775000Y-88580000D01*
%TO.N,/AIN1*%
X153576500Y-97044000D02*
X153924000Y-97044000D01*
X150446500Y-93914000D02*
X153576500Y-97044000D01*
%TO.N,/MOSFET_Gate*%
X148844000Y-93616500D02*
X150446500Y-92014000D01*
X148844000Y-95536000D02*
X148844000Y-93616500D01*
%TO.N,Gnd-iso*%
X149352000Y-97536000D02*
X150368000Y-98552000D01*
X148844000Y-97536000D02*
X149352000Y-97536000D01*
%TO.N,Net-(Q8-D)*%
X152321500Y-92964000D02*
X156385500Y-92964000D01*
%TO.N,/AIN1*%
X155464000Y-95504000D02*
X156147500Y-95504000D01*
X153924000Y-97044000D02*
X155464000Y-95504000D01*
%TO.N,V_Input_Float*%
X153924000Y-105664000D02*
X156972000Y-108712000D01*
X153924000Y-99044000D02*
X153924000Y-105664000D01*
%TO.N,V_Input_REF*%
X160182000Y-99502000D02*
X156972000Y-102712000D01*
X160957500Y-99502000D02*
X160182000Y-99502000D01*
%TO.N,/AIN0*%
X158959500Y-95504000D02*
X160957500Y-97502000D01*
X158147500Y-95504000D02*
X158959500Y-95504000D01*
X158385500Y-95266000D02*
X158147500Y-95504000D01*
X158385500Y-92964000D02*
X158385500Y-95266000D01*
%TO.N,/AIN1*%
X165529500Y-95565000D02*
X165529500Y-97600000D01*
%TO.N,Gnd-iso*%
X165608000Y-93980000D02*
X165529500Y-93901500D01*
X165529500Y-92265000D02*
X165529500Y-93901500D01*
%TO.N,/AIN2*%
X166282500Y-91098500D02*
X168656000Y-93472000D01*
X166282500Y-89580000D02*
X166282500Y-91098500D01*
%TO.N,/AIN3*%
X167561500Y-88578000D02*
X167561500Y-85278000D01*
X167059500Y-89080000D02*
X167561500Y-88578000D01*
X166282500Y-89080000D02*
X167059500Y-89080000D01*
%TO.N,Gnd-iso*%
X168212500Y-81723500D02*
X169164000Y-80772000D01*
X168212500Y-82103000D02*
X168212500Y-81723500D01*
X159258000Y-65738000D02*
X159258000Y-72286999D01*
%TO.N,5V-iso*%
X161798000Y-70042000D02*
X161987000Y-70231000D01*
X161798000Y-65738000D02*
X161798000Y-70042000D01*
%TO.N,VDD*%
X149868000Y-84844000D02*
X149352000Y-84328000D01*
X151352000Y-84844000D02*
X149868000Y-84844000D01*
%TO.N,GND*%
X152646000Y-82550000D02*
X151352000Y-83844000D01*
X154672500Y-82550000D02*
X152646000Y-82550000D01*
X151892000Y-80365000D02*
X154077000Y-82550000D01*
X151892000Y-79777500D02*
X151892000Y-80365000D01*
X154077000Y-82550000D02*
X154672500Y-82550000D01*
X148336000Y-76221500D02*
X151892000Y-79777500D01*
X148336000Y-74168000D02*
X148336000Y-76221500D01*
%TO.N,VDD*%
X157037000Y-70231000D02*
X156718000Y-69912000D01*
X156718000Y-69912000D02*
X156718000Y-65738000D01*
X153635000Y-77702500D02*
X154672500Y-78740000D01*
X151892000Y-77702500D02*
X153635000Y-77702500D01*
%TO.N,Gnd-iso*%
X159258000Y-72286999D02*
X161012001Y-74041000D01*
%TO.N,/MOSFET_Gate*%
X163263000Y-74481000D02*
X159605000Y-78139000D01*
%TO.N,/Signal1-MCU*%
X158496000Y-72136000D02*
X158496000Y-72092099D01*
X157037000Y-71501000D02*
X157904901Y-71501000D01*
X157904901Y-71501000D02*
X158496000Y-72092099D01*
%TO.N,GND*%
X157037000Y-75119000D02*
X156972000Y-75184000D01*
X157037000Y-74041000D02*
X157037000Y-75119000D01*
%TO.N,SCL*%
X155948500Y-80978999D02*
X155647499Y-81280000D01*
X155948500Y-78399032D02*
X155948500Y-80978999D01*
X155761000Y-78211532D02*
X155948500Y-78399032D01*
X155761000Y-71449000D02*
X155761000Y-78211532D01*
X153908000Y-69596000D02*
X155761000Y-71449000D01*
%TO.N,VDD*%
X151908000Y-69596000D02*
X151908000Y-73152000D01*
X149352000Y-69596000D02*
X151908000Y-69596000D01*
X151908000Y-73152000D02*
X151908000Y-77686500D01*
X148336000Y-69088000D02*
X148844000Y-69088000D01*
X148844000Y-69088000D02*
X149352000Y-69596000D01*
X151908000Y-77686500D02*
X151892000Y-77702500D01*
%TD*%
M02*
