%TF.GenerationSoftware,KiCad,Pcbnew,9.0.3*%
%TF.CreationDate,2026-02-14T21:05:33-06:00*%
%TF.ProjectId,SimplifiedOpenLeadVoltmeter,53696d70-6c69-4666-9965-644f70656e4c,rev?*%
%TF.SameCoordinates,Original*%
%TF.FileFunction,Copper,L4,Bot*%
%TF.FilePolarity,Positive*%
%FSLAX46Y46*%
G04 Gerber Fmt 4.6, Leading zero omitted, Abs format (unit mm)*
G04 Created by KiCad (PCBNEW 9.0.3) date 2026-02-14 21:05:33*
%MOMM*%
%LPD*%
G01*
G04 APERTURE LIST*
G04 Aperture macros list*
%AMRoundRect*
0 Rectangle with rounded corners*
0 $1 Rounding radius*
0 $2 $3 $4 $5 $6 $7 $8 $9 X,Y pos of 4 corners*
0 Add a 4 corners polygon primitive as box body*
4,1,4,$2,$3,$4,$5,$6,$7,$8,$9,$2,$3,0*
0 Add four circle primitives for the rounded corners*
1,1,$1+$1,$2,$3*
1,1,$1+$1,$4,$5*
1,1,$1+$1,$6,$7*
1,1,$1+$1,$8,$9*
0 Add four rect primitives between the rounded corners*
20,1,$1+$1,$2,$3,$4,$5,0*
20,1,$1+$1,$4,$5,$6,$7,0*
20,1,$1+$1,$6,$7,$8,$9,0*
20,1,$1+$1,$8,$9,$2,$3,0*%
G04 Aperture macros list end*
%TA.AperFunction,ComponentPad*%
%ADD10C,1.500000*%
%TD*%
%TA.AperFunction,ComponentPad*%
%ADD11R,1.700000X1.700000*%
%TD*%
%TA.AperFunction,ComponentPad*%
%ADD12C,1.700000*%
%TD*%
%TA.AperFunction,ComponentPad*%
%ADD13C,4.400000*%
%TD*%
%TA.AperFunction,ComponentPad*%
%ADD14R,3.500000X3.500000*%
%TD*%
%TA.AperFunction,ComponentPad*%
%ADD15RoundRect,0.750000X1.000000X-0.750000X1.000000X0.750000X-1.000000X0.750000X-1.000000X-0.750000X0*%
%TD*%
%TA.AperFunction,ComponentPad*%
%ADD16RoundRect,0.875000X0.875000X-0.875000X0.875000X0.875000X-0.875000X0.875000X-0.875000X-0.875000X0*%
%TD*%
%TA.AperFunction,ViaPad*%
%ADD17C,0.600000*%
%TD*%
%TA.AperFunction,Conductor*%
%ADD18C,0.200000*%
%TD*%
G04 APERTURE END LIST*
D10*
%TO.P,U14,4,Vout+*%
%TO.N,5V-iso*%
X161798000Y-65738000D03*
%TO.P,U14,3,Vout-*%
%TO.N,Gnd-iso*%
X159258000Y-65738000D03*
%TO.P,U14,2,VIN+*%
%TO.N,VDD*%
X156718000Y-65738000D03*
%TO.P,U14,1,VIN-*%
%TO.N,GND*%
X154178000Y-65738000D03*
%TD*%
D11*
%TO.P,J2,1,Pin_1*%
%TO.N,GND*%
X148336000Y-74168000D03*
D12*
%TO.P,J2,2,Pin_2*%
%TO.N,unconnected-(J2-Pin_2-Pad2)*%
X148336000Y-71628000D03*
%TO.P,J2,3,Pin_3*%
%TO.N,VDD*%
X148336000Y-69088000D03*
%TD*%
D11*
%TO.P,J5,1,Pin_1*%
%TO.N,/Signal1-MCU*%
X168656000Y-99568000D03*
D12*
%TO.P,J5,2,Pin_2*%
%TO.N,SCL*%
X168656000Y-102108000D03*
%TO.P,J5,3,Pin_3*%
%TO.N,SDA*%
X168656000Y-104648000D03*
%TD*%
D13*
%TO.P,H3,1*%
%TO.N,N/C*%
X149590802Y-108453302D03*
%TD*%
%TO.P,H2,1*%
%TO.N,N/C*%
X167401197Y-62750455D03*
%TD*%
%TO.P,H1,1*%
%TO.N,N/C*%
X149578264Y-62771386D03*
%TD*%
D14*
%TO.P,J14,1*%
%TO.N,V_Input_REF*%
X156972000Y-102712000D03*
D15*
%TO.P,J14,2*%
%TO.N,V_Input_Float*%
X156972000Y-108712000D03*
D16*
%TO.P,J14,3*%
%TO.N,N/C*%
X161672000Y-105712000D03*
%TD*%
D17*
%TO.N,/Signal1-MCU*%
X158496000Y-72092099D03*
%TO.N,5V-iso*%
X165192000Y-86810313D03*
X165100000Y-88900000D03*
%TO.N,SDA-5V*%
X161544000Y-77724000D03*
X164592000Y-87376000D03*
%TO.N,SCL-5V*%
X163678981Y-78748437D03*
X165608000Y-83820000D03*
%TO.N,SCL*%
X155956000Y-80772000D03*
%TO.N,5V-iso*%
X168132000Y-73152000D03*
X157988000Y-79248000D03*
X153416000Y-90932000D03*
%TO.N,Gnd-iso*%
X158710750Y-85637250D03*
X163095000Y-87376000D03*
X162052000Y-82804000D03*
%TO.N,5V-iso*%
X163068000Y-78232000D03*
%TO.N,SDA*%
X153908000Y-76692000D03*
X153416000Y-83820000D03*
X153351200Y-80706681D03*
%TO.N,/AIN1*%
X161982500Y-91440000D03*
X157321750Y-94329750D03*
%TO.N,Gnd-iso*%
X150368000Y-98552000D03*
%TO.N,5V-iso*%
X165100000Y-100076000D03*
%TO.N,Gnd-iso*%
X165529500Y-93901500D03*
X169164000Y-80772000D03*
%TO.N,VDD*%
X149352000Y-84328000D03*
%TO.N,GND*%
X156972000Y-75184000D03*
%TD*%
D18*
%TO.N,SDA*%
X152908000Y-81149881D02*
X153351200Y-80706681D01*
X152908000Y-83312000D02*
X152908000Y-81149881D01*
X153416000Y-83820000D02*
X152908000Y-83312000D01*
X164084000Y-100076000D02*
X168656000Y-104648000D01*
X164084000Y-92456000D02*
X164084000Y-100076000D01*
X155448000Y-83820000D02*
X164084000Y-92456000D01*
X153416000Y-83820000D02*
X155448000Y-83820000D01*
%TO.N,SDA-5V*%
X164592000Y-80772000D02*
X161544000Y-77724000D01*
X164592000Y-87376000D02*
X164592000Y-80772000D01*
%TO.N,SCL-5V*%
X163678981Y-78842981D02*
X163678981Y-78748437D01*
X165608000Y-80772000D02*
X163678981Y-78842981D01*
X165608000Y-83820000D02*
X165608000Y-80772000D01*
%TO.N,SCL*%
X164592000Y-91440000D02*
X162494000Y-89342000D01*
X162494000Y-89342000D02*
X162494000Y-88326000D01*
X164592000Y-98044000D02*
X164592000Y-91440000D01*
X162494000Y-88326000D02*
X155956000Y-81788000D01*
X168656000Y-102108000D02*
X164592000Y-98044000D01*
X155956000Y-81788000D02*
X155956000Y-80772000D01*
%TO.N,/AIN1*%
X161404500Y-92018000D02*
X160966000Y-92018000D01*
X160966000Y-92018000D02*
X158654250Y-94329750D01*
X161982500Y-91440000D02*
X161404500Y-92018000D01*
X158654250Y-94329750D02*
X157321750Y-94329750D01*
%TO.N,SDA*%
X153351200Y-77248800D02*
X153351200Y-80706681D01*
X153908000Y-76692000D02*
X153351200Y-77248800D01*
%TO.N,/Signal1-MCU*%
X168656000Y-82252099D02*
X168656000Y-99568000D01*
X158496000Y-72092099D02*
X168656000Y-82252099D01*
%TD*%
M02*
