%TF.GenerationSoftware,KiCad,Pcbnew,9.0.3*%
%TF.CreationDate,2026-02-14T21:05:33-06:00*%
%TF.ProjectId,SimplifiedOpenLeadVoltmeter,53696d70-6c69-4666-9965-644f70656e4c,rev?*%
%TF.SameCoordinates,Original*%
%TF.FileFunction,Copper,L2,Inr*%
%TF.FilePolarity,Positive*%
%FSLAX46Y46*%
G04 Gerber Fmt 4.6, Leading zero omitted, Abs format (unit mm)*
G04 Created by KiCad (PCBNEW 9.0.3) date 2026-02-14 21:05:33*
%MOMM*%
%LPD*%
G01*
G04 APERTURE LIST*
G04 Aperture macros list*
%AMRoundRect*
0 Rectangle with rounded corners*
0 $1 Rounding radius*
0 $2 $3 $4 $5 $6 $7 $8 $9 X,Y pos of 4 corners*
0 Add a 4 corners polygon primitive as box body*
4,1,4,$2,$3,$4,$5,$6,$7,$8,$9,$2,$3,0*
0 Add four circle primitives for the rounded corners*
1,1,$1+$1,$2,$3*
1,1,$1+$1,$4,$5*
1,1,$1+$1,$6,$7*
1,1,$1+$1,$8,$9*
0 Add four rect primitives between the rounded corners*
20,1,$1+$1,$2,$3,$4,$5,0*
20,1,$1+$1,$4,$5,$6,$7,0*
20,1,$1+$1,$6,$7,$8,$9,0*
20,1,$1+$1,$8,$9,$2,$3,0*%
G04 Aperture macros list end*
%TA.AperFunction,ComponentPad*%
%ADD10C,1.500000*%
%TD*%
%TA.AperFunction,ComponentPad*%
%ADD11R,1.700000X1.700000*%
%TD*%
%TA.AperFunction,ComponentPad*%
%ADD12C,1.700000*%
%TD*%
%TA.AperFunction,ComponentPad*%
%ADD13C,4.400000*%
%TD*%
%TA.AperFunction,ComponentPad*%
%ADD14R,3.500000X3.500000*%
%TD*%
%TA.AperFunction,ComponentPad*%
%ADD15RoundRect,0.750000X1.000000X-0.750000X1.000000X0.750000X-1.000000X0.750000X-1.000000X-0.750000X0*%
%TD*%
%TA.AperFunction,ComponentPad*%
%ADD16RoundRect,0.875000X0.875000X-0.875000X0.875000X0.875000X-0.875000X0.875000X-0.875000X-0.875000X0*%
%TD*%
%TA.AperFunction,ViaPad*%
%ADD17C,0.600000*%
%TD*%
G04 APERTURE END LIST*
D10*
%TO.N,5V-iso*%
%TO.C,U14*%
X161798000Y-65738000D03*
%TO.N,Gnd-iso*%
X159258000Y-65738000D03*
%TO.N,VDD*%
X156718000Y-65738000D03*
%TO.N,GND*%
X154178000Y-65738000D03*
%TD*%
D11*
%TO.N,GND*%
%TO.C,J2*%
X148336000Y-74168000D03*
D12*
%TO.N,unconnected-(J2-Pin_2-Pad2)*%
X148336000Y-71628000D03*
%TO.N,VDD*%
X148336000Y-69088000D03*
%TD*%
D11*
%TO.N,/Signal1-MCU*%
%TO.C,J5*%
X168656000Y-99568000D03*
D12*
%TO.N,SCL*%
X168656000Y-102108000D03*
%TO.N,SDA*%
X168656000Y-104648000D03*
%TD*%
D13*
%TO.N,N/C*%
%TO.C,H3*%
X149590802Y-108453302D03*
%TD*%
%TO.N,N/C*%
%TO.C,H2*%
X167401197Y-62750455D03*
%TD*%
%TO.N,N/C*%
%TO.C,H1*%
X149578264Y-62771386D03*
%TD*%
D14*
%TO.N,V_Input_REF*%
%TO.C,J14*%
X156972000Y-102712000D03*
D15*
%TO.N,V_Input_Float*%
X156972000Y-108712000D03*
D16*
%TO.N,N/C*%
X161672000Y-105712000D03*
%TD*%
D17*
%TO.N,/Signal1-MCU*%
X158496000Y-72092099D03*
%TO.N,5V-iso*%
X165192000Y-86810313D03*
X165100000Y-88900000D03*
%TO.N,SDA-5V*%
X161544000Y-77724000D03*
X164592000Y-87376000D03*
%TO.N,SCL-5V*%
X163678981Y-78748437D03*
X165608000Y-83820000D03*
%TO.N,SCL*%
X155956000Y-80772000D03*
%TO.N,5V-iso*%
X168132000Y-73152000D03*
X157988000Y-79248000D03*
X153416000Y-90932000D03*
%TO.N,Gnd-iso*%
X158710750Y-85637250D03*
X163095000Y-87376000D03*
X162052000Y-82804000D03*
%TO.N,5V-iso*%
X163068000Y-78232000D03*
%TO.N,SDA*%
X153908000Y-76692000D03*
X153416000Y-83820000D03*
X153351200Y-80706681D03*
%TO.N,/AIN1*%
X161982500Y-91440000D03*
X157321750Y-94329750D03*
%TO.N,Gnd-iso*%
X150368000Y-98552000D03*
%TO.N,5V-iso*%
X165100000Y-100076000D03*
%TO.N,Gnd-iso*%
X165529500Y-93901500D03*
X169164000Y-80772000D03*
%TO.N,VDD*%
X149352000Y-84328000D03*
%TO.N,GND*%
X156972000Y-75184000D03*
%TD*%
%TA.AperFunction,Conductor*%
%TO.N,GND*%
G36*
X157423039Y-62503685D02*
G01*
X157468794Y-62556489D01*
X157480000Y-62608000D01*
X157480000Y-64520439D01*
X157460315Y-64587478D01*
X157407511Y-64633233D01*
X157338353Y-64643177D01*
X157299706Y-64630924D01*
X157198031Y-64579118D01*
X157010826Y-64518290D01*
X156816422Y-64487500D01*
X156816417Y-64487500D01*
X156619583Y-64487500D01*
X156619578Y-64487500D01*
X156425173Y-64518290D01*
X156237970Y-64579117D01*
X156062594Y-64668476D01*
X155971741Y-64734485D01*
X155903354Y-64784172D01*
X155903352Y-64784174D01*
X155903351Y-64784174D01*
X155764174Y-64923351D01*
X155764174Y-64923352D01*
X155764172Y-64923354D01*
X155748115Y-64945455D01*
X155648476Y-65082594D01*
X155558204Y-65259764D01*
X155510229Y-65310560D01*
X155442408Y-65327355D01*
X155376274Y-65304818D01*
X155337234Y-65259764D01*
X155247096Y-65082858D01*
X155221678Y-65047873D01*
X155221677Y-65047873D01*
X154578000Y-65691551D01*
X154578000Y-65685339D01*
X154550741Y-65583606D01*
X154498080Y-65492394D01*
X154423606Y-65417920D01*
X154332394Y-65365259D01*
X154230661Y-65338000D01*
X154224447Y-65338000D01*
X154868125Y-64694320D01*
X154868125Y-64694319D01*
X154833145Y-64668905D01*
X154657835Y-64579581D01*
X154470705Y-64518778D01*
X154276382Y-64488000D01*
X154079618Y-64488000D01*
X153885294Y-64518778D01*
X153698161Y-64579582D01*
X153522863Y-64668899D01*
X153522859Y-64668902D01*
X153487873Y-64694320D01*
X153487872Y-64694320D01*
X154131554Y-65338000D01*
X154125339Y-65338000D01*
X154023606Y-65365259D01*
X153932394Y-65417920D01*
X153857920Y-65492394D01*
X153805259Y-65583606D01*
X153778000Y-65685339D01*
X153778000Y-65691552D01*
X153134320Y-65047872D01*
X153134320Y-65047873D01*
X153108902Y-65082859D01*
X153108899Y-65082863D01*
X153019582Y-65258161D01*
X152958778Y-65445294D01*
X152928000Y-65639617D01*
X152928000Y-65836382D01*
X152958778Y-66030705D01*
X153019581Y-66217835D01*
X153108905Y-66393145D01*
X153134319Y-66428125D01*
X153134320Y-66428125D01*
X153778000Y-65784445D01*
X153778000Y-65790661D01*
X153805259Y-65892394D01*
X153857920Y-65983606D01*
X153932394Y-66058080D01*
X154023606Y-66110741D01*
X154125339Y-66138000D01*
X154131553Y-66138000D01*
X153487873Y-66781677D01*
X153487873Y-66781678D01*
X153522858Y-66807096D01*
X153698164Y-66896418D01*
X153885294Y-66957221D01*
X154079618Y-66988000D01*
X154276382Y-66988000D01*
X154470705Y-66957221D01*
X154657835Y-66896418D01*
X154833143Y-66807095D01*
X154868125Y-66781678D01*
X154868126Y-66781678D01*
X154224448Y-66138000D01*
X154230661Y-66138000D01*
X154332394Y-66110741D01*
X154423606Y-66058080D01*
X154498080Y-65983606D01*
X154550741Y-65892394D01*
X154578000Y-65790661D01*
X154578000Y-65784448D01*
X155221678Y-66428126D01*
X155221678Y-66428125D01*
X155247097Y-66393141D01*
X155337234Y-66216236D01*
X155385208Y-66165439D01*
X155453029Y-66148644D01*
X155519164Y-66171181D01*
X155558204Y-66216235D01*
X155559115Y-66218024D01*
X155559116Y-66218025D01*
X155648476Y-66393405D01*
X155764172Y-66552646D01*
X155903354Y-66691828D01*
X156062595Y-66807524D01*
X156101516Y-66827355D01*
X156237970Y-66896882D01*
X156237972Y-66896882D01*
X156237975Y-66896884D01*
X156338317Y-66929487D01*
X156425173Y-66957709D01*
X156619578Y-66988500D01*
X156619583Y-66988500D01*
X156816422Y-66988500D01*
X157010826Y-66957709D01*
X157012328Y-66957221D01*
X157198025Y-66896884D01*
X157373405Y-66807524D01*
X157532646Y-66691828D01*
X157671828Y-66552646D01*
X157713482Y-66495313D01*
X157768812Y-66452648D01*
X157838425Y-66446669D01*
X157900220Y-66479275D01*
X157932570Y-66532568D01*
X158085411Y-67042039D01*
X158089273Y-67059304D01*
X158107654Y-67182037D01*
X158107659Y-67182061D01*
X158584570Y-68771760D01*
X158988474Y-70118104D01*
X158998770Y-70152422D01*
X159004000Y-70188053D01*
X159004000Y-71250485D01*
X158984315Y-71317524D01*
X158931511Y-71363279D01*
X158862353Y-71373223D01*
X158832548Y-71365046D01*
X158729501Y-71322363D01*
X158729489Y-71322360D01*
X158574845Y-71291599D01*
X158574842Y-71291599D01*
X158417158Y-71291599D01*
X158417155Y-71291599D01*
X158262510Y-71322360D01*
X158262498Y-71322363D01*
X158116827Y-71382701D01*
X158116814Y-71382708D01*
X157985711Y-71470309D01*
X157985707Y-71470312D01*
X157874213Y-71581806D01*
X157874210Y-71581810D01*
X157786609Y-71712913D01*
X157786602Y-71712926D01*
X157726264Y-71858597D01*
X157726261Y-71858609D01*
X157695500Y-72013252D01*
X157695500Y-72170945D01*
X157726261Y-72325588D01*
X157726264Y-72325600D01*
X157786602Y-72471271D01*
X157786609Y-72471284D01*
X157874210Y-72602387D01*
X157874213Y-72602391D01*
X157985707Y-72713885D01*
X157985711Y-72713888D01*
X158116814Y-72801489D01*
X158116827Y-72801496D01*
X158250828Y-72857000D01*
X158262503Y-72861836D01*
X158406973Y-72890573D01*
X158417153Y-72892598D01*
X158417156Y-72892599D01*
X158417158Y-72892599D01*
X158574844Y-72892599D01*
X158574845Y-72892598D01*
X158729497Y-72861836D01*
X158832549Y-72819150D01*
X158902017Y-72811682D01*
X158964496Y-72842957D01*
X159000148Y-72903046D01*
X159004000Y-72933712D01*
X159004000Y-75467089D01*
X158984315Y-75534128D01*
X158975259Y-75546472D01*
X157496036Y-77321540D01*
X157184868Y-77694941D01*
X156838401Y-78110702D01*
X156612408Y-78381892D01*
X156593143Y-78406520D01*
X156584102Y-78418844D01*
X156566432Y-78444557D01*
X156506663Y-78575430D01*
X156486976Y-78642473D01*
X156479818Y-78692258D01*
X156468194Y-78718380D01*
X156471406Y-78719543D01*
X156464000Y-78740000D01*
X156464000Y-79930386D01*
X156444315Y-79997425D01*
X156391511Y-80043180D01*
X156322353Y-80053124D01*
X156292548Y-80044947D01*
X156189501Y-80002264D01*
X156189489Y-80002261D01*
X156034845Y-79971500D01*
X156034842Y-79971500D01*
X155877158Y-79971500D01*
X155877155Y-79971500D01*
X155722510Y-80002261D01*
X155722498Y-80002264D01*
X155576827Y-80062602D01*
X155576814Y-80062609D01*
X155445711Y-80150210D01*
X155445707Y-80150213D01*
X155334213Y-80261707D01*
X155334210Y-80261711D01*
X155246609Y-80392814D01*
X155246602Y-80392827D01*
X155186264Y-80538498D01*
X155186261Y-80538510D01*
X155155500Y-80693153D01*
X155155500Y-80850846D01*
X155186261Y-81005489D01*
X155186264Y-81005501D01*
X155246602Y-81151172D01*
X155246609Y-81151185D01*
X155334210Y-81282288D01*
X155334213Y-81282292D01*
X155445707Y-81393786D01*
X155445711Y-81393789D01*
X155576814Y-81481390D01*
X155576827Y-81481397D01*
X155722498Y-81541735D01*
X155722503Y-81541737D01*
X155877153Y-81572499D01*
X155877156Y-81572500D01*
X155877158Y-81572500D01*
X156034844Y-81572500D01*
X156034845Y-81572499D01*
X156189497Y-81541737D01*
X156292549Y-81499051D01*
X156362017Y-81491583D01*
X156424496Y-81522858D01*
X156460148Y-81582947D01*
X156464000Y-81613613D01*
X156464000Y-83264855D01*
X156444315Y-83331894D01*
X156432679Y-83347236D01*
X154057488Y-86019326D01*
X154052490Y-86024626D01*
X153137405Y-86939711D01*
X152730176Y-87346938D01*
X152730174Y-87346940D01*
X152730174Y-87346941D01*
X152672058Y-87405057D01*
X152614662Y-87462453D01*
X152586359Y-87483630D01*
X150042957Y-88870941D01*
X147503378Y-90256165D01*
X147435098Y-90270986D01*
X147369645Y-90246539D01*
X147327799Y-90190587D01*
X147320000Y-90147306D01*
X147320000Y-84249153D01*
X148551500Y-84249153D01*
X148551500Y-84406846D01*
X148582261Y-84561489D01*
X148582264Y-84561501D01*
X148642602Y-84707172D01*
X148642609Y-84707185D01*
X148730210Y-84838288D01*
X148730213Y-84838292D01*
X148841707Y-84949786D01*
X148841711Y-84949789D01*
X148972814Y-85037390D01*
X148972827Y-85037397D01*
X149118498Y-85097735D01*
X149118503Y-85097737D01*
X149273153Y-85128499D01*
X149273156Y-85128500D01*
X149273158Y-85128500D01*
X149430844Y-85128500D01*
X149430845Y-85128499D01*
X149585497Y-85097737D01*
X149731179Y-85037394D01*
X149862289Y-84949789D01*
X149973789Y-84838289D01*
X150061394Y-84707179D01*
X150121737Y-84561497D01*
X150152500Y-84406842D01*
X150152500Y-84249158D01*
X150152500Y-84249155D01*
X150152499Y-84249153D01*
X150123559Y-84103663D01*
X150121737Y-84094503D01*
X150102948Y-84049141D01*
X150061397Y-83948827D01*
X150061390Y-83948814D01*
X149973792Y-83817716D01*
X149973789Y-83817711D01*
X149973784Y-83817706D01*
X149973781Y-83817702D01*
X149897232Y-83741153D01*
X152615500Y-83741153D01*
X152615500Y-83898846D01*
X152646261Y-84053489D01*
X152646264Y-84053501D01*
X152706602Y-84199172D01*
X152706609Y-84199185D01*
X152794210Y-84330288D01*
X152794213Y-84330292D01*
X152905707Y-84441786D01*
X152905711Y-84441789D01*
X153036814Y-84529390D01*
X153036827Y-84529397D01*
X153182498Y-84589735D01*
X153182503Y-84589737D01*
X153337153Y-84620499D01*
X153337156Y-84620500D01*
X153337158Y-84620500D01*
X153494844Y-84620500D01*
X153494845Y-84620499D01*
X153649497Y-84589737D01*
X153795179Y-84529394D01*
X153926289Y-84441789D01*
X154037789Y-84330289D01*
X154125394Y-84199179D01*
X154185737Y-84053497D01*
X154216500Y-83898842D01*
X154216500Y-83741158D01*
X154216500Y-83741155D01*
X154216499Y-83741153D01*
X154209549Y-83706213D01*
X154185737Y-83586503D01*
X154164958Y-83536337D01*
X154125397Y-83440827D01*
X154125390Y-83440814D01*
X154037789Y-83309711D01*
X154037786Y-83309707D01*
X153926292Y-83198213D01*
X153926288Y-83198210D01*
X153795185Y-83110609D01*
X153795172Y-83110602D01*
X153649501Y-83050264D01*
X153649489Y-83050261D01*
X153494845Y-83019500D01*
X153494842Y-83019500D01*
X153337158Y-83019500D01*
X153337155Y-83019500D01*
X153182510Y-83050261D01*
X153182498Y-83050264D01*
X153036827Y-83110602D01*
X153036814Y-83110609D01*
X152905711Y-83198210D01*
X152905707Y-83198213D01*
X152794213Y-83309707D01*
X152794210Y-83309711D01*
X152706609Y-83440814D01*
X152706602Y-83440827D01*
X152646264Y-83586498D01*
X152646261Y-83586510D01*
X152615500Y-83741153D01*
X149897232Y-83741153D01*
X149862292Y-83706213D01*
X149862288Y-83706210D01*
X149731185Y-83618609D01*
X149731172Y-83618602D01*
X149585501Y-83558264D01*
X149585489Y-83558261D01*
X149430845Y-83527500D01*
X149430842Y-83527500D01*
X149273158Y-83527500D01*
X149273155Y-83527500D01*
X149118510Y-83558261D01*
X149118498Y-83558264D01*
X148972827Y-83618602D01*
X148972814Y-83618609D01*
X148841711Y-83706210D01*
X148841707Y-83706213D01*
X148730213Y-83817707D01*
X148730210Y-83817711D01*
X148642609Y-83948814D01*
X148642602Y-83948827D01*
X148582264Y-84094498D01*
X148582261Y-84094510D01*
X148551500Y-84249153D01*
X147320000Y-84249153D01*
X147320000Y-80627834D01*
X152550700Y-80627834D01*
X152550700Y-80785527D01*
X152581461Y-80940170D01*
X152581464Y-80940182D01*
X152641802Y-81085853D01*
X152641809Y-81085866D01*
X152729410Y-81216969D01*
X152729413Y-81216973D01*
X152840907Y-81328467D01*
X152840911Y-81328470D01*
X152972014Y-81416071D01*
X152972027Y-81416078D01*
X153117698Y-81476416D01*
X153117703Y-81476418D01*
X153272353Y-81507180D01*
X153272356Y-81507181D01*
X153272358Y-81507181D01*
X153430044Y-81507181D01*
X153430045Y-81507180D01*
X153584697Y-81476418D01*
X153730379Y-81416075D01*
X153861489Y-81328470D01*
X153972989Y-81216970D01*
X154060594Y-81085860D01*
X154120937Y-80940178D01*
X154151700Y-80785523D01*
X154151700Y-80627839D01*
X154151700Y-80627836D01*
X154151699Y-80627834D01*
X154120938Y-80473191D01*
X154120937Y-80473184D01*
X154120935Y-80473179D01*
X154060597Y-80327508D01*
X154060590Y-80327495D01*
X153972989Y-80196392D01*
X153972986Y-80196388D01*
X153861492Y-80084894D01*
X153861488Y-80084891D01*
X153730385Y-79997290D01*
X153730372Y-79997283D01*
X153584701Y-79936945D01*
X153584689Y-79936942D01*
X153430045Y-79906181D01*
X153430042Y-79906181D01*
X153272358Y-79906181D01*
X153272355Y-79906181D01*
X153117710Y-79936942D01*
X153117698Y-79936945D01*
X152972027Y-79997283D01*
X152972014Y-79997290D01*
X152840911Y-80084891D01*
X152840907Y-80084894D01*
X152729413Y-80196388D01*
X152729410Y-80196392D01*
X152641809Y-80327495D01*
X152641802Y-80327508D01*
X152581464Y-80473179D01*
X152581461Y-80473191D01*
X152550700Y-80627834D01*
X147320000Y-80627834D01*
X147320000Y-76613153D01*
X153107500Y-76613153D01*
X153107500Y-76770846D01*
X153138261Y-76925489D01*
X153138264Y-76925501D01*
X153198602Y-77071172D01*
X153198609Y-77071185D01*
X153286210Y-77202288D01*
X153286213Y-77202292D01*
X153397707Y-77313786D01*
X153397711Y-77313789D01*
X153528814Y-77401390D01*
X153528827Y-77401397D01*
X153674498Y-77461735D01*
X153674503Y-77461737D01*
X153829153Y-77492499D01*
X153829156Y-77492500D01*
X153829158Y-77492500D01*
X153986844Y-77492500D01*
X153986845Y-77492499D01*
X154141497Y-77461737D01*
X154287179Y-77401394D01*
X154418289Y-77313789D01*
X154529789Y-77202289D01*
X154617394Y-77071179D01*
X154677737Y-76925497D01*
X154708500Y-76770842D01*
X154708500Y-76613158D01*
X154708500Y-76613155D01*
X154708499Y-76613153D01*
X154677738Y-76458510D01*
X154677737Y-76458503D01*
X154677735Y-76458498D01*
X154617397Y-76312827D01*
X154617390Y-76312814D01*
X154529789Y-76181711D01*
X154529786Y-76181707D01*
X154418292Y-76070213D01*
X154418288Y-76070210D01*
X154287185Y-75982609D01*
X154287172Y-75982602D01*
X154141501Y-75922264D01*
X154141489Y-75922261D01*
X153986845Y-75891500D01*
X153986842Y-75891500D01*
X153829158Y-75891500D01*
X153829155Y-75891500D01*
X153674510Y-75922261D01*
X153674498Y-75922264D01*
X153528827Y-75982602D01*
X153528814Y-75982609D01*
X153397711Y-76070210D01*
X153397707Y-76070213D01*
X153286213Y-76181707D01*
X153286210Y-76181711D01*
X153198609Y-76312814D01*
X153198602Y-76312827D01*
X153138264Y-76458498D01*
X153138261Y-76458510D01*
X153107500Y-76613153D01*
X147320000Y-76613153D01*
X147320000Y-75642000D01*
X147339685Y-75574961D01*
X147392489Y-75529206D01*
X147444000Y-75518000D01*
X148086000Y-75518000D01*
X148086000Y-74601012D01*
X148143007Y-74633925D01*
X148270174Y-74668000D01*
X148401826Y-74668000D01*
X148528993Y-74633925D01*
X148586000Y-74601012D01*
X148586000Y-75518000D01*
X149233828Y-75518000D01*
X149233844Y-75517999D01*
X149293372Y-75511598D01*
X149293379Y-75511596D01*
X149428086Y-75461354D01*
X149428093Y-75461350D01*
X149543187Y-75375190D01*
X149543190Y-75375187D01*
X149629350Y-75260093D01*
X149629354Y-75260086D01*
X149679596Y-75125379D01*
X149679598Y-75125372D01*
X149685999Y-75065844D01*
X149686000Y-75065827D01*
X149686000Y-74418000D01*
X148769012Y-74418000D01*
X148801925Y-74360993D01*
X148836000Y-74233826D01*
X148836000Y-74102174D01*
X148801925Y-73975007D01*
X148769012Y-73918000D01*
X149686000Y-73918000D01*
X149686000Y-73270172D01*
X149685999Y-73270155D01*
X149679598Y-73210627D01*
X149679596Y-73210620D01*
X149629354Y-73075913D01*
X149629350Y-73075906D01*
X149543190Y-72960812D01*
X149543187Y-72960809D01*
X149428093Y-72874649D01*
X149428088Y-72874646D01*
X149296528Y-72825577D01*
X149240595Y-72783705D01*
X149216178Y-72718241D01*
X149231030Y-72649968D01*
X149252175Y-72621720D01*
X149366104Y-72507792D01*
X149392629Y-72471284D01*
X149491048Y-72335820D01*
X149491047Y-72335820D01*
X149491051Y-72335816D01*
X149587557Y-72146412D01*
X149653246Y-71944243D01*
X149686500Y-71734287D01*
X149686500Y-71521713D01*
X149653246Y-71311757D01*
X149587557Y-71109588D01*
X149491051Y-70920184D01*
X149491049Y-70920181D01*
X149491048Y-70920179D01*
X149366109Y-70748213D01*
X149215786Y-70597890D01*
X149043820Y-70472951D01*
X149043115Y-70472591D01*
X149035054Y-70468485D01*
X148984259Y-70420512D01*
X148967463Y-70352692D01*
X148989999Y-70286556D01*
X149035054Y-70247515D01*
X149043816Y-70243051D01*
X149119515Y-70188053D01*
X149215786Y-70118109D01*
X149215788Y-70118106D01*
X149215792Y-70118104D01*
X149366104Y-69967792D01*
X149366106Y-69967788D01*
X149366109Y-69967786D01*
X149491048Y-69795820D01*
X149491047Y-69795820D01*
X149491051Y-69795816D01*
X149587557Y-69606412D01*
X149653246Y-69404243D01*
X149686500Y-69194287D01*
X149686500Y-68981713D01*
X149653246Y-68771757D01*
X149587557Y-68569588D01*
X149491051Y-68380184D01*
X149491049Y-68380181D01*
X149491048Y-68380179D01*
X149366109Y-68208213D01*
X149215786Y-68057890D01*
X149043820Y-67932951D01*
X148854414Y-67836444D01*
X148854413Y-67836443D01*
X148854412Y-67836443D01*
X148652243Y-67770754D01*
X148652241Y-67770753D01*
X148652240Y-67770753D01*
X148490957Y-67745208D01*
X148442287Y-67737500D01*
X148229713Y-67737500D01*
X148181042Y-67745208D01*
X148019760Y-67770753D01*
X147817585Y-67836444D01*
X147628181Y-67932950D01*
X147516884Y-68013811D01*
X147451078Y-68037290D01*
X147383024Y-68021464D01*
X147334330Y-67971358D01*
X147320000Y-67913492D01*
X147320000Y-65611339D01*
X147339685Y-65544300D01*
X147392037Y-65498752D01*
X147450249Y-65471885D01*
X148169041Y-65140134D01*
X148238157Y-65129914D01*
X148274804Y-65141002D01*
X148334492Y-65169746D01*
X148543199Y-65270254D01*
X148758215Y-65345491D01*
X148829480Y-65370428D01*
X148829492Y-65370432D01*
X149125201Y-65437926D01*
X149125210Y-65437927D01*
X149125215Y-65437928D01*
X149326138Y-65460566D01*
X149426601Y-65471885D01*
X149426604Y-65471886D01*
X149426607Y-65471886D01*
X149729924Y-65471886D01*
X149729925Y-65471885D01*
X149883958Y-65454530D01*
X150031312Y-65437928D01*
X150031315Y-65437927D01*
X150031327Y-65437926D01*
X150327036Y-65370432D01*
X150613329Y-65270254D01*
X150886605Y-65138651D01*
X151143428Y-64977278D01*
X151380568Y-64788165D01*
X151595043Y-64573690D01*
X151784156Y-64336550D01*
X151945529Y-64079727D01*
X152077132Y-63806451D01*
X152177310Y-63520158D01*
X152222419Y-63322523D01*
X152256525Y-63261548D01*
X152291340Y-63237535D01*
X153899272Y-62495413D01*
X153951235Y-62484000D01*
X157356000Y-62484000D01*
X157423039Y-62503685D01*
G37*
%TD.AperFunction*%
%TD*%
%TA.AperFunction,Conductor*%
%TO.N,Gnd-iso*%
G36*
X158138318Y-62516677D02*
G01*
X164951905Y-63997892D01*
X165013229Y-64031367D01*
X165031794Y-64056029D01*
X165032081Y-64055850D01*
X165033931Y-64058795D01*
X165033932Y-64058796D01*
X165195305Y-64315619D01*
X165384418Y-64552759D01*
X165598893Y-64767234D01*
X165836033Y-64956347D01*
X166092856Y-65117720D01*
X166366132Y-65249323D01*
X166524728Y-65304818D01*
X166652413Y-65349497D01*
X166652425Y-65349501D01*
X166948134Y-65416995D01*
X166948143Y-65416996D01*
X166948148Y-65416997D01*
X167133903Y-65437926D01*
X167249534Y-65450954D01*
X167249537Y-65450955D01*
X167249540Y-65450955D01*
X167552857Y-65450955D01*
X167552858Y-65450954D01*
X167706891Y-65433599D01*
X167854245Y-65416997D01*
X167854248Y-65416996D01*
X167854260Y-65416995D01*
X168149969Y-65349501D01*
X168436262Y-65249323D01*
X168709538Y-65117720D01*
X168966361Y-64956347D01*
X169004780Y-64925708D01*
X169069463Y-64899300D01*
X169108430Y-64901484D01*
X169574343Y-65002770D01*
X169635669Y-65036246D01*
X169669163Y-65097564D01*
X169672000Y-65123939D01*
X169672000Y-94952503D01*
X169652315Y-95019542D01*
X169644828Y-95029965D01*
X167640000Y-97536000D01*
X167639999Y-97536001D01*
X167383549Y-98433575D01*
X167363592Y-98473813D01*
X167362205Y-98475665D01*
X167311908Y-98610517D01*
X167305501Y-98670116D01*
X167305500Y-98670135D01*
X167305500Y-98689382D01*
X167300729Y-98723447D01*
X166980997Y-99842510D01*
X166682630Y-100886797D01*
X166649696Y-101002065D01*
X166612352Y-101061118D01*
X166549010Y-101090606D01*
X166530467Y-101092000D01*
X165354443Y-101092000D01*
X165287404Y-101072315D01*
X165241649Y-101019511D01*
X165231705Y-100950353D01*
X165260730Y-100886797D01*
X165319508Y-100849023D01*
X165330251Y-100846383D01*
X165332284Y-100845978D01*
X165333497Y-100845737D01*
X165479179Y-100785394D01*
X165610289Y-100697789D01*
X165721789Y-100586289D01*
X165809394Y-100455179D01*
X165869737Y-100309497D01*
X165900500Y-100154842D01*
X165900500Y-99997158D01*
X165900500Y-99997155D01*
X165900499Y-99997153D01*
X165869738Y-99842510D01*
X165869737Y-99842503D01*
X165869735Y-99842498D01*
X165809397Y-99696827D01*
X165809390Y-99696814D01*
X165721789Y-99565711D01*
X165721786Y-99565707D01*
X165610292Y-99454213D01*
X165610288Y-99454210D01*
X165479185Y-99366609D01*
X165479172Y-99366602D01*
X165333501Y-99306264D01*
X165333489Y-99306261D01*
X165178845Y-99275500D01*
X165178842Y-99275500D01*
X165021158Y-99275500D01*
X165021155Y-99275500D01*
X164866510Y-99306261D01*
X164866498Y-99306264D01*
X164720827Y-99366602D01*
X164720814Y-99366609D01*
X164589711Y-99454210D01*
X164589707Y-99454213D01*
X164478213Y-99565707D01*
X164478210Y-99565711D01*
X164390609Y-99696814D01*
X164390602Y-99696827D01*
X164330264Y-99842498D01*
X164330261Y-99842510D01*
X164299500Y-99997153D01*
X164299500Y-100154846D01*
X164330261Y-100309489D01*
X164330264Y-100309501D01*
X164390602Y-100455172D01*
X164390609Y-100455185D01*
X164478210Y-100586288D01*
X164478213Y-100586292D01*
X164589707Y-100697786D01*
X164589711Y-100697789D01*
X164720814Y-100785390D01*
X164720827Y-100785397D01*
X164866498Y-100845735D01*
X164866503Y-100845737D01*
X164866507Y-100845737D01*
X164866508Y-100845738D01*
X164869749Y-100846383D01*
X164871289Y-100847188D01*
X164872335Y-100847506D01*
X164872274Y-100847704D01*
X164931660Y-100878768D01*
X164966234Y-100939484D01*
X164962494Y-101009253D01*
X164921627Y-101065925D01*
X164856609Y-101091506D01*
X164845557Y-101092000D01*
X162684000Y-101092000D01*
X162616961Y-101072315D01*
X162571206Y-101019511D01*
X162560000Y-100968000D01*
X162560000Y-96012000D01*
X152400000Y-96012000D01*
X150404811Y-99004783D01*
X150351246Y-99049644D01*
X150301637Y-99060000D01*
X147444000Y-99060000D01*
X147376961Y-99040315D01*
X147331206Y-98987511D01*
X147320000Y-98936000D01*
X147320000Y-94250903D01*
X156521250Y-94250903D01*
X156521250Y-94408596D01*
X156552011Y-94563239D01*
X156552014Y-94563251D01*
X156612352Y-94708922D01*
X156612359Y-94708935D01*
X156699960Y-94840038D01*
X156699963Y-94840042D01*
X156811457Y-94951536D01*
X156811461Y-94951539D01*
X156942564Y-95039140D01*
X156942577Y-95039147D01*
X157088248Y-95099485D01*
X157088253Y-95099487D01*
X157242903Y-95130249D01*
X157242906Y-95130250D01*
X157242908Y-95130250D01*
X157400594Y-95130250D01*
X157400595Y-95130249D01*
X157555247Y-95099487D01*
X157700929Y-95039144D01*
X157832039Y-94951539D01*
X157943539Y-94840039D01*
X158031144Y-94708929D01*
X158091487Y-94563247D01*
X158122250Y-94408592D01*
X158122250Y-94250908D01*
X158122250Y-94250905D01*
X158122249Y-94250903D01*
X158091488Y-94096260D01*
X158091487Y-94096253D01*
X158091485Y-94096248D01*
X158031147Y-93950577D01*
X158031140Y-93950564D01*
X157943539Y-93819461D01*
X157943536Y-93819457D01*
X157832042Y-93707963D01*
X157832038Y-93707960D01*
X157700935Y-93620359D01*
X157700922Y-93620352D01*
X157555251Y-93560014D01*
X157555239Y-93560011D01*
X157400595Y-93529250D01*
X157400592Y-93529250D01*
X157242908Y-93529250D01*
X157242905Y-93529250D01*
X157088260Y-93560011D01*
X157088248Y-93560014D01*
X156942577Y-93620352D01*
X156942564Y-93620359D01*
X156811461Y-93707960D01*
X156811457Y-93707963D01*
X156699963Y-93819457D01*
X156699960Y-93819461D01*
X156612359Y-93950564D01*
X156612352Y-93950577D01*
X156552014Y-94096248D01*
X156552011Y-94096260D01*
X156521250Y-94250903D01*
X147320000Y-94250903D01*
X147320000Y-91005610D01*
X147339685Y-90938571D01*
X147384620Y-90896752D01*
X147464552Y-90853153D01*
X152615500Y-90853153D01*
X152615500Y-91010846D01*
X152646261Y-91165489D01*
X152646264Y-91165501D01*
X152706602Y-91311172D01*
X152706609Y-91311185D01*
X152794210Y-91442288D01*
X152794213Y-91442292D01*
X152905707Y-91553786D01*
X152905711Y-91553789D01*
X153036814Y-91641390D01*
X153036827Y-91641397D01*
X153182498Y-91701735D01*
X153182503Y-91701737D01*
X153337153Y-91732499D01*
X153337156Y-91732500D01*
X153337158Y-91732500D01*
X153494844Y-91732500D01*
X153494845Y-91732499D01*
X153649497Y-91701737D01*
X153795179Y-91641394D01*
X153926289Y-91553789D01*
X154037789Y-91442289D01*
X154092002Y-91361153D01*
X161182000Y-91361153D01*
X161182000Y-91518846D01*
X161212761Y-91673489D01*
X161212764Y-91673501D01*
X161273102Y-91819172D01*
X161273109Y-91819185D01*
X161360710Y-91950288D01*
X161360713Y-91950292D01*
X161472207Y-92061786D01*
X161472211Y-92061789D01*
X161603314Y-92149390D01*
X161603327Y-92149397D01*
X161748998Y-92209735D01*
X161749003Y-92209737D01*
X161903653Y-92240499D01*
X161903656Y-92240500D01*
X161903658Y-92240500D01*
X162061344Y-92240500D01*
X162061345Y-92240499D01*
X162215997Y-92209737D01*
X162361679Y-92149394D01*
X162492789Y-92061789D01*
X162604289Y-91950289D01*
X162691894Y-91819179D01*
X162752237Y-91673497D01*
X162783000Y-91518842D01*
X162783000Y-91361158D01*
X162783000Y-91361155D01*
X162782999Y-91361153D01*
X162772350Y-91307616D01*
X162752237Y-91206503D01*
X162735249Y-91165489D01*
X162691897Y-91060827D01*
X162691890Y-91060814D01*
X162604289Y-90929711D01*
X162604286Y-90929707D01*
X162492792Y-90818213D01*
X162492788Y-90818210D01*
X162361685Y-90730609D01*
X162361672Y-90730602D01*
X162216001Y-90670264D01*
X162215989Y-90670261D01*
X162061345Y-90639500D01*
X162061342Y-90639500D01*
X161903658Y-90639500D01*
X161903655Y-90639500D01*
X161749010Y-90670261D01*
X161748998Y-90670264D01*
X161603327Y-90730602D01*
X161603314Y-90730609D01*
X161472211Y-90818210D01*
X161472207Y-90818213D01*
X161360713Y-90929707D01*
X161360710Y-90929711D01*
X161273109Y-91060814D01*
X161273102Y-91060827D01*
X161212764Y-91206498D01*
X161212761Y-91206510D01*
X161182000Y-91361153D01*
X154092002Y-91361153D01*
X154125394Y-91311179D01*
X154185737Y-91165497D01*
X154216500Y-91010842D01*
X154216500Y-90853158D01*
X154216500Y-90853155D01*
X154216499Y-90853153D01*
X154209549Y-90818213D01*
X154185737Y-90698503D01*
X154174039Y-90670261D01*
X154125397Y-90552827D01*
X154125390Y-90552814D01*
X154037789Y-90421711D01*
X154037786Y-90421707D01*
X153926292Y-90310213D01*
X153926288Y-90310210D01*
X153795185Y-90222609D01*
X153795172Y-90222602D01*
X153649501Y-90162264D01*
X153649489Y-90162261D01*
X153494845Y-90131500D01*
X153494842Y-90131500D01*
X153337158Y-90131500D01*
X153337155Y-90131500D01*
X153182510Y-90162261D01*
X153182498Y-90162264D01*
X153036827Y-90222602D01*
X153036814Y-90222609D01*
X152905711Y-90310210D01*
X152905707Y-90310213D01*
X152794213Y-90421707D01*
X152794210Y-90421711D01*
X152706609Y-90552814D01*
X152706602Y-90552827D01*
X152646264Y-90698498D01*
X152646261Y-90698510D01*
X152615500Y-90853153D01*
X147464552Y-90853153D01*
X152908000Y-87884000D01*
X153494847Y-87297153D01*
X163791500Y-87297153D01*
X163791500Y-87454846D01*
X163822261Y-87609489D01*
X163822264Y-87609501D01*
X163882602Y-87755172D01*
X163882609Y-87755185D01*
X163970210Y-87886288D01*
X163970213Y-87886292D01*
X164081707Y-87997786D01*
X164081711Y-87997789D01*
X164212814Y-88085390D01*
X164212827Y-88085397D01*
X164284736Y-88115182D01*
X164358503Y-88145737D01*
X164434318Y-88160817D01*
X164496226Y-88193201D01*
X164530800Y-88253917D01*
X164527061Y-88323686D01*
X164497807Y-88370113D01*
X164478214Y-88389706D01*
X164478210Y-88389711D01*
X164390609Y-88520814D01*
X164390602Y-88520827D01*
X164330264Y-88666498D01*
X164330261Y-88666510D01*
X164299500Y-88821153D01*
X164299500Y-88978846D01*
X164330261Y-89133489D01*
X164330264Y-89133501D01*
X164390602Y-89279172D01*
X164390609Y-89279185D01*
X164478210Y-89410288D01*
X164478213Y-89410292D01*
X164589707Y-89521786D01*
X164589711Y-89521789D01*
X164720814Y-89609390D01*
X164720827Y-89609397D01*
X164866498Y-89669735D01*
X164866503Y-89669737D01*
X165021153Y-89700499D01*
X165021156Y-89700500D01*
X165021158Y-89700500D01*
X165178844Y-89700500D01*
X165178845Y-89700499D01*
X165333497Y-89669737D01*
X165479179Y-89609394D01*
X165610289Y-89521789D01*
X165721789Y-89410289D01*
X165809394Y-89279179D01*
X165869737Y-89133497D01*
X165900500Y-88978842D01*
X165900500Y-88821158D01*
X165900500Y-88821155D01*
X165900499Y-88821153D01*
X165869738Y-88666510D01*
X165869737Y-88666503D01*
X165869735Y-88666498D01*
X165809397Y-88520827D01*
X165809390Y-88520814D01*
X165721789Y-88389711D01*
X165721786Y-88389707D01*
X165610292Y-88278213D01*
X165610288Y-88278210D01*
X165479185Y-88190609D01*
X165479172Y-88190602D01*
X165333501Y-88130264D01*
X165333491Y-88130261D01*
X165257683Y-88115182D01*
X165195772Y-88082797D01*
X165161198Y-88022081D01*
X165164938Y-87952312D01*
X165194196Y-87905882D01*
X165213787Y-87886291D01*
X165213789Y-87886289D01*
X165301394Y-87755179D01*
X165344081Y-87652120D01*
X165387920Y-87597720D01*
X165422646Y-87580914D01*
X165425485Y-87580052D01*
X165425497Y-87580050D01*
X165571179Y-87519707D01*
X165702289Y-87432102D01*
X165813789Y-87320602D01*
X165901394Y-87189492D01*
X165961737Y-87043810D01*
X165992500Y-86889155D01*
X165992500Y-86731471D01*
X165992500Y-86731468D01*
X165992499Y-86731466D01*
X165979597Y-86666606D01*
X165961737Y-86576816D01*
X165944081Y-86534190D01*
X165901397Y-86431140D01*
X165901390Y-86431127D01*
X165813789Y-86300024D01*
X165813786Y-86300020D01*
X165702292Y-86188526D01*
X165702288Y-86188523D01*
X165571185Y-86100922D01*
X165571172Y-86100915D01*
X165425501Y-86040577D01*
X165425489Y-86040574D01*
X165270845Y-86009813D01*
X165270842Y-86009813D01*
X165113158Y-86009813D01*
X165113155Y-86009813D01*
X164958510Y-86040574D01*
X164958498Y-86040577D01*
X164812827Y-86100915D01*
X164812814Y-86100922D01*
X164681711Y-86188523D01*
X164681707Y-86188526D01*
X164570213Y-86300020D01*
X164570210Y-86300024D01*
X164482609Y-86431127D01*
X164482604Y-86431137D01*
X164439918Y-86534190D01*
X164396077Y-86588594D01*
X164361368Y-86605393D01*
X164358505Y-86606261D01*
X164212827Y-86666602D01*
X164212814Y-86666609D01*
X164081711Y-86754210D01*
X164081707Y-86754213D01*
X163970213Y-86865707D01*
X163970210Y-86865711D01*
X163882609Y-86996814D01*
X163882602Y-86996827D01*
X163822264Y-87142498D01*
X163822261Y-87142510D01*
X163791500Y-87297153D01*
X153494847Y-87297153D01*
X156972000Y-83820000D01*
X156972000Y-83741153D01*
X164807500Y-83741153D01*
X164807500Y-83898846D01*
X164838261Y-84053489D01*
X164838264Y-84053501D01*
X164898602Y-84199172D01*
X164898609Y-84199185D01*
X164986210Y-84330288D01*
X164986213Y-84330292D01*
X165097707Y-84441786D01*
X165097711Y-84441789D01*
X165228814Y-84529390D01*
X165228827Y-84529397D01*
X165374498Y-84589735D01*
X165374503Y-84589737D01*
X165529153Y-84620499D01*
X165529156Y-84620500D01*
X165529158Y-84620500D01*
X165686844Y-84620500D01*
X165686845Y-84620499D01*
X165841497Y-84589737D01*
X165987179Y-84529394D01*
X166118289Y-84441789D01*
X166229789Y-84330289D01*
X166317394Y-84199179D01*
X166377737Y-84053497D01*
X166408500Y-83898842D01*
X166408500Y-83741158D01*
X166408500Y-83741155D01*
X166408499Y-83741153D01*
X166377737Y-83586503D01*
X166366040Y-83558263D01*
X166317397Y-83440827D01*
X166317390Y-83440814D01*
X166229789Y-83309711D01*
X166229786Y-83309707D01*
X166118292Y-83198213D01*
X166118288Y-83198210D01*
X165987185Y-83110609D01*
X165987172Y-83110602D01*
X165841501Y-83050264D01*
X165841489Y-83050261D01*
X165686845Y-83019500D01*
X165686842Y-83019500D01*
X165529158Y-83019500D01*
X165529155Y-83019500D01*
X165374510Y-83050261D01*
X165374498Y-83050264D01*
X165228827Y-83110602D01*
X165228814Y-83110609D01*
X165097711Y-83198210D01*
X165097707Y-83198213D01*
X164986213Y-83309707D01*
X164986210Y-83309711D01*
X164898609Y-83440814D01*
X164898602Y-83440827D01*
X164838264Y-83586498D01*
X164838261Y-83586510D01*
X164807500Y-83741153D01*
X156972000Y-83741153D01*
X156972000Y-79502442D01*
X156991685Y-79435403D01*
X157044489Y-79389648D01*
X157113647Y-79379704D01*
X157177203Y-79408729D01*
X157214977Y-79467507D01*
X157217616Y-79478247D01*
X157218263Y-79481496D01*
X157218264Y-79481501D01*
X157278602Y-79627172D01*
X157278609Y-79627185D01*
X157366210Y-79758288D01*
X157366213Y-79758292D01*
X157477707Y-79869786D01*
X157477711Y-79869789D01*
X157608814Y-79957390D01*
X157608827Y-79957397D01*
X157717145Y-80002263D01*
X157754503Y-80017737D01*
X157909153Y-80048499D01*
X157909156Y-80048500D01*
X157909158Y-80048500D01*
X158066844Y-80048500D01*
X158066845Y-80048499D01*
X158221497Y-80017737D01*
X158367179Y-79957394D01*
X158498289Y-79869789D01*
X158609789Y-79758289D01*
X158697394Y-79627179D01*
X158757737Y-79481497D01*
X158788500Y-79326842D01*
X158788500Y-79169158D01*
X158788500Y-79169155D01*
X158788499Y-79169153D01*
X158770954Y-79080950D01*
X158757737Y-79014503D01*
X158727456Y-78941397D01*
X158697397Y-78868827D01*
X158697390Y-78868814D01*
X158609789Y-78737711D01*
X158609786Y-78737707D01*
X158498292Y-78626213D01*
X158498288Y-78626210D01*
X158367185Y-78538609D01*
X158367172Y-78538602D01*
X158221501Y-78478264D01*
X158221489Y-78478261D01*
X158066845Y-78447500D01*
X158066842Y-78447500D01*
X157909158Y-78447500D01*
X157909155Y-78447500D01*
X157754510Y-78478261D01*
X157754498Y-78478264D01*
X157608827Y-78538602D01*
X157608814Y-78538609D01*
X157477711Y-78626210D01*
X157477707Y-78626213D01*
X157366213Y-78737707D01*
X157366210Y-78737711D01*
X157278609Y-78868814D01*
X157278602Y-78868827D01*
X157218264Y-79014498D01*
X157218261Y-79014508D01*
X157217617Y-79017749D01*
X157216811Y-79019289D01*
X157216494Y-79020335D01*
X157216295Y-79020274D01*
X157185232Y-79079660D01*
X157124516Y-79114234D01*
X157054747Y-79110494D01*
X156998075Y-79069627D01*
X156972494Y-79004609D01*
X156972000Y-78993557D01*
X156972000Y-78784893D01*
X156991685Y-78717854D01*
X157000736Y-78705516D01*
X157884372Y-77645153D01*
X160743500Y-77645153D01*
X160743500Y-77802846D01*
X160774261Y-77957489D01*
X160774264Y-77957501D01*
X160834602Y-78103172D01*
X160834609Y-78103185D01*
X160922210Y-78234288D01*
X160922213Y-78234292D01*
X161033707Y-78345786D01*
X161033711Y-78345789D01*
X161164814Y-78433390D01*
X161164827Y-78433397D01*
X161310498Y-78493735D01*
X161310503Y-78493737D01*
X161465153Y-78524499D01*
X161465156Y-78524500D01*
X161465158Y-78524500D01*
X161622844Y-78524500D01*
X161622845Y-78524499D01*
X161777497Y-78493737D01*
X161923179Y-78433394D01*
X162054289Y-78345789D01*
X162073882Y-78326196D01*
X162135204Y-78292709D01*
X162204896Y-78297692D01*
X162260831Y-78339562D01*
X162283182Y-78389683D01*
X162298261Y-78465491D01*
X162298264Y-78465501D01*
X162358602Y-78611172D01*
X162358609Y-78611185D01*
X162446210Y-78742288D01*
X162446213Y-78742292D01*
X162557707Y-78853786D01*
X162557711Y-78853789D01*
X162688814Y-78941390D01*
X162688827Y-78941397D01*
X162834498Y-79001735D01*
X162834503Y-79001737D01*
X162859887Y-79006786D01*
X162921796Y-79039169D01*
X162950257Y-79080950D01*
X162969585Y-79127612D01*
X162969590Y-79127622D01*
X163057191Y-79258725D01*
X163057194Y-79258729D01*
X163168688Y-79370223D01*
X163168692Y-79370226D01*
X163299795Y-79457827D01*
X163299808Y-79457834D01*
X163407503Y-79502442D01*
X163445484Y-79518174D01*
X163600134Y-79548936D01*
X163600137Y-79548937D01*
X163600139Y-79548937D01*
X163757825Y-79548937D01*
X163757826Y-79548936D01*
X163912478Y-79518174D01*
X164058160Y-79457831D01*
X164189270Y-79370226D01*
X164300770Y-79258726D01*
X164388375Y-79127616D01*
X164448718Y-78981934D01*
X164479481Y-78827279D01*
X164479481Y-78669595D01*
X164479481Y-78669592D01*
X164479480Y-78669590D01*
X164453425Y-78538606D01*
X164448718Y-78514940D01*
X164439936Y-78493738D01*
X164388378Y-78369264D01*
X164388371Y-78369251D01*
X164300770Y-78238148D01*
X164300767Y-78238144D01*
X164189273Y-78126650D01*
X164189269Y-78126647D01*
X164058166Y-78039046D01*
X164058153Y-78039039D01*
X163912480Y-77978700D01*
X163912475Y-77978699D01*
X163887089Y-77973649D01*
X163825179Y-77941262D01*
X163796723Y-77899488D01*
X163777394Y-77852821D01*
X163743999Y-77802842D01*
X163689789Y-77721710D01*
X163578292Y-77610213D01*
X163578288Y-77610210D01*
X163447185Y-77522609D01*
X163447172Y-77522602D01*
X163301501Y-77462264D01*
X163301489Y-77462261D01*
X163146845Y-77431500D01*
X163146842Y-77431500D01*
X162989158Y-77431500D01*
X162989155Y-77431500D01*
X162834510Y-77462261D01*
X162834498Y-77462264D01*
X162688827Y-77522602D01*
X162688814Y-77522609D01*
X162557711Y-77610210D01*
X162557706Y-77610214D01*
X162538113Y-77629807D01*
X162476790Y-77663291D01*
X162407098Y-77658305D01*
X162351165Y-77616432D01*
X162328817Y-77566319D01*
X162313737Y-77490503D01*
X162301822Y-77461737D01*
X162253397Y-77344827D01*
X162253390Y-77344814D01*
X162165789Y-77213711D01*
X162165786Y-77213707D01*
X162054292Y-77102213D01*
X162054288Y-77102210D01*
X161923185Y-77014609D01*
X161923172Y-77014602D01*
X161777501Y-76954264D01*
X161777489Y-76954261D01*
X161622845Y-76923500D01*
X161622842Y-76923500D01*
X161465158Y-76923500D01*
X161465155Y-76923500D01*
X161310510Y-76954261D01*
X161310498Y-76954264D01*
X161164827Y-77014602D01*
X161164814Y-77014609D01*
X161033711Y-77102210D01*
X161033707Y-77102213D01*
X160922213Y-77213707D01*
X160922210Y-77213711D01*
X160834609Y-77344814D01*
X160834602Y-77344827D01*
X160774264Y-77490498D01*
X160774261Y-77490510D01*
X160743500Y-77645153D01*
X157884372Y-77645153D01*
X159512000Y-75692000D01*
X159512000Y-73073153D01*
X167331500Y-73073153D01*
X167331500Y-73230846D01*
X167362261Y-73385489D01*
X167362264Y-73385501D01*
X167422602Y-73531172D01*
X167422609Y-73531185D01*
X167510210Y-73662288D01*
X167510213Y-73662292D01*
X167621707Y-73773786D01*
X167621711Y-73773789D01*
X167752814Y-73861390D01*
X167752827Y-73861397D01*
X167898498Y-73921735D01*
X167898503Y-73921737D01*
X168053153Y-73952499D01*
X168053156Y-73952500D01*
X168053158Y-73952500D01*
X168210844Y-73952500D01*
X168210845Y-73952499D01*
X168365497Y-73921737D01*
X168511179Y-73861394D01*
X168642289Y-73773789D01*
X168753789Y-73662289D01*
X168841394Y-73531179D01*
X168901737Y-73385497D01*
X168932500Y-73230842D01*
X168932500Y-73073158D01*
X168932500Y-73073155D01*
X168932499Y-73073153D01*
X168901737Y-72918503D01*
X168878265Y-72861836D01*
X168841397Y-72772827D01*
X168841390Y-72772814D01*
X168753789Y-72641711D01*
X168753786Y-72641707D01*
X168642292Y-72530213D01*
X168642288Y-72530210D01*
X168511185Y-72442609D01*
X168511172Y-72442602D01*
X168365501Y-72382264D01*
X168365489Y-72382261D01*
X168210845Y-72351500D01*
X168210842Y-72351500D01*
X168053158Y-72351500D01*
X168053155Y-72351500D01*
X167898510Y-72382261D01*
X167898498Y-72382264D01*
X167752827Y-72442602D01*
X167752814Y-72442609D01*
X167621711Y-72530210D01*
X167621707Y-72530213D01*
X167510213Y-72641707D01*
X167510210Y-72641711D01*
X167422609Y-72772814D01*
X167422602Y-72772827D01*
X167362264Y-72918498D01*
X167362261Y-72918510D01*
X167331500Y-73073153D01*
X159512000Y-73073153D01*
X159512000Y-70104000D01*
X158591837Y-67036793D01*
X158591428Y-66966929D01*
X158628858Y-66907930D01*
X158692242Y-66878534D01*
X158761458Y-66888072D01*
X158766902Y-66890681D01*
X158778161Y-66896417D01*
X158965294Y-66957221D01*
X159159618Y-66988000D01*
X159356382Y-66988000D01*
X159550705Y-66957221D01*
X159737835Y-66896418D01*
X159913143Y-66807095D01*
X159948125Y-66781678D01*
X159948126Y-66781678D01*
X159304447Y-66138000D01*
X159310661Y-66138000D01*
X159412394Y-66110741D01*
X159503606Y-66058080D01*
X159578080Y-65983606D01*
X159630741Y-65892394D01*
X159658000Y-65790661D01*
X159658000Y-65784447D01*
X160301678Y-66428126D01*
X160301678Y-66428125D01*
X160327097Y-66393141D01*
X160417234Y-66216236D01*
X160465208Y-66165439D01*
X160533029Y-66148644D01*
X160599164Y-66171181D01*
X160638204Y-66216235D01*
X160639115Y-66218024D01*
X160639116Y-66218025D01*
X160728476Y-66393405D01*
X160844172Y-66552646D01*
X160983354Y-66691828D01*
X161142595Y-66807524D01*
X161225455Y-66849743D01*
X161317970Y-66896882D01*
X161317972Y-66896882D01*
X161317975Y-66896884D01*
X161418317Y-66929487D01*
X161505173Y-66957709D01*
X161699578Y-66988500D01*
X161699583Y-66988500D01*
X161896422Y-66988500D01*
X162090826Y-66957709D01*
X162092328Y-66957221D01*
X162278025Y-66896884D01*
X162453405Y-66807524D01*
X162612646Y-66691828D01*
X162751828Y-66552646D01*
X162867524Y-66393405D01*
X162956884Y-66218025D01*
X163017709Y-66030826D01*
X163025188Y-65983606D01*
X163048500Y-65836422D01*
X163048500Y-65639577D01*
X163017709Y-65445173D01*
X162972104Y-65304818D01*
X162956884Y-65257975D01*
X162956882Y-65257972D01*
X162956882Y-65257970D01*
X162896086Y-65138651D01*
X162867524Y-65082595D01*
X162751828Y-64923354D01*
X162612646Y-64784172D01*
X162453405Y-64668476D01*
X162278029Y-64579117D01*
X162090826Y-64518290D01*
X161896422Y-64487500D01*
X161896417Y-64487500D01*
X161699583Y-64487500D01*
X161699578Y-64487500D01*
X161505173Y-64518290D01*
X161317970Y-64579117D01*
X161142594Y-64668476D01*
X161051741Y-64734485D01*
X160983354Y-64784172D01*
X160983352Y-64784174D01*
X160983351Y-64784174D01*
X160844174Y-64923351D01*
X160844174Y-64923352D01*
X160844172Y-64923354D01*
X160820202Y-64956346D01*
X160728476Y-65082594D01*
X160638204Y-65259764D01*
X160590229Y-65310560D01*
X160522408Y-65327355D01*
X160456274Y-65304818D01*
X160417234Y-65259764D01*
X160327096Y-65082858D01*
X160301678Y-65047873D01*
X160301677Y-65047873D01*
X159658000Y-65691551D01*
X159658000Y-65685339D01*
X159630741Y-65583606D01*
X159578080Y-65492394D01*
X159503606Y-65417920D01*
X159412394Y-65365259D01*
X159310661Y-65338000D01*
X159304447Y-65338000D01*
X159948125Y-64694320D01*
X159948125Y-64694319D01*
X159913145Y-64668905D01*
X159737835Y-64579581D01*
X159550705Y-64518778D01*
X159356382Y-64488000D01*
X159159618Y-64488000D01*
X158965294Y-64518778D01*
X158778161Y-64579582D01*
X158602863Y-64668899D01*
X158602859Y-64668902D01*
X158567873Y-64694320D01*
X158567872Y-64694320D01*
X159211554Y-65338000D01*
X159205339Y-65338000D01*
X159103606Y-65365259D01*
X159012394Y-65417920D01*
X158937920Y-65492394D01*
X158885259Y-65583606D01*
X158858000Y-65685339D01*
X158858000Y-65691553D01*
X158214320Y-65047872D01*
X158214319Y-65047873D01*
X158212319Y-65050626D01*
X158187338Y-65069888D01*
X158163511Y-65090536D01*
X158159888Y-65091056D01*
X158156990Y-65093292D01*
X158125567Y-65095991D01*
X158094353Y-65100480D01*
X158091023Y-65098959D01*
X158087377Y-65099273D01*
X158059482Y-65084555D01*
X158030797Y-65071455D01*
X158028818Y-65068376D01*
X158025581Y-65066668D01*
X158010071Y-65039205D01*
X157993023Y-65012677D01*
X157992317Y-65007767D01*
X157991223Y-65005830D01*
X157988000Y-64977742D01*
X157988000Y-62637852D01*
X158007685Y-62570813D01*
X158060489Y-62525058D01*
X158129647Y-62515114D01*
X158138318Y-62516677D01*
G37*
%TD.AperFunction*%
%TD*%
M02*
