%TF.GenerationSoftware,KiCad,Pcbnew,9.0.3*%
%TF.CreationDate,2025-08-02T21:51:47-05:00*%
%TF.ProjectId,DMM_KiCAD_V3_next KiCAD9,444d4d5f-4b69-4434-9144-5f56335f6e65,rev?*%
%TF.SameCoordinates,Original*%
%TF.FileFunction,Copper,L1,Top*%
%TF.FilePolarity,Positive*%
%FSLAX46Y46*%
G04 Gerber Fmt 4.6, Leading zero omitted, Abs format (unit mm)*
G04 Created by KiCad (PCBNEW 9.0.3) date 2025-08-02 21:51:47*
%MOMM*%
%LPD*%
G01*
G04 APERTURE LIST*
G04 Aperture macros list*
%AMRoundRect*
0 Rectangle with rounded corners*
0 $1 Rounding radius*
0 $2 $3 $4 $5 $6 $7 $8 $9 X,Y pos of 4 corners*
0 Add a 4 corners polygon primitive as box body*
4,1,4,$2,$3,$4,$5,$6,$7,$8,$9,$2,$3,0*
0 Add four circle primitives for the rounded corners*
1,1,$1+$1,$2,$3*
1,1,$1+$1,$4,$5*
1,1,$1+$1,$6,$7*
1,1,$1+$1,$8,$9*
0 Add four rect primitives between the rounded corners*
20,1,$1+$1,$2,$3,$4,$5,0*
20,1,$1+$1,$4,$5,$6,$7,0*
20,1,$1+$1,$6,$7,$8,$9,0*
20,1,$1+$1,$8,$9,$2,$3,0*%
G04 Aperture macros list end*
%TA.AperFunction,EtchedComponent*%
%ADD10C,0.000000*%
%TD*%
%TA.AperFunction,SMDPad,CuDef*%
%ADD11RoundRect,0.250000X-0.350000X-0.450000X0.350000X-0.450000X0.350000X0.450000X-0.350000X0.450000X0*%
%TD*%
%TA.AperFunction,SMDPad,CuDef*%
%ADD12RoundRect,0.150000X-0.825000X-0.150000X0.825000X-0.150000X0.825000X0.150000X-0.825000X0.150000X0*%
%TD*%
%TA.AperFunction,SMDPad,CuDef*%
%ADD13R,1.800000X0.650000*%
%TD*%
%TA.AperFunction,SMDPad,CuDef*%
%ADD14R,1.500000X1.500000*%
%TD*%
%TA.AperFunction,SMDPad,CuDef*%
%ADD15R,2.400000X1.600000*%
%TD*%
%TA.AperFunction,SMDPad,CuDef*%
%ADD16R,2.400000X0.600000*%
%TD*%
%TA.AperFunction,SMDPad,CuDef*%
%ADD17R,0.500000X0.600000*%
%TD*%
%TA.AperFunction,ComponentPad*%
%ADD18R,3.500000X3.500000*%
%TD*%
%TA.AperFunction,ComponentPad*%
%ADD19RoundRect,0.750000X0.750000X1.000000X-0.750000X1.000000X-0.750000X-1.000000X0.750000X-1.000000X0*%
%TD*%
%TA.AperFunction,ComponentPad*%
%ADD20RoundRect,0.875000X0.875000X0.875000X-0.875000X0.875000X-0.875000X-0.875000X0.875000X-0.875000X0*%
%TD*%
%TA.AperFunction,SMDPad,CuDef*%
%ADD21RoundRect,0.250000X-0.450000X0.350000X-0.450000X-0.350000X0.450000X-0.350000X0.450000X0.350000X0*%
%TD*%
%TA.AperFunction,ComponentPad*%
%ADD22O,3.500000X2.200000*%
%TD*%
%TA.AperFunction,ComponentPad*%
%ADD23R,2.500000X1.500000*%
%TD*%
%TA.AperFunction,ComponentPad*%
%ADD24O,2.500000X1.500000*%
%TD*%
%TA.AperFunction,SMDPad,CuDef*%
%ADD25RoundRect,0.150000X0.587500X0.150000X-0.587500X0.150000X-0.587500X-0.150000X0.587500X-0.150000X0*%
%TD*%
%TA.AperFunction,SMDPad,CuDef*%
%ADD26RoundRect,0.250000X0.350000X0.450000X-0.350000X0.450000X-0.350000X-0.450000X0.350000X-0.450000X0*%
%TD*%
%TA.AperFunction,SMDPad,CuDef*%
%ADD27RoundRect,0.225000X-0.375000X0.225000X-0.375000X-0.225000X0.375000X-0.225000X0.375000X0.225000X0*%
%TD*%
%TA.AperFunction,SMDPad,CuDef*%
%ADD28RoundRect,0.250000X-0.475000X0.337500X-0.475000X-0.337500X0.475000X-0.337500X0.475000X0.337500X0*%
%TD*%
%TA.AperFunction,SMDPad,CuDef*%
%ADD29RoundRect,0.150000X0.150000X-0.587500X0.150000X0.587500X-0.150000X0.587500X-0.150000X-0.587500X0*%
%TD*%
%TA.AperFunction,SMDPad,CuDef*%
%ADD30RoundRect,0.150000X-0.587500X-0.150000X0.587500X-0.150000X0.587500X0.150000X-0.587500X0.150000X0*%
%TD*%
%TA.AperFunction,SMDPad,CuDef*%
%ADD31R,0.900000X0.900000*%
%TD*%
%TA.AperFunction,SMDPad,CuDef*%
%ADD32RoundRect,0.250000X0.475000X-0.337500X0.475000X0.337500X-0.475000X0.337500X-0.475000X-0.337500X0*%
%TD*%
%TA.AperFunction,SMDPad,CuDef*%
%ADD33RoundRect,0.150000X0.825000X0.150000X-0.825000X0.150000X-0.825000X-0.150000X0.825000X-0.150000X0*%
%TD*%
%TA.AperFunction,ComponentPad*%
%ADD34R,1.700000X1.700000*%
%TD*%
%TA.AperFunction,ComponentPad*%
%ADD35O,1.700000X1.700000*%
%TD*%
%TA.AperFunction,SMDPad,CuDef*%
%ADD36RoundRect,0.375000X0.625000X0.375000X-0.625000X0.375000X-0.625000X-0.375000X0.625000X-0.375000X0*%
%TD*%
%TA.AperFunction,SMDPad,CuDef*%
%ADD37RoundRect,0.500000X0.500000X1.400000X-0.500000X1.400000X-0.500000X-1.400000X0.500000X-1.400000X0*%
%TD*%
%TA.AperFunction,SMDPad,CuDef*%
%ADD38R,1.000000X1.500000*%
%TD*%
%TA.AperFunction,SMDPad,CuDef*%
%ADD39RoundRect,0.250000X-0.337500X-0.475000X0.337500X-0.475000X0.337500X0.475000X-0.337500X0.475000X0*%
%TD*%
%TA.AperFunction,SMDPad,CuDef*%
%ADD40R,0.250000X1.100000*%
%TD*%
%TA.AperFunction,SMDPad,CuDef*%
%ADD41RoundRect,0.150000X-0.150000X0.587500X-0.150000X-0.587500X0.150000X-0.587500X0.150000X0.587500X0*%
%TD*%
%TA.AperFunction,SMDPad,CuDef*%
%ADD42RoundRect,0.150000X0.512500X0.150000X-0.512500X0.150000X-0.512500X-0.150000X0.512500X-0.150000X0*%
%TD*%
%TA.AperFunction,SMDPad,CuDef*%
%ADD43RoundRect,0.162500X0.617500X0.162500X-0.617500X0.162500X-0.617500X-0.162500X0.617500X-0.162500X0*%
%TD*%
%TA.AperFunction,SMDPad,CuDef*%
%ADD44RoundRect,0.250001X-0.624999X0.462499X-0.624999X-0.462499X0.624999X-0.462499X0.624999X0.462499X0*%
%TD*%
%TA.AperFunction,ViaPad*%
%ADD45C,0.800000*%
%TD*%
%TA.AperFunction,Conductor*%
%ADD46C,0.250000*%
%TD*%
%TA.AperFunction,Conductor*%
%ADD47C,0.750000*%
%TD*%
%TA.AperFunction,Conductor*%
%ADD48C,0.350000*%
%TD*%
G04 APERTURE END LIST*
D10*
%TA.AperFunction,EtchedComponent*%
%TO.C,JP6*%
G36*
X122800000Y-81350000D02*
G01*
X122300000Y-81350000D01*
X122300000Y-80750000D01*
X122800000Y-80750000D01*
X122800000Y-81350000D01*
G37*
%TD.AperFunction*%
%TD*%
D11*
%TO.P,R7,1*%
%TO.N,I_Input*%
X135500000Y-60800000D03*
%TO.P,R7,2*%
%TO.N,Net-(J11-Pin_2)*%
X137500000Y-60800000D03*
%TD*%
D12*
%TO.P,U8,1*%
%TO.N,unconnected-(U8-Pad1)*%
X108150000Y-57100000D03*
%TO.P,U8,2,-*%
%TO.N,unconnected-(U8A---Pad2)*%
X108150000Y-58370000D03*
%TO.P,U8,3,+*%
%TO.N,unconnected-(U8A-+-Pad3)*%
X108150000Y-59640000D03*
%TO.P,U8,4,V-*%
%TO.N,unconnected-(U8C-V--Pad4)*%
X108150000Y-60910000D03*
%TO.P,U8,5,+*%
%TO.N,unconnected-(U8B-+-Pad5)*%
X113100000Y-60910000D03*
%TO.P,U8,6,-*%
%TO.N,unconnected-(U8B---Pad6)*%
X113100000Y-59640000D03*
%TO.P,U8,7*%
%TO.N,unconnected-(U8-Pad7)*%
X113100000Y-58370000D03*
%TO.P,U8,8,V+*%
%TO.N,unconnected-(U8C-V+-Pad8)*%
X113100000Y-57100000D03*
%TD*%
D13*
%TO.P,L1,1,1*%
%TO.N,XIAO Batt Pin*%
X88778500Y-71194000D03*
%TO.P,L1,2,2*%
%TO.N,Net-(U9-SW)*%
X88778500Y-69644000D03*
%TD*%
D14*
%TO.P,SW1,2,2*%
%TO.N,GND*%
X104775000Y-56515000D03*
%TO.P,SW1,1,1*%
%TO.N,D3~*%
X96975000Y-56515000D03*
%TD*%
%TO.P,SW2,2,2*%
%TO.N,GND*%
X104775000Y-62230000D03*
%TO.P,SW2,1,1*%
%TO.N,D10~*%
X96975000Y-62230000D03*
%TD*%
D15*
%TO.P,D1,1,K*%
%TO.N,GND*%
X87630000Y-58465000D03*
D16*
%TO.P,D1,2,A*%
%TO.N,Net-(D1-A)*%
X87630000Y-56815000D03*
D17*
X87630000Y-56515000D03*
%TD*%
D18*
%TO.P,J14,1*%
%TO.N,Resistor_Input*%
X138145000Y-68835000D03*
D19*
%TO.P,J14,2*%
%TO.N,Net-(F1-Pad1)*%
X144145000Y-68835000D03*
D20*
%TO.P,J14,3*%
%TO.N,N/C*%
X141145000Y-64135000D03*
%TD*%
D18*
%TO.P,J15,1*%
%TO.N,V_Input_Float*%
X138145000Y-91060000D03*
D19*
%TO.P,J15,2*%
%TO.N,V_Input_REF*%
X144145000Y-91060000D03*
D20*
%TO.P,J15,3*%
%TO.N,N/C*%
X141145000Y-86360000D03*
%TD*%
D21*
%TO.P,R1,2*%
%TO.N,VDD*%
X91600000Y-59000000D03*
%TO.P,R1,1*%
%TO.N,Net-(Q1-C)*%
X91600000Y-57000000D03*
%TD*%
D22*
%TO.P,SW3,*%
%TO.N,*%
X81280000Y-58765000D03*
X81280000Y-66965000D03*
D23*
%TO.P,SW3,1,A*%
%TO.N,+BATT*%
X81280000Y-60865000D03*
D24*
%TO.P,SW3,2,B*%
%TO.N,XIAO Batt Pin*%
X81280000Y-62865000D03*
%TO.P,SW3,3,C*%
%TO.N,XIAO 5V*%
X81280000Y-64865000D03*
%TD*%
D12*
%TO.P,U4,8,NC*%
%TO.N,unconnected-(U4-NC-Pad8)*%
X107885000Y-89535000D03*
%TO.P,U4,7,OUT_A*%
%TO.N,/Driver_U4_Out_A*%
X107885000Y-90805000D03*
%TO.P,U4,6,Vcc*%
%TO.N,+9V*%
X107885000Y-92075000D03*
%TO.P,U4,5,OUT_B*%
%TO.N,/Driver_U4_Out_B*%
X107885000Y-93345000D03*
%TO.P,U4,4,IN_B*%
%TO.N,/Driver_U4_In_B*%
X102935000Y-93345000D03*
%TO.P,U4,3,GND*%
%TO.N,GND*%
X102935000Y-92075000D03*
%TO.P,U4,2,IN_A*%
%TO.N,D5~ (IR)*%
X102935000Y-90805000D03*
%TO.P,U4,1,NC*%
%TO.N,unconnected-(U4-NC-Pad1)*%
X102935000Y-89535000D03*
%TD*%
%TO.P,U5,1*%
%TO.N,unconnected-(U5-Pad1)*%
X131850000Y-54390000D03*
%TO.P,U5,2,-*%
%TO.N,unconnected-(U5A---Pad2)*%
X131850000Y-55660000D03*
%TO.P,U5,3,+*%
%TO.N,unconnected-(U5A-+-Pad3)*%
X131850000Y-56930000D03*
%TO.P,U5,4,V-*%
%TO.N,unconnected-(U5C-V--Pad4)*%
X131850000Y-58200000D03*
%TO.P,U5,5,+*%
%TO.N,unconnected-(U5B-+-Pad5)*%
X136800000Y-58200000D03*
%TO.P,U5,6,-*%
%TO.N,unconnected-(U5B---Pad6)*%
X136800000Y-56930000D03*
%TO.P,U5,7*%
%TO.N,unconnected-(U5-Pad7)*%
X136800000Y-55660000D03*
%TO.P,U5,8,V+*%
%TO.N,unconnected-(U5C-V+-Pad8)*%
X136800000Y-54390000D03*
%TD*%
D25*
%TO.P,U10,1,K*%
%TO.N,/V Ref to ADS-0*%
X124968000Y-87498000D03*
%TO.P,U10,2,A*%
%TO.N,GND*%
X124968000Y-85598000D03*
%TO.P,U10,3,nc_(gnd)*%
X123093000Y-86548000D03*
%TD*%
D11*
%TO.P,R27,1*%
%TO.N,VDD*%
X122190000Y-89916000D03*
%TO.P,R27,2*%
%TO.N,/V Ref to ADS-0*%
X124190000Y-89916000D03*
%TD*%
%TO.P,R14,1*%
%TO.N,/V Ref to ADS-0*%
X128810000Y-90170000D03*
%TO.P,R14,2*%
%TO.N,/ADC-1*%
X130810000Y-90170000D03*
%TD*%
D26*
%TO.P,R17,2*%
%TO.N,/ADC-1*%
X132985000Y-90170000D03*
%TO.P,R17,1*%
%TO.N,V_Input_Float*%
X134985000Y-90170000D03*
%TD*%
D27*
%TO.P,D4,2,A*%
%TO.N,/ADC-1*%
X136200000Y-79350000D03*
%TO.P,D4,1,K*%
%TO.N,VDD*%
X136200000Y-76050000D03*
%TD*%
%TO.P,D5,2,A*%
%TO.N,GND*%
X136200000Y-84850000D03*
%TO.P,D5,1,K*%
%TO.N,/ADC-1*%
X136200000Y-81550000D03*
%TD*%
D28*
%TO.P,C17,2*%
%TO.N,/V Ref to ADS-0*%
X127508000Y-87651500D03*
%TO.P,C17,1*%
%TO.N,GND*%
X127508000Y-85576500D03*
%TD*%
D26*
%TO.P,R18,2*%
%TO.N,/V Ref to ADS-0*%
X133890000Y-95250000D03*
%TO.P,R18,1*%
%TO.N,V_Input_REF*%
X135890000Y-95250000D03*
%TD*%
D29*
%TO.P,Q8,3,D*%
%TO.N,/V Ref to ADS-0*%
X130600000Y-83262500D03*
%TO.P,Q8,2,S*%
%TO.N,/ADC-1*%
X131550000Y-85137500D03*
%TO.P,Q8,1,G*%
%TO.N,/Driver_U4_Out_A*%
X129650000Y-85137500D03*
%TD*%
D26*
%TO.P,R24,1*%
%TO.N,/ADC-1*%
X132500000Y-87600000D03*
%TO.P,R24,2*%
%TO.N,/V Ref to ADS-0*%
X130500000Y-87600000D03*
%TD*%
D30*
%TO.P,Q7,1,G*%
%TO.N,+3V3*%
X122307000Y-76920000D03*
%TO.P,Q7,2,S*%
%TO.N,SDA*%
X122307000Y-78820000D03*
%TO.P,Q7,3,D*%
%TO.N,SDA-5V*%
X124182000Y-77870000D03*
%TD*%
%TO.P,Q6,1,G*%
%TO.N,+3V3*%
X113207000Y-76720000D03*
%TO.P,Q6,2,S*%
%TO.N,SCL*%
X113207000Y-78620000D03*
%TO.P,Q6,3,D*%
%TO.N,SCL-5V*%
X115082000Y-77670000D03*
%TD*%
D31*
%TO.P,RN2,8,R1.2*%
%TO.N,SCL-5V*%
X120282000Y-74770000D03*
%TO.P,RN2,7,R4.2*%
%TO.N,SDA-5V*%
X120282000Y-76110000D03*
%TO.P,RN2,6,R3.2*%
%TO.N,SDA*%
X120282000Y-77430000D03*
%TO.P,RN2,5,R2.2*%
%TO.N,+3V3*%
X120282000Y-78770000D03*
%TO.P,RN2,4,R2.1*%
%TO.N,SCL*%
X117282000Y-78770000D03*
%TO.P,RN2,3,R3.1*%
%TO.N,+3V3*%
X117282000Y-77430000D03*
%TO.P,RN2,2,R4.1*%
%TO.N,VDD*%
X117282000Y-76110000D03*
%TO.P,RN2,1,R1.1*%
X117282000Y-74770000D03*
%TD*%
D32*
%TO.P,C3,2*%
%TO.N,GND*%
X127000000Y-68304500D03*
%TO.P,C3,1*%
%TO.N,Resistor_Input*%
X127000000Y-70379500D03*
%TD*%
D30*
%TO.P,Q2,1,G*%
%TO.N,Net-(Q2-G)*%
X119712500Y-67630000D03*
%TO.P,Q2,2,S*%
%TO.N,Resistor_Input*%
X119712500Y-69530000D03*
%TO.P,Q2,3,D*%
%TO.N,/R Circuit I Output*%
X121587500Y-68580000D03*
%TD*%
D32*
%TO.P,C18,1*%
%TO.N,/R Circuit I Output*%
X124460000Y-68982500D03*
%TO.P,C18,2*%
%TO.N,GND*%
X124460000Y-66907500D03*
%TD*%
D33*
%TO.P,U2,1,NC*%
%TO.N,unconnected-(U2-NC-Pad1)*%
X124330000Y-62865000D03*
%TO.P,U2,2,IN_A*%
%TO.N,D7*%
X124330000Y-61595000D03*
%TO.P,U2,3,GND*%
%TO.N,GND*%
X124330000Y-60325000D03*
%TO.P,U2,4,IN_B*%
%TO.N,D9~*%
X124330000Y-59055000D03*
%TO.P,U2,5,OUT_B*%
%TO.N,/Driver_U2_Out_B*%
X119380000Y-59055000D03*
%TO.P,U2,6,Vcc*%
%TO.N,+9V*%
X119380000Y-60325000D03*
%TO.P,U2,7,OUT_A*%
%TO.N,Net-(Q2-G)*%
X119380000Y-61595000D03*
%TO.P,U2,8,NC*%
%TO.N,unconnected-(U2-NC-Pad8)*%
X119380000Y-62865000D03*
%TD*%
D32*
%TO.P,C4,1*%
%TO.N,GND*%
X128660305Y-74531630D03*
%TO.P,C4,2*%
%TO.N,VDD*%
X128660305Y-72456630D03*
%TD*%
D26*
%TO.P,R4,1*%
%TO.N,A3{slash}D17*%
X129540000Y-95880000D03*
%TO.P,R4,2*%
%TO.N,+VSW*%
X127540000Y-95880000D03*
%TD*%
D34*
%TO.P,J16,1,Pin_1*%
%TO.N,/R into ADS*%
X144145000Y-75565000D03*
%TD*%
%TO.P,J8,1,Pin_1*%
%TO.N,unconnected-(J8-Pin_1-Pad1)*%
X120015000Y-50800000D03*
D35*
%TO.P,J8,2,Pin_2*%
%TO.N,unconnected-(J8-Pin_2-Pad2)*%
X117475000Y-50800000D03*
%TO.P,J8,3,Pin_3*%
%TO.N,CS*%
X114935000Y-50800000D03*
%TO.P,J8,4,Pin_4*%
%TO.N,MOSI*%
X112395000Y-50800000D03*
%TO.P,J8,5,Pin_5*%
%TO.N,MISO*%
X109855000Y-50800000D03*
%TO.P,J8,6,Pin_6*%
%TO.N,CLK*%
X107315000Y-50800000D03*
%TO.P,J8,7,Pin_7*%
%TO.N,GND*%
X104775000Y-50800000D03*
%TO.P,J8,8,Pin_8*%
%TO.N,unconnected-(J8-Pin_8-Pad8)*%
X102235000Y-50800000D03*
%TO.P,J8,9,Pin_9*%
%TO.N,SDA*%
X99695000Y-50800000D03*
%TO.P,J8,10,Pin_10*%
%TO.N,SCL*%
X97155000Y-50800000D03*
%TD*%
D36*
%TO.P,U1,1,ADJ*%
%TO.N,/R Circuit I Output*%
X116840000Y-69498750D03*
%TO.P,U1,2,VO*%
%TO.N,Net-(U1-VO)*%
X116840000Y-67198750D03*
D37*
X110540000Y-67198750D03*
D36*
%TO.P,U1,3,VI*%
%TO.N,/Driver_U2_Out_B*%
X116840000Y-64898750D03*
%TD*%
D38*
%TO.P,JP6,1,A*%
%TO.N,GND*%
X121900000Y-81050000D03*
%TO.P,JP6,2,B*%
%TO.N,ADS_ADDR*%
X123200000Y-81050000D03*
%TD*%
D39*
%TO.P,C19,1*%
%TO.N,VDD*%
X87884000Y-61468000D03*
%TO.P,C19,2*%
%TO.N,GND*%
X89959000Y-61468000D03*
%TD*%
D26*
%TO.P,R22,1*%
%TO.N,VDD*%
X119745000Y-94615000D03*
%TO.P,R22,2*%
%TO.N,/Uno5vPin*%
X117745000Y-94615000D03*
%TD*%
D40*
%TO.P,U3,1,ADDR*%
%TO.N,ADS_ADDR*%
X131200305Y-75309130D03*
%TO.P,U3,2,ALERT/RDY*%
%TO.N,ADS_ALERT*%
X131700305Y-75309130D03*
%TO.P,U3,3,GND*%
%TO.N,GND*%
X132200305Y-75309130D03*
%TO.P,U3,4,AIN0*%
%TO.N,/V Ref to ADS-0*%
X132700305Y-75309130D03*
%TO.P,U3,5,AIN1*%
%TO.N,/ADC-1*%
X133200305Y-75309130D03*
%TO.P,U3,6,AIN2*%
%TO.N,/R into ADS*%
X133200305Y-71009130D03*
%TO.P,U3,7,AIN3*%
%TO.N,I_Input*%
X132700305Y-71009130D03*
%TO.P,U3,8,VDD*%
%TO.N,VDD*%
X132200305Y-71009130D03*
%TO.P,U3,9,SDA*%
%TO.N,SDA-5V*%
X131700305Y-71009130D03*
%TO.P,U3,10,SCL*%
%TO.N,SCL-5V*%
X131200305Y-71009130D03*
%TD*%
D34*
%TO.P,J10,1,Pin_1*%
%TO.N,A0{slash}D14*%
X129151624Y-99067665D03*
D35*
%TO.P,J10,2,Pin_2*%
%TO.N,A1{slash}D15*%
X131691624Y-99067665D03*
%TO.P,J10,3,Pin_3*%
%TO.N,A2{slash}D16*%
X134231624Y-99067665D03*
%TO.P,J10,4,Pin_4*%
%TO.N,A3{slash}D17*%
X136771624Y-99067665D03*
%TO.P,J10,5,Pin_5*%
%TO.N,unconnected-(J10-Pin_5-Pad5)*%
X139311624Y-99067665D03*
%TO.P,J10,6,Pin_6*%
%TO.N,unconnected-(J10-Pin_6-Pad6)*%
X141851624Y-99067665D03*
%TD*%
D11*
%TO.P,R3,1*%
%TO.N,GND*%
X127540000Y-93345000D03*
%TO.P,R3,2*%
%TO.N,A3{slash}D17*%
X129540000Y-93345000D03*
%TD*%
D34*
%TO.P,J11,1,Pin_1*%
%TO.N,VDD*%
X144215000Y-54625000D03*
D35*
%TO.P,J11,2,Pin_2*%
%TO.N,Net-(J11-Pin_2)*%
X144215000Y-57165000D03*
%TO.P,J11,3,Pin_3*%
%TO.N,GND*%
X144215000Y-59705000D03*
%TD*%
D11*
%TO.P,R5,1*%
%TO.N,Net-(U1-VO)*%
X112030000Y-72518750D03*
%TO.P,R5,2*%
%TO.N,/R Circuit I Output*%
X114030000Y-72518750D03*
%TD*%
%TO.P,R9,1*%
%TO.N,/R Circuit I Output*%
X116795000Y-72178750D03*
%TO.P,R9,2*%
%TO.N,Resistor_Input*%
X118795000Y-72178750D03*
%TD*%
D14*
%TO.P,SW4,1,1*%
%TO.N,A1{slash}D15*%
X104865000Y-67945000D03*
%TO.P,SW4,2,2*%
%TO.N,GND*%
X97065000Y-67945000D03*
%TD*%
D28*
%TO.P,C9,1*%
%TO.N,Net-(U7-C1-)*%
X95631000Y-71943000D03*
%TO.P,C9,2*%
%TO.N,Net-(U7-C1+)*%
X95631000Y-74018000D03*
%TD*%
D26*
%TO.P,R23,1*%
%TO.N,/Uno5vPin*%
X114665000Y-94615000D03*
%TO.P,R23,2*%
%TO.N,+BATT*%
X112665000Y-94615000D03*
%TD*%
D41*
%TO.P,U11,1,K*%
%TO.N,/R Circuit I Output*%
X111125000Y-74942500D03*
%TO.P,U11,2,A*%
%TO.N,GND*%
X109225000Y-74942500D03*
%TO.P,U11,3,nc_(gnd)*%
X110175000Y-76817500D03*
%TD*%
D34*
%TO.P,J12,1,Pin_1*%
%TO.N,A0{slash}D14*%
X144145000Y-79375000D03*
D35*
%TO.P,J12,2,Pin_2*%
%TO.N,GND*%
X144145000Y-81915000D03*
%TD*%
D42*
%TO.P,U9,1,SW*%
%TO.N,Net-(U9-SW)*%
X89916000Y-68194000D03*
%TO.P,U9,2,GND*%
%TO.N,GND*%
X89916000Y-67244000D03*
%TO.P,U9,3,nc_(gnd)*%
X89916000Y-66294000D03*
%TO.P,U9,4,VOUT*%
%TO.N,VDD*%
X87641000Y-66294000D03*
%TO.P,U9,5,nc_(vdd)*%
X87641000Y-68194000D03*
%TD*%
D43*
%TO.P,U7,1,Gnd*%
%TO.N,GND*%
X100711000Y-73848000D03*
%TO.P,U7,2,Out*%
%TO.N,+9V*%
X100711000Y-72898000D03*
%TO.P,U7,3,C1-*%
%TO.N,Net-(U7-C1-)*%
X100711000Y-71948000D03*
%TO.P,U7,4,In*%
%TO.N,VDD*%
X98011000Y-71948000D03*
%TO.P,U7,5,C1+*%
%TO.N,Net-(U7-C1+)*%
X98011000Y-73848000D03*
%TD*%
D34*
%TO.P,J17,1,Pin_1*%
%TO.N,XIAO Batt Pin*%
X81915000Y-71120000D03*
%TD*%
D26*
%TO.P,R6,1*%
%TO.N,GND*%
X124190000Y-72390000D03*
%TO.P,R6,2*%
%TO.N,/R Circuit I Output*%
X122190000Y-72390000D03*
%TD*%
D32*
%TO.P,C10,1*%
%TO.N,GND*%
X103251000Y-74018000D03*
%TO.P,C10,2*%
%TO.N,+9V*%
X103251000Y-71943000D03*
%TD*%
D11*
%TO.P,R21,1*%
%TO.N,/R into ADS*%
X138700000Y-75565000D03*
%TO.P,R21,2*%
%TO.N,Resistor_Input*%
X140700000Y-75565000D03*
%TD*%
D34*
%TO.P,J6,1,Pin_1*%
%TO.N,unconnected-(J6-Pin_1-Pad1)*%
X106287792Y-99065110D03*
D35*
%TO.P,J6,2,Pin_2*%
%TO.N,unconnected-(J6-Pin_2-Pad2)*%
X108827792Y-99065110D03*
%TO.P,J6,3,Pin_3*%
%TO.N,unconnected-(J6-Pin_3-Pad3)*%
X111367792Y-99065110D03*
%TO.P,J6,4,Pin_4*%
%TO.N,+3V3*%
X113907792Y-99065110D03*
%TO.P,J6,5,Pin_5*%
%TO.N,/Uno5vPin*%
X116447792Y-99065110D03*
%TO.P,J6,6,Pin_6*%
%TO.N,GND*%
X118987792Y-99065110D03*
%TO.P,J6,7,Pin_7*%
X121527792Y-99065110D03*
%TO.P,J6,8,Pin_8*%
%TO.N,+VSW*%
X124067792Y-99065110D03*
%TD*%
D44*
%TO.P,F1,1*%
%TO.N,Net-(F1-Pad1)*%
X127000000Y-79157500D03*
%TO.P,F1,2*%
%TO.N,GND*%
X127000000Y-82132500D03*
%TD*%
D34*
%TO.P,J3,1,Pin_1*%
%TO.N,A0{slash}D14*%
X82487996Y-92719534D03*
D35*
%TO.P,J3,2,Pin_2*%
%TO.N,A1{slash}D15*%
X85027996Y-92719534D03*
%TO.P,J3,3,Pin_3*%
%TO.N,A2{slash}D16*%
X87567996Y-92719534D03*
%TO.P,J3,4,Pin_4*%
%TO.N,D3~*%
X90107996Y-92719534D03*
%TO.P,J3,5,Pin_5*%
%TO.N,SDA*%
X92647996Y-92719534D03*
%TO.P,J3,6,Pin_6*%
%TO.N,SCL*%
X95187996Y-92719534D03*
%TO.P,J3,7,Pin_7*%
%TO.N,D6~*%
X97727996Y-92719534D03*
%TD*%
D34*
%TO.P,J13,1,Pin_1*%
%TO.N,unconnected-(J13-Pin_1-Pad1)*%
X141809463Y-50808987D03*
D35*
%TO.P,J13,2,Pin_2*%
%TO.N,unconnected-(J13-Pin_2-Pad2)*%
X139269463Y-50808987D03*
%TO.P,J13,3,Pin_3*%
%TO.N,D9~*%
X136729463Y-50808987D03*
%TO.P,J13,4,Pin_4*%
%TO.N,D3~*%
X134189463Y-50808987D03*
%TO.P,J13,5,Pin_5*%
%TO.N,D10~*%
X131649463Y-50808987D03*
%TO.P,J13,6,Pin_6*%
%TO.N,D5~ (IR)*%
X129109463Y-50808987D03*
%TO.P,J13,7,Pin_7*%
%TO.N,D6~*%
X126569463Y-50808987D03*
%TO.P,J13,8,Pin_8*%
%TO.N,D7*%
X124029463Y-50808987D03*
%TD*%
D34*
%TO.P,J7,1,Pin_1*%
%TO.N,+BATT*%
X83820000Y-53315000D03*
D35*
%TO.P,J7,2,Pin_2*%
%TO.N,GND*%
X86360000Y-53315000D03*
%TD*%
D34*
%TO.P,J1,1,Pin_1*%
%TO.N,XIAO 5V*%
X82487996Y-77479534D03*
D35*
%TO.P,J1,2,Pin_2*%
%TO.N,GND*%
X85027996Y-77479534D03*
%TO.P,J1,3,Pin_3*%
%TO.N,+3V3*%
X87567996Y-77479534D03*
%TO.P,J1,4,Pin_4*%
%TO.N,D10~*%
X90107996Y-77479534D03*
%TO.P,J1,5,Pin_5*%
%TO.N,D9~*%
X92647996Y-77479534D03*
%TO.P,J1,6,Pin_6*%
%TO.N,D5~ (IR)*%
X95187996Y-77479534D03*
%TO.P,J1,7,Pin_7*%
%TO.N,D7*%
X97727996Y-77479534D03*
%TD*%
D34*
%TO.P,J9,1,Pin_1*%
%TO.N,SDA-5V*%
X124460000Y-55880000D03*
D35*
%TO.P,J9,2,Pin_2*%
%TO.N,SCL-5V*%
X121920000Y-55880000D03*
%TO.P,J9,3,Pin_3*%
%TO.N,VDD*%
X119380000Y-55880000D03*
%TO.P,J9,4,Pin_4*%
%TO.N,GND*%
X116840000Y-55880000D03*
%TD*%
D39*
%TO.P,C15,1*%
%TO.N,XIAO Batt Pin*%
X89011000Y-72959000D03*
%TO.P,C15,2*%
%TO.N,GND*%
X91086000Y-72959000D03*
%TD*%
D34*
%TO.P,J2,1,Pin_1*%
%TO.N,GND*%
X118110000Y-85217000D03*
D35*
%TO.P,J2,2,Pin_2*%
%TO.N,MISO*%
X115570000Y-85217000D03*
%TO.P,J2,3,Pin_3*%
%TO.N,CLK*%
X113030000Y-85217000D03*
%TO.P,J2,4,Pin_4*%
%TO.N,MOSI*%
X110490000Y-85217000D03*
%TO.P,J2,5,Pin_5*%
%TO.N,CS*%
X107950000Y-85217000D03*
%TO.P,J2,6,Pin_6*%
%TO.N,+3V3*%
X105410000Y-85217000D03*
%TD*%
D34*
%TO.P,J5,1,Pin_1*%
%TO.N,unconnected-(J5-Pin_1-Pad1)*%
X96143981Y-99063151D03*
D35*
%TO.P,J5,2,Pin_2*%
%TO.N,GND*%
X98683981Y-99063151D03*
%TO.P,J5,3,Pin_3*%
%TO.N,unconnected-(J5-Pin_3-Pad3)*%
X101223981Y-99063151D03*
%TD*%
D39*
%TO.P,C16,1*%
%TO.N,VDD*%
X87884000Y-64262000D03*
%TO.P,C16,2*%
%TO.N,GND*%
X89959000Y-64262000D03*
%TD*%
D31*
%TO.P,RN1,1,R1.1*%
%TO.N,unconnected-(RN1-R1.1-Pad1)*%
X130900000Y-63400000D03*
%TO.P,RN1,2,R4.1*%
%TO.N,SDA-5V*%
X130900000Y-64740000D03*
%TO.P,RN1,3,R3.1*%
%TO.N,SCL-5V*%
X130900000Y-66060000D03*
%TO.P,RN1,4,R2.1*%
%TO.N,ADS_ALERT*%
X130900000Y-67400000D03*
%TO.P,RN1,5,R2.2*%
%TO.N,VDD*%
X133900000Y-67400000D03*
%TO.P,RN1,6,R3.2*%
X133900000Y-66060000D03*
%TO.P,RN1,7,R4.2*%
X133900000Y-64740000D03*
%TO.P,RN1,8,R1.2*%
%TO.N,unconnected-(RN1-R1.2-Pad8)*%
X133900000Y-63400000D03*
%TD*%
D26*
%TO.P,R2,1*%
%TO.N,D6~*%
X93710000Y-50165000D03*
%TO.P,R2,2*%
%TO.N,Net-(Q1-B)*%
X91710000Y-50165000D03*
%TD*%
D30*
%TO.P,Q1,1,B*%
%TO.N,Net-(Q1-B)*%
X89225000Y-53250000D03*
%TO.P,Q1,2,E*%
%TO.N,Net-(D1-A)*%
X89225000Y-55150000D03*
%TO.P,Q1,3,C*%
%TO.N,Net-(Q1-C)*%
X91100000Y-54200000D03*
%TD*%
D45*
%TO.N,D6~*%
X96610000Y-52705000D03*
%TO.N,D5~ (IR)*%
X123400000Y-64300000D03*
X128800000Y-57400000D03*
%TO.N,VDD*%
X125118500Y-82018500D03*
%TO.N,/Driver_U4_Out_A*%
X127900000Y-84100000D03*
X120300000Y-90800000D03*
%TO.N,SCL*%
X114400000Y-80200000D03*
%TO.N,+3V3*%
X119100000Y-78000000D03*
%TO.N,VDD*%
X115600000Y-73660000D03*
%TO.N,SDA-5V*%
X124400000Y-75400000D03*
%TO.N,SDA*%
X123982000Y-78870000D03*
%TO.N,SCL-5V*%
X113182000Y-77670000D03*
X118982000Y-74770000D03*
%TO.N,SDA*%
X118882000Y-76570000D03*
%TO.N,GND*%
X131200000Y-77300000D03*
%TO.N,ADS_ALERT*%
X132900000Y-72250000D03*
X131100000Y-69000000D03*
%TO.N,GND*%
X100330000Y-74930000D03*
X102260346Y-75561126D03*
%TO.N,+9V*%
X100965000Y-82550000D03*
X106178914Y-88200000D03*
%TO.N,D5~ (IR)*%
X102552500Y-76517500D03*
X104685000Y-90170000D03*
%TO.N,GND*%
X104775000Y-92710000D03*
%TO.N,+3V3*%
X108123001Y-94525001D03*
%TO.N,/Driver_U2_Out_B*%
X116840000Y-59600000D03*
X116840000Y-62865000D03*
%TO.N,+9V*%
X101600000Y-69850000D03*
X104775000Y-65405000D03*
%TO.N,D7*%
X115570000Y-59055000D03*
%TO.N,GND*%
X126365000Y-61595000D03*
%TO.N,D9~*%
X122555000Y-59055000D03*
%TO.N,GND*%
X106045000Y-59370000D03*
X125730000Y-93345000D03*
X91948000Y-65532000D03*
X90170000Y-59055000D03*
X125730000Y-73660000D03*
X126492000Y-84074000D03*
X98335000Y-66675000D03*
X109225000Y-72935000D03*
X128900000Y-76100000D03*
%TO.N,Resistor_Input*%
X125857000Y-71755000D03*
%TO.N,SDA*%
X104140000Y-78105000D03*
X101600000Y-56642000D03*
%TO.N,D6~*%
X95885000Y-69850000D03*
%TO.N,SCL*%
X101064554Y-87412054D03*
X104230000Y-82550000D03*
%TO.N,ADS_ALERT*%
X131400000Y-73800000D03*
%TO.N,D3~*%
X98335000Y-88138000D03*
X99937500Y-57542500D03*
%TO.N,VDD*%
X134463749Y-75547268D03*
X128660305Y-70100000D03*
X126174500Y-75374500D03*
X94210000Y-61190000D03*
X129425000Y-61075000D03*
X110490000Y-73660000D03*
X99183097Y-73056313D03*
%TO.N,D10~*%
X99695000Y-64770000D03*
X128059225Y-54780000D03*
%TO.N,D9~*%
X127000000Y-55880000D03*
X107430000Y-55130000D03*
%TO.N,A1{slash}D15*%
X103949500Y-95467000D03*
%TO.N,Net-(F1-Pad1)*%
X127635000Y-77470000D03*
%TO.N,+BATT*%
X111125000Y-94525000D03*
X98425000Y-80645000D03*
%TO.N,CS*%
X106092549Y-69985855D03*
%TO.N,MISO*%
X107827653Y-65917653D03*
%TO.N,+3V3*%
X100420000Y-80100000D03*
%TO.N,XIAO Batt Pin*%
X84725000Y-70000000D03*
%TO.N,MOSI*%
X106619176Y-68324023D03*
%TO.N,CLK*%
X107020653Y-65200653D03*
%TO.N,SDA-5V*%
X132080000Y-69215000D03*
%TO.N,SCL-5V*%
X130100000Y-69700000D03*
%TD*%
D46*
%TO.N,I_Input*%
X135500000Y-67384434D02*
X135500000Y-60800000D01*
X132700305Y-70184129D02*
X135500000Y-67384434D01*
X132700305Y-71009130D02*
X132700305Y-70184129D01*
%TO.N,Net-(J11-Pin_2)*%
X142860000Y-57165000D02*
X144215000Y-57165000D01*
X139225000Y-60800000D02*
X142860000Y-57165000D01*
X137500000Y-60800000D02*
X139225000Y-60800000D01*
%TO.N,SCL-5V*%
X129700000Y-66600000D02*
X129700000Y-67465347D01*
X130240000Y-66060000D02*
X129700000Y-66600000D01*
X130900000Y-66060000D02*
X130240000Y-66060000D01*
D47*
%TO.N,Net-(U9-SW)*%
X89916000Y-68556500D02*
X88778500Y-69694000D01*
X89916000Y-68194000D02*
X89916000Y-68556500D01*
D46*
%TO.N,XIAO Batt Pin*%
X85844000Y-71144000D02*
X88778500Y-71144000D01*
X84725000Y-70025000D02*
X85844000Y-71144000D01*
X84725000Y-70000000D02*
X84725000Y-70025000D01*
%TO.N,VDD*%
X94210000Y-61190000D02*
X92020000Y-59000000D01*
X92020000Y-59000000D02*
X91600000Y-59000000D01*
%TO.N,D7*%
X120330000Y-58100000D02*
X123825000Y-61595000D01*
X116525000Y-58100000D02*
X120330000Y-58100000D01*
X115570000Y-59055000D02*
X116525000Y-58100000D01*
%TO.N,CLK*%
X110998000Y-83185000D02*
X113030000Y-85217000D01*
X108586396Y-83185000D02*
X110998000Y-83185000D01*
X106760000Y-79055889D02*
X106760000Y-81358604D01*
X107580000Y-67785305D02*
X107580000Y-71492792D01*
X107580000Y-71492792D02*
X107001000Y-72071792D01*
X107001000Y-72071792D02*
X107001000Y-78814889D01*
X107020653Y-67225958D02*
X107580000Y-67785305D01*
X107020653Y-65200653D02*
X107020653Y-67225958D01*
X107001000Y-78814889D02*
X106760000Y-79055889D01*
X106760000Y-81358604D02*
X108586396Y-83185000D01*
%TO.N,SCL*%
X102600000Y-68333833D02*
X102600000Y-56245000D01*
X102600000Y-56245000D02*
X97155000Y-50800000D01*
X105201000Y-78069305D02*
X105201000Y-70934833D01*
X105201000Y-70934833D02*
X102600000Y-68333833D01*
X104775000Y-82005000D02*
X104775000Y-78495305D01*
X104775000Y-78495305D02*
X105201000Y-78069305D01*
X104230000Y-82550000D02*
X104775000Y-82005000D01*
%TO.N,SDA*%
X101800000Y-56842000D02*
X101600000Y-56642000D01*
X104751000Y-71121229D02*
X101800000Y-68170229D01*
X101800000Y-68170229D02*
X101800000Y-56842000D01*
X104140000Y-75397996D02*
X104751000Y-74786996D01*
X104140000Y-78105000D02*
X104140000Y-75397996D01*
X104751000Y-74786996D02*
X104751000Y-71121229D01*
%TO.N,D3~*%
X102870000Y-83603000D02*
X98335000Y-88138000D01*
X102870000Y-77470000D02*
X102870000Y-83603000D01*
X103505000Y-76835000D02*
X102870000Y-77470000D01*
X104301000Y-71307625D02*
X104301000Y-74600600D01*
X103505000Y-75396600D02*
X103505000Y-76835000D01*
X100900000Y-67906625D02*
X104301000Y-71307625D01*
X100900000Y-58505000D02*
X100900000Y-67906625D01*
X104301000Y-74600600D02*
X103505000Y-75396600D01*
X99937500Y-57542500D02*
X100900000Y-58505000D01*
%TO.N,D6~*%
X96595000Y-52705000D02*
X96610000Y-52705000D01*
X95400000Y-53900000D02*
X96595000Y-52705000D01*
X95400000Y-69365000D02*
X95400000Y-53900000D01*
X95885000Y-69850000D02*
X95400000Y-69365000D01*
%TO.N,VDD*%
X90656000Y-59944000D02*
X91600000Y-59000000D01*
%TO.N,Net-(Q1-C)*%
X91600000Y-54700000D02*
X91600000Y-57000000D01*
X91100000Y-54200000D02*
X91600000Y-54700000D01*
%TO.N,VDD*%
X87741000Y-60849000D02*
X87741000Y-64069000D01*
X88646000Y-59944000D02*
X87741000Y-60849000D01*
X90656000Y-59944000D02*
X88646000Y-59944000D01*
%TO.N,Net-(Q1-B)*%
X90250000Y-53250000D02*
X91710000Y-51790000D01*
X89225000Y-53250000D02*
X90250000Y-53250000D01*
X91710000Y-51790000D02*
X91710000Y-50165000D01*
%TO.N,Net-(D1-A)*%
X88773000Y-55245000D02*
X87630000Y-56388000D01*
%TO.N,ADS_ADDR*%
X123550000Y-80700000D02*
X123200000Y-81050000D01*
X127600000Y-80700000D02*
X123550000Y-80700000D01*
X129540000Y-78760000D02*
X127600000Y-80700000D01*
X131200305Y-75309130D02*
X129540000Y-76969435D01*
X129540000Y-76969435D02*
X129540000Y-78760000D01*
%TO.N,SCL-5V*%
X127300000Y-65065347D02*
X129700000Y-67465347D01*
X127300000Y-60300000D02*
X127300000Y-65065347D01*
X124785000Y-57785000D02*
X127300000Y-60300000D01*
X121920000Y-55880000D02*
X123825000Y-57785000D01*
X123825000Y-57785000D02*
X124785000Y-57785000D01*
X129700000Y-69300000D02*
X130100000Y-69700000D01*
X129700000Y-67534653D02*
X129700000Y-69300000D01*
%TO.N,SDA*%
X103505000Y-83946302D02*
X103505000Y-78740000D01*
X103505000Y-78740000D02*
X104140000Y-78105000D01*
X100330000Y-87121302D02*
X103505000Y-83946302D01*
X100330000Y-92570000D02*
X100330000Y-87121302D01*
X98666000Y-94234000D02*
X100330000Y-92570000D01*
X94162462Y-94234000D02*
X98666000Y-94234000D01*
X92647996Y-92719534D02*
X94162462Y-94234000D01*
%TO.N,A1{slash}D15*%
X100802000Y-94143000D02*
X99695000Y-95250000D01*
X100802000Y-89063000D02*
X100802000Y-94143000D01*
X105651000Y-78255701D02*
X105410000Y-78496701D01*
X105651000Y-70726000D02*
X105651000Y-78255701D01*
X103770000Y-86095000D02*
X100802000Y-89063000D01*
X104865000Y-69940000D02*
X105651000Y-70726000D01*
X104865000Y-67945000D02*
X104865000Y-69940000D01*
X105410000Y-78496701D02*
X105410000Y-83314094D01*
X105410000Y-83314094D02*
X103770000Y-84954094D01*
X103770000Y-84954094D02*
X103770000Y-86095000D01*
%TO.N,D9~*%
X135338450Y-52200000D02*
X136729463Y-50808987D01*
X131950000Y-52200000D02*
X135338450Y-52200000D01*
X128270000Y-55880000D02*
X131950000Y-52200000D01*
X127000000Y-55880000D02*
X128270000Y-55880000D01*
%TO.N,D10~*%
X128059225Y-54640775D02*
X131649463Y-51050537D01*
X128059225Y-54780000D02*
X128059225Y-54640775D01*
%TO.N,/V Ref to ADS-0*%
X130600000Y-79200000D02*
X130600000Y-83262500D01*
X132700305Y-77099695D02*
X130600000Y-79200000D01*
X132700305Y-75309130D02*
X132700305Y-77099695D01*
%TO.N,/ADC-1*%
X136200000Y-81900000D02*
X136200000Y-81550000D01*
X132962500Y-85137500D02*
X136200000Y-81900000D01*
X131550000Y-85137500D02*
X132962500Y-85137500D01*
%TO.N,GND*%
X100711000Y-74549000D02*
X100330000Y-74930000D01*
X100711000Y-73848000D02*
X100711000Y-74549000D01*
%TO.N,+9V*%
X102296000Y-72904000D02*
X102000000Y-73200000D01*
X102296000Y-72898000D02*
X102296000Y-72904000D01*
X102000000Y-74034346D02*
X102000000Y-73200000D01*
X101300000Y-74734346D02*
X102000000Y-74034346D01*
X100965000Y-82550000D02*
X101300000Y-82215000D01*
X101300000Y-82215000D02*
X101300000Y-74734346D01*
%TO.N,+3V3*%
X97790000Y-75692000D02*
X89355530Y-75692000D01*
X100400000Y-78302000D02*
X97790000Y-75692000D01*
X89355530Y-75692000D02*
X87567996Y-77479534D01*
X100400000Y-80080000D02*
X100400000Y-78302000D01*
X100420000Y-80100000D02*
X100400000Y-80080000D01*
%TO.N,+9V*%
X106910001Y-92075000D02*
X107885000Y-92075000D01*
X106584000Y-91748999D02*
X106910001Y-92075000D01*
X106584000Y-88605086D02*
X106584000Y-91748999D01*
X106178914Y-88200000D02*
X106584000Y-88605086D01*
%TO.N,+3V3*%
X116871999Y-77019999D02*
X117282000Y-77430000D01*
X114919999Y-77019999D02*
X116871999Y-77019999D01*
X114620000Y-76720000D02*
X114919999Y-77019999D01*
X113207000Y-76720000D02*
X114620000Y-76720000D01*
%TO.N,/V Ref to ADS-0*%
X133890000Y-95250000D02*
X128810000Y-90170000D01*
%TO.N,SDA-5V*%
X130900000Y-64740000D02*
X129670000Y-64740000D01*
X129670000Y-64740000D02*
X128630000Y-63700000D01*
X132080000Y-65220000D02*
X131600000Y-64740000D01*
X131600000Y-64740000D02*
X130900000Y-64740000D01*
X132080000Y-69215000D02*
X132080000Y-65220000D01*
%TO.N,VDD*%
X133900000Y-66060000D02*
X133900000Y-67400000D01*
%TO.N,SDA-5V*%
X128630000Y-58698125D02*
X128630000Y-63700000D01*
X125811875Y-55880000D02*
X128630000Y-58698125D01*
X124460000Y-55880000D02*
X125811875Y-55880000D01*
%TO.N,ADS_ALERT*%
X130900000Y-68800000D02*
X130900000Y-67400000D01*
X131100000Y-69000000D02*
X130900000Y-68800000D01*
%TO.N,VDD*%
X128660305Y-71967240D02*
X128905000Y-72211935D01*
X128660305Y-70100000D02*
X128660305Y-71967240D01*
%TO.N,/ADC-1*%
X133200305Y-76500305D02*
X136050000Y-79350000D01*
X133200305Y-75309130D02*
X133200305Y-76500305D01*
%TO.N,/V Ref to ADS-0*%
X127559500Y-87600000D02*
X130250500Y-87600000D01*
X130600000Y-87310500D02*
X130600000Y-83262500D01*
%TO.N,/ADC-1*%
X132985000Y-88259500D02*
X132985000Y-90170000D01*
X131550000Y-86550000D02*
X132400000Y-87400000D01*
X132400000Y-87674500D02*
X132985000Y-88259500D01*
X131550000Y-85137500D02*
X131550000Y-86550000D01*
X136200000Y-81550000D02*
X136200000Y-79350000D01*
%TO.N,/Driver_U4_Out_A*%
X128937500Y-85137500D02*
X127900000Y-84100000D01*
X129650000Y-85137500D02*
X128937500Y-85137500D01*
%TO.N,GND*%
X118110000Y-83990000D02*
X118110000Y-85217000D01*
X121050000Y-81050000D02*
X118110000Y-83990000D01*
X121900000Y-81050000D02*
X121050000Y-81050000D01*
%TO.N,/Driver_U4_Out_A*%
X120295000Y-90805000D02*
X120300000Y-90800000D01*
X107885000Y-90805000D02*
X120295000Y-90805000D01*
%TO.N,/V Ref to ADS-0*%
X128810000Y-88953500D02*
X127508000Y-87651500D01*
X128810000Y-90170000D02*
X128810000Y-88953500D01*
%TO.N,GND*%
X139135000Y-81915000D02*
X144145000Y-81915000D01*
X136200000Y-84850000D02*
X139135000Y-81915000D01*
%TO.N,VDD*%
X119745000Y-94393000D02*
X121920000Y-92218000D01*
X121920000Y-92218000D02*
X121920000Y-85217000D01*
X121920000Y-85217000D02*
X125118500Y-82018500D01*
%TO.N,SCL*%
X114400000Y-79813000D02*
X113207000Y-78620000D01*
X114400000Y-80200000D02*
X114400000Y-79813000D01*
%TO.N,+3V3*%
X117852000Y-78000000D02*
X117282000Y-77430000D01*
X119100000Y-78000000D02*
X117852000Y-78000000D01*
X119900000Y-78800000D02*
X120252000Y-78800000D01*
X119100000Y-78000000D02*
X119900000Y-78800000D01*
%TO.N,MISO*%
X107800000Y-71910602D02*
X107800000Y-75989000D01*
X113088000Y-81277000D02*
X113088000Y-82735000D01*
X108031000Y-71674000D02*
X108031000Y-71679602D01*
X108585000Y-71120000D02*
X108031000Y-71674000D01*
X108585000Y-66675000D02*
X108585000Y-71120000D01*
X107800000Y-75989000D02*
X113088000Y-81277000D01*
X107827653Y-65917653D02*
X108585000Y-66675000D01*
X108031000Y-71679602D02*
X107800000Y-71910602D01*
%TO.N,VDD*%
X115600000Y-73660000D02*
X116172000Y-73660000D01*
X116172000Y-73660000D02*
X117282000Y-74770000D01*
%TO.N,SDA-5V*%
X123690000Y-76110000D02*
X124400000Y-75400000D01*
X123410000Y-76110000D02*
X123690000Y-76110000D01*
X123410000Y-76110000D02*
X120282000Y-76110000D01*
X124182000Y-76882000D02*
X123410000Y-76110000D01*
X124182000Y-77870000D02*
X124182000Y-76882000D01*
%TO.N,SDA*%
X120282000Y-77430000D02*
X119742000Y-77430000D01*
X119742000Y-77430000D02*
X118882000Y-76570000D01*
%TO.N,SCL-5V*%
X115082000Y-77670000D02*
X113182000Y-77670000D01*
%TO.N,VDD*%
X117282000Y-74770000D02*
X117282000Y-76110000D01*
%TO.N,SCL-5V*%
X118982000Y-74770000D02*
X120282000Y-74770000D01*
%TO.N,SDA*%
X122307000Y-78820000D02*
X123932000Y-78820000D01*
%TO.N,SCL*%
X113207000Y-78620000D02*
X117132000Y-78620000D01*
%TO.N,+3V3*%
X120457000Y-78770000D02*
X122307000Y-76920000D01*
%TO.N,VDD*%
X130600000Y-62250000D02*
X129425000Y-61075000D01*
X131350000Y-62250000D02*
X130600000Y-62250000D01*
X133900000Y-66060000D02*
X133900000Y-64800000D01*
X133900000Y-64800000D02*
X131350000Y-62250000D01*
%TO.N,GND*%
X128542434Y-75742434D02*
X128542434Y-74649501D01*
X128900000Y-76100000D02*
X128542434Y-75742434D01*
X132200305Y-76299695D02*
X131200000Y-77300000D01*
X132200305Y-75309130D02*
X132200305Y-76299695D01*
%TO.N,ADS_ALERT*%
X131700305Y-74100305D02*
X131700305Y-75309130D01*
X131400000Y-73800000D02*
X131700305Y-74100305D01*
%TO.N,SCL-5V*%
X130100000Y-69908825D02*
X131200305Y-71009130D01*
X130100000Y-69700000D02*
X130100000Y-69908825D01*
%TO.N,SDA-5V*%
X131700305Y-69594695D02*
X131700305Y-71009130D01*
X132080000Y-69215000D02*
X131700305Y-69594695D01*
%TO.N,GND*%
X102260346Y-75561126D02*
X102339000Y-75482472D01*
X102339000Y-75482472D02*
X102339000Y-74930000D01*
X102339000Y-74930000D02*
X103251000Y-74018000D01*
%TO.N,MISO*%
X113088000Y-82735000D02*
X115570000Y-85217000D01*
%TO.N,D5~ (IR)*%
X104775000Y-90170000D02*
X104685000Y-90170000D01*
X104140000Y-90805000D02*
X104775000Y-90170000D01*
X102935000Y-90805000D02*
X104140000Y-90805000D01*
%TO.N,GND*%
X104140000Y-92075000D02*
X102935000Y-92075000D01*
X104775000Y-92710000D02*
X104140000Y-92075000D01*
%TO.N,+3V3*%
X111108682Y-95623987D02*
X111108682Y-96266000D01*
X108123001Y-94525001D02*
X110009696Y-94525001D01*
X110009696Y-94525001D02*
X111108682Y-95623987D01*
X111108682Y-96266000D02*
X113907792Y-99065110D01*
%TO.N,+BATT*%
X111215000Y-94615000D02*
X112665000Y-94615000D01*
X111125000Y-94525000D02*
X111215000Y-94615000D01*
%TO.N,SCL*%
X104230000Y-83857698D02*
X104230000Y-82550000D01*
X103320000Y-84767698D02*
X104230000Y-83857698D01*
X103320000Y-85275000D02*
X103320000Y-84767698D01*
X101182946Y-87412054D02*
X103320000Y-85275000D01*
X101064554Y-87412054D02*
X101182946Y-87412054D01*
%TO.N,A1{slash}D15*%
X103732500Y-95250000D02*
X87558462Y-95250000D01*
X87558462Y-95250000D02*
X85027996Y-92719534D01*
X103949500Y-95467000D02*
X103732500Y-95250000D01*
%TO.N,+9V*%
X115570000Y-62865000D02*
X107950000Y-62865000D01*
X107950000Y-62865000D02*
X105410000Y-65405000D01*
X118110000Y-60325000D02*
X115570000Y-62865000D01*
X105410000Y-65405000D02*
X104775000Y-65405000D01*
X119380000Y-60325000D02*
X118110000Y-60325000D01*
%TO.N,MOSI*%
X106310000Y-81545000D02*
X109982000Y-85217000D01*
X106551000Y-78628493D02*
X106310000Y-78869493D01*
X106551000Y-71885396D02*
X106551000Y-78628493D01*
X107130000Y-71306396D02*
X106551000Y-71885396D01*
X107130000Y-68834847D02*
X107130000Y-71306396D01*
X106619176Y-68324023D02*
X107130000Y-68834847D01*
X106310000Y-78869493D02*
X106310000Y-81545000D01*
%TO.N,/Driver_U2_Out_B*%
X116840000Y-59690000D02*
X116840000Y-59600000D01*
X117475000Y-59055000D02*
X116840000Y-59690000D01*
X119380000Y-59055000D02*
X117475000Y-59055000D01*
X116840000Y-62865000D02*
X116840000Y-64898750D01*
%TO.N,/R Circuit I Output*%
X117758750Y-68580000D02*
X116840000Y-69498750D01*
X121587500Y-68580000D02*
X117758750Y-68580000D01*
X121587500Y-68580000D02*
X124057500Y-68580000D01*
D48*
%TO.N,Resistor_Input*%
X119712500Y-69530000D02*
X118795000Y-70447500D01*
X120675375Y-70492875D02*
X119712500Y-69530000D01*
X124594875Y-70492875D02*
X120675375Y-70492875D01*
X118795000Y-70447500D02*
X118795000Y-72178750D01*
X125857000Y-71755000D02*
X124594875Y-70492875D01*
D46*
%TO.N,+9V*%
X101600000Y-70292000D02*
X101600000Y-69850000D01*
X103251000Y-71943000D02*
X101600000Y-70292000D01*
%TO.N,Net-(Q2-G)*%
X120681000Y-62513678D02*
X120681000Y-66661500D01*
X120681000Y-66661500D02*
X119712500Y-67630000D01*
X119762322Y-61595000D02*
X120681000Y-62513678D01*
%TO.N,GND*%
X126365000Y-61595000D02*
X126365000Y-65002500D01*
X125857000Y-68304500D02*
X124460000Y-66907500D01*
X127000000Y-68304500D02*
X125857000Y-68304500D01*
X126365000Y-65002500D02*
X124460000Y-66907500D01*
X126365000Y-61385001D02*
X126365000Y-61595000D01*
X125304999Y-60325000D02*
X126365000Y-61385001D01*
X124330000Y-60325000D02*
X125304999Y-60325000D01*
%TO.N,D9~*%
X124330000Y-59055000D02*
X122555000Y-59055000D01*
%TO.N,GND*%
X104775000Y-62230000D02*
X106045000Y-60960000D01*
X106045000Y-60960000D02*
X106045000Y-59370000D01*
X104775000Y-58360000D02*
X105785000Y-59370000D01*
X87630000Y-58465000D02*
X89580000Y-58465000D01*
X125730000Y-73660000D02*
X125460000Y-73660000D01*
X127508000Y-85090000D02*
X126492000Y-84074000D01*
X125460000Y-73660000D02*
X124190000Y-72390000D01*
X124018000Y-86548000D02*
X124968000Y-85598000D01*
X89580000Y-58465000D02*
X90170000Y-59055000D01*
X123093000Y-86548000D02*
X124018000Y-86548000D01*
X109225000Y-73020000D02*
X109225000Y-72935000D01*
X109225000Y-73030000D02*
X109220000Y-73025000D01*
X109225000Y-74942500D02*
X109225000Y-73030000D01*
X127508000Y-85576500D02*
X127508000Y-85090000D01*
X110175000Y-76817500D02*
X110175000Y-75892500D01*
X104775000Y-57150000D02*
X104775000Y-58360000D01*
X106045000Y-59370000D02*
X105785000Y-59370000D01*
X127000000Y-83566000D02*
X127000000Y-82132500D01*
X110175000Y-75892500D02*
X109225000Y-74942500D01*
X109220000Y-73025000D02*
X109225000Y-73020000D01*
X126492000Y-84074000D02*
X124968000Y-85598000D01*
X125730000Y-93345000D02*
X127540000Y-93345000D01*
X98335000Y-66675000D02*
X97065000Y-67945000D01*
X126492000Y-84074000D02*
X127000000Y-83566000D01*
D48*
%TO.N,Resistor_Input*%
X138145000Y-73010000D02*
X138145000Y-68835000D01*
X125857000Y-71522500D02*
X127000000Y-70379500D01*
X140700000Y-75565000D02*
X138145000Y-73010000D01*
X125857000Y-71755000D02*
X125857000Y-71522500D01*
D46*
%TO.N,+9V*%
X100711000Y-72898000D02*
X102296000Y-72898000D01*
X102296000Y-72898000D02*
X103251000Y-71943000D01*
%TO.N,V_Input_REF*%
X139955000Y-95250000D02*
X144145000Y-91060000D01*
X135890000Y-95250000D02*
X139955000Y-95250000D01*
%TO.N,V_Input_Float*%
X134985000Y-90170000D02*
X137255000Y-90170000D01*
D48*
%TO.N,/R Circuit I Output*%
X111606250Y-74942500D02*
X111125000Y-74942500D01*
X117870000Y-73253750D02*
X116795000Y-72178750D01*
X121326250Y-73253750D02*
X117870000Y-73253750D01*
X116795000Y-72178750D02*
X116795000Y-69543750D01*
X122190000Y-72390000D02*
X121326250Y-73253750D01*
X116795000Y-72178750D02*
X114370000Y-72178750D01*
X114030000Y-72518750D02*
X111606250Y-74942500D01*
D46*
%TO.N,D3~*%
X98910000Y-56515000D02*
X99937500Y-57542500D01*
X96975000Y-56515000D02*
X98910000Y-56515000D01*
%TO.N,VDD*%
X128660305Y-72456630D02*
X131577805Y-72456630D01*
X99183097Y-73056313D02*
X98074784Y-71948000D01*
X126174500Y-75374500D02*
X126174500Y-74942435D01*
X134916481Y-76000000D02*
X134463749Y-75547268D01*
X126174500Y-74942435D02*
X128660305Y-72456630D01*
X136000000Y-76000000D02*
X134916481Y-76000000D01*
X132200305Y-71834130D02*
X131577805Y-72456630D01*
X132200305Y-71009130D02*
X132200305Y-71834130D01*
%TO.N,D10~*%
X97155000Y-62230000D02*
X99695000Y-64770000D01*
%TO.N,Net-(U1-VO)*%
X110540000Y-67198750D02*
X116840000Y-67198750D01*
X112030000Y-72008750D02*
X116840000Y-67198750D01*
%TO.N,A3{slash}D17*%
X131043959Y-95880000D02*
X132445959Y-97282000D01*
X132445959Y-97282000D02*
X134985959Y-97282000D01*
X129540000Y-93345000D02*
X129540000Y-95880000D01*
X134985959Y-97282000D02*
X136771624Y-99067665D01*
X129540000Y-95880000D02*
X131043959Y-95880000D01*
%TO.N,Net-(D1-A)*%
X87630000Y-56388000D02*
X87630000Y-56815000D01*
D48*
%TO.N,Net-(F1-Pad1)*%
X127635000Y-77470000D02*
X127217500Y-77887500D01*
X127217500Y-77887500D02*
X127217500Y-79375000D01*
D46*
%TO.N,+BATT*%
X82780000Y-60865000D02*
X83820000Y-59825000D01*
X81280000Y-60865000D02*
X82780000Y-60865000D01*
X83820000Y-59825000D02*
X83820000Y-53930000D01*
%TO.N,CS*%
X105860000Y-83000000D02*
X107950000Y-85090000D01*
X105860000Y-78683097D02*
X105860000Y-83000000D01*
X106101000Y-69994306D02*
X106101000Y-78442097D01*
X106101000Y-78442097D02*
X105860000Y-78683097D01*
X106092549Y-69985855D02*
X106101000Y-69994306D01*
%TO.N,Net-(U7-C1-)*%
X96901000Y-70673000D02*
X95631000Y-71943000D01*
X99436000Y-70673000D02*
X96901000Y-70673000D01*
X100711000Y-71948000D02*
X99436000Y-70673000D01*
%TO.N,Net-(U7-C1+)*%
X98011000Y-73848000D02*
X95801000Y-73848000D01*
%TO.N,XIAO 5V*%
X82487996Y-74294785D02*
X82487996Y-77479534D01*
X81845254Y-64865000D02*
X84000000Y-67019746D01*
X84000000Y-67019746D02*
X84000000Y-72782781D01*
X84000000Y-72782781D02*
X82487996Y-74294785D01*
%TO.N,XIAO Batt Pin*%
X88778500Y-71144000D02*
X88778500Y-72726500D01*
%TO.N,/R into ADS*%
X138700000Y-75565000D02*
X139725000Y-76590000D01*
X134144130Y-71009130D02*
X138700000Y-75565000D01*
X143120000Y-76590000D02*
X144145000Y-75565000D01*
X139725000Y-76590000D02*
X143120000Y-76590000D01*
X133200305Y-71009130D02*
X134144130Y-71009130D01*
%TO.N,+VSW*%
X124067792Y-98817208D02*
X127005000Y-95880000D01*
X127005000Y-95880000D02*
X127540000Y-95880000D01*
%TO.N,/Uno5vPin*%
X115205000Y-94615000D02*
X116475000Y-95885000D01*
X116475000Y-95885000D02*
X117745000Y-94615000D01*
X114665000Y-94615000D02*
X115205000Y-94615000D01*
X116447792Y-99065110D02*
X116447792Y-95912208D01*
X116447792Y-95912208D02*
X116475000Y-95885000D01*
%TO.N,/ADC-1*%
X130810000Y-90170000D02*
X132985000Y-90170000D01*
%TO.N,/V Ref to ADS-0*%
X124928500Y-87651500D02*
X127508000Y-87651500D01*
X124190000Y-88390000D02*
X124928500Y-87651500D01*
X124190000Y-89916000D02*
X124190000Y-88390000D01*
%TO.N,D6~*%
X94070000Y-50165000D02*
X96610000Y-52705000D01*
%TD*%
%TA.AperFunction,Conductor*%
%TO.N,Net-(U9-SW)*%
G36*
X87321539Y-69168685D02*
G01*
X87367294Y-69221489D01*
X87378500Y-69273000D01*
X87378500Y-69394000D01*
X88654500Y-69394000D01*
X88721539Y-69413685D01*
X88767294Y-69466489D01*
X88778500Y-69518000D01*
X88778500Y-69770000D01*
X88758815Y-69837039D01*
X88706011Y-69882794D01*
X88654500Y-69894000D01*
X87378500Y-69894000D01*
X87378500Y-70013451D01*
X87358815Y-70080490D01*
X87306011Y-70126245D01*
X87254500Y-70137451D01*
X86118437Y-70137451D01*
X86118432Y-70137451D01*
X86118421Y-70137452D01*
X86092789Y-70140253D01*
X86024008Y-70127967D01*
X85972788Y-70080446D01*
X85955331Y-70015345D01*
X85964043Y-69358788D01*
X85984615Y-69292017D01*
X86038022Y-69246967D01*
X86088032Y-69236435D01*
X86398888Y-69236435D01*
X86404775Y-69236228D01*
X86434222Y-69235198D01*
X86451518Y-69233986D01*
X86486689Y-69230282D01*
X86624857Y-69190141D01*
X86687460Y-69161767D01*
X86689537Y-69160850D01*
X86693583Y-69159108D01*
X86742619Y-69149000D01*
X87254500Y-69149000D01*
X87321539Y-69168685D01*
G37*
%TD.AperFunction*%
%TD*%
%TA.AperFunction,Conductor*%
%TO.N,XIAO Batt Pin*%
G36*
X87326654Y-70662636D02*
G01*
X87372409Y-70715440D01*
X87382904Y-70780208D01*
X87378500Y-70821158D01*
X87378500Y-70944000D01*
X88654500Y-70944000D01*
X88721539Y-70963685D01*
X88767294Y-71016489D01*
X88778500Y-71068000D01*
X88778500Y-71194000D01*
X88904500Y-71194000D01*
X88971539Y-71213685D01*
X89017294Y-71266489D01*
X89028500Y-71318000D01*
X89028500Y-71604000D01*
X89137000Y-71604000D01*
X89204039Y-71623685D01*
X89249794Y-71676489D01*
X89261000Y-71728000D01*
X89261000Y-72835000D01*
X89241315Y-72902039D01*
X89188511Y-72947794D01*
X89137000Y-72959000D01*
X89011000Y-72959000D01*
X89011000Y-73085000D01*
X88991315Y-73152039D01*
X88938511Y-73197794D01*
X88887000Y-73209000D01*
X87923501Y-73209000D01*
X87923501Y-73483986D01*
X87933994Y-73586697D01*
X87989141Y-73753119D01*
X87989143Y-73753124D01*
X88081184Y-73902345D01*
X88205154Y-74026315D01*
X88354378Y-74118357D01*
X88357077Y-74119616D01*
X88358618Y-74120972D01*
X88360525Y-74122149D01*
X88360324Y-74122474D01*
X88409518Y-74165786D01*
X88428672Y-74232979D01*
X88408459Y-74299861D01*
X88355295Y-74345198D01*
X88304676Y-74356000D01*
X86142637Y-74356000D01*
X86075598Y-74336315D01*
X86029843Y-74283511D01*
X86018640Y-74232866D01*
X86015289Y-73753124D01*
X86005360Y-72331309D01*
X86000021Y-71566844D01*
X87378500Y-71566844D01*
X87384901Y-71626372D01*
X87384903Y-71626379D01*
X87435145Y-71761086D01*
X87435149Y-71761093D01*
X87521309Y-71876187D01*
X87521312Y-71876190D01*
X87636406Y-71962350D01*
X87636413Y-71962354D01*
X87771120Y-72012596D01*
X87771127Y-72012598D01*
X87830655Y-72018999D01*
X87830672Y-72019000D01*
X87865761Y-72019000D01*
X87932800Y-72038685D01*
X87978555Y-72091489D01*
X87988499Y-72160647D01*
X87983467Y-72182004D01*
X87933994Y-72331302D01*
X87933993Y-72331309D01*
X87923500Y-72434013D01*
X87923500Y-72709000D01*
X88761000Y-72709000D01*
X88761000Y-72149000D01*
X88652500Y-72149000D01*
X88585461Y-72129315D01*
X88539706Y-72076511D01*
X88528500Y-72025000D01*
X88528500Y-71444000D01*
X87378500Y-71444000D01*
X87378500Y-71566844D01*
X86000021Y-71566844D01*
X85998810Y-71393504D01*
X85994440Y-70767817D01*
X86013656Y-70700642D01*
X86066139Y-70654519D01*
X86118437Y-70642951D01*
X87259615Y-70642951D01*
X87326654Y-70662636D01*
G37*
%TD.AperFunction*%
%TD*%
%TA.AperFunction,Conductor*%
%TO.N,Net-(U1-VO)*%
G36*
X116072738Y-63398169D02*
G01*
X116105080Y-63406798D01*
X116106718Y-63408147D01*
X116107697Y-63408435D01*
X116110970Y-63411650D01*
X116132320Y-63429239D01*
X116138585Y-63436116D01*
X116140536Y-63439035D01*
X116148506Y-63447005D01*
X116150453Y-63449142D01*
X116164540Y-63478061D01*
X116179957Y-63506295D01*
X116179744Y-63509272D01*
X116181051Y-63511956D01*
X116177268Y-63543895D01*
X116174973Y-63575987D01*
X116173183Y-63578376D01*
X116172833Y-63581340D01*
X116152378Y-63606168D01*
X116133101Y-63631920D01*
X116130305Y-63632962D01*
X116128407Y-63635267D01*
X116088718Y-63652987D01*
X115911310Y-63697107D01*
X115911303Y-63697110D01*
X115740707Y-63781717D01*
X115740704Y-63781719D01*
X115592278Y-63901027D01*
X115592277Y-63901028D01*
X115472969Y-64049454D01*
X115472967Y-64049457D01*
X115388360Y-64220052D01*
X115342400Y-64404857D01*
X115339500Y-64447629D01*
X115339500Y-65349872D01*
X115339501Y-65349875D01*
X115342399Y-65392636D01*
X115342399Y-65392637D01*
X115388360Y-65577446D01*
X115472967Y-65748042D01*
X115472969Y-65748045D01*
X115592277Y-65896471D01*
X115592278Y-65896472D01*
X115661884Y-65952423D01*
X115701803Y-66009766D01*
X115704383Y-66079588D01*
X115668804Y-66139721D01*
X115661885Y-66145717D01*
X115592631Y-66201385D01*
X115473392Y-66349724D01*
X115473390Y-66349727D01*
X115388831Y-66520226D01*
X115342897Y-66704925D01*
X115340000Y-66747653D01*
X115340000Y-66948750D01*
X116716000Y-66948750D01*
X116783039Y-66968435D01*
X116828794Y-67021239D01*
X116840000Y-67072750D01*
X116840000Y-67324750D01*
X116820315Y-67391789D01*
X116767511Y-67437544D01*
X116716000Y-67448750D01*
X115340000Y-67448750D01*
X115340000Y-67649846D01*
X115342897Y-67692574D01*
X115388831Y-67877273D01*
X115473390Y-68047772D01*
X115473392Y-68047775D01*
X115592630Y-68196114D01*
X115661884Y-68251781D01*
X115701803Y-68309125D01*
X115704383Y-68378947D01*
X115668805Y-68439079D01*
X115661885Y-68445076D01*
X115592276Y-68501030D01*
X115472969Y-68649454D01*
X115472967Y-68649457D01*
X115388360Y-68820052D01*
X115342400Y-69004857D01*
X115339500Y-69047629D01*
X115339500Y-69949872D01*
X115339501Y-69949875D01*
X115342399Y-69992636D01*
X115342399Y-69992637D01*
X115388360Y-70177446D01*
X115472967Y-70348042D01*
X115472969Y-70348045D01*
X115592277Y-70496471D01*
X115592278Y-70496472D01*
X115740704Y-70615780D01*
X115740707Y-70615782D01*
X115885504Y-70687594D01*
X115911307Y-70700391D01*
X116025426Y-70728771D01*
X116050392Y-70743377D01*
X116076703Y-70755393D01*
X116080180Y-70760804D01*
X116085733Y-70764053D01*
X116098838Y-70789836D01*
X116114477Y-70814171D01*
X116115766Y-70823141D01*
X116117392Y-70826339D01*
X116119500Y-70849106D01*
X116119500Y-70884750D01*
X116099815Y-70951789D01*
X116047011Y-70997544D01*
X115995500Y-71008750D01*
X109394000Y-71008750D01*
X109326961Y-70989065D01*
X109281206Y-70936261D01*
X109270000Y-70884750D01*
X109270000Y-69522299D01*
X109289685Y-69455260D01*
X109342489Y-69409505D01*
X109411647Y-69399561D01*
X109472364Y-69426200D01*
X109486869Y-69438028D01*
X109667138Y-69532192D01*
X109862671Y-69588140D01*
X109862674Y-69588141D01*
X109981999Y-69598749D01*
X109982002Y-69598750D01*
X110290000Y-69598750D01*
X110790000Y-69598750D01*
X111097998Y-69598750D01*
X111098000Y-69598749D01*
X111217325Y-69588141D01*
X111217328Y-69588140D01*
X111412861Y-69532192D01*
X111593129Y-69438028D01*
X111750753Y-69309503D01*
X111879278Y-69151879D01*
X111973442Y-68971611D01*
X112029390Y-68776078D01*
X112029391Y-68776075D01*
X112039999Y-68656750D01*
X112040000Y-68656748D01*
X112040000Y-67448750D01*
X110790000Y-67448750D01*
X110790000Y-69598750D01*
X110290000Y-69598750D01*
X110290000Y-66948750D01*
X110790000Y-66948750D01*
X112040000Y-66948750D01*
X112040000Y-65740752D01*
X112039999Y-65740749D01*
X112029391Y-65621424D01*
X112029390Y-65621421D01*
X111973442Y-65425888D01*
X111879278Y-65245620D01*
X111750753Y-65087996D01*
X111593129Y-64959471D01*
X111412861Y-64865307D01*
X111217328Y-64809359D01*
X111217325Y-64809358D01*
X111098000Y-64798750D01*
X110790000Y-64798750D01*
X110790000Y-66948750D01*
X110290000Y-66948750D01*
X110290000Y-64798750D01*
X109981999Y-64798750D01*
X109862674Y-64809358D01*
X109862671Y-64809359D01*
X109667138Y-64865307D01*
X109486870Y-64959471D01*
X109472361Y-64971302D01*
X109407965Y-64998411D01*
X109339135Y-64986402D01*
X109287724Y-64939087D01*
X109270000Y-64875200D01*
X109270000Y-63614500D01*
X109289685Y-63547461D01*
X109342489Y-63501706D01*
X109394000Y-63490500D01*
X115631607Y-63490500D01*
X115692029Y-63478481D01*
X115752452Y-63466463D01*
X115785792Y-63452652D01*
X115866286Y-63419312D01*
X115866289Y-63419309D01*
X115866291Y-63419309D01*
X115880748Y-63409649D01*
X115947425Y-63388770D01*
X115949640Y-63388750D01*
X116040658Y-63388750D01*
X116072738Y-63398169D01*
G37*
%TD.AperFunction*%
%TD*%
%TA.AperFunction,Conductor*%
%TO.N,VDD*%
G36*
X86884571Y-60405685D02*
G01*
X86930326Y-60458489D01*
X86940270Y-60527647D01*
X86923071Y-60575097D01*
X86862143Y-60673875D01*
X86862141Y-60673880D01*
X86806994Y-60840302D01*
X86806993Y-60840309D01*
X86796500Y-60943013D01*
X86796500Y-61218000D01*
X87760000Y-61218000D01*
X87827039Y-61237685D01*
X87872794Y-61290489D01*
X87884000Y-61342000D01*
X87884000Y-61468000D01*
X88010000Y-61468000D01*
X88077039Y-61487685D01*
X88122794Y-61540489D01*
X88134000Y-61592000D01*
X88134000Y-62692999D01*
X88269098Y-62692999D01*
X88277818Y-62695559D01*
X88286817Y-62694271D01*
X88310821Y-62705250D01*
X88336137Y-62712684D01*
X88342087Y-62719551D01*
X88350355Y-62723333D01*
X88364611Y-62745544D01*
X88381892Y-62765488D01*
X88384184Y-62776041D01*
X88388095Y-62782134D01*
X88393098Y-62817071D01*
X88393042Y-62913072D01*
X88373318Y-62980100D01*
X88320488Y-63025824D01*
X88269042Y-63037000D01*
X88134000Y-63037000D01*
X88134000Y-65493000D01*
X88114315Y-65560039D01*
X88061511Y-65605794D01*
X88010000Y-65617000D01*
X87891000Y-65617000D01*
X87891000Y-67094000D01*
X88219134Y-67094000D01*
X88219149Y-67093999D01*
X88255989Y-67091100D01*
X88255995Y-67091099D01*
X88413693Y-67045283D01*
X88413694Y-67045283D01*
X88462343Y-67016512D01*
X88468885Y-67014852D01*
X88473988Y-67010433D01*
X88502323Y-67006367D01*
X88530067Y-66999328D01*
X88536468Y-67001468D01*
X88543150Y-67000510D01*
X88569186Y-67012410D01*
X88596330Y-67021487D01*
X88600557Y-67026747D01*
X88606697Y-67029554D01*
X88622166Y-67053640D01*
X88640094Y-67075952D01*
X88641698Y-67084053D01*
X88644454Y-67088344D01*
X88649466Y-67123280D01*
X88649394Y-67364750D01*
X88629689Y-67431784D01*
X88576872Y-67477523D01*
X88507710Y-67487446D01*
X88462273Y-67471445D01*
X88413696Y-67442717D01*
X88413693Y-67442716D01*
X88255995Y-67396900D01*
X88255989Y-67396899D01*
X88219149Y-67394000D01*
X87891000Y-67394000D01*
X87891000Y-68070000D01*
X87871315Y-68137039D01*
X87818511Y-68182794D01*
X87767000Y-68194000D01*
X87641000Y-68194000D01*
X87641000Y-68320000D01*
X87621315Y-68387039D01*
X87568511Y-68432794D01*
X87517000Y-68444000D01*
X86481205Y-68444000D01*
X86481204Y-68444001D01*
X86481399Y-68446486D01*
X86517963Y-68572340D01*
X86517763Y-68642210D01*
X86479821Y-68700880D01*
X86416182Y-68729723D01*
X86398886Y-68730935D01*
X85679019Y-68730935D01*
X85611980Y-68711250D01*
X85566225Y-68658446D01*
X85555019Y-68606898D01*
X85555030Y-68572340D01*
X85555220Y-67943998D01*
X86481204Y-67943998D01*
X86481205Y-67944000D01*
X87391000Y-67944000D01*
X87391000Y-67394000D01*
X87062850Y-67394000D01*
X87026010Y-67396899D01*
X87026004Y-67396900D01*
X86868306Y-67442716D01*
X86868303Y-67442717D01*
X86726947Y-67526314D01*
X86726938Y-67526321D01*
X86610821Y-67642438D01*
X86610814Y-67642447D01*
X86527218Y-67783801D01*
X86481399Y-67941513D01*
X86481204Y-67943998D01*
X85555220Y-67943998D01*
X85555642Y-66544001D01*
X86481204Y-66544001D01*
X86481399Y-66546486D01*
X86527218Y-66704198D01*
X86610814Y-66845552D01*
X86610821Y-66845561D01*
X86726938Y-66961678D01*
X86726947Y-66961685D01*
X86868303Y-67045282D01*
X86868306Y-67045283D01*
X87026004Y-67091099D01*
X87026010Y-67091100D01*
X87062850Y-67093999D01*
X87062866Y-67094000D01*
X87391000Y-67094000D01*
X87391000Y-66544000D01*
X86481205Y-66544000D01*
X86481204Y-66544001D01*
X85555642Y-66544001D01*
X85555793Y-66043998D01*
X86481204Y-66043998D01*
X86481205Y-66044000D01*
X87391000Y-66044000D01*
X87391000Y-65488000D01*
X87410685Y-65420961D01*
X87463489Y-65375206D01*
X87515000Y-65364000D01*
X87634000Y-65364000D01*
X87634000Y-64512000D01*
X86796501Y-64512000D01*
X86796501Y-64786986D01*
X86806994Y-64889697D01*
X86862141Y-65056119D01*
X86862143Y-65056124D01*
X86954184Y-65205345D01*
X87048011Y-65299172D01*
X87081496Y-65360495D01*
X87076512Y-65430187D01*
X87034640Y-65486120D01*
X86994926Y-65505929D01*
X86868304Y-65542716D01*
X86868303Y-65542717D01*
X86726947Y-65626314D01*
X86726938Y-65626321D01*
X86610821Y-65742438D01*
X86610814Y-65742447D01*
X86527218Y-65883801D01*
X86481399Y-66041513D01*
X86481204Y-66043998D01*
X85555793Y-66043998D01*
X85556489Y-63737013D01*
X86796500Y-63737013D01*
X86796500Y-64012000D01*
X87634000Y-64012000D01*
X87634000Y-63037000D01*
X87496527Y-63037000D01*
X87496512Y-63037001D01*
X87393802Y-63047494D01*
X87227380Y-63102641D01*
X87227375Y-63102643D01*
X87078154Y-63194684D01*
X86954184Y-63318654D01*
X86862143Y-63467875D01*
X86862141Y-63467880D01*
X86806994Y-63634302D01*
X86806993Y-63634309D01*
X86796500Y-63737013D01*
X85556489Y-63737013D01*
X85556653Y-63194684D01*
X85557016Y-61992986D01*
X86796501Y-61992986D01*
X86806994Y-62095697D01*
X86862141Y-62262119D01*
X86862143Y-62262124D01*
X86954184Y-62411345D01*
X87078154Y-62535315D01*
X87227375Y-62627356D01*
X87227380Y-62627358D01*
X87393802Y-62682505D01*
X87393809Y-62682506D01*
X87496519Y-62692999D01*
X87633999Y-62692999D01*
X87634000Y-62692998D01*
X87634000Y-61718000D01*
X86796501Y-61718000D01*
X86796501Y-61992986D01*
X85557016Y-61992986D01*
X85557114Y-61666601D01*
X85557463Y-60509963D01*
X85577168Y-60442929D01*
X85629986Y-60397190D01*
X85681463Y-60386000D01*
X86817532Y-60386000D01*
X86884571Y-60405685D01*
G37*
%TD.AperFunction*%
%TD*%
%TA.AperFunction,Conductor*%
%TO.N,GND*%
G36*
X92537087Y-60405685D02*
G01*
X92557727Y-60422317D01*
X93127681Y-60992272D01*
X93161166Y-61053594D01*
X93164000Y-61079952D01*
X93164000Y-74232000D01*
X93144315Y-74299039D01*
X93091511Y-74344794D01*
X93040000Y-74356000D01*
X91792324Y-74356000D01*
X91725285Y-74336315D01*
X91679530Y-74283511D01*
X91669586Y-74214353D01*
X91698611Y-74150797D01*
X91736504Y-74122196D01*
X91736475Y-74122149D01*
X91736978Y-74121838D01*
X91739923Y-74119616D01*
X91742621Y-74118357D01*
X91891845Y-74026315D01*
X92015815Y-73902345D01*
X92107856Y-73753124D01*
X92107858Y-73753119D01*
X92163005Y-73586697D01*
X92163006Y-73586690D01*
X92173499Y-73483986D01*
X92173500Y-73483973D01*
X92173500Y-73209000D01*
X91210000Y-73209000D01*
X91142961Y-73189315D01*
X91097206Y-73136511D01*
X91086000Y-73085000D01*
X91086000Y-72959000D01*
X90960000Y-72959000D01*
X90892961Y-72939315D01*
X90847206Y-72886511D01*
X90836000Y-72835000D01*
X90836000Y-72709000D01*
X91336000Y-72709000D01*
X92173499Y-72709000D01*
X92173499Y-72434028D01*
X92173498Y-72434013D01*
X92163005Y-72331302D01*
X92107858Y-72164880D01*
X92107856Y-72164875D01*
X92015815Y-72015654D01*
X91891845Y-71891684D01*
X91742624Y-71799643D01*
X91742619Y-71799641D01*
X91576197Y-71744494D01*
X91576190Y-71744493D01*
X91473486Y-71734000D01*
X91336000Y-71734000D01*
X91336000Y-72709000D01*
X90836000Y-72709000D01*
X90836000Y-71734000D01*
X90698527Y-71734000D01*
X90698512Y-71734001D01*
X90595802Y-71744494D01*
X90429380Y-71799641D01*
X90429375Y-71799643D01*
X90359097Y-71842992D01*
X90351477Y-71845076D01*
X90345511Y-71850247D01*
X90318263Y-71854164D01*
X90291704Y-71861432D01*
X90284169Y-71859067D01*
X90276353Y-71860191D01*
X90251307Y-71848752D01*
X90225041Y-71840509D01*
X90219981Y-71834447D01*
X90212797Y-71831166D01*
X90197910Y-71808002D01*
X90180271Y-71786867D01*
X90178331Y-71777536D01*
X90175023Y-71772388D01*
X90170000Y-71737453D01*
X90170000Y-71651899D01*
X90172059Y-71634229D01*
X90171761Y-71634197D01*
X90172589Y-71626485D01*
X90172591Y-71626483D01*
X90179000Y-71566873D01*
X90178999Y-70821128D01*
X90172591Y-70761517D01*
X90171762Y-70753804D01*
X90172059Y-70753772D01*
X90170000Y-70736099D01*
X90170000Y-70670000D01*
X90189685Y-70602961D01*
X90242489Y-70557206D01*
X90294000Y-70546000D01*
X90932000Y-70546000D01*
X90929411Y-68808998D01*
X90946676Y-68745702D01*
X91030244Y-68604398D01*
X91076098Y-68446569D01*
X91079000Y-68409694D01*
X91079000Y-67978306D01*
X91076098Y-67941431D01*
X91030244Y-67783602D01*
X91029074Y-67781624D01*
X91028630Y-67779874D01*
X91027147Y-67776446D01*
X91027700Y-67776206D01*
X91011896Y-67713901D01*
X91027253Y-67661603D01*
X91026684Y-67661357D01*
X91028682Y-67656738D01*
X91029081Y-67655382D01*
X91029781Y-67654197D01*
X91075600Y-67496486D01*
X91075795Y-67494001D01*
X91075795Y-67494000D01*
X90810315Y-67494000D01*
X90747194Y-67476732D01*
X90688896Y-67442255D01*
X90688893Y-67442254D01*
X90531073Y-67396402D01*
X90531067Y-67396401D01*
X90494201Y-67393500D01*
X90494194Y-67393500D01*
X90295879Y-67393500D01*
X90248426Y-67384061D01*
X90171374Y-67352145D01*
X90171368Y-67352143D01*
X90015808Y-67321200D01*
X89953897Y-67288815D01*
X89944747Y-67272747D01*
X89916000Y-67244000D01*
X89790000Y-67244000D01*
X89722961Y-67224315D01*
X89677206Y-67171511D01*
X89666000Y-67120000D01*
X89666000Y-66994000D01*
X90166000Y-66994000D01*
X91075795Y-66994000D01*
X91075795Y-66993998D01*
X91075600Y-66991513D01*
X91029782Y-66833804D01*
X91028790Y-66832127D01*
X91028411Y-66830635D01*
X91026685Y-66826646D01*
X91027328Y-66826367D01*
X91011604Y-66764404D01*
X91027124Y-66711544D01*
X91026685Y-66711354D01*
X91028226Y-66707792D01*
X91028790Y-66705873D01*
X91029782Y-66704195D01*
X91075600Y-66546486D01*
X91075795Y-66544001D01*
X91075795Y-66544000D01*
X90166000Y-66544000D01*
X90166000Y-66994000D01*
X89666000Y-66994000D01*
X89666000Y-65617000D01*
X90166000Y-65617000D01*
X90166000Y-66044000D01*
X91075795Y-66044000D01*
X91075795Y-66043998D01*
X91075600Y-66041513D01*
X91029781Y-65883801D01*
X90946185Y-65742447D01*
X90946178Y-65742438D01*
X90830061Y-65626321D01*
X90830053Y-65626315D01*
X90727644Y-65565751D01*
X90679961Y-65514682D01*
X90667457Y-65445941D01*
X90694102Y-65381351D01*
X90725669Y-65353480D01*
X90764843Y-65329317D01*
X90888815Y-65205345D01*
X90980856Y-65056124D01*
X90980858Y-65056119D01*
X91036005Y-64889697D01*
X91036006Y-64889690D01*
X91046499Y-64786986D01*
X91046500Y-64786973D01*
X91046500Y-64512000D01*
X90209000Y-64512000D01*
X90209000Y-65522638D01*
X90189315Y-65589677D01*
X90172681Y-65610319D01*
X90166000Y-65617000D01*
X89666000Y-65617000D01*
X89666000Y-65458362D01*
X89685685Y-65391323D01*
X89702319Y-65370681D01*
X89709000Y-65364000D01*
X89709000Y-64012000D01*
X90209000Y-64012000D01*
X91046499Y-64012000D01*
X91046499Y-63737028D01*
X91046498Y-63737013D01*
X91036005Y-63634302D01*
X90980858Y-63467880D01*
X90980856Y-63467875D01*
X90888815Y-63318654D01*
X90764845Y-63194684D01*
X90615624Y-63102643D01*
X90615619Y-63102641D01*
X90449197Y-63047494D01*
X90449190Y-63047493D01*
X90346486Y-63037000D01*
X90209000Y-63037000D01*
X90209000Y-64012000D01*
X89709000Y-64012000D01*
X89709000Y-63037000D01*
X89571527Y-63037000D01*
X89571512Y-63037001D01*
X89468802Y-63047494D01*
X89302380Y-63102641D01*
X89302375Y-63102643D01*
X89153154Y-63194684D01*
X89110085Y-63237753D01*
X89048762Y-63271237D01*
X88979070Y-63266252D01*
X88923137Y-63224380D01*
X88898721Y-63158916D01*
X88898406Y-63150047D01*
X88898735Y-62580177D01*
X88918456Y-62513157D01*
X88971286Y-62467432D01*
X89040451Y-62457528D01*
X89103990Y-62486590D01*
X89110414Y-62492575D01*
X89153154Y-62535315D01*
X89302375Y-62627356D01*
X89302380Y-62627358D01*
X89468802Y-62682505D01*
X89468809Y-62682506D01*
X89571519Y-62692999D01*
X89708999Y-62692999D01*
X90209000Y-62692999D01*
X90346472Y-62692999D01*
X90346486Y-62692998D01*
X90449197Y-62682505D01*
X90615619Y-62627358D01*
X90615624Y-62627356D01*
X90764845Y-62535315D01*
X90888815Y-62411345D01*
X90980856Y-62262124D01*
X90980858Y-62262119D01*
X91036005Y-62095697D01*
X91036006Y-62095690D01*
X91046499Y-61992986D01*
X91046500Y-61992973D01*
X91046500Y-61718000D01*
X90209000Y-61718000D01*
X90209000Y-62692999D01*
X89708999Y-62692999D01*
X89709000Y-62692998D01*
X89709000Y-61592000D01*
X89728685Y-61524961D01*
X89781489Y-61479206D01*
X89833000Y-61468000D01*
X89959000Y-61468000D01*
X89959000Y-61342000D01*
X89978685Y-61274961D01*
X90031489Y-61229206D01*
X90083000Y-61218000D01*
X91046499Y-61218000D01*
X91046499Y-60943028D01*
X91046498Y-60943013D01*
X91036005Y-60840302D01*
X90980858Y-60673880D01*
X90980854Y-60673871D01*
X90958604Y-60637798D01*
X90956815Y-60631261D01*
X90952287Y-60626220D01*
X90947711Y-60597991D01*
X90940164Y-60570406D01*
X90942193Y-60563940D01*
X90941109Y-60557250D01*
X90952524Y-60531023D01*
X90961087Y-60503742D01*
X90966949Y-60497883D01*
X90968994Y-60493186D01*
X90995246Y-60469605D01*
X91003509Y-60464084D01*
X91054733Y-60429858D01*
X91054738Y-60429853D01*
X91062273Y-60422319D01*
X91123596Y-60388834D01*
X91149954Y-60386000D01*
X92470048Y-60386000D01*
X92537087Y-60405685D01*
G37*
%TD.AperFunction*%
%TD*%
M02*
