%TF.GenerationSoftware,KiCad,Pcbnew,10.0.0*%
%TF.CreationDate,2026-09-20T16:38:53-05:00*%
%TF.ProjectId,AD8237DevBoard,41443832-3337-4446-9576-426f6172642e,rev?*%
%TF.SameCoordinates,Original*%
%TF.FileFunction,Copper,L2,Bot*%
%TF.FilePolarity,Positive*%
%FSLAX46Y46*%
G04 Gerber Fmt 4.6, Leading zero omitted, Abs format (unit mm)*
G04 Created by KiCad (PCBNEW 10.0.0) date 2026-09-20 16:38:53*
%MOMM*%
%LPD*%
G01*
G04 APERTURE LIST*
%TA.AperFunction,ComponentPad*%
%ADD10R,1.700000X1.700000*%
%TD*%
%TA.AperFunction,ComponentPad*%
%ADD11C,1.700000*%
%TD*%
%TA.AperFunction,ViaPad*%
%ADD12C,0.600000*%
%TD*%
%TA.AperFunction,Conductor*%
%ADD13C,0.200000*%
%TD*%
%ADD14C,0.000000*%
G04 APERTURE END LIST*
D10*
%TO.P,JP3,1*%
%TO.N,/REF*%
X139000000Y-140000000D03*
D11*
%TO.P,JP3,2*%
%TO.N,/GND*%
X141540000Y-140000000D03*
%TO.P,JP3,3*%
%TO.N,/REF*%
X139000000Y-142540000D03*
%TO.P,JP3,4*%
%TO.N,/VMID*%
X141540000Y-142540000D03*
%TO.P,JP3,5*%
%TO.N,/REF*%
X139000000Y-145080000D03*
%TO.P,JP3,6*%
%TO.N,/REF_EXT*%
X141540000Y-145080000D03*
%TD*%
D10*
%TO.P,J2,1*%
%TO.N,/IN_P*%
X105000000Y-118000000D03*
D11*
%TO.P,J2,2*%
%TO.N,/IN_N*%
X105000000Y-120540000D03*
%TO.P,J2,3*%
%TO.N,/GND*%
X105000000Y-123080000D03*
%TD*%
D10*
%TO.P,JP1,1*%
%TO.N,/VS_EXT*%
X110000000Y-106000000D03*
D11*
%TO.P,JP1,2*%
%TO.N,/VS*%
X112540000Y-106000000D03*
%TO.P,JP1,3*%
%TO.N,/VIO*%
X115080000Y-106000000D03*
%TD*%
D10*
%TO.P,J1,1*%
%TO.N,/VS_EXT*%
X105000000Y-109500000D03*
D11*
%TO.P,J1,2*%
%TO.N,/GND*%
X105000000Y-112040000D03*
%TD*%
D10*
%TO.P,JP2,1*%
%TO.N,/GND*%
X122000000Y-108000000D03*
D11*
%TO.P,JP2,2*%
%TO.N,/BW*%
X124540000Y-108000000D03*
%TO.P,JP2,3*%
%TO.N,/VS*%
X127080000Y-108000000D03*
%TD*%
D10*
%TO.P,J4,1*%
%TO.N,/GND*%
X143000000Y-106000000D03*
D11*
%TO.P,J4,2*%
%TO.N,/VIO*%
X145540000Y-106000000D03*
%TO.P,J4,3*%
%TO.N,/SDA*%
X148080000Y-106000000D03*
%TO.P,J4,4*%
%TO.N,/SCL*%
X150620000Y-106000000D03*
%TD*%
D10*
%TO.P,JP4,1*%
%TO.N,/VIO*%
X154000000Y-113000000D03*
D11*
%TO.P,JP4,2*%
%TO.N,/PULL_V*%
X156540000Y-113000000D03*
%TD*%
D10*
%TO.P,J3,1*%
%TO.N,/OUT*%
X156000000Y-129000000D03*
D11*
%TO.P,J3,2*%
%TO.N,/GND*%
X156000000Y-131540000D03*
%TO.P,J3,3*%
%TO.N,/REF_EXT*%
X156000000Y-134080000D03*
%TD*%
D12*
%TO.N,/REF*%
X124700000Y-128900000D03*
X113000000Y-133000000D03*
X123300000Y-129300000D03*
X135200000Y-132199999D03*
X143700000Y-126700000D03*
X142912500Y-128524000D03*
X115200000Y-133000000D03*
%TO.N,/GND*%
X119887500Y-123500000D03*
X126111000Y-137414000D03*
X116800000Y-140000000D03*
X142700000Y-111000000D03*
X131500000Y-118525000D03*
X136900000Y-123300000D03*
X155000000Y-143000000D03*
X107000000Y-104000000D03*
X146900000Y-115300000D03*
X134500000Y-118525000D03*
X144900000Y-114500000D03*
X108712000Y-137000000D03*
X110800000Y-128000000D03*
X156337000Y-108458000D03*
X121700000Y-112000000D03*
X154800000Y-116500000D03*
X152800000Y-139500000D03*
X115800000Y-128500000D03*
X106000000Y-144000000D03*
X105000000Y-127000000D03*
X126800000Y-125000000D03*
X154000000Y-105000000D03*
X112700000Y-142000000D03*
%TO.N,/VS*%
X132400000Y-117300000D03*
X135900000Y-125100000D03*
X133500000Y-115700000D03*
X144500000Y-126500000D03*
X135100000Y-116000000D03*
X132500000Y-117875000D03*
X143000000Y-121300000D03*
X138200000Y-116500000D03*
%TO.N,/OUT_RAW*%
X128199999Y-134100000D03*
X132207000Y-113500000D03*
X141100000Y-116800000D03*
X126400000Y-129800000D03*
X139800000Y-115500000D03*
X128199999Y-132300000D03*
X125918500Y-115631500D03*
X127600000Y-141700000D03*
X127600000Y-143000000D03*
X124200000Y-119900000D03*
%TO.N,/GAIN101*%
X134500000Y-121125000D03*
X141087500Y-128524000D03*
X142900000Y-125900000D03*
X142200000Y-124300000D03*
%TO.N,/IN_N*%
X111300000Y-123200000D03*
%TO.N,/SEL0*%
X131500000Y-117225000D03*
X132699999Y-115900000D03*
X131600000Y-115200000D03*
X135200000Y-111700000D03*
%TO.N,/GAIN25*%
X138900000Y-123400000D03*
X134500000Y-119825000D03*
%TO.N,/MID_DIV*%
X112300000Y-137400000D03*
X112800000Y-138800000D03*
%TO.N,/GAIN50*%
X129500000Y-139600000D03*
X131000000Y-142000000D03*
%TO.N,/VIO*%
X149300000Y-109800000D03*
X152400000Y-115300000D03*
%TO.N,/GAIN5*%
X130199999Y-133300000D03*
X132500000Y-120475000D03*
%TO.N,/SEL1*%
X134500000Y-117225000D03*
X137900000Y-110800000D03*
%TO.N,/SEL2*%
X137700000Y-117900000D03*
X133500000Y-117875000D03*
%TO.N,/SCL*%
X149700000Y-114200000D03*
%TO.N,/GAIN2_5*%
X131500000Y-119825000D03*
X130900000Y-132800000D03*
%TO.N,/BW*%
X119200000Y-112400000D03*
X119900000Y-114808000D03*
%TO.N,/GAIN1001*%
X149300000Y-130400000D03*
X133500000Y-121775000D03*
X137500000Y-122700000D03*
X140100000Y-123600000D03*
%TO.N,/PULL_V*%
X154100000Y-118491000D03*
%TO.N,/OUT*%
X150900000Y-134700000D03*
X150900000Y-138000000D03*
%TO.N,/REF_PIN*%
X125500000Y-126300000D03*
X125500000Y-121300000D03*
%TO.N,/UNITY*%
X132500000Y-119175000D03*
X137200000Y-113700000D03*
%TO.N,/FB*%
X132199999Y-129000000D03*
X132500000Y-121775000D03*
X128699999Y-130699999D03*
%TD*%
%TO.N,/REF*%
D13*
X142912500Y-127687500D02*
X143700000Y-126900000D01*
X139000000Y-142500000D02*
X139000000Y-140000000D01*
X124300000Y-129300000D02*
X124700000Y-128900000D01*
X142912500Y-128524000D02*
X142912500Y-127687500D01*
X125700000Y-129900000D02*
X124700000Y-128900000D01*
X127800000Y-134700000D02*
X127000000Y-133900000D01*
X129300000Y-134800000D02*
X128000000Y-134800000D01*
X135200000Y-132199999D02*
X133699999Y-132199999D01*
X123300000Y-129300000D02*
X124300000Y-129300000D01*
X139000000Y-142540000D02*
X139000000Y-142500000D01*
X129400000Y-134900000D02*
X129300000Y-134800000D01*
X127900000Y-134700000D02*
X127800000Y-134700000D01*
X127000000Y-131400000D02*
X125800000Y-130199999D01*
X125800000Y-130100000D02*
X125700000Y-130000000D01*
X131000000Y-134900000D02*
X130900000Y-134900000D01*
X130900000Y-134900000D02*
X130800000Y-135000000D01*
X130800000Y-135000000D02*
X129600000Y-135000000D01*
X133699999Y-132199999D02*
X131000000Y-134900000D01*
X125800000Y-130199999D02*
X125800000Y-130100000D01*
X128000000Y-134800000D02*
X127900000Y-134700000D01*
X129500000Y-134900000D02*
X129400000Y-134900000D01*
X143700000Y-126900000D02*
X143700000Y-126700000D01*
X127000000Y-133900000D02*
X127000000Y-131400000D01*
X129600000Y-135000000D02*
X129500000Y-134900000D01*
X125700000Y-130000000D02*
X125700000Y-129900000D01*
X113000000Y-133000000D02*
X115200000Y-133000000D01*
%TO.N,/GND*%
X134500000Y-118525000D02*
X137500000Y-118525000D01*
X131500000Y-118525000D02*
X128500000Y-118525000D01*
%TO.N,/VS*%
X143100000Y-125100000D02*
X144500000Y-126500000D01*
X132800000Y-117700000D02*
X132500000Y-117875000D01*
X133300000Y-116300000D02*
X132400000Y-117200000D01*
X134500000Y-116600000D02*
X134100000Y-116600000D01*
X133500000Y-117200000D02*
X133199999Y-117200000D01*
X133400000Y-115800000D02*
X133400000Y-116100000D01*
X132400000Y-117200000D02*
X132400000Y-117300000D01*
X133500000Y-115700000D02*
X133400000Y-115800000D01*
X132900000Y-117600000D02*
X132800000Y-117700000D01*
X135900000Y-125100000D02*
X143100000Y-125100000D01*
X143000000Y-121300000D02*
X138200000Y-116500000D01*
X135100000Y-116000000D02*
X134500000Y-116600000D01*
X133199999Y-117200000D02*
X132900000Y-117500000D01*
X133400000Y-116100000D02*
X133300000Y-116200000D01*
X132900000Y-117500000D02*
X132900000Y-117600000D01*
X133300000Y-116200000D02*
X133300000Y-116300000D01*
X134100000Y-116600000D02*
X133500000Y-117200000D01*
%TO.N,/OUT_RAW*%
X128199999Y-132300000D02*
X128199999Y-134100000D01*
X125918500Y-115631500D02*
X128050000Y-113500000D01*
X126400000Y-128900000D02*
X126400000Y-129800000D01*
X127600000Y-143000000D02*
X127600000Y-141700000D01*
X139800000Y-115500000D02*
X141100000Y-116800000D01*
D14*
X132207000Y-113500000D02*
X132206999Y-113500000D01*
X132206999Y-113500000D01*
X132206999Y-113500000D01*
X132206999Y-113500000D01*
X132206999Y-113500000D01*
X132206999Y-113500000D01*
X132206999Y-113500000D01*
X132206999Y-113499999D01*
X132206999Y-113499999D01*
X132206999Y-113499999D01*
X132206999Y-113499999D01*
X132206999Y-113499999D01*
X132207000Y-113499999D01*
X132207000Y-113499999D01*
X132207000Y-113499999D01*
X132207000Y-113499999D01*
X132207000Y-113499999D01*
X132207000Y-113499999D01*
X132207000Y-113499999D01*
X132207000Y-113499999D01*
X132207000Y-113499999D01*
X132207000Y-113499999D01*
X132207000Y-113499999D01*
X132207000Y-113499999D01*
X132207001Y-113499999D01*
X132207001Y-113499999D01*
X132207001Y-113499999D01*
X132207001Y-113499999D01*
X132207001Y-113499999D01*
X132207001Y-113499999D01*
X132207001Y-113500000D01*
X132207001Y-113500000D01*
X132207001Y-113500000D01*
X132207001Y-113500000D01*
X132207001Y-113500000D01*
X132207001Y-113500000D01*
X132207001Y-113500000D01*
X132207000Y-113500000D01*
X132207000Y-113500000D02*
X132207001Y-113500000D01*
X132207001Y-113500000D01*
X132207001Y-113500000D01*
X132207001Y-113500000D01*
X132207001Y-113500000D01*
X132207001Y-113500000D01*
X132207001Y-113500001D01*
X132207001Y-113500001D01*
X132207001Y-113500001D01*
X132207001Y-113500001D01*
X132207001Y-113500001D01*
X132207001Y-113500001D01*
X132207001Y-113500001D01*
X132207000Y-113500001D01*
X132207000Y-113500001D01*
X132207000Y-113500001D01*
X132207000Y-113500001D01*
X132207000Y-113500001D01*
X132207000Y-113500001D01*
X132207000Y-113500001D01*
X132207000Y-113500001D01*
X132207000Y-113500001D01*
X132207000Y-113500001D01*
X132207000Y-113500001D01*
X132207000Y-113500001D01*
X132206999Y-113500001D01*
X132206999Y-113500001D01*
X132206999Y-113500001D01*
X132206999Y-113500001D01*
X132206999Y-113500001D01*
X132206999Y-113500001D01*
X132206999Y-113500000D01*
X132206999Y-113500000D01*
X132206999Y-113500000D01*
X132206999Y-113500000D01*
X132206999Y-113500000D01*
X132206999Y-113500000D01*
X132207000Y-113500000D01*
D13*
X128050000Y-113500000D02*
X132207000Y-113500000D01*
X124200000Y-126700000D02*
X126400000Y-128900000D01*
X124200000Y-119900000D02*
X124200000Y-126700000D01*
%TO.N,/GAIN101*%
X138200000Y-122300000D02*
X138200000Y-124200000D01*
X137500000Y-121100000D02*
X137800000Y-121400000D01*
X141087500Y-127712500D02*
X142900000Y-125900000D01*
X141087500Y-128524000D02*
X141087500Y-127712500D01*
X142200000Y-124300000D02*
X138300000Y-124300000D01*
X138000000Y-122100000D02*
X138200000Y-122300000D01*
X138200000Y-124200000D02*
X138300000Y-124300000D01*
X137900000Y-121400000D02*
X138000000Y-121500000D01*
X134500000Y-121125000D02*
X137500000Y-121125000D01*
X138000000Y-121500000D02*
X138000000Y-122100000D01*
X137500000Y-121125000D02*
X137500000Y-121100000D01*
X137800000Y-121400000D02*
X137900000Y-121400000D01*
%TO.N,/IN_N*%
X105100000Y-120600000D02*
X105000000Y-120500000D01*
X108100000Y-123200000D02*
X105500000Y-120600000D01*
X111300000Y-123200000D02*
X108100000Y-123200000D01*
X105500000Y-120600000D02*
X105100000Y-120600000D01*
X105000000Y-120540000D02*
X105000000Y-120500000D01*
%TO.N,/SEL0*%
X135100000Y-111700000D02*
X131600000Y-115200000D01*
X135200000Y-111700000D02*
X135100000Y-111700000D01*
X131600000Y-115200000D02*
X131400000Y-115200000D01*
X131500000Y-117100000D02*
X132699999Y-115900000D01*
X131500000Y-117200000D02*
X131500000Y-117100000D01*
X131500000Y-117225000D02*
X131500000Y-117200000D01*
%TO.N,/GAIN25*%
X138700000Y-122100000D02*
X138700000Y-123200000D01*
X138000000Y-120300000D02*
X138000000Y-120800000D01*
X134500000Y-119825000D02*
X137500000Y-119825000D01*
X138500000Y-121300000D02*
X138500000Y-121900000D01*
X137800000Y-120100000D02*
X137900000Y-120100000D01*
X134500000Y-119825000D02*
X134800000Y-120000000D01*
X134800000Y-120000000D02*
X137700000Y-120000000D01*
X137700000Y-120000000D02*
X137800000Y-120100000D01*
X137900000Y-120100000D02*
X137900000Y-120200000D01*
X138700000Y-123200000D02*
X138900000Y-123400000D01*
X138000000Y-120800000D02*
X138500000Y-121300000D01*
X138500000Y-121900000D02*
X138700000Y-122100000D01*
X137900000Y-120200000D02*
X138000000Y-120300000D01*
%TO.N,/MID_DIV*%
X112300000Y-137400000D02*
X112300000Y-138300000D01*
X112300000Y-138300000D02*
X112800000Y-138800000D01*
%TO.N,/GAIN50*%
X131000000Y-142000000D02*
X131000000Y-141100000D01*
X131000000Y-141100000D02*
X129500000Y-139600000D01*
%TO.N,/VIO*%
X152400000Y-114600000D02*
X154000000Y-113000000D01*
X145540000Y-106000000D02*
X145500000Y-106000000D01*
X152400000Y-115300000D02*
X152400000Y-114600000D01*
X145500000Y-106000000D02*
X149300000Y-109800000D01*
%TO.N,/GAIN5*%
X129900000Y-120700000D02*
X128199999Y-120700000D01*
X132500000Y-120475000D02*
X130100000Y-120500000D01*
X129900000Y-133000000D02*
X130199999Y-133300000D01*
X130100000Y-120500000D02*
X129900000Y-120700000D01*
X128100000Y-120900000D02*
X128000000Y-121000000D01*
X128199999Y-120700000D02*
X128100000Y-120800000D01*
X129900000Y-124000000D02*
X129900000Y-133000000D01*
X128000000Y-122100000D02*
X129900000Y-124000000D01*
X128000000Y-121000000D02*
X128000000Y-122100000D01*
X128100000Y-120800000D02*
X128100000Y-120900000D01*
%TO.N,/SEL1*%
X137500000Y-115700000D02*
X137500000Y-117200000D01*
X137900000Y-114400000D02*
X137900000Y-115300000D01*
X137900000Y-114400000D02*
X137900000Y-110800000D01*
X137500000Y-117225000D02*
X137500000Y-117200000D01*
X134500000Y-117225000D02*
X137500000Y-117225000D01*
X137900000Y-115300000D02*
X137500000Y-115700000D01*
%TO.N,/SEL2*%
X133500000Y-117875000D02*
X137500000Y-117875000D01*
X133500000Y-117875000D02*
X137700000Y-117900000D01*
%TO.N,/SCL*%
X150620000Y-106000000D02*
X150600000Y-106000000D01*
X149900000Y-114200000D02*
X149700000Y-114200000D01*
X150600000Y-112900000D02*
X149900000Y-113600000D01*
X149900000Y-113600000D02*
X149900000Y-114173000D01*
X150600000Y-106000000D02*
X150600000Y-112900000D01*
X149900000Y-114173000D02*
X149900000Y-114200000D01*
%TO.N,/GAIN2_5*%
X131500000Y-119825000D02*
X128500000Y-119825000D01*
X130000000Y-134000000D02*
X129900000Y-133900000D01*
X127500000Y-120800000D02*
X127600000Y-120700000D01*
X129600000Y-133699999D02*
X129600000Y-133600000D01*
X128300000Y-120000000D02*
X131199999Y-120000000D01*
X127500000Y-127800000D02*
X127500000Y-120800000D01*
X129800000Y-133900000D02*
X129600000Y-133699999D01*
X131199999Y-120000000D02*
X131500000Y-119825000D01*
X129500000Y-133500000D02*
X129500000Y-133300000D01*
X128100000Y-120100000D02*
X128199999Y-120100000D01*
X127600000Y-120600000D02*
X128100000Y-120100000D01*
X129400000Y-129699999D02*
X127500000Y-127800000D01*
X130400000Y-134000000D02*
X130000000Y-134000000D01*
X129500000Y-133300000D02*
X129400000Y-133199999D01*
X129900000Y-133900000D02*
X129800000Y-133900000D01*
X127600000Y-120700000D02*
X127600000Y-120600000D01*
X130900000Y-133600000D02*
X130600000Y-133900000D01*
X130500000Y-133900000D02*
X130400000Y-134000000D01*
X130600000Y-133900000D02*
X130500000Y-133900000D01*
X128199999Y-120100000D02*
X128300000Y-120000000D01*
X129600000Y-133600000D02*
X129500000Y-133500000D01*
X130900000Y-132800000D02*
X130900000Y-133600000D01*
X129400000Y-133199999D02*
X129400000Y-129699999D01*
%TO.N,/BW*%
X119200000Y-114108000D02*
X119900000Y-114808000D01*
X119200000Y-112400000D02*
X119200000Y-114108000D01*
%TO.N,/GAIN1001*%
X137500000Y-121775000D02*
X137500000Y-121800000D01*
X142400000Y-123600000D02*
X140100000Y-123600000D01*
X137500000Y-121800000D02*
X137500000Y-122700000D01*
X142600000Y-123700000D02*
X142500000Y-123700000D01*
X133500000Y-121775000D02*
X137500000Y-121775000D01*
X142500000Y-123700000D02*
X142400000Y-123600000D01*
X149300000Y-130400000D02*
X142600000Y-123700000D01*
%TO.N,/PULL_V*%
X156500000Y-113000000D02*
X156540000Y-113000000D01*
X154100000Y-118491000D02*
X154100000Y-115400000D01*
X154100000Y-115400000D02*
X156500000Y-113000000D01*
%TO.N,/OUT*%
X150900000Y-138000000D02*
X150900000Y-134700000D01*
%TO.N,/REF_PIN*%
X125500000Y-126300000D02*
X125500000Y-121300000D01*
%TO.N,/UNITY*%
X128100000Y-118800000D02*
X128100000Y-118900000D01*
X134199999Y-113700000D02*
X134100000Y-113700000D01*
X133600000Y-114100000D02*
X131600000Y-116100000D01*
X128100000Y-117000000D02*
X128000000Y-117100000D01*
X137200000Y-113700000D02*
X134199999Y-113700000D01*
X128199999Y-118900000D02*
X128500000Y-119200000D01*
X128100000Y-116900000D02*
X128100000Y-117000000D01*
X128900000Y-116100000D02*
X128100000Y-116900000D01*
X134100000Y-113700000D02*
X133699999Y-114100000D01*
X134199998Y-113700000D02*
X134199999Y-113700000D01*
X128000000Y-118700000D02*
X128100000Y-118800000D01*
X131600000Y-116100000D02*
X128900000Y-116100000D01*
X132500000Y-119175000D02*
X128500000Y-119175000D01*
X128100000Y-118900000D02*
X128199999Y-118900000D01*
X128500000Y-119175000D02*
X128500000Y-119200000D01*
X133699999Y-114100000D02*
X133600000Y-114100000D01*
X128000000Y-117100000D02*
X128000000Y-118700000D01*
%TO.N,/FB*%
X129699999Y-134400000D02*
X129600000Y-134400000D01*
X128900000Y-130900000D02*
X128699999Y-130699999D01*
X129800000Y-134500000D02*
X129699999Y-134400000D01*
X129600000Y-134400000D02*
X129100000Y-133900000D01*
X129100000Y-133900000D02*
X129100000Y-133800000D01*
X131699999Y-129500000D02*
X131699999Y-133500000D01*
X129100000Y-133800000D02*
X129000000Y-133699999D01*
X129000000Y-133500000D02*
X128900000Y-133400000D01*
X132199999Y-129000000D02*
X131699999Y-129500000D01*
X132500000Y-121775000D02*
X132199999Y-129000000D01*
X129000000Y-133699999D02*
X129000000Y-133500000D01*
X128900000Y-133400000D02*
X128900000Y-130900000D01*
X130600000Y-134500000D02*
X129800000Y-134500000D01*
X130800000Y-134400000D02*
X130699999Y-134400000D01*
X132199998Y-129000000D02*
X132199999Y-129000000D01*
X130699999Y-134400000D02*
X130600000Y-134500000D01*
X131699999Y-133500000D02*
X130800000Y-134400000D01*
%TD*%
%TA.AperFunction,Conductor*%
%TO.N,/GND*%
G36*
X159458691Y-100519407D02*
G01*
X159494655Y-100568907D01*
X159499500Y-100599500D01*
X159499500Y-149400500D01*
X159480593Y-149458691D01*
X159431093Y-149494655D01*
X159400500Y-149499500D01*
X100599500Y-149499500D01*
X100541309Y-149480593D01*
X100505345Y-149431093D01*
X100500500Y-149400500D01*
X100500500Y-146378710D01*
X101649500Y-146378710D01*
X101649500Y-146621289D01*
X101681161Y-146861781D01*
X101681161Y-146861786D01*
X101743944Y-147096092D01*
X101743948Y-147096105D01*
X101836772Y-147320204D01*
X101836774Y-147320208D01*
X101836776Y-147320212D01*
X101958064Y-147530289D01*
X101958066Y-147530292D01*
X102105729Y-147722731D01*
X102105731Y-147722733D01*
X102105735Y-147722738D01*
X102277262Y-147894265D01*
X102277266Y-147894268D01*
X102277268Y-147894270D01*
X102469707Y-148041933D01*
X102469711Y-148041936D01*
X102679788Y-148163224D01*
X102903900Y-148256054D01*
X103138211Y-148318838D01*
X103378712Y-148350500D01*
X103378713Y-148350500D01*
X103621287Y-148350500D01*
X103621288Y-148350500D01*
X103861789Y-148318838D01*
X104096100Y-148256054D01*
X104320212Y-148163224D01*
X104530289Y-148041936D01*
X104722738Y-147894265D01*
X104894265Y-147722738D01*
X105041936Y-147530289D01*
X105163224Y-147320212D01*
X105256054Y-147096100D01*
X105318838Y-146861789D01*
X105350500Y-146621288D01*
X105350500Y-146378712D01*
X105350500Y-146378710D01*
X154649500Y-146378710D01*
X154649500Y-146621289D01*
X154681161Y-146861781D01*
X154681161Y-146861786D01*
X154743944Y-147096092D01*
X154743948Y-147096105D01*
X154836772Y-147320204D01*
X154836774Y-147320208D01*
X154836776Y-147320212D01*
X154958064Y-147530289D01*
X154958066Y-147530292D01*
X155105729Y-147722731D01*
X155105731Y-147722733D01*
X155105735Y-147722738D01*
X155277262Y-147894265D01*
X155277266Y-147894268D01*
X155277268Y-147894270D01*
X155469707Y-148041933D01*
X155469711Y-148041936D01*
X155679788Y-148163224D01*
X155903900Y-148256054D01*
X156138211Y-148318838D01*
X156378712Y-148350500D01*
X156378713Y-148350500D01*
X156621287Y-148350500D01*
X156621288Y-148350500D01*
X156861789Y-148318838D01*
X157096100Y-148256054D01*
X157320212Y-148163224D01*
X157530289Y-148041936D01*
X157722738Y-147894265D01*
X157894265Y-147722738D01*
X158041936Y-147530289D01*
X158163224Y-147320212D01*
X158256054Y-147096100D01*
X158318838Y-146861789D01*
X158350500Y-146621288D01*
X158350500Y-146378712D01*
X158318838Y-146138211D01*
X158256054Y-145903900D01*
X158163224Y-145679788D01*
X158041936Y-145469711D01*
X157894265Y-145277262D01*
X157722738Y-145105735D01*
X157722733Y-145105731D01*
X157722731Y-145105729D01*
X157530292Y-144958066D01*
X157530289Y-144958064D01*
X157320212Y-144836776D01*
X157320208Y-144836774D01*
X157320204Y-144836772D01*
X157096105Y-144743948D01*
X157096104Y-144743947D01*
X157096100Y-144743946D01*
X156861789Y-144681162D01*
X156861786Y-144681161D01*
X156861784Y-144681161D01*
X156621289Y-144649500D01*
X156621288Y-144649500D01*
X156378712Y-144649500D01*
X156378710Y-144649500D01*
X156138218Y-144681161D01*
X156138213Y-144681161D01*
X155903907Y-144743944D01*
X155903894Y-144743948D01*
X155679795Y-144836772D01*
X155469707Y-144958066D01*
X155277268Y-145105729D01*
X155105729Y-145277268D01*
X154958066Y-145469707D01*
X154836772Y-145679795D01*
X154743948Y-145903894D01*
X154743944Y-145903907D01*
X154681161Y-146138213D01*
X154681161Y-146138218D01*
X154649500Y-146378710D01*
X105350500Y-146378710D01*
X105318838Y-146138211D01*
X105256054Y-145903900D01*
X105163224Y-145679788D01*
X105041936Y-145469711D01*
X104894265Y-145277262D01*
X104722738Y-145105735D01*
X104722733Y-145105731D01*
X104722731Y-145105729D01*
X104650381Y-145050213D01*
X104554357Y-144976532D01*
X137949500Y-144976532D01*
X137949500Y-145183467D01*
X137989869Y-145386418D01*
X138069058Y-145577597D01*
X138137344Y-145679795D01*
X138184023Y-145749655D01*
X138330345Y-145895977D01*
X138502402Y-146010941D01*
X138693580Y-146090130D01*
X138896535Y-146130500D01*
X138896536Y-146130500D01*
X139103464Y-146130500D01*
X139103465Y-146130500D01*
X139306420Y-146090130D01*
X139497598Y-146010941D01*
X139669655Y-145895977D01*
X139815977Y-145749655D01*
X139930941Y-145577598D01*
X140010130Y-145386420D01*
X140050500Y-145183465D01*
X140050500Y-144976535D01*
X140050499Y-144976532D01*
X140489500Y-144976532D01*
X140489500Y-145183467D01*
X140529869Y-145386418D01*
X140609058Y-145577597D01*
X140677344Y-145679795D01*
X140724023Y-145749655D01*
X140870345Y-145895977D01*
X141042402Y-146010941D01*
X141233580Y-146090130D01*
X141436535Y-146130500D01*
X141436536Y-146130500D01*
X141643464Y-146130500D01*
X141643465Y-146130500D01*
X141846420Y-146090130D01*
X142037598Y-146010941D01*
X142209655Y-145895977D01*
X142355977Y-145749655D01*
X142470941Y-145577598D01*
X142550130Y-145386420D01*
X142590500Y-145183465D01*
X142590500Y-144976535D01*
X142550130Y-144773580D01*
X142470941Y-144582402D01*
X142355977Y-144410345D01*
X142209655Y-144264023D01*
X142037598Y-144149059D01*
X142037599Y-144149059D01*
X142037597Y-144149058D01*
X141846418Y-144069869D01*
X141643467Y-144029500D01*
X141643465Y-144029500D01*
X141436535Y-144029500D01*
X141436532Y-144029500D01*
X141233581Y-144069869D01*
X141042402Y-144149058D01*
X140870348Y-144264020D01*
X140724020Y-144410348D01*
X140609058Y-144582402D01*
X140529869Y-144773581D01*
X140489500Y-144976532D01*
X140050499Y-144976532D01*
X140010130Y-144773580D01*
X139930941Y-144582402D01*
X139815977Y-144410345D01*
X139669655Y-144264023D01*
X139497598Y-144149059D01*
X139497599Y-144149059D01*
X139497597Y-144149058D01*
X139306418Y-144069869D01*
X139103467Y-144029500D01*
X139103465Y-144029500D01*
X138896535Y-144029500D01*
X138896532Y-144029500D01*
X138693581Y-144069869D01*
X138502402Y-144149058D01*
X138330348Y-144264020D01*
X138184020Y-144410348D01*
X138069058Y-144582402D01*
X137989869Y-144773581D01*
X137949500Y-144976532D01*
X104554357Y-144976532D01*
X104530292Y-144958066D01*
X104530289Y-144958064D01*
X104320212Y-144836776D01*
X104320208Y-144836774D01*
X104320204Y-144836772D01*
X104096105Y-144743948D01*
X104096104Y-144743947D01*
X104096100Y-144743946D01*
X103861789Y-144681162D01*
X103861786Y-144681161D01*
X103861784Y-144681161D01*
X103621289Y-144649500D01*
X103621288Y-144649500D01*
X103378712Y-144649500D01*
X103378710Y-144649500D01*
X103138218Y-144681161D01*
X103138213Y-144681161D01*
X102903907Y-144743944D01*
X102903894Y-144743948D01*
X102679795Y-144836772D01*
X102469707Y-144958066D01*
X102277268Y-145105729D01*
X102105729Y-145277268D01*
X101958066Y-145469707D01*
X101836772Y-145679795D01*
X101743948Y-145903894D01*
X101743944Y-145903907D01*
X101681161Y-146138213D01*
X101681161Y-146138218D01*
X101649500Y-146378710D01*
X100500500Y-146378710D01*
X100500500Y-141634108D01*
X127099500Y-141634108D01*
X127099500Y-141765892D01*
X127110464Y-141806809D01*
X127133609Y-141893190D01*
X127199496Y-142007309D01*
X127199498Y-142007311D01*
X127199500Y-142007314D01*
X127270505Y-142078319D01*
X127298281Y-142132834D01*
X127299500Y-142148321D01*
X127299500Y-142551679D01*
X127280593Y-142609870D01*
X127270509Y-142621676D01*
X127199500Y-142692686D01*
X127199497Y-142692689D01*
X127199496Y-142692690D01*
X127133609Y-142806809D01*
X127133608Y-142806814D01*
X127099500Y-142934108D01*
X127099500Y-143065892D01*
X127129579Y-143178151D01*
X127133609Y-143193190D01*
X127199496Y-143307309D01*
X127199498Y-143307311D01*
X127199500Y-143307314D01*
X127292686Y-143400500D01*
X127292688Y-143400501D01*
X127292690Y-143400503D01*
X127406810Y-143466390D01*
X127406808Y-143466390D01*
X127406812Y-143466391D01*
X127406814Y-143466392D01*
X127534108Y-143500500D01*
X127534110Y-143500500D01*
X127665890Y-143500500D01*
X127665892Y-143500500D01*
X127793186Y-143466392D01*
X127793188Y-143466390D01*
X127793190Y-143466390D01*
X127907309Y-143400503D01*
X127907309Y-143400502D01*
X127907314Y-143400500D01*
X128000500Y-143307314D01*
X128066392Y-143193186D01*
X128100500Y-143065892D01*
X128100500Y-142934108D01*
X128066392Y-142806814D01*
X128066390Y-142806811D01*
X128066390Y-142806809D01*
X128000503Y-142692690D01*
X128000501Y-142692688D01*
X128000500Y-142692686D01*
X127929494Y-142621680D01*
X127901719Y-142567166D01*
X127900500Y-142551679D01*
X127900500Y-142148321D01*
X127919407Y-142090130D01*
X127929490Y-142078323D01*
X128000500Y-142007314D01*
X128066392Y-141893186D01*
X128100500Y-141765892D01*
X128100500Y-141634108D01*
X128066392Y-141506814D01*
X128066390Y-141506811D01*
X128066390Y-141506809D01*
X128000503Y-141392690D01*
X128000501Y-141392688D01*
X128000500Y-141392686D01*
X127907314Y-141299500D01*
X127907311Y-141299498D01*
X127907309Y-141299496D01*
X127793189Y-141233609D01*
X127793191Y-141233609D01*
X127743799Y-141220375D01*
X127665892Y-141199500D01*
X127534108Y-141199500D01*
X127456200Y-141220375D01*
X127406809Y-141233609D01*
X127292690Y-141299496D01*
X127199496Y-141392690D01*
X127133609Y-141506809D01*
X127121305Y-141552731D01*
X127099500Y-141634108D01*
X100500500Y-141634108D01*
X100500500Y-139534108D01*
X128999500Y-139534108D01*
X128999500Y-139665892D01*
X129029579Y-139778151D01*
X129033609Y-139793190D01*
X129099496Y-139907309D01*
X129099498Y-139907311D01*
X129099500Y-139907314D01*
X129192686Y-140000500D01*
X129192688Y-140000501D01*
X129192690Y-140000503D01*
X129306810Y-140066390D01*
X129306808Y-140066390D01*
X129306812Y-140066391D01*
X129306814Y-140066392D01*
X129434108Y-140100500D01*
X129434110Y-140100500D01*
X129534521Y-140100500D01*
X129592712Y-140119407D01*
X129604525Y-140129496D01*
X130670504Y-141195475D01*
X130698281Y-141249992D01*
X130699500Y-141265479D01*
X130699500Y-141551679D01*
X130680593Y-141609870D01*
X130670509Y-141621676D01*
X130599500Y-141692686D01*
X130599497Y-141692689D01*
X130599496Y-141692690D01*
X130533609Y-141806809D01*
X130533608Y-141806814D01*
X130499500Y-141934108D01*
X130499500Y-142065892D01*
X130517437Y-142132834D01*
X130533609Y-142193190D01*
X130599496Y-142307309D01*
X130599498Y-142307311D01*
X130599500Y-142307314D01*
X130692686Y-142400500D01*
X130692688Y-142400501D01*
X130692690Y-142400503D01*
X130806810Y-142466390D01*
X130806808Y-142466390D01*
X130806812Y-142466391D01*
X130806814Y-142466392D01*
X130934108Y-142500500D01*
X130934110Y-142500500D01*
X131065890Y-142500500D01*
X131065892Y-142500500D01*
X131193186Y-142466392D01*
X131193188Y-142466390D01*
X131193190Y-142466390D01*
X131307309Y-142400503D01*
X131307309Y-142400502D01*
X131307314Y-142400500D01*
X131400500Y-142307314D01*
X131443070Y-142233581D01*
X131466390Y-142193190D01*
X131466390Y-142193188D01*
X131466392Y-142193186D01*
X131500500Y-142065892D01*
X131500500Y-141934108D01*
X131466392Y-141806814D01*
X131466390Y-141806811D01*
X131466390Y-141806809D01*
X131400503Y-141692690D01*
X131400501Y-141692688D01*
X131400500Y-141692686D01*
X131329494Y-141621680D01*
X131301719Y-141567166D01*
X131300500Y-141551679D01*
X131300500Y-141060437D01*
X131300499Y-141060435D01*
X131297836Y-141050498D01*
X131280021Y-140984011D01*
X131240460Y-140915489D01*
X131184511Y-140859539D01*
X131184511Y-140859540D01*
X130029496Y-139704525D01*
X130001719Y-139650008D01*
X130000500Y-139634521D01*
X130000500Y-139534109D01*
X129991361Y-139500000D01*
X129966392Y-139406814D01*
X129966390Y-139406811D01*
X129966390Y-139406809D01*
X129900503Y-139292690D01*
X129900501Y-139292688D01*
X129900500Y-139292686D01*
X129807314Y-139199500D01*
X129807311Y-139199498D01*
X129807309Y-139199496D01*
X129693189Y-139133609D01*
X129693191Y-139133609D01*
X129680666Y-139130253D01*
X137949500Y-139130253D01*
X137949500Y-140869746D01*
X137949501Y-140869758D01*
X137961132Y-140928227D01*
X137961134Y-140928233D01*
X138005445Y-140994548D01*
X138005448Y-140994552D01*
X138071769Y-141038867D01*
X138116231Y-141047711D01*
X138130241Y-141050498D01*
X138130246Y-141050498D01*
X138130252Y-141050500D01*
X138600500Y-141050500D01*
X138658691Y-141069407D01*
X138694655Y-141118907D01*
X138699500Y-141149500D01*
X138699500Y-141461267D01*
X138680593Y-141519458D01*
X138638387Y-141552731D01*
X138502401Y-141609059D01*
X138330348Y-141724020D01*
X138184020Y-141870348D01*
X138069058Y-142042402D01*
X137989869Y-142233581D01*
X137949500Y-142436532D01*
X137949500Y-142643467D01*
X137989869Y-142846418D01*
X138069058Y-143037597D01*
X138184020Y-143209651D01*
X138184023Y-143209655D01*
X138330345Y-143355977D01*
X138502402Y-143470941D01*
X138693580Y-143550130D01*
X138896535Y-143590500D01*
X138896536Y-143590500D01*
X139103464Y-143590500D01*
X139103465Y-143590500D01*
X139306420Y-143550130D01*
X139497598Y-143470941D01*
X139669655Y-143355977D01*
X139815977Y-143209655D01*
X139930941Y-143037598D01*
X140010130Y-142846420D01*
X140050500Y-142643465D01*
X140050500Y-142436535D01*
X140050499Y-142436532D01*
X140489500Y-142436532D01*
X140489500Y-142643467D01*
X140529869Y-142846418D01*
X140609058Y-143037597D01*
X140724020Y-143209651D01*
X140724023Y-143209655D01*
X140870345Y-143355977D01*
X141042402Y-143470941D01*
X141233580Y-143550130D01*
X141436535Y-143590500D01*
X141436536Y-143590500D01*
X141643464Y-143590500D01*
X141643465Y-143590500D01*
X141846420Y-143550130D01*
X142037598Y-143470941D01*
X142209655Y-143355977D01*
X142355977Y-143209655D01*
X142470941Y-143037598D01*
X142550130Y-142846420D01*
X142590500Y-142643465D01*
X142590500Y-142436535D01*
X142550130Y-142233580D01*
X142470941Y-142042402D01*
X142355977Y-141870345D01*
X142209655Y-141724023D01*
X142162762Y-141692690D01*
X142037597Y-141609058D01*
X141846418Y-141529869D01*
X141643467Y-141489500D01*
X141643465Y-141489500D01*
X141436535Y-141489500D01*
X141436532Y-141489500D01*
X141233581Y-141529869D01*
X141042402Y-141609058D01*
X140870348Y-141724020D01*
X140724020Y-141870348D01*
X140609058Y-142042402D01*
X140529869Y-142233581D01*
X140489500Y-142436532D01*
X140050499Y-142436532D01*
X140010130Y-142233580D01*
X139930941Y-142042402D01*
X139815977Y-141870345D01*
X139669655Y-141724023D01*
X139497598Y-141609059D01*
X139465021Y-141595565D01*
X139361613Y-141552731D01*
X139315088Y-141512994D01*
X139300500Y-141461267D01*
X139300500Y-141149500D01*
X139319407Y-141091309D01*
X139368907Y-141055345D01*
X139399500Y-141050500D01*
X139869747Y-141050500D01*
X139869748Y-141050500D01*
X139928231Y-141038867D01*
X139994552Y-140994552D01*
X140038867Y-140928231D01*
X140050500Y-140869748D01*
X140050500Y-139913424D01*
X140440000Y-139913424D01*
X140440000Y-140086575D01*
X140467084Y-140257579D01*
X140520588Y-140422248D01*
X140599195Y-140576524D01*
X140599197Y-140576528D01*
X140663219Y-140664646D01*
X141096328Y-140231536D01*
X141139901Y-140307007D01*
X141232993Y-140400099D01*
X141308460Y-140443670D01*
X140875352Y-140876778D01*
X140963477Y-140940805D01*
X141117751Y-141019411D01*
X141282420Y-141072915D01*
X141453425Y-141100000D01*
X141626575Y-141100000D01*
X141797579Y-141072915D01*
X141962248Y-141019411D01*
X142116524Y-140940804D01*
X142116530Y-140940800D01*
X142204646Y-140876779D01*
X142204646Y-140876778D01*
X141771538Y-140443670D01*
X141847007Y-140400099D01*
X141940099Y-140307007D01*
X141983670Y-140231538D01*
X142416778Y-140664646D01*
X142416779Y-140664646D01*
X142480800Y-140576530D01*
X142480804Y-140576524D01*
X142559411Y-140422248D01*
X142612915Y-140257579D01*
X142640000Y-140086575D01*
X142640000Y-139913424D01*
X142612915Y-139742420D01*
X142559411Y-139577751D01*
X142480805Y-139423477D01*
X142416778Y-139335352D01*
X141983670Y-139768460D01*
X141940099Y-139692993D01*
X141847007Y-139599901D01*
X141771536Y-139556328D01*
X142204646Y-139123219D01*
X142116528Y-139059197D01*
X142116524Y-139059195D01*
X141962248Y-138980588D01*
X141797579Y-138927084D01*
X141626575Y-138900000D01*
X141453425Y-138900000D01*
X141282420Y-138927084D01*
X141117751Y-138980588D01*
X140963476Y-139059195D01*
X140875352Y-139123219D01*
X141308461Y-139556328D01*
X141232993Y-139599901D01*
X141139901Y-139692993D01*
X141096328Y-139768461D01*
X140663219Y-139335352D01*
X140599195Y-139423476D01*
X140520588Y-139577751D01*
X140467084Y-139742420D01*
X140440000Y-139913424D01*
X140050500Y-139913424D01*
X140050500Y-139130252D01*
X140038867Y-139071769D01*
X139994552Y-139005448D01*
X139957347Y-138980588D01*
X139928233Y-138961134D01*
X139928231Y-138961133D01*
X139928228Y-138961132D01*
X139928227Y-138961132D01*
X139869758Y-138949501D01*
X139869748Y-138949500D01*
X138130252Y-138949500D01*
X138130251Y-138949500D01*
X138130241Y-138949501D01*
X138071772Y-138961132D01*
X138071766Y-138961134D01*
X138005451Y-139005445D01*
X138005445Y-139005451D01*
X137961134Y-139071766D01*
X137961132Y-139071772D01*
X137949501Y-139130241D01*
X137949500Y-139130253D01*
X129680666Y-139130253D01*
X129643799Y-139120375D01*
X129565892Y-139099500D01*
X129434108Y-139099500D01*
X129356200Y-139120375D01*
X129306809Y-139133609D01*
X129192690Y-139199496D01*
X129099496Y-139292690D01*
X129033609Y-139406809D01*
X129033608Y-139406814D01*
X128999500Y-139534108D01*
X100500500Y-139534108D01*
X100500500Y-137334108D01*
X111799500Y-137334108D01*
X111799500Y-137465892D01*
X111822486Y-137551679D01*
X111833609Y-137593190D01*
X111899496Y-137707309D01*
X111899498Y-137707311D01*
X111899500Y-137707314D01*
X111970505Y-137778319D01*
X111998281Y-137832834D01*
X111999500Y-137848321D01*
X111999500Y-138339564D01*
X112019978Y-138415988D01*
X112019980Y-138415992D01*
X112049079Y-138466392D01*
X112059540Y-138484511D01*
X112270505Y-138695476D01*
X112298281Y-138749991D01*
X112299500Y-138765478D01*
X112299500Y-138865892D01*
X112321903Y-138949501D01*
X112333609Y-138993190D01*
X112399496Y-139107309D01*
X112399498Y-139107311D01*
X112399500Y-139107314D01*
X112492686Y-139200500D01*
X112492688Y-139200501D01*
X112492690Y-139200503D01*
X112606810Y-139266390D01*
X112606808Y-139266390D01*
X112606812Y-139266391D01*
X112606814Y-139266392D01*
X112734108Y-139300500D01*
X112734110Y-139300500D01*
X112865890Y-139300500D01*
X112865892Y-139300500D01*
X112993186Y-139266392D01*
X112993188Y-139266390D01*
X112993190Y-139266390D01*
X113107309Y-139200503D01*
X113107309Y-139200502D01*
X113107314Y-139200500D01*
X113200500Y-139107314D01*
X113200503Y-139107309D01*
X113266390Y-138993190D01*
X113266390Y-138993188D01*
X113266392Y-138993186D01*
X113300500Y-138865892D01*
X113300500Y-138734108D01*
X113266392Y-138606814D01*
X113266390Y-138606811D01*
X113266390Y-138606809D01*
X113200503Y-138492690D01*
X113200501Y-138492688D01*
X113200500Y-138492686D01*
X113107314Y-138399500D01*
X113107311Y-138399498D01*
X113107309Y-138399496D01*
X112993189Y-138333609D01*
X112993191Y-138333609D01*
X112943799Y-138320375D01*
X112865892Y-138299500D01*
X112765479Y-138299500D01*
X112707288Y-138280593D01*
X112695475Y-138270504D01*
X112629496Y-138204525D01*
X112601719Y-138150008D01*
X112600500Y-138134521D01*
X112600500Y-137848321D01*
X112619407Y-137790130D01*
X112629490Y-137778323D01*
X112700500Y-137707314D01*
X112749939Y-137621683D01*
X112766390Y-137593190D01*
X112766390Y-137593188D01*
X112766392Y-137593186D01*
X112800500Y-137465892D01*
X112800500Y-137334108D01*
X112766392Y-137206814D01*
X112766390Y-137206811D01*
X112766390Y-137206809D01*
X112700503Y-137092690D01*
X112700501Y-137092688D01*
X112700500Y-137092686D01*
X112607314Y-136999500D01*
X112607311Y-136999498D01*
X112607309Y-136999496D01*
X112493189Y-136933609D01*
X112493191Y-136933609D01*
X112443799Y-136920375D01*
X112365892Y-136899500D01*
X112234108Y-136899500D01*
X112156200Y-136920375D01*
X112106809Y-136933609D01*
X111992690Y-136999496D01*
X111899496Y-137092690D01*
X111833609Y-137206809D01*
X111833608Y-137206814D01*
X111799500Y-137334108D01*
X100500500Y-137334108D01*
X100500500Y-132934108D01*
X112499500Y-132934108D01*
X112499500Y-133065892D01*
X112500566Y-133069869D01*
X112533609Y-133193190D01*
X112599496Y-133307309D01*
X112599498Y-133307311D01*
X112599500Y-133307314D01*
X112692686Y-133400500D01*
X112692688Y-133400501D01*
X112692690Y-133400503D01*
X112806810Y-133466390D01*
X112806808Y-133466390D01*
X112806812Y-133466391D01*
X112806814Y-133466392D01*
X112934108Y-133500500D01*
X112934110Y-133500500D01*
X113065890Y-133500500D01*
X113065892Y-133500500D01*
X113193186Y-133466392D01*
X113193188Y-133466390D01*
X113193190Y-133466390D01*
X113307309Y-133400503D01*
X113307309Y-133400502D01*
X113307314Y-133400500D01*
X113378319Y-133329494D01*
X113432834Y-133301719D01*
X113448321Y-133300500D01*
X114751679Y-133300500D01*
X114809870Y-133319407D01*
X114821676Y-133329490D01*
X114892686Y-133400500D01*
X114892688Y-133400501D01*
X114892690Y-133400503D01*
X115006810Y-133466390D01*
X115006808Y-133466390D01*
X115006812Y-133466391D01*
X115006814Y-133466392D01*
X115134108Y-133500500D01*
X115134110Y-133500500D01*
X115265890Y-133500500D01*
X115265892Y-133500500D01*
X115393186Y-133466392D01*
X115393188Y-133466390D01*
X115393190Y-133466390D01*
X115507309Y-133400503D01*
X115507309Y-133400502D01*
X115507314Y-133400500D01*
X115600500Y-133307314D01*
X115659898Y-133204434D01*
X115666390Y-133193190D01*
X115666390Y-133193188D01*
X115666392Y-133193186D01*
X115700500Y-133065892D01*
X115700500Y-132934108D01*
X115666392Y-132806814D01*
X115666390Y-132806811D01*
X115666390Y-132806809D01*
X115600503Y-132692690D01*
X115600501Y-132692688D01*
X115600500Y-132692686D01*
X115507314Y-132599500D01*
X115507311Y-132599498D01*
X115507309Y-132599496D01*
X115393189Y-132533609D01*
X115393191Y-132533609D01*
X115340183Y-132519406D01*
X115265892Y-132499500D01*
X115134108Y-132499500D01*
X115059817Y-132519406D01*
X115006809Y-132533609D01*
X114892690Y-132599496D01*
X114892689Y-132599497D01*
X114892686Y-132599499D01*
X114892686Y-132599500D01*
X114821680Y-132670505D01*
X114767166Y-132698281D01*
X114751679Y-132699500D01*
X113448321Y-132699500D01*
X113390130Y-132680593D01*
X113378323Y-132670509D01*
X113307314Y-132599500D01*
X113307311Y-132599498D01*
X113307309Y-132599496D01*
X113193189Y-132533609D01*
X113193191Y-132533609D01*
X113140183Y-132519406D01*
X113065892Y-132499500D01*
X112934108Y-132499500D01*
X112859817Y-132519406D01*
X112806809Y-132533609D01*
X112692690Y-132599496D01*
X112599496Y-132692690D01*
X112533609Y-132806809D01*
X112525452Y-132837253D01*
X112499500Y-132934108D01*
X100500500Y-132934108D01*
X100500500Y-129234108D01*
X122799500Y-129234108D01*
X122799500Y-129365892D01*
X122824833Y-129460438D01*
X122833609Y-129493190D01*
X122899496Y-129607309D01*
X122899498Y-129607311D01*
X122899500Y-129607314D01*
X122992686Y-129700500D01*
X122992688Y-129700501D01*
X122992690Y-129700503D01*
X123106810Y-129766390D01*
X123106808Y-129766390D01*
X123106812Y-129766391D01*
X123106814Y-129766392D01*
X123234108Y-129800500D01*
X123234110Y-129800500D01*
X123365890Y-129800500D01*
X123365892Y-129800500D01*
X123493186Y-129766392D01*
X123493188Y-129766390D01*
X123493190Y-129766390D01*
X123607309Y-129700503D01*
X123607309Y-129700502D01*
X123607314Y-129700500D01*
X123678319Y-129629494D01*
X123732834Y-129601719D01*
X123748321Y-129600500D01*
X124339563Y-129600500D01*
X124339563Y-129600499D01*
X124415989Y-129580021D01*
X124484511Y-129540460D01*
X124540460Y-129484511D01*
X124595473Y-129429496D01*
X124649989Y-129401719D01*
X124665477Y-129400500D01*
X124734521Y-129400500D01*
X124792712Y-129419407D01*
X124804525Y-129429496D01*
X125375219Y-130000190D01*
X125400841Y-130044570D01*
X125417653Y-130107309D01*
X125419979Y-130115989D01*
X125441975Y-130154087D01*
X125459540Y-130184511D01*
X125480524Y-130205495D01*
X125484975Y-130211548D01*
X125489279Y-130224544D01*
X125500841Y-130244569D01*
X125519978Y-130315986D01*
X125519979Y-130315989D01*
X125548552Y-130365479D01*
X125556948Y-130380021D01*
X125559540Y-130384510D01*
X126670505Y-131495475D01*
X126698281Y-131549990D01*
X126699500Y-131565477D01*
X126699500Y-133939564D01*
X126709406Y-133976532D01*
X126719979Y-134015989D01*
X126730440Y-134034108D01*
X126759540Y-134084511D01*
X127559540Y-134884511D01*
X127559539Y-134884511D01*
X127615489Y-134940460D01*
X127684007Y-134980019D01*
X127684008Y-134980019D01*
X127684011Y-134980021D01*
X127755431Y-134999158D01*
X127799807Y-135024778D01*
X127815489Y-135040460D01*
X127815491Y-135040461D01*
X127884007Y-135080019D01*
X127884011Y-135080021D01*
X127960435Y-135100499D01*
X127960437Y-135100500D01*
X127960438Y-135100500D01*
X128039562Y-135100500D01*
X129134522Y-135100500D01*
X129192713Y-135119407D01*
X129204519Y-135129490D01*
X129215489Y-135140460D01*
X129215491Y-135140461D01*
X129284007Y-135180019D01*
X129284008Y-135180019D01*
X129284011Y-135180021D01*
X129355431Y-135199158D01*
X129399807Y-135224778D01*
X129415489Y-135240460D01*
X129415491Y-135240461D01*
X129484007Y-135280019D01*
X129484011Y-135280021D01*
X129560435Y-135300499D01*
X129560437Y-135300500D01*
X129560438Y-135300500D01*
X130839563Y-135300500D01*
X130839563Y-135300499D01*
X130915989Y-135280021D01*
X130984511Y-135240460D01*
X131000190Y-135224780D01*
X131044566Y-135199159D01*
X131115989Y-135180021D01*
X131115992Y-135180019D01*
X131115993Y-135180019D01*
X131136347Y-135168267D01*
X131184511Y-135140460D01*
X131240460Y-135084511D01*
X131240460Y-135084510D01*
X131690862Y-134634108D01*
X150399500Y-134634108D01*
X150399500Y-134765892D01*
X150429579Y-134878151D01*
X150433609Y-134893190D01*
X150499496Y-135007309D01*
X150499498Y-135007311D01*
X150499500Y-135007314D01*
X150570505Y-135078319D01*
X150598281Y-135132834D01*
X150599500Y-135148321D01*
X150599500Y-137551679D01*
X150580593Y-137609870D01*
X150570509Y-137621676D01*
X150499500Y-137692686D01*
X150499497Y-137692689D01*
X150499496Y-137692690D01*
X150433609Y-137806809D01*
X150433608Y-137806814D01*
X150399500Y-137934108D01*
X150399500Y-138065892D01*
X150417889Y-138134521D01*
X150433609Y-138193190D01*
X150499496Y-138307309D01*
X150499498Y-138307311D01*
X150499500Y-138307314D01*
X150592686Y-138400500D01*
X150592688Y-138400501D01*
X150592690Y-138400503D01*
X150706810Y-138466390D01*
X150706808Y-138466390D01*
X150706812Y-138466391D01*
X150706814Y-138466392D01*
X150834108Y-138500500D01*
X150834110Y-138500500D01*
X150965890Y-138500500D01*
X150965892Y-138500500D01*
X151093186Y-138466392D01*
X151093188Y-138466390D01*
X151093190Y-138466390D01*
X151207309Y-138400503D01*
X151207309Y-138400502D01*
X151207314Y-138400500D01*
X151300500Y-138307314D01*
X151303836Y-138301536D01*
X151366390Y-138193190D01*
X151366390Y-138193188D01*
X151366392Y-138193186D01*
X151400500Y-138065892D01*
X151400500Y-137934108D01*
X151366392Y-137806814D01*
X151366390Y-137806811D01*
X151366390Y-137806809D01*
X151300503Y-137692690D01*
X151300501Y-137692688D01*
X151300500Y-137692686D01*
X151229494Y-137621680D01*
X151201719Y-137567166D01*
X151200500Y-137551679D01*
X151200500Y-135148321D01*
X151219407Y-135090130D01*
X151229490Y-135078323D01*
X151300500Y-135007314D01*
X151304434Y-135000500D01*
X151366390Y-134893190D01*
X151366390Y-134893188D01*
X151366392Y-134893186D01*
X151400500Y-134765892D01*
X151400500Y-134634108D01*
X151366392Y-134506814D01*
X151366390Y-134506811D01*
X151366390Y-134506809D01*
X151300503Y-134392690D01*
X151300501Y-134392688D01*
X151300500Y-134392686D01*
X151207314Y-134299500D01*
X151207311Y-134299498D01*
X151207309Y-134299496D01*
X151093189Y-134233609D01*
X151093191Y-134233609D01*
X151043799Y-134220375D01*
X150965892Y-134199500D01*
X150834108Y-134199500D01*
X150756200Y-134220375D01*
X150706809Y-134233609D01*
X150592690Y-134299496D01*
X150499496Y-134392690D01*
X150433609Y-134506809D01*
X150433608Y-134506814D01*
X150399500Y-134634108D01*
X131690862Y-134634108D01*
X132348437Y-133976532D01*
X154949500Y-133976532D01*
X154949500Y-134183467D01*
X154989869Y-134386418D01*
X155069058Y-134577597D01*
X155106818Y-134634109D01*
X155184023Y-134749655D01*
X155330345Y-134895977D01*
X155502402Y-135010941D01*
X155693580Y-135090130D01*
X155896535Y-135130500D01*
X155896536Y-135130500D01*
X156103464Y-135130500D01*
X156103465Y-135130500D01*
X156306420Y-135090130D01*
X156497598Y-135010941D01*
X156669655Y-134895977D01*
X156815977Y-134749655D01*
X156930941Y-134577598D01*
X157010130Y-134386420D01*
X157050500Y-134183465D01*
X157050500Y-133976535D01*
X157010130Y-133773580D01*
X156930941Y-133582402D01*
X156815977Y-133410345D01*
X156669655Y-133264023D01*
X156669651Y-133264020D01*
X156497597Y-133149058D01*
X156306418Y-133069869D01*
X156103467Y-133029500D01*
X156103465Y-133029500D01*
X155896535Y-133029500D01*
X155896532Y-133029500D01*
X155693581Y-133069869D01*
X155502402Y-133149058D01*
X155330348Y-133264020D01*
X155184020Y-133410348D01*
X155069058Y-133582402D01*
X154989869Y-133773581D01*
X154949500Y-133976532D01*
X132348437Y-133976532D01*
X133795474Y-132529494D01*
X133849991Y-132501718D01*
X133865478Y-132500499D01*
X134751679Y-132500499D01*
X134809870Y-132519406D01*
X134821676Y-132529489D01*
X134892686Y-132600499D01*
X134892688Y-132600500D01*
X134892690Y-132600502D01*
X135006810Y-132666389D01*
X135006808Y-132666389D01*
X135006812Y-132666390D01*
X135006814Y-132666391D01*
X135134108Y-132700499D01*
X135134110Y-132700499D01*
X135265890Y-132700499D01*
X135265892Y-132700499D01*
X135393186Y-132666391D01*
X135393188Y-132666389D01*
X135393190Y-132666389D01*
X135507309Y-132600502D01*
X135507309Y-132600501D01*
X135507314Y-132600499D01*
X135600500Y-132507313D01*
X135666392Y-132393185D01*
X135700500Y-132265891D01*
X135700500Y-132134107D01*
X135666392Y-132006813D01*
X135666390Y-132006810D01*
X135666390Y-132006808D01*
X135600503Y-131892689D01*
X135600501Y-131892687D01*
X135600500Y-131892685D01*
X135507314Y-131799499D01*
X135507311Y-131799497D01*
X135507309Y-131799495D01*
X135393189Y-131733608D01*
X135393191Y-131733608D01*
X135343799Y-131720374D01*
X135265892Y-131699499D01*
X135134108Y-131699499D01*
X135056200Y-131720374D01*
X135006809Y-131733608D01*
X134892690Y-131799495D01*
X134892689Y-131799496D01*
X134892686Y-131799498D01*
X134892686Y-131799499D01*
X134821680Y-131870504D01*
X134767166Y-131898280D01*
X134751679Y-131899499D01*
X133739561Y-131899499D01*
X133660437Y-131899499D01*
X133613660Y-131912032D01*
X133584006Y-131919978D01*
X133515492Y-131959535D01*
X133515491Y-131959536D01*
X133515488Y-131959538D01*
X133515488Y-131959539D01*
X132763837Y-132711191D01*
X132169503Y-133305525D01*
X132114986Y-133333302D01*
X132054554Y-133323731D01*
X132011289Y-133280466D01*
X132000499Y-133235521D01*
X132000499Y-131453424D01*
X154900000Y-131453424D01*
X154900000Y-131626575D01*
X154927084Y-131797579D01*
X154980588Y-131962248D01*
X155059195Y-132116524D01*
X155059197Y-132116528D01*
X155123219Y-132204646D01*
X155556328Y-131771536D01*
X155599901Y-131847007D01*
X155692993Y-131940099D01*
X155768460Y-131983670D01*
X155335352Y-132416778D01*
X155423477Y-132480805D01*
X155577751Y-132559411D01*
X155742420Y-132612915D01*
X155913425Y-132640000D01*
X156086575Y-132640000D01*
X156257579Y-132612915D01*
X156422248Y-132559411D01*
X156576524Y-132480804D01*
X156576530Y-132480800D01*
X156664646Y-132416779D01*
X156664646Y-132416778D01*
X156231538Y-131983670D01*
X156307007Y-131940099D01*
X156400099Y-131847007D01*
X156443670Y-131771538D01*
X156876778Y-132204646D01*
X156876779Y-132204646D01*
X156940800Y-132116530D01*
X156940804Y-132116524D01*
X157019411Y-131962248D01*
X157072915Y-131797579D01*
X157100000Y-131626575D01*
X157100000Y-131453424D01*
X157072915Y-131282420D01*
X157019411Y-131117751D01*
X156940805Y-130963477D01*
X156876778Y-130875352D01*
X156443670Y-131308460D01*
X156400099Y-131232993D01*
X156307007Y-131139901D01*
X156231536Y-131096328D01*
X156664646Y-130663219D01*
X156576528Y-130599197D01*
X156576524Y-130599195D01*
X156422248Y-130520588D01*
X156257579Y-130467084D01*
X156086575Y-130440000D01*
X155913425Y-130440000D01*
X155742420Y-130467084D01*
X155577751Y-130520588D01*
X155423476Y-130599195D01*
X155335352Y-130663219D01*
X155768461Y-131096328D01*
X155692993Y-131139901D01*
X155599901Y-131232993D01*
X155556328Y-131308461D01*
X155123219Y-130875352D01*
X155059195Y-130963476D01*
X154980588Y-131117751D01*
X154927084Y-131282420D01*
X154900000Y-131453424D01*
X132000499Y-131453424D01*
X132000499Y-129665477D01*
X132019406Y-129607286D01*
X132029484Y-129595485D01*
X132095474Y-129529494D01*
X132149989Y-129501719D01*
X132165476Y-129500500D01*
X132265889Y-129500500D01*
X132265891Y-129500500D01*
X132393185Y-129466392D01*
X132393187Y-129466390D01*
X132393189Y-129466390D01*
X132507308Y-129400503D01*
X132507308Y-129400502D01*
X132507313Y-129400500D01*
X132600499Y-129307314D01*
X132600502Y-129307309D01*
X132666389Y-129193190D01*
X132666389Y-129193188D01*
X132666391Y-129193186D01*
X132700499Y-129065892D01*
X132700499Y-128934108D01*
X132666391Y-128806814D01*
X132666389Y-128806811D01*
X132666389Y-128806809D01*
X132600502Y-128692690D01*
X132600500Y-128692688D01*
X132600499Y-128692686D01*
X132547696Y-128639883D01*
X132519921Y-128585369D01*
X132518787Y-128565785D01*
X132781522Y-122238273D01*
X132802827Y-122180920D01*
X132806468Y-122176584D01*
X132808384Y-122174429D01*
X132900500Y-122082314D01*
X132919314Y-122049726D01*
X132926031Y-122042176D01*
X132944137Y-122031575D01*
X132959733Y-122017534D01*
X132969959Y-122016459D01*
X132978834Y-122011264D01*
X132999714Y-122013331D01*
X133020583Y-122011138D01*
X133029488Y-122016279D01*
X133039721Y-122017293D01*
X133055399Y-122031239D01*
X133073571Y-122041731D01*
X133085225Y-122057770D01*
X133085437Y-122057959D01*
X133085469Y-122058106D01*
X133085734Y-122058471D01*
X133099500Y-122082314D01*
X133192686Y-122175500D01*
X133192688Y-122175501D01*
X133192690Y-122175503D01*
X133306810Y-122241390D01*
X133306808Y-122241390D01*
X133306812Y-122241391D01*
X133306814Y-122241392D01*
X133434108Y-122275500D01*
X133434110Y-122275500D01*
X133565890Y-122275500D01*
X133565892Y-122275500D01*
X133693186Y-122241392D01*
X133693188Y-122241390D01*
X133693190Y-122241390D01*
X133807309Y-122175503D01*
X133807309Y-122175502D01*
X133807314Y-122175500D01*
X133878319Y-122104494D01*
X133932834Y-122076719D01*
X133948321Y-122075500D01*
X137100500Y-122075500D01*
X137158691Y-122094407D01*
X137194655Y-122143907D01*
X137199500Y-122174500D01*
X137199500Y-122251679D01*
X137180593Y-122309870D01*
X137170509Y-122321676D01*
X137099500Y-122392686D01*
X137099497Y-122392689D01*
X137099496Y-122392690D01*
X137033609Y-122506809D01*
X137033608Y-122506814D01*
X136999500Y-122634108D01*
X136999500Y-122765892D01*
X137026824Y-122867866D01*
X137033609Y-122893190D01*
X137099496Y-123007309D01*
X137099498Y-123007311D01*
X137099500Y-123007314D01*
X137192686Y-123100500D01*
X137192688Y-123100501D01*
X137192690Y-123100503D01*
X137306810Y-123166390D01*
X137306808Y-123166390D01*
X137306812Y-123166391D01*
X137306814Y-123166392D01*
X137434108Y-123200500D01*
X137434110Y-123200500D01*
X137565890Y-123200500D01*
X137565892Y-123200500D01*
X137693186Y-123166392D01*
X137751000Y-123133012D01*
X137810847Y-123120291D01*
X137866743Y-123145177D01*
X137897336Y-123198165D01*
X137899500Y-123218749D01*
X137899500Y-124239564D01*
X137919978Y-124315988D01*
X137919980Y-124315992D01*
X137959539Y-124384510D01*
X138059539Y-124484511D01*
X138115489Y-124540460D01*
X138184007Y-124580019D01*
X138184011Y-124580021D01*
X138260435Y-124600499D01*
X138260437Y-124600500D01*
X138260438Y-124600500D01*
X138339562Y-124600500D01*
X141751679Y-124600500D01*
X141809870Y-124619407D01*
X141821676Y-124629490D01*
X141822684Y-124630498D01*
X141850460Y-124685013D01*
X141840889Y-124745445D01*
X141797624Y-124788710D01*
X141752679Y-124799500D01*
X136348321Y-124799500D01*
X136290130Y-124780593D01*
X136278323Y-124770509D01*
X136207314Y-124699500D01*
X136207311Y-124699498D01*
X136207309Y-124699496D01*
X136093189Y-124633609D01*
X136093191Y-124633609D01*
X136040187Y-124619407D01*
X135965892Y-124599500D01*
X135834108Y-124599500D01*
X135759813Y-124619407D01*
X135706809Y-124633609D01*
X135592690Y-124699496D01*
X135499496Y-124792690D01*
X135433609Y-124906809D01*
X135433608Y-124906814D01*
X135399500Y-125034108D01*
X135399500Y-125165892D01*
X135429579Y-125278151D01*
X135433609Y-125293190D01*
X135499496Y-125407309D01*
X135499498Y-125407311D01*
X135499500Y-125407314D01*
X135592686Y-125500500D01*
X135592688Y-125500501D01*
X135592690Y-125500503D01*
X135706810Y-125566390D01*
X135706808Y-125566390D01*
X135706812Y-125566391D01*
X135706814Y-125566392D01*
X135834108Y-125600500D01*
X135834110Y-125600500D01*
X135965890Y-125600500D01*
X135965892Y-125600500D01*
X136093186Y-125566392D01*
X136093188Y-125566390D01*
X136093190Y-125566390D01*
X136207309Y-125500503D01*
X136207309Y-125500502D01*
X136207314Y-125500500D01*
X136278319Y-125429494D01*
X136332834Y-125401719D01*
X136348321Y-125400500D01*
X142452679Y-125400500D01*
X142510870Y-125419407D01*
X142546834Y-125468907D01*
X142546834Y-125530093D01*
X142522684Y-125569501D01*
X142499500Y-125592686D01*
X142499497Y-125592689D01*
X142499496Y-125592690D01*
X142433609Y-125706809D01*
X142399500Y-125834109D01*
X142399500Y-125934520D01*
X142380593Y-125992711D01*
X142370504Y-126004524D01*
X140902989Y-127472040D01*
X140902988Y-127472039D01*
X140847039Y-127527989D01*
X140807480Y-127596507D01*
X140807478Y-127596511D01*
X140787000Y-127672935D01*
X140787000Y-128075679D01*
X140768093Y-128133870D01*
X140758009Y-128145676D01*
X140708294Y-128195392D01*
X140686997Y-128216689D01*
X140686996Y-128216690D01*
X140621109Y-128330809D01*
X140621108Y-128330814D01*
X140587000Y-128458108D01*
X140587000Y-128589892D01*
X140600396Y-128639886D01*
X140621109Y-128717190D01*
X140686996Y-128831309D01*
X140686998Y-128831311D01*
X140687000Y-128831314D01*
X140780186Y-128924500D01*
X140780188Y-128924501D01*
X140780190Y-128924503D01*
X140894310Y-128990390D01*
X140894308Y-128990390D01*
X140894312Y-128990391D01*
X140894314Y-128990392D01*
X141021608Y-129024500D01*
X141021610Y-129024500D01*
X141153390Y-129024500D01*
X141153392Y-129024500D01*
X141280686Y-128990392D01*
X141280688Y-128990390D01*
X141280690Y-128990390D01*
X141394809Y-128924503D01*
X141394809Y-128924502D01*
X141394814Y-128924500D01*
X141488000Y-128831314D01*
X141506368Y-128799500D01*
X141553890Y-128717190D01*
X141553890Y-128717188D01*
X141553892Y-128717186D01*
X141588000Y-128589892D01*
X141588000Y-128458108D01*
X141553892Y-128330814D01*
X141553890Y-128330811D01*
X141553890Y-128330809D01*
X141488003Y-128216690D01*
X141488001Y-128216688D01*
X141488000Y-128216686D01*
X141416994Y-128145680D01*
X141389219Y-128091166D01*
X141388000Y-128075679D01*
X141388000Y-127877978D01*
X141406907Y-127819787D01*
X141416990Y-127807980D01*
X142795474Y-126429495D01*
X142849991Y-126401719D01*
X142865478Y-126400500D01*
X142965890Y-126400500D01*
X142965892Y-126400500D01*
X143093186Y-126366392D01*
X143105453Y-126359309D01*
X143165298Y-126346587D01*
X143221195Y-126371471D01*
X143251790Y-126424458D01*
X143245397Y-126485308D01*
X143240692Y-126494543D01*
X143233609Y-126506811D01*
X143233608Y-126506813D01*
X143233608Y-126506814D01*
X143199500Y-126634108D01*
X143199500Y-126765892D01*
X143199634Y-126766392D01*
X143229007Y-126876017D01*
X143225804Y-126937118D01*
X143203384Y-126971642D01*
X142727989Y-127447039D01*
X142672039Y-127502989D01*
X142632480Y-127571507D01*
X142632478Y-127571511D01*
X142612000Y-127647935D01*
X142612000Y-128075679D01*
X142593093Y-128133870D01*
X142583009Y-128145676D01*
X142533294Y-128195392D01*
X142511997Y-128216689D01*
X142511996Y-128216690D01*
X142446109Y-128330809D01*
X142446108Y-128330814D01*
X142412000Y-128458108D01*
X142412000Y-128589892D01*
X142425396Y-128639886D01*
X142446109Y-128717190D01*
X142511996Y-128831309D01*
X142511998Y-128831311D01*
X142512000Y-128831314D01*
X142605186Y-128924500D01*
X142605188Y-128924501D01*
X142605190Y-128924503D01*
X142719310Y-128990390D01*
X142719308Y-128990390D01*
X142719312Y-128990391D01*
X142719314Y-128990392D01*
X142846608Y-129024500D01*
X142846610Y-129024500D01*
X142978390Y-129024500D01*
X142978392Y-129024500D01*
X143105686Y-128990392D01*
X143105688Y-128990390D01*
X143105690Y-128990390D01*
X143219809Y-128924503D01*
X143219809Y-128924502D01*
X143219814Y-128924500D01*
X143313000Y-128831314D01*
X143331368Y-128799500D01*
X143378890Y-128717190D01*
X143378890Y-128717188D01*
X143378892Y-128717186D01*
X143413000Y-128589892D01*
X143413000Y-128458108D01*
X143378892Y-128330814D01*
X143378890Y-128330811D01*
X143378890Y-128330809D01*
X143313003Y-128216690D01*
X143313001Y-128216688D01*
X143313000Y-128216686D01*
X143241994Y-128145680D01*
X143214219Y-128091166D01*
X143213000Y-128075679D01*
X143213000Y-127852978D01*
X143231907Y-127794787D01*
X143241990Y-127782980D01*
X143827156Y-127197813D01*
X143871536Y-127172192D01*
X143893186Y-127166392D01*
X144007314Y-127100500D01*
X144100500Y-127007314D01*
X144120298Y-126973021D01*
X144165765Y-126932082D01*
X144226615Y-126925685D01*
X144255534Y-126936786D01*
X144306810Y-126966390D01*
X144306808Y-126966390D01*
X144306812Y-126966391D01*
X144306814Y-126966392D01*
X144434108Y-127000500D01*
X144434110Y-127000500D01*
X144565890Y-127000500D01*
X144565892Y-127000500D01*
X144693186Y-126966392D01*
X144693188Y-126966390D01*
X144693190Y-126966390D01*
X144807309Y-126900503D01*
X144807309Y-126900502D01*
X144807314Y-126900500D01*
X144900500Y-126807314D01*
X144966392Y-126693186D01*
X144966394Y-126693178D01*
X144968801Y-126687368D01*
X145008535Y-126640839D01*
X145068028Y-126626552D01*
X145124558Y-126649962D01*
X145130272Y-126655243D01*
X148770504Y-130295475D01*
X148798281Y-130349992D01*
X148799500Y-130365479D01*
X148799500Y-130465892D01*
X148810465Y-130506813D01*
X148833609Y-130593190D01*
X148899496Y-130707309D01*
X148899498Y-130707311D01*
X148899500Y-130707314D01*
X148992686Y-130800500D01*
X148992688Y-130800501D01*
X148992690Y-130800503D01*
X149106810Y-130866390D01*
X149106808Y-130866390D01*
X149106812Y-130866391D01*
X149106814Y-130866392D01*
X149234108Y-130900500D01*
X149234110Y-130900500D01*
X149365890Y-130900500D01*
X149365892Y-130900500D01*
X149493186Y-130866392D01*
X149493188Y-130866390D01*
X149493190Y-130866390D01*
X149607309Y-130800503D01*
X149607309Y-130800502D01*
X149607314Y-130800500D01*
X149700500Y-130707314D01*
X149766392Y-130593186D01*
X149800500Y-130465892D01*
X149800500Y-130334108D01*
X149766392Y-130206814D01*
X149766390Y-130206811D01*
X149766390Y-130206809D01*
X149700503Y-130092690D01*
X149700501Y-130092688D01*
X149700500Y-130092686D01*
X149607314Y-129999500D01*
X149607311Y-129999498D01*
X149607309Y-129999496D01*
X149493189Y-129933609D01*
X149493191Y-129933609D01*
X149443799Y-129920375D01*
X149365892Y-129899500D01*
X149265479Y-129899500D01*
X149207288Y-129880593D01*
X149195475Y-129870504D01*
X147520363Y-128195392D01*
X147455224Y-128130253D01*
X154949500Y-128130253D01*
X154949500Y-129869746D01*
X154949501Y-129869758D01*
X154961132Y-129928227D01*
X154961134Y-129928233D01*
X155004535Y-129993186D01*
X155005448Y-129994552D01*
X155071769Y-130038867D01*
X155116231Y-130047711D01*
X155130241Y-130050498D01*
X155130246Y-130050498D01*
X155130252Y-130050500D01*
X155130253Y-130050500D01*
X156869747Y-130050500D01*
X156869748Y-130050500D01*
X156928231Y-130038867D01*
X156994552Y-129994552D01*
X157038867Y-129928231D01*
X157050500Y-129869748D01*
X157050500Y-128130252D01*
X157038867Y-128071769D01*
X156994552Y-128005448D01*
X156994548Y-128005445D01*
X156928233Y-127961134D01*
X156928231Y-127961133D01*
X156928228Y-127961132D01*
X156928227Y-127961132D01*
X156869758Y-127949501D01*
X156869748Y-127949500D01*
X155130252Y-127949500D01*
X155130251Y-127949500D01*
X155130241Y-127949501D01*
X155071772Y-127961132D01*
X155071766Y-127961134D01*
X155005451Y-128005445D01*
X155005445Y-128005451D01*
X154961134Y-128071766D01*
X154961132Y-128071772D01*
X154949501Y-128130241D01*
X154949500Y-128130253D01*
X147455224Y-128130253D01*
X145159079Y-125834108D01*
X142784511Y-123459540D01*
X142784508Y-123459538D01*
X142758414Y-123444472D01*
X142758408Y-123444469D01*
X142751463Y-123440460D01*
X142715989Y-123419979D01*
X142639777Y-123399557D01*
X142635140Y-123397802D01*
X142624446Y-123389223D01*
X142600191Y-123375220D01*
X142584511Y-123359540D01*
X142572706Y-123352725D01*
X142540460Y-123334107D01*
X142540459Y-123334107D01*
X142515988Y-123319978D01*
X142439564Y-123299500D01*
X142439562Y-123299500D01*
X140548321Y-123299500D01*
X140490130Y-123280593D01*
X140478323Y-123270509D01*
X140407314Y-123199500D01*
X140407311Y-123199498D01*
X140407309Y-123199496D01*
X140293189Y-123133609D01*
X140293191Y-123133609D01*
X140243486Y-123120291D01*
X140165892Y-123099500D01*
X140034108Y-123099500D01*
X139956514Y-123120291D01*
X139906809Y-123133609D01*
X139792690Y-123199496D01*
X139699496Y-123292690D01*
X139633609Y-123406809D01*
X139623518Y-123444472D01*
X139599500Y-123534108D01*
X139599500Y-123665892D01*
X139608773Y-123700500D01*
X139633608Y-123793187D01*
X139666987Y-123851000D01*
X139679708Y-123910848D01*
X139654821Y-123966744D01*
X139601833Y-123997337D01*
X139581250Y-123999500D01*
X139232109Y-123999500D01*
X139173918Y-123980593D01*
X139137954Y-123931093D01*
X139137954Y-123869907D01*
X139173918Y-123820407D01*
X139182602Y-123814767D01*
X139207314Y-123800500D01*
X139300500Y-123707314D01*
X139304434Y-123700500D01*
X139366390Y-123593190D01*
X139366390Y-123593188D01*
X139366392Y-123593186D01*
X139400500Y-123465892D01*
X139400500Y-123334108D01*
X139366392Y-123206814D01*
X139366390Y-123206811D01*
X139366390Y-123206809D01*
X139300503Y-123092690D01*
X139300501Y-123092688D01*
X139300500Y-123092686D01*
X139207314Y-122999500D01*
X139207311Y-122999498D01*
X139207309Y-122999496D01*
X139093189Y-122933609D01*
X139093186Y-122933608D01*
X139073875Y-122928433D01*
X139022561Y-122895108D01*
X139000636Y-122837986D01*
X139000500Y-122832807D01*
X139000500Y-122060442D01*
X139000500Y-122060438D01*
X139000271Y-122059585D01*
X139000273Y-122059537D01*
X139000259Y-122059541D01*
X139000259Y-122059540D01*
X138980022Y-121984012D01*
X138977706Y-121980000D01*
X138940463Y-121915493D01*
X138940459Y-121915488D01*
X138829496Y-121804524D01*
X138801719Y-121750008D01*
X138800500Y-121734521D01*
X138800500Y-121260439D01*
X138800500Y-121260438D01*
X138789659Y-121219979D01*
X138789659Y-121219978D01*
X138789659Y-121219977D01*
X138780021Y-121184010D01*
X138780020Y-121184008D01*
X138740463Y-121115493D01*
X138740459Y-121115488D01*
X138329496Y-120704524D01*
X138301719Y-120650008D01*
X138300500Y-120634521D01*
X138300500Y-120260437D01*
X138300499Y-120260435D01*
X138293303Y-120233581D01*
X138280021Y-120184011D01*
X138278419Y-120181237D01*
X138240461Y-120115491D01*
X138240460Y-120115489D01*
X138224778Y-120099807D01*
X138199158Y-120055431D01*
X138180021Y-119984011D01*
X138180019Y-119984008D01*
X138180019Y-119984006D01*
X138140461Y-119915491D01*
X138140460Y-119915489D01*
X138084511Y-119859540D01*
X138084508Y-119859538D01*
X138015992Y-119819980D01*
X138015988Y-119819978D01*
X137944569Y-119800841D01*
X137914243Y-119786889D01*
X137906676Y-119781705D01*
X137884511Y-119759540D01*
X137822993Y-119724023D01*
X137819691Y-119722116D01*
X137819686Y-119722113D01*
X137815989Y-119719979D01*
X137809992Y-119717495D01*
X137811017Y-119715019D01*
X137769211Y-119687857D01*
X137760430Y-119675078D01*
X137740460Y-119640489D01*
X137684511Y-119584540D01*
X137669134Y-119575662D01*
X137615992Y-119544980D01*
X137615988Y-119544978D01*
X137539564Y-119524500D01*
X137539562Y-119524500D01*
X134948321Y-119524500D01*
X134890130Y-119505593D01*
X134878323Y-119495509D01*
X134807314Y-119424500D01*
X134807311Y-119424498D01*
X134807309Y-119424496D01*
X134693189Y-119358609D01*
X134693191Y-119358609D01*
X134643799Y-119345375D01*
X134565892Y-119324500D01*
X134434108Y-119324500D01*
X134356200Y-119345375D01*
X134306809Y-119358609D01*
X134192690Y-119424496D01*
X134099496Y-119517690D01*
X134033609Y-119631809D01*
X134022017Y-119675071D01*
X133999500Y-119759108D01*
X133999500Y-119890892D01*
X134024450Y-119984006D01*
X134033609Y-120018190D01*
X134099496Y-120132309D01*
X134099498Y-120132311D01*
X134099500Y-120132314D01*
X134192686Y-120225500D01*
X134192688Y-120225501D01*
X134192690Y-120225503D01*
X134306810Y-120291390D01*
X134306808Y-120291390D01*
X134306812Y-120291391D01*
X134306814Y-120291392D01*
X134434108Y-120325500D01*
X134434110Y-120325500D01*
X134565890Y-120325500D01*
X134565892Y-120325500D01*
X134684072Y-120293833D01*
X134735121Y-120293783D01*
X134735351Y-120293844D01*
X134759094Y-120300320D01*
X134759729Y-120300322D01*
X134760366Y-120300492D01*
X134760418Y-120300500D01*
X134760438Y-120300500D01*
X134799107Y-120300500D01*
X134799549Y-120300500D01*
X134838216Y-120300674D01*
X134838217Y-120300673D01*
X134842780Y-120300694D01*
X134845853Y-120300500D01*
X137534522Y-120300500D01*
X137592713Y-120319407D01*
X137596905Y-120322627D01*
X137600889Y-120325860D01*
X137615489Y-120340460D01*
X137627240Y-120347244D01*
X137633326Y-120352183D01*
X137640724Y-120363601D01*
X137656678Y-120379554D01*
X137659540Y-120384511D01*
X137670505Y-120395476D01*
X137698281Y-120449991D01*
X137699500Y-120465478D01*
X137699500Y-120713336D01*
X137680593Y-120771527D01*
X137631093Y-120807491D01*
X137574877Y-120808962D01*
X137539562Y-120799500D01*
X137460438Y-120799500D01*
X137460435Y-120799500D01*
X137379729Y-120821126D01*
X137354105Y-120824500D01*
X134948321Y-120824500D01*
X134890130Y-120805593D01*
X134878323Y-120795509D01*
X134807314Y-120724500D01*
X134807311Y-120724498D01*
X134807309Y-120724496D01*
X134693189Y-120658609D01*
X134693191Y-120658609D01*
X134636671Y-120643465D01*
X134565892Y-120624500D01*
X134434108Y-120624500D01*
X134363329Y-120643465D01*
X134306809Y-120658609D01*
X134192690Y-120724496D01*
X134099496Y-120817690D01*
X134033609Y-120931809D01*
X134021902Y-120975500D01*
X133999500Y-121059108D01*
X133999500Y-121190892D01*
X134022117Y-121275301D01*
X134033609Y-121318189D01*
X134038118Y-121325998D01*
X134050841Y-121385846D01*
X134025956Y-121441742D01*
X133972969Y-121472336D01*
X133952383Y-121474500D01*
X133948321Y-121474500D01*
X133890130Y-121455593D01*
X133878323Y-121445509D01*
X133807314Y-121374500D01*
X133807311Y-121374498D01*
X133807309Y-121374496D01*
X133693189Y-121308609D01*
X133693191Y-121308609D01*
X133643799Y-121295375D01*
X133565892Y-121274500D01*
X133434108Y-121274500D01*
X133356200Y-121295375D01*
X133306809Y-121308609D01*
X133192690Y-121374496D01*
X133099498Y-121467688D01*
X133085736Y-121491525D01*
X133040266Y-121532465D01*
X132979416Y-121538860D01*
X132926428Y-121508267D01*
X132914264Y-121491525D01*
X132900501Y-121467688D01*
X132900500Y-121467686D01*
X132807314Y-121374500D01*
X132807311Y-121374498D01*
X132807309Y-121374496D01*
X132693189Y-121308609D01*
X132693191Y-121308609D01*
X132643799Y-121295375D01*
X132565892Y-121274500D01*
X132434108Y-121274500D01*
X132356200Y-121295375D01*
X132306809Y-121308609D01*
X132192690Y-121374496D01*
X132099496Y-121467690D01*
X132033609Y-121581809D01*
X132026776Y-121607310D01*
X131999500Y-121709108D01*
X131999500Y-121840892D01*
X132019488Y-121915488D01*
X132033609Y-121968190D01*
X132099496Y-122082309D01*
X132099498Y-122082311D01*
X132099500Y-122082314D01*
X132152300Y-122135114D01*
X132180076Y-122189629D01*
X132181210Y-122209223D01*
X131918475Y-128536724D01*
X131897170Y-128594080D01*
X131889564Y-128602620D01*
X131799499Y-128692685D01*
X131799495Y-128692690D01*
X131733608Y-128806809D01*
X131726293Y-128834109D01*
X131702074Y-128924500D01*
X131699499Y-128934109D01*
X131699499Y-129034521D01*
X131680592Y-129092712D01*
X131670507Y-129104519D01*
X131515488Y-129259540D01*
X131515487Y-129259539D01*
X131459538Y-129315489D01*
X131419979Y-129384007D01*
X131419977Y-129384011D01*
X131399499Y-129460435D01*
X131399499Y-132352678D01*
X131380592Y-132410869D01*
X131331092Y-132446833D01*
X131269906Y-132446833D01*
X131230497Y-132422683D01*
X131207314Y-132399500D01*
X131207311Y-132399498D01*
X131207309Y-132399496D01*
X131093189Y-132333609D01*
X131093191Y-132333609D01*
X131043799Y-132320375D01*
X130965892Y-132299500D01*
X130834108Y-132299500D01*
X130756200Y-132320375D01*
X130706809Y-132333609D01*
X130592690Y-132399496D01*
X130499496Y-132492690D01*
X130433609Y-132606809D01*
X130399825Y-132732895D01*
X130366501Y-132784210D01*
X130309379Y-132806136D01*
X130278573Y-132802898D01*
X130273874Y-132801639D01*
X130222560Y-132768313D01*
X130200635Y-132711191D01*
X130200500Y-132706013D01*
X130200500Y-123960439D01*
X130200500Y-123960438D01*
X130189659Y-123919979D01*
X130189659Y-123919978D01*
X130189659Y-123919977D01*
X130180021Y-123884010D01*
X130180020Y-123884008D01*
X130140463Y-123815493D01*
X130140462Y-123815492D01*
X130140461Y-123815491D01*
X130140460Y-123815489D01*
X128329496Y-122004525D01*
X128301719Y-121950008D01*
X128300500Y-121934521D01*
X128300500Y-121165478D01*
X128319407Y-121107287D01*
X128322739Y-121102958D01*
X128325925Y-121099045D01*
X128340460Y-121084511D01*
X128343052Y-121080021D01*
X128360386Y-121049996D01*
X128405857Y-121009058D01*
X128446121Y-121000500D01*
X129939563Y-121000500D01*
X129939563Y-121000499D01*
X130015989Y-120980021D01*
X130084511Y-120940460D01*
X130140460Y-120884511D01*
X130140461Y-120884510D01*
X130197193Y-120827776D01*
X130251709Y-120799999D01*
X130266163Y-120798785D01*
X132055293Y-120780148D01*
X132113675Y-120798449D01*
X132126319Y-120809133D01*
X132192686Y-120875500D01*
X132192688Y-120875501D01*
X132192690Y-120875503D01*
X132306810Y-120941390D01*
X132306808Y-120941390D01*
X132306812Y-120941391D01*
X132306814Y-120941392D01*
X132434108Y-120975500D01*
X132434110Y-120975500D01*
X132565890Y-120975500D01*
X132565892Y-120975500D01*
X132693186Y-120941392D01*
X132693188Y-120941390D01*
X132693190Y-120941390D01*
X132807309Y-120875503D01*
X132807309Y-120875502D01*
X132807314Y-120875500D01*
X132900500Y-120782314D01*
X132913132Y-120760435D01*
X132966390Y-120668190D01*
X132966390Y-120668188D01*
X132966392Y-120668186D01*
X133000500Y-120540892D01*
X133000500Y-120409108D01*
X132966392Y-120281814D01*
X132966390Y-120281811D01*
X132966390Y-120281809D01*
X132900503Y-120167690D01*
X132900501Y-120167688D01*
X132900500Y-120167686D01*
X132807314Y-120074500D01*
X132807311Y-120074498D01*
X132807309Y-120074496D01*
X132693189Y-120008609D01*
X132693191Y-120008609D01*
X132643799Y-119995375D01*
X132565892Y-119974500D01*
X132434108Y-119974500D01*
X132356200Y-119995375D01*
X132306809Y-120008609D01*
X132192690Y-120074496D01*
X132192685Y-120074500D01*
X132116986Y-120150199D01*
X132062469Y-120177976D01*
X132048025Y-120179190D01*
X132045935Y-120179212D01*
X131987549Y-120160918D01*
X131951066Y-120111799D01*
X131950422Y-120050617D01*
X131959157Y-120030716D01*
X131966392Y-120018186D01*
X132000500Y-119890892D01*
X132000500Y-119759108D01*
X131966392Y-119631814D01*
X131961882Y-119624002D01*
X131949159Y-119564154D01*
X131974044Y-119508258D01*
X132027031Y-119477664D01*
X132047617Y-119475500D01*
X132051679Y-119475500D01*
X132109870Y-119494407D01*
X132121676Y-119504490D01*
X132192686Y-119575500D01*
X132192688Y-119575501D01*
X132192690Y-119575503D01*
X132306810Y-119641390D01*
X132306808Y-119641390D01*
X132306812Y-119641391D01*
X132306814Y-119641392D01*
X132434108Y-119675500D01*
X132434110Y-119675500D01*
X132565890Y-119675500D01*
X132565892Y-119675500D01*
X132693186Y-119641392D01*
X132693188Y-119641390D01*
X132693190Y-119641390D01*
X132807309Y-119575503D01*
X132807309Y-119575502D01*
X132807314Y-119575500D01*
X132900500Y-119482314D01*
X132928620Y-119433609D01*
X132966390Y-119368190D01*
X132966390Y-119368188D01*
X132966392Y-119368186D01*
X133000500Y-119240892D01*
X133000500Y-119109108D01*
X132966392Y-118981814D01*
X132966390Y-118981811D01*
X132966390Y-118981809D01*
X132900503Y-118867690D01*
X132900501Y-118867688D01*
X132900500Y-118867686D01*
X132807314Y-118774500D01*
X132807311Y-118774498D01*
X132807309Y-118774496D01*
X132693189Y-118708609D01*
X132693191Y-118708609D01*
X132643799Y-118695375D01*
X132565892Y-118674500D01*
X132434108Y-118674500D01*
X132356200Y-118695375D01*
X132306809Y-118708609D01*
X132192690Y-118774496D01*
X132192689Y-118774497D01*
X132192686Y-118774499D01*
X132192686Y-118774500D01*
X132121680Y-118845505D01*
X132067166Y-118873281D01*
X132051679Y-118874500D01*
X128640478Y-118874500D01*
X128582287Y-118855593D01*
X128570479Y-118845509D01*
X128384510Y-118659540D01*
X128379554Y-118656678D01*
X128352184Y-118633326D01*
X128347242Y-118627237D01*
X128340460Y-118615489D01*
X128325868Y-118600897D01*
X128322627Y-118596903D01*
X128313390Y-118572914D01*
X128301718Y-118550005D01*
X128300986Y-118540700D01*
X128300641Y-118539804D01*
X128300853Y-118539009D01*
X128300500Y-118534521D01*
X128300500Y-117265478D01*
X128319407Y-117207287D01*
X128329490Y-117195480D01*
X128340460Y-117184511D01*
X128346986Y-117173207D01*
X128380021Y-117115989D01*
X128399158Y-117044568D01*
X128424778Y-117000192D01*
X128995475Y-116429496D01*
X129049992Y-116401719D01*
X129065479Y-116400500D01*
X131535522Y-116400500D01*
X131593713Y-116419407D01*
X131629677Y-116468907D01*
X131629677Y-116530093D01*
X131605525Y-116569504D01*
X131475296Y-116699732D01*
X131430916Y-116725355D01*
X131306809Y-116758609D01*
X131192690Y-116824496D01*
X131099496Y-116917690D01*
X131033609Y-117031809D01*
X131033608Y-117031814D01*
X130999500Y-117159108D01*
X130999500Y-117290892D01*
X131024585Y-117384511D01*
X131033609Y-117418190D01*
X131099496Y-117532309D01*
X131099498Y-117532311D01*
X131099500Y-117532314D01*
X131192686Y-117625500D01*
X131192688Y-117625501D01*
X131192690Y-117625503D01*
X131306810Y-117691390D01*
X131306808Y-117691390D01*
X131306812Y-117691391D01*
X131306814Y-117691392D01*
X131434108Y-117725500D01*
X131434110Y-117725500D01*
X131565890Y-117725500D01*
X131565892Y-117725500D01*
X131693186Y-117691392D01*
X131693188Y-117691390D01*
X131693190Y-117691390D01*
X131807309Y-117625503D01*
X131807309Y-117625502D01*
X131807314Y-117625500D01*
X131844582Y-117588231D01*
X131899096Y-117560455D01*
X131936426Y-117566367D01*
X131939789Y-117566091D01*
X131941444Y-117567161D01*
X131959528Y-117570026D01*
X131991726Y-117596187D01*
X131996508Y-117602133D01*
X131999500Y-117607314D01*
X132005511Y-117613325D01*
X132008866Y-117617496D01*
X132017926Y-117641333D01*
X132029505Y-117664058D01*
X132029148Y-117670857D01*
X132030605Y-117674689D01*
X132028551Y-117682252D01*
X132027351Y-117705165D01*
X131999500Y-117809108D01*
X131999500Y-117940892D01*
X132029579Y-118053151D01*
X132033609Y-118068190D01*
X132099496Y-118182309D01*
X132099498Y-118182311D01*
X132099500Y-118182314D01*
X132192686Y-118275500D01*
X132192688Y-118275501D01*
X132192690Y-118275503D01*
X132306810Y-118341390D01*
X132306808Y-118341390D01*
X132306812Y-118341391D01*
X132306814Y-118341392D01*
X132434108Y-118375500D01*
X132434110Y-118375500D01*
X132565890Y-118375500D01*
X132565892Y-118375500D01*
X132693186Y-118341392D01*
X132693188Y-118341390D01*
X132693190Y-118341390D01*
X132807309Y-118275503D01*
X132807309Y-118275502D01*
X132807314Y-118275500D01*
X132900500Y-118182314D01*
X132914264Y-118158474D01*
X132959733Y-118117534D01*
X133020583Y-118111138D01*
X133073571Y-118141731D01*
X133085734Y-118158471D01*
X133099500Y-118182314D01*
X133192686Y-118275500D01*
X133192688Y-118275501D01*
X133192690Y-118275503D01*
X133306810Y-118341390D01*
X133306808Y-118341390D01*
X133306812Y-118341391D01*
X133306814Y-118341392D01*
X133434108Y-118375500D01*
X133434110Y-118375500D01*
X133565890Y-118375500D01*
X133565892Y-118375500D01*
X133693186Y-118341392D01*
X133693188Y-118341390D01*
X133693190Y-118341390D01*
X133807309Y-118275503D01*
X133807309Y-118275502D01*
X133807314Y-118275500D01*
X133875659Y-118207154D01*
X133930173Y-118179378D01*
X133946247Y-118178161D01*
X137249590Y-118197823D01*
X137307666Y-118217076D01*
X137318996Y-118226810D01*
X137392686Y-118300500D01*
X137392688Y-118300501D01*
X137392690Y-118300503D01*
X137506810Y-118366390D01*
X137506808Y-118366390D01*
X137506812Y-118366391D01*
X137506814Y-118366392D01*
X137634108Y-118400500D01*
X137634110Y-118400500D01*
X137765890Y-118400500D01*
X137765892Y-118400500D01*
X137893186Y-118366392D01*
X137893188Y-118366390D01*
X137893190Y-118366390D01*
X138007309Y-118300503D01*
X138007309Y-118300502D01*
X138007314Y-118300500D01*
X138100500Y-118207314D01*
X138105980Y-118197823D01*
X138166390Y-118093190D01*
X138166390Y-118093188D01*
X138166392Y-118093186D01*
X138200500Y-117965892D01*
X138200500Y-117834108D01*
X138166392Y-117706814D01*
X138166390Y-117706811D01*
X138166390Y-117706809D01*
X138100503Y-117592690D01*
X138100501Y-117592688D01*
X138100500Y-117592686D01*
X138007314Y-117499500D01*
X138007311Y-117499498D01*
X138007309Y-117499496D01*
X137893189Y-117433609D01*
X137893191Y-117433609D01*
X137880061Y-117430091D01*
X137860071Y-117424735D01*
X137808759Y-117391412D01*
X137786832Y-117334291D01*
X137790069Y-117303488D01*
X137800500Y-117264562D01*
X137800500Y-117160438D01*
X137800500Y-117018749D01*
X137819407Y-116960558D01*
X137868907Y-116924594D01*
X137930093Y-116924594D01*
X137948996Y-116933011D01*
X138006814Y-116966392D01*
X138134108Y-117000500D01*
X138134110Y-117000500D01*
X138234521Y-117000500D01*
X138292712Y-117019407D01*
X138304525Y-117029496D01*
X142470504Y-121195475D01*
X142498281Y-121249992D01*
X142499500Y-121265479D01*
X142499500Y-121365892D01*
X142504847Y-121385846D01*
X142533609Y-121493190D01*
X142599496Y-121607309D01*
X142599498Y-121607311D01*
X142599500Y-121607314D01*
X142692686Y-121700500D01*
X142692688Y-121700501D01*
X142692690Y-121700503D01*
X142806810Y-121766390D01*
X142806808Y-121766390D01*
X142806812Y-121766391D01*
X142806814Y-121766392D01*
X142934108Y-121800500D01*
X142934110Y-121800500D01*
X143065890Y-121800500D01*
X143065892Y-121800500D01*
X143193186Y-121766392D01*
X143193188Y-121766390D01*
X143193190Y-121766390D01*
X143307309Y-121700503D01*
X143307309Y-121700502D01*
X143307314Y-121700500D01*
X143400500Y-121607314D01*
X143410208Y-121590499D01*
X143466390Y-121493190D01*
X143466390Y-121493188D01*
X143466392Y-121493186D01*
X143500500Y-121365892D01*
X143500500Y-121234108D01*
X143466392Y-121106814D01*
X143466390Y-121106811D01*
X143466390Y-121106809D01*
X143400503Y-120992690D01*
X143400501Y-120992688D01*
X143400500Y-120992686D01*
X143307314Y-120899500D01*
X143307311Y-120899498D01*
X143307309Y-120899496D01*
X143193189Y-120833609D01*
X143193191Y-120833609D01*
X143142321Y-120819979D01*
X143065892Y-120799500D01*
X142965479Y-120799500D01*
X142907288Y-120780593D01*
X142895475Y-120770504D01*
X138729496Y-116604525D01*
X138701719Y-116550008D01*
X138700500Y-116534521D01*
X138700500Y-116434109D01*
X138691821Y-116401719D01*
X138666392Y-116306814D01*
X138666390Y-116306811D01*
X138666390Y-116306809D01*
X138600503Y-116192690D01*
X138600501Y-116192688D01*
X138600500Y-116192686D01*
X138507314Y-116099500D01*
X138507311Y-116099498D01*
X138507309Y-116099496D01*
X138393189Y-116033609D01*
X138393191Y-116033609D01*
X138340187Y-116019407D01*
X138265892Y-115999500D01*
X138134108Y-115999500D01*
X138070461Y-116016554D01*
X138006812Y-116033608D01*
X137949000Y-116066987D01*
X137889152Y-116079708D01*
X137833256Y-116054821D01*
X137802663Y-116001833D01*
X137800500Y-115981250D01*
X137800500Y-115865478D01*
X137819407Y-115807287D01*
X137829490Y-115795480D01*
X138140460Y-115484511D01*
X138147152Y-115472919D01*
X138154879Y-115459538D01*
X138169560Y-115434108D01*
X139299500Y-115434108D01*
X139299500Y-115565892D01*
X139324833Y-115660438D01*
X139333609Y-115693190D01*
X139399496Y-115807309D01*
X139399498Y-115807311D01*
X139399500Y-115807314D01*
X139492686Y-115900500D01*
X139492688Y-115900501D01*
X139492690Y-115900503D01*
X139606810Y-115966390D01*
X139606808Y-115966390D01*
X139606812Y-115966391D01*
X139606814Y-115966392D01*
X139734108Y-116000500D01*
X139734110Y-116000500D01*
X139834521Y-116000500D01*
X139892712Y-116019407D01*
X139904525Y-116029496D01*
X140570504Y-116695475D01*
X140598281Y-116749992D01*
X140599500Y-116765479D01*
X140599500Y-116865892D01*
X140625019Y-116961132D01*
X140633609Y-116993190D01*
X140699496Y-117107309D01*
X140699498Y-117107311D01*
X140699500Y-117107314D01*
X140792686Y-117200500D01*
X140792688Y-117200501D01*
X140792690Y-117200503D01*
X140906810Y-117266390D01*
X140906808Y-117266390D01*
X140906812Y-117266391D01*
X140906814Y-117266392D01*
X141034108Y-117300500D01*
X141034110Y-117300500D01*
X141165890Y-117300500D01*
X141165892Y-117300500D01*
X141293186Y-117266392D01*
X141293188Y-117266390D01*
X141293190Y-117266390D01*
X141407309Y-117200503D01*
X141407309Y-117200502D01*
X141407314Y-117200500D01*
X141500500Y-117107314D01*
X141544093Y-117031809D01*
X141566390Y-116993190D01*
X141566390Y-116993188D01*
X141566392Y-116993186D01*
X141600500Y-116865892D01*
X141600500Y-116734108D01*
X141566392Y-116606814D01*
X141566390Y-116606811D01*
X141566390Y-116606809D01*
X141500503Y-116492690D01*
X141500501Y-116492688D01*
X141500500Y-116492686D01*
X141407314Y-116399500D01*
X141407311Y-116399498D01*
X141407309Y-116399496D01*
X141293189Y-116333609D01*
X141293191Y-116333609D01*
X141242318Y-116319978D01*
X141165892Y-116299500D01*
X141065479Y-116299500D01*
X141007288Y-116280593D01*
X140995475Y-116270504D01*
X140329496Y-115604525D01*
X140301719Y-115550008D01*
X140300500Y-115534521D01*
X140300500Y-115434109D01*
X140300366Y-115433608D01*
X140266392Y-115306814D01*
X140224415Y-115234108D01*
X151899500Y-115234108D01*
X151899500Y-115365892D01*
X151912924Y-115415990D01*
X151933609Y-115493190D01*
X151999496Y-115607309D01*
X151999498Y-115607311D01*
X151999500Y-115607314D01*
X152092686Y-115700500D01*
X152092688Y-115700501D01*
X152092690Y-115700503D01*
X152206810Y-115766390D01*
X152206808Y-115766390D01*
X152206812Y-115766391D01*
X152206814Y-115766392D01*
X152334108Y-115800500D01*
X152334110Y-115800500D01*
X152465890Y-115800500D01*
X152465892Y-115800500D01*
X152593186Y-115766392D01*
X152593188Y-115766390D01*
X152593190Y-115766390D01*
X152707309Y-115700503D01*
X152707309Y-115700502D01*
X152707314Y-115700500D01*
X152800500Y-115607314D01*
X152804434Y-115600500D01*
X152866390Y-115493190D01*
X152866390Y-115493188D01*
X152866392Y-115493186D01*
X152900500Y-115365892D01*
X152900500Y-115234108D01*
X152866392Y-115106814D01*
X152866390Y-115106811D01*
X152866390Y-115106809D01*
X152800503Y-114992690D01*
X152800501Y-114992688D01*
X152800500Y-114992686D01*
X152729494Y-114921680D01*
X152701719Y-114867166D01*
X152700500Y-114851679D01*
X152700500Y-114765479D01*
X152719407Y-114707288D01*
X152729496Y-114695475D01*
X153345475Y-114079496D01*
X153399992Y-114051719D01*
X153415479Y-114050500D01*
X154785520Y-114050500D01*
X154843711Y-114069407D01*
X154879675Y-114118907D01*
X154879675Y-114180093D01*
X154855524Y-114219504D01*
X153915489Y-115159540D01*
X153915488Y-115159539D01*
X153859539Y-115215489D01*
X153819980Y-115284007D01*
X153819978Y-115284011D01*
X153799500Y-115360435D01*
X153799500Y-118042679D01*
X153780593Y-118100870D01*
X153770509Y-118112676D01*
X153724711Y-118158475D01*
X153699497Y-118183689D01*
X153699496Y-118183690D01*
X153633609Y-118297809D01*
X153633608Y-118297814D01*
X153599500Y-118425108D01*
X153599500Y-118556892D01*
X153604494Y-118575529D01*
X153633609Y-118684190D01*
X153699496Y-118798309D01*
X153699498Y-118798311D01*
X153699500Y-118798314D01*
X153792686Y-118891500D01*
X153792688Y-118891501D01*
X153792690Y-118891503D01*
X153906810Y-118957390D01*
X153906808Y-118957390D01*
X153906812Y-118957391D01*
X153906814Y-118957392D01*
X154034108Y-118991500D01*
X154034110Y-118991500D01*
X154165890Y-118991500D01*
X154165892Y-118991500D01*
X154293186Y-118957392D01*
X154293188Y-118957390D01*
X154293190Y-118957390D01*
X154407309Y-118891503D01*
X154407309Y-118891502D01*
X154407314Y-118891500D01*
X154500500Y-118798314D01*
X154514251Y-118774497D01*
X154566390Y-118684190D01*
X154566390Y-118684188D01*
X154566392Y-118684186D01*
X154600500Y-118556892D01*
X154600500Y-118425108D01*
X154566392Y-118297814D01*
X154566390Y-118297811D01*
X154566390Y-118297809D01*
X154500503Y-118183690D01*
X154500501Y-118183688D01*
X154500500Y-118183686D01*
X154429494Y-118112680D01*
X154401719Y-118058166D01*
X154400500Y-118042679D01*
X154400500Y-115565478D01*
X154419407Y-115507287D01*
X154429490Y-115495480D01*
X155961424Y-113963545D01*
X156015939Y-113935770D01*
X156069310Y-113942086D01*
X156233580Y-114010130D01*
X156436535Y-114050500D01*
X156436536Y-114050500D01*
X156643464Y-114050500D01*
X156643465Y-114050500D01*
X156846420Y-114010130D01*
X157037598Y-113930941D01*
X157209655Y-113815977D01*
X157355977Y-113669655D01*
X157470941Y-113497598D01*
X157550130Y-113306420D01*
X157590500Y-113103465D01*
X157590500Y-112896535D01*
X157550130Y-112693580D01*
X157470941Y-112502402D01*
X157355977Y-112330345D01*
X157209655Y-112184023D01*
X157199640Y-112177331D01*
X157037597Y-112069058D01*
X156846418Y-111989869D01*
X156643467Y-111949500D01*
X156643465Y-111949500D01*
X156436535Y-111949500D01*
X156436532Y-111949500D01*
X156233581Y-111989869D01*
X156042402Y-112069058D01*
X155870348Y-112184020D01*
X155724020Y-112330348D01*
X155609058Y-112502402D01*
X155529869Y-112693581D01*
X155489500Y-112896532D01*
X155489500Y-113103467D01*
X155529869Y-113306418D01*
X155574480Y-113414117D01*
X155579281Y-113475114D01*
X155553020Y-113522006D01*
X155219504Y-113855523D01*
X155164987Y-113883301D01*
X155104555Y-113873730D01*
X155061290Y-113830465D01*
X155050500Y-113785520D01*
X155050500Y-112130253D01*
X155050498Y-112130241D01*
X155045641Y-112105826D01*
X155038867Y-112071769D01*
X154994552Y-112005448D01*
X154994548Y-112005445D01*
X154928233Y-111961134D01*
X154928231Y-111961133D01*
X154928228Y-111961132D01*
X154928227Y-111961132D01*
X154869758Y-111949501D01*
X154869748Y-111949500D01*
X153130252Y-111949500D01*
X153130251Y-111949500D01*
X153130241Y-111949501D01*
X153071772Y-111961132D01*
X153071766Y-111961134D01*
X153005451Y-112005445D01*
X153005445Y-112005451D01*
X152961134Y-112071766D01*
X152961132Y-112071772D01*
X152949501Y-112130241D01*
X152949500Y-112130253D01*
X152949500Y-113584521D01*
X152930593Y-113642712D01*
X152920504Y-113654525D01*
X152215489Y-114359540D01*
X152215488Y-114359539D01*
X152159539Y-114415489D01*
X152119980Y-114484007D01*
X152119978Y-114484011D01*
X152099500Y-114560435D01*
X152099500Y-114851679D01*
X152080593Y-114909870D01*
X152070509Y-114921676D01*
X151999500Y-114992686D01*
X151999497Y-114992689D01*
X151999496Y-114992690D01*
X151933609Y-115106809D01*
X151919480Y-115159540D01*
X151899500Y-115234108D01*
X140224415Y-115234108D01*
X140200500Y-115192686D01*
X140107314Y-115099500D01*
X140107311Y-115099498D01*
X140107309Y-115099496D01*
X139993189Y-115033609D01*
X139993191Y-115033609D01*
X139943799Y-115020375D01*
X139865892Y-114999500D01*
X139734108Y-114999500D01*
X139656200Y-115020375D01*
X139606809Y-115033609D01*
X139492690Y-115099496D01*
X139399496Y-115192690D01*
X139333609Y-115306809D01*
X139326870Y-115331961D01*
X139299500Y-115434108D01*
X138169560Y-115434108D01*
X138180020Y-115415990D01*
X138180021Y-115415989D01*
X138200500Y-115339562D01*
X138200500Y-114360438D01*
X138200500Y-114134108D01*
X149199500Y-114134108D01*
X149199500Y-114265892D01*
X149219480Y-114340459D01*
X149233609Y-114393190D01*
X149299496Y-114507309D01*
X149299498Y-114507311D01*
X149299500Y-114507314D01*
X149392686Y-114600500D01*
X149392688Y-114600501D01*
X149392690Y-114600503D01*
X149506810Y-114666390D01*
X149506808Y-114666390D01*
X149506812Y-114666391D01*
X149506814Y-114666392D01*
X149634108Y-114700500D01*
X149634110Y-114700500D01*
X149765890Y-114700500D01*
X149765892Y-114700500D01*
X149893186Y-114666392D01*
X149893188Y-114666390D01*
X149893190Y-114666390D01*
X150007309Y-114600503D01*
X150007309Y-114600502D01*
X150007314Y-114600500D01*
X150100500Y-114507314D01*
X150100503Y-114507309D01*
X150166390Y-114393190D01*
X150166390Y-114393188D01*
X150166392Y-114393186D01*
X150200500Y-114265892D01*
X150200500Y-114134108D01*
X150200500Y-114133438D01*
X150200500Y-113765478D01*
X150219407Y-113707287D01*
X150229490Y-113695480D01*
X150840460Y-113084511D01*
X150866411Y-113039562D01*
X150880021Y-113015989D01*
X150900500Y-112939562D01*
X150900500Y-107087016D01*
X150919407Y-107028825D01*
X150961614Y-106995552D01*
X151117598Y-106930941D01*
X151289655Y-106815977D01*
X151435977Y-106669655D01*
X151550941Y-106497598D01*
X151630130Y-106306420D01*
X151670500Y-106103465D01*
X151670500Y-105896535D01*
X151630130Y-105693580D01*
X151550941Y-105502402D01*
X151435977Y-105330345D01*
X151289655Y-105184023D01*
X151289651Y-105184020D01*
X151117597Y-105069058D01*
X150926418Y-104989869D01*
X150723467Y-104949500D01*
X150723465Y-104949500D01*
X150516535Y-104949500D01*
X150516532Y-104949500D01*
X150313581Y-104989869D01*
X150122402Y-105069058D01*
X149950348Y-105184020D01*
X149804020Y-105330348D01*
X149689058Y-105502402D01*
X149609869Y-105693581D01*
X149569500Y-105896532D01*
X149569500Y-106103467D01*
X149609869Y-106306418D01*
X149689058Y-106497597D01*
X149708433Y-106526594D01*
X149804023Y-106669655D01*
X149950345Y-106815977D01*
X150122402Y-106930941D01*
X150238386Y-106978982D01*
X150284911Y-107018718D01*
X150299500Y-107070446D01*
X150299500Y-112734521D01*
X150280593Y-112792712D01*
X150270504Y-112804525D01*
X149715489Y-113359540D01*
X149715488Y-113359539D01*
X149659539Y-113415489D01*
X149619980Y-113484007D01*
X149619978Y-113484011D01*
X149599500Y-113560435D01*
X149599500Y-113632807D01*
X149580593Y-113690998D01*
X149531093Y-113726962D01*
X149526125Y-113728433D01*
X149506813Y-113733608D01*
X149506810Y-113733609D01*
X149392690Y-113799496D01*
X149299496Y-113892690D01*
X149233609Y-114006809D01*
X149221903Y-114050499D01*
X149199500Y-114134108D01*
X138200500Y-114134108D01*
X138200500Y-111248321D01*
X138219407Y-111190130D01*
X138229490Y-111178323D01*
X138300500Y-111107314D01*
X138305188Y-111099195D01*
X138366390Y-110993190D01*
X138366390Y-110993188D01*
X138366392Y-110993186D01*
X138400500Y-110865892D01*
X138400500Y-110734108D01*
X138366392Y-110606814D01*
X138366390Y-110606811D01*
X138366390Y-110606809D01*
X138300503Y-110492690D01*
X138300501Y-110492688D01*
X138300500Y-110492686D01*
X138207314Y-110399500D01*
X138207311Y-110399498D01*
X138207309Y-110399496D01*
X138093189Y-110333609D01*
X138093191Y-110333609D01*
X138043799Y-110320375D01*
X137965892Y-110299500D01*
X137834108Y-110299500D01*
X137756200Y-110320375D01*
X137706809Y-110333609D01*
X137592690Y-110399496D01*
X137499496Y-110492690D01*
X137433609Y-110606809D01*
X137433608Y-110606814D01*
X137399500Y-110734108D01*
X137399500Y-110865892D01*
X137419357Y-110940000D01*
X137433609Y-110993190D01*
X137499496Y-111107309D01*
X137499498Y-111107311D01*
X137499500Y-111107314D01*
X137570505Y-111178319D01*
X137598281Y-111232834D01*
X137599500Y-111248321D01*
X137599500Y-113181250D01*
X137580593Y-113239441D01*
X137531093Y-113275405D01*
X137469907Y-113275405D01*
X137451000Y-113266987D01*
X137393187Y-113233608D01*
X137342321Y-113219979D01*
X137265892Y-113199500D01*
X137134108Y-113199500D01*
X137057682Y-113219978D01*
X137006809Y-113233609D01*
X136892690Y-113299496D01*
X136892689Y-113299497D01*
X136892686Y-113299499D01*
X136892686Y-113299500D01*
X136821680Y-113370505D01*
X136767166Y-113398281D01*
X136751679Y-113399500D01*
X134064478Y-113399500D01*
X134006287Y-113380593D01*
X133970323Y-113331093D01*
X133970323Y-113269907D01*
X133994474Y-113230496D01*
X134490449Y-112734521D01*
X135007224Y-112217745D01*
X135061739Y-112189970D01*
X135102847Y-112192123D01*
X135134108Y-112200500D01*
X135134109Y-112200500D01*
X135265890Y-112200500D01*
X135265892Y-112200500D01*
X135393186Y-112166392D01*
X135393188Y-112166390D01*
X135393190Y-112166390D01*
X135507309Y-112100503D01*
X135507309Y-112100502D01*
X135507314Y-112100500D01*
X135600500Y-112007314D01*
X135601579Y-112005445D01*
X135666390Y-111893190D01*
X135666390Y-111893188D01*
X135666392Y-111893186D01*
X135700500Y-111765892D01*
X135700500Y-111634108D01*
X135666392Y-111506814D01*
X135666390Y-111506811D01*
X135666390Y-111506809D01*
X135600503Y-111392690D01*
X135600501Y-111392688D01*
X135600500Y-111392686D01*
X135507314Y-111299500D01*
X135507311Y-111299498D01*
X135507309Y-111299496D01*
X135393189Y-111233609D01*
X135393191Y-111233609D01*
X135343799Y-111220375D01*
X135265892Y-111199500D01*
X135134108Y-111199500D01*
X135056200Y-111220375D01*
X135006809Y-111233609D01*
X134892690Y-111299496D01*
X134799496Y-111392690D01*
X134733609Y-111506809D01*
X134699500Y-111634109D01*
X134699500Y-111634520D01*
X134699409Y-111634800D01*
X134698653Y-111640542D01*
X134697588Y-111640401D01*
X134680593Y-111692711D01*
X134670504Y-111704524D01*
X132876504Y-113498524D01*
X132821987Y-113526301D01*
X132761555Y-113516730D01*
X132718290Y-113473465D01*
X132710323Y-113440281D01*
X132708347Y-113440542D01*
X132707500Y-113434110D01*
X132707500Y-113434108D01*
X132673392Y-113306814D01*
X132673390Y-113306811D01*
X132673390Y-113306809D01*
X132607503Y-113192690D01*
X132607501Y-113192688D01*
X132607500Y-113192686D01*
X132514314Y-113099500D01*
X132514311Y-113099498D01*
X132514309Y-113099496D01*
X132400189Y-113033609D01*
X132400191Y-113033609D01*
X132334430Y-113015989D01*
X132272892Y-112999500D01*
X132141108Y-112999500D01*
X132079570Y-113015989D01*
X132013809Y-113033609D01*
X131899690Y-113099496D01*
X131899689Y-113099497D01*
X131899686Y-113099499D01*
X131899686Y-113099500D01*
X131828680Y-113170505D01*
X131774166Y-113198281D01*
X131758679Y-113199500D01*
X128010435Y-113199500D01*
X127934012Y-113219978D01*
X127910405Y-113233608D01*
X127910404Y-113233607D01*
X127865490Y-113259539D01*
X126023024Y-115102004D01*
X125968507Y-115129781D01*
X125953020Y-115131000D01*
X125852608Y-115131000D01*
X125774700Y-115151875D01*
X125725309Y-115165109D01*
X125611190Y-115230996D01*
X125517996Y-115324190D01*
X125452109Y-115438309D01*
X125445159Y-115464248D01*
X125418000Y-115565608D01*
X125418000Y-115697392D01*
X125445627Y-115800500D01*
X125452109Y-115824690D01*
X125517996Y-115938809D01*
X125517998Y-115938811D01*
X125518000Y-115938814D01*
X125611186Y-116032000D01*
X125611188Y-116032001D01*
X125611190Y-116032003D01*
X125725310Y-116097890D01*
X125725308Y-116097890D01*
X125725312Y-116097891D01*
X125725314Y-116097892D01*
X125852608Y-116132000D01*
X125852610Y-116132000D01*
X125984390Y-116132000D01*
X125984392Y-116132000D01*
X126111686Y-116097892D01*
X126111688Y-116097890D01*
X126111690Y-116097890D01*
X126225809Y-116032003D01*
X126225809Y-116032002D01*
X126225814Y-116032000D01*
X126319000Y-115938814D01*
X126319003Y-115938809D01*
X126384890Y-115824690D01*
X126384890Y-115824688D01*
X126384892Y-115824686D01*
X126419000Y-115697392D01*
X126419000Y-115596978D01*
X126437907Y-115538787D01*
X126447996Y-115526974D01*
X128145475Y-113829496D01*
X128199992Y-113801719D01*
X128215479Y-113800500D01*
X131758679Y-113800500D01*
X131816870Y-113819407D01*
X131828676Y-113829490D01*
X131899686Y-113900500D01*
X131899688Y-113900501D01*
X131899690Y-113900503D01*
X132013810Y-113966390D01*
X132013808Y-113966390D01*
X132013812Y-113966391D01*
X132013814Y-113966392D01*
X132141108Y-114000500D01*
X132141110Y-114000500D01*
X132147542Y-114001347D01*
X132147155Y-114004280D01*
X132193711Y-114019407D01*
X132229675Y-114068907D01*
X132229675Y-114130093D01*
X132205524Y-114169504D01*
X131704524Y-114670504D01*
X131650007Y-114698281D01*
X131634520Y-114699500D01*
X131534108Y-114699500D01*
X131456200Y-114720375D01*
X131406809Y-114733609D01*
X131292690Y-114799496D01*
X131199496Y-114892690D01*
X131133609Y-115006809D01*
X131126428Y-115033609D01*
X131099500Y-115134108D01*
X131099500Y-115265892D01*
X131124833Y-115360438D01*
X131133609Y-115393190D01*
X131199496Y-115507309D01*
X131199498Y-115507311D01*
X131199500Y-115507314D01*
X131292686Y-115600500D01*
X131317391Y-115614763D01*
X131358332Y-115660233D01*
X131364728Y-115721083D01*
X131334135Y-115774071D01*
X131278240Y-115798958D01*
X131267891Y-115799500D01*
X128860435Y-115799500D01*
X128784012Y-115819978D01*
X128739958Y-115845413D01*
X128739957Y-115845412D01*
X128715490Y-115859539D01*
X127915489Y-116659540D01*
X127915488Y-116659539D01*
X127859539Y-116715489D01*
X127819980Y-116784007D01*
X127819978Y-116784011D01*
X127800841Y-116855430D01*
X127775220Y-116899808D01*
X127759539Y-116915488D01*
X127719980Y-116984007D01*
X127719978Y-116984011D01*
X127699500Y-117060435D01*
X127699500Y-118739564D01*
X127719978Y-118815988D01*
X127719979Y-118815989D01*
X127733589Y-118839562D01*
X127759540Y-118884511D01*
X127781183Y-118906154D01*
X127786051Y-118913039D01*
X127790029Y-118925841D01*
X127800841Y-118944569D01*
X127819978Y-119015988D01*
X127819980Y-119015992D01*
X127859538Y-119084508D01*
X127859540Y-119084511D01*
X127915489Y-119140460D01*
X127915491Y-119140461D01*
X127984005Y-119180018D01*
X127984006Y-119180018D01*
X127984011Y-119180021D01*
X128055431Y-119199158D01*
X128099806Y-119224778D01*
X128199529Y-119324500D01*
X128317525Y-119442496D01*
X128345302Y-119497013D01*
X128335731Y-119557445D01*
X128323754Y-119575662D01*
X128317231Y-119583533D01*
X128315489Y-119584540D01*
X128259540Y-119640489D01*
X128235401Y-119682297D01*
X128230070Y-119688733D01*
X128210938Y-119700853D01*
X128194102Y-119716013D01*
X128189996Y-119717467D01*
X128190008Y-119717495D01*
X128184015Y-119719977D01*
X128184013Y-119719977D01*
X128184013Y-119719978D01*
X128180315Y-119722113D01*
X128115486Y-119759541D01*
X128099805Y-119775222D01*
X128055429Y-119800841D01*
X127984012Y-119819977D01*
X127984008Y-119819979D01*
X127915493Y-119859536D01*
X127415489Y-120359540D01*
X127415488Y-120359539D01*
X127359539Y-120415489D01*
X127319980Y-120484007D01*
X127319978Y-120484011D01*
X127300841Y-120555430D01*
X127275220Y-120599808D01*
X127259539Y-120615488D01*
X127219980Y-120684007D01*
X127219978Y-120684011D01*
X127199500Y-120760435D01*
X127199500Y-127839564D01*
X127219977Y-127915985D01*
X127219979Y-127915990D01*
X127241323Y-127952959D01*
X127246043Y-127961134D01*
X127259540Y-127984511D01*
X128199530Y-128924500D01*
X129070504Y-129795474D01*
X129098281Y-129849991D01*
X129099500Y-129865478D01*
X129099500Y-130181249D01*
X129080593Y-130239440D01*
X129031093Y-130275404D01*
X128969907Y-130275404D01*
X128951001Y-130266986D01*
X128893188Y-130233608D01*
X128893185Y-130233607D01*
X128765891Y-130199499D01*
X128634107Y-130199499D01*
X128556199Y-130220374D01*
X128506808Y-130233608D01*
X128392689Y-130299495D01*
X128299495Y-130392689D01*
X128233608Y-130506808D01*
X128233607Y-130506813D01*
X128199499Y-130634107D01*
X128199499Y-130765891D01*
X128226427Y-130866390D01*
X128233608Y-130893189D01*
X128299495Y-131007308D01*
X128299497Y-131007310D01*
X128299499Y-131007313D01*
X128392685Y-131100499D01*
X128392687Y-131100500D01*
X128392689Y-131100502D01*
X128506809Y-131166389D01*
X128506810Y-131166390D01*
X128506812Y-131166390D01*
X128506813Y-131166391D01*
X128526122Y-131171564D01*
X128577436Y-131204887D01*
X128599364Y-131262008D01*
X128599500Y-131267191D01*
X128599500Y-131781250D01*
X128580593Y-131839441D01*
X128531093Y-131875405D01*
X128469907Y-131875405D01*
X128451001Y-131866987D01*
X128393188Y-131833609D01*
X128393185Y-131833608D01*
X128265891Y-131799500D01*
X128134107Y-131799500D01*
X128056199Y-131820375D01*
X128006808Y-131833609D01*
X127892689Y-131899496D01*
X127799495Y-131992690D01*
X127733608Y-132106809D01*
X127714538Y-132177978D01*
X127699499Y-132234108D01*
X127699499Y-132365892D01*
X127713134Y-132416778D01*
X127733608Y-132493190D01*
X127799495Y-132607309D01*
X127799497Y-132607311D01*
X127799499Y-132607314D01*
X127870504Y-132678319D01*
X127898280Y-132732834D01*
X127899499Y-132748321D01*
X127899499Y-133651679D01*
X127880592Y-133709870D01*
X127870508Y-133721676D01*
X127831747Y-133760438D01*
X127799496Y-133792689D01*
X127799495Y-133792690D01*
X127733608Y-133906810D01*
X127733606Y-133906814D01*
X127714204Y-133979223D01*
X127680880Y-134030537D01*
X127623758Y-134052463D01*
X127564658Y-134036627D01*
X127548574Y-134023603D01*
X127329496Y-133804525D01*
X127301719Y-133750008D01*
X127300500Y-133734521D01*
X127300500Y-131360437D01*
X127300499Y-131360435D01*
X127280021Y-131284011D01*
X127280019Y-131284007D01*
X127240460Y-131215489D01*
X127184511Y-131159539D01*
X127184511Y-131159540D01*
X126476396Y-130451424D01*
X126448619Y-130396907D01*
X126458190Y-130336475D01*
X126501455Y-130293210D01*
X126520770Y-130285795D01*
X126593186Y-130266392D01*
X126593188Y-130266390D01*
X126593190Y-130266390D01*
X126707309Y-130200503D01*
X126707309Y-130200502D01*
X126707314Y-130200500D01*
X126800500Y-130107314D01*
X126833303Y-130050498D01*
X126866390Y-129993190D01*
X126866390Y-129993188D01*
X126866392Y-129993186D01*
X126900500Y-129865892D01*
X126900500Y-129734108D01*
X126866392Y-129606814D01*
X126866390Y-129606811D01*
X126866390Y-129606809D01*
X126800503Y-129492690D01*
X126800501Y-129492688D01*
X126800500Y-129492686D01*
X126729494Y-129421680D01*
X126701719Y-129367166D01*
X126700500Y-129351679D01*
X126700500Y-128860437D01*
X126700499Y-128860435D01*
X126680021Y-128784011D01*
X126680019Y-128784007D01*
X126640460Y-128715489D01*
X126584511Y-128659539D01*
X126584511Y-128659540D01*
X124529496Y-126604525D01*
X124501719Y-126550008D01*
X124500500Y-126534521D01*
X124500500Y-121234108D01*
X124999500Y-121234108D01*
X124999500Y-121365892D01*
X125004847Y-121385846D01*
X125033609Y-121493190D01*
X125099496Y-121607309D01*
X125099498Y-121607311D01*
X125099500Y-121607314D01*
X125170505Y-121678319D01*
X125198281Y-121732834D01*
X125199500Y-121748321D01*
X125199500Y-125851679D01*
X125180593Y-125909870D01*
X125170509Y-125921676D01*
X125126294Y-125965892D01*
X125099497Y-125992689D01*
X125099496Y-125992690D01*
X125033609Y-126106809D01*
X125033608Y-126106814D01*
X124999500Y-126234108D01*
X124999500Y-126365892D01*
X125029579Y-126478151D01*
X125033609Y-126493190D01*
X125099496Y-126607309D01*
X125099498Y-126607311D01*
X125099500Y-126607314D01*
X125192686Y-126700500D01*
X125192688Y-126700501D01*
X125192690Y-126700503D01*
X125306810Y-126766390D01*
X125306808Y-126766390D01*
X125306812Y-126766391D01*
X125306814Y-126766392D01*
X125434108Y-126800500D01*
X125434110Y-126800500D01*
X125565890Y-126800500D01*
X125565892Y-126800500D01*
X125693186Y-126766392D01*
X125693188Y-126766390D01*
X125693190Y-126766390D01*
X125807309Y-126700503D01*
X125807309Y-126700502D01*
X125807314Y-126700500D01*
X125900500Y-126607314D01*
X125966392Y-126493186D01*
X126000500Y-126365892D01*
X126000500Y-126234108D01*
X125966392Y-126106814D01*
X125966390Y-126106811D01*
X125966390Y-126106809D01*
X125900503Y-125992690D01*
X125900501Y-125992688D01*
X125900500Y-125992686D01*
X125829494Y-125921680D01*
X125801719Y-125867166D01*
X125800500Y-125851679D01*
X125800500Y-121748321D01*
X125819407Y-121690130D01*
X125829490Y-121678323D01*
X125900500Y-121607314D01*
X125910208Y-121590499D01*
X125966390Y-121493190D01*
X125966390Y-121493188D01*
X125966392Y-121493186D01*
X126000500Y-121365892D01*
X126000500Y-121234108D01*
X125966392Y-121106814D01*
X125966390Y-121106811D01*
X125966390Y-121106809D01*
X125900503Y-120992690D01*
X125900501Y-120992688D01*
X125900500Y-120992686D01*
X125807314Y-120899500D01*
X125807311Y-120899498D01*
X125807309Y-120899496D01*
X125693189Y-120833609D01*
X125693191Y-120833609D01*
X125642321Y-120819979D01*
X125565892Y-120799500D01*
X125434108Y-120799500D01*
X125357679Y-120819979D01*
X125306809Y-120833609D01*
X125192690Y-120899496D01*
X125099496Y-120992690D01*
X125033609Y-121106809D01*
X125031282Y-121115493D01*
X124999500Y-121234108D01*
X124500500Y-121234108D01*
X124500500Y-120348321D01*
X124519407Y-120290130D01*
X124529490Y-120278323D01*
X124600500Y-120207314D01*
X124616725Y-120179212D01*
X124666390Y-120093190D01*
X124666390Y-120093188D01*
X124666392Y-120093186D01*
X124700500Y-119965892D01*
X124700500Y-119834108D01*
X124666392Y-119706814D01*
X124666390Y-119706811D01*
X124666390Y-119706809D01*
X124600503Y-119592690D01*
X124600501Y-119592688D01*
X124600500Y-119592686D01*
X124507314Y-119499500D01*
X124507311Y-119499498D01*
X124507309Y-119499496D01*
X124393189Y-119433609D01*
X124393191Y-119433609D01*
X124343799Y-119420375D01*
X124265892Y-119399500D01*
X124134108Y-119399500D01*
X124056200Y-119420375D01*
X124006809Y-119433609D01*
X123892690Y-119499496D01*
X123799496Y-119592690D01*
X123733609Y-119706809D01*
X123719480Y-119759540D01*
X123699500Y-119834108D01*
X123699500Y-119965892D01*
X123704354Y-119984006D01*
X123733609Y-120093190D01*
X123799496Y-120207309D01*
X123799498Y-120207311D01*
X123799500Y-120207314D01*
X123870505Y-120278319D01*
X123898281Y-120332834D01*
X123899500Y-120348321D01*
X123899500Y-126739564D01*
X123919978Y-126815988D01*
X123919979Y-126815989D01*
X123945642Y-126860438D01*
X123959540Y-126884511D01*
X126070505Y-128995476D01*
X126098281Y-129049991D01*
X126099500Y-129065478D01*
X126099500Y-129351679D01*
X126080593Y-129409870D01*
X126070509Y-129421676D01*
X126032648Y-129459538D01*
X125999498Y-129492688D01*
X125960847Y-129559633D01*
X125915377Y-129600573D01*
X125854527Y-129606968D01*
X125805107Y-129580136D01*
X125229496Y-129004525D01*
X125201719Y-128950008D01*
X125200500Y-128934521D01*
X125200500Y-128834109D01*
X125199750Y-128831309D01*
X125166392Y-128706814D01*
X125166390Y-128706811D01*
X125166390Y-128706809D01*
X125100503Y-128592690D01*
X125100501Y-128592688D01*
X125100500Y-128592686D01*
X125007314Y-128499500D01*
X125007311Y-128499498D01*
X125007309Y-128499496D01*
X124893189Y-128433609D01*
X124893191Y-128433609D01*
X124843799Y-128420375D01*
X124765892Y-128399500D01*
X124634108Y-128399500D01*
X124556200Y-128420375D01*
X124506809Y-128433609D01*
X124392690Y-128499496D01*
X124299496Y-128592690D01*
X124233609Y-128706809D01*
X124199500Y-128834109D01*
X124199500Y-128900500D01*
X124180593Y-128958691D01*
X124131093Y-128994655D01*
X124100500Y-128999500D01*
X123748321Y-128999500D01*
X123690130Y-128980593D01*
X123678323Y-128970509D01*
X123607314Y-128899500D01*
X123607311Y-128899498D01*
X123607309Y-128899496D01*
X123493189Y-128833609D01*
X123493191Y-128833609D01*
X123443799Y-128820375D01*
X123365892Y-128799500D01*
X123234108Y-128799500D01*
X123156200Y-128820375D01*
X123106809Y-128833609D01*
X122992690Y-128899496D01*
X122899496Y-128992690D01*
X122833609Y-129106809D01*
X122833608Y-129106814D01*
X122799500Y-129234108D01*
X100500500Y-129234108D01*
X100500500Y-122993424D01*
X103900000Y-122993424D01*
X103900000Y-123166575D01*
X103927084Y-123337579D01*
X103980588Y-123502248D01*
X104059195Y-123656524D01*
X104059197Y-123656528D01*
X104123219Y-123744646D01*
X104556328Y-123311536D01*
X104599901Y-123387007D01*
X104692993Y-123480099D01*
X104768460Y-123523670D01*
X104335352Y-123956778D01*
X104423477Y-124020805D01*
X104577751Y-124099411D01*
X104742420Y-124152915D01*
X104913425Y-124180000D01*
X105086575Y-124180000D01*
X105257579Y-124152915D01*
X105422248Y-124099411D01*
X105576524Y-124020804D01*
X105576530Y-124020800D01*
X105664646Y-123956779D01*
X105664646Y-123956778D01*
X105231538Y-123523670D01*
X105307007Y-123480099D01*
X105400099Y-123387007D01*
X105443670Y-123311538D01*
X105876778Y-123744646D01*
X105876779Y-123744646D01*
X105940800Y-123656530D01*
X105940804Y-123656524D01*
X106019411Y-123502248D01*
X106072915Y-123337579D01*
X106100000Y-123166575D01*
X106100000Y-122993424D01*
X106072915Y-122822420D01*
X106019411Y-122657751D01*
X105940805Y-122503477D01*
X105876778Y-122415352D01*
X105443670Y-122848460D01*
X105400099Y-122772993D01*
X105307007Y-122679901D01*
X105231536Y-122636328D01*
X105664646Y-122203219D01*
X105576528Y-122139197D01*
X105576524Y-122139195D01*
X105422248Y-122060588D01*
X105257579Y-122007084D01*
X105086575Y-121980000D01*
X104913425Y-121980000D01*
X104742420Y-122007084D01*
X104577751Y-122060588D01*
X104423476Y-122139195D01*
X104335352Y-122203219D01*
X104768461Y-122636328D01*
X104692993Y-122679901D01*
X104599901Y-122772993D01*
X104556328Y-122848461D01*
X104123219Y-122415352D01*
X104059195Y-122503476D01*
X103980588Y-122657751D01*
X103927084Y-122822420D01*
X103900000Y-122993424D01*
X100500500Y-122993424D01*
X100500500Y-120436532D01*
X103949500Y-120436532D01*
X103949500Y-120643467D01*
X103989869Y-120846418D01*
X104069058Y-121037597D01*
X104171486Y-121190892D01*
X104184023Y-121209655D01*
X104330345Y-121355977D01*
X104502402Y-121470941D01*
X104693580Y-121550130D01*
X104896535Y-121590500D01*
X104896536Y-121590500D01*
X105103464Y-121590500D01*
X105103465Y-121590500D01*
X105306420Y-121550130D01*
X105497598Y-121470941D01*
X105669655Y-121355977D01*
X105680325Y-121345306D01*
X105734835Y-121317528D01*
X105795268Y-121327095D01*
X105820333Y-121345304D01*
X107859540Y-123384511D01*
X107859539Y-123384511D01*
X107915489Y-123440460D01*
X107984007Y-123480019D01*
X107984011Y-123480021D01*
X108060435Y-123500499D01*
X108060437Y-123500500D01*
X108060438Y-123500500D01*
X110851679Y-123500500D01*
X110909870Y-123519407D01*
X110921676Y-123529490D01*
X110992686Y-123600500D01*
X110992688Y-123600501D01*
X110992690Y-123600503D01*
X111106810Y-123666390D01*
X111106808Y-123666390D01*
X111106812Y-123666391D01*
X111106814Y-123666392D01*
X111234108Y-123700500D01*
X111234110Y-123700500D01*
X111365890Y-123700500D01*
X111365892Y-123700500D01*
X111493186Y-123666392D01*
X111493188Y-123666390D01*
X111493190Y-123666390D01*
X111607309Y-123600503D01*
X111607309Y-123600502D01*
X111607314Y-123600500D01*
X111700500Y-123507314D01*
X111724416Y-123465890D01*
X111766390Y-123393190D01*
X111766390Y-123393188D01*
X111766392Y-123393186D01*
X111800500Y-123265892D01*
X111800500Y-123134108D01*
X111766392Y-123006814D01*
X111766390Y-123006811D01*
X111766390Y-123006809D01*
X111700503Y-122892690D01*
X111700501Y-122892688D01*
X111700500Y-122892686D01*
X111607314Y-122799500D01*
X111607311Y-122799498D01*
X111607309Y-122799496D01*
X111493189Y-122733609D01*
X111493191Y-122733609D01*
X111443799Y-122720375D01*
X111365892Y-122699500D01*
X111234108Y-122699500D01*
X111156200Y-122720375D01*
X111106809Y-122733609D01*
X110992690Y-122799496D01*
X110992689Y-122799497D01*
X110992686Y-122799499D01*
X110992686Y-122799500D01*
X110921680Y-122870505D01*
X110867166Y-122898281D01*
X110851679Y-122899500D01*
X108265479Y-122899500D01*
X108207288Y-122880593D01*
X108195475Y-122870504D01*
X106074301Y-120749330D01*
X106046524Y-120694813D01*
X106047207Y-120660014D01*
X106050500Y-120643465D01*
X106050500Y-120436535D01*
X106010130Y-120233580D01*
X105930941Y-120042402D01*
X105815977Y-119870345D01*
X105669655Y-119724023D01*
X105669651Y-119724020D01*
X105497597Y-119609058D01*
X105306418Y-119529869D01*
X105103467Y-119489500D01*
X105103465Y-119489500D01*
X104896535Y-119489500D01*
X104896532Y-119489500D01*
X104693581Y-119529869D01*
X104502402Y-119609058D01*
X104330348Y-119724020D01*
X104184020Y-119870348D01*
X104069058Y-120042402D01*
X103989869Y-120233581D01*
X103949500Y-120436532D01*
X100500500Y-120436532D01*
X100500500Y-117130253D01*
X103949500Y-117130253D01*
X103949500Y-118869746D01*
X103949501Y-118869758D01*
X103961132Y-118928227D01*
X103961134Y-118928233D01*
X104005445Y-118994548D01*
X104005448Y-118994552D01*
X104071769Y-119038867D01*
X104116231Y-119047711D01*
X104130241Y-119050498D01*
X104130246Y-119050498D01*
X104130252Y-119050500D01*
X104130253Y-119050500D01*
X105869747Y-119050500D01*
X105869748Y-119050500D01*
X105928231Y-119038867D01*
X105994552Y-118994552D01*
X106038867Y-118928231D01*
X106050500Y-118869748D01*
X106050500Y-117130252D01*
X106038867Y-117071769D01*
X105994552Y-117005448D01*
X105986683Y-117000190D01*
X105928233Y-116961134D01*
X105928231Y-116961133D01*
X105928228Y-116961132D01*
X105928227Y-116961132D01*
X105869758Y-116949501D01*
X105869748Y-116949500D01*
X104130252Y-116949500D01*
X104130251Y-116949500D01*
X104130241Y-116949501D01*
X104071772Y-116961132D01*
X104071766Y-116961134D01*
X104005451Y-117005445D01*
X104005445Y-117005451D01*
X103961134Y-117071766D01*
X103961132Y-117071772D01*
X103949501Y-117130241D01*
X103949500Y-117130253D01*
X100500500Y-117130253D01*
X100500500Y-111953424D01*
X103900000Y-111953424D01*
X103900000Y-112126575D01*
X103927084Y-112297579D01*
X103980588Y-112462248D01*
X104059195Y-112616524D01*
X104059197Y-112616528D01*
X104123219Y-112704646D01*
X104556328Y-112271536D01*
X104599901Y-112347007D01*
X104692993Y-112440099D01*
X104768460Y-112483670D01*
X104335352Y-112916778D01*
X104423477Y-112980805D01*
X104577751Y-113059411D01*
X104742420Y-113112915D01*
X104913425Y-113140000D01*
X105086575Y-113140000D01*
X105257579Y-113112915D01*
X105422248Y-113059411D01*
X105576524Y-112980804D01*
X105576530Y-112980800D01*
X105664646Y-112916779D01*
X105664646Y-112916778D01*
X105231538Y-112483670D01*
X105307007Y-112440099D01*
X105400099Y-112347007D01*
X105443670Y-112271538D01*
X105876778Y-112704646D01*
X105876779Y-112704646D01*
X105940800Y-112616530D01*
X105940804Y-112616524D01*
X106019412Y-112462246D01*
X106061046Y-112334108D01*
X118699500Y-112334108D01*
X118699500Y-112465892D01*
X118709283Y-112502402D01*
X118733609Y-112593190D01*
X118799496Y-112707309D01*
X118799498Y-112707311D01*
X118799500Y-112707314D01*
X118870505Y-112778319D01*
X118898281Y-112832834D01*
X118899500Y-112848321D01*
X118899500Y-114147564D01*
X118919977Y-114223985D01*
X118919978Y-114223988D01*
X118928969Y-114239561D01*
X118951348Y-114278321D01*
X118959540Y-114292511D01*
X119370505Y-114703476D01*
X119398281Y-114757991D01*
X119399500Y-114773478D01*
X119399500Y-114873892D01*
X119429579Y-114986151D01*
X119433609Y-115001190D01*
X119499496Y-115115309D01*
X119499498Y-115115311D01*
X119499500Y-115115314D01*
X119592686Y-115208500D01*
X119592688Y-115208501D01*
X119592690Y-115208503D01*
X119706810Y-115274390D01*
X119706808Y-115274390D01*
X119706812Y-115274391D01*
X119706814Y-115274392D01*
X119834108Y-115308500D01*
X119834110Y-115308500D01*
X119965890Y-115308500D01*
X119965892Y-115308500D01*
X120093186Y-115274392D01*
X120093188Y-115274390D01*
X120093190Y-115274390D01*
X120207309Y-115208503D01*
X120207309Y-115208502D01*
X120207314Y-115208500D01*
X120300500Y-115115314D01*
X120300503Y-115115309D01*
X120366390Y-115001190D01*
X120366390Y-115001188D01*
X120366392Y-115001186D01*
X120400500Y-114873892D01*
X120400500Y-114742108D01*
X120366392Y-114614814D01*
X120366390Y-114614811D01*
X120366390Y-114614809D01*
X120300503Y-114500690D01*
X120300501Y-114500688D01*
X120300500Y-114500686D01*
X120207314Y-114407500D01*
X120207311Y-114407498D01*
X120207309Y-114407496D01*
X120093189Y-114341609D01*
X120093191Y-114341609D01*
X120043799Y-114328375D01*
X119965892Y-114307500D01*
X119865479Y-114307500D01*
X119807288Y-114288593D01*
X119795475Y-114278504D01*
X119529496Y-114012525D01*
X119501719Y-113958008D01*
X119500500Y-113942521D01*
X119500500Y-112848321D01*
X119519407Y-112790130D01*
X119529490Y-112778323D01*
X119600500Y-112707314D01*
X119608429Y-112693580D01*
X119666390Y-112593190D01*
X119666390Y-112593188D01*
X119666392Y-112593186D01*
X119700500Y-112465892D01*
X119700500Y-112334108D01*
X119666392Y-112206814D01*
X119666390Y-112206811D01*
X119666390Y-112206809D01*
X119600503Y-112092690D01*
X119600501Y-112092688D01*
X119600500Y-112092686D01*
X119507314Y-111999500D01*
X119507311Y-111999498D01*
X119507309Y-111999496D01*
X119393189Y-111933609D01*
X119393191Y-111933609D01*
X119343799Y-111920375D01*
X119265892Y-111899500D01*
X119134108Y-111899500D01*
X119056200Y-111920375D01*
X119006809Y-111933609D01*
X118892690Y-111999496D01*
X118799496Y-112092690D01*
X118733609Y-112206809D01*
X118726593Y-112232993D01*
X118699500Y-112334108D01*
X106061046Y-112334108D01*
X106072914Y-112297581D01*
X106100000Y-112126575D01*
X106100000Y-111953424D01*
X106072915Y-111782420D01*
X106019411Y-111617751D01*
X105940805Y-111463477D01*
X105876778Y-111375352D01*
X105443670Y-111808460D01*
X105400099Y-111732993D01*
X105307007Y-111639901D01*
X105231536Y-111596328D01*
X105664646Y-111163219D01*
X105576528Y-111099197D01*
X105576524Y-111099195D01*
X105422248Y-111020588D01*
X105257579Y-110967084D01*
X105086575Y-110940000D01*
X104913425Y-110940000D01*
X104742420Y-110967084D01*
X104577751Y-111020588D01*
X104423476Y-111099195D01*
X104335352Y-111163219D01*
X104768461Y-111596328D01*
X104692993Y-111639901D01*
X104599901Y-111732993D01*
X104556328Y-111808461D01*
X104123219Y-111375352D01*
X104059195Y-111463476D01*
X103980588Y-111617751D01*
X103927084Y-111782420D01*
X103900000Y-111953424D01*
X100500500Y-111953424D01*
X100500500Y-108630253D01*
X103949500Y-108630253D01*
X103949500Y-110369746D01*
X103949501Y-110369758D01*
X103961132Y-110428227D01*
X103961133Y-110428231D01*
X104005448Y-110494552D01*
X104071769Y-110538867D01*
X104116231Y-110547711D01*
X104130241Y-110550498D01*
X104130246Y-110550498D01*
X104130252Y-110550500D01*
X104130253Y-110550500D01*
X105869747Y-110550500D01*
X105869748Y-110550500D01*
X105928231Y-110538867D01*
X105994552Y-110494552D01*
X106038867Y-110428231D01*
X106050500Y-110369748D01*
X106050500Y-108630252D01*
X106038867Y-108571769D01*
X105994552Y-108505448D01*
X105982804Y-108497598D01*
X105928233Y-108461134D01*
X105928231Y-108461133D01*
X105928228Y-108461132D01*
X105928227Y-108461132D01*
X105869758Y-108449501D01*
X105869748Y-108449500D01*
X104130252Y-108449500D01*
X104130251Y-108449500D01*
X104130241Y-108449501D01*
X104071772Y-108461132D01*
X104071766Y-108461134D01*
X104005451Y-108505445D01*
X104005445Y-108505451D01*
X103961134Y-108571766D01*
X103961132Y-108571772D01*
X103949501Y-108630241D01*
X103949500Y-108630253D01*
X100500500Y-108630253D01*
X100500500Y-107125375D01*
X120900000Y-107125375D01*
X120900000Y-107849999D01*
X120900001Y-107850000D01*
X121522555Y-107850000D01*
X121500000Y-107934174D01*
X121500000Y-108065826D01*
X121522555Y-108150000D01*
X120900001Y-108150000D01*
X120900000Y-108150001D01*
X120900000Y-108874624D01*
X120914506Y-108947546D01*
X120914507Y-108947548D01*
X120969758Y-109030237D01*
X120969762Y-109030241D01*
X121052451Y-109085492D01*
X121052453Y-109085493D01*
X121125375Y-109099999D01*
X121125377Y-109100000D01*
X121849999Y-109100000D01*
X121850000Y-109099999D01*
X121850000Y-108477445D01*
X121934174Y-108500000D01*
X122065826Y-108500000D01*
X122150000Y-108477445D01*
X122150000Y-109099999D01*
X122150001Y-109100000D01*
X122874623Y-109100000D01*
X122874624Y-109099999D01*
X122947546Y-109085493D01*
X122947548Y-109085492D01*
X123030237Y-109030241D01*
X123030241Y-109030237D01*
X123085492Y-108947548D01*
X123085493Y-108947546D01*
X123099999Y-108874624D01*
X123100000Y-108874622D01*
X123100000Y-108150001D01*
X123099999Y-108150000D01*
X122477445Y-108150000D01*
X122500000Y-108065826D01*
X122500000Y-107934174D01*
X122489914Y-107896532D01*
X123489500Y-107896532D01*
X123489500Y-108103467D01*
X123529869Y-108306418D01*
X123609058Y-108497597D01*
X123724020Y-108669651D01*
X123724023Y-108669655D01*
X123870345Y-108815977D01*
X124042402Y-108930941D01*
X124233580Y-109010130D01*
X124436535Y-109050500D01*
X124436536Y-109050500D01*
X124643464Y-109050500D01*
X124643465Y-109050500D01*
X124846420Y-109010130D01*
X125037598Y-108930941D01*
X125209655Y-108815977D01*
X125355977Y-108669655D01*
X125470941Y-108497598D01*
X125550130Y-108306420D01*
X125590500Y-108103465D01*
X125590500Y-107896535D01*
X125590499Y-107896532D01*
X126029500Y-107896532D01*
X126029500Y-108103467D01*
X126069869Y-108306418D01*
X126149058Y-108497597D01*
X126264020Y-108669651D01*
X126264023Y-108669655D01*
X126410345Y-108815977D01*
X126582402Y-108930941D01*
X126773580Y-109010130D01*
X126976535Y-109050500D01*
X126976536Y-109050500D01*
X127183464Y-109050500D01*
X127183465Y-109050500D01*
X127386420Y-109010130D01*
X127577598Y-108930941D01*
X127749655Y-108815977D01*
X127895977Y-108669655D01*
X128010941Y-108497598D01*
X128090130Y-108306420D01*
X128130500Y-108103465D01*
X128130500Y-107896535D01*
X128090130Y-107693580D01*
X128010941Y-107502402D01*
X127895977Y-107330345D01*
X127749655Y-107184023D01*
X127749651Y-107184020D01*
X127577597Y-107069058D01*
X127386418Y-106989869D01*
X127183467Y-106949500D01*
X127183465Y-106949500D01*
X126976535Y-106949500D01*
X126976532Y-106949500D01*
X126773581Y-106989869D01*
X126582402Y-107069058D01*
X126410348Y-107184020D01*
X126264020Y-107330348D01*
X126149058Y-107502402D01*
X126069869Y-107693581D01*
X126029500Y-107896532D01*
X125590499Y-107896532D01*
X125550130Y-107693580D01*
X125470941Y-107502402D01*
X125355977Y-107330345D01*
X125209655Y-107184023D01*
X125209651Y-107184020D01*
X125037597Y-107069058D01*
X124846418Y-106989869D01*
X124643467Y-106949500D01*
X124643465Y-106949500D01*
X124436535Y-106949500D01*
X124436532Y-106949500D01*
X124233581Y-106989869D01*
X124042402Y-107069058D01*
X123870348Y-107184020D01*
X123724020Y-107330348D01*
X123609058Y-107502402D01*
X123529869Y-107693581D01*
X123489500Y-107896532D01*
X122489914Y-107896532D01*
X122477445Y-107850000D01*
X123099999Y-107850000D01*
X123100000Y-107849999D01*
X123100000Y-107125377D01*
X123099999Y-107125375D01*
X123085493Y-107052453D01*
X123085492Y-107052451D01*
X123030241Y-106969762D01*
X123030237Y-106969758D01*
X122947548Y-106914507D01*
X122947546Y-106914506D01*
X122874624Y-106900000D01*
X122150001Y-106900000D01*
X122150000Y-106900001D01*
X122150000Y-107522554D01*
X122065826Y-107500000D01*
X121934174Y-107500000D01*
X121850000Y-107522554D01*
X121850000Y-106900001D01*
X121849999Y-106900000D01*
X121125375Y-106900000D01*
X121052453Y-106914506D01*
X121052451Y-106914507D01*
X120969762Y-106969758D01*
X120969758Y-106969762D01*
X120914507Y-107052451D01*
X120914506Y-107052453D01*
X120900000Y-107125375D01*
X100500500Y-107125375D01*
X100500500Y-103378710D01*
X101649500Y-103378710D01*
X101649500Y-103621289D01*
X101681161Y-103861781D01*
X101681161Y-103861786D01*
X101743944Y-104096092D01*
X101743948Y-104096105D01*
X101836772Y-104320204D01*
X101836774Y-104320208D01*
X101836776Y-104320212D01*
X101958064Y-104530289D01*
X101958066Y-104530292D01*
X102105729Y-104722731D01*
X102105731Y-104722733D01*
X102105735Y-104722738D01*
X102277262Y-104894265D01*
X102277266Y-104894268D01*
X102277268Y-104894270D01*
X102375652Y-104969762D01*
X102469711Y-105041936D01*
X102679788Y-105163224D01*
X102903900Y-105256054D01*
X103138211Y-105318838D01*
X103378712Y-105350500D01*
X103378713Y-105350500D01*
X103621287Y-105350500D01*
X103621288Y-105350500D01*
X103861789Y-105318838D01*
X104096100Y-105256054D01*
X104320212Y-105163224D01*
X104377319Y-105130253D01*
X108949500Y-105130253D01*
X108949500Y-106869746D01*
X108949501Y-106869758D01*
X108961132Y-106928227D01*
X108961134Y-106928233D01*
X109005445Y-106994548D01*
X109005448Y-106994552D01*
X109005451Y-106994554D01*
X109058853Y-107030237D01*
X109071769Y-107038867D01*
X109116231Y-107047711D01*
X109130241Y-107050498D01*
X109130246Y-107050498D01*
X109130252Y-107050500D01*
X109130253Y-107050500D01*
X110869747Y-107050500D01*
X110869748Y-107050500D01*
X110928231Y-107038867D01*
X110994552Y-106994552D01*
X111038867Y-106928231D01*
X111050500Y-106869748D01*
X111050500Y-105896532D01*
X111489500Y-105896532D01*
X111489500Y-106103467D01*
X111529869Y-106306418D01*
X111609058Y-106497597D01*
X111628433Y-106526594D01*
X111724023Y-106669655D01*
X111870345Y-106815977D01*
X112042402Y-106930941D01*
X112233580Y-107010130D01*
X112436535Y-107050500D01*
X112436536Y-107050500D01*
X112643464Y-107050500D01*
X112643465Y-107050500D01*
X112846420Y-107010130D01*
X113037598Y-106930941D01*
X113209655Y-106815977D01*
X113355977Y-106669655D01*
X113470941Y-106497598D01*
X113550130Y-106306420D01*
X113590500Y-106103465D01*
X113590500Y-105896535D01*
X113590499Y-105896532D01*
X114029500Y-105896532D01*
X114029500Y-106103467D01*
X114069869Y-106306418D01*
X114149058Y-106497597D01*
X114168433Y-106526594D01*
X114264023Y-106669655D01*
X114410345Y-106815977D01*
X114582402Y-106930941D01*
X114773580Y-107010130D01*
X114976535Y-107050500D01*
X114976536Y-107050500D01*
X115183464Y-107050500D01*
X115183465Y-107050500D01*
X115386420Y-107010130D01*
X115577598Y-106930941D01*
X115749655Y-106815977D01*
X115895977Y-106669655D01*
X116010941Y-106497598D01*
X116090130Y-106306420D01*
X116130500Y-106103465D01*
X116130500Y-105896535D01*
X116090130Y-105693580D01*
X116010941Y-105502402D01*
X115895977Y-105330345D01*
X115749655Y-105184023D01*
X115749651Y-105184020D01*
X115661882Y-105125375D01*
X141900000Y-105125375D01*
X141900000Y-105849999D01*
X141900001Y-105850000D01*
X142522555Y-105850000D01*
X142500000Y-105934174D01*
X142500000Y-106065826D01*
X142522555Y-106150000D01*
X141900001Y-106150000D01*
X141900000Y-106150001D01*
X141900000Y-106874624D01*
X141914506Y-106947546D01*
X141914507Y-106947548D01*
X141969758Y-107030237D01*
X141969762Y-107030241D01*
X142052451Y-107085492D01*
X142052453Y-107085493D01*
X142125375Y-107099999D01*
X142125377Y-107100000D01*
X142849999Y-107100000D01*
X142850000Y-107099999D01*
X142850000Y-106477445D01*
X142934174Y-106500000D01*
X143065826Y-106500000D01*
X143150000Y-106477445D01*
X143150000Y-107099999D01*
X143150001Y-107100000D01*
X143874623Y-107100000D01*
X143874624Y-107099999D01*
X143947546Y-107085493D01*
X143947548Y-107085492D01*
X144030237Y-107030241D01*
X144030241Y-107030237D01*
X144085492Y-106947548D01*
X144085493Y-106947546D01*
X144099999Y-106874624D01*
X144100000Y-106874622D01*
X144100000Y-106150001D01*
X144099999Y-106150000D01*
X143477445Y-106150000D01*
X143500000Y-106065826D01*
X143500000Y-105934174D01*
X143489914Y-105896532D01*
X144489500Y-105896532D01*
X144489500Y-106103467D01*
X144529869Y-106306418D01*
X144609058Y-106497597D01*
X144628433Y-106526594D01*
X144724023Y-106669655D01*
X144870345Y-106815977D01*
X145042402Y-106930941D01*
X145233580Y-107010130D01*
X145436535Y-107050500D01*
X145436536Y-107050500D01*
X145643464Y-107050500D01*
X145643465Y-107050500D01*
X145846420Y-107010130D01*
X145954118Y-106965518D01*
X146015114Y-106960718D01*
X146062008Y-106986979D01*
X148770504Y-109695475D01*
X148798281Y-109749992D01*
X148799500Y-109765479D01*
X148799500Y-109865892D01*
X148829579Y-109978151D01*
X148833609Y-109993190D01*
X148899496Y-110107309D01*
X148899498Y-110107311D01*
X148899500Y-110107314D01*
X148992686Y-110200500D01*
X148992688Y-110200501D01*
X148992690Y-110200503D01*
X149106810Y-110266390D01*
X149106808Y-110266390D01*
X149106812Y-110266391D01*
X149106814Y-110266392D01*
X149234108Y-110300500D01*
X149234110Y-110300500D01*
X149365890Y-110300500D01*
X149365892Y-110300500D01*
X149493186Y-110266392D01*
X149493188Y-110266390D01*
X149493190Y-110266390D01*
X149607309Y-110200503D01*
X149607309Y-110200502D01*
X149607314Y-110200500D01*
X149700500Y-110107314D01*
X149766392Y-109993186D01*
X149800500Y-109865892D01*
X149800500Y-109734108D01*
X149766392Y-109606814D01*
X149766390Y-109606811D01*
X149766390Y-109606809D01*
X149700503Y-109492690D01*
X149700501Y-109492688D01*
X149700500Y-109492686D01*
X149607314Y-109399500D01*
X149607311Y-109399498D01*
X149607309Y-109399496D01*
X149493189Y-109333609D01*
X149493191Y-109333609D01*
X149443799Y-109320375D01*
X149365892Y-109299500D01*
X149265479Y-109299500D01*
X149207288Y-109280593D01*
X149195475Y-109270504D01*
X146503547Y-106578576D01*
X146475770Y-106524059D01*
X146482086Y-106470690D01*
X146550130Y-106306420D01*
X146590500Y-106103465D01*
X146590500Y-105896535D01*
X146590499Y-105896532D01*
X147029500Y-105896532D01*
X147029500Y-106103467D01*
X147069869Y-106306418D01*
X147149058Y-106497597D01*
X147168433Y-106526594D01*
X147264023Y-106669655D01*
X147410345Y-106815977D01*
X147582402Y-106930941D01*
X147773580Y-107010130D01*
X147976535Y-107050500D01*
X147976536Y-107050500D01*
X148183464Y-107050500D01*
X148183465Y-107050500D01*
X148386420Y-107010130D01*
X148577598Y-106930941D01*
X148749655Y-106815977D01*
X148895977Y-106669655D01*
X149010941Y-106497598D01*
X149090130Y-106306420D01*
X149130500Y-106103465D01*
X149130500Y-105896535D01*
X149090130Y-105693580D01*
X149010941Y-105502402D01*
X148895977Y-105330345D01*
X148749655Y-105184023D01*
X148749651Y-105184020D01*
X148577597Y-105069058D01*
X148386418Y-104989869D01*
X148183467Y-104949500D01*
X148183465Y-104949500D01*
X147976535Y-104949500D01*
X147976532Y-104949500D01*
X147773581Y-104989869D01*
X147582402Y-105069058D01*
X147410348Y-105184020D01*
X147264020Y-105330348D01*
X147149058Y-105502402D01*
X147069869Y-105693581D01*
X147029500Y-105896532D01*
X146590499Y-105896532D01*
X146550130Y-105693580D01*
X146470941Y-105502402D01*
X146355977Y-105330345D01*
X146209655Y-105184023D01*
X146209651Y-105184020D01*
X146037597Y-105069058D01*
X145846418Y-104989869D01*
X145643467Y-104949500D01*
X145643465Y-104949500D01*
X145436535Y-104949500D01*
X145436532Y-104949500D01*
X145233581Y-104989869D01*
X145042402Y-105069058D01*
X144870348Y-105184020D01*
X144724020Y-105330348D01*
X144609058Y-105502402D01*
X144529869Y-105693581D01*
X144489500Y-105896532D01*
X143489914Y-105896532D01*
X143477445Y-105850000D01*
X144099999Y-105850000D01*
X144100000Y-105849999D01*
X144100000Y-105125377D01*
X144099999Y-105125375D01*
X144085493Y-105052453D01*
X144085492Y-105052451D01*
X144030241Y-104969762D01*
X144030237Y-104969758D01*
X143947548Y-104914507D01*
X143947546Y-104914506D01*
X143874624Y-104900000D01*
X143150001Y-104900000D01*
X143150000Y-104900001D01*
X143150000Y-105522554D01*
X143065826Y-105500000D01*
X142934174Y-105500000D01*
X142850000Y-105522554D01*
X142850000Y-104900001D01*
X142849999Y-104900000D01*
X142125375Y-104900000D01*
X142052453Y-104914506D01*
X142052451Y-104914507D01*
X141969762Y-104969758D01*
X141969758Y-104969762D01*
X141914507Y-105052451D01*
X141914506Y-105052453D01*
X141900000Y-105125375D01*
X115661882Y-105125375D01*
X115577597Y-105069058D01*
X115386418Y-104989869D01*
X115183467Y-104949500D01*
X115183465Y-104949500D01*
X114976535Y-104949500D01*
X114976532Y-104949500D01*
X114773581Y-104989869D01*
X114582402Y-105069058D01*
X114410348Y-105184020D01*
X114264020Y-105330348D01*
X114149058Y-105502402D01*
X114069869Y-105693581D01*
X114029500Y-105896532D01*
X113590499Y-105896532D01*
X113550130Y-105693580D01*
X113470941Y-105502402D01*
X113355977Y-105330345D01*
X113209655Y-105184023D01*
X113209651Y-105184020D01*
X113037597Y-105069058D01*
X112846418Y-104989869D01*
X112643467Y-104949500D01*
X112643465Y-104949500D01*
X112436535Y-104949500D01*
X112436532Y-104949500D01*
X112233581Y-104989869D01*
X112042402Y-105069058D01*
X111870348Y-105184020D01*
X111724020Y-105330348D01*
X111609058Y-105502402D01*
X111529869Y-105693581D01*
X111489500Y-105896532D01*
X111050500Y-105896532D01*
X111050500Y-105130252D01*
X111038867Y-105071769D01*
X110994552Y-105005448D01*
X110994548Y-105005445D01*
X110928233Y-104961134D01*
X110928231Y-104961133D01*
X110928228Y-104961132D01*
X110928227Y-104961132D01*
X110869758Y-104949501D01*
X110869748Y-104949500D01*
X109130252Y-104949500D01*
X109130251Y-104949500D01*
X109130241Y-104949501D01*
X109071772Y-104961132D01*
X109071766Y-104961134D01*
X109005451Y-105005445D01*
X109005445Y-105005451D01*
X108961134Y-105071766D01*
X108961132Y-105071772D01*
X108949501Y-105130241D01*
X108949500Y-105130253D01*
X104377319Y-105130253D01*
X104530289Y-105041936D01*
X104722738Y-104894265D01*
X104894265Y-104722738D01*
X105041936Y-104530289D01*
X105163224Y-104320212D01*
X105256054Y-104096100D01*
X105318838Y-103861789D01*
X105350500Y-103621288D01*
X105350500Y-103378712D01*
X105350500Y-103378710D01*
X154649500Y-103378710D01*
X154649500Y-103621289D01*
X154681161Y-103861781D01*
X154681161Y-103861786D01*
X154743944Y-104096092D01*
X154743948Y-104096105D01*
X154836772Y-104320204D01*
X154836774Y-104320208D01*
X154836776Y-104320212D01*
X154958064Y-104530289D01*
X154958066Y-104530292D01*
X155105729Y-104722731D01*
X155105731Y-104722733D01*
X155105735Y-104722738D01*
X155277262Y-104894265D01*
X155277266Y-104894268D01*
X155277268Y-104894270D01*
X155375652Y-104969762D01*
X155469711Y-105041936D01*
X155679788Y-105163224D01*
X155903900Y-105256054D01*
X156138211Y-105318838D01*
X156378712Y-105350500D01*
X156378713Y-105350500D01*
X156621287Y-105350500D01*
X156621288Y-105350500D01*
X156861789Y-105318838D01*
X157096100Y-105256054D01*
X157320212Y-105163224D01*
X157530289Y-105041936D01*
X157722738Y-104894265D01*
X157894265Y-104722738D01*
X158041936Y-104530289D01*
X158163224Y-104320212D01*
X158256054Y-104096100D01*
X158318838Y-103861789D01*
X158350500Y-103621288D01*
X158350500Y-103378712D01*
X158318838Y-103138211D01*
X158256054Y-102903900D01*
X158163224Y-102679788D01*
X158041936Y-102469711D01*
X157894265Y-102277262D01*
X157722738Y-102105735D01*
X157722733Y-102105731D01*
X157722731Y-102105729D01*
X157530292Y-101958066D01*
X157530289Y-101958064D01*
X157320212Y-101836776D01*
X157320208Y-101836774D01*
X157320204Y-101836772D01*
X157096105Y-101743948D01*
X157096104Y-101743947D01*
X157096100Y-101743946D01*
X156861789Y-101681162D01*
X156861786Y-101681161D01*
X156861784Y-101681161D01*
X156621289Y-101649500D01*
X156621288Y-101649500D01*
X156378712Y-101649500D01*
X156378710Y-101649500D01*
X156138218Y-101681161D01*
X156138213Y-101681161D01*
X155903907Y-101743944D01*
X155903894Y-101743948D01*
X155679795Y-101836772D01*
X155469707Y-101958066D01*
X155277268Y-102105729D01*
X155105729Y-102277268D01*
X154958066Y-102469707D01*
X154836772Y-102679795D01*
X154743948Y-102903894D01*
X154743944Y-102903907D01*
X154681161Y-103138213D01*
X154681161Y-103138218D01*
X154649500Y-103378710D01*
X105350500Y-103378710D01*
X105318838Y-103138211D01*
X105256054Y-102903900D01*
X105163224Y-102679788D01*
X105041936Y-102469711D01*
X104894265Y-102277262D01*
X104722738Y-102105735D01*
X104722733Y-102105731D01*
X104722731Y-102105729D01*
X104530292Y-101958066D01*
X104530289Y-101958064D01*
X104320212Y-101836776D01*
X104320208Y-101836774D01*
X104320204Y-101836772D01*
X104096105Y-101743948D01*
X104096104Y-101743947D01*
X104096100Y-101743946D01*
X103861789Y-101681162D01*
X103861786Y-101681161D01*
X103861784Y-101681161D01*
X103621289Y-101649500D01*
X103621288Y-101649500D01*
X103378712Y-101649500D01*
X103378710Y-101649500D01*
X103138218Y-101681161D01*
X103138213Y-101681161D01*
X102903907Y-101743944D01*
X102903894Y-101743948D01*
X102679795Y-101836772D01*
X102469707Y-101958066D01*
X102277268Y-102105729D01*
X102105729Y-102277268D01*
X101958066Y-102469707D01*
X101836772Y-102679795D01*
X101743948Y-102903894D01*
X101743944Y-102903907D01*
X101681161Y-103138213D01*
X101681161Y-103138218D01*
X101649500Y-103378710D01*
X100500500Y-103378710D01*
X100500500Y-100599500D01*
X100519407Y-100541309D01*
X100568907Y-100505345D01*
X100599500Y-100500500D01*
X159400500Y-100500500D01*
X159458691Y-100519407D01*
G37*
%TD.AperFunction*%
%TD*%
M02*
