M48
; DRILL file KiCad 10.0.0 date 2026-09-20T16:38:53
; FORMAT={-:-/ absolute / metric / decimal}
; #@! TF.CreationDate,2026-09-20T16:38:53-05:00
; #@! TF.GenerationSoftware,Kicad,Pcbnew,10.0.0
; #@! TF.FileFunction,Plated,1,2,PTH
FMAT,2
METRIC
; #@! TA.AperFunction,Plated,PTH,ViaDrill
T1C0.300
; #@! TA.AperFunction,Plated,PTH,ComponentDrill
T2C1.000
%
G90
G05
T1
X105.0Y-127.0
X106.0Y-144.0
X107.0Y-104.0
X108.712Y-137.0
X110.8Y-128.0
X111.3Y-123.2
X112.3Y-137.4
X112.7Y-142.0
X112.8Y-138.8
X113.0Y-133.0
X115.2Y-133.0
X115.8Y-128.5
X116.8Y-140.0
X119.2Y-112.4
X119.887Y-123.5
X119.9Y-114.808
X121.7Y-112.0
X123.3Y-129.3
X124.2Y-119.9
X124.7Y-128.9
X125.5Y-121.3
X125.5Y-126.3
X125.918Y-115.631
X126.111Y-137.414
X126.4Y-129.8
X126.8Y-125.0
X127.6Y-141.7
X127.6Y-143.0
X128.2Y-132.3
X128.2Y-134.1
X128.7Y-130.7
X129.5Y-139.6
X130.2Y-133.3
X130.9Y-132.8
X131.0Y-142.0
X131.5Y-117.225
X131.5Y-118.525
X131.5Y-119.825
X131.6Y-115.2
X132.2Y-129.0
X132.207Y-113.5
X132.4Y-117.3
X132.5Y-117.875
X132.5Y-119.175
X132.5Y-120.475
X132.5Y-121.775
X132.7Y-115.9
X133.5Y-115.7
X133.5Y-117.875
X133.5Y-121.775
X134.5Y-117.225
X134.5Y-118.525
X134.5Y-119.825
X134.5Y-121.125
X135.1Y-116.0
X135.2Y-111.7
X135.2Y-132.2
X135.9Y-125.1
X136.9Y-123.3
X137.2Y-113.7
X137.5Y-122.7
X137.7Y-117.9
X137.9Y-110.8
X138.2Y-116.5
X138.9Y-123.4
X139.8Y-115.5
X140.1Y-123.6
X141.088Y-128.524
X141.1Y-116.8
X142.2Y-124.3
X142.7Y-111.0
X142.9Y-125.9
X142.912Y-128.524
X143.0Y-121.3
X143.7Y-126.7
X144.5Y-126.5
X144.9Y-114.5
X146.9Y-115.3
X149.3Y-109.8
X149.3Y-130.4
X149.7Y-114.2
X150.9Y-134.7
X150.9Y-138.0
X152.4Y-115.3
X152.8Y-139.5
X154.0Y-105.0
X154.1Y-118.491
X154.8Y-116.5
X155.0Y-143.0
X156.337Y-108.458
T2
X105.0Y-109.5
X105.0Y-112.04
X105.0Y-118.0
X105.0Y-120.54
X105.0Y-123.08
X110.0Y-106.0
X112.54Y-106.0
X115.08Y-106.0
X122.0Y-108.0
X124.54Y-108.0
X127.08Y-108.0
X139.0Y-140.0
X139.0Y-142.54
X139.0Y-145.08
X141.54Y-140.0
X141.54Y-142.54
X141.54Y-145.08
X143.0Y-106.0
X145.54Y-106.0
X148.08Y-106.0
X150.62Y-106.0
X154.0Y-113.0
X156.0Y-129.0
X156.0Y-131.54
X156.0Y-134.08
X156.54Y-113.0
M30
