%TF.GenerationSoftware,KiCad,Pcbnew,9.0.3*%
%TF.CreationDate,2025-12-07T20:29:12-06:00*%
%TF.ProjectId,IsolatedADSBoard,49736f6c-6174-4656-9441-4453426f6172,rev?*%
%TF.SameCoordinates,Original*%
%TF.FileFunction,Copper,L4,Bot*%
%TF.FilePolarity,Positive*%
%FSLAX46Y46*%
G04 Gerber Fmt 4.6, Leading zero omitted, Abs format (unit mm)*
G04 Created by KiCad (PCBNEW 9.0.3) date 2025-12-07 20:29:12*
%MOMM*%
%LPD*%
G01*
G04 APERTURE LIST*
%TA.AperFunction,ComponentPad*%
%ADD10C,1.500000*%
%TD*%
%TA.AperFunction,ComponentPad*%
%ADD11R,1.700000X1.700000*%
%TD*%
%TA.AperFunction,ComponentPad*%
%ADD12C,1.700000*%
%TD*%
%TA.AperFunction,ViaPad*%
%ADD13C,0.600000*%
%TD*%
%TA.AperFunction,Conductor*%
%ADD14C,0.200000*%
%TD*%
G04 APERTURE END LIST*
D10*
%TO.P,U14,1,VIN-*%
%TO.N,GND*%
X134620000Y-48006000D03*
%TO.P,U14,2,VIN+*%
%TO.N,VDD*%
X137160000Y-48006000D03*
%TO.P,U14,3,Vout-*%
%TO.N,Gnd-iso*%
X139700000Y-48006000D03*
%TO.P,U14,4,Vout+*%
%TO.N,5V-iso*%
X142240000Y-48006000D03*
%TD*%
D11*
%TO.P,J2,1,Pin_1*%
%TO.N,5V-iso*%
X144780000Y-52070000D03*
D12*
%TO.P,J2,2,Pin_2*%
%TO.N,Gnd-iso*%
X144780000Y-54610000D03*
%TO.P,J2,3,Pin_3*%
%TO.N,/Signal2-ISO*%
X144780000Y-57150000D03*
%TO.P,J2,4,Pin_4*%
%TO.N,/Signal1-ISO*%
X144780000Y-59690000D03*
%TO.P,J2,5,Pin_5*%
%TO.N,/AIN3*%
X144780000Y-62230000D03*
%TO.P,J2,6,Pin_6*%
%TO.N,/AIN2*%
X144780000Y-64770000D03*
%TO.P,J2,7,Pin_7*%
%TO.N,/AIN1*%
X144780000Y-67310000D03*
%TO.P,J2,8,Pin_8*%
%TO.N,/AIN0*%
X144780000Y-69850000D03*
%TD*%
D11*
%TO.P,J1,1,Pin_1*%
%TO.N,VDD*%
X127000000Y-52070000D03*
D12*
%TO.P,J1,2,Pin_2*%
%TO.N,GND*%
X127000000Y-54610000D03*
%TO.P,J1,3,Pin_3*%
%TO.N,SDA*%
X127000000Y-57150000D03*
%TO.P,J1,4,Pin_4*%
%TO.N,SCL*%
X127000000Y-59690000D03*
%TO.P,J1,5,Pin_5*%
%TO.N,/Signal2-MCU*%
X127000000Y-62230000D03*
%TO.P,J1,6,Pin_6*%
%TO.N,/Signal1-MCU*%
X127000000Y-64770000D03*
%TD*%
D13*
%TO.N,Gnd-iso*%
X130810000Y-72390000D03*
X130302000Y-65532000D03*
X139700000Y-72136000D03*
X139954000Y-59563000D03*
X137414000Y-74168000D03*
%TO.N,5V-iso*%
X137922000Y-69850000D03*
X134112000Y-65532000D03*
X140716000Y-61976000D03*
X139954000Y-55753000D03*
%TO.N,GND*%
X129032000Y-44704000D03*
X132080000Y-58949500D03*
X129286000Y-62230000D03*
%TO.N,VDD*%
X133604000Y-60706000D03*
X131931500Y-55753000D03*
X129032000Y-45720000D03*
%TO.N,SCL-5V*%
X136271000Y-57277000D03*
X137299550Y-66687550D03*
%TO.N,SDA-5V*%
X137037000Y-56642000D03*
X138938000Y-66282000D03*
%TO.N,SDA*%
X131826000Y-57404000D03*
%TO.N,SCL*%
X135076499Y-57606499D03*
%TD*%
D14*
%TO.N,SCL-5V*%
X138430000Y-65557100D02*
X137299550Y-66687550D01*
X136271000Y-59309000D02*
X138430000Y-61468000D01*
X136271000Y-57277000D02*
X136271000Y-59309000D01*
X138430000Y-61468000D02*
X138430000Y-65557100D01*
%TO.N,SDA-5V*%
X137037000Y-58805000D02*
X137037000Y-56642000D01*
X138938000Y-66282000D02*
X138938000Y-60706000D01*
X138938000Y-60706000D02*
X137037000Y-58805000D01*
%TO.N,SDA*%
X127000000Y-57150000D02*
X131572000Y-57150000D01*
X131572000Y-57150000D02*
X131826000Y-57404000D01*
%TO.N,SCL*%
X133350000Y-58166000D02*
X133909501Y-57606499D01*
X133909501Y-57606499D02*
X135076499Y-57606499D01*
X131826000Y-58166000D02*
X133350000Y-58166000D01*
X127000000Y-59690000D02*
X130302000Y-59690000D01*
X130302000Y-59690000D02*
X131826000Y-58166000D01*
%TD*%
M02*
