%TF.GenerationSoftware,KiCad,Pcbnew,9.0.3*%
%TF.CreationDate,2025-12-07T20:29:13-06:00*%
%TF.ProjectId,IsolatedADSBoard,49736f6c-6174-4656-9441-4453426f6172,rev?*%
%TF.SameCoordinates,Original*%
%TF.FileFunction,Legend,Bot*%
%TF.FilePolarity,Positive*%
%FSLAX46Y46*%
G04 Gerber Fmt 4.6, Leading zero omitted, Abs format (unit mm)*
G04 Created by KiCad (PCBNEW 9.0.3) date 2025-12-07 20:29:13*
%MOMM*%
%LPD*%
G01*
G04 APERTURE LIST*
%ADD10C,0.100000*%
G04 APERTURE END LIST*
D10*
X130807734Y-57482800D02*
X130664877Y-57530419D01*
X130664877Y-57530419D02*
X130426782Y-57530419D01*
X130426782Y-57530419D02*
X130331544Y-57482800D01*
X130331544Y-57482800D02*
X130283925Y-57435180D01*
X130283925Y-57435180D02*
X130236306Y-57339942D01*
X130236306Y-57339942D02*
X130236306Y-57244704D01*
X130236306Y-57244704D02*
X130283925Y-57149466D01*
X130283925Y-57149466D02*
X130331544Y-57101847D01*
X130331544Y-57101847D02*
X130426782Y-57054228D01*
X130426782Y-57054228D02*
X130617258Y-57006609D01*
X130617258Y-57006609D02*
X130712496Y-56958990D01*
X130712496Y-56958990D02*
X130760115Y-56911371D01*
X130760115Y-56911371D02*
X130807734Y-56816133D01*
X130807734Y-56816133D02*
X130807734Y-56720895D01*
X130807734Y-56720895D02*
X130760115Y-56625657D01*
X130760115Y-56625657D02*
X130712496Y-56578038D01*
X130712496Y-56578038D02*
X130617258Y-56530419D01*
X130617258Y-56530419D02*
X130379163Y-56530419D01*
X130379163Y-56530419D02*
X130236306Y-56578038D01*
X129807734Y-57530419D02*
X129807734Y-56530419D01*
X129807734Y-56530419D02*
X129569639Y-56530419D01*
X129569639Y-56530419D02*
X129426782Y-56578038D01*
X129426782Y-56578038D02*
X129331544Y-56673276D01*
X129331544Y-56673276D02*
X129283925Y-56768514D01*
X129283925Y-56768514D02*
X129236306Y-56958990D01*
X129236306Y-56958990D02*
X129236306Y-57101847D01*
X129236306Y-57101847D02*
X129283925Y-57292323D01*
X129283925Y-57292323D02*
X129331544Y-57387561D01*
X129331544Y-57387561D02*
X129426782Y-57482800D01*
X129426782Y-57482800D02*
X129569639Y-57530419D01*
X129569639Y-57530419D02*
X129807734Y-57530419D01*
X128855353Y-57244704D02*
X128379163Y-57244704D01*
X128950591Y-57530419D02*
X128617258Y-56530419D01*
X128617258Y-56530419D02*
X128283925Y-57530419D01*
X134871734Y-65102800D02*
X134728877Y-65150419D01*
X134728877Y-65150419D02*
X134490782Y-65150419D01*
X134490782Y-65150419D02*
X134395544Y-65102800D01*
X134395544Y-65102800D02*
X134347925Y-65055180D01*
X134347925Y-65055180D02*
X134300306Y-64959942D01*
X134300306Y-64959942D02*
X134300306Y-64864704D01*
X134300306Y-64864704D02*
X134347925Y-64769466D01*
X134347925Y-64769466D02*
X134395544Y-64721847D01*
X134395544Y-64721847D02*
X134490782Y-64674228D01*
X134490782Y-64674228D02*
X134681258Y-64626609D01*
X134681258Y-64626609D02*
X134776496Y-64578990D01*
X134776496Y-64578990D02*
X134824115Y-64531371D01*
X134824115Y-64531371D02*
X134871734Y-64436133D01*
X134871734Y-64436133D02*
X134871734Y-64340895D01*
X134871734Y-64340895D02*
X134824115Y-64245657D01*
X134824115Y-64245657D02*
X134776496Y-64198038D01*
X134776496Y-64198038D02*
X134681258Y-64150419D01*
X134681258Y-64150419D02*
X134443163Y-64150419D01*
X134443163Y-64150419D02*
X134300306Y-64198038D01*
X133871734Y-65150419D02*
X133871734Y-64483752D01*
X133871734Y-64150419D02*
X133919353Y-64198038D01*
X133919353Y-64198038D02*
X133871734Y-64245657D01*
X133871734Y-64245657D02*
X133824115Y-64198038D01*
X133824115Y-64198038D02*
X133871734Y-64150419D01*
X133871734Y-64150419D02*
X133871734Y-64245657D01*
X132966973Y-64483752D02*
X132966973Y-65293276D01*
X132966973Y-65293276D02*
X133014592Y-65388514D01*
X133014592Y-65388514D02*
X133062211Y-65436133D01*
X133062211Y-65436133D02*
X133157449Y-65483752D01*
X133157449Y-65483752D02*
X133300306Y-65483752D01*
X133300306Y-65483752D02*
X133395544Y-65436133D01*
X132966973Y-65102800D02*
X133062211Y-65150419D01*
X133062211Y-65150419D02*
X133252687Y-65150419D01*
X133252687Y-65150419D02*
X133347925Y-65102800D01*
X133347925Y-65102800D02*
X133395544Y-65055180D01*
X133395544Y-65055180D02*
X133443163Y-64959942D01*
X133443163Y-64959942D02*
X133443163Y-64674228D01*
X133443163Y-64674228D02*
X133395544Y-64578990D01*
X133395544Y-64578990D02*
X133347925Y-64531371D01*
X133347925Y-64531371D02*
X133252687Y-64483752D01*
X133252687Y-64483752D02*
X133062211Y-64483752D01*
X133062211Y-64483752D02*
X132966973Y-64531371D01*
X132490782Y-64483752D02*
X132490782Y-65150419D01*
X132490782Y-64578990D02*
X132443163Y-64531371D01*
X132443163Y-64531371D02*
X132347925Y-64483752D01*
X132347925Y-64483752D02*
X132205068Y-64483752D01*
X132205068Y-64483752D02*
X132109830Y-64531371D01*
X132109830Y-64531371D02*
X132062211Y-64626609D01*
X132062211Y-64626609D02*
X132062211Y-65150419D01*
X131157449Y-65150419D02*
X131157449Y-64626609D01*
X131157449Y-64626609D02*
X131205068Y-64531371D01*
X131205068Y-64531371D02*
X131300306Y-64483752D01*
X131300306Y-64483752D02*
X131490782Y-64483752D01*
X131490782Y-64483752D02*
X131586020Y-64531371D01*
X131157449Y-65102800D02*
X131252687Y-65150419D01*
X131252687Y-65150419D02*
X131490782Y-65150419D01*
X131490782Y-65150419D02*
X131586020Y-65102800D01*
X131586020Y-65102800D02*
X131633639Y-65007561D01*
X131633639Y-65007561D02*
X131633639Y-64912323D01*
X131633639Y-64912323D02*
X131586020Y-64817085D01*
X131586020Y-64817085D02*
X131490782Y-64769466D01*
X131490782Y-64769466D02*
X131252687Y-64769466D01*
X131252687Y-64769466D02*
X131157449Y-64721847D01*
X130538401Y-65150419D02*
X130633639Y-65102800D01*
X130633639Y-65102800D02*
X130681258Y-65007561D01*
X130681258Y-65007561D02*
X130681258Y-64150419D01*
X130157448Y-64769466D02*
X129395544Y-64769466D01*
X128966972Y-64864704D02*
X128490782Y-64864704D01*
X129062210Y-65150419D02*
X128728877Y-64150419D01*
X128728877Y-64150419D02*
X128395544Y-65150419D01*
X142999734Y-67658704D02*
X142523544Y-67658704D01*
X143094972Y-67944419D02*
X142761639Y-66944419D01*
X142761639Y-66944419D02*
X142428306Y-67944419D01*
X141571163Y-67944419D02*
X142142591Y-67944419D01*
X141856877Y-67944419D02*
X141856877Y-66944419D01*
X141856877Y-66944419D02*
X141952115Y-67087276D01*
X141952115Y-67087276D02*
X142047353Y-67182514D01*
X142047353Y-67182514D02*
X142142591Y-67230133D01*
X142999734Y-62324704D02*
X142523544Y-62324704D01*
X143094972Y-62610419D02*
X142761639Y-61610419D01*
X142761639Y-61610419D02*
X142428306Y-62610419D01*
X142190210Y-61610419D02*
X141571163Y-61610419D01*
X141571163Y-61610419D02*
X141904496Y-61991371D01*
X141904496Y-61991371D02*
X141761639Y-61991371D01*
X141761639Y-61991371D02*
X141666401Y-62038990D01*
X141666401Y-62038990D02*
X141618782Y-62086609D01*
X141618782Y-62086609D02*
X141571163Y-62181847D01*
X141571163Y-62181847D02*
X141571163Y-62419942D01*
X141571163Y-62419942D02*
X141618782Y-62515180D01*
X141618782Y-62515180D02*
X141666401Y-62562800D01*
X141666401Y-62562800D02*
X141761639Y-62610419D01*
X141761639Y-62610419D02*
X142047353Y-62610419D01*
X142047353Y-62610419D02*
X142142591Y-62562800D01*
X142142591Y-62562800D02*
X142190210Y-62515180D01*
X140967734Y-43950760D02*
X140491544Y-43950760D01*
X141062972Y-44236475D02*
X140729639Y-43236475D01*
X140729639Y-43236475D02*
X140396306Y-44236475D01*
X140062972Y-44236475D02*
X140062972Y-43236475D01*
X140062972Y-43236475D02*
X139824877Y-43236475D01*
X139824877Y-43236475D02*
X139682020Y-43284094D01*
X139682020Y-43284094D02*
X139586782Y-43379332D01*
X139586782Y-43379332D02*
X139539163Y-43474570D01*
X139539163Y-43474570D02*
X139491544Y-43665046D01*
X139491544Y-43665046D02*
X139491544Y-43807903D01*
X139491544Y-43807903D02*
X139539163Y-43998379D01*
X139539163Y-43998379D02*
X139586782Y-44093617D01*
X139586782Y-44093617D02*
X139682020Y-44188856D01*
X139682020Y-44188856D02*
X139824877Y-44236475D01*
X139824877Y-44236475D02*
X140062972Y-44236475D01*
X139110591Y-44188856D02*
X138967734Y-44236475D01*
X138967734Y-44236475D02*
X138729639Y-44236475D01*
X138729639Y-44236475D02*
X138634401Y-44188856D01*
X138634401Y-44188856D02*
X138586782Y-44141236D01*
X138586782Y-44141236D02*
X138539163Y-44045998D01*
X138539163Y-44045998D02*
X138539163Y-43950760D01*
X138539163Y-43950760D02*
X138586782Y-43855522D01*
X138586782Y-43855522D02*
X138634401Y-43807903D01*
X138634401Y-43807903D02*
X138729639Y-43760284D01*
X138729639Y-43760284D02*
X138920115Y-43712665D01*
X138920115Y-43712665D02*
X139015353Y-43665046D01*
X139015353Y-43665046D02*
X139062972Y-43617427D01*
X139062972Y-43617427D02*
X139110591Y-43522189D01*
X139110591Y-43522189D02*
X139110591Y-43426951D01*
X139110591Y-43426951D02*
X139062972Y-43331713D01*
X139062972Y-43331713D02*
X139015353Y-43284094D01*
X139015353Y-43284094D02*
X138920115Y-43236475D01*
X138920115Y-43236475D02*
X138682020Y-43236475D01*
X138682020Y-43236475D02*
X138539163Y-43284094D01*
X137348686Y-44236475D02*
X137348686Y-43236475D01*
X136920115Y-44188856D02*
X136824877Y-44236475D01*
X136824877Y-44236475D02*
X136634401Y-44236475D01*
X136634401Y-44236475D02*
X136539163Y-44188856D01*
X136539163Y-44188856D02*
X136491544Y-44093617D01*
X136491544Y-44093617D02*
X136491544Y-44045998D01*
X136491544Y-44045998D02*
X136539163Y-43950760D01*
X136539163Y-43950760D02*
X136634401Y-43903141D01*
X136634401Y-43903141D02*
X136777258Y-43903141D01*
X136777258Y-43903141D02*
X136872496Y-43855522D01*
X136872496Y-43855522D02*
X136920115Y-43760284D01*
X136920115Y-43760284D02*
X136920115Y-43712665D01*
X136920115Y-43712665D02*
X136872496Y-43617427D01*
X136872496Y-43617427D02*
X136777258Y-43569808D01*
X136777258Y-43569808D02*
X136634401Y-43569808D01*
X136634401Y-43569808D02*
X136539163Y-43617427D01*
X135920115Y-44236475D02*
X136015353Y-44188856D01*
X136015353Y-44188856D02*
X136062972Y-44141236D01*
X136062972Y-44141236D02*
X136110591Y-44045998D01*
X136110591Y-44045998D02*
X136110591Y-43760284D01*
X136110591Y-43760284D02*
X136062972Y-43665046D01*
X136062972Y-43665046D02*
X136015353Y-43617427D01*
X136015353Y-43617427D02*
X135920115Y-43569808D01*
X135920115Y-43569808D02*
X135777258Y-43569808D01*
X135777258Y-43569808D02*
X135682020Y-43617427D01*
X135682020Y-43617427D02*
X135634401Y-43665046D01*
X135634401Y-43665046D02*
X135586782Y-43760284D01*
X135586782Y-43760284D02*
X135586782Y-44045998D01*
X135586782Y-44045998D02*
X135634401Y-44141236D01*
X135634401Y-44141236D02*
X135682020Y-44188856D01*
X135682020Y-44188856D02*
X135777258Y-44236475D01*
X135777258Y-44236475D02*
X135920115Y-44236475D01*
X134062972Y-43712665D02*
X133920115Y-43760284D01*
X133920115Y-43760284D02*
X133872496Y-43807903D01*
X133872496Y-43807903D02*
X133824877Y-43903141D01*
X133824877Y-43903141D02*
X133824877Y-44045998D01*
X133824877Y-44045998D02*
X133872496Y-44141236D01*
X133872496Y-44141236D02*
X133920115Y-44188856D01*
X133920115Y-44188856D02*
X134015353Y-44236475D01*
X134015353Y-44236475D02*
X134396305Y-44236475D01*
X134396305Y-44236475D02*
X134396305Y-43236475D01*
X134396305Y-43236475D02*
X134062972Y-43236475D01*
X134062972Y-43236475D02*
X133967734Y-43284094D01*
X133967734Y-43284094D02*
X133920115Y-43331713D01*
X133920115Y-43331713D02*
X133872496Y-43426951D01*
X133872496Y-43426951D02*
X133872496Y-43522189D01*
X133872496Y-43522189D02*
X133920115Y-43617427D01*
X133920115Y-43617427D02*
X133967734Y-43665046D01*
X133967734Y-43665046D02*
X134062972Y-43712665D01*
X134062972Y-43712665D02*
X134396305Y-43712665D01*
X133253448Y-44236475D02*
X133348686Y-44188856D01*
X133348686Y-44188856D02*
X133396305Y-44141236D01*
X133396305Y-44141236D02*
X133443924Y-44045998D01*
X133443924Y-44045998D02*
X133443924Y-43760284D01*
X133443924Y-43760284D02*
X133396305Y-43665046D01*
X133396305Y-43665046D02*
X133348686Y-43617427D01*
X133348686Y-43617427D02*
X133253448Y-43569808D01*
X133253448Y-43569808D02*
X133110591Y-43569808D01*
X133110591Y-43569808D02*
X133015353Y-43617427D01*
X133015353Y-43617427D02*
X132967734Y-43665046D01*
X132967734Y-43665046D02*
X132920115Y-43760284D01*
X132920115Y-43760284D02*
X132920115Y-44045998D01*
X132920115Y-44045998D02*
X132967734Y-44141236D01*
X132967734Y-44141236D02*
X133015353Y-44188856D01*
X133015353Y-44188856D02*
X133110591Y-44236475D01*
X133110591Y-44236475D02*
X133253448Y-44236475D01*
X132062972Y-44236475D02*
X132062972Y-43712665D01*
X132062972Y-43712665D02*
X132110591Y-43617427D01*
X132110591Y-43617427D02*
X132205829Y-43569808D01*
X132205829Y-43569808D02*
X132396305Y-43569808D01*
X132396305Y-43569808D02*
X132491543Y-43617427D01*
X132062972Y-44188856D02*
X132158210Y-44236475D01*
X132158210Y-44236475D02*
X132396305Y-44236475D01*
X132396305Y-44236475D02*
X132491543Y-44188856D01*
X132491543Y-44188856D02*
X132539162Y-44093617D01*
X132539162Y-44093617D02*
X132539162Y-43998379D01*
X132539162Y-43998379D02*
X132491543Y-43903141D01*
X132491543Y-43903141D02*
X132396305Y-43855522D01*
X132396305Y-43855522D02*
X132158210Y-43855522D01*
X132158210Y-43855522D02*
X132062972Y-43807903D01*
X131586781Y-44236475D02*
X131586781Y-43569808D01*
X131586781Y-43760284D02*
X131539162Y-43665046D01*
X131539162Y-43665046D02*
X131491543Y-43617427D01*
X131491543Y-43617427D02*
X131396305Y-43569808D01*
X131396305Y-43569808D02*
X131301067Y-43569808D01*
X130539162Y-44236475D02*
X130539162Y-43236475D01*
X130539162Y-44188856D02*
X130634400Y-44236475D01*
X130634400Y-44236475D02*
X130824876Y-44236475D01*
X130824876Y-44236475D02*
X130920114Y-44188856D01*
X130920114Y-44188856D02*
X130967733Y-44141236D01*
X130967733Y-44141236D02*
X131015352Y-44045998D01*
X131015352Y-44045998D02*
X131015352Y-43760284D01*
X131015352Y-43760284D02*
X130967733Y-43665046D01*
X130967733Y-43665046D02*
X130920114Y-43617427D01*
X130920114Y-43617427D02*
X130824876Y-43569808D01*
X130824876Y-43569808D02*
X130634400Y-43569808D01*
X130634400Y-43569808D02*
X130539162Y-43617427D01*
X141062972Y-44846419D02*
X140729639Y-45846419D01*
X140729639Y-45846419D02*
X140396306Y-44846419D01*
X139539163Y-45846419D02*
X140110591Y-45846419D01*
X139824877Y-45846419D02*
X139824877Y-44846419D01*
X139824877Y-44846419D02*
X139920115Y-44989276D01*
X139920115Y-44989276D02*
X140015353Y-45084514D01*
X140015353Y-45084514D02*
X140110591Y-45132133D01*
X138158210Y-44846419D02*
X137967734Y-44846419D01*
X137967734Y-44846419D02*
X137872496Y-44894038D01*
X137872496Y-44894038D02*
X137777258Y-44989276D01*
X137777258Y-44989276D02*
X137729639Y-45179752D01*
X137729639Y-45179752D02*
X137729639Y-45513085D01*
X137729639Y-45513085D02*
X137777258Y-45703561D01*
X137777258Y-45703561D02*
X137872496Y-45798800D01*
X137872496Y-45798800D02*
X137967734Y-45846419D01*
X137967734Y-45846419D02*
X138158210Y-45846419D01*
X138158210Y-45846419D02*
X138253448Y-45798800D01*
X138253448Y-45798800D02*
X138348686Y-45703561D01*
X138348686Y-45703561D02*
X138396305Y-45513085D01*
X138396305Y-45513085D02*
X138396305Y-45179752D01*
X138396305Y-45179752D02*
X138348686Y-44989276D01*
X138348686Y-44989276D02*
X138253448Y-44894038D01*
X138253448Y-44894038D02*
X138158210Y-44846419D01*
X137301067Y-45846419D02*
X137301067Y-44846419D01*
X136824877Y-45846419D02*
X136824877Y-44846419D01*
X136824877Y-45322609D02*
X136253449Y-45322609D01*
X136253449Y-45846419D02*
X136253449Y-44846419D01*
X135015353Y-45846419D02*
X135015353Y-44846419D01*
X135015353Y-44846419D02*
X134777258Y-44846419D01*
X134777258Y-44846419D02*
X134634401Y-44894038D01*
X134634401Y-44894038D02*
X134539163Y-44989276D01*
X134539163Y-44989276D02*
X134491544Y-45084514D01*
X134491544Y-45084514D02*
X134443925Y-45274990D01*
X134443925Y-45274990D02*
X134443925Y-45417847D01*
X134443925Y-45417847D02*
X134491544Y-45608323D01*
X134491544Y-45608323D02*
X134539163Y-45703561D01*
X134539163Y-45703561D02*
X134634401Y-45798800D01*
X134634401Y-45798800D02*
X134777258Y-45846419D01*
X134777258Y-45846419D02*
X135015353Y-45846419D01*
X133634401Y-45798800D02*
X133729639Y-45846419D01*
X133729639Y-45846419D02*
X133920115Y-45846419D01*
X133920115Y-45846419D02*
X134015353Y-45798800D01*
X134015353Y-45798800D02*
X134062972Y-45703561D01*
X134062972Y-45703561D02*
X134062972Y-45322609D01*
X134062972Y-45322609D02*
X134015353Y-45227371D01*
X134015353Y-45227371D02*
X133920115Y-45179752D01*
X133920115Y-45179752D02*
X133729639Y-45179752D01*
X133729639Y-45179752D02*
X133634401Y-45227371D01*
X133634401Y-45227371D02*
X133586782Y-45322609D01*
X133586782Y-45322609D02*
X133586782Y-45417847D01*
X133586782Y-45417847D02*
X134062972Y-45513085D01*
X133205829Y-45798800D02*
X133110591Y-45846419D01*
X133110591Y-45846419D02*
X132920115Y-45846419D01*
X132920115Y-45846419D02*
X132824877Y-45798800D01*
X132824877Y-45798800D02*
X132777258Y-45703561D01*
X132777258Y-45703561D02*
X132777258Y-45655942D01*
X132777258Y-45655942D02*
X132824877Y-45560704D01*
X132824877Y-45560704D02*
X132920115Y-45513085D01*
X132920115Y-45513085D02*
X133062972Y-45513085D01*
X133062972Y-45513085D02*
X133158210Y-45465466D01*
X133158210Y-45465466D02*
X133205829Y-45370228D01*
X133205829Y-45370228D02*
X133205829Y-45322609D01*
X133205829Y-45322609D02*
X133158210Y-45227371D01*
X133158210Y-45227371D02*
X133062972Y-45179752D01*
X133062972Y-45179752D02*
X132920115Y-45179752D01*
X132920115Y-45179752D02*
X132824877Y-45227371D01*
X132348686Y-45846419D02*
X132348686Y-45179752D01*
X132348686Y-44846419D02*
X132396305Y-44894038D01*
X132396305Y-44894038D02*
X132348686Y-44941657D01*
X132348686Y-44941657D02*
X132301067Y-44894038D01*
X132301067Y-44894038D02*
X132348686Y-44846419D01*
X132348686Y-44846419D02*
X132348686Y-44941657D01*
X131443925Y-45179752D02*
X131443925Y-45989276D01*
X131443925Y-45989276D02*
X131491544Y-46084514D01*
X131491544Y-46084514D02*
X131539163Y-46132133D01*
X131539163Y-46132133D02*
X131634401Y-46179752D01*
X131634401Y-46179752D02*
X131777258Y-46179752D01*
X131777258Y-46179752D02*
X131872496Y-46132133D01*
X131443925Y-45798800D02*
X131539163Y-45846419D01*
X131539163Y-45846419D02*
X131729639Y-45846419D01*
X131729639Y-45846419D02*
X131824877Y-45798800D01*
X131824877Y-45798800D02*
X131872496Y-45751180D01*
X131872496Y-45751180D02*
X131920115Y-45655942D01*
X131920115Y-45655942D02*
X131920115Y-45370228D01*
X131920115Y-45370228D02*
X131872496Y-45274990D01*
X131872496Y-45274990D02*
X131824877Y-45227371D01*
X131824877Y-45227371D02*
X131729639Y-45179752D01*
X131729639Y-45179752D02*
X131539163Y-45179752D01*
X131539163Y-45179752D02*
X131443925Y-45227371D01*
X130967734Y-45179752D02*
X130967734Y-45846419D01*
X130967734Y-45274990D02*
X130920115Y-45227371D01*
X130920115Y-45227371D02*
X130824877Y-45179752D01*
X130824877Y-45179752D02*
X130682020Y-45179752D01*
X130682020Y-45179752D02*
X130586782Y-45227371D01*
X130586782Y-45227371D02*
X130539163Y-45322609D01*
X130539163Y-45322609D02*
X130539163Y-45846419D01*
X130110591Y-45798800D02*
X130015353Y-45846419D01*
X130015353Y-45846419D02*
X129824877Y-45846419D01*
X129824877Y-45846419D02*
X129729639Y-45798800D01*
X129729639Y-45798800D02*
X129682020Y-45703561D01*
X129682020Y-45703561D02*
X129682020Y-45655942D01*
X129682020Y-45655942D02*
X129729639Y-45560704D01*
X129729639Y-45560704D02*
X129824877Y-45513085D01*
X129824877Y-45513085D02*
X129967734Y-45513085D01*
X129967734Y-45513085D02*
X130062972Y-45465466D01*
X130062972Y-45465466D02*
X130110591Y-45370228D01*
X130110591Y-45370228D02*
X130110591Y-45322609D01*
X130110591Y-45322609D02*
X130062972Y-45227371D01*
X130062972Y-45227371D02*
X129967734Y-45179752D01*
X129967734Y-45179752D02*
X129824877Y-45179752D01*
X129824877Y-45179752D02*
X129729639Y-45227371D01*
X142682306Y-54038038D02*
X142777544Y-53990419D01*
X142777544Y-53990419D02*
X142920401Y-53990419D01*
X142920401Y-53990419D02*
X143063258Y-54038038D01*
X143063258Y-54038038D02*
X143158496Y-54133276D01*
X143158496Y-54133276D02*
X143206115Y-54228514D01*
X143206115Y-54228514D02*
X143253734Y-54418990D01*
X143253734Y-54418990D02*
X143253734Y-54561847D01*
X143253734Y-54561847D02*
X143206115Y-54752323D01*
X143206115Y-54752323D02*
X143158496Y-54847561D01*
X143158496Y-54847561D02*
X143063258Y-54942800D01*
X143063258Y-54942800D02*
X142920401Y-54990419D01*
X142920401Y-54990419D02*
X142825163Y-54990419D01*
X142825163Y-54990419D02*
X142682306Y-54942800D01*
X142682306Y-54942800D02*
X142634687Y-54895180D01*
X142634687Y-54895180D02*
X142634687Y-54561847D01*
X142634687Y-54561847D02*
X142825163Y-54561847D01*
X142206115Y-54323752D02*
X142206115Y-54990419D01*
X142206115Y-54418990D02*
X142158496Y-54371371D01*
X142158496Y-54371371D02*
X142063258Y-54323752D01*
X142063258Y-54323752D02*
X141920401Y-54323752D01*
X141920401Y-54323752D02*
X141825163Y-54371371D01*
X141825163Y-54371371D02*
X141777544Y-54466609D01*
X141777544Y-54466609D02*
X141777544Y-54990419D01*
X140872782Y-54990419D02*
X140872782Y-53990419D01*
X140872782Y-54942800D02*
X140968020Y-54990419D01*
X140968020Y-54990419D02*
X141158496Y-54990419D01*
X141158496Y-54990419D02*
X141253734Y-54942800D01*
X141253734Y-54942800D02*
X141301353Y-54895180D01*
X141301353Y-54895180D02*
X141348972Y-54799942D01*
X141348972Y-54799942D02*
X141348972Y-54514228D01*
X141348972Y-54514228D02*
X141301353Y-54418990D01*
X141301353Y-54418990D02*
X141253734Y-54371371D01*
X141253734Y-54371371D02*
X141158496Y-54323752D01*
X141158496Y-54323752D02*
X140968020Y-54323752D01*
X140968020Y-54323752D02*
X140872782Y-54371371D01*
X140396591Y-54609466D02*
X139634687Y-54609466D01*
X139158496Y-54990419D02*
X139158496Y-53990419D01*
X138729925Y-54942800D02*
X138634687Y-54990419D01*
X138634687Y-54990419D02*
X138444211Y-54990419D01*
X138444211Y-54990419D02*
X138348973Y-54942800D01*
X138348973Y-54942800D02*
X138301354Y-54847561D01*
X138301354Y-54847561D02*
X138301354Y-54799942D01*
X138301354Y-54799942D02*
X138348973Y-54704704D01*
X138348973Y-54704704D02*
X138444211Y-54657085D01*
X138444211Y-54657085D02*
X138587068Y-54657085D01*
X138587068Y-54657085D02*
X138682306Y-54609466D01*
X138682306Y-54609466D02*
X138729925Y-54514228D01*
X138729925Y-54514228D02*
X138729925Y-54466609D01*
X138729925Y-54466609D02*
X138682306Y-54371371D01*
X138682306Y-54371371D02*
X138587068Y-54323752D01*
X138587068Y-54323752D02*
X138444211Y-54323752D01*
X138444211Y-54323752D02*
X138348973Y-54371371D01*
X137729925Y-54990419D02*
X137825163Y-54942800D01*
X137825163Y-54942800D02*
X137872782Y-54895180D01*
X137872782Y-54895180D02*
X137920401Y-54799942D01*
X137920401Y-54799942D02*
X137920401Y-54514228D01*
X137920401Y-54514228D02*
X137872782Y-54418990D01*
X137872782Y-54418990D02*
X137825163Y-54371371D01*
X137825163Y-54371371D02*
X137729925Y-54323752D01*
X137729925Y-54323752D02*
X137587068Y-54323752D01*
X137587068Y-54323752D02*
X137491830Y-54371371D01*
X137491830Y-54371371D02*
X137444211Y-54418990D01*
X137444211Y-54418990D02*
X137396592Y-54514228D01*
X137396592Y-54514228D02*
X137396592Y-54799942D01*
X137396592Y-54799942D02*
X137444211Y-54895180D01*
X137444211Y-54895180D02*
X137491830Y-54942800D01*
X137491830Y-54942800D02*
X137587068Y-54990419D01*
X137587068Y-54990419D02*
X137729925Y-54990419D01*
X130807734Y-60022800D02*
X130664877Y-60070419D01*
X130664877Y-60070419D02*
X130426782Y-60070419D01*
X130426782Y-60070419D02*
X130331544Y-60022800D01*
X130331544Y-60022800D02*
X130283925Y-59975180D01*
X130283925Y-59975180D02*
X130236306Y-59879942D01*
X130236306Y-59879942D02*
X130236306Y-59784704D01*
X130236306Y-59784704D02*
X130283925Y-59689466D01*
X130283925Y-59689466D02*
X130331544Y-59641847D01*
X130331544Y-59641847D02*
X130426782Y-59594228D01*
X130426782Y-59594228D02*
X130617258Y-59546609D01*
X130617258Y-59546609D02*
X130712496Y-59498990D01*
X130712496Y-59498990D02*
X130760115Y-59451371D01*
X130760115Y-59451371D02*
X130807734Y-59356133D01*
X130807734Y-59356133D02*
X130807734Y-59260895D01*
X130807734Y-59260895D02*
X130760115Y-59165657D01*
X130760115Y-59165657D02*
X130712496Y-59118038D01*
X130712496Y-59118038D02*
X130617258Y-59070419D01*
X130617258Y-59070419D02*
X130379163Y-59070419D01*
X130379163Y-59070419D02*
X130236306Y-59118038D01*
X129236306Y-59975180D02*
X129283925Y-60022800D01*
X129283925Y-60022800D02*
X129426782Y-60070419D01*
X129426782Y-60070419D02*
X129522020Y-60070419D01*
X129522020Y-60070419D02*
X129664877Y-60022800D01*
X129664877Y-60022800D02*
X129760115Y-59927561D01*
X129760115Y-59927561D02*
X129807734Y-59832323D01*
X129807734Y-59832323D02*
X129855353Y-59641847D01*
X129855353Y-59641847D02*
X129855353Y-59498990D01*
X129855353Y-59498990D02*
X129807734Y-59308514D01*
X129807734Y-59308514D02*
X129760115Y-59213276D01*
X129760115Y-59213276D02*
X129664877Y-59118038D01*
X129664877Y-59118038D02*
X129522020Y-59070419D01*
X129522020Y-59070419D02*
X129426782Y-59070419D01*
X129426782Y-59070419D02*
X129283925Y-59118038D01*
X129283925Y-59118038D02*
X129236306Y-59165657D01*
X128331544Y-60070419D02*
X128807734Y-60070419D01*
X128807734Y-60070419D02*
X128807734Y-59070419D01*
X142729925Y-51704419D02*
X143206115Y-51704419D01*
X143206115Y-51704419D02*
X143253734Y-52180609D01*
X143253734Y-52180609D02*
X143206115Y-52132990D01*
X143206115Y-52132990D02*
X143110877Y-52085371D01*
X143110877Y-52085371D02*
X142872782Y-52085371D01*
X142872782Y-52085371D02*
X142777544Y-52132990D01*
X142777544Y-52132990D02*
X142729925Y-52180609D01*
X142729925Y-52180609D02*
X142682306Y-52275847D01*
X142682306Y-52275847D02*
X142682306Y-52513942D01*
X142682306Y-52513942D02*
X142729925Y-52609180D01*
X142729925Y-52609180D02*
X142777544Y-52656800D01*
X142777544Y-52656800D02*
X142872782Y-52704419D01*
X142872782Y-52704419D02*
X143110877Y-52704419D01*
X143110877Y-52704419D02*
X143206115Y-52656800D01*
X143206115Y-52656800D02*
X143253734Y-52609180D01*
X142348972Y-52037752D02*
X142110877Y-52704419D01*
X142110877Y-52704419D02*
X141872782Y-52037752D01*
X141491829Y-52323466D02*
X140729925Y-52323466D01*
X140253734Y-52704419D02*
X140253734Y-51704419D01*
X139825163Y-52656800D02*
X139729925Y-52704419D01*
X139729925Y-52704419D02*
X139539449Y-52704419D01*
X139539449Y-52704419D02*
X139444211Y-52656800D01*
X139444211Y-52656800D02*
X139396592Y-52561561D01*
X139396592Y-52561561D02*
X139396592Y-52513942D01*
X139396592Y-52513942D02*
X139444211Y-52418704D01*
X139444211Y-52418704D02*
X139539449Y-52371085D01*
X139539449Y-52371085D02*
X139682306Y-52371085D01*
X139682306Y-52371085D02*
X139777544Y-52323466D01*
X139777544Y-52323466D02*
X139825163Y-52228228D01*
X139825163Y-52228228D02*
X139825163Y-52180609D01*
X139825163Y-52180609D02*
X139777544Y-52085371D01*
X139777544Y-52085371D02*
X139682306Y-52037752D01*
X139682306Y-52037752D02*
X139539449Y-52037752D01*
X139539449Y-52037752D02*
X139444211Y-52085371D01*
X138825163Y-52704419D02*
X138920401Y-52656800D01*
X138920401Y-52656800D02*
X138968020Y-52609180D01*
X138968020Y-52609180D02*
X139015639Y-52513942D01*
X139015639Y-52513942D02*
X139015639Y-52228228D01*
X139015639Y-52228228D02*
X138968020Y-52132990D01*
X138968020Y-52132990D02*
X138920401Y-52085371D01*
X138920401Y-52085371D02*
X138825163Y-52037752D01*
X138825163Y-52037752D02*
X138682306Y-52037752D01*
X138682306Y-52037752D02*
X138587068Y-52085371D01*
X138587068Y-52085371D02*
X138539449Y-52132990D01*
X138539449Y-52132990D02*
X138491830Y-52228228D01*
X138491830Y-52228228D02*
X138491830Y-52513942D01*
X138491830Y-52513942D02*
X138539449Y-52609180D01*
X138539449Y-52609180D02*
X138587068Y-52656800D01*
X138587068Y-52656800D02*
X138682306Y-52704419D01*
X138682306Y-52704419D02*
X138825163Y-52704419D01*
X142999734Y-64864704D02*
X142523544Y-64864704D01*
X143094972Y-65150419D02*
X142761639Y-64150419D01*
X142761639Y-64150419D02*
X142428306Y-65150419D01*
X142142591Y-64245657D02*
X142094972Y-64198038D01*
X142094972Y-64198038D02*
X141999734Y-64150419D01*
X141999734Y-64150419D02*
X141761639Y-64150419D01*
X141761639Y-64150419D02*
X141666401Y-64198038D01*
X141666401Y-64198038D02*
X141618782Y-64245657D01*
X141618782Y-64245657D02*
X141571163Y-64340895D01*
X141571163Y-64340895D02*
X141571163Y-64436133D01*
X141571163Y-64436133D02*
X141618782Y-64578990D01*
X141618782Y-64578990D02*
X142190210Y-65150419D01*
X142190210Y-65150419D02*
X141571163Y-65150419D01*
X131156972Y-51704419D02*
X130823639Y-52704419D01*
X130823639Y-52704419D02*
X130490306Y-51704419D01*
X129728401Y-52704419D02*
X129728401Y-51704419D01*
X129728401Y-52656800D02*
X129823639Y-52704419D01*
X129823639Y-52704419D02*
X130014115Y-52704419D01*
X130014115Y-52704419D02*
X130109353Y-52656800D01*
X130109353Y-52656800D02*
X130156972Y-52609180D01*
X130156972Y-52609180D02*
X130204591Y-52513942D01*
X130204591Y-52513942D02*
X130204591Y-52228228D01*
X130204591Y-52228228D02*
X130156972Y-52132990D01*
X130156972Y-52132990D02*
X130109353Y-52085371D01*
X130109353Y-52085371D02*
X130014115Y-52037752D01*
X130014115Y-52037752D02*
X129823639Y-52037752D01*
X129823639Y-52037752D02*
X129728401Y-52085371D01*
X128823639Y-52704419D02*
X128823639Y-51704419D01*
X128823639Y-52656800D02*
X128918877Y-52704419D01*
X128918877Y-52704419D02*
X129109353Y-52704419D01*
X129109353Y-52704419D02*
X129204591Y-52656800D01*
X129204591Y-52656800D02*
X129252210Y-52609180D01*
X129252210Y-52609180D02*
X129299829Y-52513942D01*
X129299829Y-52513942D02*
X129299829Y-52228228D01*
X129299829Y-52228228D02*
X129252210Y-52132990D01*
X129252210Y-52132990D02*
X129204591Y-52085371D01*
X129204591Y-52085371D02*
X129109353Y-52037752D01*
X129109353Y-52037752D02*
X128918877Y-52037752D01*
X128918877Y-52037752D02*
X128823639Y-52085371D01*
X142999734Y-60276800D02*
X142856877Y-60324419D01*
X142856877Y-60324419D02*
X142618782Y-60324419D01*
X142618782Y-60324419D02*
X142523544Y-60276800D01*
X142523544Y-60276800D02*
X142475925Y-60229180D01*
X142475925Y-60229180D02*
X142428306Y-60133942D01*
X142428306Y-60133942D02*
X142428306Y-60038704D01*
X142428306Y-60038704D02*
X142475925Y-59943466D01*
X142475925Y-59943466D02*
X142523544Y-59895847D01*
X142523544Y-59895847D02*
X142618782Y-59848228D01*
X142618782Y-59848228D02*
X142809258Y-59800609D01*
X142809258Y-59800609D02*
X142904496Y-59752990D01*
X142904496Y-59752990D02*
X142952115Y-59705371D01*
X142952115Y-59705371D02*
X142999734Y-59610133D01*
X142999734Y-59610133D02*
X142999734Y-59514895D01*
X142999734Y-59514895D02*
X142952115Y-59419657D01*
X142952115Y-59419657D02*
X142904496Y-59372038D01*
X142904496Y-59372038D02*
X142809258Y-59324419D01*
X142809258Y-59324419D02*
X142571163Y-59324419D01*
X142571163Y-59324419D02*
X142428306Y-59372038D01*
X141999734Y-60324419D02*
X141999734Y-59657752D01*
X141999734Y-59324419D02*
X142047353Y-59372038D01*
X142047353Y-59372038D02*
X141999734Y-59419657D01*
X141999734Y-59419657D02*
X141952115Y-59372038D01*
X141952115Y-59372038D02*
X141999734Y-59324419D01*
X141999734Y-59324419D02*
X141999734Y-59419657D01*
X141094973Y-59657752D02*
X141094973Y-60467276D01*
X141094973Y-60467276D02*
X141142592Y-60562514D01*
X141142592Y-60562514D02*
X141190211Y-60610133D01*
X141190211Y-60610133D02*
X141285449Y-60657752D01*
X141285449Y-60657752D02*
X141428306Y-60657752D01*
X141428306Y-60657752D02*
X141523544Y-60610133D01*
X141094973Y-60276800D02*
X141190211Y-60324419D01*
X141190211Y-60324419D02*
X141380687Y-60324419D01*
X141380687Y-60324419D02*
X141475925Y-60276800D01*
X141475925Y-60276800D02*
X141523544Y-60229180D01*
X141523544Y-60229180D02*
X141571163Y-60133942D01*
X141571163Y-60133942D02*
X141571163Y-59848228D01*
X141571163Y-59848228D02*
X141523544Y-59752990D01*
X141523544Y-59752990D02*
X141475925Y-59705371D01*
X141475925Y-59705371D02*
X141380687Y-59657752D01*
X141380687Y-59657752D02*
X141190211Y-59657752D01*
X141190211Y-59657752D02*
X141094973Y-59705371D01*
X140618782Y-59657752D02*
X140618782Y-60324419D01*
X140618782Y-59752990D02*
X140571163Y-59705371D01*
X140571163Y-59705371D02*
X140475925Y-59657752D01*
X140475925Y-59657752D02*
X140333068Y-59657752D01*
X140333068Y-59657752D02*
X140237830Y-59705371D01*
X140237830Y-59705371D02*
X140190211Y-59800609D01*
X140190211Y-59800609D02*
X140190211Y-60324419D01*
X139285449Y-60324419D02*
X139285449Y-59800609D01*
X139285449Y-59800609D02*
X139333068Y-59705371D01*
X139333068Y-59705371D02*
X139428306Y-59657752D01*
X139428306Y-59657752D02*
X139618782Y-59657752D01*
X139618782Y-59657752D02*
X139714020Y-59705371D01*
X139285449Y-60276800D02*
X139380687Y-60324419D01*
X139380687Y-60324419D02*
X139618782Y-60324419D01*
X139618782Y-60324419D02*
X139714020Y-60276800D01*
X139714020Y-60276800D02*
X139761639Y-60181561D01*
X139761639Y-60181561D02*
X139761639Y-60086323D01*
X139761639Y-60086323D02*
X139714020Y-59991085D01*
X139714020Y-59991085D02*
X139618782Y-59943466D01*
X139618782Y-59943466D02*
X139380687Y-59943466D01*
X139380687Y-59943466D02*
X139285449Y-59895847D01*
X138666401Y-60324419D02*
X138761639Y-60276800D01*
X138761639Y-60276800D02*
X138809258Y-60181561D01*
X138809258Y-60181561D02*
X138809258Y-59324419D01*
X138285448Y-59943466D02*
X137523544Y-59943466D01*
X137094972Y-60038704D02*
X136618782Y-60038704D01*
X137190210Y-60324419D02*
X136856877Y-59324419D01*
X136856877Y-59324419D02*
X136523544Y-60324419D01*
X142999734Y-57736800D02*
X142856877Y-57784419D01*
X142856877Y-57784419D02*
X142618782Y-57784419D01*
X142618782Y-57784419D02*
X142523544Y-57736800D01*
X142523544Y-57736800D02*
X142475925Y-57689180D01*
X142475925Y-57689180D02*
X142428306Y-57593942D01*
X142428306Y-57593942D02*
X142428306Y-57498704D01*
X142428306Y-57498704D02*
X142475925Y-57403466D01*
X142475925Y-57403466D02*
X142523544Y-57355847D01*
X142523544Y-57355847D02*
X142618782Y-57308228D01*
X142618782Y-57308228D02*
X142809258Y-57260609D01*
X142809258Y-57260609D02*
X142904496Y-57212990D01*
X142904496Y-57212990D02*
X142952115Y-57165371D01*
X142952115Y-57165371D02*
X142999734Y-57070133D01*
X142999734Y-57070133D02*
X142999734Y-56974895D01*
X142999734Y-56974895D02*
X142952115Y-56879657D01*
X142952115Y-56879657D02*
X142904496Y-56832038D01*
X142904496Y-56832038D02*
X142809258Y-56784419D01*
X142809258Y-56784419D02*
X142571163Y-56784419D01*
X142571163Y-56784419D02*
X142428306Y-56832038D01*
X141999734Y-57784419D02*
X141999734Y-57117752D01*
X141999734Y-56784419D02*
X142047353Y-56832038D01*
X142047353Y-56832038D02*
X141999734Y-56879657D01*
X141999734Y-56879657D02*
X141952115Y-56832038D01*
X141952115Y-56832038D02*
X141999734Y-56784419D01*
X141999734Y-56784419D02*
X141999734Y-56879657D01*
X141094973Y-57117752D02*
X141094973Y-57927276D01*
X141094973Y-57927276D02*
X141142592Y-58022514D01*
X141142592Y-58022514D02*
X141190211Y-58070133D01*
X141190211Y-58070133D02*
X141285449Y-58117752D01*
X141285449Y-58117752D02*
X141428306Y-58117752D01*
X141428306Y-58117752D02*
X141523544Y-58070133D01*
X141094973Y-57736800D02*
X141190211Y-57784419D01*
X141190211Y-57784419D02*
X141380687Y-57784419D01*
X141380687Y-57784419D02*
X141475925Y-57736800D01*
X141475925Y-57736800D02*
X141523544Y-57689180D01*
X141523544Y-57689180D02*
X141571163Y-57593942D01*
X141571163Y-57593942D02*
X141571163Y-57308228D01*
X141571163Y-57308228D02*
X141523544Y-57212990D01*
X141523544Y-57212990D02*
X141475925Y-57165371D01*
X141475925Y-57165371D02*
X141380687Y-57117752D01*
X141380687Y-57117752D02*
X141190211Y-57117752D01*
X141190211Y-57117752D02*
X141094973Y-57165371D01*
X140618782Y-57117752D02*
X140618782Y-57784419D01*
X140618782Y-57212990D02*
X140571163Y-57165371D01*
X140571163Y-57165371D02*
X140475925Y-57117752D01*
X140475925Y-57117752D02*
X140333068Y-57117752D01*
X140333068Y-57117752D02*
X140237830Y-57165371D01*
X140237830Y-57165371D02*
X140190211Y-57260609D01*
X140190211Y-57260609D02*
X140190211Y-57784419D01*
X139285449Y-57784419D02*
X139285449Y-57260609D01*
X139285449Y-57260609D02*
X139333068Y-57165371D01*
X139333068Y-57165371D02*
X139428306Y-57117752D01*
X139428306Y-57117752D02*
X139618782Y-57117752D01*
X139618782Y-57117752D02*
X139714020Y-57165371D01*
X139285449Y-57736800D02*
X139380687Y-57784419D01*
X139380687Y-57784419D02*
X139618782Y-57784419D01*
X139618782Y-57784419D02*
X139714020Y-57736800D01*
X139714020Y-57736800D02*
X139761639Y-57641561D01*
X139761639Y-57641561D02*
X139761639Y-57546323D01*
X139761639Y-57546323D02*
X139714020Y-57451085D01*
X139714020Y-57451085D02*
X139618782Y-57403466D01*
X139618782Y-57403466D02*
X139380687Y-57403466D01*
X139380687Y-57403466D02*
X139285449Y-57355847D01*
X138666401Y-57784419D02*
X138761639Y-57736800D01*
X138761639Y-57736800D02*
X138809258Y-57641561D01*
X138809258Y-57641561D02*
X138809258Y-56784419D01*
X138285448Y-57403466D02*
X137523544Y-57403466D01*
X136714020Y-57260609D02*
X136571163Y-57308228D01*
X136571163Y-57308228D02*
X136523544Y-57355847D01*
X136523544Y-57355847D02*
X136475925Y-57451085D01*
X136475925Y-57451085D02*
X136475925Y-57593942D01*
X136475925Y-57593942D02*
X136523544Y-57689180D01*
X136523544Y-57689180D02*
X136571163Y-57736800D01*
X136571163Y-57736800D02*
X136666401Y-57784419D01*
X136666401Y-57784419D02*
X137047353Y-57784419D01*
X137047353Y-57784419D02*
X137047353Y-56784419D01*
X137047353Y-56784419D02*
X136714020Y-56784419D01*
X136714020Y-56784419D02*
X136618782Y-56832038D01*
X136618782Y-56832038D02*
X136571163Y-56879657D01*
X136571163Y-56879657D02*
X136523544Y-56974895D01*
X136523544Y-56974895D02*
X136523544Y-57070133D01*
X136523544Y-57070133D02*
X136571163Y-57165371D01*
X136571163Y-57165371D02*
X136618782Y-57212990D01*
X136618782Y-57212990D02*
X136714020Y-57260609D01*
X136714020Y-57260609D02*
X137047353Y-57260609D01*
X142999734Y-70198704D02*
X142523544Y-70198704D01*
X143094972Y-70484419D02*
X142761639Y-69484419D01*
X142761639Y-69484419D02*
X142428306Y-70484419D01*
X141904496Y-69484419D02*
X141809258Y-69484419D01*
X141809258Y-69484419D02*
X141714020Y-69532038D01*
X141714020Y-69532038D02*
X141666401Y-69579657D01*
X141666401Y-69579657D02*
X141618782Y-69674895D01*
X141618782Y-69674895D02*
X141571163Y-69865371D01*
X141571163Y-69865371D02*
X141571163Y-70103466D01*
X141571163Y-70103466D02*
X141618782Y-70293942D01*
X141618782Y-70293942D02*
X141666401Y-70389180D01*
X141666401Y-70389180D02*
X141714020Y-70436800D01*
X141714020Y-70436800D02*
X141809258Y-70484419D01*
X141809258Y-70484419D02*
X141904496Y-70484419D01*
X141904496Y-70484419D02*
X141999734Y-70436800D01*
X141999734Y-70436800D02*
X142047353Y-70389180D01*
X142047353Y-70389180D02*
X142094972Y-70293942D01*
X142094972Y-70293942D02*
X142142591Y-70103466D01*
X142142591Y-70103466D02*
X142142591Y-69865371D01*
X142142591Y-69865371D02*
X142094972Y-69674895D01*
X142094972Y-69674895D02*
X142047353Y-69579657D01*
X142047353Y-69579657D02*
X141999734Y-69532038D01*
X141999734Y-69532038D02*
X141904496Y-69484419D01*
X130490306Y-54038038D02*
X130585544Y-53990419D01*
X130585544Y-53990419D02*
X130728401Y-53990419D01*
X130728401Y-53990419D02*
X130871258Y-54038038D01*
X130871258Y-54038038D02*
X130966496Y-54133276D01*
X130966496Y-54133276D02*
X131014115Y-54228514D01*
X131014115Y-54228514D02*
X131061734Y-54418990D01*
X131061734Y-54418990D02*
X131061734Y-54561847D01*
X131061734Y-54561847D02*
X131014115Y-54752323D01*
X131014115Y-54752323D02*
X130966496Y-54847561D01*
X130966496Y-54847561D02*
X130871258Y-54942800D01*
X130871258Y-54942800D02*
X130728401Y-54990419D01*
X130728401Y-54990419D02*
X130633163Y-54990419D01*
X130633163Y-54990419D02*
X130490306Y-54942800D01*
X130490306Y-54942800D02*
X130442687Y-54895180D01*
X130442687Y-54895180D02*
X130442687Y-54561847D01*
X130442687Y-54561847D02*
X130633163Y-54561847D01*
X130014115Y-54323752D02*
X130014115Y-54990419D01*
X130014115Y-54418990D02*
X129966496Y-54371371D01*
X129966496Y-54371371D02*
X129871258Y-54323752D01*
X129871258Y-54323752D02*
X129728401Y-54323752D01*
X129728401Y-54323752D02*
X129633163Y-54371371D01*
X129633163Y-54371371D02*
X129585544Y-54466609D01*
X129585544Y-54466609D02*
X129585544Y-54990419D01*
X128680782Y-54990419D02*
X128680782Y-53990419D01*
X128680782Y-54942800D02*
X128776020Y-54990419D01*
X128776020Y-54990419D02*
X128966496Y-54990419D01*
X128966496Y-54990419D02*
X129061734Y-54942800D01*
X129061734Y-54942800D02*
X129109353Y-54895180D01*
X129109353Y-54895180D02*
X129156972Y-54799942D01*
X129156972Y-54799942D02*
X129156972Y-54514228D01*
X129156972Y-54514228D02*
X129109353Y-54418990D01*
X129109353Y-54418990D02*
X129061734Y-54371371D01*
X129061734Y-54371371D02*
X128966496Y-54323752D01*
X128966496Y-54323752D02*
X128776020Y-54323752D01*
X128776020Y-54323752D02*
X128680782Y-54371371D01*
X134871734Y-62562800D02*
X134728877Y-62610419D01*
X134728877Y-62610419D02*
X134490782Y-62610419D01*
X134490782Y-62610419D02*
X134395544Y-62562800D01*
X134395544Y-62562800D02*
X134347925Y-62515180D01*
X134347925Y-62515180D02*
X134300306Y-62419942D01*
X134300306Y-62419942D02*
X134300306Y-62324704D01*
X134300306Y-62324704D02*
X134347925Y-62229466D01*
X134347925Y-62229466D02*
X134395544Y-62181847D01*
X134395544Y-62181847D02*
X134490782Y-62134228D01*
X134490782Y-62134228D02*
X134681258Y-62086609D01*
X134681258Y-62086609D02*
X134776496Y-62038990D01*
X134776496Y-62038990D02*
X134824115Y-61991371D01*
X134824115Y-61991371D02*
X134871734Y-61896133D01*
X134871734Y-61896133D02*
X134871734Y-61800895D01*
X134871734Y-61800895D02*
X134824115Y-61705657D01*
X134824115Y-61705657D02*
X134776496Y-61658038D01*
X134776496Y-61658038D02*
X134681258Y-61610419D01*
X134681258Y-61610419D02*
X134443163Y-61610419D01*
X134443163Y-61610419D02*
X134300306Y-61658038D01*
X133871734Y-62610419D02*
X133871734Y-61943752D01*
X133871734Y-61610419D02*
X133919353Y-61658038D01*
X133919353Y-61658038D02*
X133871734Y-61705657D01*
X133871734Y-61705657D02*
X133824115Y-61658038D01*
X133824115Y-61658038D02*
X133871734Y-61610419D01*
X133871734Y-61610419D02*
X133871734Y-61705657D01*
X132966973Y-61943752D02*
X132966973Y-62753276D01*
X132966973Y-62753276D02*
X133014592Y-62848514D01*
X133014592Y-62848514D02*
X133062211Y-62896133D01*
X133062211Y-62896133D02*
X133157449Y-62943752D01*
X133157449Y-62943752D02*
X133300306Y-62943752D01*
X133300306Y-62943752D02*
X133395544Y-62896133D01*
X132966973Y-62562800D02*
X133062211Y-62610419D01*
X133062211Y-62610419D02*
X133252687Y-62610419D01*
X133252687Y-62610419D02*
X133347925Y-62562800D01*
X133347925Y-62562800D02*
X133395544Y-62515180D01*
X133395544Y-62515180D02*
X133443163Y-62419942D01*
X133443163Y-62419942D02*
X133443163Y-62134228D01*
X133443163Y-62134228D02*
X133395544Y-62038990D01*
X133395544Y-62038990D02*
X133347925Y-61991371D01*
X133347925Y-61991371D02*
X133252687Y-61943752D01*
X133252687Y-61943752D02*
X133062211Y-61943752D01*
X133062211Y-61943752D02*
X132966973Y-61991371D01*
X132490782Y-61943752D02*
X132490782Y-62610419D01*
X132490782Y-62038990D02*
X132443163Y-61991371D01*
X132443163Y-61991371D02*
X132347925Y-61943752D01*
X132347925Y-61943752D02*
X132205068Y-61943752D01*
X132205068Y-61943752D02*
X132109830Y-61991371D01*
X132109830Y-61991371D02*
X132062211Y-62086609D01*
X132062211Y-62086609D02*
X132062211Y-62610419D01*
X131157449Y-62610419D02*
X131157449Y-62086609D01*
X131157449Y-62086609D02*
X131205068Y-61991371D01*
X131205068Y-61991371D02*
X131300306Y-61943752D01*
X131300306Y-61943752D02*
X131490782Y-61943752D01*
X131490782Y-61943752D02*
X131586020Y-61991371D01*
X131157449Y-62562800D02*
X131252687Y-62610419D01*
X131252687Y-62610419D02*
X131490782Y-62610419D01*
X131490782Y-62610419D02*
X131586020Y-62562800D01*
X131586020Y-62562800D02*
X131633639Y-62467561D01*
X131633639Y-62467561D02*
X131633639Y-62372323D01*
X131633639Y-62372323D02*
X131586020Y-62277085D01*
X131586020Y-62277085D02*
X131490782Y-62229466D01*
X131490782Y-62229466D02*
X131252687Y-62229466D01*
X131252687Y-62229466D02*
X131157449Y-62181847D01*
X130538401Y-62610419D02*
X130633639Y-62562800D01*
X130633639Y-62562800D02*
X130681258Y-62467561D01*
X130681258Y-62467561D02*
X130681258Y-61610419D01*
X130157448Y-62229466D02*
X129395544Y-62229466D01*
X128586020Y-62086609D02*
X128443163Y-62134228D01*
X128443163Y-62134228D02*
X128395544Y-62181847D01*
X128395544Y-62181847D02*
X128347925Y-62277085D01*
X128347925Y-62277085D02*
X128347925Y-62419942D01*
X128347925Y-62419942D02*
X128395544Y-62515180D01*
X128395544Y-62515180D02*
X128443163Y-62562800D01*
X128443163Y-62562800D02*
X128538401Y-62610419D01*
X128538401Y-62610419D02*
X128919353Y-62610419D01*
X128919353Y-62610419D02*
X128919353Y-61610419D01*
X128919353Y-61610419D02*
X128586020Y-61610419D01*
X128586020Y-61610419D02*
X128490782Y-61658038D01*
X128490782Y-61658038D02*
X128443163Y-61705657D01*
X128443163Y-61705657D02*
X128395544Y-61800895D01*
X128395544Y-61800895D02*
X128395544Y-61896133D01*
X128395544Y-61896133D02*
X128443163Y-61991371D01*
X128443163Y-61991371D02*
X128490782Y-62038990D01*
X128490782Y-62038990D02*
X128586020Y-62086609D01*
X128586020Y-62086609D02*
X128919353Y-62086609D01*
M02*
