%TF.GenerationSoftware,KiCad,Pcbnew,10.0.0*%
%TF.CreationDate,2026-05-10T20:23:31-05:00*%
%TF.ProjectId,DualAMCBoard,4475616c-414d-4434-926f-6172642e6b69,rev?*%
%TF.SameCoordinates,Original*%
%TF.FileFunction,Copper,L4,Bot*%
%TF.FilePolarity,Positive*%
%FSLAX46Y46*%
G04 Gerber Fmt 4.6, Leading zero omitted, Abs format (unit mm)*
G04 Created by KiCad (PCBNEW 10.0.0) date 2026-05-10 20:23:31*
%MOMM*%
%LPD*%
G01*
G04 APERTURE LIST*
G04 Aperture macros list*
%AMRoundRect*
0 Rectangle with rounded corners*
0 $1 Rounding radius*
0 $2 $3 $4 $5 $6 $7 $8 $9 X,Y pos of 4 corners*
0 Add a 4 corners polygon primitive as box body*
4,1,4,$2,$3,$4,$5,$6,$7,$8,$9,$2,$3,0*
0 Add four circle primitives for the rounded corners*
1,1,$1+$1,$2,$3*
1,1,$1+$1,$4,$5*
1,1,$1+$1,$6,$7*
1,1,$1+$1,$8,$9*
0 Add four rect primitives between the rounded corners*
20,1,$1+$1,$2,$3,$4,$5,0*
20,1,$1+$1,$4,$5,$6,$7,0*
20,1,$1+$1,$6,$7,$8,$9,0*
20,1,$1+$1,$8,$9,$2,$3,0*%
G04 Aperture macros list end*
%TA.AperFunction,ComponentPad*%
%ADD10RoundRect,0.249999X0.850001X0.850001X-0.850001X0.850001X-0.850001X-0.850001X0.850001X-0.850001X0*%
%TD*%
%TA.AperFunction,ComponentPad*%
%ADD11C,2.200000*%
%TD*%
%TA.AperFunction,ComponentPad*%
%ADD12RoundRect,0.249999X-0.850001X-0.850001X0.850001X-0.850001X0.850001X0.850001X-0.850001X0.850001X0*%
%TD*%
%TA.AperFunction,ComponentPad*%
%ADD13RoundRect,0.249999X0.850001X-0.850001X0.850001X0.850001X-0.850001X0.850001X-0.850001X-0.850001X0*%
%TD*%
%TA.AperFunction,ConnectorPad*%
%ADD14C,3.800000*%
%TD*%
%TA.AperFunction,ComponentPad*%
%ADD15C,2.600000*%
%TD*%
%TA.AperFunction,ComponentPad*%
%ADD16RoundRect,0.250001X-0.799999X0.799999X-0.799999X-0.799999X0.799999X-0.799999X0.799999X0.799999X0*%
%TD*%
%TA.AperFunction,ComponentPad*%
%ADD17C,2.100000*%
%TD*%
%TA.AperFunction,ViaPad*%
%ADD18C,0.600000*%
%TD*%
%TA.AperFunction,Conductor*%
%ADD19C,0.200000*%
%TD*%
G04 APERTURE END LIST*
D10*
%TO.P,J8,1,Pin_1_1*%
%TO.N,Net-(J8-Pin_1)*%
X154813000Y-82042000D03*
D11*
%TO.P,J8,2,Pin_2_2*%
%TO.N,Net-(J8-Pin_2)*%
X152273000Y-82042000D03*
%TD*%
%TO.P,J11,2,Pin_2_2*%
%TO.N,Net-(J11-Pin_2)*%
X160909000Y-110309500D03*
D12*
%TO.P,J11,1,Pin_1_1*%
%TO.N,Net-(J11-Pin_1)*%
X158369000Y-110309500D03*
%TD*%
D13*
%TO.P,J7,1,Pin_1_1*%
%TO.N,/Gnd*%
X169672000Y-107442000D03*
D11*
%TO.P,J7,2,Pin_2_2*%
%TO.N,/VIN*%
X169672000Y-104902000D03*
%TD*%
D14*
%TO.P,H1,1*%
%TO.N,N/C*%
X110490000Y-80010000D03*
D15*
X110490000Y-80010000D03*
%TD*%
D14*
%TO.P,H2,1*%
%TO.N,N/C*%
X110490000Y-112522000D03*
D15*
X110490000Y-112522000D03*
%TD*%
%TO.P,H3,1*%
%TO.N,N/C*%
X171947500Y-79962000D03*
D14*
X171947500Y-79962000D03*
%TD*%
D15*
%TO.P,H4,1*%
%TO.N,N/C*%
X171958000Y-112522000D03*
D14*
X171958000Y-112522000D03*
%TD*%
D11*
%TO.P,J9,2,Pin_2_2*%
%TO.N,/SE_Out_I*%
X169672000Y-89662000D03*
D13*
%TO.P,J9,1,Pin_1_1*%
%TO.N,/SE_Out_V*%
X169672000Y-92202000D03*
%TD*%
D16*
%TO.P,J6,1,Pin_1_1*%
%TO.N,Net-(J6-Pin_1)*%
X113241500Y-100754000D03*
D17*
%TO.P,J6,2,Pin_2_2*%
%TO.N,Net-(J6-Pin_2)*%
X113241500Y-105834000D03*
%TD*%
D16*
%TO.P,J1,1,Pin_1_1*%
%TO.N,Net-(J1-Pin_1)*%
X113209500Y-86355000D03*
D17*
%TO.P,J1,2,Pin_2_2*%
%TO.N,Net-(J1-Pin_2)*%
X113209500Y-91435000D03*
%TD*%
D18*
%TO.N,Net-(RN4D-R4.2)*%
X158251193Y-100713882D03*
X157228265Y-102872265D03*
%TO.N,Net-(RN4C-R3.2)*%
X157487835Y-100474530D03*
X157099000Y-101727000D03*
%TO.N,Net-(J11-Pin_1)*%
X155575000Y-107950000D03*
X155575000Y-109392648D03*
%TO.N,/VIN*%
X161417000Y-106172000D03*
%TO.N,/Gnd*%
X160401000Y-100711000D03*
X170434000Y-100076000D03*
X166243000Y-82550000D03*
X157988000Y-81661000D03*
%TO.N,/VIN*%
X163322000Y-81788000D03*
%TO.N,/Gnd*%
X158877000Y-91124000D03*
%TO.N,/VIN*%
X163703000Y-93664000D03*
%TO.N,/Gnd*%
X151384000Y-95758000D03*
%TO.N,/VIN*%
X147320000Y-106934000D03*
X151384000Y-107243148D03*
X147066000Y-92202000D03*
X151384000Y-92417500D03*
%TO.N,Net-(Uv1-INP)*%
X134699000Y-108204000D03*
%TO.N,Net-(Uv1-DCDC_OUT)*%
X134366000Y-101775000D03*
X134366000Y-104823000D03*
%TO.N,/Gnd*%
X147812121Y-103042648D03*
X147847121Y-111472648D03*
%TO.N,Net-(Uv1-DCDC_IN)*%
X147212121Y-101820648D03*
%TO.N,Net-(Uv1-INN)*%
X127508000Y-105077000D03*
%TO.N,Net-(Uv1-DCDC_IN)*%
X147212121Y-104995648D03*
%TO.N,Net-(Uv1-INN)*%
X134699000Y-109474000D03*
%TO.N,Net-(Uv1-INP)*%
X127508000Y-102791000D03*
%TO.N,/Gnd*%
X147796000Y-88217000D03*
%TO.N,Net-(Ui1-INP)*%
X134667000Y-93297000D03*
%TO.N,Net-(Ui1-DCDC_OUT)*%
X134334000Y-86868000D03*
%TO.N,Net-(J8-Pin_2)*%
X152329997Y-89916000D03*
%TO.N,Net-(Ui1-DCDC_OUT)*%
X134334000Y-89916000D03*
%TO.N,Net-(J8-Pin_1)*%
X151352000Y-94567000D03*
%TO.N,Net-(Ui1-DCDC_IN)*%
X147161000Y-90170000D03*
%TO.N,/Gnd*%
X147796000Y-96647000D03*
%TO.N,Net-(Ui1-INN)*%
X128492000Y-89916000D03*
X134667000Y-94567000D03*
%TO.N,Net-(Ui1-INP)*%
X128492000Y-87884000D03*
%TO.N,Net-(J8-Pin_1)*%
X152929997Y-90932000D03*
%TO.N,Net-(Ui1-DCDC_IN)*%
X147161000Y-86995000D03*
%TO.N,Net-(J8-Pin_2)*%
X151098000Y-93726000D03*
%TD*%
%TO.N,Net-(J11-Pin_1)*%
D19*
X155575000Y-107950000D02*
X155575000Y-109392648D01*
%TO.N,Net-(RN4D-R4.2)*%
X158251193Y-101849337D02*
X158251193Y-100713882D01*
X157228265Y-102872265D02*
X158251193Y-101849337D01*
%TO.N,Net-(RN4C-R3.2)*%
X157487835Y-100576165D02*
X157487835Y-100474530D01*
X157099000Y-100965000D02*
X157487835Y-100576165D01*
X157099000Y-101727000D02*
X157099000Y-100965000D01*
%TO.N,Net-(J8-Pin_1)*%
X152908000Y-93011000D02*
X151352000Y-94567000D01*
X152908000Y-90953997D02*
X152908000Y-93011000D01*
X152929997Y-90932000D02*
X152908000Y-90953997D01*
%TO.N,Net-(J8-Pin_2)*%
X152329997Y-89916000D02*
X152329997Y-92494003D01*
X152329997Y-92494003D02*
X151098000Y-93726000D01*
%TO.N,Net-(Ui1-DCDC_IN)*%
X147161000Y-90170000D02*
X147161000Y-86995000D01*
%TO.N,Net-(Uv1-INN)*%
X134699000Y-109474000D02*
X134366000Y-109141000D01*
%TO.N,Net-(Uv1-INP)*%
X134366000Y-107871000D02*
X132588000Y-107871000D01*
X134699000Y-108204000D02*
X134366000Y-107871000D01*
%TO.N,Net-(Uv1-INN)*%
X131572000Y-109141000D02*
X127508000Y-105077000D01*
X134366000Y-109141000D02*
X131572000Y-109141000D01*
%TO.N,Net-(Uv1-DCDC_IN)*%
X147212121Y-104995648D02*
X147212121Y-101820648D01*
%TO.N,Net-(Uv1-INP)*%
X132588000Y-107871000D02*
X127508000Y-102791000D01*
%TO.N,Net-(Uv1-DCDC_OUT)*%
X134366000Y-101775000D02*
X134366000Y-104823000D01*
%TO.N,Net-(Ui1-INP)*%
X129254000Y-87884000D02*
X134667000Y-93297000D01*
%TO.N,Net-(Ui1-INN)*%
X128492000Y-89916000D02*
X130016000Y-89916000D01*
%TO.N,Net-(Ui1-INP)*%
X128492000Y-87884000D02*
X129254000Y-87884000D01*
%TO.N,Net-(Ui1-INN)*%
X130016000Y-89916000D02*
X134667000Y-94567000D01*
%TO.N,Net-(Ui1-DCDC_OUT)*%
X134334000Y-86868000D02*
X134334000Y-89916000D01*
%TD*%
M02*
