%TF.GenerationSoftware,KiCad,Pcbnew,10.0.0*%
%TF.CreationDate,2026-05-10T20:23:31-05:00*%
%TF.ProjectId,DualAMCBoard,4475616c-414d-4434-926f-6172642e6b69,rev?*%
%TF.SameCoordinates,Original*%
%TF.FileFunction,Copper,L1,Top*%
%TF.FilePolarity,Positive*%
%FSLAX46Y46*%
G04 Gerber Fmt 4.6, Leading zero omitted, Abs format (unit mm)*
G04 Created by KiCad (PCBNEW 10.0.0) date 2026-05-10 20:23:31*
%MOMM*%
%LPD*%
G01*
G04 APERTURE LIST*
G04 Aperture macros list*
%AMRoundRect*
0 Rectangle with rounded corners*
0 $1 Rounding radius*
0 $2 $3 $4 $5 $6 $7 $8 $9 X,Y pos of 4 corners*
0 Add a 4 corners polygon primitive as box body*
4,1,4,$2,$3,$4,$5,$6,$7,$8,$9,$2,$3,0*
0 Add four circle primitives for the rounded corners*
1,1,$1+$1,$2,$3*
1,1,$1+$1,$4,$5*
1,1,$1+$1,$6,$7*
1,1,$1+$1,$8,$9*
0 Add four rect primitives between the rounded corners*
20,1,$1+$1,$2,$3,$4,$5,0*
20,1,$1+$1,$4,$5,$6,$7,0*
20,1,$1+$1,$6,$7,$8,$9,0*
20,1,$1+$1,$8,$9,$2,$3,0*%
G04 Aperture macros list end*
%TA.AperFunction,SMDPad,CuDef*%
%ADD10RoundRect,0.250000X0.350000X0.450000X-0.350000X0.450000X-0.350000X-0.450000X0.350000X-0.450000X0*%
%TD*%
%TA.AperFunction,SMDPad,CuDef*%
%ADD11R,0.700000X0.640000*%
%TD*%
%TA.AperFunction,SMDPad,CuDef*%
%ADD12R,0.700000X0.500000*%
%TD*%
%TA.AperFunction,SMDPad,CuDef*%
%ADD13RoundRect,0.237500X-0.237500X0.300000X-0.237500X-0.300000X0.237500X-0.300000X0.237500X0.300000X0*%
%TD*%
%TA.AperFunction,SMDPad,CuDef*%
%ADD14RoundRect,0.150000X-0.150000X0.825000X-0.150000X-0.825000X0.150000X-0.825000X0.150000X0.825000X0*%
%TD*%
%TA.AperFunction,SMDPad,CuDef*%
%ADD15RoundRect,0.237500X0.237500X-0.300000X0.237500X0.300000X-0.237500X0.300000X-0.237500X-0.300000X0*%
%TD*%
%TA.AperFunction,SMDPad,CuDef*%
%ADD16RoundRect,0.237500X0.300000X0.237500X-0.300000X0.237500X-0.300000X-0.237500X0.300000X-0.237500X0*%
%TD*%
%TA.AperFunction,SMDPad,CuDef*%
%ADD17RoundRect,0.237500X-0.300000X-0.237500X0.300000X-0.237500X0.300000X0.237500X-0.300000X0.237500X0*%
%TD*%
%TA.AperFunction,ComponentPad*%
%ADD18RoundRect,0.249999X0.850001X0.850001X-0.850001X0.850001X-0.850001X-0.850001X0.850001X-0.850001X0*%
%TD*%
%TA.AperFunction,ComponentPad*%
%ADD19C,2.200000*%
%TD*%
%TA.AperFunction,SMDPad,CuDef*%
%ADD20RoundRect,0.250000X0.450000X-0.350000X0.450000X0.350000X-0.450000X0.350000X-0.450000X-0.350000X0*%
%TD*%
%TA.AperFunction,SMDPad,CuDef*%
%ADD21RoundRect,0.250000X-0.475000X0.337500X-0.475000X-0.337500X0.475000X-0.337500X0.475000X0.337500X0*%
%TD*%
%TA.AperFunction,ComponentPad*%
%ADD22RoundRect,0.249999X-0.850001X-0.850001X0.850001X-0.850001X0.850001X0.850001X-0.850001X0.850001X0*%
%TD*%
%TA.AperFunction,ComponentPad*%
%ADD23RoundRect,0.249999X0.850001X-0.850001X0.850001X0.850001X-0.850001X0.850001X-0.850001X-0.850001X0*%
%TD*%
%TA.AperFunction,SMDPad,CuDef*%
%ADD24RoundRect,0.250000X-0.450000X0.350000X-0.450000X-0.350000X0.450000X-0.350000X0.450000X0.350000X0*%
%TD*%
%TA.AperFunction,SMDPad,CuDef*%
%ADD25RoundRect,0.150000X-0.875000X-0.150000X0.875000X-0.150000X0.875000X0.150000X-0.875000X0.150000X0*%
%TD*%
%TA.AperFunction,SMDPad,CuDef*%
%ADD26RoundRect,0.250000X-0.350000X-0.450000X0.350000X-0.450000X0.350000X0.450000X-0.350000X0.450000X0*%
%TD*%
%TA.AperFunction,ConnectorPad*%
%ADD27C,3.800000*%
%TD*%
%TA.AperFunction,ComponentPad*%
%ADD28C,2.600000*%
%TD*%
%TA.AperFunction,SMDPad,CuDef*%
%ADD29RoundRect,0.250000X0.650000X-0.412500X0.650000X0.412500X-0.650000X0.412500X-0.650000X-0.412500X0*%
%TD*%
%TA.AperFunction,SMDPad,CuDef*%
%ADD30RoundRect,0.250000X0.475000X-0.337500X0.475000X0.337500X-0.475000X0.337500X-0.475000X-0.337500X0*%
%TD*%
%TA.AperFunction,SMDPad,CuDef*%
%ADD31RoundRect,0.250000X-0.412500X-0.650000X0.412500X-0.650000X0.412500X0.650000X-0.412500X0.650000X0*%
%TD*%
%TA.AperFunction,ComponentPad*%
%ADD32RoundRect,0.250001X-0.799999X0.799999X-0.799999X-0.799999X0.799999X-0.799999X0.799999X0.799999X0*%
%TD*%
%TA.AperFunction,ComponentPad*%
%ADD33C,2.100000*%
%TD*%
%TA.AperFunction,SMDPad,CuDef*%
%ADD34RoundRect,0.160000X-0.222500X-0.160000X0.222500X-0.160000X0.222500X0.160000X-0.222500X0.160000X0*%
%TD*%
%TA.AperFunction,SMDPad,CuDef*%
%ADD35RoundRect,0.249999X1.075001X-0.450001X1.075001X0.450001X-1.075001X0.450001X-1.075001X-0.450001X0*%
%TD*%
%TA.AperFunction,ViaPad*%
%ADD36C,0.600000*%
%TD*%
%TA.AperFunction,Conductor*%
%ADD37C,0.200000*%
%TD*%
%TA.AperFunction,Conductor*%
%ADD38C,0.500000*%
%TD*%
%TA.AperFunction,Conductor*%
%ADD39C,1.250000*%
%TD*%
G04 APERTURE END LIST*
D10*
%TO.P,R1,2*%
%TO.N,Net-(Ui1-DIAG)*%
X149082000Y-90170000D03*
%TO.P,R1,1*%
%TO.N,/VIN*%
X151082000Y-90170000D03*
%TD*%
D11*
%TO.P,RN3,8,R1.2_8*%
%TO.N,Net-(RN3A-R1.2)*%
X157545000Y-91378000D03*
D12*
%TO.P,RN3,7,R2.2_7*%
%TO.N,Net-(RN3A-R1.1)*%
X157545000Y-92248000D03*
%TO.P,RN3,6,R3.2_6*%
%TO.N,Net-(RN3C-R3.2)*%
X157545000Y-93048000D03*
D11*
%TO.P,RN3,5,R4.2_5*%
%TO.N,Net-(RN3D-R4.2)*%
X157545000Y-93918000D03*
%TO.P,RN3,4,R4.1_4*%
%TO.N,Net-(RN3C-R3.2)*%
X156145000Y-93918000D03*
D12*
%TO.P,RN3,3,R3.1_3*%
%TO.N,Net-(J8-Pin_1)*%
X156145000Y-93048000D03*
%TO.P,RN3,2,R2.1_2*%
%TO.N,Net-(J8-Pin_2)*%
X156145000Y-92248000D03*
D11*
%TO.P,RN3,1,R1.1_1*%
%TO.N,Net-(RN3A-R1.1)*%
X156145000Y-91378000D03*
%TD*%
D13*
%TO.P,Cs1,1*%
%TO.N,Net-(RN3D-R4.2)*%
X163703000Y-86451500D03*
%TO.P,Cs1,2*%
%TO.N,Net-(RN3C-R3.2)*%
X163703000Y-88176500D03*
%TD*%
D14*
%TO.P,U1,8,V+_8*%
%TO.N,/VIN*%
X163703000Y-95312000D03*
%TO.P,U1,7*%
%TO.N,Net-(RN4D-R4.2)*%
X162433000Y-95312000D03*
%TO.P,U1,6,-_6*%
%TO.N,Net-(RN4C-R3.2)*%
X161163000Y-95312000D03*
%TO.P,U1,5,+_5*%
%TO.N,Net-(RN4A-R1.1)*%
X159893000Y-95312000D03*
%TO.P,U1,4,V-_4*%
%TO.N,/Gnd*%
X159893000Y-90362000D03*
%TO.P,U1,3,+_3*%
%TO.N,Net-(RN3A-R1.1)*%
X161163000Y-90362000D03*
%TO.P,U1,2,-_2*%
%TO.N,Net-(RN3C-R3.2)*%
X162433000Y-90362000D03*
%TO.P,U1,1*%
%TO.N,Net-(RN3D-R4.2)*%
X163703000Y-90362000D03*
%TD*%
D15*
%TO.P,Cs4,1*%
%TO.N,Net-(RN4A-R1.2)*%
X158115000Y-97728000D03*
%TO.P,Cs4,2*%
%TO.N,Net-(RN4A-R1.1)*%
X158115000Y-96003000D03*
%TD*%
D16*
%TO.P,Cs5,2*%
%TO.N,Net-(RN4C-R3.2)*%
X161062500Y-97728000D03*
%TO.P,Cs5,1*%
%TO.N,Net-(RN4D-R4.2)*%
X162787500Y-97728000D03*
%TD*%
D17*
%TO.P,Cs2,1*%
%TO.N,Net-(RN3A-R1.2)*%
X160046500Y-88076000D03*
%TO.P,Cs2,2*%
%TO.N,Net-(RN3A-R1.1)*%
X161771500Y-88076000D03*
%TD*%
D18*
%TO.P,J8,1,Pin_1_1*%
%TO.N,Net-(J8-Pin_1)*%
X154813000Y-82042000D03*
D19*
%TO.P,J8,2,Pin_2_2*%
%TO.N,Net-(J8-Pin_2)*%
X152273000Y-82042000D03*
%TD*%
D20*
%TO.P,Rs7,2*%
%TO.N,Net-(RN3D-R4.2)*%
X169799000Y-83074000D03*
%TO.P,Rs7,1*%
%TO.N,/SE_Out_I*%
X169799000Y-85074000D03*
%TD*%
D21*
%TO.P,Cs3,2*%
%TO.N,/SE_Out_I*%
X167513000Y-85111500D03*
%TO.P,Cs3,1*%
%TO.N,/Gnd*%
X167513000Y-83036500D03*
%TD*%
D19*
%TO.P,J11,2,Pin_2_2*%
%TO.N,Net-(J11-Pin_2)*%
X160909000Y-110309500D03*
D22*
%TO.P,J11,1,Pin_1_1*%
%TO.N,Net-(J11-Pin_1)*%
X158369000Y-110309500D03*
%TD*%
D23*
%TO.P,J7,1,Pin_1_1*%
%TO.N,/Gnd*%
X169672000Y-107442000D03*
D19*
%TO.P,J7,2,Pin_2_2*%
%TO.N,/VIN*%
X169672000Y-104902000D03*
%TD*%
D24*
%TO.P,Rs10,2*%
%TO.N,Net-(RN4D-R4.2)*%
X167513000Y-98790000D03*
%TO.P,Rs10,1*%
%TO.N,/SE_Out_V*%
X167513000Y-96790000D03*
%TD*%
D11*
%TO.P,RN4,1,R1.1_1*%
%TO.N,Net-(RN4A-R1.1)*%
X154559000Y-101073000D03*
D12*
%TO.P,RN4,2,R2.1_2*%
%TO.N,Net-(J11-Pin_2)*%
X154559000Y-101943000D03*
%TO.P,RN4,3,R3.1_3*%
%TO.N,Net-(J11-Pin_1)*%
X154559000Y-102743000D03*
D11*
%TO.P,RN4,4,R4.1_4*%
%TO.N,Net-(RN4C-R3.2)*%
X154559000Y-103613000D03*
%TO.P,RN4,5,R4.2_5*%
%TO.N,Net-(RN4D-R4.2)*%
X155959000Y-103613000D03*
D12*
%TO.P,RN4,6,R3.2_6*%
%TO.N,Net-(RN4C-R3.2)*%
X155959000Y-102743000D03*
%TO.P,RN4,7,R2.2_7*%
%TO.N,Net-(RN4A-R1.1)*%
X155959000Y-101943000D03*
D11*
%TO.P,RN4,8,R1.2_8*%
%TO.N,Net-(RN4A-R1.2)*%
X155959000Y-101073000D03*
%TD*%
D25*
%TO.P,Ui1,16,DCDC_IN_16*%
%TO.N,Net-(Ui1-DCDC_IN)*%
X145588000Y-86995000D03*
%TO.P,Ui1,15,DCDC_GND_15*%
%TO.N,/Gnd*%
X145588000Y-88265000D03*
%TO.P,Ui1,14,DIAG_14*%
%TO.N,Net-(Ui1-DIAG)*%
X145588000Y-89535000D03*
%TO.P,Ui1,13,LDO_OUT_13*%
%TO.N,Net-(Ui1-DCDC_IN)*%
X145588000Y-90805000D03*
%TO.P,Ui1,12,VDD_12*%
%TO.N,/VIN*%
X145588000Y-92075000D03*
%TO.P,Ui1,11,OUTP_11*%
%TO.N,Net-(J8-Pin_2)*%
X145588000Y-93345000D03*
%TO.P,Ui1,10,OUTN_10*%
%TO.N,Net-(J8-Pin_1)*%
X145588000Y-94615000D03*
%TO.P,Ui1,9,GND_9*%
%TO.N,/Gnd*%
X145588000Y-95885000D03*
%TO.P,Ui1,8,HGND_8*%
%TO.N,Net-(Ui1-DCDC_HGND)*%
X136288000Y-95885000D03*
%TO.P,Ui1,7,INN_7*%
%TO.N,Net-(Ui1-INN)*%
X136288000Y-94615000D03*
%TO.P,Ui1,6,INP_6*%
%TO.N,Net-(Ui1-INP)*%
X136288000Y-93345000D03*
%TO.P,Ui1,5,HLDO_OUT_5*%
%TO.N,Net-(Ui1-HLDO_OUT)*%
X136288000Y-92075000D03*
%TO.P,Ui1,4,NC_4*%
%TO.N,unconnected-(Ui1-NC-Pad4)*%
X136288000Y-90805000D03*
%TO.P,Ui1,3,HLDO_IN_3*%
%TO.N,Net-(Ui1-DCDC_OUT)*%
X136288000Y-89535000D03*
%TO.P,Ui1,2,DCDC_HGND_2*%
%TO.N,Net-(Ui1-DCDC_HGND)*%
X136288000Y-88265000D03*
%TO.P,Ui1,1,DCDC_OUT_1*%
%TO.N,Net-(Ui1-DCDC_OUT)*%
X136288000Y-86995000D03*
%TD*%
D26*
%TO.P,Rv1,2*%
%TO.N,Net-(FB4-Pad1)*%
X122412000Y-99743000D03*
%TO.P,Rv1,1*%
%TO.N,Net-(J6-Pin_1)*%
X120412000Y-99743000D03*
%TD*%
D27*
%TO.P,H1,1*%
%TO.N,N/C*%
X110490000Y-80010000D03*
D28*
X110490000Y-80010000D03*
%TD*%
D27*
%TO.P,H2,1*%
%TO.N,N/C*%
X110490000Y-112522000D03*
D28*
X110490000Y-112522000D03*
%TD*%
%TO.P,H3,1*%
%TO.N,N/C*%
X171947500Y-79962000D03*
D27*
X171947500Y-79962000D03*
%TD*%
D28*
%TO.P,H4,1*%
%TO.N,N/C*%
X171958000Y-112522000D03*
D27*
X171958000Y-112522000D03*
%TD*%
D19*
%TO.P,J9,2,Pin_2_2*%
%TO.N,/SE_Out_I*%
X169672000Y-89662000D03*
D23*
%TO.P,J9,1,Pin_1_1*%
%TO.N,/SE_Out_V*%
X169672000Y-92202000D03*
%TD*%
D24*
%TO.P,Rs5,2*%
%TO.N,Net-(RN3A-R1.2)*%
X159385000Y-84201000D03*
%TO.P,Rs5,1*%
%TO.N,/Gnd*%
X159385000Y-82201000D03*
%TD*%
D20*
%TO.P,Rs6,2*%
%TO.N,/VIN*%
X161798000Y-82201000D03*
%TO.P,Rs6,1*%
%TO.N,Net-(RN3A-R1.2)*%
X161798000Y-84201000D03*
%TD*%
D29*
%TO.P,C9,2*%
%TO.N,/VIN*%
X152876000Y-92417500D03*
%TO.P,C9,1*%
%TO.N,/Gnd*%
X152876000Y-95542500D03*
%TD*%
D10*
%TO.P,Rv2,1*%
%TO.N,Net-(FB5-Pad1)*%
X122412000Y-108379000D03*
%TO.P,Rv2,2*%
%TO.N,Net-(J6-Pin_2)*%
X120412000Y-108379000D03*
%TD*%
%TO.P,R2,1*%
%TO.N,/VIN*%
X151133121Y-104995648D03*
%TO.P,R2,2*%
%TO.N,Net-(Uv1-DIAG)*%
X149133121Y-104995648D03*
%TD*%
D24*
%TO.P,Rv3,1*%
%TO.N,Net-(FB4-Pad1)*%
X120650000Y-102553000D03*
%TO.P,Rv3,2*%
%TO.N,Net-(FB5-Pad1)*%
X120650000Y-104553000D03*
%TD*%
D17*
%TO.P,C7,1*%
%TO.N,Net-(Uv1-DCDC_HGND)*%
X131139500Y-99997000D03*
%TO.P,C7,2*%
%TO.N,Net-(Uv1-DCDC_OUT)*%
X132864500Y-99997000D03*
%TD*%
D30*
%TO.P,Cs6,1*%
%TO.N,/Gnd*%
X170053000Y-98827500D03*
%TO.P,Cs6,2*%
%TO.N,/SE_Out_V*%
X170053000Y-96752500D03*
%TD*%
D15*
%TO.P,C16,1*%
%TO.N,/Gnd*%
X149117121Y-103064148D03*
%TO.P,C16,2*%
%TO.N,Net-(Uv1-DCDC_IN)*%
X149117121Y-101339148D03*
%TD*%
D31*
%TO.P,C15,1*%
%TO.N,Net-(Uv1-DCDC_HGND)*%
X129501500Y-109903000D03*
%TO.P,C15,2*%
%TO.N,Net-(Uv1-HLDO_OUT)*%
X132626500Y-109903000D03*
%TD*%
D10*
%TO.P,Rs8,1*%
%TO.N,/Gnd*%
X160623000Y-102251000D03*
%TO.P,Rs8,2*%
%TO.N,Net-(RN4A-R1.2)*%
X158623000Y-102251000D03*
%TD*%
D17*
%TO.P,C13,1*%
%TO.N,Net-(Uv1-DCDC_HGND)*%
X131117000Y-104823000D03*
%TO.P,C13,2*%
%TO.N,Net-(Uv1-DCDC_OUT)*%
X132842000Y-104823000D03*
%TD*%
D26*
%TO.P,Rs9,1*%
%TO.N,Net-(RN4A-R1.2)*%
X158639000Y-104775000D03*
%TO.P,Rs9,2*%
%TO.N,/VIN*%
X160639000Y-104775000D03*
%TD*%
D30*
%TO.P,C11,1*%
%TO.N,Net-(Uv1-INN)*%
X125984000Y-104844500D03*
%TO.P,C11,2*%
%TO.N,Net-(Uv1-INP)*%
X125984000Y-102769500D03*
%TD*%
D29*
%TO.P,C17,1*%
%TO.N,/Gnd*%
X149752121Y-110368148D03*
%TO.P,C17,2*%
%TO.N,/VIN*%
X149752121Y-107243148D03*
%TD*%
D17*
%TO.P,C12,1*%
%TO.N,Net-(Uv1-DCDC_HGND)*%
X131064000Y-102283000D03*
%TO.P,C12,2*%
%TO.N,Net-(Uv1-DCDC_OUT)*%
X132789000Y-102283000D03*
%TD*%
D32*
%TO.P,J6,1,Pin_1_1*%
%TO.N,Net-(J6-Pin_1)*%
X113241500Y-100754000D03*
D33*
%TO.P,J6,2,Pin_2_2*%
%TO.N,Net-(J6-Pin_2)*%
X113241500Y-105834000D03*
%TD*%
D31*
%TO.P,C14,1*%
%TO.N,Net-(Uv1-DCDC_HGND)*%
X129501500Y-107363000D03*
%TO.P,C14,2*%
%TO.N,Net-(Uv1-HLDO_OUT)*%
X132626500Y-107363000D03*
%TD*%
D25*
%TO.P,Uv1,1,DCDC_OUT_1*%
%TO.N,Net-(Uv1-DCDC_OUT)*%
X136347000Y-101854000D03*
%TO.P,Uv1,2,DCDC_HGND_2*%
%TO.N,Net-(Uv1-DCDC_HGND)*%
X136347000Y-103124000D03*
%TO.P,Uv1,3,HLDO_IN_3*%
%TO.N,Net-(Uv1-DCDC_OUT)*%
X136347000Y-104394000D03*
%TO.P,Uv1,4,NC_4*%
%TO.N,unconnected-(Uv1-NC-Pad4)*%
X136347000Y-105664000D03*
%TO.P,Uv1,5,HLDO_OUT_5*%
%TO.N,Net-(Uv1-HLDO_OUT)*%
X136347000Y-106934000D03*
%TO.P,Uv1,6,INP_6*%
%TO.N,Net-(Uv1-INP)*%
X136347000Y-108204000D03*
%TO.P,Uv1,7,INN_7*%
%TO.N,Net-(Uv1-INN)*%
X136347000Y-109474000D03*
%TO.P,Uv1,8,HGND_8*%
%TO.N,Net-(Uv1-DCDC_HGND)*%
X136347000Y-110744000D03*
%TO.P,Uv1,9,GND_9*%
%TO.N,/Gnd*%
X145647000Y-110744000D03*
%TO.P,Uv1,10,OUTN_10*%
%TO.N,Net-(J11-Pin_1)*%
X145647000Y-109474000D03*
%TO.P,Uv1,11,OUTP_11*%
%TO.N,Net-(J11-Pin_2)*%
X145647000Y-108204000D03*
%TO.P,Uv1,12,VDD_12*%
%TO.N,/VIN*%
X145647000Y-106934000D03*
%TO.P,Uv1,13,LDO_OUT_13*%
%TO.N,Net-(Uv1-DCDC_IN)*%
X145647000Y-105664000D03*
%TO.P,Uv1,14,DIAG_14*%
%TO.N,Net-(Uv1-DIAG)*%
X145647000Y-104394000D03*
%TO.P,Uv1,15,DCDC_GND_15*%
%TO.N,/Gnd*%
X145647000Y-103124000D03*
%TO.P,Uv1,16,DCDC_IN_16*%
%TO.N,Net-(Uv1-DCDC_IN)*%
X145647000Y-101854000D03*
%TD*%
D34*
%TO.P,FB5,1*%
%TO.N,Net-(FB5-Pad1)*%
X122617500Y-105077000D03*
%TO.P,FB5,2*%
%TO.N,Net-(Uv1-INN)*%
X123762500Y-105077000D03*
%TD*%
%TO.P,FB4,1*%
%TO.N,Net-(FB4-Pad1)*%
X122617500Y-102791000D03*
%TO.P,FB4,2*%
%TO.N,Net-(Uv1-INP)*%
X123762500Y-102791000D03*
%TD*%
%TO.P,FB6,1*%
%TO.N,Net-(FB5-Pad1)*%
X124395500Y-107871000D03*
%TO.P,FB6,2*%
%TO.N,Net-(Uv1-DCDC_HGND)*%
X125540500Y-107871000D03*
%TD*%
D29*
%TO.P,C18,1*%
%TO.N,/Gnd*%
X152927121Y-110368148D03*
%TO.P,C18,2*%
%TO.N,/VIN*%
X152927121Y-107243148D03*
%TD*%
D15*
%TO.P,C4,1*%
%TO.N,/Gnd*%
X149066000Y-88238500D03*
%TO.P,C4,2*%
%TO.N,Net-(Ui1-DCDC_IN)*%
X149066000Y-86513500D03*
%TD*%
D17*
%TO.P,C2,1*%
%TO.N,Net-(Ui1-DCDC_HGND)*%
X131107500Y-85090000D03*
%TO.P,C2,2*%
%TO.N,Net-(Ui1-DCDC_OUT)*%
X132832500Y-85090000D03*
%TD*%
D26*
%TO.P,Ri4,1*%
%TO.N,Net-(FB2-Pad2)*%
X123936000Y-92202000D03*
%TO.P,Ri4,2*%
%TO.N,Net-(Ui1-INN)*%
X125936000Y-92202000D03*
%TD*%
D31*
%TO.P,C6,1*%
%TO.N,Net-(Ui1-DCDC_HGND)*%
X129469500Y-94996000D03*
%TO.P,C6,2*%
%TO.N,Net-(Ui1-HLDO_OUT)*%
X132594500Y-94996000D03*
%TD*%
D32*
%TO.P,J1,1,Pin_1_1*%
%TO.N,Net-(J1-Pin_1)*%
X113209500Y-86355000D03*
D33*
%TO.P,J1,2,Pin_2_2*%
%TO.N,Net-(J1-Pin_2)*%
X113209500Y-91435000D03*
%TD*%
D29*
%TO.P,C8,1*%
%TO.N,/Gnd*%
X149701000Y-95542500D03*
%TO.P,C8,2*%
%TO.N,/VIN*%
X149701000Y-92417500D03*
%TD*%
D26*
%TO.P,Ri2,1*%
%TO.N,Net-(FB1-Pad2)*%
X123936000Y-85598000D03*
%TO.P,Ri2,2*%
%TO.N,Net-(Ui1-INP)*%
X125936000Y-85598000D03*
%TD*%
D17*
%TO.P,C1,1*%
%TO.N,Net-(Ui1-DCDC_HGND)*%
X131085000Y-89916000D03*
%TO.P,C1,2*%
%TO.N,Net-(Ui1-DCDC_OUT)*%
X132810000Y-89916000D03*
%TD*%
D30*
%TO.P,C10,1*%
%TO.N,Net-(Ui1-INN)*%
X127222000Y-89937500D03*
%TO.P,C10,2*%
%TO.N,Net-(Ui1-INP)*%
X127222000Y-87862500D03*
%TD*%
D17*
%TO.P,C3,1*%
%TO.N,Net-(Ui1-DCDC_HGND)*%
X131032000Y-87376000D03*
%TO.P,C3,2*%
%TO.N,Net-(Ui1-DCDC_OUT)*%
X132757000Y-87376000D03*
%TD*%
D31*
%TO.P,C5,1*%
%TO.N,Net-(Ui1-DCDC_HGND)*%
X129469500Y-92456000D03*
%TO.P,C5,2*%
%TO.N,Net-(Ui1-HLDO_OUT)*%
X132594500Y-92456000D03*
%TD*%
D35*
%TO.P,Ri3,1*%
%TO.N,Net-(J1-Pin_2)*%
X121126000Y-91554000D03*
%TO.P,Ri3,2*%
%TO.N,Net-(J1-Pin_1)*%
X121126000Y-86754000D03*
%TD*%
D34*
%TO.P,FB2,1*%
%TO.N,Net-(J1-Pin_2)*%
X124045000Y-90170000D03*
%TO.P,FB2,2*%
%TO.N,Net-(FB2-Pad2)*%
X125190000Y-90170000D03*
%TD*%
%TO.P,FB1,1*%
%TO.N,Net-(J1-Pin_1)*%
X124045000Y-87884000D03*
%TO.P,FB1,2*%
%TO.N,Net-(FB1-Pad2)*%
X125190000Y-87884000D03*
%TD*%
%TO.P,FB3,1*%
%TO.N,Net-(J1-Pin_2)*%
X121315500Y-94234000D03*
%TO.P,FB3,2*%
%TO.N,Net-(Ui1-DCDC_HGND)*%
X122460500Y-94234000D03*
%TD*%
D36*
%TO.N,Net-(RN4D-R4.2)*%
X158251193Y-100713882D03*
X157228265Y-102872265D03*
%TO.N,Net-(RN4C-R3.2)*%
X157487835Y-100474530D03*
X157099000Y-101727000D03*
%TO.N,Net-(J11-Pin_1)*%
X155575000Y-107950000D03*
X155575000Y-109392648D03*
%TO.N,/VIN*%
X161417000Y-106172000D03*
%TO.N,/Gnd*%
X160401000Y-100711000D03*
X170434000Y-100076000D03*
X166243000Y-82550000D03*
X157988000Y-81661000D03*
%TO.N,/VIN*%
X163322000Y-81788000D03*
%TO.N,/Gnd*%
X158877000Y-91124000D03*
%TO.N,/VIN*%
X163703000Y-93664000D03*
%TO.N,/Gnd*%
X151384000Y-95758000D03*
%TO.N,/VIN*%
X147320000Y-106934000D03*
X151384000Y-107243148D03*
X147066000Y-92202000D03*
X151384000Y-92417500D03*
%TO.N,Net-(Uv1-INP)*%
X134699000Y-108204000D03*
%TO.N,Net-(Uv1-DCDC_OUT)*%
X134366000Y-101775000D03*
X134366000Y-104823000D03*
%TO.N,/Gnd*%
X147812121Y-103042648D03*
X147847121Y-111472648D03*
%TO.N,Net-(Uv1-DCDC_IN)*%
X147212121Y-101820648D03*
%TO.N,Net-(Uv1-INN)*%
X127508000Y-105077000D03*
%TO.N,Net-(Uv1-DCDC_IN)*%
X147212121Y-104995648D03*
%TO.N,Net-(Uv1-INN)*%
X134699000Y-109474000D03*
%TO.N,Net-(Uv1-INP)*%
X127508000Y-102791000D03*
%TO.N,/Gnd*%
X147796000Y-88217000D03*
%TO.N,Net-(Ui1-INP)*%
X134667000Y-93297000D03*
%TO.N,Net-(Ui1-DCDC_OUT)*%
X134334000Y-86868000D03*
%TO.N,Net-(J8-Pin_2)*%
X152329997Y-89916000D03*
%TO.N,Net-(Ui1-DCDC_OUT)*%
X134334000Y-89916000D03*
%TO.N,Net-(J8-Pin_1)*%
X151352000Y-94567000D03*
%TO.N,Net-(Ui1-DCDC_IN)*%
X147161000Y-90170000D03*
%TO.N,/Gnd*%
X147796000Y-96647000D03*
%TO.N,Net-(Ui1-INN)*%
X128492000Y-89916000D03*
X134667000Y-94567000D03*
%TO.N,Net-(Ui1-INP)*%
X128492000Y-87884000D03*
%TO.N,Net-(J8-Pin_1)*%
X152929997Y-90932000D03*
%TO.N,Net-(Ui1-DCDC_IN)*%
X147161000Y-86995000D03*
%TO.N,Net-(J8-Pin_2)*%
X151098000Y-93726000D03*
%TD*%
%TO.N,Net-(RN4D-R4.2)*%
D37*
X160693500Y-99822000D02*
X162787500Y-97728000D01*
X159143075Y-99822000D02*
X160693500Y-99822000D01*
X158251193Y-100713882D02*
X159143075Y-99822000D01*
%TO.N,/Gnd*%
X149095621Y-103042648D02*
X149117121Y-103064148D01*
X147796000Y-88217000D02*
X149044500Y-88217000D01*
X149044500Y-88217000D02*
X149066000Y-88238500D01*
%TO.N,Net-(J8-Pin_1)*%
X155595000Y-93048000D02*
X156145000Y-93048000D01*
X154076000Y-94567000D02*
X155595000Y-93048000D01*
X151352000Y-94567000D02*
X154076000Y-94567000D01*
%TO.N,Net-(J8-Pin_2)*%
X155402000Y-92248000D02*
X156145000Y-92248000D01*
X153924000Y-93726000D02*
X155402000Y-92248000D01*
X151098000Y-93726000D02*
X153924000Y-93726000D01*
%TO.N,Net-(J11-Pin_2)*%
X154686000Y-108297648D02*
X154432000Y-108551648D01*
X154686000Y-107154783D02*
X154686000Y-108297648D01*
X153397000Y-105865783D02*
X154686000Y-107154783D01*
X153397000Y-102555000D02*
X153397000Y-105865783D01*
X154009000Y-101943000D02*
X153397000Y-102555000D01*
X154559000Y-101943000D02*
X154009000Y-101943000D01*
X154432000Y-108551648D02*
X159151148Y-108551648D01*
%TO.N,Net-(J11-Pin_1)*%
X153797000Y-102997000D02*
X154051000Y-102743000D01*
X154051000Y-102743000D02*
X154559000Y-102743000D01*
X153797000Y-105283000D02*
X153797000Y-102997000D01*
X155575000Y-107061000D02*
X153797000Y-105283000D01*
X155575000Y-107950000D02*
X155575000Y-107061000D01*
X157452148Y-109392648D02*
X158369000Y-110309500D01*
X155575000Y-109392648D02*
X157452148Y-109392648D01*
X145666121Y-109392648D02*
X155575000Y-109392648D01*
%TO.N,Net-(RN4D-R4.2)*%
X156483000Y-103613000D02*
X157226000Y-102870000D01*
X155959000Y-103613000D02*
X156483000Y-103613000D01*
X157226000Y-102870000D02*
X157228265Y-102872265D01*
%TO.N,Net-(RN4C-R3.2)*%
X157487835Y-100474530D02*
X160234365Y-97728000D01*
X160234365Y-97728000D02*
X161062500Y-97728000D01*
X157099000Y-102153000D02*
X157099000Y-101727000D01*
X156509000Y-102743000D02*
X157099000Y-102153000D01*
X155959000Y-102743000D02*
X156509000Y-102743000D01*
X154832000Y-103613000D02*
X155702000Y-102743000D01*
X154559000Y-103613000D02*
X154832000Y-103613000D01*
X155702000Y-102743000D02*
X155959000Y-102743000D01*
%TO.N,Net-(J11-Pin_2)*%
X159151148Y-108551648D02*
X160909000Y-110309500D01*
X147847121Y-108551648D02*
X154432000Y-108551648D01*
X145666121Y-108122648D02*
X147418121Y-108122648D01*
X147418121Y-108122648D02*
X147847121Y-108551648D01*
%TO.N,/VIN*%
X160639000Y-105394000D02*
X161417000Y-106172000D01*
X160639000Y-104775000D02*
X160639000Y-105394000D01*
%TO.N,/Gnd*%
X160623000Y-100933000D02*
X160401000Y-100711000D01*
X160623000Y-102251000D02*
X160623000Y-100933000D01*
%TO.N,Net-(RN4A-R1.2)*%
X158623000Y-104759000D02*
X158639000Y-104775000D01*
X158623000Y-102251000D02*
X158623000Y-104759000D01*
X158623000Y-102251000D02*
X157445000Y-101073000D01*
X157445000Y-101073000D02*
X155959000Y-101073000D01*
X155959000Y-99884000D02*
X158115000Y-97728000D01*
X155959000Y-101073000D02*
X155959000Y-99884000D01*
%TO.N,Net-(RN4A-R1.1)*%
X154559000Y-99559000D02*
X154559000Y-101073000D01*
X158115000Y-96003000D02*
X154559000Y-99559000D01*
X159202000Y-96003000D02*
X158115000Y-96003000D01*
X159893000Y-95312000D02*
X159202000Y-96003000D01*
%TO.N,Net-(RN4C-R3.2)*%
X161163000Y-97627500D02*
X161062500Y-97728000D01*
X161163000Y-95312000D02*
X161163000Y-97627500D01*
%TO.N,Net-(RN4D-R4.2)*%
X162433000Y-97373500D02*
X162787500Y-97728000D01*
X162433000Y-95312000D02*
X162433000Y-97373500D01*
X167513000Y-98790000D02*
X163849500Y-98790000D01*
X163849500Y-98790000D02*
X162787500Y-97728000D01*
%TO.N,/SE_Out_V*%
X170053000Y-96752500D02*
X167550500Y-96752500D01*
X167550500Y-96752500D02*
X167513000Y-96790000D01*
X169799000Y-96498500D02*
X170053000Y-96752500D01*
X169799000Y-92202000D02*
X169799000Y-96498500D01*
%TO.N,/Gnd*%
X170053000Y-99695000D02*
X170434000Y-100076000D01*
X170053000Y-98827500D02*
X170053000Y-99695000D01*
%TO.N,Net-(RN3D-R4.2)*%
X165930500Y-84224000D02*
X163703000Y-86451500D01*
X168649000Y-84224000D02*
X165930500Y-84224000D01*
X169799000Y-83074000D02*
X168649000Y-84224000D01*
X161121999Y-93918000D02*
X163703000Y-91336999D01*
X163703000Y-91336999D02*
X163703000Y-90362000D01*
X157545000Y-93918000D02*
X161121999Y-93918000D01*
X164478000Y-87226500D02*
X163703000Y-86451500D01*
X164478000Y-89587000D02*
X164478000Y-87226500D01*
X163703000Y-90362000D02*
X164478000Y-89587000D01*
%TO.N,Net-(RN3C-R3.2)*%
X162433000Y-89446500D02*
X162433000Y-90362000D01*
X163703000Y-88176500D02*
X162433000Y-89446500D01*
%TO.N,/SE_Out_I*%
X169799000Y-85074000D02*
X169799000Y-89662000D01*
X169761500Y-85111500D02*
X169799000Y-85074000D01*
X167513000Y-85111500D02*
X169761500Y-85111500D01*
%TO.N,/Gnd*%
X166729500Y-83036500D02*
X166243000Y-82550000D01*
X167513000Y-83036500D02*
X166729500Y-83036500D01*
%TO.N,Net-(RN3A-R1.2)*%
X160046500Y-87668500D02*
X160046500Y-88076000D01*
X161798000Y-85917000D02*
X160046500Y-87668500D01*
X161798000Y-84201000D02*
X161798000Y-85917000D01*
X159385000Y-84201000D02*
X161798000Y-84201000D01*
%TO.N,/Gnd*%
X158528000Y-82201000D02*
X157988000Y-81661000D01*
X159385000Y-82201000D02*
X158528000Y-82201000D01*
%TO.N,/VIN*%
X162909000Y-82201000D02*
X163322000Y-81788000D01*
X161798000Y-82201000D02*
X162909000Y-82201000D01*
X163703000Y-93664000D02*
X163703000Y-95312000D01*
%TO.N,/Gnd*%
X159893000Y-90362000D02*
X159639000Y-90362000D01*
X159639000Y-90362000D02*
X158877000Y-91124000D01*
%TO.N,Net-(J8-Pin_1)*%
X156037000Y-93156000D02*
X156145000Y-93048000D01*
%TO.N,Net-(RN3C-R3.2)*%
X156145000Y-93918000D02*
X156337000Y-93918000D01*
X157207000Y-93048000D02*
X157545000Y-93048000D01*
X156337000Y-93918000D02*
X157207000Y-93048000D01*
%TO.N,Net-(RN3A-R1.1)*%
X161163000Y-90707552D02*
X159622552Y-92248000D01*
X159622552Y-92248000D02*
X157545000Y-92248000D01*
%TO.N,Net-(RN3C-R3.2)*%
X162433000Y-91336999D02*
X160721999Y-93048000D01*
X162433000Y-90362000D02*
X162433000Y-91336999D01*
X160721999Y-93048000D02*
X157545000Y-93048000D01*
%TO.N,Net-(RN3A-R1.1)*%
X161163000Y-88684500D02*
X161771500Y-88076000D01*
X161163000Y-90362000D02*
X161163000Y-88684500D01*
%TO.N,Net-(RN3A-R1.2)*%
X157545000Y-90577500D02*
X157545000Y-91378000D01*
X160046500Y-88076000D02*
X157545000Y-90577500D01*
%TO.N,Net-(RN3D-R4.2)*%
X157353000Y-93918000D02*
X157545000Y-93918000D01*
%TO.N,Net-(RN3A-R1.1)*%
X156145000Y-91378000D02*
X156337000Y-91378000D01*
X157207000Y-92248000D02*
X157545000Y-92248000D01*
X156337000Y-91378000D02*
X157207000Y-92248000D01*
%TO.N,Net-(J8-Pin_1)*%
X153130000Y-83598000D02*
X154813000Y-81915000D01*
X153130000Y-90731997D02*
X153130000Y-83598000D01*
X152929997Y-90932000D02*
X153130000Y-90731997D01*
%TO.N,Net-(J8-Pin_2)*%
X152329997Y-81971997D02*
X152329997Y-89916000D01*
X152273000Y-81915000D02*
X152329997Y-81971997D01*
%TO.N,/Gnd*%
X167497000Y-83074000D02*
X167459500Y-83036500D01*
X167513000Y-83074000D02*
X167497000Y-83074000D01*
X167475500Y-83036500D02*
X167513000Y-83074000D01*
%TO.N,/VIN*%
X145647000Y-106934000D02*
X147320000Y-106934000D01*
X151384000Y-107243148D02*
X152927121Y-107243148D01*
X149752121Y-107243148D02*
X151384000Y-107243148D01*
X149752121Y-106376648D02*
X151133121Y-104995648D01*
X149752121Y-107243148D02*
X149752121Y-106376648D01*
X146939000Y-92075000D02*
X147066000Y-92202000D01*
X145588000Y-92075000D02*
X146939000Y-92075000D01*
X151384000Y-92417500D02*
X153345500Y-92417500D01*
X153168500Y-92710000D02*
X152876000Y-92417500D01*
X153384000Y-92417500D02*
X152876000Y-92417500D01*
X153676500Y-92710000D02*
X153384000Y-92417500D01*
%TO.N,Net-(Ui1-DCDC_IN)*%
X147161000Y-86995000D02*
X145588000Y-86995000D01*
X148912500Y-86360000D02*
X149066000Y-86513500D01*
X147161000Y-86995000D02*
X147796000Y-86360000D01*
X147796000Y-86360000D02*
X148912500Y-86360000D01*
%TO.N,Net-(Uv1-DCDC_IN)*%
X147212121Y-101820648D02*
X147847121Y-101185648D01*
X145639121Y-101799648D02*
X145666121Y-101772648D01*
%TO.N,Net-(Uv1-INP)*%
X134699000Y-108204000D02*
X136347000Y-108204000D01*
X127508000Y-102791000D02*
X127486500Y-102769500D01*
%TO.N,Net-(FB5-Pad1)*%
X121331500Y-104553000D02*
X121855500Y-105077000D01*
X124395500Y-107871000D02*
X124395500Y-107617000D01*
%TO.N,Net-(Uv1-DCDC_HGND)*%
X126048500Y-107363000D02*
X129501500Y-107363000D01*
%TO.N,Net-(FB5-Pad1)*%
X122412000Y-108379000D02*
X123887500Y-108379000D01*
%TO.N,/Gnd*%
X145666121Y-103042648D02*
X147847121Y-103042648D01*
%TO.N,Net-(Uv1-DCDC_IN)*%
X145639121Y-101820648D02*
X145639121Y-101799648D01*
%TO.N,Net-(Uv1-DCDC_OUT)*%
X134366000Y-104823000D02*
X135918000Y-104823000D01*
%TO.N,Net-(J6-Pin_2)*%
X113241500Y-105834000D02*
X116073000Y-105834000D01*
%TO.N,Net-(Uv1-DCDC_IN)*%
X148963621Y-101185648D02*
X149117121Y-101339148D01*
%TO.N,/VIN*%
X160639000Y-104775000D02*
X160385000Y-104775000D01*
%TO.N,Net-(Uv1-INP)*%
X127486500Y-102769500D02*
X123784000Y-102769500D01*
%TO.N,Net-(Uv1-INN)*%
X125751500Y-105077000D02*
X125984000Y-104844500D01*
%TO.N,Net-(FB4-Pad1)*%
X122428000Y-102029000D02*
X122617500Y-102218500D01*
%TO.N,Net-(Uv1-HLDO_OUT)*%
D38*
X133055500Y-106934000D02*
X132626500Y-107363000D01*
%TO.N,Net-(FB5-Pad1)*%
D37*
X120650000Y-104553000D02*
X121331500Y-104553000D01*
X122617500Y-105839000D02*
X122617500Y-105077000D01*
%TO.N,Net-(Uv1-DIAG)*%
X149133121Y-104995648D02*
X148450121Y-104312648D01*
%TO.N,Net-(Uv1-DCDC_IN)*%
X147847121Y-101185648D02*
X148963621Y-101185648D01*
%TO.N,Net-(Uv1-DCDC_OUT)*%
X135918000Y-104823000D02*
X136347000Y-104394000D01*
%TO.N,Net-(Uv1-HLDO_OUT)*%
D38*
X136347000Y-106934000D02*
X133055500Y-106934000D01*
%TO.N,Net-(Uv1-DCDC_OUT)*%
D37*
X132942500Y-104823000D02*
X134366000Y-104823000D01*
%TO.N,Net-(Uv1-HLDO_OUT)*%
D38*
X132626500Y-107363000D02*
X132626500Y-109903000D01*
%TO.N,Net-(Uv1-INN)*%
D37*
X134699000Y-109474000D02*
X136347000Y-109474000D01*
%TO.N,Net-(FB5-Pad1)*%
X121855500Y-105077000D02*
X122617500Y-105077000D01*
%TO.N,Net-(Uv1-DCDC_IN)*%
X147212121Y-101820648D02*
X145639121Y-101820648D01*
%TO.N,Net-(Uv1-INN)*%
X127275500Y-104844500D02*
X127508000Y-105077000D01*
%TO.N,Net-(FB4-Pad1)*%
X122428000Y-99759000D02*
X122428000Y-102029000D01*
%TO.N,Net-(Uv1-DCDC_HGND)*%
D38*
X135303000Y-103124000D02*
X134874000Y-103553000D01*
D37*
X129247500Y-107109000D02*
X129501500Y-107363000D01*
%TO.N,Net-(Uv1-DCDC_IN)*%
X147212121Y-104995648D02*
X147212121Y-105376648D01*
%TO.N,Net-(Uv1-INN)*%
X125476000Y-104844500D02*
X127275500Y-104844500D01*
%TO.N,Net-(J6-Pin_2)*%
X116073000Y-105834000D02*
X118618000Y-108379000D01*
%TO.N,Net-(J6-Pin_1)*%
X113246500Y-100759000D02*
X117348000Y-100759000D01*
%TO.N,Net-(FB5-Pad1)*%
X123887500Y-108379000D02*
X124395500Y-107871000D01*
%TO.N,/Gnd*%
X149349621Y-103042648D02*
X149371121Y-103064148D01*
%TO.N,Net-(Uv1-INP)*%
X123784000Y-102769500D02*
X123762500Y-102791000D01*
%TO.N,Net-(Uv1-DCDC_HGND)*%
X125540500Y-107871000D02*
X126048500Y-107363000D01*
D38*
X136347000Y-103124000D02*
X135303000Y-103124000D01*
%TO.N,Net-(Uv1-DCDC_IN)*%
D37*
X147006121Y-105582648D02*
X145666121Y-105582648D01*
%TO.N,Net-(J6-Pin_1)*%
X113241500Y-100754000D02*
X113246500Y-100759000D01*
%TO.N,Net-(Uv1-DCDC_IN)*%
X147212121Y-105376648D02*
X147006121Y-105582648D01*
%TO.N,Net-(FB4-Pad1)*%
X122617500Y-102218500D02*
X122617500Y-102791000D01*
%TO.N,Net-(J6-Pin_1)*%
X117348000Y-100759000D02*
X118364000Y-99743000D01*
%TO.N,Net-(Uv1-DIAG)*%
X148450121Y-104312648D02*
X145666121Y-104312648D01*
%TO.N,Net-(FB4-Pad1)*%
X122617500Y-102791000D02*
X120888000Y-102791000D01*
%TO.N,Net-(Uv1-DCDC_HGND)*%
D38*
X134874000Y-103553000D02*
X131064000Y-103553000D01*
%TO.N,/Gnd*%
D37*
X147847121Y-103042648D02*
X149349621Y-103042648D01*
%TO.N,Net-(FB5-Pad1)*%
X124395500Y-107617000D02*
X122617500Y-105839000D01*
%TO.N,Net-(FB4-Pad1)*%
X122412000Y-99743000D02*
X122428000Y-99759000D01*
%TO.N,Net-(J6-Pin_2)*%
X118618000Y-108379000D02*
X120412000Y-108379000D01*
%TO.N,Net-(J6-Pin_1)*%
X118364000Y-99743000D02*
X120412000Y-99743000D01*
%TO.N,Net-(FB4-Pad1)*%
X120888000Y-102791000D02*
X120650000Y-102553000D01*
%TO.N,Net-(Uv1-INN)*%
X123762500Y-105077000D02*
X125751500Y-105077000D01*
%TO.N,Net-(Ui1-INP)*%
X134667000Y-93297000D02*
X136315000Y-93297000D01*
%TO.N,Net-(Ui1-INN)*%
X127243500Y-89916000D02*
X125936000Y-91223500D01*
%TO.N,Net-(J1-Pin_2)*%
X121315500Y-94234000D02*
X121315500Y-93521500D01*
%TO.N,Net-(Ui1-INP)*%
X125952000Y-85614000D02*
X125936000Y-85598000D01*
%TO.N,Net-(J1-Pin_1)*%
X123855500Y-87884000D02*
X122002000Y-87884000D01*
%TO.N,Net-(Ui1-DCDC_IN)*%
X145588000Y-86995000D02*
X145588000Y-86974000D01*
%TO.N,Net-(J8-Pin_1)*%
X145615000Y-94567000D02*
X151352000Y-94567000D01*
%TO.N,Net-(Ui1-INP)*%
X127243500Y-87884000D02*
X125952000Y-86592500D01*
%TO.N,Net-(Ui1-DCDC_IN)*%
X145588000Y-86974000D02*
X145615000Y-86947000D01*
%TO.N,Net-(Ui1-DCDC_OUT)*%
X134334000Y-89916000D02*
X135886000Y-89916000D01*
%TO.N,Net-(Ui1-DCDC_HGND)*%
X129469500Y-92456000D02*
X127691500Y-94234000D01*
%TO.N,Net-(Ui1-INP)*%
X128492000Y-87884000D02*
X127243500Y-87884000D01*
%TO.N,Net-(J1-Pin_1)*%
X122002000Y-87884000D02*
X121126000Y-87008000D01*
%TO.N,Net-(J8-Pin_2)*%
X147367000Y-93297000D02*
X147796000Y-93726000D01*
%TO.N,Net-(J1-Pin_2)*%
X121315500Y-93521500D02*
X121126000Y-93332000D01*
%TO.N,Net-(Ui1-INN)*%
X128492000Y-89916000D02*
X127243500Y-89916000D01*
%TO.N,Net-(Ui1-DCDC_IN)*%
X146955000Y-90757000D02*
X145615000Y-90757000D01*
%TO.N,Net-(Ui1-HLDO_OUT)*%
D38*
X133023500Y-92027000D02*
X132594500Y-92456000D01*
%TO.N,Net-(FB2-Pad2)*%
D37*
X125190000Y-90948000D02*
X123936000Y-92202000D01*
%TO.N,/Gnd*%
X149298500Y-88217000D02*
X149320000Y-88238500D01*
%TO.N,Net-(Ui1-DCDC_OUT)*%
X135886000Y-89916000D02*
X136315000Y-89487000D01*
%TO.N,Net-(Ui1-HLDO_OUT)*%
D38*
X136315000Y-92027000D02*
X133023500Y-92027000D01*
%TO.N,Net-(Ui1-DCDC_OUT)*%
D37*
X132910500Y-89916000D02*
X134334000Y-89916000D01*
%TO.N,Net-(Ui1-HLDO_OUT)*%
D38*
X132594500Y-92456000D02*
X132594500Y-94996000D01*
%TO.N,Net-(Ui1-INN)*%
D37*
X134667000Y-94567000D02*
X136315000Y-94567000D01*
%TO.N,Net-(FB2-Pad2)*%
X125190000Y-90170000D02*
X125190000Y-90948000D01*
%TO.N,Net-(J1-Pin_2)*%
D39*
X121126000Y-91554000D02*
X121007000Y-91435000D01*
%TO.N,Net-(Ui1-DCDC_HGND)*%
D38*
X135271000Y-88217000D02*
X134842000Y-88646000D01*
%TO.N,Net-(J1-Pin_2)*%
D37*
X121380000Y-91554000D02*
X122764000Y-90170000D01*
X121126000Y-93332000D02*
X121126000Y-91554000D01*
%TO.N,Net-(FB1-Pad2)*%
X125190000Y-86852000D02*
X123936000Y-85598000D01*
%TO.N,Net-(Ui1-INP)*%
X125952000Y-86592500D02*
X125952000Y-85614000D01*
%TO.N,/VIN*%
X149701000Y-92417500D02*
X151384000Y-92417500D01*
%TO.N,/Gnd*%
X145615000Y-88217000D02*
X147796000Y-88217000D01*
%TO.N,Net-(J1-Pin_2)*%
D39*
X121007000Y-91435000D02*
X113209500Y-91435000D01*
%TO.N,Net-(J1-Pin_1)*%
X120846000Y-86754000D02*
X113100500Y-86754000D01*
%TO.N,Net-(Ui1-DCDC_HGND)*%
D38*
X136315000Y-88217000D02*
X135271000Y-88217000D01*
%TO.N,Net-(FB1-Pad2)*%
D37*
X125190000Y-87884000D02*
X125190000Y-86852000D01*
%TO.N,Net-(J1-Pin_2)*%
X122764000Y-90170000D02*
X123855500Y-90170000D01*
%TO.N,Net-(J8-Pin_2)*%
X145615000Y-93297000D02*
X147367000Y-93297000D01*
%TO.N,Net-(Ui1-DCDC_HGND)*%
D38*
X134842000Y-88646000D02*
X131032000Y-88646000D01*
%TO.N,Net-(Ui1-INN)*%
D37*
X125936000Y-91223500D02*
X125936000Y-92202000D01*
%TO.N,Net-(Ui1-DCDC_IN)*%
X147161000Y-90551000D02*
X146955000Y-90757000D01*
%TO.N,Net-(Ui1-DIAG)*%
X148399000Y-89487000D02*
X145615000Y-89487000D01*
%TO.N,Net-(Ui1-DCDC_HGND)*%
X127691500Y-94234000D02*
X122460500Y-94234000D01*
%TO.N,Net-(J8-Pin_2)*%
X147796000Y-93726000D02*
X151098000Y-93726000D01*
%TO.N,Net-(Ui1-DCDC_IN)*%
X147161000Y-90170000D02*
X147161000Y-90551000D01*
%TO.N,Net-(Ui1-INP)*%
X125936000Y-85598000D02*
X125428000Y-85598000D01*
%TO.N,Net-(Ui1-DIAG)*%
X149082000Y-90170000D02*
X148399000Y-89487000D01*
%TO.N,/VIN*%
X151082000Y-91036500D02*
X149701000Y-92417500D01*
X151082000Y-90170000D02*
X151082000Y-91036500D01*
%TO.N,Net-(RN4A-R1.1)*%
X155706000Y-101943000D02*
X155959000Y-101943000D01*
X154836000Y-101073000D02*
X155706000Y-101943000D01*
X154559000Y-101073000D02*
X154836000Y-101073000D01*
%TD*%
%TA.AperFunction,Conductor*%
%TO.N,Net-(Ui1-DCDC_HGND)*%
G36*
X130022665Y-84585279D02*
G01*
X130069056Y-84637525D01*
X130080252Y-84703002D01*
X130070000Y-84803345D01*
X130070000Y-84840000D01*
X130983500Y-84840000D01*
X131050539Y-84859685D01*
X131096294Y-84912489D01*
X131107500Y-84964000D01*
X131107500Y-85090000D01*
X131233500Y-85090000D01*
X131300539Y-85109685D01*
X131346294Y-85162489D01*
X131357500Y-85214000D01*
X131357500Y-86064999D01*
X131416000Y-86064999D01*
X131483039Y-86084684D01*
X131528794Y-86137488D01*
X131540000Y-86188999D01*
X131540000Y-86279915D01*
X131520315Y-86346954D01*
X131467511Y-86392709D01*
X131403397Y-86403273D01*
X131381154Y-86401000D01*
X131282000Y-86401000D01*
X131282000Y-88350999D01*
X131381140Y-88350999D01*
X131381144Y-88350998D01*
X131403394Y-88348725D01*
X131472087Y-88361493D01*
X131522973Y-88409371D01*
X131540000Y-88472083D01*
X131540000Y-88817000D01*
X131520315Y-88884039D01*
X131467511Y-88929794D01*
X131416000Y-88941000D01*
X131335000Y-88941000D01*
X131335000Y-90834000D01*
X131286000Y-90932000D01*
X131286000Y-91021000D01*
X131286000Y-95758000D01*
X131493135Y-95965135D01*
X131510993Y-95987719D01*
X131589288Y-96114656D01*
X131713344Y-96238712D01*
X131862666Y-96330814D01*
X132029203Y-96385999D01*
X132131991Y-96396500D01*
X133057008Y-96396499D01*
X133057016Y-96396498D01*
X133057019Y-96396498D01*
X133113302Y-96390748D01*
X133159797Y-96385999D01*
X133326334Y-96330814D01*
X133401485Y-96284461D01*
X133466581Y-96266000D01*
X133571999Y-96266000D01*
X133572000Y-96266000D01*
X133703098Y-96135001D01*
X134765704Y-96135001D01*
X134765899Y-96137486D01*
X134811718Y-96295198D01*
X134895314Y-96436552D01*
X134895321Y-96436561D01*
X135011438Y-96552678D01*
X135011447Y-96552685D01*
X135152803Y-96636282D01*
X135152806Y-96636283D01*
X135310504Y-96682099D01*
X135310510Y-96682100D01*
X135347350Y-96684999D01*
X135347366Y-96685000D01*
X136038000Y-96685000D01*
X136038000Y-96135000D01*
X134765705Y-96135000D01*
X134765704Y-96135001D01*
X133703098Y-96135001D01*
X134297698Y-95540852D01*
X134359034Y-95507392D01*
X134385316Y-95504568D01*
X134641809Y-95504515D01*
X134708848Y-95524184D01*
X134754615Y-95576979D01*
X134764679Y-95633891D01*
X134765705Y-95635000D01*
X136164000Y-95635000D01*
X136231039Y-95654685D01*
X136276794Y-95707489D01*
X136288000Y-95759000D01*
X136288000Y-95885000D01*
X136414000Y-95885000D01*
X136481039Y-95904685D01*
X136526794Y-95957489D01*
X136538000Y-96009000D01*
X136538000Y-96685000D01*
X136663638Y-96685000D01*
X136730677Y-96704685D01*
X136776432Y-96757489D01*
X136786376Y-96826647D01*
X136757351Y-96890203D01*
X136751319Y-96896681D01*
X136656319Y-96991681D01*
X136594996Y-97025166D01*
X136568638Y-97028000D01*
X129559362Y-97028000D01*
X129492323Y-97008315D01*
X129471681Y-96991681D01*
X129087680Y-96607680D01*
X129054195Y-96546357D01*
X129059179Y-96476665D01*
X129101051Y-96420732D01*
X129166515Y-96396315D01*
X129175361Y-96395999D01*
X129219499Y-96395999D01*
X129719500Y-96395999D01*
X129931972Y-96395999D01*
X129931986Y-96395998D01*
X130034697Y-96385505D01*
X130201119Y-96330358D01*
X130201124Y-96330356D01*
X130350345Y-96238315D01*
X130474315Y-96114345D01*
X130566356Y-95965124D01*
X130566358Y-95965119D01*
X130621505Y-95798697D01*
X130621506Y-95798690D01*
X130631999Y-95695986D01*
X130632000Y-95695973D01*
X130632000Y-95246000D01*
X129719500Y-95246000D01*
X129719500Y-96395999D01*
X129219499Y-96395999D01*
X129219500Y-96395998D01*
X129219500Y-94746000D01*
X129719500Y-94746000D01*
X130631999Y-94746000D01*
X130631999Y-94296028D01*
X130631998Y-94296013D01*
X130621505Y-94193302D01*
X130566358Y-94026880D01*
X130566356Y-94026875D01*
X130474315Y-93877654D01*
X130410342Y-93813681D01*
X130376857Y-93752358D01*
X130381841Y-93682666D01*
X130410342Y-93638319D01*
X130474315Y-93574345D01*
X130566356Y-93425124D01*
X130566358Y-93425119D01*
X130621505Y-93258697D01*
X130621506Y-93258690D01*
X130631999Y-93155986D01*
X130632000Y-93155973D01*
X130632000Y-92706000D01*
X129719500Y-92706000D01*
X129719500Y-94746000D01*
X129219500Y-94746000D01*
X129219500Y-92206000D01*
X129719500Y-92206000D01*
X130631999Y-92206000D01*
X130631999Y-91756028D01*
X130631998Y-91756013D01*
X130621505Y-91653302D01*
X130566358Y-91486880D01*
X130566356Y-91486875D01*
X130474315Y-91337654D01*
X130350345Y-91213684D01*
X130201124Y-91121643D01*
X130201119Y-91121641D01*
X130034697Y-91066494D01*
X130034690Y-91066493D01*
X129931986Y-91056000D01*
X129719500Y-91056000D01*
X129719500Y-92206000D01*
X129219500Y-92206000D01*
X129219500Y-91094470D01*
X129083369Y-91049826D01*
X129070247Y-91040800D01*
X129054971Y-91036315D01*
X129042055Y-91021409D01*
X129025802Y-91010230D01*
X129019643Y-90995544D01*
X129009216Y-90983511D01*
X129003406Y-90956828D01*
X128998780Y-90945797D01*
X128999773Y-90940145D01*
X128998011Y-90932050D01*
X128997891Y-90593587D01*
X129017550Y-90526548D01*
X129034204Y-90505873D01*
X129113789Y-90426289D01*
X129201394Y-90295179D01*
X129239719Y-90202654D01*
X130047501Y-90202654D01*
X130057819Y-90303652D01*
X130112046Y-90467300D01*
X130112051Y-90467311D01*
X130202552Y-90614034D01*
X130202555Y-90614038D01*
X130324461Y-90735944D01*
X130324465Y-90735947D01*
X130471188Y-90826448D01*
X130471199Y-90826453D01*
X130634847Y-90880680D01*
X130735851Y-90890999D01*
X130835000Y-90890998D01*
X130835000Y-90166000D01*
X130047501Y-90166000D01*
X130047501Y-90202654D01*
X129239719Y-90202654D01*
X129261737Y-90149497D01*
X129275739Y-90079102D01*
X129292500Y-89994844D01*
X129292500Y-89837155D01*
X129292499Y-89837153D01*
X129275301Y-89750694D01*
X129261737Y-89682503D01*
X129239718Y-89629345D01*
X130047500Y-89629345D01*
X130047500Y-89666000D01*
X130835000Y-89666000D01*
X130835000Y-88940999D01*
X130735860Y-88941000D01*
X130735844Y-88941001D01*
X130634847Y-88951319D01*
X130471199Y-89005546D01*
X130471188Y-89005551D01*
X130324465Y-89096052D01*
X130324461Y-89096055D01*
X130202555Y-89217961D01*
X130202552Y-89217965D01*
X130112051Y-89364688D01*
X130112046Y-89364699D01*
X130057819Y-89528347D01*
X130047500Y-89629345D01*
X129239718Y-89629345D01*
X129205728Y-89547284D01*
X129201397Y-89536827D01*
X129201390Y-89536814D01*
X129113789Y-89405711D01*
X129113786Y-89405707D01*
X129033726Y-89325647D01*
X129000241Y-89264324D01*
X128997408Y-89238025D01*
X128997168Y-88562309D01*
X129016827Y-88495271D01*
X129033481Y-88474596D01*
X129113789Y-88394289D01*
X129201394Y-88263179D01*
X129261737Y-88117497D01*
X129292500Y-87962842D01*
X129292500Y-87805158D01*
X129292500Y-87805155D01*
X129292499Y-87805153D01*
X129264239Y-87663081D01*
X129264154Y-87662654D01*
X129994501Y-87662654D01*
X130004819Y-87763652D01*
X130059046Y-87927300D01*
X130059051Y-87927311D01*
X130149552Y-88074034D01*
X130149555Y-88074038D01*
X130271461Y-88195944D01*
X130271465Y-88195947D01*
X130418188Y-88286448D01*
X130418199Y-88286453D01*
X130581847Y-88340680D01*
X130682851Y-88350999D01*
X130782000Y-88350998D01*
X130782000Y-87626000D01*
X129994501Y-87626000D01*
X129994501Y-87662654D01*
X129264154Y-87662654D01*
X129261737Y-87650503D01*
X129205728Y-87515284D01*
X129201397Y-87504827D01*
X129201390Y-87504814D01*
X129113789Y-87373711D01*
X129113786Y-87373707D01*
X129033003Y-87292924D01*
X128999518Y-87231601D01*
X128996685Y-87205298D01*
X128996644Y-87089345D01*
X129994500Y-87089345D01*
X129994500Y-87126000D01*
X130782000Y-87126000D01*
X130782000Y-86400999D01*
X130682860Y-86401000D01*
X130682844Y-86401001D01*
X130581847Y-86411319D01*
X130418199Y-86465546D01*
X130418188Y-86465551D01*
X130271465Y-86556052D01*
X130271461Y-86556055D01*
X130149555Y-86677961D01*
X130149552Y-86677965D01*
X130059051Y-86824688D01*
X130059046Y-86824699D01*
X130004819Y-86988347D01*
X129994500Y-87089345D01*
X128996644Y-87089345D01*
X128996034Y-85376654D01*
X130070001Y-85376654D01*
X130080319Y-85477652D01*
X130134546Y-85641300D01*
X130134551Y-85641311D01*
X130225052Y-85788034D01*
X130225055Y-85788038D01*
X130346961Y-85909944D01*
X130346965Y-85909947D01*
X130493688Y-86000448D01*
X130493699Y-86000453D01*
X130657347Y-86054680D01*
X130758351Y-86064999D01*
X130857500Y-86064998D01*
X130857500Y-85340000D01*
X130070001Y-85340000D01*
X130070001Y-85376654D01*
X128996034Y-85376654D01*
X128995952Y-85145610D01*
X129015613Y-85078565D01*
X129032235Y-85057922D01*
X129482404Y-84607433D01*
X129543712Y-84573928D01*
X129568600Y-84571095D01*
X129955393Y-84566408D01*
X130022665Y-84585279D01*
G37*
%TD.AperFunction*%
%TD*%
%TA.AperFunction,Conductor*%
%TO.N,Net-(Ui1-DCDC_OUT)*%
G36*
X135315740Y-84587021D02*
G01*
X135340984Y-84594434D01*
X135393730Y-84625730D01*
X136738711Y-85970711D01*
X136759860Y-85998961D01*
X136765281Y-86008888D01*
X136780135Y-86077161D01*
X136755721Y-86142626D01*
X136699789Y-86184499D01*
X136699785Y-86184501D01*
X136692597Y-86187182D01*
X136649263Y-86195000D01*
X136538000Y-86195000D01*
X136538000Y-86853170D01*
X136532975Y-86888114D01*
X136528570Y-86903112D01*
X136490827Y-86961855D01*
X136489458Y-86963042D01*
X136434597Y-86990518D01*
X136427039Y-86992163D01*
X136400668Y-86995000D01*
X136288000Y-86995000D01*
X136288000Y-87103170D01*
X136282975Y-87138114D01*
X136278570Y-87153112D01*
X136240827Y-87211855D01*
X136239458Y-87213042D01*
X136184597Y-87240518D01*
X136177039Y-87242163D01*
X136150668Y-87245000D01*
X134765703Y-87245000D01*
X134765898Y-87247480D01*
X134765898Y-87247483D01*
X134765899Y-87247486D01*
X134803235Y-87376000D01*
X134811718Y-87405198D01*
X134834489Y-87443702D01*
X134847948Y-87476328D01*
X134851792Y-87491479D01*
X134849198Y-87561300D01*
X134849197Y-87561304D01*
X134847608Y-87566055D01*
X134807676Y-87623389D01*
X134798913Y-87629819D01*
X134792588Y-87634045D01*
X134792585Y-87634048D01*
X134758509Y-87668123D01*
X134727316Y-87690826D01*
X134725824Y-87691589D01*
X134714386Y-87697069D01*
X134703520Y-87703002D01*
X134702026Y-87703767D01*
X134698269Y-87704479D01*
X134664395Y-87715938D01*
X133951212Y-87825658D01*
X133915920Y-87826006D01*
X133902162Y-87824166D01*
X133838323Y-87795768D01*
X133799973Y-87737366D01*
X133797423Y-87728989D01*
X133792696Y-87680297D01*
X133793896Y-87668548D01*
X133793952Y-87668177D01*
X133794500Y-87662645D01*
X133794500Y-87626000D01*
X132898830Y-87626000D01*
X132863889Y-87620975D01*
X132848890Y-87616570D01*
X132790144Y-87578827D01*
X132788957Y-87577458D01*
X132761477Y-87522583D01*
X132759832Y-87515021D01*
X132757000Y-87488668D01*
X132757000Y-87376000D01*
X132648830Y-87376000D01*
X132613889Y-87370975D01*
X132598890Y-87366570D01*
X132540144Y-87328827D01*
X132538957Y-87327458D01*
X132511477Y-87272583D01*
X132509832Y-87265021D01*
X132507000Y-87238668D01*
X132507000Y-87126000D01*
X133007000Y-87126000D01*
X133794499Y-87126000D01*
X133794499Y-87089360D01*
X133794498Y-87089345D01*
X133784180Y-86988347D01*
X133731162Y-86828348D01*
X133731161Y-86828346D01*
X133731161Y-86828344D01*
X133729953Y-86824700D01*
X133729948Y-86824688D01*
X133680793Y-86744996D01*
X134765703Y-86744996D01*
X134765704Y-86744999D01*
X134765705Y-86745000D01*
X136038000Y-86745000D01*
X136038000Y-86195000D01*
X135347344Y-86195000D01*
X135315772Y-86197484D01*
X135310510Y-86197899D01*
X135310504Y-86197900D01*
X135310497Y-86197901D01*
X135310493Y-86197902D01*
X135152833Y-86243707D01*
X135152802Y-86243717D01*
X135152799Y-86243718D01*
X135011452Y-86327310D01*
X135011447Y-86327313D01*
X135011436Y-86327322D01*
X134895321Y-86443437D01*
X134895312Y-86443449D01*
X134828720Y-86556052D01*
X134811718Y-86584801D01*
X134765899Y-86742513D01*
X134765899Y-86742514D01*
X134765898Y-86742519D01*
X134765703Y-86744996D01*
X133680793Y-86744996D01*
X133639447Y-86677965D01*
X133639444Y-86677961D01*
X133639441Y-86677958D01*
X133639439Y-86677955D01*
X133517543Y-86556059D01*
X133517540Y-86556057D01*
X133517538Y-86556055D01*
X133517534Y-86556052D01*
X133517528Y-86556048D01*
X133517518Y-86556041D01*
X133407939Y-86488452D01*
X133370811Y-86465551D01*
X133370809Y-86465550D01*
X133370795Y-86465543D01*
X133207150Y-86411318D01*
X133106159Y-86401000D01*
X133106154Y-86401000D01*
X133007000Y-86401000D01*
X133007000Y-87126000D01*
X132507000Y-87126000D01*
X132507000Y-86445839D01*
X132507000Y-86437255D01*
X132397428Y-86398430D01*
X132393563Y-86396758D01*
X132390203Y-86393963D01*
X132382432Y-86389884D01*
X132382351Y-86390051D01*
X132376302Y-86387085D01*
X132373639Y-86385268D01*
X132370134Y-86383429D01*
X132364273Y-86379190D01*
X132364423Y-86378982D01*
X132347159Y-86367207D01*
X132344329Y-86364616D01*
X132310461Y-86308608D01*
X132309909Y-86308803D01*
X132309903Y-86308786D01*
X132309313Y-86306710D01*
X132308175Y-86304827D01*
X132306899Y-86299527D01*
X132306724Y-86298719D01*
X132306722Y-86298716D01*
X132305671Y-86293878D01*
X132305671Y-86293877D01*
X132305659Y-86293834D01*
X132304825Y-86289994D01*
X132302000Y-86263676D01*
X132302000Y-86201615D01*
X132307022Y-86166685D01*
X132311168Y-86152563D01*
X132348940Y-86093783D01*
X132409985Y-86065143D01*
X132422289Y-86063115D01*
X132455049Y-86062108D01*
X132483351Y-86064999D01*
X133082500Y-86064999D01*
X133181628Y-86064999D01*
X133181640Y-86064999D01*
X133181654Y-86064998D01*
X133282652Y-86054680D01*
X133446300Y-86000453D01*
X133446311Y-86000448D01*
X133593034Y-85909947D01*
X133593038Y-85909944D01*
X133714944Y-85788038D01*
X133714947Y-85788034D01*
X133805448Y-85641311D01*
X133805453Y-85641300D01*
X133859680Y-85477652D01*
X133869999Y-85376654D01*
X133870000Y-85376641D01*
X133870000Y-85340000D01*
X133082500Y-85340000D01*
X133082500Y-86064999D01*
X132483351Y-86064999D01*
X132582500Y-86064998D01*
X132582500Y-85231829D01*
X132587523Y-85196893D01*
X132591927Y-85181895D01*
X132601569Y-85166886D01*
X132602185Y-85164790D01*
X132603834Y-85163360D01*
X132629672Y-85123144D01*
X132631041Y-85121957D01*
X132685920Y-85094477D01*
X132693479Y-85092833D01*
X132719832Y-85090000D01*
X132832500Y-85090000D01*
X132832500Y-84981829D01*
X132837523Y-84946893D01*
X132841927Y-84931895D01*
X132879672Y-84873144D01*
X132881041Y-84871957D01*
X132935920Y-84844477D01*
X132943479Y-84842833D01*
X132969832Y-84840000D01*
X133869999Y-84840000D01*
X133869999Y-84803364D01*
X133869999Y-84803360D01*
X133869998Y-84803345D01*
X133863152Y-84736332D01*
X133864597Y-84701081D01*
X133867289Y-84686601D01*
X133898893Y-84624291D01*
X133956713Y-84589597D01*
X133968751Y-84586329D01*
X134001232Y-84582000D01*
X135280808Y-84582000D01*
X135315740Y-84587021D01*
G37*
%TD.AperFunction*%
%TD*%
%TA.AperFunction,Conductor*%
%TO.N,/Gnd*%
G36*
X148244039Y-95187185D02*
G01*
X148289794Y-95239989D01*
X148301000Y-95291500D01*
X148301000Y-95292500D01*
X150987040Y-95292500D01*
X151034492Y-95301939D01*
X151118498Y-95336735D01*
X151118503Y-95336737D01*
X151269357Y-95366744D01*
X151273153Y-95367499D01*
X151273156Y-95367500D01*
X151273158Y-95367500D01*
X151430844Y-95367500D01*
X151430845Y-95367499D01*
X151585497Y-95336737D01*
X151644771Y-95312185D01*
X151669508Y-95301939D01*
X151716960Y-95292500D01*
X152752000Y-95292500D01*
X152819039Y-95312185D01*
X152864794Y-95364989D01*
X152876000Y-95416500D01*
X152876000Y-95542500D01*
X153002000Y-95542500D01*
X153069039Y-95562185D01*
X153114794Y-95614989D01*
X153126000Y-95666500D01*
X153126000Y-96704999D01*
X153575972Y-96704999D01*
X153575986Y-96704998D01*
X153678697Y-96694505D01*
X153845119Y-96639358D01*
X153845124Y-96639356D01*
X153994345Y-96547315D01*
X154118315Y-96423345D01*
X154170461Y-96338804D01*
X154222409Y-96292080D01*
X154291372Y-96280857D01*
X154355454Y-96308701D01*
X154394310Y-96366769D01*
X154400000Y-96403901D01*
X154400000Y-96659138D01*
X154380315Y-96726177D01*
X154363681Y-96746819D01*
X153864819Y-97245681D01*
X153803496Y-97279166D01*
X153777138Y-97282000D01*
X145207576Y-97282000D01*
X145140537Y-97262315D01*
X145119895Y-97245681D01*
X144784319Y-96910105D01*
X144750834Y-96848782D01*
X144748000Y-96822424D01*
X144748000Y-96809000D01*
X144767685Y-96741961D01*
X144820489Y-96696206D01*
X144872000Y-96685000D01*
X145338000Y-96685000D01*
X145838000Y-96685000D01*
X146528634Y-96685000D01*
X146528649Y-96684999D01*
X146565489Y-96682100D01*
X146565495Y-96682099D01*
X146723193Y-96636283D01*
X146723196Y-96636282D01*
X146864552Y-96552685D01*
X146864561Y-96552678D01*
X146980678Y-96436561D01*
X146980685Y-96436552D01*
X147064281Y-96295198D01*
X147110100Y-96137486D01*
X147110295Y-96135001D01*
X147110295Y-96135000D01*
X145838000Y-96135000D01*
X145838000Y-96685000D01*
X145338000Y-96685000D01*
X145338000Y-96009000D01*
X145339179Y-96004986D01*
X148301001Y-96004986D01*
X148311494Y-96107697D01*
X148366641Y-96274119D01*
X148366643Y-96274124D01*
X148458684Y-96423345D01*
X148582654Y-96547315D01*
X148731875Y-96639356D01*
X148731880Y-96639358D01*
X148898302Y-96694505D01*
X148898309Y-96694506D01*
X149001019Y-96704999D01*
X149450999Y-96704999D01*
X149951000Y-96704999D01*
X150400972Y-96704999D01*
X150400986Y-96704998D01*
X150503697Y-96694505D01*
X150670119Y-96639358D01*
X150670124Y-96639356D01*
X150819345Y-96547315D01*
X150943315Y-96423345D01*
X151035356Y-96274124D01*
X151035358Y-96274119D01*
X151090505Y-96107697D01*
X151090506Y-96107690D01*
X151100999Y-96004986D01*
X151476001Y-96004986D01*
X151486494Y-96107697D01*
X151541641Y-96274119D01*
X151541643Y-96274124D01*
X151633684Y-96423345D01*
X151757654Y-96547315D01*
X151906875Y-96639356D01*
X151906880Y-96639358D01*
X152073302Y-96694505D01*
X152073309Y-96694506D01*
X152176019Y-96704999D01*
X152625999Y-96704999D01*
X152626000Y-96704998D01*
X152626000Y-95792500D01*
X151476001Y-95792500D01*
X151476001Y-96004986D01*
X151100999Y-96004986D01*
X151101000Y-96004973D01*
X151101000Y-95792500D01*
X149951000Y-95792500D01*
X149951000Y-96704999D01*
X149450999Y-96704999D01*
X149451000Y-96704998D01*
X149451000Y-95792500D01*
X148301001Y-95792500D01*
X148301001Y-96004986D01*
X145339179Y-96004986D01*
X145357685Y-95941961D01*
X145410489Y-95896206D01*
X145462000Y-95885000D01*
X145588000Y-95885000D01*
X145588000Y-95759000D01*
X145607685Y-95691961D01*
X145660489Y-95646206D01*
X145712000Y-95635000D01*
X147110296Y-95635000D01*
X147110100Y-95632513D01*
X147062105Y-95467310D01*
X147063791Y-95466819D01*
X147056409Y-95407068D01*
X147086689Y-95344101D01*
X147146205Y-95307501D01*
X147161221Y-95304396D01*
X148110781Y-95168745D01*
X148128311Y-95167500D01*
X148177000Y-95167500D01*
X148244039Y-95187185D01*
G37*
%TD.AperFunction*%
%TD*%
%TA.AperFunction,Conductor*%
%TO.N,Net-(Uv1-DCDC_HGND)*%
G36*
X130054665Y-99492279D02*
G01*
X130101056Y-99544525D01*
X130112252Y-99610002D01*
X130102000Y-99710345D01*
X130102000Y-99747000D01*
X131015500Y-99747000D01*
X131082539Y-99766685D01*
X131128294Y-99819489D01*
X131139500Y-99871000D01*
X131139500Y-99997000D01*
X131265500Y-99997000D01*
X131332539Y-100016685D01*
X131378294Y-100069489D01*
X131389500Y-100121000D01*
X131389500Y-100971999D01*
X131448000Y-100971999D01*
X131515039Y-100991684D01*
X131560794Y-101044488D01*
X131572000Y-101095999D01*
X131572000Y-101186915D01*
X131552315Y-101253954D01*
X131499511Y-101299709D01*
X131435397Y-101310273D01*
X131413154Y-101308000D01*
X131314000Y-101308000D01*
X131314000Y-103257999D01*
X131413140Y-103257999D01*
X131413144Y-103257998D01*
X131435394Y-103255725D01*
X131504087Y-103268493D01*
X131554973Y-103316371D01*
X131572000Y-103379083D01*
X131572000Y-103724000D01*
X131552315Y-103791039D01*
X131499511Y-103836794D01*
X131448000Y-103848000D01*
X131367000Y-103848000D01*
X131367000Y-105741000D01*
X131318000Y-105839000D01*
X131318000Y-105928000D01*
X131318000Y-110665000D01*
X131525135Y-110872135D01*
X131542993Y-110894719D01*
X131621288Y-111021656D01*
X131745344Y-111145712D01*
X131894666Y-111237814D01*
X132061203Y-111292999D01*
X132163991Y-111303500D01*
X133089008Y-111303499D01*
X133089016Y-111303498D01*
X133089019Y-111303498D01*
X133166716Y-111295561D01*
X133191797Y-111292999D01*
X133358334Y-111237814D01*
X133433485Y-111191461D01*
X133498581Y-111173000D01*
X133603999Y-111173000D01*
X133604000Y-111173000D01*
X133783135Y-110994001D01*
X134824704Y-110994001D01*
X134824899Y-110996486D01*
X134870718Y-111154198D01*
X134954314Y-111295552D01*
X134954321Y-111295561D01*
X135070438Y-111411678D01*
X135070447Y-111411685D01*
X135211803Y-111495282D01*
X135211806Y-111495283D01*
X135369504Y-111541099D01*
X135369510Y-111541100D01*
X135406350Y-111543999D01*
X135406366Y-111544000D01*
X136097000Y-111544000D01*
X136097000Y-110994000D01*
X134824705Y-110994000D01*
X134824704Y-110994001D01*
X133783135Y-110994001D01*
X134329698Y-110447852D01*
X134391034Y-110414392D01*
X134417316Y-110411568D01*
X134697029Y-110411510D01*
X134764072Y-110431181D01*
X134785730Y-110456165D01*
X134787888Y-110454172D01*
X134824705Y-110494000D01*
X136223000Y-110494000D01*
X136290039Y-110513685D01*
X136335794Y-110566489D01*
X136347000Y-110618000D01*
X136347000Y-110744000D01*
X136473000Y-110744000D01*
X136540039Y-110763685D01*
X136585794Y-110816489D01*
X136597000Y-110868000D01*
X136597000Y-111544000D01*
X136743638Y-111544000D01*
X136810677Y-111563685D01*
X136856432Y-111616489D01*
X136866376Y-111685647D01*
X136837351Y-111749203D01*
X136831319Y-111755681D01*
X136688319Y-111898681D01*
X136626996Y-111932166D01*
X136600638Y-111935000D01*
X129591362Y-111935000D01*
X129524323Y-111915315D01*
X129503681Y-111898681D01*
X129119680Y-111514680D01*
X129086195Y-111453357D01*
X129091179Y-111383665D01*
X129133051Y-111327732D01*
X129198515Y-111303315D01*
X129207361Y-111302999D01*
X129251499Y-111302999D01*
X129751500Y-111302999D01*
X129963972Y-111302999D01*
X129963986Y-111302998D01*
X130066697Y-111292505D01*
X130233119Y-111237358D01*
X130233124Y-111237356D01*
X130382345Y-111145315D01*
X130506315Y-111021345D01*
X130598356Y-110872124D01*
X130598358Y-110872119D01*
X130653505Y-110705697D01*
X130653506Y-110705690D01*
X130663999Y-110602986D01*
X130664000Y-110602973D01*
X130664000Y-110153000D01*
X129751500Y-110153000D01*
X129751500Y-111302999D01*
X129251499Y-111302999D01*
X129251500Y-111302998D01*
X129251500Y-109653000D01*
X129751500Y-109653000D01*
X130663999Y-109653000D01*
X130663999Y-109203028D01*
X130663998Y-109203013D01*
X130653505Y-109100302D01*
X130598358Y-108933880D01*
X130598356Y-108933875D01*
X130506315Y-108784654D01*
X130442342Y-108720681D01*
X130408857Y-108659358D01*
X130413841Y-108589666D01*
X130442342Y-108545319D01*
X130506315Y-108481345D01*
X130598356Y-108332124D01*
X130598358Y-108332119D01*
X130653505Y-108165697D01*
X130653506Y-108165690D01*
X130663999Y-108062986D01*
X130664000Y-108062973D01*
X130664000Y-107613000D01*
X129751500Y-107613000D01*
X129751500Y-109653000D01*
X129251500Y-109653000D01*
X129251500Y-107113000D01*
X129751500Y-107113000D01*
X130663999Y-107113000D01*
X130663999Y-106663028D01*
X130663998Y-106663013D01*
X130653505Y-106560302D01*
X130598358Y-106393880D01*
X130598356Y-106393875D01*
X130506315Y-106244654D01*
X130382345Y-106120684D01*
X130233124Y-106028643D01*
X130233119Y-106028641D01*
X130066697Y-105973494D01*
X130066690Y-105973493D01*
X129963986Y-105963000D01*
X129751500Y-105963000D01*
X129751500Y-107113000D01*
X129251500Y-107113000D01*
X129251500Y-106001470D01*
X129115369Y-105956826D01*
X129102247Y-105947800D01*
X129086971Y-105943315D01*
X129074055Y-105928409D01*
X129057802Y-105917230D01*
X129051643Y-105902544D01*
X129041216Y-105890511D01*
X129035406Y-105863828D01*
X129030780Y-105852797D01*
X129031773Y-105847145D01*
X129030011Y-105839050D01*
X129029752Y-105109654D01*
X130079501Y-105109654D01*
X130089819Y-105210652D01*
X130144046Y-105374300D01*
X130144051Y-105374311D01*
X130234552Y-105521034D01*
X130234555Y-105521038D01*
X130356461Y-105642944D01*
X130356465Y-105642947D01*
X130503188Y-105733448D01*
X130503199Y-105733453D01*
X130666847Y-105787680D01*
X130767851Y-105797999D01*
X130867000Y-105797998D01*
X130867000Y-105073000D01*
X130079501Y-105073000D01*
X130079501Y-105109654D01*
X129029752Y-105109654D01*
X129029548Y-104536345D01*
X130079500Y-104536345D01*
X130079500Y-104573000D01*
X130867000Y-104573000D01*
X130867000Y-103847999D01*
X130767860Y-103848000D01*
X130767844Y-103848001D01*
X130666847Y-103858319D01*
X130503199Y-103912546D01*
X130503188Y-103912551D01*
X130356465Y-104003052D01*
X130356461Y-104003055D01*
X130234555Y-104124961D01*
X130234552Y-104124965D01*
X130144051Y-104271688D01*
X130144046Y-104271699D01*
X130089819Y-104435347D01*
X130079500Y-104536345D01*
X129029548Y-104536345D01*
X129028848Y-102569654D01*
X130026501Y-102569654D01*
X130036819Y-102670652D01*
X130091046Y-102834300D01*
X130091051Y-102834311D01*
X130181552Y-102981034D01*
X130181555Y-102981038D01*
X130303461Y-103102944D01*
X130303465Y-103102947D01*
X130450188Y-103193448D01*
X130450199Y-103193453D01*
X130613847Y-103247680D01*
X130714851Y-103257999D01*
X130814000Y-103257998D01*
X130814000Y-102533000D01*
X130026501Y-102533000D01*
X130026501Y-102569654D01*
X129028848Y-102569654D01*
X129028644Y-101996345D01*
X130026500Y-101996345D01*
X130026500Y-102033000D01*
X130814000Y-102033000D01*
X130814000Y-101307999D01*
X130714860Y-101308000D01*
X130714844Y-101308001D01*
X130613847Y-101318319D01*
X130450199Y-101372546D01*
X130450188Y-101372551D01*
X130303465Y-101463052D01*
X130303461Y-101463055D01*
X130181555Y-101584961D01*
X130181552Y-101584965D01*
X130091051Y-101731688D01*
X130091046Y-101731699D01*
X130036819Y-101895347D01*
X130026500Y-101996345D01*
X129028644Y-101996345D01*
X129028034Y-100283654D01*
X130102001Y-100283654D01*
X130112319Y-100384652D01*
X130166546Y-100548300D01*
X130166551Y-100548311D01*
X130257052Y-100695034D01*
X130257055Y-100695038D01*
X130378961Y-100816944D01*
X130378965Y-100816947D01*
X130525688Y-100907448D01*
X130525699Y-100907453D01*
X130689347Y-100961680D01*
X130790351Y-100971999D01*
X130889500Y-100971998D01*
X130889500Y-100247000D01*
X130102001Y-100247000D01*
X130102001Y-100283654D01*
X129028034Y-100283654D01*
X129027952Y-100052610D01*
X129047613Y-99985565D01*
X129064235Y-99964922D01*
X129514404Y-99514433D01*
X129575712Y-99480928D01*
X129600600Y-99478095D01*
X129987393Y-99473408D01*
X130054665Y-99492279D01*
G37*
%TD.AperFunction*%
%TD*%
%TA.AperFunction,Conductor*%
%TO.N,Net-(Uv1-DCDC_OUT)*%
G36*
X135347740Y-99494021D02*
G01*
X135372984Y-99501434D01*
X135425730Y-99532730D01*
X136722711Y-100829711D01*
X136743860Y-100857961D01*
X136749281Y-100867888D01*
X136764135Y-100936161D01*
X136739721Y-101001626D01*
X136683789Y-101043499D01*
X136683785Y-101043501D01*
X136676597Y-101046182D01*
X136633263Y-101054000D01*
X136597000Y-101054000D01*
X136597000Y-101712170D01*
X136591975Y-101747114D01*
X136587570Y-101762112D01*
X136549827Y-101820855D01*
X136548458Y-101822042D01*
X136493597Y-101849518D01*
X136486039Y-101851163D01*
X136459668Y-101854000D01*
X136347000Y-101854000D01*
X136347000Y-101962170D01*
X136341975Y-101997114D01*
X136337570Y-102012112D01*
X136299827Y-102070855D01*
X136298458Y-102072042D01*
X136243597Y-102099518D01*
X136236039Y-102101163D01*
X136209668Y-102104000D01*
X134824703Y-102104000D01*
X134824898Y-102106480D01*
X134824898Y-102106483D01*
X134824899Y-102106486D01*
X134870718Y-102264198D01*
X134906187Y-102324173D01*
X134919648Y-102356804D01*
X134923492Y-102371957D01*
X134920898Y-102441772D01*
X134919750Y-102445205D01*
X134888990Y-102494396D01*
X134885718Y-102497606D01*
X134867771Y-102512191D01*
X134865375Y-102513792D01*
X134865373Y-102513794D01*
X134824588Y-102541045D01*
X134824582Y-102541048D01*
X134824576Y-102541053D01*
X134792422Y-102573208D01*
X134764167Y-102594360D01*
X134736967Y-102609212D01*
X134696396Y-102622937D01*
X133983212Y-102732658D01*
X133947920Y-102733006D01*
X133934162Y-102731166D01*
X133870323Y-102702768D01*
X133831972Y-102644366D01*
X133829423Y-102635990D01*
X133824696Y-102587297D01*
X133825896Y-102575548D01*
X133825952Y-102575177D01*
X133826500Y-102569645D01*
X133826500Y-102533000D01*
X132930830Y-102533000D01*
X132895889Y-102527975D01*
X132880890Y-102523570D01*
X132822144Y-102485827D01*
X132820957Y-102484458D01*
X132793477Y-102429583D01*
X132791832Y-102422021D01*
X132789000Y-102395668D01*
X132789000Y-102283000D01*
X132680830Y-102283000D01*
X132645889Y-102277975D01*
X132630890Y-102273570D01*
X132572144Y-102235827D01*
X132570957Y-102234458D01*
X132543477Y-102179583D01*
X132541832Y-102172021D01*
X132539000Y-102145668D01*
X132539000Y-102033000D01*
X133039000Y-102033000D01*
X133826499Y-102033000D01*
X133826499Y-101996360D01*
X133826498Y-101996345D01*
X133816180Y-101895347D01*
X133761953Y-101731699D01*
X133761948Y-101731688D01*
X133750693Y-101713441D01*
X133750693Y-101713440D01*
X133727753Y-101676249D01*
X133727752Y-101676248D01*
X133683187Y-101603999D01*
X133683185Y-101603996D01*
X134824703Y-101603996D01*
X134824704Y-101603999D01*
X134824705Y-101604000D01*
X136097000Y-101604000D01*
X136097000Y-101054000D01*
X135406344Y-101054000D01*
X135374772Y-101056484D01*
X135369510Y-101056899D01*
X135369504Y-101056900D01*
X135369497Y-101056901D01*
X135369493Y-101056902D01*
X135211833Y-101102707D01*
X135211802Y-101102717D01*
X135211799Y-101102718D01*
X135070452Y-101186310D01*
X135070447Y-101186313D01*
X135070436Y-101186322D01*
X134954321Y-101302437D01*
X134954312Y-101302449D01*
X134912854Y-101372552D01*
X134870718Y-101443801D01*
X134829709Y-101584958D01*
X134824899Y-101601514D01*
X134824898Y-101601519D01*
X134824703Y-101603996D01*
X133683185Y-101603996D01*
X133671447Y-101584965D01*
X133671444Y-101584961D01*
X133671441Y-101584958D01*
X133671439Y-101584955D01*
X133549543Y-101463059D01*
X133549540Y-101463057D01*
X133549538Y-101463055D01*
X133549534Y-101463052D01*
X133549528Y-101463048D01*
X133549518Y-101463041D01*
X133439939Y-101395452D01*
X133402811Y-101372551D01*
X133402809Y-101372550D01*
X133402795Y-101372543D01*
X133239150Y-101318318D01*
X133138159Y-101308000D01*
X133138154Y-101308000D01*
X133039000Y-101308000D01*
X133039000Y-102033000D01*
X132539000Y-102033000D01*
X132539000Y-101352839D01*
X132539000Y-101344255D01*
X132429428Y-101305430D01*
X132425563Y-101303758D01*
X132422203Y-101300963D01*
X132414432Y-101296884D01*
X132414351Y-101297051D01*
X132408302Y-101294085D01*
X132405639Y-101292268D01*
X132402134Y-101290429D01*
X132396273Y-101286190D01*
X132396423Y-101285982D01*
X132379159Y-101274207D01*
X132376329Y-101271616D01*
X132342461Y-101215608D01*
X132341909Y-101215803D01*
X132341903Y-101215786D01*
X132341313Y-101213710D01*
X132340175Y-101211827D01*
X132338899Y-101206527D01*
X132338724Y-101205719D01*
X132338722Y-101205716D01*
X132337671Y-101200878D01*
X132337671Y-101200877D01*
X132337659Y-101200834D01*
X132336825Y-101196994D01*
X132334000Y-101170676D01*
X132334000Y-101108615D01*
X132339022Y-101073685D01*
X132343168Y-101059563D01*
X132380940Y-101000783D01*
X132441985Y-100972143D01*
X132454289Y-100970115D01*
X132487049Y-100969108D01*
X132515351Y-100971999D01*
X133114500Y-100971999D01*
X133213628Y-100971999D01*
X133213640Y-100971999D01*
X133213654Y-100971998D01*
X133314652Y-100961680D01*
X133478300Y-100907453D01*
X133478311Y-100907448D01*
X133625034Y-100816947D01*
X133625038Y-100816944D01*
X133746944Y-100695038D01*
X133746947Y-100695034D01*
X133837448Y-100548311D01*
X133837453Y-100548300D01*
X133891680Y-100384652D01*
X133901999Y-100283654D01*
X133902000Y-100283641D01*
X133902000Y-100247000D01*
X133114500Y-100247000D01*
X133114500Y-100971999D01*
X132515351Y-100971999D01*
X132614500Y-100971998D01*
X132614500Y-100138829D01*
X132619523Y-100103893D01*
X132623927Y-100088895D01*
X132633569Y-100073886D01*
X132634185Y-100071790D01*
X132635834Y-100070360D01*
X132661672Y-100030144D01*
X132663041Y-100028957D01*
X132717920Y-100001477D01*
X132725479Y-99999833D01*
X132751832Y-99997000D01*
X132864500Y-99997000D01*
X132864500Y-99888829D01*
X132869523Y-99853893D01*
X132873927Y-99838895D01*
X132911672Y-99780144D01*
X132913041Y-99778957D01*
X132967920Y-99751477D01*
X132975479Y-99749833D01*
X133001832Y-99747000D01*
X133901999Y-99747000D01*
X133901999Y-99710364D01*
X133901999Y-99710360D01*
X133901998Y-99710345D01*
X133895152Y-99643332D01*
X133896597Y-99608081D01*
X133899289Y-99593601D01*
X133930893Y-99531291D01*
X133988713Y-99496597D01*
X134000751Y-99493329D01*
X134033232Y-99489000D01*
X135312808Y-99489000D01*
X135347740Y-99494021D01*
G37*
%TD.AperFunction*%
%TD*%
%TA.AperFunction,Conductor*%
%TO.N,/Gnd*%
G36*
X148295160Y-110012833D02*
G01*
X148340915Y-110065637D01*
X148352121Y-110117148D01*
X148352121Y-110118148D01*
X151152120Y-110118148D01*
X151152120Y-110117148D01*
X151171805Y-110050109D01*
X151224609Y-110004354D01*
X151276120Y-109993148D01*
X151403121Y-109993148D01*
X151470160Y-110012833D01*
X151515915Y-110065637D01*
X151527121Y-110117148D01*
X151527121Y-110118148D01*
X152803121Y-110118148D01*
X152870160Y-110137833D01*
X152915915Y-110190637D01*
X152927121Y-110242148D01*
X152927121Y-110368148D01*
X153053121Y-110368148D01*
X153120160Y-110387833D01*
X153165915Y-110440637D01*
X153177121Y-110492148D01*
X153177121Y-111530647D01*
X153627093Y-111530647D01*
X153627107Y-111530646D01*
X153729818Y-111520153D01*
X153896240Y-111465006D01*
X153896245Y-111465004D01*
X154045466Y-111372963D01*
X154169436Y-111248993D01*
X154221582Y-111164452D01*
X154273530Y-111117728D01*
X154342493Y-111106505D01*
X154406575Y-111134349D01*
X154445431Y-111192417D01*
X154451121Y-111229549D01*
X154451121Y-111484786D01*
X154431436Y-111551825D01*
X154414802Y-111572467D01*
X153915940Y-112071329D01*
X153854617Y-112104814D01*
X153828259Y-112107648D01*
X145258697Y-112107648D01*
X145191658Y-112087963D01*
X145171016Y-112071329D01*
X144855368Y-111755681D01*
X144821883Y-111694358D01*
X144826867Y-111624666D01*
X144868739Y-111568733D01*
X144934203Y-111544316D01*
X144943049Y-111544000D01*
X145397000Y-111544000D01*
X145897000Y-111544000D01*
X146587634Y-111544000D01*
X146587649Y-111543999D01*
X146624489Y-111541100D01*
X146624495Y-111541099D01*
X146782193Y-111495283D01*
X146782196Y-111495282D01*
X146923552Y-111411685D01*
X146923561Y-111411678D01*
X147039678Y-111295561D01*
X147039685Y-111295552D01*
X147123281Y-111154198D01*
X147169100Y-110996486D01*
X147169295Y-110994001D01*
X147169295Y-110994000D01*
X145897000Y-110994000D01*
X145897000Y-111544000D01*
X145397000Y-111544000D01*
X145397000Y-110868000D01*
X145407972Y-110830634D01*
X148352122Y-110830634D01*
X148362615Y-110933345D01*
X148417762Y-111099767D01*
X148417764Y-111099772D01*
X148509805Y-111248993D01*
X148633775Y-111372963D01*
X148782996Y-111465004D01*
X148783001Y-111465006D01*
X148949423Y-111520153D01*
X148949430Y-111520154D01*
X149052140Y-111530647D01*
X149502120Y-111530647D01*
X150002121Y-111530647D01*
X150452093Y-111530647D01*
X150452107Y-111530646D01*
X150554818Y-111520153D01*
X150721240Y-111465006D01*
X150721245Y-111465004D01*
X150870466Y-111372963D01*
X150994436Y-111248993D01*
X151086477Y-111099772D01*
X151086479Y-111099767D01*
X151141626Y-110933345D01*
X151141627Y-110933338D01*
X151152120Y-110830634D01*
X151527122Y-110830634D01*
X151537615Y-110933345D01*
X151592762Y-111099767D01*
X151592764Y-111099772D01*
X151684805Y-111248993D01*
X151808775Y-111372963D01*
X151957996Y-111465004D01*
X151958001Y-111465006D01*
X152124423Y-111520153D01*
X152124430Y-111520154D01*
X152227140Y-111530647D01*
X152677120Y-111530647D01*
X152677121Y-111530646D01*
X152677121Y-110618148D01*
X151527122Y-110618148D01*
X151527122Y-110830634D01*
X151152120Y-110830634D01*
X151152121Y-110830621D01*
X151152121Y-110618148D01*
X150002121Y-110618148D01*
X150002121Y-111530647D01*
X149502120Y-111530647D01*
X149502121Y-111530646D01*
X149502121Y-110618148D01*
X148352122Y-110618148D01*
X148352122Y-110830634D01*
X145407972Y-110830634D01*
X145416685Y-110800961D01*
X145469489Y-110755206D01*
X145521000Y-110744000D01*
X145647000Y-110744000D01*
X145647000Y-110618000D01*
X145666685Y-110550961D01*
X145719489Y-110505206D01*
X145771000Y-110494000D01*
X147169295Y-110494000D01*
X147169295Y-110493998D01*
X147169100Y-110491513D01*
X147123281Y-110333801D01*
X147113519Y-110317294D01*
X147096336Y-110249570D01*
X147118496Y-110183307D01*
X147172962Y-110139544D01*
X147202704Y-110131421D01*
X148161902Y-109994393D01*
X148179432Y-109993148D01*
X148228121Y-109993148D01*
X148295160Y-110012833D01*
G37*
%TD.AperFunction*%
%TD*%
M02*
