%TF.GenerationSoftware,KiCad,Pcbnew,10.0.0*%
%TF.CreationDate,2026-05-10T20:23:31-05:00*%
%TF.ProjectId,DualAMCBoard,4475616c-414d-4434-926f-6172642e6b69,rev?*%
%TF.SameCoordinates,Original*%
%TF.FileFunction,Copper,L3,Inr*%
%TF.FilePolarity,Positive*%
%FSLAX46Y46*%
G04 Gerber Fmt 4.6, Leading zero omitted, Abs format (unit mm)*
G04 Created by KiCad (PCBNEW 10.0.0) date 2026-05-10 20:23:31*
%MOMM*%
%LPD*%
G01*
G04 APERTURE LIST*
G04 Aperture macros list*
%AMRoundRect*
0 Rectangle with rounded corners*
0 $1 Rounding radius*
0 $2 $3 $4 $5 $6 $7 $8 $9 X,Y pos of 4 corners*
0 Add a 4 corners polygon primitive as box body*
4,1,4,$2,$3,$4,$5,$6,$7,$8,$9,$2,$3,0*
0 Add four circle primitives for the rounded corners*
1,1,$1+$1,$2,$3*
1,1,$1+$1,$4,$5*
1,1,$1+$1,$6,$7*
1,1,$1+$1,$8,$9*
0 Add four rect primitives between the rounded corners*
20,1,$1+$1,$2,$3,$4,$5,0*
20,1,$1+$1,$4,$5,$6,$7,0*
20,1,$1+$1,$6,$7,$8,$9,0*
20,1,$1+$1,$8,$9,$2,$3,0*%
G04 Aperture macros list end*
%TA.AperFunction,ComponentPad*%
%ADD10RoundRect,0.249999X0.850001X0.850001X-0.850001X0.850001X-0.850001X-0.850001X0.850001X-0.850001X0*%
%TD*%
%TA.AperFunction,ComponentPad*%
%ADD11C,2.200000*%
%TD*%
%TA.AperFunction,ComponentPad*%
%ADD12RoundRect,0.249999X-0.850001X-0.850001X0.850001X-0.850001X0.850001X0.850001X-0.850001X0.850001X0*%
%TD*%
%TA.AperFunction,ComponentPad*%
%ADD13RoundRect,0.249999X0.850001X-0.850001X0.850001X0.850001X-0.850001X0.850001X-0.850001X-0.850001X0*%
%TD*%
%TA.AperFunction,ComponentPad*%
%ADD14C,2.600000*%
%TD*%
%TA.AperFunction,ComponentPad*%
%ADD15RoundRect,0.250001X-0.799999X0.799999X-0.799999X-0.799999X0.799999X-0.799999X0.799999X0.799999X0*%
%TD*%
%TA.AperFunction,ComponentPad*%
%ADD16C,2.100000*%
%TD*%
%TA.AperFunction,ViaPad*%
%ADD17C,0.600000*%
%TD*%
G04 APERTURE END LIST*
D10*
%TO.N,Net-(J8-Pin_1)*%
%TO.C,J8*%
X154813000Y-82042000D03*
D11*
%TO.N,Net-(J8-Pin_2)*%
X152273000Y-82042000D03*
%TD*%
%TO.N,Net-(J11-Pin_2)*%
%TO.C,J11*%
X160909000Y-110309500D03*
D12*
%TO.N,Net-(J11-Pin_1)*%
X158369000Y-110309500D03*
%TD*%
D13*
%TO.N,/Gnd*%
%TO.C,J7*%
X169672000Y-107442000D03*
D11*
%TO.N,/VIN*%
X169672000Y-104902000D03*
%TD*%
D14*
%TO.N,N/C*%
%TO.C,H1*%
X110490000Y-80010000D03*
%TD*%
%TO.N,N/C*%
%TO.C,H2*%
X110490000Y-112522000D03*
%TD*%
%TO.N,N/C*%
%TO.C,H3*%
X171947500Y-79962000D03*
%TD*%
%TO.N,N/C*%
%TO.C,H4*%
X171958000Y-112522000D03*
%TD*%
D11*
%TO.N,/SE_Out_I*%
%TO.C,J9*%
X169672000Y-89662000D03*
D13*
%TO.N,/SE_Out_V*%
X169672000Y-92202000D03*
%TD*%
D15*
%TO.N,Net-(J6-Pin_1)*%
%TO.C,J6*%
X113241500Y-100754000D03*
D16*
%TO.N,Net-(J6-Pin_2)*%
X113241500Y-105834000D03*
%TD*%
D15*
%TO.N,Net-(J1-Pin_1)*%
%TO.C,J1*%
X113209500Y-86355000D03*
D16*
%TO.N,Net-(J1-Pin_2)*%
X113209500Y-91435000D03*
%TD*%
D17*
%TO.N,Net-(RN4D-R4.2)*%
X158251193Y-100713882D03*
X157228265Y-102872265D03*
%TO.N,Net-(RN4C-R3.2)*%
X157487835Y-100474530D03*
X157099000Y-101727000D03*
%TO.N,Net-(J11-Pin_1)*%
X155575000Y-107950000D03*
X155575000Y-109392648D03*
%TO.N,/VIN*%
X161417000Y-106172000D03*
%TO.N,/Gnd*%
X160401000Y-100711000D03*
X170434000Y-100076000D03*
X166243000Y-82550000D03*
X157988000Y-81661000D03*
%TO.N,/VIN*%
X163322000Y-81788000D03*
%TO.N,/Gnd*%
X158877000Y-91124000D03*
%TO.N,/VIN*%
X163703000Y-93664000D03*
%TO.N,/Gnd*%
X151384000Y-95758000D03*
%TO.N,/VIN*%
X147320000Y-106934000D03*
X151384000Y-107243148D03*
X147066000Y-92202000D03*
X151384000Y-92417500D03*
%TO.N,Net-(Uv1-INP)*%
X134699000Y-108204000D03*
%TO.N,Net-(Uv1-DCDC_OUT)*%
X134366000Y-101775000D03*
X134366000Y-104823000D03*
%TO.N,/Gnd*%
X147812121Y-103042648D03*
X147847121Y-111472648D03*
%TO.N,Net-(Uv1-DCDC_IN)*%
X147212121Y-101820648D03*
%TO.N,Net-(Uv1-INN)*%
X127508000Y-105077000D03*
%TO.N,Net-(Uv1-DCDC_IN)*%
X147212121Y-104995648D03*
%TO.N,Net-(Uv1-INN)*%
X134699000Y-109474000D03*
%TO.N,Net-(Uv1-INP)*%
X127508000Y-102791000D03*
%TO.N,/Gnd*%
X147796000Y-88217000D03*
%TO.N,Net-(Ui1-INP)*%
X134667000Y-93297000D03*
%TO.N,Net-(Ui1-DCDC_OUT)*%
X134334000Y-86868000D03*
%TO.N,Net-(J8-Pin_2)*%
X152329997Y-89916000D03*
%TO.N,Net-(Ui1-DCDC_OUT)*%
X134334000Y-89916000D03*
%TO.N,Net-(J8-Pin_1)*%
X151352000Y-94567000D03*
%TO.N,Net-(Ui1-DCDC_IN)*%
X147161000Y-90170000D03*
%TO.N,/Gnd*%
X147796000Y-96647000D03*
%TO.N,Net-(Ui1-INN)*%
X128492000Y-89916000D03*
X134667000Y-94567000D03*
%TO.N,Net-(Ui1-INP)*%
X128492000Y-87884000D03*
%TO.N,Net-(J8-Pin_1)*%
X152929997Y-90932000D03*
%TO.N,Net-(Ui1-DCDC_IN)*%
X147161000Y-86995000D03*
%TO.N,Net-(J8-Pin_2)*%
X151098000Y-93726000D03*
%TD*%
%TA.AperFunction,Conductor*%
%TO.N,/VIN*%
G36*
X164938420Y-78232421D02*
G01*
X165087514Y-78244760D01*
X165107674Y-78248120D01*
X165252697Y-78284798D01*
X165296200Y-78310482D01*
X166395179Y-78676066D01*
X166396254Y-78676430D01*
X170063216Y-79933674D01*
X170120248Y-79974037D01*
X170146404Y-80038826D01*
X170147000Y-80050971D01*
X170147000Y-80080004D01*
X170147001Y-80080020D01*
X170175942Y-80299853D01*
X170177807Y-80314014D01*
X170197203Y-80386399D01*
X170238894Y-80541993D01*
X170329214Y-80760045D01*
X170329219Y-80760056D01*
X170387211Y-80860500D01*
X170447227Y-80964450D01*
X170447229Y-80964453D01*
X170447230Y-80964454D01*
X170590906Y-81151697D01*
X170590912Y-81151704D01*
X170757795Y-81318587D01*
X170757801Y-81318592D01*
X170945050Y-81462273D01*
X171076418Y-81538118D01*
X171149443Y-81580280D01*
X171149448Y-81580282D01*
X171149451Y-81580284D01*
X171367507Y-81670606D01*
X171595486Y-81731693D01*
X171829489Y-81762500D01*
X171829496Y-81762500D01*
X172065504Y-81762500D01*
X172065511Y-81762500D01*
X172299514Y-81731693D01*
X172527493Y-81670606D01*
X172745549Y-81580284D01*
X172949950Y-81462273D01*
X173137199Y-81318592D01*
X173304092Y-81151699D01*
X173304871Y-81150682D01*
X173305181Y-81150456D01*
X173306762Y-81148654D01*
X173306962Y-81148829D01*
X173306963Y-81148829D01*
X173306973Y-81148839D01*
X173307165Y-81149007D01*
X173361297Y-81109480D01*
X173431043Y-81105323D01*
X173455351Y-81113646D01*
X173489927Y-81129657D01*
X173511915Y-81142749D01*
X173656772Y-81250696D01*
X173675603Y-81268022D01*
X173712426Y-81309701D01*
X173742061Y-81372973D01*
X173743499Y-81391801D01*
X173743499Y-111103728D01*
X173723814Y-111170767D01*
X173710210Y-111188270D01*
X173653515Y-111249102D01*
X173633458Y-111266462D01*
X173489449Y-111366310D01*
X173423140Y-111388332D01*
X173355452Y-111371008D01*
X173320420Y-111339895D01*
X173314596Y-111332305D01*
X173314587Y-111332295D01*
X173147704Y-111165412D01*
X173147697Y-111165406D01*
X172960454Y-111021730D01*
X172960453Y-111021729D01*
X172960450Y-111021727D01*
X172857615Y-110962355D01*
X172756056Y-110903719D01*
X172756045Y-110903714D01*
X172537993Y-110813394D01*
X172350880Y-110763257D01*
X172310014Y-110752307D01*
X172310013Y-110752306D01*
X172310010Y-110752306D01*
X172076020Y-110721501D01*
X172076017Y-110721500D01*
X172076011Y-110721500D01*
X171839989Y-110721500D01*
X171839983Y-110721500D01*
X171839979Y-110721501D01*
X171605989Y-110752306D01*
X171378006Y-110813394D01*
X171159954Y-110903714D01*
X171159943Y-110903719D01*
X170955545Y-111021730D01*
X170768302Y-111165406D01*
X170768295Y-111165412D01*
X170601412Y-111332295D01*
X170601406Y-111332302D01*
X170457730Y-111519545D01*
X170339719Y-111723943D01*
X170339714Y-111723954D01*
X170249394Y-111942006D01*
X170188306Y-112169989D01*
X170172194Y-112292371D01*
X170143927Y-112356268D01*
X170085602Y-112394738D01*
X170084087Y-112395192D01*
X168193564Y-112948517D01*
X168193563Y-112948517D01*
X163717803Y-114258496D01*
X163709251Y-114260672D01*
X163583193Y-114288008D01*
X163565734Y-114290511D01*
X163454229Y-114298462D01*
X163437067Y-114299686D01*
X163428250Y-114300000D01*
X145532093Y-114300000D01*
X145519939Y-114299403D01*
X145343065Y-114281982D01*
X145319224Y-114277240D01*
X145155001Y-114227424D01*
X145132543Y-114218121D01*
X144981201Y-114137227D01*
X144960989Y-114123722D01*
X144828333Y-114014854D01*
X144811145Y-113997666D01*
X144702277Y-113865010D01*
X144688772Y-113844798D01*
X144607878Y-113693456D01*
X144598575Y-113670998D01*
X144548757Y-113506769D01*
X144544018Y-113482941D01*
X144526597Y-113306061D01*
X144526000Y-113293907D01*
X144526000Y-111393801D01*
X147046621Y-111393801D01*
X147046621Y-111551494D01*
X147077382Y-111706137D01*
X147077385Y-111706149D01*
X147137723Y-111851820D01*
X147137730Y-111851833D01*
X147225331Y-111982936D01*
X147225334Y-111982940D01*
X147336828Y-112094434D01*
X147336832Y-112094437D01*
X147467935Y-112182038D01*
X147467948Y-112182045D01*
X147578202Y-112227713D01*
X147613624Y-112242385D01*
X147768274Y-112273147D01*
X147768277Y-112273148D01*
X147768279Y-112273148D01*
X147925965Y-112273148D01*
X147925966Y-112273147D01*
X148080618Y-112242385D01*
X148226300Y-112182042D01*
X148357410Y-112094437D01*
X148468910Y-111982937D01*
X148556515Y-111851827D01*
X148616858Y-111706145D01*
X148647621Y-111551490D01*
X148647621Y-111393806D01*
X148647621Y-111393803D01*
X148647620Y-111393801D01*
X148636897Y-111339895D01*
X148616858Y-111239151D01*
X148604583Y-111209517D01*
X148556518Y-111093475D01*
X148556511Y-111093462D01*
X148468910Y-110962359D01*
X148468907Y-110962355D01*
X148357413Y-110850861D01*
X148357409Y-110850858D01*
X148226306Y-110763257D01*
X148226293Y-110763250D01*
X148080622Y-110702912D01*
X148080610Y-110702909D01*
X147925966Y-110672148D01*
X147925963Y-110672148D01*
X147768279Y-110672148D01*
X147768276Y-110672148D01*
X147613631Y-110702909D01*
X147613619Y-110702912D01*
X147467948Y-110763250D01*
X147467935Y-110763257D01*
X147336832Y-110850858D01*
X147336828Y-110850861D01*
X147225334Y-110962355D01*
X147225331Y-110962359D01*
X147137730Y-111093462D01*
X147137723Y-111093475D01*
X147077385Y-111239146D01*
X147077382Y-111239158D01*
X147046621Y-111393801D01*
X144526000Y-111393801D01*
X144526000Y-107871153D01*
X154774500Y-107871153D01*
X154774500Y-108028846D01*
X154805261Y-108183489D01*
X154805264Y-108183501D01*
X154865602Y-108329172D01*
X154865609Y-108329185D01*
X154953210Y-108460288D01*
X154953213Y-108460292D01*
X155064707Y-108571786D01*
X155069196Y-108575470D01*
X155108531Y-108633215D01*
X155110402Y-108703060D01*
X155074215Y-108762829D01*
X155069196Y-108767178D01*
X155064707Y-108770861D01*
X154953213Y-108882355D01*
X154953210Y-108882359D01*
X154865609Y-109013462D01*
X154865602Y-109013475D01*
X154805264Y-109159146D01*
X154805261Y-109159158D01*
X154774500Y-109313801D01*
X154774500Y-109471494D01*
X154805261Y-109626137D01*
X154805264Y-109626149D01*
X154865602Y-109771820D01*
X154865609Y-109771833D01*
X154953210Y-109902936D01*
X154953213Y-109902940D01*
X155064707Y-110014434D01*
X155064711Y-110014437D01*
X155195814Y-110102038D01*
X155195827Y-110102045D01*
X155341498Y-110162383D01*
X155341503Y-110162385D01*
X155447846Y-110183538D01*
X155496153Y-110193147D01*
X155496156Y-110193148D01*
X155496158Y-110193148D01*
X155653844Y-110193148D01*
X155653845Y-110193147D01*
X155808497Y-110162385D01*
X155954179Y-110102042D01*
X156085289Y-110014437D01*
X156196789Y-109902937D01*
X156284394Y-109771827D01*
X156344737Y-109626145D01*
X156375500Y-109471490D01*
X156375500Y-109409482D01*
X156768500Y-109409482D01*
X156768500Y-111209517D01*
X156779000Y-111312296D01*
X156804196Y-111388332D01*
X156834186Y-111478835D01*
X156926288Y-111628156D01*
X157050344Y-111752212D01*
X157199665Y-111844314D01*
X157366202Y-111899499D01*
X157468990Y-111910000D01*
X157468995Y-111910000D01*
X157925425Y-111910000D01*
X157992464Y-111929685D01*
X158038219Y-111982489D01*
X158048163Y-112051647D01*
X158019138Y-112115203D01*
X157994316Y-112137102D01*
X157858711Y-112227710D01*
X157858707Y-112227713D01*
X157747213Y-112339207D01*
X157747210Y-112339211D01*
X157659609Y-112470314D01*
X157659602Y-112470327D01*
X157599264Y-112615998D01*
X157599261Y-112616010D01*
X157568500Y-112770653D01*
X157568500Y-112928346D01*
X157599261Y-113082989D01*
X157599264Y-113083001D01*
X157659602Y-113228672D01*
X157659609Y-113228685D01*
X157747210Y-113359788D01*
X157747213Y-113359792D01*
X157858707Y-113471286D01*
X157858711Y-113471289D01*
X157989814Y-113558890D01*
X157989827Y-113558897D01*
X158135498Y-113619235D01*
X158135503Y-113619237D01*
X158290153Y-113649999D01*
X158290156Y-113650000D01*
X158290158Y-113650000D01*
X158447844Y-113650000D01*
X158447845Y-113649999D01*
X158602497Y-113619237D01*
X158748179Y-113558894D01*
X158879289Y-113471289D01*
X158990789Y-113359789D01*
X159078394Y-113228679D01*
X159138737Y-113082997D01*
X159169500Y-112928342D01*
X159169500Y-112770658D01*
X159169500Y-112770655D01*
X159169499Y-112770653D01*
X159166176Y-112753947D01*
X159138737Y-112616003D01*
X159138735Y-112615998D01*
X159078397Y-112470327D01*
X159078390Y-112470314D01*
X158990789Y-112339211D01*
X158990786Y-112339207D01*
X158879292Y-112227713D01*
X158879288Y-112227710D01*
X158743684Y-112137102D01*
X158698879Y-112083490D01*
X158690172Y-112014165D01*
X158720326Y-111951137D01*
X158779770Y-111914418D01*
X158812575Y-111910000D01*
X159269005Y-111910000D01*
X159269010Y-111910000D01*
X159371798Y-111899499D01*
X159538335Y-111844314D01*
X159687656Y-111752212D01*
X159811712Y-111628156D01*
X159811715Y-111628150D01*
X159816495Y-111623371D01*
X159877818Y-111589886D01*
X159947510Y-111594870D01*
X159977058Y-111610731D01*
X160070155Y-111678370D01*
X160159597Y-111723943D01*
X160294616Y-111792739D01*
X160294618Y-111792739D01*
X160294621Y-111792741D01*
X160534215Y-111870590D01*
X160565866Y-111875603D01*
X160567469Y-111875857D01*
X160630603Y-111905786D01*
X160667535Y-111965097D01*
X160666537Y-112034960D01*
X160627927Y-112093193D01*
X160595523Y-112112891D01*
X160529827Y-112140102D01*
X160529814Y-112140109D01*
X160398711Y-112227710D01*
X160398707Y-112227713D01*
X160287213Y-112339207D01*
X160287210Y-112339211D01*
X160199609Y-112470314D01*
X160199602Y-112470327D01*
X160139264Y-112615998D01*
X160139261Y-112616010D01*
X160108500Y-112770653D01*
X160108500Y-112928346D01*
X160139261Y-113082989D01*
X160139264Y-113083001D01*
X160199602Y-113228672D01*
X160199609Y-113228685D01*
X160287210Y-113359788D01*
X160287213Y-113359792D01*
X160398707Y-113471286D01*
X160398711Y-113471289D01*
X160529814Y-113558890D01*
X160529827Y-113558897D01*
X160675498Y-113619235D01*
X160675503Y-113619237D01*
X160830153Y-113649999D01*
X160830156Y-113650000D01*
X160830158Y-113650000D01*
X160987844Y-113650000D01*
X160987845Y-113649999D01*
X161142497Y-113619237D01*
X161288179Y-113558894D01*
X161419289Y-113471289D01*
X161530789Y-113359789D01*
X161618394Y-113228679D01*
X161678737Y-113082997D01*
X161709500Y-112928342D01*
X161709500Y-112770658D01*
X161709500Y-112770655D01*
X161709499Y-112770653D01*
X161706176Y-112753947D01*
X161678737Y-112616003D01*
X161678735Y-112615998D01*
X161618397Y-112470327D01*
X161618390Y-112470314D01*
X161530789Y-112339211D01*
X161530786Y-112339207D01*
X161419292Y-112227713D01*
X161419288Y-112227710D01*
X161288185Y-112140109D01*
X161288173Y-112140102D01*
X161222476Y-112112891D01*
X161168072Y-112069051D01*
X161146007Y-112002757D01*
X161163286Y-111935057D01*
X161214423Y-111887447D01*
X161250531Y-111875857D01*
X161283785Y-111870590D01*
X161283788Y-111870589D01*
X161523379Y-111792741D01*
X161747845Y-111678370D01*
X161951656Y-111530293D01*
X162129793Y-111352156D01*
X162277870Y-111148345D01*
X162392241Y-110923879D01*
X162470090Y-110684285D01*
X162509500Y-110435462D01*
X162509500Y-110183538D01*
X162470090Y-109934715D01*
X162392241Y-109695121D01*
X162392239Y-109695118D01*
X162392239Y-109695116D01*
X162278296Y-109471492D01*
X162277870Y-109470655D01*
X162163911Y-109313803D01*
X162129798Y-109266850D01*
X162129794Y-109266845D01*
X161951654Y-109088705D01*
X161951649Y-109088701D01*
X161747848Y-108940632D01*
X161747847Y-108940631D01*
X161747845Y-108940630D01*
X161633474Y-108882355D01*
X161523383Y-108826260D01*
X161283785Y-108748410D01*
X161034962Y-108709000D01*
X160783038Y-108709000D01*
X160716738Y-108719501D01*
X160534214Y-108748410D01*
X160294616Y-108826260D01*
X160070158Y-108940628D01*
X160070155Y-108940629D01*
X160070155Y-108940630D01*
X159977060Y-109008266D01*
X159911255Y-109031745D01*
X159843201Y-109015919D01*
X159816496Y-108995628D01*
X159687657Y-108866789D01*
X159687656Y-108866788D01*
X159538335Y-108774686D01*
X159371798Y-108719501D01*
X159371796Y-108719500D01*
X159269017Y-108709000D01*
X159269010Y-108709000D01*
X157468990Y-108709000D01*
X157468982Y-108709000D01*
X157366203Y-108719500D01*
X157366202Y-108719501D01*
X157283669Y-108746849D01*
X157199667Y-108774685D01*
X157199662Y-108774687D01*
X157050342Y-108866789D01*
X156926289Y-108990842D01*
X156834187Y-109140162D01*
X156834185Y-109140167D01*
X156827892Y-109159158D01*
X156779001Y-109306702D01*
X156779001Y-109306703D01*
X156779000Y-109306703D01*
X156768500Y-109409482D01*
X156375500Y-109409482D01*
X156375500Y-109313806D01*
X156375500Y-109313803D01*
X156375499Y-109313801D01*
X156366159Y-109266845D01*
X156344737Y-109159151D01*
X156336872Y-109140162D01*
X156284397Y-109013475D01*
X156284390Y-109013462D01*
X156196789Y-108882359D01*
X156196786Y-108882355D01*
X156085294Y-108770863D01*
X156080808Y-108767182D01*
X156041470Y-108709439D01*
X156039595Y-108639594D01*
X156075779Y-108579824D01*
X156080808Y-108575466D01*
X156085283Y-108571792D01*
X156085289Y-108571789D01*
X156196789Y-108460289D01*
X156284394Y-108329179D01*
X156344737Y-108183497D01*
X156375500Y-108028842D01*
X156375500Y-107871158D01*
X156375500Y-107871155D01*
X156375499Y-107871153D01*
X156344738Y-107716510D01*
X156344737Y-107716503D01*
X156327749Y-107675489D01*
X156284397Y-107570827D01*
X156284390Y-107570814D01*
X156196789Y-107439711D01*
X156196786Y-107439707D01*
X156085292Y-107328213D01*
X156085288Y-107328210D01*
X155954185Y-107240609D01*
X155954172Y-107240602D01*
X155808501Y-107180264D01*
X155808489Y-107180261D01*
X155653845Y-107149500D01*
X155653842Y-107149500D01*
X155496158Y-107149500D01*
X155496155Y-107149500D01*
X155341510Y-107180261D01*
X155341498Y-107180264D01*
X155195827Y-107240602D01*
X155195814Y-107240609D01*
X155064711Y-107328210D01*
X155064707Y-107328213D01*
X154953213Y-107439707D01*
X154953210Y-107439711D01*
X154865609Y-107570814D01*
X154865602Y-107570827D01*
X154805264Y-107716498D01*
X154805261Y-107716510D01*
X154774500Y-107871153D01*
X144526000Y-107871153D01*
X144526000Y-106541982D01*
X168071500Y-106541982D01*
X168071500Y-108342017D01*
X168082000Y-108444796D01*
X168082001Y-108444798D01*
X168137186Y-108611335D01*
X168229288Y-108760656D01*
X168353344Y-108884712D01*
X168502665Y-108976814D01*
X168669202Y-109031999D01*
X168771990Y-109042500D01*
X168771995Y-109042500D01*
X170572005Y-109042500D01*
X170572010Y-109042500D01*
X170674798Y-109031999D01*
X170841335Y-108976814D01*
X170990656Y-108884712D01*
X171114712Y-108760656D01*
X171206814Y-108611335D01*
X171261999Y-108444798D01*
X171272500Y-108342010D01*
X171272500Y-107885575D01*
X171292185Y-107818536D01*
X171344989Y-107772781D01*
X171414147Y-107762837D01*
X171477703Y-107791862D01*
X171499602Y-107816684D01*
X171590210Y-107952288D01*
X171590213Y-107952292D01*
X171701707Y-108063786D01*
X171701711Y-108063789D01*
X171832814Y-108151390D01*
X171832827Y-108151397D01*
X171978498Y-108211735D01*
X171978503Y-108211737D01*
X172133153Y-108242499D01*
X172133156Y-108242500D01*
X172133158Y-108242500D01*
X172290844Y-108242500D01*
X172290845Y-108242499D01*
X172445497Y-108211737D01*
X172591179Y-108151394D01*
X172722289Y-108063789D01*
X172833789Y-107952289D01*
X172921394Y-107821179D01*
X172981737Y-107675497D01*
X173012500Y-107520842D01*
X173012500Y-107363158D01*
X173012500Y-107363155D01*
X173012499Y-107363153D01*
X173005549Y-107328213D01*
X172981737Y-107208503D01*
X172970039Y-107180261D01*
X172921397Y-107062827D01*
X172921390Y-107062814D01*
X172833789Y-106931711D01*
X172833786Y-106931707D01*
X172722292Y-106820213D01*
X172722288Y-106820210D01*
X172591185Y-106732609D01*
X172591172Y-106732602D01*
X172445501Y-106672264D01*
X172445489Y-106672261D01*
X172290845Y-106641500D01*
X172290842Y-106641500D01*
X172133158Y-106641500D01*
X172133155Y-106641500D01*
X171978510Y-106672261D01*
X171978498Y-106672264D01*
X171832827Y-106732602D01*
X171832814Y-106732609D01*
X171701711Y-106820210D01*
X171701707Y-106820213D01*
X171590213Y-106931707D01*
X171590210Y-106931711D01*
X171499602Y-107067315D01*
X171445989Y-107112120D01*
X171376664Y-107120827D01*
X171313637Y-107090672D01*
X171276918Y-107031229D01*
X171272500Y-106998424D01*
X171272500Y-106541995D01*
X171272499Y-106541982D01*
X171261999Y-106439203D01*
X171261999Y-106439202D01*
X171206814Y-106272665D01*
X171114712Y-106123344D01*
X170990656Y-105999288D01*
X170985549Y-105994181D01*
X170987833Y-105991896D01*
X170955801Y-105946415D01*
X170952840Y-105876608D01*
X170972874Y-105833583D01*
X171040440Y-105740587D01*
X171154780Y-105516184D01*
X171232601Y-105276674D01*
X171237990Y-105242649D01*
X171267919Y-105179514D01*
X171327231Y-105142582D01*
X171397093Y-105143579D01*
X171455326Y-105182189D01*
X171475025Y-105214593D01*
X171502604Y-105281176D01*
X171502609Y-105281185D01*
X171590210Y-105412288D01*
X171590213Y-105412292D01*
X171701707Y-105523786D01*
X171701711Y-105523789D01*
X171832814Y-105611390D01*
X171832827Y-105611397D01*
X171978498Y-105671735D01*
X171978503Y-105671737D01*
X172133153Y-105702499D01*
X172133156Y-105702500D01*
X172133158Y-105702500D01*
X172290844Y-105702500D01*
X172290845Y-105702499D01*
X172445497Y-105671737D01*
X172591179Y-105611394D01*
X172722289Y-105523789D01*
X172833789Y-105412289D01*
X172921394Y-105281179D01*
X172981737Y-105135497D01*
X173012500Y-104980842D01*
X173012500Y-104823158D01*
X173012500Y-104823155D01*
X173012499Y-104823153D01*
X172981738Y-104668510D01*
X172981737Y-104668503D01*
X172980648Y-104665874D01*
X172921397Y-104522827D01*
X172921390Y-104522814D01*
X172833789Y-104391711D01*
X172833786Y-104391707D01*
X172722292Y-104280213D01*
X172722288Y-104280210D01*
X172591185Y-104192609D01*
X172591172Y-104192602D01*
X172445501Y-104132264D01*
X172445489Y-104132261D01*
X172290845Y-104101500D01*
X172290842Y-104101500D01*
X172133158Y-104101500D01*
X172133155Y-104101500D01*
X171978510Y-104132261D01*
X171978498Y-104132264D01*
X171832827Y-104192602D01*
X171832814Y-104192609D01*
X171701711Y-104280210D01*
X171701707Y-104280213D01*
X171590213Y-104391707D01*
X171590210Y-104391711D01*
X171502609Y-104522814D01*
X171502604Y-104522824D01*
X171475025Y-104589406D01*
X171431184Y-104643810D01*
X171364889Y-104665874D01*
X171297190Y-104648594D01*
X171249580Y-104597457D01*
X171237991Y-104561350D01*
X171232603Y-104527331D01*
X171154780Y-104287815D01*
X171040442Y-104063416D01*
X170966250Y-103961301D01*
X170966250Y-103961300D01*
X170195787Y-104731764D01*
X170184518Y-104689708D01*
X170112110Y-104564292D01*
X170009708Y-104461890D01*
X169884292Y-104389482D01*
X169842232Y-104378212D01*
X170612698Y-103607748D01*
X170510583Y-103533557D01*
X170286184Y-103419219D01*
X170046669Y-103341397D01*
X169797928Y-103302000D01*
X169546072Y-103302000D01*
X169297330Y-103341397D01*
X169057815Y-103419219D01*
X168833413Y-103533559D01*
X168731301Y-103607747D01*
X168731300Y-103607748D01*
X169501765Y-104378212D01*
X169459708Y-104389482D01*
X169334292Y-104461890D01*
X169231890Y-104564292D01*
X169159482Y-104689708D01*
X169148212Y-104731765D01*
X168377748Y-103961300D01*
X168377747Y-103961301D01*
X168303559Y-104063413D01*
X168189219Y-104287815D01*
X168111397Y-104527330D01*
X168072000Y-104776071D01*
X168072000Y-105027928D01*
X168111397Y-105276669D01*
X168189219Y-105516184D01*
X168303559Y-105740586D01*
X168371125Y-105833584D01*
X168394605Y-105899390D01*
X168378779Y-105967444D01*
X168357254Y-105992984D01*
X168358451Y-105994181D01*
X168229287Y-106123345D01*
X168137187Y-106272662D01*
X168137186Y-106272665D01*
X168082001Y-106439202D01*
X168082001Y-106439203D01*
X168082000Y-106439203D01*
X168071500Y-106541982D01*
X144526000Y-106541982D01*
X144526000Y-104916801D01*
X146411621Y-104916801D01*
X146411621Y-105074494D01*
X146442382Y-105229137D01*
X146442385Y-105229149D01*
X146502723Y-105374820D01*
X146502730Y-105374833D01*
X146590331Y-105505936D01*
X146590334Y-105505940D01*
X146701828Y-105617434D01*
X146701832Y-105617437D01*
X146832935Y-105705038D01*
X146832948Y-105705045D01*
X146978619Y-105765383D01*
X146978624Y-105765385D01*
X147133274Y-105796147D01*
X147133277Y-105796148D01*
X147133279Y-105796148D01*
X147290965Y-105796148D01*
X147290966Y-105796147D01*
X147445618Y-105765385D01*
X147591300Y-105705042D01*
X147722410Y-105617437D01*
X147833910Y-105505937D01*
X147921515Y-105374827D01*
X147981858Y-105229145D01*
X148012621Y-105074490D01*
X148012621Y-104916806D01*
X148012621Y-104916803D01*
X148012620Y-104916801D01*
X147993993Y-104823158D01*
X147981858Y-104762151D01*
X147981856Y-104762146D01*
X147921518Y-104616475D01*
X147921511Y-104616462D01*
X147833910Y-104485359D01*
X147833907Y-104485355D01*
X147722413Y-104373861D01*
X147722409Y-104373858D01*
X147591306Y-104286257D01*
X147591293Y-104286250D01*
X147445622Y-104225912D01*
X147445610Y-104225909D01*
X147290966Y-104195148D01*
X147290963Y-104195148D01*
X147133279Y-104195148D01*
X147133276Y-104195148D01*
X146978631Y-104225909D01*
X146978619Y-104225912D01*
X146832948Y-104286250D01*
X146832935Y-104286257D01*
X146701832Y-104373858D01*
X146701828Y-104373861D01*
X146590334Y-104485355D01*
X146590331Y-104485359D01*
X146502730Y-104616462D01*
X146502723Y-104616475D01*
X146442385Y-104762146D01*
X146442382Y-104762158D01*
X146411621Y-104916801D01*
X144526000Y-104916801D01*
X144526000Y-101741801D01*
X146411621Y-101741801D01*
X146411621Y-101899494D01*
X146442382Y-102054137D01*
X146442385Y-102054149D01*
X146502723Y-102199820D01*
X146502730Y-102199833D01*
X146590331Y-102330936D01*
X146590334Y-102330940D01*
X146701828Y-102442434D01*
X146701832Y-102442437D01*
X146832935Y-102530038D01*
X146832948Y-102530045D01*
X146942203Y-102575299D01*
X146978624Y-102590385D01*
X146978627Y-102590385D01*
X146984459Y-102592155D01*
X146983648Y-102594827D01*
X147034935Y-102621631D01*
X147069532Y-102682334D01*
X147065818Y-102752105D01*
X147063427Y-102758347D01*
X147042385Y-102809146D01*
X147042382Y-102809158D01*
X147011621Y-102963801D01*
X147011621Y-103121494D01*
X147042382Y-103276137D01*
X147042385Y-103276149D01*
X147102723Y-103421820D01*
X147102730Y-103421833D01*
X147190331Y-103552936D01*
X147190334Y-103552940D01*
X147301828Y-103664434D01*
X147301832Y-103664437D01*
X147432935Y-103752038D01*
X147432948Y-103752045D01*
X147578619Y-103812383D01*
X147578624Y-103812385D01*
X147733274Y-103843147D01*
X147733277Y-103843148D01*
X147733279Y-103843148D01*
X147890965Y-103843148D01*
X147890966Y-103843147D01*
X148045618Y-103812385D01*
X148191300Y-103752042D01*
X148322410Y-103664437D01*
X148433910Y-103552937D01*
X148521515Y-103421827D01*
X148581858Y-103276145D01*
X148612621Y-103121490D01*
X148612621Y-102963806D01*
X148612621Y-102963803D01*
X148612620Y-102963801D01*
X148581859Y-102809158D01*
X148581858Y-102809151D01*
X148575341Y-102793418D01*
X148521518Y-102663475D01*
X148521511Y-102663462D01*
X148433910Y-102532359D01*
X148433907Y-102532355D01*
X148322413Y-102420861D01*
X148322409Y-102420858D01*
X148191306Y-102333257D01*
X148191293Y-102333250D01*
X148045622Y-102272912D01*
X148039786Y-102271142D01*
X148040583Y-102268512D01*
X147989138Y-102241502D01*
X147954655Y-102180734D01*
X147958501Y-102110970D01*
X147960806Y-102104969D01*
X147981858Y-102054145D01*
X148012621Y-101899490D01*
X148012621Y-101741806D01*
X148012621Y-101741803D01*
X148012620Y-101741801D01*
X147997594Y-101666257D01*
X147993993Y-101648153D01*
X156298500Y-101648153D01*
X156298500Y-101805846D01*
X156329261Y-101960489D01*
X156329264Y-101960501D01*
X156389602Y-102106172D01*
X156389609Y-102106185D01*
X156477210Y-102237288D01*
X156477213Y-102237292D01*
X156532683Y-102292762D01*
X156566168Y-102354085D01*
X156561184Y-102423777D01*
X156548105Y-102449333D01*
X156518873Y-102493081D01*
X156518867Y-102493092D01*
X156458529Y-102638763D01*
X156458526Y-102638775D01*
X156427765Y-102793418D01*
X156427765Y-102951111D01*
X156458526Y-103105754D01*
X156458529Y-103105766D01*
X156518867Y-103251437D01*
X156518874Y-103251450D01*
X156606475Y-103382553D01*
X156606478Y-103382557D01*
X156717972Y-103494051D01*
X156717976Y-103494054D01*
X156849079Y-103581655D01*
X156849092Y-103581662D01*
X156994763Y-103642000D01*
X156994768Y-103642002D01*
X157107541Y-103664434D01*
X157149418Y-103672764D01*
X157149421Y-103672765D01*
X157149423Y-103672765D01*
X157307109Y-103672765D01*
X157307110Y-103672764D01*
X157461762Y-103642002D01*
X157607444Y-103581659D01*
X157650425Y-103552940D01*
X157651973Y-103551906D01*
X157682293Y-103531645D01*
X157738554Y-103494054D01*
X157850054Y-103382554D01*
X157937659Y-103251444D01*
X157998002Y-103105762D01*
X158028765Y-102951107D01*
X158028765Y-102793423D01*
X158028765Y-102793420D01*
X158028764Y-102793418D01*
X158006668Y-102682334D01*
X157998002Y-102638768D01*
X157979801Y-102594827D01*
X157937662Y-102493092D01*
X157937655Y-102493079D01*
X157850054Y-102361976D01*
X157850051Y-102361972D01*
X157794581Y-102306502D01*
X157761096Y-102245179D01*
X157766080Y-102175487D01*
X157779161Y-102149929D01*
X157808394Y-102106179D01*
X157868737Y-101960497D01*
X157899500Y-101805842D01*
X157899500Y-101648158D01*
X157899500Y-101648155D01*
X157896759Y-101634379D01*
X157902983Y-101564788D01*
X157945844Y-101509608D01*
X158011733Y-101486361D01*
X158042565Y-101488565D01*
X158067361Y-101493498D01*
X158172348Y-101514382D01*
X158172351Y-101514382D01*
X158330037Y-101514382D01*
X158330038Y-101514381D01*
X158484690Y-101483619D01*
X158630372Y-101423276D01*
X158761482Y-101335671D01*
X158872982Y-101224171D01*
X158960587Y-101093061D01*
X159020930Y-100947379D01*
X159051693Y-100792724D01*
X159051693Y-100635040D01*
X159051693Y-100635036D01*
X159051120Y-100632153D01*
X159600500Y-100632153D01*
X159600500Y-100789846D01*
X159631261Y-100944489D01*
X159631264Y-100944501D01*
X159691602Y-101090172D01*
X159691609Y-101090185D01*
X159779210Y-101221288D01*
X159779213Y-101221292D01*
X159890707Y-101332786D01*
X159890711Y-101332789D01*
X160021814Y-101420390D01*
X160021827Y-101420397D01*
X160072715Y-101441475D01*
X160167503Y-101480737D01*
X160312646Y-101509608D01*
X160322153Y-101511499D01*
X160322156Y-101511500D01*
X160322158Y-101511500D01*
X160479844Y-101511500D01*
X160479845Y-101511499D01*
X160634497Y-101480737D01*
X160780179Y-101420394D01*
X160911289Y-101332789D01*
X161022789Y-101221289D01*
X161110394Y-101090179D01*
X161170737Y-100944497D01*
X161201500Y-100789842D01*
X161201500Y-100632158D01*
X161201500Y-100632155D01*
X161201499Y-100632153D01*
X161185828Y-100553372D01*
X161170737Y-100477503D01*
X161161487Y-100455172D01*
X161110397Y-100331827D01*
X161110390Y-100331814D01*
X161022789Y-100200711D01*
X161022786Y-100200707D01*
X160911290Y-100089211D01*
X160780185Y-100001609D01*
X160780172Y-100001602D01*
X160769431Y-99997153D01*
X169633500Y-99997153D01*
X169633500Y-100154846D01*
X169664261Y-100309489D01*
X169664264Y-100309501D01*
X169724602Y-100455172D01*
X169724609Y-100455185D01*
X169812210Y-100586288D01*
X169812213Y-100586292D01*
X169923707Y-100697786D01*
X169923711Y-100697789D01*
X170054814Y-100785390D01*
X170054827Y-100785397D01*
X170200498Y-100845735D01*
X170200503Y-100845737D01*
X170355153Y-100876499D01*
X170355156Y-100876500D01*
X170355158Y-100876500D01*
X170512844Y-100876500D01*
X170512845Y-100876499D01*
X170667497Y-100845737D01*
X170802436Y-100789844D01*
X170813172Y-100785397D01*
X170813172Y-100785396D01*
X170813179Y-100785394D01*
X170944289Y-100697789D01*
X171055789Y-100586289D01*
X171143394Y-100455179D01*
X171203737Y-100309497D01*
X171234500Y-100154842D01*
X171234500Y-99997158D01*
X171234500Y-99997155D01*
X171234499Y-99997153D01*
X171227952Y-99964241D01*
X171203737Y-99842503D01*
X171171689Y-99765132D01*
X171143397Y-99696827D01*
X171143390Y-99696814D01*
X171055789Y-99565711D01*
X171055786Y-99565707D01*
X170944292Y-99454213D01*
X170944288Y-99454210D01*
X170813185Y-99366609D01*
X170813172Y-99366602D01*
X170667501Y-99306264D01*
X170667489Y-99306261D01*
X170512845Y-99275500D01*
X170512842Y-99275500D01*
X170355158Y-99275500D01*
X170355155Y-99275500D01*
X170200510Y-99306261D01*
X170200498Y-99306264D01*
X170054827Y-99366602D01*
X170054814Y-99366609D01*
X169923711Y-99454210D01*
X169923707Y-99454213D01*
X169812213Y-99565707D01*
X169812210Y-99565711D01*
X169724609Y-99696814D01*
X169724602Y-99696827D01*
X169664264Y-99842498D01*
X169664261Y-99842510D01*
X169633500Y-99997153D01*
X160769431Y-99997153D01*
X160634501Y-99941264D01*
X160634489Y-99941261D01*
X160479845Y-99910500D01*
X160479842Y-99910500D01*
X160322158Y-99910500D01*
X160322155Y-99910500D01*
X160167510Y-99941261D01*
X160167498Y-99941264D01*
X160021827Y-100001602D01*
X160021814Y-100001609D01*
X159890711Y-100089210D01*
X159890707Y-100089213D01*
X159779213Y-100200707D01*
X159779210Y-100200711D01*
X159691609Y-100331814D01*
X159691602Y-100331827D01*
X159631264Y-100477498D01*
X159631261Y-100477510D01*
X159600500Y-100632153D01*
X159051120Y-100632153D01*
X159020931Y-100480392D01*
X159020930Y-100480385D01*
X159010492Y-100455185D01*
X158960590Y-100334709D01*
X158960583Y-100334696D01*
X158872982Y-100203593D01*
X158872979Y-100203589D01*
X158761485Y-100092095D01*
X158761481Y-100092092D01*
X158630378Y-100004491D01*
X158630365Y-100004484D01*
X158484694Y-99944146D01*
X158484682Y-99944143D01*
X158330038Y-99913382D01*
X158330035Y-99913382D01*
X158172351Y-99913382D01*
X158142614Y-99919297D01*
X158073022Y-99913068D01*
X158030742Y-99885359D01*
X157998127Y-99852743D01*
X157998123Y-99852740D01*
X157867020Y-99765139D01*
X157867007Y-99765132D01*
X157721336Y-99704794D01*
X157721324Y-99704791D01*
X157566680Y-99674030D01*
X157566677Y-99674030D01*
X157408993Y-99674030D01*
X157408990Y-99674030D01*
X157254345Y-99704791D01*
X157254333Y-99704794D01*
X157108662Y-99765132D01*
X157108649Y-99765139D01*
X156977546Y-99852740D01*
X156977542Y-99852743D01*
X156866048Y-99964237D01*
X156866045Y-99964241D01*
X156778444Y-100095344D01*
X156778437Y-100095357D01*
X156718099Y-100241028D01*
X156718096Y-100241040D01*
X156687335Y-100395683D01*
X156687335Y-100553376D01*
X156718096Y-100708019D01*
X156718099Y-100708031D01*
X156780388Y-100858411D01*
X156787857Y-100927880D01*
X156756582Y-100990359D01*
X156724286Y-101015218D01*
X156719824Y-101017603D01*
X156588711Y-101105210D01*
X156588707Y-101105213D01*
X156477213Y-101216707D01*
X156477210Y-101216711D01*
X156389609Y-101347814D01*
X156389602Y-101347827D01*
X156329264Y-101493498D01*
X156329261Y-101493510D01*
X156298500Y-101648153D01*
X147993993Y-101648153D01*
X147981859Y-101587156D01*
X147981858Y-101587155D01*
X147981858Y-101587151D01*
X147972595Y-101564788D01*
X147921518Y-101441475D01*
X147921511Y-101441462D01*
X147833910Y-101310359D01*
X147833907Y-101310355D01*
X147722413Y-101198861D01*
X147722409Y-101198858D01*
X147591306Y-101111257D01*
X147591293Y-101111250D01*
X147445622Y-101050912D01*
X147445610Y-101050909D01*
X147290966Y-101020148D01*
X147290963Y-101020148D01*
X147133279Y-101020148D01*
X147133276Y-101020148D01*
X146978631Y-101050909D01*
X146978619Y-101050912D01*
X146832948Y-101111250D01*
X146832935Y-101111257D01*
X146701832Y-101198858D01*
X146701828Y-101198861D01*
X146590334Y-101310355D01*
X146590331Y-101310359D01*
X146502730Y-101441462D01*
X146502723Y-101441475D01*
X146442385Y-101587146D01*
X146442382Y-101587158D01*
X146411621Y-101741801D01*
X144526000Y-101741801D01*
X144526000Y-96568153D01*
X146995500Y-96568153D01*
X146995500Y-96725846D01*
X147026261Y-96880489D01*
X147026264Y-96880501D01*
X147086602Y-97026172D01*
X147086609Y-97026185D01*
X147174210Y-97157288D01*
X147174213Y-97157292D01*
X147285707Y-97268786D01*
X147285711Y-97268789D01*
X147416814Y-97356390D01*
X147416827Y-97356397D01*
X147562498Y-97416735D01*
X147562503Y-97416737D01*
X147717153Y-97447499D01*
X147717156Y-97447500D01*
X147717158Y-97447500D01*
X147874844Y-97447500D01*
X147874845Y-97447499D01*
X148029497Y-97416737D01*
X148175179Y-97356394D01*
X148306289Y-97268789D01*
X148417789Y-97157289D01*
X148505394Y-97026179D01*
X148565737Y-96880497D01*
X148596500Y-96725842D01*
X148596500Y-96568158D01*
X148596500Y-96568155D01*
X148596499Y-96568153D01*
X148576457Y-96467397D01*
X148565737Y-96413503D01*
X148551771Y-96379786D01*
X148505397Y-96267827D01*
X148505390Y-96267814D01*
X148417789Y-96136711D01*
X148417786Y-96136707D01*
X148306292Y-96025213D01*
X148306288Y-96025210D01*
X148175185Y-95937609D01*
X148175172Y-95937602D01*
X148029501Y-95877264D01*
X148029489Y-95877261D01*
X147874845Y-95846500D01*
X147874842Y-95846500D01*
X147717158Y-95846500D01*
X147717155Y-95846500D01*
X147562510Y-95877261D01*
X147562498Y-95877264D01*
X147416827Y-95937602D01*
X147416814Y-95937609D01*
X147285711Y-96025210D01*
X147285707Y-96025213D01*
X147174213Y-96136707D01*
X147174210Y-96136711D01*
X147086609Y-96267814D01*
X147086602Y-96267827D01*
X147026264Y-96413498D01*
X147026261Y-96413510D01*
X146995500Y-96568153D01*
X144526000Y-96568153D01*
X144526000Y-93647153D01*
X150297500Y-93647153D01*
X150297500Y-93804846D01*
X150328261Y-93959489D01*
X150328264Y-93959501D01*
X150388602Y-94105172D01*
X150388609Y-94105185D01*
X150476209Y-94236287D01*
X150476210Y-94236288D01*
X150476211Y-94236289D01*
X150533930Y-94294008D01*
X150567414Y-94355329D01*
X150567866Y-94405878D01*
X150551500Y-94488159D01*
X150551500Y-94645846D01*
X150582261Y-94800489D01*
X150582264Y-94800501D01*
X150642602Y-94946172D01*
X150642609Y-94946185D01*
X150730210Y-95077288D01*
X150730213Y-95077292D01*
X150745696Y-95092775D01*
X150779181Y-95154098D01*
X150774197Y-95223790D01*
X150761117Y-95249347D01*
X150674609Y-95378814D01*
X150674602Y-95378827D01*
X150614264Y-95524498D01*
X150614261Y-95524510D01*
X150583500Y-95679153D01*
X150583500Y-95836846D01*
X150614261Y-95991489D01*
X150614264Y-95991501D01*
X150674602Y-96137172D01*
X150674609Y-96137185D01*
X150762210Y-96268288D01*
X150762213Y-96268292D01*
X150873707Y-96379786D01*
X150873711Y-96379789D01*
X151004814Y-96467390D01*
X151004827Y-96467397D01*
X151150498Y-96527735D01*
X151150503Y-96527737D01*
X151305153Y-96558499D01*
X151305156Y-96558500D01*
X151305158Y-96558500D01*
X151462844Y-96558500D01*
X151462845Y-96558499D01*
X151617497Y-96527737D01*
X151763179Y-96467394D01*
X151894289Y-96379789D01*
X152005789Y-96268289D01*
X152093394Y-96137179D01*
X152153737Y-95991497D01*
X152184500Y-95836842D01*
X152184500Y-95679158D01*
X152184500Y-95679155D01*
X152184499Y-95679153D01*
X152153738Y-95524510D01*
X152153737Y-95524503D01*
X152153735Y-95524498D01*
X152093397Y-95378827D01*
X152093390Y-95378814D01*
X152005789Y-95247711D01*
X152005786Y-95247707D01*
X151990303Y-95232224D01*
X151956818Y-95170901D01*
X151961802Y-95101209D01*
X151974877Y-95075660D01*
X152061394Y-94946179D01*
X152121737Y-94800497D01*
X152152500Y-94645842D01*
X152152500Y-94488158D01*
X152152500Y-94488155D01*
X152152499Y-94488153D01*
X152121738Y-94333510D01*
X152121737Y-94333503D01*
X152081469Y-94236287D01*
X152061397Y-94187827D01*
X152061390Y-94187814D01*
X151973789Y-94056711D01*
X151973786Y-94056707D01*
X151916070Y-93998991D01*
X151882585Y-93937668D01*
X151882134Y-93887118D01*
X151898500Y-93804844D01*
X151898500Y-93647155D01*
X151898499Y-93647153D01*
X151867738Y-93492510D01*
X151867737Y-93492503D01*
X151817547Y-93371332D01*
X151807397Y-93346827D01*
X151807390Y-93346814D01*
X151719789Y-93215711D01*
X151719786Y-93215707D01*
X151608292Y-93104213D01*
X151608288Y-93104210D01*
X151477185Y-93016609D01*
X151477172Y-93016602D01*
X151331501Y-92956264D01*
X151331489Y-92956261D01*
X151176845Y-92925500D01*
X151176842Y-92925500D01*
X151019158Y-92925500D01*
X151019155Y-92925500D01*
X150864510Y-92956261D01*
X150864498Y-92956264D01*
X150718827Y-93016602D01*
X150718814Y-93016609D01*
X150587711Y-93104210D01*
X150587707Y-93104213D01*
X150476213Y-93215707D01*
X150476210Y-93215711D01*
X150388609Y-93346814D01*
X150388602Y-93346827D01*
X150328264Y-93492498D01*
X150328261Y-93492510D01*
X150297500Y-93647153D01*
X144526000Y-93647153D01*
X144526000Y-90091153D01*
X146360500Y-90091153D01*
X146360500Y-90248846D01*
X146391261Y-90403489D01*
X146391264Y-90403501D01*
X146451602Y-90549172D01*
X146451609Y-90549185D01*
X146539210Y-90680288D01*
X146539213Y-90680292D01*
X146650707Y-90791786D01*
X146650711Y-90791789D01*
X146781814Y-90879390D01*
X146781827Y-90879397D01*
X146927498Y-90939735D01*
X146927503Y-90939737D01*
X147082153Y-90970499D01*
X147082156Y-90970500D01*
X147082158Y-90970500D01*
X147239844Y-90970500D01*
X147239845Y-90970499D01*
X147394497Y-90939737D01*
X147513371Y-90890498D01*
X147540172Y-90879397D01*
X147540172Y-90879396D01*
X147540179Y-90879394D01*
X147671289Y-90791789D01*
X147782789Y-90680289D01*
X147870394Y-90549179D01*
X147930737Y-90403497D01*
X147961500Y-90248842D01*
X147961500Y-90091158D01*
X147961500Y-90091155D01*
X147961499Y-90091153D01*
X147942342Y-89994846D01*
X147930737Y-89936503D01*
X147889585Y-89837153D01*
X151529497Y-89837153D01*
X151529497Y-89994846D01*
X151560258Y-90149489D01*
X151560261Y-90149501D01*
X151620599Y-90295172D01*
X151620606Y-90295185D01*
X151708207Y-90426288D01*
X151708210Y-90426292D01*
X151819704Y-90537786D01*
X151819708Y-90537789D01*
X151950811Y-90625390D01*
X151950824Y-90625397D01*
X152063733Y-90672165D01*
X152118137Y-90716006D01*
X152140202Y-90782300D01*
X152137899Y-90810916D01*
X152129497Y-90853158D01*
X152129497Y-91010846D01*
X152160258Y-91165489D01*
X152160261Y-91165501D01*
X152220599Y-91311172D01*
X152220606Y-91311185D01*
X152308207Y-91442288D01*
X152308210Y-91442292D01*
X152419704Y-91553786D01*
X152419708Y-91553789D01*
X152550811Y-91641390D01*
X152550824Y-91641397D01*
X152672285Y-91691707D01*
X152696500Y-91701737D01*
X152851150Y-91732499D01*
X152851153Y-91732500D01*
X152851155Y-91732500D01*
X153008841Y-91732500D01*
X153008842Y-91732499D01*
X153163494Y-91701737D01*
X153309176Y-91641394D01*
X153440286Y-91553789D01*
X153551786Y-91442289D01*
X153639391Y-91311179D01*
X153643201Y-91301982D01*
X153653064Y-91278166D01*
X153699734Y-91165497D01*
X153723672Y-91045153D01*
X158076500Y-91045153D01*
X158076500Y-91202846D01*
X158107261Y-91357489D01*
X158107264Y-91357501D01*
X158167602Y-91503172D01*
X158167609Y-91503185D01*
X158255210Y-91634288D01*
X158255213Y-91634292D01*
X158366707Y-91745786D01*
X158366711Y-91745789D01*
X158497814Y-91833390D01*
X158497827Y-91833397D01*
X158612335Y-91880827D01*
X158643503Y-91893737D01*
X158798153Y-91924499D01*
X158798156Y-91924500D01*
X158798158Y-91924500D01*
X158955844Y-91924500D01*
X158955845Y-91924499D01*
X159110497Y-91893737D01*
X159256179Y-91833394D01*
X159387289Y-91745789D01*
X159498789Y-91634289D01*
X159586394Y-91503179D01*
X159590774Y-91492606D01*
X159646735Y-91357501D01*
X159646737Y-91357497D01*
X159677500Y-91202842D01*
X159677500Y-91045158D01*
X159677500Y-91045155D01*
X159677499Y-91045153D01*
X159670674Y-91010842D01*
X159646737Y-90890503D01*
X159631266Y-90853153D01*
X159586397Y-90744827D01*
X159586390Y-90744814D01*
X159498789Y-90613711D01*
X159498786Y-90613707D01*
X159387292Y-90502213D01*
X159387288Y-90502210D01*
X159256185Y-90414609D01*
X159256172Y-90414602D01*
X159110501Y-90354264D01*
X159110489Y-90354261D01*
X158955845Y-90323500D01*
X158955842Y-90323500D01*
X158798158Y-90323500D01*
X158798155Y-90323500D01*
X158643510Y-90354261D01*
X158643498Y-90354264D01*
X158497827Y-90414602D01*
X158497814Y-90414609D01*
X158366711Y-90502210D01*
X158366707Y-90502213D01*
X158255213Y-90613707D01*
X158255210Y-90613711D01*
X158167609Y-90744814D01*
X158167602Y-90744827D01*
X158107264Y-90890498D01*
X158107261Y-90890510D01*
X158076500Y-91045153D01*
X153723672Y-91045153D01*
X153730497Y-91010842D01*
X153730497Y-90853158D01*
X153730497Y-90853155D01*
X153730496Y-90853153D01*
X153705561Y-90727797D01*
X153699734Y-90698503D01*
X153669453Y-90625397D01*
X153639394Y-90552827D01*
X153639387Y-90552814D01*
X153551786Y-90421711D01*
X153551783Y-90421707D01*
X153440289Y-90310213D01*
X153440285Y-90310210D01*
X153309182Y-90222609D01*
X153309173Y-90222604D01*
X153196259Y-90175834D01*
X153141856Y-90131993D01*
X153119791Y-90065699D01*
X153122095Y-90037080D01*
X153130497Y-89994843D01*
X153130497Y-89837155D01*
X153130496Y-89837153D01*
X153121280Y-89790821D01*
X153099734Y-89682503D01*
X153090292Y-89659707D01*
X153056704Y-89578618D01*
X153039394Y-89536826D01*
X153039387Y-89536814D01*
X153038868Y-89536038D01*
X168071500Y-89536038D01*
X168071500Y-89787962D01*
X168079292Y-89837158D01*
X168110910Y-90036785D01*
X168188760Y-90276383D01*
X168303132Y-90500848D01*
X168370764Y-90593937D01*
X168394244Y-90659743D01*
X168378418Y-90727797D01*
X168358128Y-90754503D01*
X168229287Y-90883345D01*
X168137187Y-91032662D01*
X168137186Y-91032665D01*
X168082001Y-91199202D01*
X168082001Y-91199203D01*
X168082000Y-91199203D01*
X168071500Y-91301982D01*
X168071500Y-93102017D01*
X168082000Y-93204796D01*
X168129063Y-93346821D01*
X168137186Y-93371335D01*
X168229288Y-93520656D01*
X168353344Y-93644712D01*
X168502665Y-93736814D01*
X168669202Y-93791999D01*
X168771990Y-93802500D01*
X168771995Y-93802500D01*
X170572005Y-93802500D01*
X170572010Y-93802500D01*
X170674798Y-93791999D01*
X170841335Y-93736814D01*
X170990656Y-93644712D01*
X171114712Y-93520656D01*
X171206814Y-93371335D01*
X171261999Y-93204798D01*
X171272500Y-93102010D01*
X171272500Y-92645575D01*
X171292185Y-92578536D01*
X171344989Y-92532781D01*
X171414147Y-92522837D01*
X171477703Y-92551862D01*
X171499602Y-92576684D01*
X171590210Y-92712288D01*
X171590213Y-92712292D01*
X171701707Y-92823786D01*
X171701711Y-92823789D01*
X171832814Y-92911390D01*
X171832827Y-92911397D01*
X171978498Y-92971735D01*
X171978503Y-92971737D01*
X172133153Y-93002499D01*
X172133156Y-93002500D01*
X172133158Y-93002500D01*
X172290844Y-93002500D01*
X172290845Y-93002499D01*
X172445497Y-92971737D01*
X172591179Y-92911394D01*
X172722289Y-92823789D01*
X172833789Y-92712289D01*
X172921394Y-92581179D01*
X172981737Y-92435497D01*
X173012500Y-92280842D01*
X173012500Y-92123158D01*
X173012500Y-92123155D01*
X173012499Y-92123153D01*
X172981738Y-91968510D01*
X172981737Y-91968503D01*
X172981735Y-91968498D01*
X172921397Y-91822827D01*
X172921390Y-91822814D01*
X172833789Y-91691711D01*
X172833786Y-91691707D01*
X172722292Y-91580213D01*
X172722288Y-91580210D01*
X172591185Y-91492609D01*
X172591172Y-91492602D01*
X172445501Y-91432264D01*
X172445489Y-91432261D01*
X172290845Y-91401500D01*
X172290842Y-91401500D01*
X172133158Y-91401500D01*
X172133155Y-91401500D01*
X171978510Y-91432261D01*
X171978498Y-91432264D01*
X171832827Y-91492602D01*
X171832814Y-91492609D01*
X171701711Y-91580210D01*
X171701707Y-91580213D01*
X171590213Y-91691707D01*
X171590210Y-91691711D01*
X171499602Y-91827315D01*
X171445989Y-91872120D01*
X171376664Y-91880827D01*
X171313637Y-91850672D01*
X171276918Y-91791229D01*
X171272500Y-91758424D01*
X171272500Y-91301995D01*
X171272499Y-91301982D01*
X171261999Y-91199203D01*
X171261999Y-91199202D01*
X171206814Y-91032665D01*
X171114712Y-90883344D01*
X170990656Y-90759288D01*
X170985871Y-90754503D01*
X170952386Y-90693180D01*
X170957370Y-90623488D01*
X170973234Y-90593937D01*
X171040870Y-90500845D01*
X171155241Y-90276379D01*
X171233090Y-90036785D01*
X171238357Y-90003531D01*
X171268286Y-89940396D01*
X171327597Y-89903464D01*
X171397460Y-89904462D01*
X171455692Y-89943071D01*
X171475391Y-89975476D01*
X171502602Y-90041173D01*
X171502609Y-90041185D01*
X171590210Y-90172288D01*
X171590213Y-90172292D01*
X171701707Y-90283786D01*
X171701711Y-90283789D01*
X171832814Y-90371390D01*
X171832827Y-90371397D01*
X171978498Y-90431735D01*
X171978503Y-90431737D01*
X172133153Y-90462499D01*
X172133156Y-90462500D01*
X172133158Y-90462500D01*
X172290844Y-90462500D01*
X172290845Y-90462499D01*
X172445497Y-90431737D01*
X172591179Y-90371394D01*
X172722289Y-90283789D01*
X172833789Y-90172289D01*
X172921394Y-90041179D01*
X172981737Y-89895497D01*
X173012500Y-89740842D01*
X173012500Y-89583158D01*
X173012500Y-89583155D01*
X173012499Y-89583153D01*
X173005549Y-89548213D01*
X172981737Y-89428503D01*
X172970039Y-89400261D01*
X172921397Y-89282827D01*
X172921390Y-89282814D01*
X172833789Y-89151711D01*
X172833786Y-89151707D01*
X172722292Y-89040213D01*
X172722288Y-89040210D01*
X172591185Y-88952609D01*
X172591172Y-88952602D01*
X172445501Y-88892264D01*
X172445489Y-88892261D01*
X172290845Y-88861500D01*
X172290842Y-88861500D01*
X172133158Y-88861500D01*
X172133155Y-88861500D01*
X171978510Y-88892261D01*
X171978498Y-88892264D01*
X171832827Y-88952602D01*
X171832814Y-88952609D01*
X171701711Y-89040210D01*
X171701707Y-89040213D01*
X171590213Y-89151707D01*
X171590210Y-89151711D01*
X171502609Y-89282814D01*
X171502602Y-89282827D01*
X171475391Y-89348523D01*
X171431550Y-89402927D01*
X171365256Y-89424992D01*
X171297557Y-89407713D01*
X171249946Y-89356576D01*
X171238357Y-89320469D01*
X171234198Y-89294213D01*
X171233090Y-89287215D01*
X171155241Y-89047621D01*
X171155239Y-89047618D01*
X171155239Y-89047616D01*
X171093471Y-88926390D01*
X171040870Y-88823155D01*
X170971222Y-88727292D01*
X170892798Y-88619350D01*
X170892794Y-88619345D01*
X170714654Y-88441205D01*
X170714649Y-88441201D01*
X170510848Y-88293132D01*
X170510847Y-88293131D01*
X170510845Y-88293130D01*
X170440747Y-88257413D01*
X170286383Y-88178760D01*
X170046785Y-88100910D01*
X169797962Y-88061500D01*
X169546038Y-88061500D01*
X169421626Y-88081205D01*
X169297214Y-88100910D01*
X169057616Y-88178760D01*
X168833151Y-88293132D01*
X168629350Y-88441201D01*
X168629345Y-88441205D01*
X168451205Y-88619345D01*
X168451201Y-88619350D01*
X168303132Y-88823151D01*
X168188760Y-89047616D01*
X168110910Y-89287214D01*
X168092142Y-89405711D01*
X168071500Y-89536038D01*
X153038868Y-89536038D01*
X152951786Y-89405711D01*
X152951783Y-89405707D01*
X152840289Y-89294213D01*
X152840285Y-89294210D01*
X152709182Y-89206609D01*
X152709169Y-89206602D01*
X152563498Y-89146264D01*
X152563486Y-89146261D01*
X152408842Y-89115500D01*
X152408839Y-89115500D01*
X152251155Y-89115500D01*
X152251152Y-89115500D01*
X152096507Y-89146261D01*
X152096495Y-89146264D01*
X151950824Y-89206602D01*
X151950811Y-89206609D01*
X151819708Y-89294210D01*
X151819704Y-89294213D01*
X151708210Y-89405707D01*
X151708207Y-89405711D01*
X151620606Y-89536814D01*
X151620599Y-89536827D01*
X151560261Y-89682498D01*
X151560258Y-89682510D01*
X151529497Y-89837153D01*
X147889585Y-89837153D01*
X147870397Y-89790826D01*
X147870390Y-89790814D01*
X147782789Y-89659711D01*
X147782786Y-89659707D01*
X147671292Y-89548213D01*
X147671288Y-89548210D01*
X147540185Y-89460609D01*
X147540172Y-89460602D01*
X147394501Y-89400264D01*
X147394489Y-89400261D01*
X147239845Y-89369500D01*
X147239842Y-89369500D01*
X147082158Y-89369500D01*
X147082155Y-89369500D01*
X146927510Y-89400261D01*
X146927498Y-89400264D01*
X146781827Y-89460602D01*
X146781814Y-89460609D01*
X146650711Y-89548210D01*
X146650707Y-89548213D01*
X146539213Y-89659707D01*
X146539210Y-89659711D01*
X146451609Y-89790814D01*
X146451602Y-89790827D01*
X146391264Y-89936498D01*
X146391261Y-89936510D01*
X146360500Y-90091153D01*
X144526000Y-90091153D01*
X144526000Y-86916153D01*
X146360500Y-86916153D01*
X146360500Y-87073846D01*
X146391261Y-87228489D01*
X146391264Y-87228501D01*
X146451602Y-87374172D01*
X146451609Y-87374185D01*
X146539210Y-87505288D01*
X146539213Y-87505292D01*
X146650707Y-87616786D01*
X146650711Y-87616789D01*
X146781814Y-87704390D01*
X146781827Y-87704397D01*
X146927498Y-87764735D01*
X146927503Y-87764737D01*
X146939577Y-87767138D01*
X146954271Y-87770062D01*
X147016182Y-87802447D01*
X147050756Y-87863162D01*
X147047017Y-87932932D01*
X147044642Y-87939129D01*
X147026264Y-87983498D01*
X147026261Y-87983510D01*
X146995500Y-88138153D01*
X146995500Y-88295846D01*
X147026261Y-88450489D01*
X147026264Y-88450501D01*
X147086602Y-88596172D01*
X147086609Y-88596185D01*
X147174210Y-88727288D01*
X147174213Y-88727292D01*
X147285707Y-88838786D01*
X147285711Y-88838789D01*
X147416814Y-88926390D01*
X147416827Y-88926397D01*
X147562498Y-88986735D01*
X147562503Y-88986737D01*
X147717153Y-89017499D01*
X147717156Y-89017500D01*
X147717158Y-89017500D01*
X147874844Y-89017500D01*
X147874845Y-89017499D01*
X148029497Y-88986737D01*
X148175179Y-88926394D01*
X148306289Y-88838789D01*
X148417789Y-88727289D01*
X148505394Y-88596179D01*
X148565737Y-88450497D01*
X148596500Y-88295842D01*
X148596500Y-88138158D01*
X148596500Y-88138155D01*
X148596499Y-88138153D01*
X148589091Y-88100910D01*
X148565737Y-87983503D01*
X148515891Y-87863162D01*
X148505397Y-87837827D01*
X148505390Y-87837814D01*
X148417789Y-87706711D01*
X148417786Y-87706707D01*
X148306292Y-87595213D01*
X148306288Y-87595210D01*
X148175185Y-87507609D01*
X148175172Y-87507602D01*
X148029501Y-87447264D01*
X148029494Y-87447262D01*
X148002725Y-87441937D01*
X147940815Y-87409550D01*
X147906242Y-87348834D01*
X147909983Y-87279064D01*
X147912358Y-87272867D01*
X147930737Y-87228497D01*
X147961500Y-87073842D01*
X147961500Y-86916158D01*
X147961500Y-86916155D01*
X147961499Y-86916153D01*
X147930738Y-86761510D01*
X147930737Y-86761503D01*
X147930735Y-86761498D01*
X147870397Y-86615827D01*
X147870390Y-86615814D01*
X147782789Y-86484711D01*
X147782786Y-86484707D01*
X147671292Y-86373213D01*
X147671288Y-86373210D01*
X147540185Y-86285609D01*
X147540172Y-86285602D01*
X147394501Y-86225264D01*
X147394489Y-86225261D01*
X147239845Y-86194500D01*
X147239842Y-86194500D01*
X147082158Y-86194500D01*
X147082155Y-86194500D01*
X146927510Y-86225261D01*
X146927498Y-86225264D01*
X146781827Y-86285602D01*
X146781814Y-86285609D01*
X146650711Y-86373210D01*
X146650707Y-86373213D01*
X146539213Y-86484707D01*
X146539210Y-86484711D01*
X146451609Y-86615814D01*
X146451602Y-86615827D01*
X146391264Y-86761498D01*
X146391261Y-86761510D01*
X146360500Y-86916153D01*
X144526000Y-86916153D01*
X144526000Y-81916038D01*
X150672500Y-81916038D01*
X150672500Y-82167962D01*
X150690687Y-82282789D01*
X150711910Y-82416785D01*
X150789760Y-82656383D01*
X150904132Y-82880848D01*
X151052201Y-83084649D01*
X151052205Y-83084654D01*
X151230345Y-83262794D01*
X151230350Y-83262798D01*
X151408117Y-83391952D01*
X151434155Y-83410870D01*
X151577184Y-83483747D01*
X151658616Y-83525239D01*
X151658618Y-83525239D01*
X151658621Y-83525241D01*
X151898215Y-83603090D01*
X152147038Y-83642500D01*
X152147039Y-83642500D01*
X152398961Y-83642500D01*
X152398962Y-83642500D01*
X152647785Y-83603090D01*
X152887379Y-83525241D01*
X153111845Y-83410870D01*
X153204936Y-83343234D01*
X153270742Y-83319754D01*
X153338796Y-83335579D01*
X153365503Y-83355871D01*
X153370288Y-83360656D01*
X153494344Y-83484712D01*
X153643665Y-83576814D01*
X153810202Y-83631999D01*
X153912990Y-83642500D01*
X153912995Y-83642500D01*
X155713005Y-83642500D01*
X155713010Y-83642500D01*
X155815798Y-83631999D01*
X155982335Y-83576814D01*
X156131656Y-83484712D01*
X156255712Y-83360656D01*
X156347814Y-83211335D01*
X156402999Y-83044798D01*
X156413500Y-82942010D01*
X156413500Y-82471153D01*
X165442500Y-82471153D01*
X165442500Y-82628846D01*
X165473261Y-82783489D01*
X165473264Y-82783501D01*
X165533602Y-82929172D01*
X165533609Y-82929185D01*
X165621210Y-83060288D01*
X165621213Y-83060292D01*
X165732707Y-83171786D01*
X165732711Y-83171789D01*
X165863814Y-83259390D01*
X165863827Y-83259397D01*
X166009498Y-83319735D01*
X166009503Y-83319737D01*
X166127635Y-83343235D01*
X166164153Y-83350499D01*
X166164156Y-83350500D01*
X166164158Y-83350500D01*
X166321844Y-83350500D01*
X166321845Y-83350499D01*
X166476497Y-83319737D01*
X166622179Y-83259394D01*
X166753289Y-83171789D01*
X166864789Y-83060289D01*
X166952394Y-82929179D01*
X167012737Y-82783497D01*
X167043500Y-82628842D01*
X167043500Y-82471158D01*
X167043500Y-82471155D01*
X167043499Y-82471153D01*
X167023457Y-82370397D01*
X167012737Y-82316503D01*
X166998771Y-82282786D01*
X166952397Y-82170827D01*
X166952390Y-82170814D01*
X166864789Y-82039711D01*
X166864786Y-82039707D01*
X166753292Y-81928213D01*
X166753288Y-81928210D01*
X166622185Y-81840609D01*
X166622172Y-81840602D01*
X166476501Y-81780264D01*
X166476489Y-81780261D01*
X166321845Y-81749500D01*
X166321842Y-81749500D01*
X166164158Y-81749500D01*
X166164155Y-81749500D01*
X166009510Y-81780261D01*
X166009498Y-81780264D01*
X165863827Y-81840602D01*
X165863814Y-81840609D01*
X165732711Y-81928210D01*
X165732707Y-81928213D01*
X165621213Y-82039707D01*
X165621210Y-82039711D01*
X165533609Y-82170814D01*
X165533602Y-82170827D01*
X165473264Y-82316498D01*
X165473261Y-82316510D01*
X165442500Y-82471153D01*
X156413500Y-82471153D01*
X156413500Y-81582153D01*
X157187500Y-81582153D01*
X157187500Y-81739846D01*
X157218261Y-81894489D01*
X157218264Y-81894501D01*
X157278602Y-82040172D01*
X157278609Y-82040185D01*
X157366210Y-82171288D01*
X157366213Y-82171292D01*
X157477707Y-82282786D01*
X157477711Y-82282789D01*
X157608814Y-82370390D01*
X157608827Y-82370397D01*
X157754498Y-82430735D01*
X157754503Y-82430737D01*
X157909153Y-82461499D01*
X157909156Y-82461500D01*
X157909158Y-82461500D01*
X158066844Y-82461500D01*
X158066845Y-82461499D01*
X158221497Y-82430737D01*
X158367179Y-82370394D01*
X158498289Y-82282789D01*
X158609789Y-82171289D01*
X158697394Y-82040179D01*
X158757737Y-81894497D01*
X158788500Y-81739842D01*
X158788500Y-81582158D01*
X158788500Y-81582155D01*
X158788499Y-81582153D01*
X158757738Y-81427510D01*
X158757737Y-81427503D01*
X158735150Y-81372973D01*
X158697397Y-81281827D01*
X158697390Y-81281814D01*
X158609789Y-81150711D01*
X158609786Y-81150707D01*
X158498292Y-81039213D01*
X158498288Y-81039210D01*
X158367185Y-80951609D01*
X158367172Y-80951602D01*
X158221501Y-80891264D01*
X158221489Y-80891261D01*
X158066845Y-80860500D01*
X158066842Y-80860500D01*
X157909158Y-80860500D01*
X157909155Y-80860500D01*
X157754510Y-80891261D01*
X157754498Y-80891264D01*
X157608827Y-80951602D01*
X157608814Y-80951609D01*
X157477711Y-81039210D01*
X157477707Y-81039213D01*
X157366213Y-81150707D01*
X157366210Y-81150711D01*
X157278609Y-81281814D01*
X157278602Y-81281827D01*
X157218264Y-81427498D01*
X157218261Y-81427510D01*
X157187500Y-81582153D01*
X156413500Y-81582153D01*
X156413500Y-81141990D01*
X156402999Y-81039202D01*
X156347814Y-80872665D01*
X156255712Y-80723344D01*
X156131656Y-80599288D01*
X155982335Y-80507186D01*
X155815798Y-80452001D01*
X155815796Y-80452000D01*
X155713017Y-80441500D01*
X155713010Y-80441500D01*
X155256575Y-80441500D01*
X155189536Y-80421815D01*
X155143781Y-80369011D01*
X155133837Y-80299853D01*
X155162862Y-80236297D01*
X155187684Y-80214398D01*
X155247895Y-80174165D01*
X155323289Y-80123789D01*
X155434789Y-80012289D01*
X155522394Y-79881179D01*
X155582737Y-79735497D01*
X155613500Y-79580842D01*
X155613500Y-79423158D01*
X155613500Y-79423155D01*
X155613499Y-79423153D01*
X155582737Y-79268503D01*
X155571538Y-79241465D01*
X155522397Y-79122827D01*
X155522390Y-79122814D01*
X155434789Y-78991711D01*
X155434786Y-78991707D01*
X155323292Y-78880213D01*
X155323288Y-78880210D01*
X155192185Y-78792609D01*
X155192172Y-78792602D01*
X155046501Y-78732264D01*
X155046489Y-78732261D01*
X154891845Y-78701500D01*
X154891842Y-78701500D01*
X154734158Y-78701500D01*
X154734155Y-78701500D01*
X154579510Y-78732261D01*
X154579498Y-78732264D01*
X154433827Y-78792602D01*
X154433814Y-78792609D01*
X154302711Y-78880210D01*
X154302707Y-78880213D01*
X154191213Y-78991707D01*
X154191210Y-78991711D01*
X154103609Y-79122814D01*
X154103602Y-79122827D01*
X154043264Y-79268498D01*
X154043261Y-79268510D01*
X154012500Y-79423153D01*
X154012500Y-79580846D01*
X154043261Y-79735489D01*
X154043264Y-79735501D01*
X154103602Y-79881172D01*
X154103609Y-79881185D01*
X154191210Y-80012288D01*
X154191213Y-80012292D01*
X154302707Y-80123786D01*
X154302711Y-80123789D01*
X154438316Y-80214398D01*
X154483121Y-80268010D01*
X154491828Y-80337335D01*
X154461674Y-80400363D01*
X154402230Y-80437082D01*
X154369425Y-80441500D01*
X153912982Y-80441500D01*
X153810203Y-80452000D01*
X153810202Y-80452001D01*
X153773835Y-80464052D01*
X153643667Y-80507185D01*
X153643662Y-80507187D01*
X153494345Y-80599287D01*
X153365503Y-80728128D01*
X153304179Y-80761612D01*
X153234488Y-80756627D01*
X153204937Y-80740764D01*
X153111848Y-80673132D01*
X153111847Y-80673131D01*
X153111845Y-80673130D01*
X153041747Y-80637413D01*
X152887383Y-80558760D01*
X152647787Y-80480910D01*
X152614528Y-80475642D01*
X152551394Y-80445711D01*
X152514463Y-80386399D01*
X152515463Y-80316536D01*
X152554074Y-80258304D01*
X152586472Y-80238610D01*
X152652179Y-80211394D01*
X152783289Y-80123789D01*
X152894789Y-80012289D01*
X152982394Y-79881179D01*
X153042737Y-79735497D01*
X153073500Y-79580842D01*
X153073500Y-79423158D01*
X153073500Y-79423155D01*
X153073499Y-79423153D01*
X153042737Y-79268503D01*
X153031538Y-79241465D01*
X152982397Y-79122827D01*
X152982390Y-79122814D01*
X152894789Y-78991711D01*
X152894786Y-78991707D01*
X152783292Y-78880213D01*
X152783288Y-78880210D01*
X152652185Y-78792609D01*
X152652172Y-78792602D01*
X152506501Y-78732264D01*
X152506489Y-78732261D01*
X152351845Y-78701500D01*
X152351842Y-78701500D01*
X152194158Y-78701500D01*
X152194155Y-78701500D01*
X152039510Y-78732261D01*
X152039498Y-78732264D01*
X151893827Y-78792602D01*
X151893814Y-78792609D01*
X151762711Y-78880210D01*
X151762707Y-78880213D01*
X151651213Y-78991707D01*
X151651210Y-78991711D01*
X151563609Y-79122814D01*
X151563602Y-79122827D01*
X151503264Y-79268498D01*
X151503261Y-79268510D01*
X151472500Y-79423153D01*
X151472500Y-79580846D01*
X151503261Y-79735489D01*
X151503264Y-79735501D01*
X151563602Y-79881172D01*
X151563609Y-79881185D01*
X151651210Y-80012288D01*
X151651213Y-80012292D01*
X151762707Y-80123786D01*
X151762711Y-80123789D01*
X151893814Y-80211390D01*
X151893821Y-80211394D01*
X151959524Y-80238609D01*
X152013926Y-80282447D01*
X152035992Y-80348741D01*
X152018714Y-80416441D01*
X151967577Y-80464052D01*
X151931472Y-80475642D01*
X151898211Y-80480910D01*
X151658616Y-80558760D01*
X151434151Y-80673132D01*
X151230350Y-80821201D01*
X151230345Y-80821205D01*
X151052205Y-80999345D01*
X151052201Y-80999350D01*
X150904132Y-81203151D01*
X150789760Y-81427616D01*
X150711910Y-81667214D01*
X150696818Y-81762500D01*
X150672500Y-81916038D01*
X144526000Y-81916038D01*
X144526000Y-79238092D01*
X144526597Y-79225938D01*
X144544018Y-79049056D01*
X144548757Y-79025232D01*
X144598577Y-78860994D01*
X144607875Y-78838549D01*
X144688775Y-78687195D01*
X144702272Y-78666995D01*
X144811149Y-78534328D01*
X144828328Y-78517149D01*
X144960995Y-78408272D01*
X144981195Y-78394775D01*
X145132549Y-78313875D01*
X145154994Y-78304577D01*
X145319232Y-78254757D01*
X145343056Y-78250018D01*
X145519939Y-78232597D01*
X145532093Y-78232000D01*
X164928216Y-78232000D01*
X164938420Y-78232421D01*
G37*
%TD.AperFunction*%
%TD*%
M02*
