%TF.GenerationSoftware,KiCad,Pcbnew,10.0.0*%
%TF.CreationDate,2026-05-10T20:23:32-05:00*%
%TF.ProjectId,DualAMCBoard,4475616c-414d-4434-926f-6172642e6b69,rev?*%
%TF.SameCoordinates,Original*%
%TF.FileFunction,Soldermask,Top*%
%TF.FilePolarity,Negative*%
%FSLAX46Y46*%
G04 Gerber Fmt 4.6, Leading zero omitted, Abs format (unit mm)*
G04 Created by KiCad (PCBNEW 10.0.0) date 2026-05-10 20:23:32*
%MOMM*%
%LPD*%
G01*
G04 APERTURE LIST*
G04 Aperture macros list*
%AMRoundRect*
0 Rectangle with rounded corners*
0 $1 Rounding radius*
0 $2 $3 $4 $5 $6 $7 $8 $9 X,Y pos of 4 corners*
0 Add a 4 corners polygon primitive as box body*
4,1,4,$2,$3,$4,$5,$6,$7,$8,$9,$2,$3,0*
0 Add four circle primitives for the rounded corners*
1,1,$1+$1,$2,$3*
1,1,$1+$1,$4,$5*
1,1,$1+$1,$6,$7*
1,1,$1+$1,$8,$9*
0 Add four rect primitives between the rounded corners*
20,1,$1+$1,$2,$3,$4,$5,0*
20,1,$1+$1,$4,$5,$6,$7,0*
20,1,$1+$1,$6,$7,$8,$9,0*
20,1,$1+$1,$8,$9,$2,$3,0*%
G04 Aperture macros list end*
%ADD10RoundRect,0.250000X0.350000X0.450000X-0.350000X0.450000X-0.350000X-0.450000X0.350000X-0.450000X0*%
%ADD11R,0.700000X0.640000*%
%ADD12R,0.700000X0.500000*%
%ADD13RoundRect,0.237500X-0.237500X0.300000X-0.237500X-0.300000X0.237500X-0.300000X0.237500X0.300000X0*%
%ADD14RoundRect,0.150000X-0.150000X0.825000X-0.150000X-0.825000X0.150000X-0.825000X0.150000X0.825000X0*%
%ADD15RoundRect,0.237500X0.237500X-0.300000X0.237500X0.300000X-0.237500X0.300000X-0.237500X-0.300000X0*%
%ADD16RoundRect,0.237500X0.300000X0.237500X-0.300000X0.237500X-0.300000X-0.237500X0.300000X-0.237500X0*%
%ADD17RoundRect,0.237500X-0.300000X-0.237500X0.300000X-0.237500X0.300000X0.237500X-0.300000X0.237500X0*%
%ADD18C,1.100000*%
%ADD19RoundRect,0.249999X0.850001X0.850001X-0.850001X0.850001X-0.850001X-0.850001X0.850001X-0.850001X0*%
%ADD20C,2.200000*%
%ADD21RoundRect,0.250000X0.450000X-0.350000X0.450000X0.350000X-0.450000X0.350000X-0.450000X-0.350000X0*%
%ADD22RoundRect,0.250000X-0.475000X0.337500X-0.475000X-0.337500X0.475000X-0.337500X0.475000X0.337500X0*%
%ADD23RoundRect,0.249999X-0.850001X-0.850001X0.850001X-0.850001X0.850001X0.850001X-0.850001X0.850001X0*%
%ADD24RoundRect,0.249999X0.850001X-0.850001X0.850001X0.850001X-0.850001X0.850001X-0.850001X-0.850001X0*%
%ADD25RoundRect,0.250000X-0.450000X0.350000X-0.450000X-0.350000X0.450000X-0.350000X0.450000X0.350000X0*%
%ADD26RoundRect,0.150000X-0.875000X-0.150000X0.875000X-0.150000X0.875000X0.150000X-0.875000X0.150000X0*%
%ADD27RoundRect,0.250000X-0.350000X-0.450000X0.350000X-0.450000X0.350000X0.450000X-0.350000X0.450000X0*%
%ADD28C,3.800000*%
%ADD29C,2.600000*%
%ADD30RoundRect,0.250000X0.650000X-0.412500X0.650000X0.412500X-0.650000X0.412500X-0.650000X-0.412500X0*%
%ADD31RoundRect,0.250000X0.475000X-0.337500X0.475000X0.337500X-0.475000X0.337500X-0.475000X-0.337500X0*%
%ADD32RoundRect,0.250000X-0.412500X-0.650000X0.412500X-0.650000X0.412500X0.650000X-0.412500X0.650000X0*%
%ADD33RoundRect,0.250001X-0.799999X0.799999X-0.799999X-0.799999X0.799999X-0.799999X0.799999X0.799999X0*%
%ADD34C,2.100000*%
%ADD35RoundRect,0.160000X-0.222500X-0.160000X0.222500X-0.160000X0.222500X0.160000X-0.222500X0.160000X0*%
%ADD36RoundRect,0.249999X1.075001X-0.450001X1.075001X0.450001X-1.075001X0.450001X-1.075001X-0.450001X0*%
G04 APERTURE END LIST*
D10*
%TO.C,R1*%
X149082000Y-90170000D03*
X151082000Y-90170000D03*
%TD*%
D11*
%TO.C,RN3*%
X157545000Y-91378000D03*
D12*
X157545000Y-92248000D03*
X157545000Y-93048000D03*
D11*
X157545000Y-93918000D03*
X156145000Y-93918000D03*
D12*
X156145000Y-93048000D03*
X156145000Y-92248000D03*
D11*
X156145000Y-91378000D03*
%TD*%
D13*
%TO.C,Cs1*%
X163703000Y-86451500D03*
X163703000Y-88176500D03*
%TD*%
D14*
%TO.C,U1*%
X163703000Y-95312000D03*
X162433000Y-95312000D03*
X161163000Y-95312000D03*
X159893000Y-95312000D03*
X159893000Y-90362000D03*
X161163000Y-90362000D03*
X162433000Y-90362000D03*
X163703000Y-90362000D03*
%TD*%
D15*
%TO.C,Cs4*%
X158115000Y-97728000D03*
X158115000Y-96003000D03*
%TD*%
D16*
%TO.C,Cs5*%
X161062500Y-97728000D03*
X162787500Y-97728000D03*
%TD*%
D17*
%TO.C,Cs2*%
X160046500Y-88076000D03*
X161771500Y-88076000D03*
%TD*%
D18*
%TO.C,J8*%
X154813000Y-79502000D03*
X152273000Y-79502000D03*
D19*
X154813000Y-82042000D03*
D20*
X152273000Y-82042000D03*
%TD*%
D21*
%TO.C,Rs7*%
X169799000Y-83074000D03*
X169799000Y-85074000D03*
%TD*%
D22*
%TO.C,Cs3*%
X167513000Y-85111500D03*
X167513000Y-83036500D03*
%TD*%
D20*
%TO.C,J11*%
X160909000Y-110309500D03*
D23*
X158369000Y-110309500D03*
D18*
X160909000Y-112849500D03*
X158369000Y-112849500D03*
%TD*%
%TO.C,J7*%
X172212000Y-107442000D03*
X172212000Y-104902000D03*
D24*
X169672000Y-107442000D03*
D20*
X169672000Y-104902000D03*
%TD*%
D25*
%TO.C,Rs10*%
X167513000Y-98790000D03*
X167513000Y-96790000D03*
%TD*%
D11*
%TO.C,RN4*%
X154559000Y-101073000D03*
D12*
X154559000Y-101943000D03*
X154559000Y-102743000D03*
D11*
X154559000Y-103613000D03*
X155959000Y-103613000D03*
D12*
X155959000Y-102743000D03*
X155959000Y-101943000D03*
D11*
X155959000Y-101073000D03*
%TD*%
D26*
%TO.C,Ui1*%
X145588000Y-86995000D03*
X145588000Y-88265000D03*
X145588000Y-89535000D03*
X145588000Y-90805000D03*
X145588000Y-92075000D03*
X145588000Y-93345000D03*
X145588000Y-94615000D03*
X145588000Y-95885000D03*
X136288000Y-95885000D03*
X136288000Y-94615000D03*
X136288000Y-93345000D03*
X136288000Y-92075000D03*
X136288000Y-90805000D03*
X136288000Y-89535000D03*
X136288000Y-88265000D03*
X136288000Y-86995000D03*
%TD*%
D27*
%TO.C,Rv1*%
X122412000Y-99743000D03*
X120412000Y-99743000D03*
%TD*%
D28*
%TO.C,H1*%
X110490000Y-80010000D03*
D29*
X110490000Y-80010000D03*
%TD*%
D28*
%TO.C,H2*%
X110490000Y-112522000D03*
D29*
X110490000Y-112522000D03*
%TD*%
%TO.C,H3*%
X171947500Y-79962000D03*
D28*
X171947500Y-79962000D03*
%TD*%
D29*
%TO.C,H4*%
X171958000Y-112522000D03*
D28*
X171958000Y-112522000D03*
%TD*%
D20*
%TO.C,J9*%
X169672000Y-89662000D03*
D24*
X169672000Y-92202000D03*
D18*
X172212000Y-89662000D03*
X172212000Y-92202000D03*
%TD*%
D25*
%TO.C,Rs5*%
X159385000Y-84201000D03*
X159385000Y-82201000D03*
%TD*%
D21*
%TO.C,Rs6*%
X161798000Y-82201000D03*
X161798000Y-84201000D03*
%TD*%
D30*
%TO.C,C9*%
X152876000Y-92417500D03*
X152876000Y-95542500D03*
%TD*%
D10*
%TO.C,Rv2*%
X122412000Y-108379000D03*
X120412000Y-108379000D03*
%TD*%
%TO.C,R2*%
X151133121Y-104995648D03*
X149133121Y-104995648D03*
%TD*%
D25*
%TO.C,Rv3*%
X120650000Y-102553000D03*
X120650000Y-104553000D03*
%TD*%
D17*
%TO.C,C7*%
X131139500Y-99997000D03*
X132864500Y-99997000D03*
%TD*%
D31*
%TO.C,Cs6*%
X170053000Y-98827500D03*
X170053000Y-96752500D03*
%TD*%
D15*
%TO.C,C16*%
X149117121Y-103064148D03*
X149117121Y-101339148D03*
%TD*%
D32*
%TO.C,C15*%
X129501500Y-109903000D03*
X132626500Y-109903000D03*
%TD*%
D10*
%TO.C,Rs8*%
X160623000Y-102251000D03*
X158623000Y-102251000D03*
%TD*%
D17*
%TO.C,C13*%
X131117000Y-104823000D03*
X132842000Y-104823000D03*
%TD*%
D27*
%TO.C,Rs9*%
X158639000Y-104775000D03*
X160639000Y-104775000D03*
%TD*%
D31*
%TO.C,C11*%
X125984000Y-104844500D03*
X125984000Y-102769500D03*
%TD*%
D30*
%TO.C,C17*%
X149752121Y-110368148D03*
X149752121Y-107243148D03*
%TD*%
D17*
%TO.C,C12*%
X131064000Y-102283000D03*
X132789000Y-102283000D03*
%TD*%
D33*
%TO.C,J6*%
X113241500Y-100754000D03*
D34*
X113241500Y-105834000D03*
%TD*%
D32*
%TO.C,C14*%
X129501500Y-107363000D03*
X132626500Y-107363000D03*
%TD*%
D26*
%TO.C,Uv1*%
X136347000Y-101854000D03*
X136347000Y-103124000D03*
X136347000Y-104394000D03*
X136347000Y-105664000D03*
X136347000Y-106934000D03*
X136347000Y-108204000D03*
X136347000Y-109474000D03*
X136347000Y-110744000D03*
X145647000Y-110744000D03*
X145647000Y-109474000D03*
X145647000Y-108204000D03*
X145647000Y-106934000D03*
X145647000Y-105664000D03*
X145647000Y-104394000D03*
X145647000Y-103124000D03*
X145647000Y-101854000D03*
%TD*%
D35*
%TO.C,FB5*%
X122617500Y-105077000D03*
X123762500Y-105077000D03*
%TD*%
%TO.C,FB4*%
X122617500Y-102791000D03*
X123762500Y-102791000D03*
%TD*%
%TO.C,FB6*%
X124395500Y-107871000D03*
X125540500Y-107871000D03*
%TD*%
D30*
%TO.C,C18*%
X152927121Y-110368148D03*
X152927121Y-107243148D03*
%TD*%
D15*
%TO.C,C4*%
X149066000Y-88238500D03*
X149066000Y-86513500D03*
%TD*%
D17*
%TO.C,C2*%
X131107500Y-85090000D03*
X132832500Y-85090000D03*
%TD*%
D27*
%TO.C,Ri4*%
X123936000Y-92202000D03*
X125936000Y-92202000D03*
%TD*%
D32*
%TO.C,C6*%
X129469500Y-94996000D03*
X132594500Y-94996000D03*
%TD*%
D33*
%TO.C,J1*%
X113209500Y-86355000D03*
D34*
X113209500Y-91435000D03*
%TD*%
D30*
%TO.C,C8*%
X149701000Y-95542500D03*
X149701000Y-92417500D03*
%TD*%
D27*
%TO.C,Ri2*%
X123936000Y-85598000D03*
X125936000Y-85598000D03*
%TD*%
D17*
%TO.C,C1*%
X131085000Y-89916000D03*
X132810000Y-89916000D03*
%TD*%
D31*
%TO.C,C10*%
X127222000Y-89937500D03*
X127222000Y-87862500D03*
%TD*%
D17*
%TO.C,C3*%
X131032000Y-87376000D03*
X132757000Y-87376000D03*
%TD*%
D32*
%TO.C,C5*%
X129469500Y-92456000D03*
X132594500Y-92456000D03*
%TD*%
D36*
%TO.C,Ri3*%
X121126000Y-91554000D03*
X121126000Y-86754000D03*
%TD*%
D35*
%TO.C,FB2*%
X124045000Y-90170000D03*
X125190000Y-90170000D03*
%TD*%
%TO.C,FB1*%
X124045000Y-87884000D03*
X125190000Y-87884000D03*
%TD*%
%TO.C,FB3*%
X121315500Y-94234000D03*
X122460500Y-94234000D03*
%TD*%
M02*
