M48
; DRILL file KiCad 10.0.0 date 2026-05-10T20:23:36
; FORMAT={-:-/ absolute / metric / decimal}
; #@! TF.CreationDate,2026-05-10T20:23:36-05:00
; #@! TF.GenerationSoftware,Kicad,Pcbnew,10.0.0
; #@! TF.FileFunction,Plated,1,4,PTH
FMAT,2
METRIC
; #@! TA.AperFunction,Plated,PTH,ViaDrill
T1C0.300
; #@! TA.AperFunction,Plated,PTH,ComponentDrill
T2C1.100
; #@! TA.AperFunction,Plated,PTH,ComponentDrill
T3C2.200
%
G90
G05
T1
X127.508Y-102.791
X127.508Y-105.077
X128.492Y-87.884
X128.492Y-89.916
X134.334Y-86.868
X134.334Y-89.916
X134.366Y-101.775
X134.366Y-104.823
X134.667Y-93.297
X134.667Y-94.567
X134.699Y-108.204
X134.699Y-109.474
X147.066Y-92.202
X147.161Y-86.995
X147.161Y-90.17
X147.212Y-101.821
X147.212Y-104.996
X147.32Y-106.934
X147.796Y-88.217
X147.796Y-96.647
X147.812Y-103.043
X147.847Y-111.473
X151.098Y-93.726
X151.352Y-94.567
X151.384Y-92.417
X151.384Y-95.758
X151.384Y-107.243
X152.33Y-89.916
X152.93Y-90.932
X155.575Y-107.95
X155.575Y-109.393
X157.099Y-101.727
X157.228Y-102.872
X157.488Y-100.475
X157.988Y-81.661
X158.251Y-100.714
X158.877Y-91.124
X160.401Y-100.711
X161.417Y-106.172
X163.322Y-81.788
X163.703Y-93.664
X166.243Y-82.55
X170.434Y-100.076
T2
X113.209Y-86.355
X113.209Y-91.435
X113.241Y-100.754
X113.241Y-105.834
X152.273Y-82.042
X154.813Y-82.042
X158.369Y-110.309
X160.909Y-110.309
X169.672Y-89.662
X169.672Y-92.202
X169.672Y-104.902
X169.672Y-107.442
T3
X110.49Y-80.01
X110.49Y-112.522
X171.947Y-79.962
X171.958Y-112.522
M30
