%TF.GenerationSoftware,KiCad,Pcbnew,10.0.0*%
%TF.CreationDate,2026-09-05T09:10:19-05:00*%
%TF.ProjectId,SI8751AB-IS_devboard,53493837-3531-4414-922d-49535f646576,rev?*%
%TF.SameCoordinates,Original*%
%TF.FileFunction,Soldermask,Top*%
%TF.FilePolarity,Negative*%
%FSLAX46Y46*%
G04 Gerber Fmt 4.6, Leading zero omitted, Abs format (unit mm)*
G04 Created by KiCad (PCBNEW 10.0.0) date 2026-09-05 09:10:19*
%MOMM*%
%LPD*%
G01*
G04 APERTURE LIST*
G04 Aperture macros list*
%AMRoundRect*
0 Rectangle with rounded corners*
0 $1 Rounding radius*
0 $2 $3 $4 $5 $6 $7 $8 $9 X,Y pos of 4 corners*
0 Add a 4 corners polygon primitive as box body*
4,1,4,$2,$3,$4,$5,$6,$7,$8,$9,$2,$3,0*
0 Add four circle primitives for the rounded corners*
1,1,$1+$1,$2,$3*
1,1,$1+$1,$4,$5*
1,1,$1+$1,$6,$7*
1,1,$1+$1,$8,$9*
0 Add four rect primitives between the rounded corners*
20,1,$1+$1,$2,$3,$4,$5,0*
20,1,$1+$1,$4,$5,$6,$7,0*
20,1,$1+$1,$6,$7,$8,$9,0*
20,1,$1+$1,$8,$9,$2,$3,0*%
G04 Aperture macros list end*
%ADD10C,3.200000*%
%ADD11RoundRect,0.250000X0.475000X-0.250000X0.475000X0.250000X-0.475000X0.250000X-0.475000X-0.250000X0*%
%ADD12RoundRect,0.250000X-0.262500X-0.450000X0.262500X-0.450000X0.262500X0.450000X-0.262500X0.450000X0*%
%ADD13R,2.540000X2.540000*%
%ADD14C,2.540000*%
%ADD15RoundRect,0.250000X0.450000X-0.262500X0.450000X0.262500X-0.450000X0.262500X-0.450000X-0.262500X0*%
%ADD16R,1.650000X1.905000*%
%ADD17O,1.650000X1.905000*%
%ADD18RoundRect,0.150000X0.825000X0.150000X-0.825000X0.150000X-0.825000X-0.150000X0.825000X-0.150000X0*%
%ADD19RoundRect,0.150000X-0.825000X-0.150000X0.825000X-0.150000X0.825000X0.150000X-0.825000X0.150000X0*%
%ADD20RoundRect,0.250000X-0.250000X-0.475000X0.250000X-0.475000X0.250000X0.475000X-0.250000X0.475000X0*%
%ADD21RoundRect,0.150000X0.875000X0.150000X-0.875000X0.150000X-0.875000X-0.150000X0.875000X-0.150000X0*%
%ADD22R,1.700000X1.700000*%
%ADD23C,1.700000*%
G04 APERTURE END LIST*
D10*
%TO.C,H2*%
X126000000Y-24000000D03*
%TD*%
D11*
%TO.C,C1*%
X58000000Y-33950000D03*
X58000000Y-32050000D03*
%TD*%
D12*
%TO.C,R11*%
X97087500Y-85000000D03*
X98912500Y-85000000D03*
%TD*%
D11*
%TO.C,C2*%
X58000000Y-53950000D03*
X58000000Y-52050000D03*
%TD*%
D13*
%TO.C,J2*%
X114000000Y-36000000D03*
D14*
X114000000Y-28380000D03*
%TD*%
D15*
%TO.C,R5*%
X56000000Y-38912500D03*
X56000000Y-37087500D03*
%TD*%
D10*
%TO.C,H1*%
X24000000Y-24000000D03*
%TD*%
D11*
%TO.C,C7*%
X72700000Y-90350000D03*
X72700000Y-88450000D03*
%TD*%
%TO.C,C15*%
X58000000Y-78950000D03*
X58000000Y-77050000D03*
%TD*%
D16*
%TO.C,Q2*%
X86000000Y-58000000D03*
D17*
X83460000Y-58000000D03*
X80920000Y-58000000D03*
%TD*%
D18*
%TO.C,U6*%
X66475000Y-74905000D03*
X66475000Y-73635000D03*
X66475000Y-72365000D03*
X66475000Y-71095000D03*
X61525000Y-71095000D03*
X61525000Y-72365000D03*
X61525000Y-73635000D03*
X61525000Y-74905000D03*
%TD*%
D19*
%TO.C,U2*%
X61525000Y-56095000D03*
X61525000Y-57365000D03*
X61525000Y-58635000D03*
X61525000Y-59905000D03*
X66475000Y-59905000D03*
X66475000Y-58635000D03*
X66475000Y-57365000D03*
X66475000Y-56095000D03*
%TD*%
D20*
%TO.C,C4*%
X75050000Y-55000000D03*
X76950000Y-55000000D03*
%TD*%
D11*
%TO.C,C17*%
X56000000Y-70950000D03*
X56000000Y-69050000D03*
%TD*%
D21*
%TO.C,U5*%
X68650000Y-94445000D03*
X68650000Y-93175000D03*
X68650000Y-91905000D03*
X68650000Y-90635000D03*
X68650000Y-89365000D03*
X68650000Y-88095000D03*
X68650000Y-86825000D03*
X68650000Y-85555000D03*
X59350000Y-85555000D03*
X59350000Y-86825000D03*
X59350000Y-88095000D03*
X59350000Y-89365000D03*
X59350000Y-90635000D03*
X59350000Y-91905000D03*
X59350000Y-93175000D03*
X59350000Y-94445000D03*
%TD*%
D11*
%TO.C,C5*%
X72700000Y-95450000D03*
X72700000Y-93550000D03*
%TD*%
D10*
%TO.C,H3*%
X24000000Y-106000000D03*
%TD*%
D12*
%TO.C,R1*%
X42087500Y-43000000D03*
X43912500Y-43000000D03*
%TD*%
D11*
%TO.C,C11*%
X55500000Y-90350000D03*
X55500000Y-88450000D03*
%TD*%
D10*
%TO.C,H4*%
X126000000Y-106000000D03*
%TD*%
D19*
%TO.C,U1*%
X61525000Y-36095000D03*
X61525000Y-37365000D03*
X61525000Y-38635000D03*
X61525000Y-39905000D03*
X66475000Y-39905000D03*
X66475000Y-38635000D03*
X66475000Y-37365000D03*
X66475000Y-36095000D03*
%TD*%
D11*
%TO.C,C6*%
X77000000Y-95450000D03*
X77000000Y-93550000D03*
%TD*%
D13*
%TO.C,J3*%
X114000000Y-68000000D03*
D14*
X114000000Y-60380000D03*
%TD*%
D16*
%TO.C,Q1*%
X86000000Y-38000000D03*
D17*
X88540000Y-38000000D03*
X91080000Y-38000000D03*
%TD*%
D15*
%TO.C,R13*%
X73000000Y-84912500D03*
X73000000Y-83087500D03*
%TD*%
D11*
%TO.C,C12*%
X50500000Y-90350000D03*
X50500000Y-88450000D03*
%TD*%
%TO.C,C14*%
X78000000Y-84950000D03*
X78000000Y-83050000D03*
%TD*%
%TO.C,C16*%
X53000000Y-78950000D03*
X53000000Y-77050000D03*
%TD*%
D15*
%TO.C,R2*%
X51000000Y-44912500D03*
X51000000Y-43087500D03*
%TD*%
D12*
%TO.C,R3*%
X42087500Y-57000000D03*
X43912500Y-57000000D03*
%TD*%
D20*
%TO.C,C3*%
X75050000Y-34000000D03*
X76950000Y-34000000D03*
%TD*%
D22*
%TO.C,J1*%
X29000000Y-40000000D03*
D23*
X29000000Y-42540000D03*
X29000000Y-45080000D03*
X29000000Y-47620000D03*
X29000000Y-50160000D03*
X29000000Y-52700000D03*
X29000000Y-55240000D03*
X29000000Y-57780000D03*
X29000000Y-60320000D03*
X29000000Y-62860000D03*
%TD*%
D12*
%TO.C,R12*%
X91087500Y-85000000D03*
X92912500Y-85000000D03*
%TD*%
D11*
%TO.C,C13*%
X55500000Y-95450000D03*
X55500000Y-93550000D03*
%TD*%
%TO.C,C8*%
X78000000Y-90350000D03*
X78000000Y-88450000D03*
%TD*%
D15*
%TO.C,R4*%
X51000000Y-62912500D03*
X51000000Y-61087500D03*
%TD*%
%TO.C,R14*%
X50000000Y-96912500D03*
X50000000Y-95087500D03*
%TD*%
D11*
%TO.C,C18*%
X39000000Y-68950000D03*
X39000000Y-67050000D03*
%TD*%
D15*
%TO.C,R6*%
X56000000Y-58912500D03*
X56000000Y-57087500D03*
%TD*%
D11*
%TO.C,C19*%
X82000000Y-95450000D03*
X82000000Y-93550000D03*
%TD*%
D12*
%TO.C,R10*%
X103087500Y-85000000D03*
X104912500Y-85000000D03*
%TD*%
M02*
