%TF.GenerationSoftware,KiCad,Pcbnew,10.0.0*%
%TF.CreationDate,2026-09-05T09:10:18-05:00*%
%TF.ProjectId,SI8751AB-IS_devboard,53493837-3531-4414-922d-49535f646576,rev?*%
%TF.SameCoordinates,Original*%
%TF.FileFunction,Copper,L1,Top*%
%TF.FilePolarity,Positive*%
%FSLAX46Y46*%
G04 Gerber Fmt 4.6, Leading zero omitted, Abs format (unit mm)*
G04 Created by KiCad (PCBNEW 10.0.0) date 2026-09-05 09:10:18*
%MOMM*%
%LPD*%
G01*
G04 APERTURE LIST*
G04 Aperture macros list*
%AMRoundRect*
0 Rectangle with rounded corners*
0 $1 Rounding radius*
0 $2 $3 $4 $5 $6 $7 $8 $9 X,Y pos of 4 corners*
0 Add a 4 corners polygon primitive as box body*
4,1,4,$2,$3,$4,$5,$6,$7,$8,$9,$2,$3,0*
0 Add four circle primitives for the rounded corners*
1,1,$1+$1,$2,$3*
1,1,$1+$1,$4,$5*
1,1,$1+$1,$6,$7*
1,1,$1+$1,$8,$9*
0 Add four rect primitives between the rounded corners*
20,1,$1+$1,$2,$3,$4,$5,0*
20,1,$1+$1,$4,$5,$6,$7,0*
20,1,$1+$1,$6,$7,$8,$9,0*
20,1,$1+$1,$8,$9,$2,$3,0*%
G04 Aperture macros list end*
%TA.AperFunction,SMDPad,CuDef*%
%ADD10RoundRect,0.250000X0.475000X-0.250000X0.475000X0.250000X-0.475000X0.250000X-0.475000X-0.250000X0*%
%TD*%
%TA.AperFunction,SMDPad,CuDef*%
%ADD11RoundRect,0.250000X-0.262500X-0.450000X0.262500X-0.450000X0.262500X0.450000X-0.262500X0.450000X0*%
%TD*%
%TA.AperFunction,ComponentPad*%
%ADD12R,2.540000X2.540000*%
%TD*%
%TA.AperFunction,ComponentPad*%
%ADD13C,2.540000*%
%TD*%
%TA.AperFunction,SMDPad,CuDef*%
%ADD14RoundRect,0.250000X0.450000X-0.262500X0.450000X0.262500X-0.450000X0.262500X-0.450000X-0.262500X0*%
%TD*%
%TA.AperFunction,ComponentPad*%
%ADD15R,1.650000X1.905000*%
%TD*%
%TA.AperFunction,ComponentPad*%
%ADD16O,1.650000X1.905000*%
%TD*%
%TA.AperFunction,SMDPad,CuDef*%
%ADD17RoundRect,0.150000X0.825000X0.150000X-0.825000X0.150000X-0.825000X-0.150000X0.825000X-0.150000X0*%
%TD*%
%TA.AperFunction,SMDPad,CuDef*%
%ADD18RoundRect,0.150000X-0.825000X-0.150000X0.825000X-0.150000X0.825000X0.150000X-0.825000X0.150000X0*%
%TD*%
%TA.AperFunction,SMDPad,CuDef*%
%ADD19RoundRect,0.250000X-0.250000X-0.475000X0.250000X-0.475000X0.250000X0.475000X-0.250000X0.475000X0*%
%TD*%
%TA.AperFunction,SMDPad,CuDef*%
%ADD20RoundRect,0.150000X0.875000X0.150000X-0.875000X0.150000X-0.875000X-0.150000X0.875000X-0.150000X0*%
%TD*%
%TA.AperFunction,ComponentPad*%
%ADD21R,1.700000X1.700000*%
%TD*%
%TA.AperFunction,ComponentPad*%
%ADD22C,1.700000*%
%TD*%
%TA.AperFunction,ViaPad*%
%ADD23C,0.700000*%
%TD*%
%TA.AperFunction,Conductor*%
%ADD24C,0.300000*%
%TD*%
%TA.AperFunction,Conductor*%
%ADD25C,1.000000*%
%TD*%
%TA.AperFunction,Conductor*%
%ADD26C,0.800000*%
%TD*%
G04 APERTURE END LIST*
D10*
%TO.P,C1,1*%
%TO.N,/+3V3*%
X58000000Y-33950000D03*
%TO.P,C1,2*%
%TO.N,/GND_LOGIC*%
X58000000Y-32050000D03*
%TD*%
D11*
%TO.P,R11,1*%
%TO.N,/DIV_1*%
X97087500Y-85000000D03*
%TO.P,R11,2*%
%TO.N,/DIV_2*%
X98912500Y-85000000D03*
%TD*%
D10*
%TO.P,C2,1*%
%TO.N,/+3V3*%
X58000000Y-53950000D03*
%TO.P,C2,2*%
%TO.N,/GND_LOGIC*%
X58000000Y-52050000D03*
%TD*%
D12*
%TO.P,J2,1*%
%TO.N,/RAIL_IN*%
X114000000Y-36000000D03*
D13*
%TO.P,J2,2*%
%TO.N,/GND_LOAD_RETURN*%
X114000000Y-28380000D03*
%TD*%
D14*
%TO.P,R5,1*%
%TO.N,/TT_1*%
X56000000Y-38912500D03*
%TO.P,R5,2*%
%TO.N,/GND_LOGIC*%
X56000000Y-37087500D03*
%TD*%
D10*
%TO.P,C7,1*%
%TO.N,/AMC_HLDO*%
X72700000Y-90350000D03*
%TO.P,C7,2*%
%TO.N,/GND_LOAD_RETURN*%
X72700000Y-88450000D03*
%TD*%
%TO.P,C15,1*%
%TO.N,/+3V3*%
X58000000Y-78950000D03*
%TO.P,C15,2*%
%TO.N,/GND_LOGIC*%
X58000000Y-77050000D03*
%TD*%
D15*
%TO.P,Q2,1*%
%TO.N,/GATE_2*%
X86000000Y-58000000D03*
D16*
%TO.P,Q2,2*%
%TO.N,/SWITCHED_PRE*%
X83460000Y-58000000D03*
%TO.P,Q2,3*%
%TO.N,/SOURCE_FLOAT*%
X80920000Y-58000000D03*
%TD*%
D17*
%TO.P,U6,1*%
%TO.N,/SWITCHED_PRE*%
X66475000Y-74905000D03*
%TO.P,U6,2*%
X66475000Y-73635000D03*
%TO.P,U6,3*%
%TO.N,/RAIL_OUT*%
X66475000Y-72365000D03*
%TO.P,U6,4*%
X66475000Y-71095000D03*
%TO.P,U6,5*%
%TO.N,/GND_LOGIC*%
X61525000Y-71095000D03*
%TO.P,U6,6*%
%TO.N,/I_FILTER*%
X61525000Y-72365000D03*
%TO.P,U6,7*%
%TO.N,/IOUT_ADC*%
X61525000Y-73635000D03*
%TO.P,U6,8*%
%TO.N,/+3V3*%
X61525000Y-74905000D03*
%TD*%
D18*
%TO.P,U2,1*%
%TO.N,/+3V3*%
X61525000Y-56095000D03*
%TO.P,U2,2*%
%TO.N,/TT_2*%
X61525000Y-57365000D03*
%TO.P,U2,3*%
%TO.N,/EN_B*%
X61525000Y-58635000D03*
%TO.P,U2,4*%
%TO.N,/GND_LOGIC*%
X61525000Y-59905000D03*
%TO.P,U2,5*%
%TO.N,/SOURCE_FLOAT*%
X66475000Y-59905000D03*
%TO.P,U2,6*%
%TO.N,unconnected-(U2-MCAP2-Pad6)*%
X66475000Y-58635000D03*
%TO.P,U2,7*%
%TO.N,/MCAP_2*%
X66475000Y-57365000D03*
%TO.P,U2,8*%
%TO.N,/GATE_2*%
X66475000Y-56095000D03*
%TD*%
D19*
%TO.P,C4,1*%
%TO.N,/SWITCHED_PRE*%
X75050000Y-55000000D03*
%TO.P,C4,2*%
%TO.N,/MCAP_2*%
X76950000Y-55000000D03*
%TD*%
D10*
%TO.P,C17,1*%
%TO.N,/I_FILTER*%
X56000000Y-70950000D03*
%TO.P,C17,2*%
%TO.N,/GND_LOGIC*%
X56000000Y-69050000D03*
%TD*%
D20*
%TO.P,U5,1*%
%TO.N,/AMC_HRAW*%
X68650000Y-94445000D03*
%TO.P,U5,2*%
%TO.N,/GND_LOAD_RETURN*%
X68650000Y-93175000D03*
%TO.P,U5,3*%
%TO.N,/AMC_HRAW*%
X68650000Y-91905000D03*
%TO.P,U5,4*%
%TO.N,/GND_LOAD_RETURN*%
X68650000Y-90635000D03*
%TO.P,U5,5*%
%TO.N,/AMC_HLDO*%
X68650000Y-89365000D03*
%TO.P,U5,6*%
%TO.N,/SENSE_IN*%
X68650000Y-88095000D03*
%TO.P,U5,7*%
%TO.N,/GND_LOAD_RETURN*%
X68650000Y-86825000D03*
%TO.P,U5,8*%
X68650000Y-85555000D03*
%TO.P,U5,9*%
%TO.N,/GND_LOGIC*%
X59350000Y-85555000D03*
%TO.P,U5,10*%
%TO.N,/VOUT_N*%
X59350000Y-86825000D03*
%TO.P,U5,11*%
%TO.N,/VOUT_P*%
X59350000Y-88095000D03*
%TO.P,U5,12*%
%TO.N,/+3V3*%
X59350000Y-89365000D03*
%TO.P,U5,13*%
%TO.N,/AMC_LLDO*%
X59350000Y-90635000D03*
%TO.P,U5,14*%
%TO.N,/DIAG_N*%
X59350000Y-91905000D03*
%TO.P,U5,15*%
%TO.N,/GND_LOGIC*%
X59350000Y-93175000D03*
%TO.P,U5,16*%
%TO.N,/AMC_LLDO*%
X59350000Y-94445000D03*
%TD*%
D10*
%TO.P,C5,1*%
%TO.N,/AMC_HRAW*%
X72700000Y-95450000D03*
%TO.P,C5,2*%
%TO.N,/GND_LOAD_RETURN*%
X72700000Y-93550000D03*
%TD*%
D11*
%TO.P,R1,1*%
%TO.N,/EN*%
X42087500Y-43000000D03*
%TO.P,R1,2*%
%TO.N,/EN_A*%
X43912500Y-43000000D03*
%TD*%
D10*
%TO.P,C11,1*%
%TO.N,/+3V3*%
X55500000Y-90350000D03*
%TO.P,C11,2*%
%TO.N,/GND_LOGIC*%
X55500000Y-88450000D03*
%TD*%
D18*
%TO.P,U1,1*%
%TO.N,/+3V3*%
X61525000Y-36095000D03*
%TO.P,U1,2*%
%TO.N,/TT_1*%
X61525000Y-37365000D03*
%TO.P,U1,3*%
%TO.N,/EN_A*%
X61525000Y-38635000D03*
%TO.P,U1,4*%
%TO.N,/GND_LOGIC*%
X61525000Y-39905000D03*
%TO.P,U1,5*%
%TO.N,/SOURCE_FLOAT*%
X66475000Y-39905000D03*
%TO.P,U1,6*%
%TO.N,unconnected-(U1-MCAP2-Pad6)*%
X66475000Y-38635000D03*
%TO.P,U1,7*%
%TO.N,/MCAP_1*%
X66475000Y-37365000D03*
%TO.P,U1,8*%
%TO.N,/GATE_1*%
X66475000Y-36095000D03*
%TD*%
D10*
%TO.P,C6,1*%
%TO.N,/AMC_HRAW*%
X77000000Y-95450000D03*
%TO.P,C6,2*%
%TO.N,/GND_LOAD_RETURN*%
X77000000Y-93550000D03*
%TD*%
D12*
%TO.P,J3,1*%
%TO.N,/RAIL_OUT*%
X114000000Y-68000000D03*
D13*
%TO.P,J3,2*%
%TO.N,/GND_LOAD_RETURN*%
X114000000Y-60380000D03*
%TD*%
D15*
%TO.P,Q1,1*%
%TO.N,/GATE_1*%
X86000000Y-38000000D03*
D16*
%TO.P,Q1,2*%
%TO.N,/RAIL_IN*%
X88540000Y-38000000D03*
%TO.P,Q1,3*%
%TO.N,/SOURCE_FLOAT*%
X91080000Y-38000000D03*
%TD*%
D14*
%TO.P,R13,1*%
%TO.N,/SENSE_IN*%
X73000000Y-84912500D03*
%TO.P,R13,2*%
%TO.N,/GND_LOAD_RETURN*%
X73000000Y-83087500D03*
%TD*%
D10*
%TO.P,C12,1*%
%TO.N,/+3V3*%
X50500000Y-90350000D03*
%TO.P,C12,2*%
%TO.N,/GND_LOGIC*%
X50500000Y-88450000D03*
%TD*%
%TO.P,C14,1*%
%TO.N,/SENSE_IN*%
X78000000Y-84950000D03*
%TO.P,C14,2*%
%TO.N,/GND_LOAD_RETURN*%
X78000000Y-83050000D03*
%TD*%
%TO.P,C16,1*%
%TO.N,/+3V3*%
X53000000Y-78950000D03*
%TO.P,C16,2*%
%TO.N,/GND_LOGIC*%
X53000000Y-77050000D03*
%TD*%
D14*
%TO.P,R2,1*%
%TO.N,/EN_A*%
X51000000Y-44912500D03*
%TO.P,R2,2*%
%TO.N,/GND_LOGIC*%
X51000000Y-43087500D03*
%TD*%
D11*
%TO.P,R3,1*%
%TO.N,/EN*%
X42087500Y-57000000D03*
%TO.P,R3,2*%
%TO.N,/EN_B*%
X43912500Y-57000000D03*
%TD*%
D19*
%TO.P,C3,1*%
%TO.N,/RAIL_IN*%
X75050000Y-34000000D03*
%TO.P,C3,2*%
%TO.N,/MCAP_1*%
X76950000Y-34000000D03*
%TD*%
D21*
%TO.P,J1,1*%
%TO.N,/+3V3*%
X29000000Y-40000000D03*
D22*
%TO.P,J1,2*%
%TO.N,/GND_LOGIC*%
X29000000Y-42540000D03*
%TO.P,J1,3*%
%TO.N,/EN*%
X29000000Y-45080000D03*
%TO.P,J1,4*%
%TO.N,/VOUT_P*%
X29000000Y-47620000D03*
%TO.P,J1,5*%
%TO.N,/VOUT_N*%
X29000000Y-50160000D03*
%TO.P,J1,6*%
%TO.N,/GND_LOGIC*%
X29000000Y-52700000D03*
%TO.P,J1,7*%
%TO.N,unconnected-(J1-Pin_7-Pad7)*%
X29000000Y-55240000D03*
%TO.P,J1,8*%
%TO.N,/IOUT_ADC*%
X29000000Y-57780000D03*
%TO.P,J1,9*%
%TO.N,/DIAG_N*%
X29000000Y-60320000D03*
%TO.P,J1,10*%
%TO.N,/GND_LOGIC*%
X29000000Y-62860000D03*
%TD*%
D11*
%TO.P,R12,1*%
%TO.N,/DIV_2*%
X91087500Y-85000000D03*
%TO.P,R12,2*%
%TO.N,/SENSE_IN*%
X92912500Y-85000000D03*
%TD*%
D10*
%TO.P,C13,1*%
%TO.N,/AMC_LLDO*%
X55500000Y-95450000D03*
%TO.P,C13,2*%
%TO.N,/GND_LOGIC*%
X55500000Y-93550000D03*
%TD*%
%TO.P,C8,1*%
%TO.N,/AMC_HLDO*%
X78000000Y-90350000D03*
%TO.P,C8,2*%
%TO.N,/GND_LOAD_RETURN*%
X78000000Y-88450000D03*
%TD*%
D14*
%TO.P,R4,1*%
%TO.N,/EN_B*%
X51000000Y-62912500D03*
%TO.P,R4,2*%
%TO.N,/GND_LOGIC*%
X51000000Y-61087500D03*
%TD*%
%TO.P,R14,1*%
%TO.N,/+3V3*%
X50000000Y-96912500D03*
%TO.P,R14,2*%
%TO.N,/DIAG_N*%
X50000000Y-95087500D03*
%TD*%
D10*
%TO.P,C18,1*%
%TO.N,/IOUT_ADC*%
X39000000Y-68950000D03*
%TO.P,C18,2*%
%TO.N,/GND_LOGIC*%
X39000000Y-67050000D03*
%TD*%
D14*
%TO.P,R6,1*%
%TO.N,/TT_2*%
X56000000Y-58912500D03*
%TO.P,R6,2*%
%TO.N,/GND_LOGIC*%
X56000000Y-57087500D03*
%TD*%
D10*
%TO.P,C19,1*%
%TO.N,/AMC_HRAW*%
X82000000Y-95450000D03*
%TO.P,C19,2*%
%TO.N,/GND_LOAD_RETURN*%
X82000000Y-93550000D03*
%TD*%
D11*
%TO.P,R10,1*%
%TO.N,/RAIL_OUT*%
X103087500Y-85000000D03*
%TO.P,R10,2*%
%TO.N,/DIV_1*%
X104912500Y-85000000D03*
%TD*%
D23*
%TO.N,/+3V3*%
X60000000Y-81000000D03*
X54800000Y-40600000D03*
X56000000Y-90000000D03*
X52800000Y-90400000D03*
X61400000Y-75000000D03*
X57800000Y-89400000D03*
X57200000Y-34800000D03*
X61400000Y-56000000D03*
%TO.N,/AMC_LLDO*%
X57800000Y-94400000D03*
X57800000Y-90600000D03*
X55600000Y-95400000D03*
%TO.N,/DIAG_N*%
X57800000Y-92000000D03*
X34400000Y-66800000D03*
X31800000Y-60600000D03*
X50000000Y-95000000D03*
%TO.N,/EN_A*%
X51000000Y-45000000D03*
X59400000Y-37800000D03*
%TO.N,/EN_B*%
X59400000Y-57800000D03*
X44000000Y-57000000D03*
X50600000Y-62600000D03*
%TO.N,/GATE_1*%
X66599999Y-36000000D03*
%TO.N,/GND_LOAD_RETURN*%
X72800000Y-92000000D03*
X72800000Y-88400000D03*
X78000000Y-86800000D03*
X78000000Y-83000000D03*
%TO.N,/GND_LOGIC*%
X55600000Y-93200000D03*
X57800000Y-77000000D03*
X57800000Y-85600000D03*
X56400000Y-86600000D03*
X57800000Y-93200000D03*
%TO.N,/IOUT_ADC*%
X33400000Y-64000000D03*
X59200000Y-73000000D03*
X39000000Y-69000000D03*
%TO.N,/I_FILTER*%
X56000000Y-71000000D03*
X59200000Y-71400000D03*
%TO.N,/RAIL_OUT*%
X68600000Y-70800000D03*
X103000000Y-68000000D03*
%TO.N,/SOURCE_FLOAT*%
X91000000Y-41000000D03*
X81000000Y-54600000D03*
%TO.N,/SWITCHED_PRE*%
X74800000Y-55400000D03*
X80000000Y-61600000D03*
%TO.N,/TT_1*%
X58200000Y-36800000D03*
X56000000Y-39000000D03*
%TO.N,/TT_2*%
X56000000Y-59000000D03*
X59400000Y-56400000D03*
%TO.N,/VOUT_N*%
X41400000Y-66599999D03*
X31800000Y-57000000D03*
X57800000Y-86800000D03*
X45800000Y-71000000D03*
%TO.N,/VOUT_P*%
X57800000Y-88000000D03*
%TD*%
%TO.N,/+3V3*%
D24*
X50000000Y-97000000D02*
X50200000Y-96800000D01*
X51400000Y-96200000D02*
X51400000Y-90400000D01*
X51000000Y-96200000D02*
X51400000Y-96200000D01*
X60000000Y-81000000D02*
X58000000Y-79000000D01*
X61000000Y-36000000D02*
X59000000Y-34000000D01*
X60600000Y-77000000D02*
X60600000Y-75800000D01*
X59000000Y-34000000D02*
X58000000Y-34000000D01*
X50000000Y-96912500D02*
X50000000Y-97000000D01*
X59400000Y-45200000D02*
X54800000Y-40600000D01*
X58400000Y-53800000D02*
X59000000Y-53200000D01*
X61600000Y-56000000D02*
X61600000Y-55400000D01*
X55500000Y-90350000D02*
X55600000Y-90400000D01*
X58200000Y-53800000D02*
X58400000Y-53800000D01*
X58000000Y-34000000D02*
X57200000Y-34800000D01*
X59350000Y-89365000D02*
X59400000Y-89400000D01*
X50500000Y-90350000D02*
X50400000Y-90400000D01*
X61525000Y-36095000D02*
X61600000Y-36000000D01*
X58000000Y-33950000D02*
X58000000Y-34000000D01*
X59000000Y-78200000D02*
X59400000Y-78200000D01*
X59400000Y-78200000D02*
X60600000Y-77000000D01*
X59400000Y-53200000D02*
X59400000Y-45200000D01*
X58000000Y-54000000D02*
X58200000Y-53800000D01*
X59000000Y-53200000D02*
X59400000Y-53200000D01*
X61400000Y-56000000D02*
X61600000Y-56000000D01*
X61525000Y-74905000D02*
X61600000Y-75000000D01*
X50200000Y-96800000D02*
X50400000Y-96800000D01*
X58000000Y-53950000D02*
X58000000Y-54000000D01*
X61600000Y-55400000D02*
X59400000Y-53200000D01*
X55600000Y-90400000D02*
X56000000Y-90000000D01*
X59350000Y-89365000D02*
X57800000Y-89400000D01*
X61600000Y-75000000D02*
X61400000Y-75000000D01*
X53000000Y-78950000D02*
X53000000Y-79000000D01*
X50400000Y-90400000D02*
X52800000Y-90400000D01*
X58200000Y-78800000D02*
X58400000Y-78800000D01*
X61525000Y-56095000D02*
X61600000Y-56000000D01*
X50400000Y-96800000D02*
X51000000Y-96200000D01*
X58000000Y-79000000D02*
X58200000Y-78800000D01*
X53000000Y-79000000D02*
X58000000Y-79000000D01*
X58000000Y-78950000D02*
X58000000Y-79000000D01*
X61600000Y-36000000D02*
X61000000Y-36000000D01*
X58400000Y-78800000D02*
X59000000Y-78200000D01*
X60600000Y-75800000D02*
X61400000Y-75000000D01*
%TO.N,/AMC_HLDO*%
X68650000Y-89365000D02*
X68600000Y-89400000D01*
X72700000Y-90350000D02*
X72800000Y-90400000D01*
X68800000Y-89600000D02*
X70400000Y-89600000D01*
X78000000Y-90350000D02*
X78000000Y-90400000D01*
X70400000Y-89600000D02*
X71200000Y-90400000D01*
X68600000Y-89400000D02*
X68800000Y-89600000D01*
X71200000Y-90400000D02*
X72800000Y-90400000D01*
X78000000Y-90400000D02*
X72800000Y-90400000D01*
%TO.N,/AMC_HRAW*%
X77000000Y-95450000D02*
X77000000Y-95400000D01*
X72700000Y-95450000D02*
X72800000Y-95400000D01*
X68800000Y-92200000D02*
X70400000Y-92200000D01*
X68650000Y-94445000D02*
X68600000Y-94400000D01*
X68650000Y-91905000D02*
X68600000Y-92000000D01*
X68600000Y-94400000D02*
X69600000Y-95400000D01*
X72800000Y-95400000D02*
X77000000Y-95400000D01*
X69600000Y-95400000D02*
X72800000Y-95400000D01*
X77000000Y-95400000D02*
X82000000Y-95400000D01*
X82000000Y-95450000D02*
X82000000Y-95400000D01*
X68600000Y-92000000D02*
X68800000Y-92200000D01*
X70400000Y-92200000D02*
X70400000Y-95400000D01*
%TO.N,/AMC_LLDO*%
X59350000Y-90635000D02*
X59400000Y-90600000D01*
X59350000Y-94445000D02*
X59400000Y-94400000D01*
X55500000Y-95450000D02*
X55600000Y-95400000D01*
X59350000Y-90635000D02*
X57800000Y-90600000D01*
X59350000Y-94445000D02*
X57800000Y-94400000D01*
%TO.N,/DIAG_N*%
X50000000Y-95000000D02*
X39800000Y-84800000D01*
X29000000Y-60320000D02*
X29000000Y-60400000D01*
X31600000Y-60400000D02*
X29000000Y-60400000D01*
X34400000Y-68200000D02*
X34400000Y-66800000D01*
X31800000Y-60600000D02*
X31600000Y-60400000D01*
X59350000Y-91905000D02*
X59400000Y-92000000D01*
X39800000Y-73600000D02*
X34400000Y-68200000D01*
X59350000Y-91905000D02*
X57800000Y-92000000D01*
X39800000Y-84800000D02*
X39800000Y-73600000D01*
X50000000Y-95087500D02*
X50000000Y-95000000D01*
%TO.N,/DIV_1*%
X104912500Y-85000000D02*
X105000000Y-85000000D01*
X97087500Y-85000000D02*
X97000000Y-85000000D01*
X105000000Y-86800000D02*
X105000000Y-85000000D01*
X97000000Y-85000000D02*
X97200000Y-85200000D01*
X97200000Y-85200000D02*
X97200000Y-87000000D01*
X104800000Y-87000000D02*
X105000000Y-86800000D01*
X97200000Y-87000000D02*
X104800000Y-87000000D01*
%TO.N,/DIV_2*%
X98912500Y-85000000D02*
X99000000Y-85000000D01*
X91200000Y-83000000D02*
X98800000Y-83000000D01*
X91087500Y-85000000D02*
X91000000Y-85000000D01*
X98800000Y-83000000D02*
X99000000Y-83200000D01*
X91000000Y-85000000D02*
X91200000Y-84800000D01*
X99000000Y-83200000D02*
X99000000Y-85000000D01*
X91200000Y-84800000D02*
X91200000Y-83000000D01*
%TO.N,/EN*%
X29000000Y-45080000D02*
X29000000Y-45000000D01*
X42087500Y-43000000D02*
X42000000Y-43000000D01*
X42087500Y-57000000D02*
X42000000Y-57000000D01*
X40800000Y-54200000D02*
X40800000Y-45800000D01*
X42000000Y-57000000D02*
X42000000Y-55400000D01*
X40800000Y-45800000D02*
X40000000Y-45000000D01*
X40000000Y-45000000D02*
X29000000Y-45000000D01*
X42000000Y-55400000D02*
X40800000Y-54200000D01*
X42000000Y-43000000D02*
X40000000Y-45000000D01*
%TO.N,/EN_A*%
X50200000Y-44200000D02*
X49600000Y-44200000D01*
X43912500Y-43000000D02*
X44000000Y-43000000D01*
X49600000Y-44200000D02*
X48400000Y-43000000D01*
X59400000Y-38000000D02*
X59400000Y-37800000D01*
X51000000Y-44912500D02*
X51000000Y-45000000D01*
X51000000Y-45000000D02*
X50200000Y-44200000D01*
X61525000Y-38635000D02*
X61600000Y-38600000D01*
X61600000Y-38600000D02*
X60000000Y-38600000D01*
X48400000Y-43000000D02*
X44000000Y-43000000D01*
X60000000Y-38600000D02*
X59400000Y-38000000D01*
%TO.N,/EN_B*%
X59400000Y-58000000D02*
X59400000Y-57800000D01*
X43912500Y-57000000D02*
X44000000Y-57000000D01*
X60000000Y-58600000D02*
X59400000Y-58000000D01*
X61525000Y-58635000D02*
X61600000Y-58600000D01*
X61600000Y-58600000D02*
X60000000Y-58600000D01*
X51000000Y-62912500D02*
X51000000Y-63000000D01*
X51000000Y-63000000D02*
X50600000Y-62600000D01*
%TO.N,/GATE_1*%
X66400000Y-36000000D02*
X66599999Y-36000000D01*
X66474999Y-36095000D02*
X66400000Y-36000000D01*
%TO.N,/GATE_2*%
X76800000Y-53000000D02*
X77400000Y-53600000D01*
X66474999Y-56095000D02*
X66400000Y-56000000D01*
X86000000Y-56200000D02*
X86000000Y-58000000D01*
X77400000Y-53600000D02*
X78200000Y-53600000D01*
X85600000Y-55800000D02*
X86000000Y-56200000D01*
X73400000Y-53000000D02*
X76800000Y-53000000D01*
X66400000Y-56000000D02*
X67000000Y-56000000D01*
X80400000Y-55800000D02*
X85600000Y-55800000D01*
X67000000Y-56000000D02*
X69000000Y-54000000D01*
X69000000Y-54000000D02*
X71800000Y-54000000D01*
X71800000Y-54000000D02*
X72000000Y-53800000D01*
X78200000Y-53600000D02*
X80400000Y-55800000D01*
X72000000Y-53800000D02*
X72600000Y-53800000D01*
X72600000Y-53800000D02*
X73400000Y-53000000D01*
%TO.N,/GND_LOAD_RETURN*%
X77000000Y-93600000D02*
X72800000Y-93600000D01*
X72800000Y-88400000D02*
X78000000Y-88400000D01*
X68650000Y-86825000D02*
X68600000Y-86800000D01*
X82000000Y-93600000D02*
X77000000Y-93600000D01*
X72700000Y-93550000D02*
X72800000Y-93600000D01*
X71200000Y-91600000D02*
X72400000Y-91600000D01*
X67000000Y-91000000D02*
X70600000Y-91000000D01*
D25*
X114000000Y-28380000D02*
X114000000Y-28400000D01*
X116400000Y-48400000D02*
X116400000Y-39200000D01*
D24*
X78000000Y-83050000D02*
X78000000Y-83000000D01*
X68650000Y-93175000D02*
X68600000Y-93200000D01*
X68650000Y-85555000D02*
X68600000Y-85600000D01*
X68600000Y-86800000D02*
X67400000Y-86800000D01*
D25*
X116000000Y-55000000D02*
X116200000Y-54800000D01*
D24*
X100600000Y-60400000D02*
X114000000Y-60400000D01*
X68600000Y-85600000D02*
X68600000Y-86800000D01*
D25*
X116200000Y-48600000D02*
X116400000Y-48400000D01*
D24*
X78000000Y-83000000D02*
X100600000Y-60400000D01*
D25*
X114000000Y-60400000D02*
X114000000Y-59800000D01*
X114000000Y-59800000D02*
X116000000Y-57800000D01*
D24*
X78000000Y-88450000D02*
X78000000Y-88400000D01*
X68650000Y-90635000D02*
X68600000Y-90600000D01*
X72700000Y-88450000D02*
X72800000Y-88400000D01*
X70600000Y-91000000D02*
X71200000Y-91600000D01*
D25*
X116200000Y-54800000D02*
X116200000Y-48600000D01*
D24*
X72800000Y-93600000D02*
X72800000Y-92000000D01*
X73000000Y-83087500D02*
X73000000Y-83000000D01*
D25*
X116400000Y-39200000D02*
X116800000Y-38800000D01*
D24*
X77000000Y-93550000D02*
X77000000Y-93600000D01*
X67400000Y-86800000D02*
X67000000Y-87200000D01*
X68600000Y-90600000D02*
X68600000Y-91000000D01*
X68600000Y-93200000D02*
X67400000Y-93200000D01*
D25*
X114000000Y-30400000D02*
X114000000Y-28400000D01*
D24*
X67400000Y-93200000D02*
X67000000Y-92800000D01*
X67000000Y-92800000D02*
X67000000Y-91000000D01*
X82000000Y-93550000D02*
X82000000Y-93600000D01*
D25*
X116800000Y-38800000D02*
X116800000Y-33200000D01*
D24*
X72400000Y-91600000D02*
X72800000Y-92000000D01*
D25*
X116000000Y-57800000D02*
X116000000Y-55000000D01*
D24*
X73000000Y-83000000D02*
X78000000Y-83000000D01*
X67000000Y-87200000D02*
X67000000Y-91000000D01*
X78000000Y-88400000D02*
X78000000Y-86800000D01*
D25*
X114000000Y-60380000D02*
X114000000Y-60400000D01*
X116800000Y-33200000D02*
X114000000Y-30400000D01*
%TO.N,/GND_LOGIC*%
D24*
X59350000Y-93175000D02*
X59400000Y-93200000D01*
X55600000Y-87400000D02*
X56400000Y-86600000D01*
X61600000Y-71000000D02*
X61600000Y-60000000D01*
X53400000Y-39000000D02*
X53400000Y-41200000D01*
X57400000Y-52000000D02*
X56000000Y-53400000D01*
X29000000Y-42540000D02*
X29000000Y-42600000D01*
X27400000Y-53800000D02*
X27400000Y-61800000D01*
X53800000Y-48000000D02*
X53800000Y-48400000D01*
X28800000Y-53000000D02*
X28600000Y-53000000D01*
X29000000Y-62860000D02*
X29000000Y-62800000D01*
X58000000Y-52000000D02*
X57400000Y-52000000D01*
X59350000Y-93175000D02*
X57800000Y-93200000D01*
X51000000Y-43000000D02*
X51600000Y-43000000D01*
X45400000Y-63200000D02*
X42800000Y-63200000D01*
X56000000Y-57087500D02*
X56000000Y-57000000D01*
X39000000Y-67050000D02*
X39000000Y-67000000D01*
X58800000Y-38800000D02*
X58400000Y-38800000D01*
X51000000Y-43087500D02*
X51000000Y-43000000D01*
X53000000Y-77000000D02*
X58000000Y-77000000D01*
X27800000Y-53800000D02*
X27400000Y-53800000D01*
X51000000Y-61087500D02*
X51000000Y-61000000D01*
X58000000Y-32000000D02*
X57800000Y-32200000D01*
X57400000Y-37800000D02*
X56800000Y-37800000D01*
X29000000Y-52700000D02*
X29000000Y-52800000D01*
X53400000Y-59000000D02*
X53000000Y-59000000D01*
X53600000Y-47800000D02*
X53800000Y-48000000D01*
X53600000Y-45000000D02*
X53600000Y-47800000D01*
X61525000Y-39905000D02*
X61600000Y-40000000D01*
X56600000Y-32799999D02*
X56600000Y-33400000D01*
X48400000Y-63000000D02*
X45600000Y-63000000D01*
X61600000Y-60000000D02*
X60000000Y-60000000D01*
X59350000Y-85555000D02*
X57800000Y-85600000D01*
X28400000Y-62800000D02*
X29000000Y-62800000D01*
X56000000Y-69050000D02*
X56000000Y-69000000D01*
X50400000Y-61000000D02*
X48400000Y-63000000D01*
X28800000Y-42800000D02*
X28600000Y-42800000D01*
X55000000Y-37800000D02*
X54600000Y-37800000D01*
X57400000Y-57800000D02*
X56800000Y-57800000D01*
X56000000Y-37087500D02*
X56000000Y-37000000D01*
X58400000Y-58800000D02*
X57400000Y-57800000D01*
X27400000Y-43600000D02*
X27400000Y-51800000D01*
X53800000Y-48400000D02*
X57400000Y-52000000D01*
X57000000Y-32799999D02*
X56600000Y-32799999D01*
X56000000Y-69000000D02*
X61600000Y-69000000D01*
X59350000Y-85555000D02*
X59400000Y-85600000D01*
X56600000Y-33400000D02*
X56000000Y-34000000D01*
X54600000Y-37800000D02*
X53400000Y-39000000D01*
X54000000Y-91600000D02*
X54000000Y-88400000D01*
X51000000Y-61000000D02*
X50400000Y-61000000D01*
X28600000Y-53000000D02*
X27800000Y-53800000D01*
X60000000Y-40000000D02*
X58800000Y-38800000D01*
X39000000Y-67000000D02*
X34800000Y-62800000D01*
X51600000Y-43000000D02*
X53600000Y-45000000D01*
X50500000Y-88450000D02*
X50400000Y-88400000D01*
X56000000Y-34000000D02*
X56000000Y-37000000D01*
X55600000Y-88400000D02*
X55600000Y-87400000D01*
X28600000Y-42800000D02*
X27800000Y-43600000D01*
X56000000Y-37000000D02*
X55800000Y-37200000D01*
X27400000Y-61800000D02*
X28400000Y-62800000D01*
X56000000Y-53400000D02*
X56000000Y-57000000D01*
X34800000Y-62800000D02*
X29000000Y-62800000D01*
X55800000Y-37200000D02*
X55600000Y-37200000D01*
X55500000Y-93550000D02*
X55600000Y-93600000D01*
X29000000Y-42600000D02*
X28800000Y-42800000D01*
X58000000Y-77050000D02*
X58000000Y-77000000D01*
X58800000Y-58800000D02*
X58400000Y-58800000D01*
X57600000Y-32200000D02*
X57000000Y-32799999D01*
X45600000Y-63000000D02*
X45400000Y-63200000D01*
X58000000Y-77000000D02*
X58000000Y-69000000D01*
X58000000Y-52050000D02*
X58000000Y-52000000D01*
X55500000Y-88450000D02*
X55600000Y-88400000D01*
X53000000Y-77050000D02*
X53000000Y-77000000D01*
X53000000Y-59000000D02*
X51000000Y-61000000D01*
X61525000Y-71095000D02*
X61600000Y-71000000D01*
X56800000Y-57800000D02*
X56000000Y-57000000D01*
X42800000Y-63200000D02*
X39000000Y-67000000D01*
X55600000Y-93200000D02*
X54000000Y-91600000D01*
X56000000Y-57000000D02*
X55400000Y-57000000D01*
X27400000Y-51800000D02*
X28600000Y-53000000D01*
X61525000Y-59905000D02*
X61600000Y-60000000D01*
X55400000Y-57000000D02*
X53400000Y-59000000D01*
X55600000Y-93600000D02*
X55600000Y-93200000D01*
X50400000Y-88400000D02*
X55600000Y-88400000D01*
X58000000Y-32049999D02*
X58000000Y-32000000D01*
X57800000Y-32200000D02*
X57600000Y-32200000D01*
X27800000Y-43600000D02*
X27400000Y-43600000D01*
X58400000Y-38800000D02*
X57400000Y-37800000D01*
X56800000Y-37800000D02*
X56000000Y-37000000D01*
X53400000Y-41200000D02*
X51600000Y-43000000D01*
X29000000Y-52800000D02*
X28800000Y-53000000D01*
X55600000Y-37200000D02*
X55000000Y-37800000D01*
X60000000Y-60000000D02*
X58800000Y-58800000D01*
X61600000Y-40000000D02*
X60000000Y-40000000D01*
%TO.N,/IOUT_ADC*%
X61600000Y-73600000D02*
X61400000Y-73400000D01*
X61525000Y-73635000D02*
X61600000Y-73600000D01*
X29000000Y-57800000D02*
X29000000Y-57780000D01*
X29000000Y-57780000D02*
X29000000Y-57800000D01*
X39000000Y-68950000D02*
X39000000Y-69000000D01*
X39000000Y-69000000D02*
X38200000Y-68200000D01*
X37600000Y-68200000D02*
X33400000Y-64000000D01*
X59400000Y-73000000D02*
X59200000Y-73000000D01*
X38200000Y-68200000D02*
X37600000Y-68200000D01*
X59800000Y-73400000D02*
X59400000Y-73000000D01*
X61400000Y-73400000D02*
X59800000Y-73400000D01*
%TO.N,/I_FILTER*%
X61525000Y-72365000D02*
X61600000Y-72400000D01*
X61600000Y-72400000D02*
X61400000Y-72200000D01*
X61000000Y-72000000D02*
X59800000Y-72000000D01*
X56000000Y-70950000D02*
X56000000Y-71000000D01*
X59800000Y-72000000D02*
X59200000Y-71400000D01*
X61400000Y-72200000D02*
X61200000Y-72200000D01*
X61200000Y-72200000D02*
X61000000Y-72000000D01*
%TO.N,/MCAP_1*%
X66599999Y-37200000D02*
X68200000Y-37200000D01*
X77000000Y-35800000D02*
X77000000Y-34000000D01*
X68200000Y-37200000D02*
X69400000Y-36000000D01*
X66400000Y-37400000D02*
X66599999Y-37200000D01*
X69400000Y-36000000D02*
X76800000Y-36000000D01*
X76950000Y-34000000D02*
X77000000Y-34000000D01*
X76800000Y-36000000D02*
X77000000Y-35800000D01*
X66474999Y-37365000D02*
X66400000Y-37400000D01*
%TO.N,/MCAP_2*%
X77000000Y-56800000D02*
X77000000Y-55000000D01*
X68200000Y-57200000D02*
X68400000Y-57000000D01*
X76950000Y-55000000D02*
X77000000Y-55000000D01*
X68400000Y-57000000D02*
X76800000Y-57000000D01*
X76800000Y-57000000D02*
X77000000Y-56800000D01*
X66474999Y-57365000D02*
X66400000Y-57400000D01*
X66400000Y-57400000D02*
X66599999Y-57200000D01*
X66599999Y-57200000D02*
X68200000Y-57200000D01*
%TO.N,/RAIL_IN*%
D25*
X88600000Y-38000000D02*
X88600000Y-35400000D01*
D24*
X75200000Y-33800000D02*
X75200000Y-32000000D01*
D25*
X94000000Y-36000000D02*
X114000000Y-36000000D01*
D24*
X78600000Y-32000000D02*
X82000000Y-35400000D01*
D25*
X88600000Y-35400000D02*
X93400000Y-35400000D01*
D24*
X75200000Y-32000000D02*
X78600000Y-32000000D01*
D25*
X93400000Y-35400000D02*
X94000000Y-36000000D01*
D24*
X82000000Y-35400000D02*
X88600000Y-35400000D01*
X75000000Y-34000000D02*
X75200000Y-33800000D01*
D25*
X88540000Y-38000000D02*
X88600000Y-38000000D01*
D24*
X75050000Y-34000000D02*
X75000000Y-34000000D01*
%TO.N,/RAIL_OUT*%
D26*
X66400000Y-72400000D02*
X66400000Y-71000000D01*
X66400000Y-71000000D02*
X66599999Y-70800000D01*
D24*
X103087500Y-85000000D02*
X103000000Y-85000000D01*
X103000000Y-85000000D02*
X103000000Y-68000000D01*
D26*
X66599999Y-70800000D02*
X68600000Y-70800000D01*
X66474999Y-71095000D02*
X66400000Y-71000000D01*
X66474999Y-72365000D02*
X66400000Y-72400000D01*
%TO.N,/SENSE_IN*%
D24*
X93000000Y-85000000D02*
X92800000Y-85200000D01*
X78000000Y-84950000D02*
X78000000Y-85000000D01*
X92800000Y-87000000D02*
X80000000Y-87000000D01*
X68650000Y-88095000D02*
X68600000Y-88000000D01*
X73000000Y-85000000D02*
X78000000Y-85000000D01*
X70400000Y-87800000D02*
X73000000Y-85200000D01*
X68800000Y-87800000D02*
X70400000Y-87800000D01*
X68600000Y-88000000D02*
X68800000Y-87800000D01*
X92800000Y-85200000D02*
X92800000Y-87000000D01*
X80000000Y-87000000D02*
X78000000Y-85000000D01*
X92912500Y-85000000D02*
X93000000Y-85000000D01*
X73000000Y-84912500D02*
X73000000Y-85000000D01*
X73000000Y-85200000D02*
X73000000Y-85000000D01*
%TO.N,/SOURCE_FLOAT*%
X80200000Y-58000000D02*
X80600000Y-57600000D01*
D25*
X80920000Y-58000000D02*
X81000000Y-58000000D01*
X91000000Y-41000000D02*
X91000000Y-38000000D01*
D24*
X66400000Y-40000000D02*
X81000000Y-54600000D01*
X80600000Y-57600000D02*
X80920000Y-58000000D01*
X66474999Y-59905000D02*
X66400000Y-60000000D01*
X68200000Y-59600000D02*
X69800000Y-58000000D01*
D25*
X81000000Y-58000000D02*
X80600000Y-57600000D01*
D24*
X66400000Y-60000000D02*
X66800000Y-59600000D01*
X69800000Y-58000000D02*
X80200000Y-58000000D01*
X66800000Y-59600000D02*
X68200000Y-59600000D01*
X66474999Y-39905000D02*
X66400000Y-40000000D01*
D25*
X91080000Y-38000000D02*
X91000000Y-38000000D01*
%TO.N,/SWITCHED_PRE*%
D26*
X66474999Y-74905000D02*
X66400000Y-75000000D01*
X66474999Y-73635000D02*
X66400000Y-73600000D01*
D24*
X75000000Y-55200000D02*
X74800000Y-55400000D01*
X75050000Y-55000000D02*
X75000000Y-55000000D01*
D26*
X83400000Y-60200000D02*
X83400000Y-58000000D01*
X66400000Y-73600000D02*
X68400000Y-73600000D01*
X81600000Y-60400000D02*
X83200000Y-60400000D01*
D24*
X80000000Y-61600000D02*
X80200000Y-61800000D01*
D26*
X83200000Y-60400000D02*
X83400000Y-60200000D01*
X66400000Y-75000000D02*
X66400000Y-73600000D01*
X68400000Y-73600000D02*
X81600000Y-60400000D01*
D25*
X83460000Y-58000000D02*
X83400000Y-58000000D01*
D24*
X75000000Y-55000000D02*
X75000000Y-55200000D01*
%TO.N,/TT_1*%
X60600000Y-37400000D02*
X60200000Y-37000000D01*
X59800000Y-36800000D02*
X58200000Y-36800000D01*
X56000000Y-38912500D02*
X56000000Y-39000000D01*
X61600000Y-37400000D02*
X60600000Y-37400000D01*
X60200000Y-37000000D02*
X59800000Y-37000000D01*
X59800000Y-37000000D02*
X59800000Y-36800000D01*
X61525000Y-37365000D02*
X61600000Y-37400000D01*
%TO.N,/TT_2*%
X61600000Y-57400000D02*
X60600000Y-57400000D01*
X59800000Y-57000000D02*
X59800000Y-56800000D01*
X60200000Y-57000000D02*
X59800000Y-57000000D01*
X59800000Y-56800000D02*
X59400000Y-56400000D01*
X61525000Y-57365000D02*
X61600000Y-57400000D01*
X60600000Y-57400000D02*
X60200000Y-57000000D01*
X56000000Y-58912500D02*
X56000000Y-59000000D01*
%TO.N,/VOUT_N*%
X30600000Y-55800000D02*
X30600000Y-51200000D01*
X30600000Y-51200000D02*
X29600000Y-50200000D01*
X59350000Y-86825000D02*
X57800000Y-86800000D01*
X59350000Y-86825000D02*
X59400000Y-86800000D01*
X29000000Y-50160000D02*
X29000000Y-50200000D01*
X45800000Y-71000000D02*
X41400000Y-66599999D01*
X29600000Y-50200000D02*
X29000000Y-50200000D01*
X31800000Y-57000000D02*
X30600000Y-55800000D01*
%TO.N,/VOUT_P*%
X59350000Y-88095000D02*
X59400000Y-88000000D01*
X29000000Y-47600000D02*
X29000000Y-47620000D01*
X59350000Y-88095000D02*
X57800000Y-88000000D01*
X29000000Y-47620000D02*
X29000000Y-47600000D01*
%TD*%
M02*
