%TF.GenerationSoftware,KiCad,Pcbnew,10.0.0*%
%TF.CreationDate,2026-09-05T09:10:18-05:00*%
%TF.ProjectId,SI8751AB-IS_devboard,53493837-3531-4414-922d-49535f646576,rev?*%
%TF.SameCoordinates,Original*%
%TF.FileFunction,Copper,L2,Bot*%
%TF.FilePolarity,Positive*%
%FSLAX46Y46*%
G04 Gerber Fmt 4.6, Leading zero omitted, Abs format (unit mm)*
G04 Created by KiCad (PCBNEW 10.0.0) date 2026-09-05 09:10:18*
%MOMM*%
%LPD*%
G01*
G04 APERTURE LIST*
%TA.AperFunction,ComponentPad*%
%ADD10R,2.540000X2.540000*%
%TD*%
%TA.AperFunction,ComponentPad*%
%ADD11C,2.540000*%
%TD*%
%TA.AperFunction,ComponentPad*%
%ADD12R,1.650000X1.905000*%
%TD*%
%TA.AperFunction,ComponentPad*%
%ADD13O,1.650000X1.905000*%
%TD*%
%TA.AperFunction,ComponentPad*%
%ADD14R,1.700000X1.700000*%
%TD*%
%TA.AperFunction,ComponentPad*%
%ADD15C,1.700000*%
%TD*%
%TA.AperFunction,ViaPad*%
%ADD16C,0.700000*%
%TD*%
%TA.AperFunction,Conductor*%
%ADD17C,0.300000*%
%TD*%
%TA.AperFunction,Conductor*%
%ADD18C,0.800000*%
%TD*%
%TA.AperFunction,Conductor*%
%ADD19C,1.000000*%
%TD*%
G04 APERTURE END LIST*
D10*
%TO.P,J2,1*%
%TO.N,/RAIL_IN*%
X114000000Y-36000000D03*
D11*
%TO.P,J2,2*%
%TO.N,/GND_LOAD_RETURN*%
X114000000Y-28380000D03*
%TD*%
D12*
%TO.P,Q2,1*%
%TO.N,/GATE_2*%
X86000000Y-58000000D03*
D13*
%TO.P,Q2,2*%
%TO.N,/SWITCHED_PRE*%
X83460000Y-58000000D03*
%TO.P,Q2,3*%
%TO.N,/SOURCE_FLOAT*%
X80920000Y-58000000D03*
%TD*%
D10*
%TO.P,J3,1*%
%TO.N,/RAIL_OUT*%
X114000000Y-68000000D03*
D11*
%TO.P,J3,2*%
%TO.N,/GND_LOAD_RETURN*%
X114000000Y-60380000D03*
%TD*%
D12*
%TO.P,Q1,1*%
%TO.N,/GATE_1*%
X86000000Y-38000000D03*
D13*
%TO.P,Q1,2*%
%TO.N,/RAIL_IN*%
X88540000Y-38000000D03*
%TO.P,Q1,3*%
%TO.N,/SOURCE_FLOAT*%
X91080000Y-38000000D03*
%TD*%
D14*
%TO.P,J1,1*%
%TO.N,/+3V3*%
X29000000Y-40000000D03*
D15*
%TO.P,J1,2*%
%TO.N,/GND_LOGIC*%
X29000000Y-42540000D03*
%TO.P,J1,3*%
%TO.N,/EN*%
X29000000Y-45080000D03*
%TO.P,J1,4*%
%TO.N,/VOUT_P*%
X29000000Y-47620000D03*
%TO.P,J1,5*%
%TO.N,/VOUT_N*%
X29000000Y-50160000D03*
%TO.P,J1,6*%
%TO.N,/GND_LOGIC*%
X29000000Y-52700000D03*
%TO.P,J1,7*%
%TO.N,unconnected-(J1-Pin_7-Pad7)*%
X29000000Y-55240000D03*
%TO.P,J1,8*%
%TO.N,/IOUT_ADC*%
X29000000Y-57780000D03*
%TO.P,J1,9*%
%TO.N,/DIAG_N*%
X29000000Y-60320000D03*
%TO.P,J1,10*%
%TO.N,/GND_LOGIC*%
X29000000Y-62860000D03*
%TD*%
D16*
%TO.N,/+3V3*%
X60000000Y-81000000D03*
X54800000Y-40600000D03*
X56000000Y-90000000D03*
X52800000Y-90400000D03*
X61400000Y-75000000D03*
X57800000Y-89400000D03*
X57200000Y-34800000D03*
X61400000Y-56000000D03*
%TO.N,/AMC_LLDO*%
X57800000Y-94400000D03*
X57800000Y-90600000D03*
X55600000Y-95400000D03*
%TO.N,/DIAG_N*%
X57800000Y-92000000D03*
X34400000Y-66800000D03*
X31800000Y-60600000D03*
X50000000Y-95000000D03*
%TO.N,/EN_A*%
X51000000Y-45000000D03*
X59400000Y-37800000D03*
%TO.N,/EN_B*%
X59400000Y-57800000D03*
X44000000Y-57000000D03*
X50600000Y-62600000D03*
%TO.N,/GATE_1*%
X66599999Y-36000000D03*
%TO.N,/GND_LOAD_RETURN*%
X72800000Y-92000000D03*
X72800000Y-88400000D03*
X78000000Y-86800000D03*
X78000000Y-83000000D03*
%TO.N,/GND_LOGIC*%
X55600000Y-93200000D03*
X57800000Y-77000000D03*
X57800000Y-85600000D03*
X56400000Y-86600000D03*
X57800000Y-93200000D03*
%TO.N,/IOUT_ADC*%
X33400000Y-64000000D03*
X59200000Y-73000000D03*
X39000000Y-69000000D03*
%TO.N,/I_FILTER*%
X56000000Y-71000000D03*
X59200000Y-71400000D03*
%TO.N,/RAIL_OUT*%
X68600000Y-70800000D03*
X103000000Y-68000000D03*
%TO.N,/SOURCE_FLOAT*%
X91000000Y-41000000D03*
X81000000Y-54600000D03*
%TO.N,/SWITCHED_PRE*%
X74800000Y-55400000D03*
X80000000Y-61600000D03*
%TO.N,/TT_1*%
X58200000Y-36800000D03*
X56000000Y-39000000D03*
%TO.N,/TT_2*%
X56000000Y-59000000D03*
X59400000Y-56400000D03*
%TO.N,/VOUT_N*%
X41400000Y-66599999D03*
X31800000Y-57000000D03*
X57800000Y-86800000D03*
X45800000Y-71000000D03*
%TO.N,/VOUT_P*%
X57800000Y-88000000D03*
%TD*%
%TO.N,/+3V3*%
D17*
X59600000Y-81400000D02*
X60000000Y-81000000D01*
X54800000Y-40600000D02*
X54800000Y-36200000D01*
X59600000Y-86200000D02*
X59600000Y-81400000D01*
X59400000Y-86400000D02*
X59600000Y-86200000D01*
X59400000Y-87000000D02*
X59400000Y-86400000D01*
X56000000Y-90000000D02*
X56600000Y-89400000D01*
X58000000Y-89200000D02*
X58200000Y-89200000D01*
X58600000Y-88800000D02*
X58600000Y-88600000D01*
X58200000Y-89200000D02*
X58600000Y-88800000D01*
X55600000Y-90400000D02*
X56000000Y-90000000D01*
X35800000Y-36200000D02*
X32000000Y-40000000D01*
X57200000Y-34800000D02*
X55800000Y-36200000D01*
X57800000Y-89400000D02*
X58000000Y-89200000D01*
X58600000Y-88600000D02*
X58800000Y-88400000D01*
X52800000Y-90400000D02*
X55600000Y-90400000D01*
X58800000Y-87600000D02*
X59400000Y-87000000D01*
X56600000Y-89400000D02*
X57800000Y-89400000D01*
X61400000Y-75000000D02*
X61400000Y-56000000D01*
X55800000Y-36200000D02*
X35800000Y-36200000D01*
X58800000Y-88400000D02*
X58800000Y-87600000D01*
X32000000Y-40000000D02*
X29000000Y-40000000D01*
%TO.N,/AMC_LLDO*%
X58800000Y-91600000D02*
X58800000Y-93600000D01*
X56400000Y-95200000D02*
X56200000Y-95400000D01*
X57000000Y-94800000D02*
X56600000Y-95200000D01*
X57200000Y-94800000D02*
X57000000Y-94800000D01*
X58600000Y-91200000D02*
X58600000Y-91400000D01*
X58200000Y-94400000D02*
X57800000Y-94400000D01*
X57800000Y-90600000D02*
X58000000Y-90800000D01*
X58800000Y-93600000D02*
X58600000Y-93800000D01*
X58600000Y-91400000D02*
X58800000Y-91600000D01*
X57600000Y-94600000D02*
X57400000Y-94600000D01*
X57400000Y-94600000D02*
X57200000Y-94800000D01*
X58600000Y-93800000D02*
X58600000Y-94000000D01*
X58600000Y-94000000D02*
X58200000Y-94400000D01*
X58200000Y-90800000D02*
X58600000Y-91200000D01*
X56600000Y-95200000D02*
X56400000Y-95200000D01*
X57800000Y-94400000D02*
X57600000Y-94600000D01*
X58000000Y-90800000D02*
X58200000Y-90800000D01*
X56200000Y-95400000D02*
X55600000Y-95400000D01*
%TO.N,/DIAG_N*%
X34200000Y-63400000D02*
X34200000Y-63200000D01*
X34400000Y-63600000D02*
X34200000Y-63400000D01*
X34400000Y-66800000D02*
X34400000Y-63600000D01*
X34200000Y-63200000D02*
X31800000Y-60800000D01*
X52600000Y-92400000D02*
X50000000Y-95000000D01*
X57800000Y-92000000D02*
X55000000Y-92000000D01*
X31800000Y-60800000D02*
X31800000Y-60600000D01*
X55000000Y-92000000D02*
X54600000Y-92400000D01*
X54600000Y-92400000D02*
X52600000Y-92400000D01*
%TO.N,/EN_A*%
X59400000Y-37800000D02*
X54200000Y-43000000D01*
X54200000Y-43000000D02*
X53000000Y-43000000D01*
X53000000Y-43000000D02*
X51000000Y-45000000D01*
%TO.N,/EN_B*%
X55400000Y-57800000D02*
X50600000Y-62600000D01*
X59400000Y-57800000D02*
X55400000Y-57800000D01*
X45000000Y-57000000D02*
X44000000Y-57000000D01*
X50600000Y-62600000D02*
X45000000Y-57000000D01*
%TO.N,/GATE_1*%
X66599999Y-36000000D02*
X68200000Y-37600000D01*
X69800000Y-37800000D02*
X75800000Y-37800000D01*
X69600000Y-37600000D02*
X69800000Y-37800000D01*
X76000000Y-38000000D02*
X86000000Y-38000000D01*
X68200000Y-37600000D02*
X69600000Y-37600000D01*
X75800000Y-37800000D02*
X76000000Y-38000000D01*
%TO.N,/GND_LOAD_RETURN*%
X72800000Y-92000000D02*
X72800000Y-88400000D01*
X78000000Y-86800000D02*
X78000000Y-83000000D01*
%TO.N,/GND_LOGIC*%
X57800000Y-93200000D02*
X55600000Y-93200000D01*
X57800000Y-85600000D02*
X57800000Y-77000000D01*
X56400000Y-86600000D02*
X57400000Y-85600000D01*
X57400000Y-85600000D02*
X57800000Y-85600000D01*
%TO.N,/IOUT_ADC*%
X30600000Y-58800000D02*
X29600000Y-57800000D01*
X58200000Y-72000000D02*
X55600000Y-72000000D01*
X59200000Y-73000000D02*
X58200000Y-72000000D01*
X33400000Y-64000000D02*
X30600000Y-61200000D01*
X39400000Y-69000000D02*
X39000000Y-69000000D01*
X55600000Y-72000000D02*
X55400000Y-71800000D01*
X29000000Y-57800000D02*
X29000000Y-57780000D01*
X40200000Y-69800000D02*
X39400000Y-69000000D01*
X29600000Y-57800000D02*
X29000000Y-57800000D01*
X53200000Y-69800000D02*
X40200000Y-69800000D01*
X55400000Y-71800000D02*
X55200000Y-71800000D01*
X55200000Y-71800000D02*
X53200000Y-69800000D01*
X30600000Y-61200000D02*
X30600000Y-58800000D01*
%TO.N,/I_FILTER*%
X58800000Y-71000000D02*
X56000000Y-71000000D01*
X59200000Y-71400000D02*
X58800000Y-71000000D01*
%TO.N,/RAIL_OUT*%
D18*
X89600000Y-70800000D02*
X92400000Y-68000000D01*
X92400000Y-68000000D02*
X114000000Y-68000000D01*
X68600000Y-70800000D02*
X89600000Y-70800000D01*
%TO.N,/SOURCE_FLOAT*%
D19*
X81000000Y-57200000D02*
X81000000Y-55400000D01*
X81000000Y-55400000D02*
X91000000Y-45400000D01*
D17*
X81000000Y-54600000D02*
X81400000Y-55000000D01*
X80600000Y-57600000D02*
X80920000Y-58000000D01*
D19*
X80600000Y-57600000D02*
X81000000Y-57200000D01*
X91000000Y-45400000D02*
X91000000Y-41000000D01*
%TO.N,/SWITCHED_PRE*%
D17*
X75000000Y-55800000D02*
X75000000Y-56600000D01*
X74800000Y-55400000D02*
X74800000Y-55600000D01*
X75000000Y-56600000D02*
X80000000Y-61600000D01*
X74800000Y-55600000D02*
X75000000Y-55800000D01*
%TO.N,/TT_1*%
X58200000Y-36800000D02*
X56000000Y-39000000D01*
%TO.N,/TT_2*%
X60200000Y-58600000D02*
X59800000Y-59000000D01*
X59400000Y-56400000D02*
X60000000Y-57000000D01*
X60200000Y-57000000D02*
X60200000Y-57200000D01*
X60400000Y-57400000D02*
X60400000Y-58200000D01*
X60400000Y-58200000D02*
X60200000Y-58400000D01*
X60200000Y-57200000D02*
X60400000Y-57400000D01*
X59800000Y-59000000D02*
X56000000Y-59000000D01*
X60000000Y-57000000D02*
X60200000Y-57000000D01*
X60200000Y-58400000D02*
X60200000Y-58600000D01*
%TO.N,/VOUT_N*%
X53800000Y-71600000D02*
X46400000Y-71600000D01*
X57800000Y-86800000D02*
X58000000Y-86600000D01*
X58600000Y-76200000D02*
X54800000Y-72400000D01*
X58000000Y-86600000D02*
X58200000Y-86600000D01*
X58400000Y-86400000D02*
X58600000Y-86400000D01*
X58800000Y-76600000D02*
X58600000Y-76400000D01*
X54800000Y-72400000D02*
X54600000Y-72400000D01*
X58600000Y-86400000D02*
X58600000Y-86200000D01*
X58600000Y-86200000D02*
X58800000Y-86000000D01*
X58600000Y-76400000D02*
X58600000Y-76200000D01*
X58200000Y-86600000D02*
X58400000Y-86400000D01*
X54600000Y-72400000D02*
X53800000Y-71600000D01*
X46400000Y-71600000D02*
X45800000Y-71000000D01*
X58800000Y-86000000D02*
X58800000Y-76600000D01*
X41400000Y-66599999D02*
X31800000Y-57000000D01*
%TO.N,/VOUT_P*%
X35200000Y-63400000D02*
X35000000Y-63200000D01*
X57800000Y-88000000D02*
X57600000Y-87800000D01*
X30600000Y-57600000D02*
X30600000Y-48600000D01*
X57400000Y-87800000D02*
X57200000Y-87600000D01*
X32600000Y-59800000D02*
X31200000Y-58400000D01*
X35200000Y-66200000D02*
X35200000Y-63400000D01*
X31200000Y-58200000D02*
X30600000Y-57600000D01*
X56000000Y-87600000D02*
X55800000Y-87400000D01*
X35400000Y-67200000D02*
X35400000Y-66400000D01*
X34800000Y-62600000D02*
X32799999Y-60600000D01*
X35000000Y-63200000D02*
X35000000Y-63000000D01*
X31200000Y-58400000D02*
X31200000Y-58200000D01*
X30600000Y-48600000D02*
X29600000Y-47600000D01*
X32600000Y-60000000D02*
X32600000Y-59800000D01*
X29000000Y-47600000D02*
X29000000Y-47620000D01*
X57600000Y-87800000D02*
X57400000Y-87800000D01*
X55800000Y-87400000D02*
X55600000Y-87400000D01*
X57200000Y-87600000D02*
X56000000Y-87600000D01*
X29600000Y-47600000D02*
X29000000Y-47600000D01*
X34800000Y-62800000D02*
X34800000Y-62600000D01*
X35400000Y-66400000D02*
X35200000Y-66200000D01*
X35000000Y-63000000D02*
X34800000Y-62800000D01*
X32799999Y-60200000D02*
X32600000Y-60000000D01*
X32799999Y-60600000D02*
X32799999Y-60200000D01*
X55600000Y-87400000D02*
X35400000Y-67200000D01*
%TD*%
M02*
