M48
; DRILL file KiCad 10.0.0 date 2026-07-06T07:34:48
; FORMAT={-:-/ absolute / inch / decimal}
; #@! TF.CreationDate,2026-07-06T07:34:48-05:00
; #@! TF.GenerationSoftware,Kicad,Pcbnew,10.0.0
; #@! TF.FileFunction,Plated,1,4,PTH
FMAT,2
INCH
; #@! TA.AperFunction,Plated,PTH,ViaDrill
T1C0.0118
; #@! TA.AperFunction,Plated,PTH,ComponentDrill
T2C0.0256
; #@! TA.AperFunction,Plated,PTH,ComponentDrill
T3C0.0394
; #@! TA.AperFunction,Plated,PTH,ComponentDrill
T4C0.0453
; #@! TA.AperFunction,Plated,PTH,ComponentDrill
T5C0.0630
; #@! TA.AperFunction,Plated,PTH,ComponentDrill
T6C0.0866
%
G90
G05
T1
X5.705Y-3.07
X5.74Y-3.645
X5.77Y-3.375
X5.805Y-3.07
X5.825Y-3.26
X5.835Y-2.75
X5.85Y-4.07
X5.855Y-2.965
X5.865Y-3.85
X5.91Y-3.87
X5.98Y-3.44
X6.01Y-4.235
X6.183Y-4.277
X6.27Y-4.265
X6.615Y-3.0832
X6.615Y-3.14
X6.625Y-2.99
X6.6386Y-3.21
X6.645Y-2.86
T2
X6.755Y-3.235
X6.755Y-3.285
X6.755Y-3.39
X6.755Y-3.44
X6.755Y-3.49
T3
X5.935Y-2.665
X5.935Y-2.765
X5.935Y-2.865
X5.935Y-2.965
X5.935Y-3.065
X5.935Y-3.165
X5.935Y-3.265
X6.3954Y-3.81
X6.535Y-2.665
X6.535Y-2.765
X6.535Y-2.865
X6.535Y-2.965
X6.535Y-3.065
X6.535Y-3.165
X6.535Y-3.265
X6.6946Y-3.81
T4
X6.245Y-3.46
T5
X6.0309Y-4.725
X6.43Y-4.725
T6
X5.7434Y-4.815
X5.745Y-2.63
X6.7134Y-4.815
X6.715Y-2.63
M30
