%TF.GenerationSoftware,KiCad,Pcbnew,10.0.0*%
%TF.CreationDate,2026-07-06T07:34:48-05:00*%
%TF.ProjectId,OpenLead_Headless_V2,4f70656e-4c65-4616-945f-486561646c65,rev?*%
%TF.SameCoordinates,Original*%
%TF.FileFunction,Copper,L4,Bot*%
%TF.FilePolarity,Positive*%
%FSLAX46Y46*%
G04 Gerber Fmt 4.6, Leading zero omitted, Abs format (unit mm)*
G04 Created by KiCad (PCBNEW 10.0.0) date 2026-07-06 07:34:48*
%MOMM*%
%LPD*%
G01*
G04 APERTURE LIST*
G04 Aperture macros list*
%AMRoundRect*
0 Rectangle with rounded corners*
0 $1 Rounding radius*
0 $2 $3 $4 $5 $6 $7 $8 $9 X,Y pos of 4 corners*
0 Add a 4 corners polygon primitive as box body*
4,1,4,$2,$3,$4,$5,$6,$7,$8,$9,$2,$3,0*
0 Add four circle primitives for the rounded corners*
1,1,$1+$1,$2,$3*
1,1,$1+$1,$4,$5*
1,1,$1+$1,$6,$7*
1,1,$1+$1,$8,$9*
0 Add four rect primitives between the rounded corners*
20,1,$1+$1,$2,$3,$4,$5,0*
20,1,$1+$1,$4,$5,$6,$7,0*
20,1,$1+$1,$6,$7,$8,$9,0*
20,1,$1+$1,$8,$9,$2,$3,0*%
G04 Aperture macros list end*
%TA.AperFunction,ComponentPad*%
%ADD10RoundRect,0.250000X1.050000X-1.050000X1.050000X1.050000X-1.050000X1.050000X-1.050000X-1.050000X0*%
%TD*%
%TA.AperFunction,ComponentPad*%
%ADD11R,2.000000X2.000000*%
%TD*%
%TA.AperFunction,ComponentPad*%
%ADD12C,2.000000*%
%TD*%
%TA.AperFunction,ComponentPad*%
%ADD13R,1.000000X1.000000*%
%TD*%
%TA.AperFunction,ComponentPad*%
%ADD14C,1.000000*%
%TD*%
%TA.AperFunction,ComponentPad*%
%ADD15R,1.700000X1.700000*%
%TD*%
%TA.AperFunction,ComponentPad*%
%ADD16O,1.700000X1.700000*%
%TD*%
%TA.AperFunction,ComponentPad*%
%ADD17C,4.400000*%
%TD*%
%TA.AperFunction,ComponentPad*%
%ADD18RoundRect,0.250000X-0.825000X-0.825000X0.825000X-0.825000X0.825000X0.825000X-0.825000X0.825000X0*%
%TD*%
%TA.AperFunction,ViaPad*%
%ADD19C,0.600000*%
%TD*%
%TA.AperFunction,Conductor*%
%ADD20C,0.200000*%
%TD*%
G04 APERTURE END LIST*
D10*
%TO.P,J2,1,Pin_1_1*%
%TO.N,V_Input_Float*%
X163322000Y-120015000D03*
%TD*%
D11*
%TO.P,BZ1,1,+_1*%
%TO.N,+3V3*%
X162443000Y-96774000D03*
D12*
%TO.P,BZ1,2,-_2*%
%TO.N,Net-(BZ1--)*%
X170043000Y-96774000D03*
%TD*%
D13*
%TO.P,J4,1,Pin_1_1*%
%TO.N,Gnd*%
X171577000Y-83439000D03*
D14*
%TO.P,J4,2,Pin_2_2*%
%TO.N,BatteryRail*%
X171577000Y-82169000D03*
%TD*%
D15*
%TO.P,J6,1,Pin_1_1*%
%TO.N,Vbus*%
X165989000Y-67691000D03*
D16*
%TO.P,J6,2,Pin_2_2*%
%TO.N,Gnd*%
X165989000Y-70231000D03*
%TO.P,J6,3,Pin_3_3*%
%TO.N,+3V3*%
X165989000Y-72771000D03*
%TO.P,J6,4,Pin_4_4*%
%TO.N,D10~*%
X165989000Y-75311000D03*
%TO.P,J6,5,Pin_5_5*%
%TO.N,D9~*%
X165989000Y-77851000D03*
%TO.P,J6,6,Pin_6_6*%
%TO.N,D8*%
X165989000Y-80391000D03*
%TO.P,J6,7,Pin_7_7*%
%TO.N,Bridge_CRTL*%
X165989000Y-82931000D03*
%TD*%
D13*
%TO.P,J8,1,Pin_1_1*%
%TO.N,Vbus*%
X171577000Y-86106000D03*
D14*
%TO.P,J8,2,Pin_2_2*%
%TO.N,D6~*%
X171577000Y-87376000D03*
%TO.P,J8,3,Pin_3_3*%
%TO.N,Gnd*%
X171577000Y-88646000D03*
%TD*%
D17*
%TO.P,H3,1*%
%TO.N,N/C*%
X145883470Y-122301000D03*
%TD*%
D10*
%TO.P,J1,1,Pin_1_1*%
%TO.N,V_Input_REF*%
X153185970Y-120015000D03*
%TD*%
D17*
%TO.P,H4,1*%
%TO.N,N/C*%
X170521470Y-122301000D03*
%TD*%
%TO.P,H2,1*%
%TO.N,N/C*%
X170561000Y-66802000D03*
%TD*%
D15*
%TO.P,J3,1,Pin_1_1*%
%TO.N,/P014{slash}AN09{slash}DAC*%
X150749000Y-67691000D03*
D16*
%TO.P,J3,2,Pin_2_2*%
%TO.N,A1*%
X150749000Y-70231000D03*
%TO.P,J3,3,Pin_3_3*%
%TO.N,A2*%
X150749000Y-72771000D03*
%TO.P,J3,4,Pin_4_4*%
%TO.N,A3~*%
X150749000Y-75311000D03*
%TO.P,J3,5,Pin_5_5*%
%TO.N,SDA*%
X150749000Y-77851000D03*
%TO.P,J3,6,Pin_6_6*%
%TO.N,SCL{slash}A5*%
X150749000Y-80391000D03*
%TO.P,J3,7,Pin_7_7*%
%TO.N,D6~*%
X150749000Y-82931000D03*
%TD*%
D17*
%TO.P,H1,1*%
%TO.N,N/C*%
X145923000Y-66802000D03*
%TD*%
D18*
%TO.P,J5,1,Pin_1_1*%
%TO.N,BatteryRail*%
X158623000Y-87884000D03*
%TD*%
D19*
%TO.N,A2*%
X159258000Y-108331000D03*
X150114000Y-98298000D03*
%TO.N,+3V3*%
X147447000Y-77978000D03*
X147955000Y-82804000D03*
%TO.N,Gnd*%
X151892000Y-87376000D03*
X144907000Y-77978000D03*
X145796000Y-92583000D03*
X168783000Y-72644000D03*
X148971000Y-97790000D03*
X148209000Y-69850000D03*
X148590000Y-103378000D03*
%TO.N,Vbus*%
X168621000Y-81534000D03*
X168275000Y-75946000D03*
%TO.N,D10~*%
X168021000Y-79756000D03*
X168021000Y-78314000D03*
%TO.N,A1*%
X146558000Y-85725000D03*
%TO.N,Net-(R22-Pad2)*%
X157047250Y-108636750D03*
X152654000Y-107569000D03*
%TO.N,A3~*%
X148717000Y-75311000D03*
%TD*%
%TO.N,A2*%
D20*
X152273000Y-102362000D02*
X158242000Y-108331000D01*
X158242000Y-108331000D02*
X159258000Y-108331000D01*
X152273000Y-100457000D02*
X152273000Y-102362000D01*
X150114000Y-98298000D02*
X152273000Y-100457000D01*
%TO.N,BatteryRail*%
X163322000Y-87884000D02*
X169037000Y-82169000D01*
X158623000Y-87884000D02*
X163322000Y-87884000D01*
X169037000Y-82169000D02*
X171577000Y-82169000D01*
%TO.N,Vbus*%
X168275000Y-75946000D02*
X168621000Y-76292000D01*
X168621000Y-76292000D02*
X168621000Y-81534000D01*
%TO.N,D10~*%
X168021000Y-78314000D02*
X168021000Y-79756000D01*
%TO.N,D6~*%
X155280529Y-89916000D02*
X169037000Y-89916000D01*
X169037000Y-89916000D02*
X171577000Y-87376000D01*
X150749000Y-82931000D02*
X150749000Y-85384471D01*
X150749000Y-85384471D02*
X155280529Y-89916000D01*
%TO.N,A1*%
X146558000Y-73219919D02*
X149546919Y-70231000D01*
X149546919Y-70231000D02*
X150749000Y-70231000D01*
X146558000Y-85725000D02*
X146558000Y-73219919D01*
%TO.N,Net-(R22-Pad2)*%
X157047250Y-108636750D02*
X156995500Y-108585000D01*
X153670000Y-108585000D02*
X152654000Y-107569000D01*
X156995500Y-108585000D02*
X153670000Y-108585000D01*
%TO.N,A3~*%
X148717000Y-75311000D02*
X150749000Y-75311000D01*
%TD*%
M02*
