%TF.GenerationSoftware,KiCad,Pcbnew,10.0.0*%
%TF.CreationDate,2026-07-06T07:34:48-05:00*%
%TF.ProjectId,OpenLead_Headless_V2,4f70656e-4c65-4616-945f-486561646c65,rev?*%
%TF.SameCoordinates,Original*%
%TF.FileFunction,Paste,Top*%
%TF.FilePolarity,Positive*%
%FSLAX46Y46*%
G04 Gerber Fmt 4.6, Leading zero omitted, Abs format (unit mm)*
G04 Created by KiCad (PCBNEW 10.0.0) date 2026-07-06 07:34:48*
%MOMM*%
%LPD*%
G01*
G04 APERTURE LIST*
G04 Aperture macros list*
%AMRoundRect*
0 Rectangle with rounded corners*
0 $1 Rounding radius*
0 $2 $3 $4 $5 $6 $7 $8 $9 X,Y pos of 4 corners*
0 Add a 4 corners polygon primitive as box body*
4,1,4,$2,$3,$4,$5,$6,$7,$8,$9,$2,$3,0*
0 Add four circle primitives for the rounded corners*
1,1,$1+$1,$2,$3*
1,1,$1+$1,$4,$5*
1,1,$1+$1,$6,$7*
1,1,$1+$1,$8,$9*
0 Add four rect primitives between the rounded corners*
20,1,$1+$1,$2,$3,$4,$5,0*
20,1,$1+$1,$4,$5,$6,$7,0*
20,1,$1+$1,$6,$7,$8,$9,0*
20,1,$1+$1,$8,$9,$2,$3,0*%
G04 Aperture macros list end*
%ADD10RoundRect,0.250000X0.262500X0.450000X-0.262500X0.450000X-0.262500X-0.450000X0.262500X-0.450000X0*%
%ADD11RoundRect,0.150000X-0.150000X0.587500X-0.150000X-0.587500X0.150000X-0.587500X0.150000X0.587500X0*%
%ADD12RoundRect,0.250000X-0.450000X0.262500X-0.450000X-0.262500X0.450000X-0.262500X0.450000X0.262500X0*%
%ADD13RoundRect,0.250000X0.450000X-0.262500X0.450000X0.262500X-0.450000X0.262500X-0.450000X-0.262500X0*%
%ADD14RoundRect,0.250000X-0.262500X-0.450000X0.262500X-0.450000X0.262500X0.450000X-0.262500X0.450000X0*%
%ADD15RoundRect,0.250000X0.250000X0.475000X-0.250000X0.475000X-0.250000X-0.475000X0.250000X-0.475000X0*%
%ADD16RoundRect,0.190000X0.445000X0.190000X-0.445000X0.190000X-0.445000X-0.190000X0.445000X-0.190000X0*%
%ADD17RoundRect,0.225000X-0.375000X0.225000X-0.375000X-0.225000X0.375000X-0.225000X0.375000X0.225000X0*%
%ADD18RoundRect,0.225000X0.375000X-0.225000X0.375000X0.225000X-0.375000X0.225000X-0.375000X-0.225000X0*%
%ADD19RoundRect,0.150000X0.150000X-0.587500X0.150000X0.587500X-0.150000X0.587500X-0.150000X-0.587500X0*%
G04 APERTURE END LIST*
D10*
%TO.C,R11*%
X168044500Y-110363000D03*
X166219500Y-110363000D03*
%TD*%
D11*
%TO.C,Q2*%
X171699000Y-73175500D03*
X169799000Y-73175500D03*
X170749000Y-75050500D03*
%TD*%
D12*
%TO.C,R4*%
X152019000Y-88646000D03*
X152019000Y-90471000D03*
%TD*%
%TO.C,R23*%
X157988000Y-97766500D03*
X157988000Y-99591500D03*
%TD*%
D13*
%TO.C,R8*%
X145438970Y-115847500D03*
X145438970Y-114022500D03*
%TD*%
D14*
%TO.C,R17*%
X169902500Y-70889500D03*
X171727500Y-70889500D03*
%TD*%
D11*
%TO.C,Q1*%
X152080000Y-95074500D03*
X150180000Y-95074500D03*
X151130000Y-96949500D03*
%TD*%
D13*
%TO.C,R14*%
X169037000Y-118133500D03*
X169037000Y-116308500D03*
%TD*%
D15*
%TO.C,C1*%
X147823000Y-97155000D03*
X145923000Y-97155000D03*
%TD*%
D10*
%TO.C,R5*%
X151087500Y-99949000D03*
X149262500Y-99949000D03*
%TD*%
D13*
%TO.C,R2*%
X157988000Y-96035500D03*
X157988000Y-94210500D03*
%TD*%
%TO.C,R10*%
X149883970Y-119784500D03*
X149883970Y-117959500D03*
%TD*%
D16*
%TO.C,SW1*%
X154813000Y-107188000D03*
X154813000Y-105918000D03*
X154813000Y-104648000D03*
X154813000Y-103378000D03*
X147193000Y-103378000D03*
X147193000Y-104648000D03*
X147193000Y-105918000D03*
X147193000Y-107188000D03*
%TD*%
D13*
%TO.C,R20*%
X144780000Y-72818000D03*
X144780000Y-70993000D03*
%TD*%
%TO.C,R15*%
X166751000Y-120015000D03*
X166751000Y-118190000D03*
%TD*%
D17*
%TO.C,D2*%
X147447000Y-76963000D03*
X147447000Y-80263000D03*
%TD*%
D14*
%TO.C,R3*%
X161647500Y-110363000D03*
X163472500Y-110363000D03*
%TD*%
%TO.C,R6*%
X147701470Y-110363000D03*
X149526470Y-110363000D03*
%TD*%
D13*
%TO.C,R7*%
X145438970Y-112164500D03*
X145438970Y-110339500D03*
%TD*%
%TO.C,R9*%
X147597970Y-117879500D03*
X147597970Y-116054500D03*
%TD*%
%TO.C,R16*%
X169672000Y-78914000D03*
X169672000Y-77089000D03*
%TD*%
%TO.C,R13*%
X171196000Y-116355500D03*
X171196000Y-114530500D03*
%TD*%
D18*
%TO.C,D1*%
X144907000Y-80263000D03*
X144907000Y-76963000D03*
%TD*%
D19*
%TO.C,U3*%
X145862000Y-94996000D03*
X147762000Y-94996000D03*
X146812000Y-93121000D03*
%TD*%
D13*
%TO.C,R12*%
X171196000Y-112164500D03*
X171196000Y-110339500D03*
%TD*%
D14*
%TO.C,R19*%
X151511470Y-110363000D03*
X153336470Y-110363000D03*
%TD*%
%TO.C,R22*%
X156948500Y-110363000D03*
X158773500Y-110363000D03*
%TD*%
D13*
%TO.C,R21*%
X146939000Y-72818000D03*
X146939000Y-70993000D03*
%TD*%
D12*
%TO.C,R1*%
X147828000Y-83796500D03*
X147828000Y-85621500D03*
%TD*%
%TO.C,R18*%
X171958000Y-77089000D03*
X171958000Y-78914000D03*
%TD*%
M02*
