%TF.GenerationSoftware,KiCad,Pcbnew,10.0.0*%
%TF.CreationDate,2026-06-15T16:17:19-05:00*%
%TF.ProjectId,OpenLead_Headless,4f70656e-4c65-4616-945f-486561646c65,rev?*%
%TF.SameCoordinates,Original*%
%TF.FileFunction,Paste,Top*%
%TF.FilePolarity,Positive*%
%FSLAX46Y46*%
G04 Gerber Fmt 4.6, Leading zero omitted, Abs format (unit mm)*
G04 Created by KiCad (PCBNEW 10.0.0) date 2026-06-15 16:17:19*
%MOMM*%
%LPD*%
G01*
G04 APERTURE LIST*
G04 Aperture macros list*
%AMRoundRect*
0 Rectangle with rounded corners*
0 $1 Rounding radius*
0 $2 $3 $4 $5 $6 $7 $8 $9 X,Y pos of 4 corners*
0 Add a 4 corners polygon primitive as box body*
4,1,4,$2,$3,$4,$5,$6,$7,$8,$9,$2,$3,0*
0 Add four circle primitives for the rounded corners*
1,1,$1+$1,$2,$3*
1,1,$1+$1,$4,$5*
1,1,$1+$1,$6,$7*
1,1,$1+$1,$8,$9*
0 Add four rect primitives between the rounded corners*
20,1,$1+$1,$2,$3,$4,$5,0*
20,1,$1+$1,$4,$5,$6,$7,0*
20,1,$1+$1,$6,$7,$8,$9,0*
20,1,$1+$1,$8,$9,$2,$3,0*%
G04 Aperture macros list end*
%ADD10RoundRect,0.250000X-0.262500X-0.450000X0.262500X-0.450000X0.262500X0.450000X-0.262500X0.450000X0*%
%ADD11RoundRect,0.250000X0.262500X0.450000X-0.262500X0.450000X-0.262500X-0.450000X0.262500X-0.450000X0*%
%ADD12RoundRect,0.250000X0.450000X-0.262500X0.450000X0.262500X-0.450000X0.262500X-0.450000X-0.262500X0*%
%ADD13RoundRect,0.250000X-0.450000X0.262500X-0.450000X-0.262500X0.450000X-0.262500X0.450000X0.262500X0*%
%ADD14RoundRect,0.250000X0.250000X0.475000X-0.250000X0.475000X-0.250000X-0.475000X0.250000X-0.475000X0*%
%ADD15RoundRect,0.150000X0.150000X-0.587500X0.150000X0.587500X-0.150000X0.587500X-0.150000X-0.587500X0*%
%ADD16RoundRect,0.225000X-0.375000X0.225000X-0.375000X-0.225000X0.375000X-0.225000X0.375000X0.225000X0*%
%ADD17RoundRect,0.225000X0.375000X-0.225000X0.375000X0.225000X-0.375000X0.225000X-0.375000X-0.225000X0*%
G04 APERTURE END LIST*
D10*
%TO.C,R28*%
X165885500Y-104521000D03*
X164060500Y-104521000D03*
%TD*%
%TO.C,R29*%
X154154500Y-93980000D03*
X155979500Y-93980000D03*
%TD*%
D11*
%TO.C,R27*%
X151280500Y-85979000D03*
X149455500Y-85979000D03*
%TD*%
D12*
%TO.C,R26*%
X168529000Y-102782500D03*
X168529000Y-100957500D03*
%TD*%
D11*
%TO.C,R25*%
X166012500Y-100711000D03*
X164187500Y-100711000D03*
%TD*%
%TO.C,R24*%
X162329500Y-92583000D03*
X160504500Y-92583000D03*
%TD*%
%TO.C,R23*%
X162329500Y-100711000D03*
X160504500Y-100711000D03*
%TD*%
%TO.C,R22*%
X152280500Y-104775000D03*
X150455500Y-104775000D03*
%TD*%
D10*
%TO.C,R21*%
X150439500Y-102362000D03*
X152264500Y-102362000D03*
%TD*%
D12*
%TO.C,R20*%
X154686000Y-101369500D03*
X154686000Y-99544500D03*
%TD*%
D11*
%TO.C,R19*%
X152169500Y-98679000D03*
X150344500Y-98679000D03*
%TD*%
D10*
%TO.C,R18*%
X150344500Y-96139000D03*
X152169500Y-96139000D03*
%TD*%
D12*
%TO.C,R17*%
X162052000Y-97813500D03*
X162052000Y-95988500D03*
%TD*%
D13*
%TO.C,R16*%
X147701000Y-68032500D03*
X147701000Y-69857500D03*
%TD*%
D12*
%TO.C,R15*%
X147701000Y-76223500D03*
X147701000Y-74398500D03*
%TD*%
D13*
%TO.C,R14*%
X158369000Y-94083500D03*
X158369000Y-95908500D03*
%TD*%
D12*
%TO.C,R10*%
X160147000Y-87780500D03*
X160147000Y-85955500D03*
%TD*%
D14*
%TO.C,C17*%
X151445000Y-92456000D03*
X149545000Y-92456000D03*
%TD*%
D15*
%TO.C,U10*%
X149545000Y-90140000D03*
X151445000Y-90140000D03*
X150495000Y-88265000D03*
%TD*%
%TO.C,Q8*%
X162179000Y-90043000D03*
X164079000Y-90043000D03*
X163129000Y-88168000D03*
%TD*%
D16*
%TO.C,D5*%
X156972000Y-88519000D03*
X156972000Y-91819000D03*
%TD*%
D17*
%TO.C,D4*%
X154432000Y-91819000D03*
X154432000Y-88519000D03*
%TD*%
M02*
