%TF.GenerationSoftware,KiCad,Pcbnew,10.0.0*%
%TF.CreationDate,2026-07-06T07:34:48-05:00*%
%TF.ProjectId,OpenLead_Headless_V2,4f70656e-4c65-4616-945f-486561646c65,rev?*%
%TF.SameCoordinates,Original*%
%TF.FileFunction,Legend,Top*%
%TF.FilePolarity,Positive*%
%FSLAX46Y46*%
G04 Gerber Fmt 4.6, Leading zero omitted, Abs format (unit mm)*
G04 Created by KiCad (PCBNEW 10.0.0) date 2026-07-06 07:34:48*
%MOMM*%
%LPD*%
G01*
G04 APERTURE LIST*
G04 Aperture macros list*
%AMRoundRect*
0 Rectangle with rounded corners*
0 $1 Rounding radius*
0 $2 $3 $4 $5 $6 $7 $8 $9 X,Y pos of 4 corners*
0 Add a 4 corners polygon primitive as box body*
4,1,4,$2,$3,$4,$5,$6,$7,$8,$9,$2,$3,0*
0 Add four circle primitives for the rounded corners*
1,1,$1+$1,$2,$3*
1,1,$1+$1,$4,$5*
1,1,$1+$1,$6,$7*
1,1,$1+$1,$8,$9*
0 Add four rect primitives between the rounded corners*
20,1,$1+$1,$2,$3,$4,$5,0*
20,1,$1+$1,$4,$5,$6,$7,0*
20,1,$1+$1,$6,$7,$8,$9,0*
20,1,$1+$1,$8,$9,$2,$3,0*%
%AMFreePoly0*
4,1,6,1.000000,0.000000,0.500000,-0.750000,-0.500000,-0.750000,-0.500000,0.750000,0.500000,0.750000,1.000000,0.000000,1.000000,0.000000,$1*%
%AMFreePoly1*
4,1,6,0.500000,-0.750000,-0.650000,-0.750000,-0.150000,0.000000,-0.650000,0.750000,0.500000,0.750000,0.500000,-0.750000,0.500000,-0.750000,$1*%
G04 Aperture macros list end*
%ADD10C,0.100000*%
%ADD11C,0.090000*%
%ADD12C,0.150000*%
%ADD13C,0.120000*%
%ADD14RoundRect,0.250000X0.262500X0.450000X-0.262500X0.450000X-0.262500X-0.450000X0.262500X-0.450000X0*%
%ADD15RoundRect,0.250000X1.050000X-1.050000X1.050000X1.050000X-1.050000X1.050000X-1.050000X-1.050000X0*%
%ADD16R,2.000000X2.000000*%
%ADD17C,2.000000*%
%ADD18R,1.000000X1.000000*%
%ADD19C,1.000000*%
%ADD20RoundRect,0.150000X-0.150000X0.587500X-0.150000X-0.587500X0.150000X-0.587500X0.150000X0.587500X0*%
%ADD21RoundRect,0.250000X-0.450000X0.262500X-0.450000X-0.262500X0.450000X-0.262500X0.450000X0.262500X0*%
%ADD22R,1.700000X1.700000*%
%ADD23O,1.700000X1.700000*%
%ADD24C,4.400000*%
%ADD25RoundRect,0.250000X0.450000X-0.262500X0.450000X0.262500X-0.450000X0.262500X-0.450000X-0.262500X0*%
%ADD26RoundRect,0.250000X-0.262500X-0.450000X0.262500X-0.450000X0.262500X0.450000X-0.262500X0.450000X0*%
%ADD27RoundRect,0.250000X0.250000X0.475000X-0.250000X0.475000X-0.250000X-0.475000X0.250000X-0.475000X0*%
%ADD28RoundRect,0.190000X0.445000X0.190000X-0.445000X0.190000X-0.445000X-0.190000X0.445000X-0.190000X0*%
%ADD29RoundRect,0.225000X-0.375000X0.225000X-0.375000X-0.225000X0.375000X-0.225000X0.375000X0.225000X0*%
%ADD30RoundRect,0.225000X0.375000X-0.225000X0.375000X0.225000X-0.375000X0.225000X-0.375000X-0.225000X0*%
%ADD31RoundRect,0.250000X-0.825000X-0.825000X0.825000X-0.825000X0.825000X0.825000X-0.825000X0.825000X0*%
%ADD32RoundRect,0.150000X0.150000X-0.587500X0.150000X0.587500X-0.150000X0.587500X-0.150000X-0.587500X0*%
%ADD33FreePoly0,0.000000*%
%ADD34FreePoly1,0.000000*%
%ADD35R,1.000000X1.500000*%
G04 APERTURE END LIST*
D10*
X156083000Y-104648000D02*
X157353000Y-104648000D01*
X156210000Y-107188000D02*
X157353000Y-107188000D01*
X156464000Y-106018000D02*
X157988000Y-106018000D01*
X157353000Y-107188000D02*
X157353000Y-104648000D01*
X157988000Y-103378000D02*
X155829000Y-103378000D01*
X157988000Y-106018000D02*
X157988000Y-103378000D01*
D11*
X158618686Y-104382505D02*
X158618686Y-103582505D01*
X158618686Y-103582505D02*
X158923448Y-103582505D01*
X158923448Y-103582505D02*
X158999638Y-103620600D01*
X158999638Y-103620600D02*
X159037733Y-103658695D01*
X159037733Y-103658695D02*
X159075829Y-103734886D01*
X159075829Y-103734886D02*
X159075829Y-103849171D01*
X159075829Y-103849171D02*
X159037733Y-103925362D01*
X159037733Y-103925362D02*
X158999638Y-103963457D01*
X158999638Y-103963457D02*
X158923448Y-104001552D01*
X158923448Y-104001552D02*
X158618686Y-104001552D01*
X159761543Y-104382505D02*
X159761543Y-103963457D01*
X159761543Y-103963457D02*
X159723448Y-103887267D01*
X159723448Y-103887267D02*
X159647257Y-103849171D01*
X159647257Y-103849171D02*
X159494876Y-103849171D01*
X159494876Y-103849171D02*
X159418686Y-103887267D01*
X159761543Y-104344410D02*
X159685352Y-104382505D01*
X159685352Y-104382505D02*
X159494876Y-104382505D01*
X159494876Y-104382505D02*
X159418686Y-104344410D01*
X159418686Y-104344410D02*
X159380590Y-104268219D01*
X159380590Y-104268219D02*
X159380590Y-104192029D01*
X159380590Y-104192029D02*
X159418686Y-104115838D01*
X159418686Y-104115838D02*
X159494876Y-104077743D01*
X159494876Y-104077743D02*
X159685352Y-104077743D01*
X159685352Y-104077743D02*
X159761543Y-104039648D01*
X160142496Y-104382505D02*
X160142496Y-103849171D01*
X160142496Y-103582505D02*
X160104400Y-103620600D01*
X160104400Y-103620600D02*
X160142496Y-103658695D01*
X160142496Y-103658695D02*
X160180591Y-103620600D01*
X160180591Y-103620600D02*
X160142496Y-103582505D01*
X160142496Y-103582505D02*
X160142496Y-103658695D01*
X160523448Y-104382505D02*
X160523448Y-103849171D01*
X160523448Y-104001552D02*
X160561543Y-103925362D01*
X160561543Y-103925362D02*
X160599638Y-103887267D01*
X160599638Y-103887267D02*
X160675829Y-103849171D01*
X160675829Y-103849171D02*
X160752019Y-103849171D01*
X161323448Y-104344410D02*
X161247257Y-104382505D01*
X161247257Y-104382505D02*
X161094876Y-104382505D01*
X161094876Y-104382505D02*
X161018686Y-104344410D01*
X161018686Y-104344410D02*
X160980590Y-104268219D01*
X160980590Y-104268219D02*
X160980590Y-103963457D01*
X160980590Y-103963457D02*
X161018686Y-103887267D01*
X161018686Y-103887267D02*
X161094876Y-103849171D01*
X161094876Y-103849171D02*
X161247257Y-103849171D01*
X161247257Y-103849171D02*
X161323448Y-103887267D01*
X161323448Y-103887267D02*
X161361543Y-103963457D01*
X161361543Y-103963457D02*
X161361543Y-104039648D01*
X161361543Y-104039648D02*
X160980590Y-104115838D01*
X162047257Y-104382505D02*
X162047257Y-103582505D01*
X162047257Y-104344410D02*
X161971066Y-104382505D01*
X161971066Y-104382505D02*
X161818685Y-104382505D01*
X161818685Y-104382505D02*
X161742495Y-104344410D01*
X161742495Y-104344410D02*
X161704400Y-104306314D01*
X161704400Y-104306314D02*
X161666304Y-104230124D01*
X161666304Y-104230124D02*
X161666304Y-104001552D01*
X161666304Y-104001552D02*
X161704400Y-103925362D01*
X161704400Y-103925362D02*
X161742495Y-103887267D01*
X161742495Y-103887267D02*
X161818685Y-103849171D01*
X161818685Y-103849171D02*
X161971066Y-103849171D01*
X161971066Y-103849171D02*
X162047257Y-103887267D01*
X162428210Y-104306314D02*
X162466305Y-104344410D01*
X162466305Y-104344410D02*
X162428210Y-104382505D01*
X162428210Y-104382505D02*
X162390114Y-104344410D01*
X162390114Y-104344410D02*
X162428210Y-104306314D01*
X162428210Y-104306314D02*
X162428210Y-104382505D01*
X158618686Y-105670460D02*
X158618686Y-104870460D01*
X158618686Y-104870460D02*
X158885352Y-105441888D01*
X158885352Y-105441888D02*
X159152019Y-104870460D01*
X159152019Y-104870460D02*
X159152019Y-105670460D01*
X159875829Y-105137126D02*
X159875829Y-105670460D01*
X159532972Y-105137126D02*
X159532972Y-105556174D01*
X159532972Y-105556174D02*
X159571067Y-105632365D01*
X159571067Y-105632365D02*
X159647257Y-105670460D01*
X159647257Y-105670460D02*
X159761543Y-105670460D01*
X159761543Y-105670460D02*
X159837734Y-105632365D01*
X159837734Y-105632365D02*
X159875829Y-105594269D01*
X160218686Y-105632365D02*
X160294877Y-105670460D01*
X160294877Y-105670460D02*
X160447258Y-105670460D01*
X160447258Y-105670460D02*
X160523448Y-105632365D01*
X160523448Y-105632365D02*
X160561544Y-105556174D01*
X160561544Y-105556174D02*
X160561544Y-105518079D01*
X160561544Y-105518079D02*
X160523448Y-105441888D01*
X160523448Y-105441888D02*
X160447258Y-105403793D01*
X160447258Y-105403793D02*
X160332972Y-105403793D01*
X160332972Y-105403793D02*
X160256782Y-105365698D01*
X160256782Y-105365698D02*
X160218686Y-105289507D01*
X160218686Y-105289507D02*
X160218686Y-105251412D01*
X160218686Y-105251412D02*
X160256782Y-105175222D01*
X160256782Y-105175222D02*
X160332972Y-105137126D01*
X160332972Y-105137126D02*
X160447258Y-105137126D01*
X160447258Y-105137126D02*
X160523448Y-105175222D01*
X160790115Y-105137126D02*
X161094877Y-105137126D01*
X160904401Y-104870460D02*
X160904401Y-105556174D01*
X160904401Y-105556174D02*
X160942496Y-105632365D01*
X160942496Y-105632365D02*
X161018686Y-105670460D01*
X161018686Y-105670460D02*
X161094877Y-105670460D01*
X158618686Y-106958415D02*
X158618686Y-106158415D01*
X158618686Y-106158415D02*
X158885352Y-106729843D01*
X158885352Y-106729843D02*
X159152019Y-106158415D01*
X159152019Y-106158415D02*
X159152019Y-106958415D01*
X159875829Y-106958415D02*
X159875829Y-106539367D01*
X159875829Y-106539367D02*
X159837734Y-106463177D01*
X159837734Y-106463177D02*
X159761543Y-106425081D01*
X159761543Y-106425081D02*
X159609162Y-106425081D01*
X159609162Y-106425081D02*
X159532972Y-106463177D01*
X159875829Y-106920320D02*
X159799638Y-106958415D01*
X159799638Y-106958415D02*
X159609162Y-106958415D01*
X159609162Y-106958415D02*
X159532972Y-106920320D01*
X159532972Y-106920320D02*
X159494876Y-106844129D01*
X159494876Y-106844129D02*
X159494876Y-106767939D01*
X159494876Y-106767939D02*
X159532972Y-106691748D01*
X159532972Y-106691748D02*
X159609162Y-106653653D01*
X159609162Y-106653653D02*
X159799638Y-106653653D01*
X159799638Y-106653653D02*
X159875829Y-106615558D01*
X160142496Y-106425081D02*
X160447258Y-106425081D01*
X160256782Y-106158415D02*
X160256782Y-106844129D01*
X160256782Y-106844129D02*
X160294877Y-106920320D01*
X160294877Y-106920320D02*
X160371067Y-106958415D01*
X160371067Y-106958415D02*
X160447258Y-106958415D01*
X161056782Y-106920320D02*
X160980591Y-106958415D01*
X160980591Y-106958415D02*
X160828210Y-106958415D01*
X160828210Y-106958415D02*
X160752020Y-106920320D01*
X160752020Y-106920320D02*
X160713925Y-106882224D01*
X160713925Y-106882224D02*
X160675829Y-106806034D01*
X160675829Y-106806034D02*
X160675829Y-106577462D01*
X160675829Y-106577462D02*
X160713925Y-106501272D01*
X160713925Y-106501272D02*
X160752020Y-106463177D01*
X160752020Y-106463177D02*
X160828210Y-106425081D01*
X160828210Y-106425081D02*
X160980591Y-106425081D01*
X160980591Y-106425081D02*
X161056782Y-106463177D01*
X161399639Y-106958415D02*
X161399639Y-106158415D01*
X161742496Y-106958415D02*
X161742496Y-106539367D01*
X161742496Y-106539367D02*
X161704401Y-106463177D01*
X161704401Y-106463177D02*
X161628210Y-106425081D01*
X161628210Y-106425081D02*
X161513924Y-106425081D01*
X161513924Y-106425081D02*
X161437734Y-106463177D01*
X161437734Y-106463177D02*
X161399639Y-106501272D01*
X162123449Y-106882224D02*
X162161544Y-106920320D01*
X162161544Y-106920320D02*
X162123449Y-106958415D01*
X162123449Y-106958415D02*
X162085353Y-106920320D01*
X162085353Y-106920320D02*
X162123449Y-106882224D01*
X162123449Y-106882224D02*
X162123449Y-106958415D01*
X148703415Y-89145599D02*
X149503415Y-88878932D01*
X149503415Y-88878932D02*
X148703415Y-88612266D01*
X149503415Y-88345599D02*
X148970081Y-88345599D01*
X149122462Y-88345599D02*
X149046272Y-88307504D01*
X149046272Y-88307504D02*
X149008177Y-88269409D01*
X149008177Y-88269409D02*
X148970081Y-88193218D01*
X148970081Y-88193218D02*
X148970081Y-88117028D01*
X149465320Y-87545599D02*
X149503415Y-87621790D01*
X149503415Y-87621790D02*
X149503415Y-87774171D01*
X149503415Y-87774171D02*
X149465320Y-87850361D01*
X149465320Y-87850361D02*
X149389129Y-87888457D01*
X149389129Y-87888457D02*
X149084367Y-87888457D01*
X149084367Y-87888457D02*
X149008177Y-87850361D01*
X149008177Y-87850361D02*
X148970081Y-87774171D01*
X148970081Y-87774171D02*
X148970081Y-87621790D01*
X148970081Y-87621790D02*
X149008177Y-87545599D01*
X149008177Y-87545599D02*
X149084367Y-87507504D01*
X149084367Y-87507504D02*
X149160558Y-87507504D01*
X149160558Y-87507504D02*
X149236748Y-87888457D01*
X148970081Y-87278933D02*
X148970081Y-86974171D01*
X149503415Y-87164647D02*
X148817700Y-87164647D01*
X148817700Y-87164647D02*
X148741510Y-87126552D01*
X148741510Y-87126552D02*
X148703415Y-87050362D01*
X148703415Y-87050362D02*
X148703415Y-86974171D01*
X148741510Y-91406266D02*
X148703415Y-91482456D01*
X148703415Y-91482456D02*
X148703415Y-91596742D01*
X148703415Y-91596742D02*
X148741510Y-91711028D01*
X148741510Y-91711028D02*
X148817700Y-91787218D01*
X148817700Y-91787218D02*
X148893891Y-91825313D01*
X148893891Y-91825313D02*
X149046272Y-91863409D01*
X149046272Y-91863409D02*
X149160558Y-91863409D01*
X149160558Y-91863409D02*
X149312939Y-91825313D01*
X149312939Y-91825313D02*
X149389129Y-91787218D01*
X149389129Y-91787218D02*
X149465320Y-91711028D01*
X149465320Y-91711028D02*
X149503415Y-91596742D01*
X149503415Y-91596742D02*
X149503415Y-91520551D01*
X149503415Y-91520551D02*
X149465320Y-91406266D01*
X149465320Y-91406266D02*
X149427224Y-91368170D01*
X149427224Y-91368170D02*
X149160558Y-91368170D01*
X149160558Y-91368170D02*
X149160558Y-91520551D01*
X148970081Y-91025313D02*
X149503415Y-91025313D01*
X149046272Y-91025313D02*
X149008177Y-90987218D01*
X149008177Y-90987218D02*
X148970081Y-90911028D01*
X148970081Y-90911028D02*
X148970081Y-90796742D01*
X148970081Y-90796742D02*
X149008177Y-90720551D01*
X149008177Y-90720551D02*
X149084367Y-90682456D01*
X149084367Y-90682456D02*
X149503415Y-90682456D01*
X149503415Y-89958646D02*
X148703415Y-89958646D01*
X149465320Y-89958646D02*
X149503415Y-90034837D01*
X149503415Y-90034837D02*
X149503415Y-90187218D01*
X149503415Y-90187218D02*
X149465320Y-90263408D01*
X149465320Y-90263408D02*
X149427224Y-90301503D01*
X149427224Y-90301503D02*
X149351034Y-90339599D01*
X149351034Y-90339599D02*
X149122462Y-90339599D01*
X149122462Y-90339599D02*
X149046272Y-90301503D01*
X149046272Y-90301503D02*
X149008177Y-90263408D01*
X149008177Y-90263408D02*
X148970081Y-90187218D01*
X148970081Y-90187218D02*
X148970081Y-90034837D01*
X148970081Y-90034837D02*
X149008177Y-89958646D01*
X166514214Y-112633415D02*
X166247547Y-112252462D01*
X166057071Y-112633415D02*
X166057071Y-111833415D01*
X166057071Y-111833415D02*
X166361833Y-111833415D01*
X166361833Y-111833415D02*
X166438023Y-111871510D01*
X166438023Y-111871510D02*
X166476118Y-111909605D01*
X166476118Y-111909605D02*
X166514214Y-111985796D01*
X166514214Y-111985796D02*
X166514214Y-112100081D01*
X166514214Y-112100081D02*
X166476118Y-112176272D01*
X166476118Y-112176272D02*
X166438023Y-112214367D01*
X166438023Y-112214367D02*
X166361833Y-112252462D01*
X166361833Y-112252462D02*
X166057071Y-112252462D01*
X167276118Y-112633415D02*
X166818975Y-112633415D01*
X167047547Y-112633415D02*
X167047547Y-111833415D01*
X167047547Y-111833415D02*
X166971356Y-111947700D01*
X166971356Y-111947700D02*
X166895166Y-112023891D01*
X166895166Y-112023891D02*
X166818975Y-112061986D01*
X168038023Y-112633415D02*
X167580880Y-112633415D01*
X167809452Y-112633415D02*
X167809452Y-111833415D01*
X167809452Y-111833415D02*
X167733261Y-111947700D01*
X167733261Y-111947700D02*
X167657071Y-112023891D01*
X167657071Y-112023891D02*
X167580880Y-112061986D01*
X161785333Y-117167415D02*
X161785333Y-117738843D01*
X161785333Y-117738843D02*
X161747238Y-117853129D01*
X161747238Y-117853129D02*
X161671047Y-117929320D01*
X161671047Y-117929320D02*
X161556762Y-117967415D01*
X161556762Y-117967415D02*
X161480571Y-117967415D01*
X162128190Y-117243605D02*
X162166286Y-117205510D01*
X162166286Y-117205510D02*
X162242476Y-117167415D01*
X162242476Y-117167415D02*
X162432952Y-117167415D01*
X162432952Y-117167415D02*
X162509143Y-117205510D01*
X162509143Y-117205510D02*
X162547238Y-117243605D01*
X162547238Y-117243605D02*
X162585333Y-117319796D01*
X162585333Y-117319796D02*
X162585333Y-117395986D01*
X162585333Y-117395986D02*
X162547238Y-117510272D01*
X162547238Y-117510272D02*
X162090095Y-117967415D01*
X162090095Y-117967415D02*
X162585333Y-117967415D01*
D12*
X165362047Y-89505009D02*
X165504904Y-89552628D01*
X165504904Y-89552628D02*
X165552523Y-89600247D01*
X165552523Y-89600247D02*
X165600142Y-89695485D01*
X165600142Y-89695485D02*
X165600142Y-89838342D01*
X165600142Y-89838342D02*
X165552523Y-89933580D01*
X165552523Y-89933580D02*
X165504904Y-89981200D01*
X165504904Y-89981200D02*
X165409666Y-90028819D01*
X165409666Y-90028819D02*
X165028714Y-90028819D01*
X165028714Y-90028819D02*
X165028714Y-89028819D01*
X165028714Y-89028819D02*
X165362047Y-89028819D01*
X165362047Y-89028819D02*
X165457285Y-89076438D01*
X165457285Y-89076438D02*
X165504904Y-89124057D01*
X165504904Y-89124057D02*
X165552523Y-89219295D01*
X165552523Y-89219295D02*
X165552523Y-89314533D01*
X165552523Y-89314533D02*
X165504904Y-89409771D01*
X165504904Y-89409771D02*
X165457285Y-89457390D01*
X165457285Y-89457390D02*
X165362047Y-89505009D01*
X165362047Y-89505009D02*
X165028714Y-89505009D01*
X165933476Y-89028819D02*
X166600142Y-89028819D01*
X166600142Y-89028819D02*
X165933476Y-90028819D01*
X165933476Y-90028819D02*
X166600142Y-90028819D01*
X167504904Y-90028819D02*
X166933476Y-90028819D01*
X167219190Y-90028819D02*
X167219190Y-89028819D01*
X167219190Y-89028819D02*
X167123952Y-89171676D01*
X167123952Y-89171676D02*
X167028714Y-89266914D01*
X167028714Y-89266914D02*
X166933476Y-89314533D01*
X162052048Y-94307866D02*
X162813953Y-94307866D01*
X162433000Y-94688819D02*
X162433000Y-93926914D01*
D11*
X169024333Y-83385415D02*
X169024333Y-83956843D01*
X169024333Y-83956843D02*
X168986238Y-84071129D01*
X168986238Y-84071129D02*
X168910047Y-84147320D01*
X168910047Y-84147320D02*
X168795762Y-84185415D01*
X168795762Y-84185415D02*
X168719571Y-84185415D01*
X169748143Y-83652081D02*
X169748143Y-84185415D01*
X169557667Y-83347320D02*
X169367190Y-83918748D01*
X169367190Y-83918748D02*
X169862429Y-83918748D01*
X168904605Y-74316190D02*
X168866510Y-74392380D01*
X168866510Y-74392380D02*
X168790320Y-74468571D01*
X168790320Y-74468571D02*
X168676034Y-74582857D01*
X168676034Y-74582857D02*
X168637939Y-74659047D01*
X168637939Y-74659047D02*
X168637939Y-74735238D01*
X168828415Y-74697142D02*
X168790320Y-74773333D01*
X168790320Y-74773333D02*
X168714129Y-74849523D01*
X168714129Y-74849523D02*
X168561748Y-74887619D01*
X168561748Y-74887619D02*
X168295081Y-74887619D01*
X168295081Y-74887619D02*
X168142700Y-74849523D01*
X168142700Y-74849523D02*
X168066510Y-74773333D01*
X168066510Y-74773333D02*
X168028415Y-74697142D01*
X168028415Y-74697142D02*
X168028415Y-74544761D01*
X168028415Y-74544761D02*
X168066510Y-74468571D01*
X168066510Y-74468571D02*
X168142700Y-74392380D01*
X168142700Y-74392380D02*
X168295081Y-74354285D01*
X168295081Y-74354285D02*
X168561748Y-74354285D01*
X168561748Y-74354285D02*
X168714129Y-74392380D01*
X168714129Y-74392380D02*
X168790320Y-74468571D01*
X168790320Y-74468571D02*
X168828415Y-74544761D01*
X168828415Y-74544761D02*
X168828415Y-74697142D01*
X168104605Y-74049524D02*
X168066510Y-74011428D01*
X168066510Y-74011428D02*
X168028415Y-73935238D01*
X168028415Y-73935238D02*
X168028415Y-73744762D01*
X168028415Y-73744762D02*
X168066510Y-73668571D01*
X168066510Y-73668571D02*
X168104605Y-73630476D01*
X168104605Y-73630476D02*
X168180796Y-73592381D01*
X168180796Y-73592381D02*
X168256986Y-73592381D01*
X168256986Y-73592381D02*
X168371272Y-73630476D01*
X168371272Y-73630476D02*
X168828415Y-74087619D01*
X168828415Y-74087619D02*
X168828415Y-73592381D01*
X154162415Y-90557332D02*
X153781462Y-90823999D01*
X154162415Y-91014475D02*
X153362415Y-91014475D01*
X153362415Y-91014475D02*
X153362415Y-90709713D01*
X153362415Y-90709713D02*
X153400510Y-90633523D01*
X153400510Y-90633523D02*
X153438605Y-90595428D01*
X153438605Y-90595428D02*
X153514796Y-90557332D01*
X153514796Y-90557332D02*
X153629081Y-90557332D01*
X153629081Y-90557332D02*
X153705272Y-90595428D01*
X153705272Y-90595428D02*
X153743367Y-90633523D01*
X153743367Y-90633523D02*
X153781462Y-90709713D01*
X153781462Y-90709713D02*
X153781462Y-91014475D01*
X153629081Y-89871618D02*
X154162415Y-89871618D01*
X153324320Y-90062094D02*
X153895748Y-90252571D01*
X153895748Y-90252571D02*
X153895748Y-89757332D01*
X164706333Y-64716415D02*
X164706333Y-65287843D01*
X164706333Y-65287843D02*
X164668238Y-65402129D01*
X164668238Y-65402129D02*
X164592047Y-65478320D01*
X164592047Y-65478320D02*
X164477762Y-65516415D01*
X164477762Y-65516415D02*
X164401571Y-65516415D01*
X165430143Y-64716415D02*
X165277762Y-64716415D01*
X165277762Y-64716415D02*
X165201571Y-64754510D01*
X165201571Y-64754510D02*
X165163476Y-64792605D01*
X165163476Y-64792605D02*
X165087286Y-64906891D01*
X165087286Y-64906891D02*
X165049190Y-65059272D01*
X165049190Y-65059272D02*
X165049190Y-65364034D01*
X165049190Y-65364034D02*
X165087286Y-65440224D01*
X165087286Y-65440224D02*
X165125381Y-65478320D01*
X165125381Y-65478320D02*
X165201571Y-65516415D01*
X165201571Y-65516415D02*
X165353952Y-65516415D01*
X165353952Y-65516415D02*
X165430143Y-65478320D01*
X165430143Y-65478320D02*
X165468238Y-65440224D01*
X165468238Y-65440224D02*
X165506333Y-65364034D01*
X165506333Y-65364034D02*
X165506333Y-65173558D01*
X165506333Y-65173558D02*
X165468238Y-65097367D01*
X165468238Y-65097367D02*
X165430143Y-65059272D01*
X165430143Y-65059272D02*
X165353952Y-65021177D01*
X165353952Y-65021177D02*
X165201571Y-65021177D01*
X165201571Y-65021177D02*
X165125381Y-65059272D01*
X165125381Y-65059272D02*
X165087286Y-65097367D01*
X165087286Y-65097367D02*
X165049190Y-65173558D01*
X169024333Y-88592415D02*
X169024333Y-89163843D01*
X169024333Y-89163843D02*
X168986238Y-89278129D01*
X168986238Y-89278129D02*
X168910047Y-89354320D01*
X168910047Y-89354320D02*
X168795762Y-89392415D01*
X168795762Y-89392415D02*
X168719571Y-89392415D01*
X169519571Y-88935272D02*
X169443381Y-88897177D01*
X169443381Y-88897177D02*
X169405286Y-88859081D01*
X169405286Y-88859081D02*
X169367190Y-88782891D01*
X169367190Y-88782891D02*
X169367190Y-88744796D01*
X169367190Y-88744796D02*
X169405286Y-88668605D01*
X169405286Y-88668605D02*
X169443381Y-88630510D01*
X169443381Y-88630510D02*
X169519571Y-88592415D01*
X169519571Y-88592415D02*
X169671952Y-88592415D01*
X169671952Y-88592415D02*
X169748143Y-88630510D01*
X169748143Y-88630510D02*
X169786238Y-88668605D01*
X169786238Y-88668605D02*
X169824333Y-88744796D01*
X169824333Y-88744796D02*
X169824333Y-88782891D01*
X169824333Y-88782891D02*
X169786238Y-88859081D01*
X169786238Y-88859081D02*
X169748143Y-88897177D01*
X169748143Y-88897177D02*
X169671952Y-88935272D01*
X169671952Y-88935272D02*
X169519571Y-88935272D01*
X169519571Y-88935272D02*
X169443381Y-88973367D01*
X169443381Y-88973367D02*
X169405286Y-89011462D01*
X169405286Y-89011462D02*
X169367190Y-89087653D01*
X169367190Y-89087653D02*
X169367190Y-89240034D01*
X169367190Y-89240034D02*
X169405286Y-89316224D01*
X169405286Y-89316224D02*
X169443381Y-89354320D01*
X169443381Y-89354320D02*
X169519571Y-89392415D01*
X169519571Y-89392415D02*
X169671952Y-89392415D01*
X169671952Y-89392415D02*
X169748143Y-89354320D01*
X169748143Y-89354320D02*
X169786238Y-89316224D01*
X169786238Y-89316224D02*
X169824333Y-89240034D01*
X169824333Y-89240034D02*
X169824333Y-89087653D01*
X169824333Y-89087653D02*
X169786238Y-89011462D01*
X169786238Y-89011462D02*
X169748143Y-88973367D01*
X169748143Y-88973367D02*
X169671952Y-88935272D01*
X156702415Y-99066285D02*
X156321462Y-99332952D01*
X156702415Y-99523428D02*
X155902415Y-99523428D01*
X155902415Y-99523428D02*
X155902415Y-99218666D01*
X155902415Y-99218666D02*
X155940510Y-99142476D01*
X155940510Y-99142476D02*
X155978605Y-99104381D01*
X155978605Y-99104381D02*
X156054796Y-99066285D01*
X156054796Y-99066285D02*
X156169081Y-99066285D01*
X156169081Y-99066285D02*
X156245272Y-99104381D01*
X156245272Y-99104381D02*
X156283367Y-99142476D01*
X156283367Y-99142476D02*
X156321462Y-99218666D01*
X156321462Y-99218666D02*
X156321462Y-99523428D01*
X155978605Y-98761524D02*
X155940510Y-98723428D01*
X155940510Y-98723428D02*
X155902415Y-98647238D01*
X155902415Y-98647238D02*
X155902415Y-98456762D01*
X155902415Y-98456762D02*
X155940510Y-98380571D01*
X155940510Y-98380571D02*
X155978605Y-98342476D01*
X155978605Y-98342476D02*
X156054796Y-98304381D01*
X156054796Y-98304381D02*
X156130986Y-98304381D01*
X156130986Y-98304381D02*
X156245272Y-98342476D01*
X156245272Y-98342476D02*
X156702415Y-98799619D01*
X156702415Y-98799619D02*
X156702415Y-98304381D01*
X155902415Y-98037714D02*
X155902415Y-97542476D01*
X155902415Y-97542476D02*
X156207177Y-97809142D01*
X156207177Y-97809142D02*
X156207177Y-97694857D01*
X156207177Y-97694857D02*
X156245272Y-97618666D01*
X156245272Y-97618666D02*
X156283367Y-97580571D01*
X156283367Y-97580571D02*
X156359558Y-97542476D01*
X156359558Y-97542476D02*
X156550034Y-97542476D01*
X156550034Y-97542476D02*
X156626224Y-97580571D01*
X156626224Y-97580571D02*
X156664320Y-97618666D01*
X156664320Y-97618666D02*
X156702415Y-97694857D01*
X156702415Y-97694857D02*
X156702415Y-97923428D01*
X156702415Y-97923428D02*
X156664320Y-97999619D01*
X156664320Y-97999619D02*
X156626224Y-98037714D01*
X145677385Y-117608332D02*
X145296432Y-117874999D01*
X145677385Y-118065475D02*
X144877385Y-118065475D01*
X144877385Y-118065475D02*
X144877385Y-117760713D01*
X144877385Y-117760713D02*
X144915480Y-117684523D01*
X144915480Y-117684523D02*
X144953575Y-117646428D01*
X144953575Y-117646428D02*
X145029766Y-117608332D01*
X145029766Y-117608332D02*
X145144051Y-117608332D01*
X145144051Y-117608332D02*
X145220242Y-117646428D01*
X145220242Y-117646428D02*
X145258337Y-117684523D01*
X145258337Y-117684523D02*
X145296432Y-117760713D01*
X145296432Y-117760713D02*
X145296432Y-118065475D01*
X145220242Y-117151190D02*
X145182147Y-117227380D01*
X145182147Y-117227380D02*
X145144051Y-117265475D01*
X145144051Y-117265475D02*
X145067861Y-117303571D01*
X145067861Y-117303571D02*
X145029766Y-117303571D01*
X145029766Y-117303571D02*
X144953575Y-117265475D01*
X144953575Y-117265475D02*
X144915480Y-117227380D01*
X144915480Y-117227380D02*
X144877385Y-117151190D01*
X144877385Y-117151190D02*
X144877385Y-116998809D01*
X144877385Y-116998809D02*
X144915480Y-116922618D01*
X144915480Y-116922618D02*
X144953575Y-116884523D01*
X144953575Y-116884523D02*
X145029766Y-116846428D01*
X145029766Y-116846428D02*
X145067861Y-116846428D01*
X145067861Y-116846428D02*
X145144051Y-116884523D01*
X145144051Y-116884523D02*
X145182147Y-116922618D01*
X145182147Y-116922618D02*
X145220242Y-116998809D01*
X145220242Y-116998809D02*
X145220242Y-117151190D01*
X145220242Y-117151190D02*
X145258337Y-117227380D01*
X145258337Y-117227380D02*
X145296432Y-117265475D01*
X145296432Y-117265475D02*
X145372623Y-117303571D01*
X145372623Y-117303571D02*
X145525004Y-117303571D01*
X145525004Y-117303571D02*
X145601194Y-117265475D01*
X145601194Y-117265475D02*
X145639290Y-117227380D01*
X145639290Y-117227380D02*
X145677385Y-117151190D01*
X145677385Y-117151190D02*
X145677385Y-116998809D01*
X145677385Y-116998809D02*
X145639290Y-116922618D01*
X145639290Y-116922618D02*
X145601194Y-116884523D01*
X145601194Y-116884523D02*
X145525004Y-116846428D01*
X145525004Y-116846428D02*
X145372623Y-116846428D01*
X145372623Y-116846428D02*
X145296432Y-116884523D01*
X145296432Y-116884523D02*
X145258337Y-116922618D01*
X145258337Y-116922618D02*
X145220242Y-116998809D01*
X168828415Y-71325285D02*
X168447462Y-71591952D01*
X168828415Y-71782428D02*
X168028415Y-71782428D01*
X168028415Y-71782428D02*
X168028415Y-71477666D01*
X168028415Y-71477666D02*
X168066510Y-71401476D01*
X168066510Y-71401476D02*
X168104605Y-71363381D01*
X168104605Y-71363381D02*
X168180796Y-71325285D01*
X168180796Y-71325285D02*
X168295081Y-71325285D01*
X168295081Y-71325285D02*
X168371272Y-71363381D01*
X168371272Y-71363381D02*
X168409367Y-71401476D01*
X168409367Y-71401476D02*
X168447462Y-71477666D01*
X168447462Y-71477666D02*
X168447462Y-71782428D01*
X168828415Y-70563381D02*
X168828415Y-71020524D01*
X168828415Y-70791952D02*
X168028415Y-70791952D01*
X168028415Y-70791952D02*
X168142700Y-70868143D01*
X168142700Y-70868143D02*
X168218891Y-70944333D01*
X168218891Y-70944333D02*
X168256986Y-71020524D01*
X168028415Y-70296714D02*
X168028415Y-69763380D01*
X168028415Y-69763380D02*
X168828415Y-70106238D01*
X151776303Y-117040415D02*
X151776303Y-117611843D01*
X151776303Y-117611843D02*
X151738208Y-117726129D01*
X151738208Y-117726129D02*
X151662017Y-117802320D01*
X151662017Y-117802320D02*
X151547732Y-117840415D01*
X151547732Y-117840415D02*
X151471541Y-117840415D01*
X152576303Y-117840415D02*
X152119160Y-117840415D01*
X152347732Y-117840415D02*
X152347732Y-117040415D01*
X152347732Y-117040415D02*
X152271541Y-117154700D01*
X152271541Y-117154700D02*
X152195351Y-117230891D01*
X152195351Y-117230891D02*
X152119160Y-117268986D01*
X151876809Y-93835105D02*
X151800619Y-93797010D01*
X151800619Y-93797010D02*
X151724428Y-93720820D01*
X151724428Y-93720820D02*
X151610142Y-93606534D01*
X151610142Y-93606534D02*
X151533952Y-93568439D01*
X151533952Y-93568439D02*
X151457761Y-93568439D01*
X151495857Y-93758915D02*
X151419666Y-93720820D01*
X151419666Y-93720820D02*
X151343476Y-93644629D01*
X151343476Y-93644629D02*
X151305380Y-93492248D01*
X151305380Y-93492248D02*
X151305380Y-93225581D01*
X151305380Y-93225581D02*
X151343476Y-93073200D01*
X151343476Y-93073200D02*
X151419666Y-92997010D01*
X151419666Y-92997010D02*
X151495857Y-92958915D01*
X151495857Y-92958915D02*
X151648238Y-92958915D01*
X151648238Y-92958915D02*
X151724428Y-92997010D01*
X151724428Y-92997010D02*
X151800619Y-93073200D01*
X151800619Y-93073200D02*
X151838714Y-93225581D01*
X151838714Y-93225581D02*
X151838714Y-93492248D01*
X151838714Y-93492248D02*
X151800619Y-93644629D01*
X151800619Y-93644629D02*
X151724428Y-93720820D01*
X151724428Y-93720820D02*
X151648238Y-93758915D01*
X151648238Y-93758915D02*
X151495857Y-93758915D01*
X152600618Y-93758915D02*
X152143475Y-93758915D01*
X152372047Y-93758915D02*
X152372047Y-92958915D01*
X152372047Y-92958915D02*
X152295856Y-93073200D01*
X152295856Y-93073200D02*
X152219666Y-93149391D01*
X152219666Y-93149391D02*
X152143475Y-93187486D01*
X169402415Y-114814285D02*
X169021462Y-115080952D01*
X169402415Y-115271428D02*
X168602415Y-115271428D01*
X168602415Y-115271428D02*
X168602415Y-114966666D01*
X168602415Y-114966666D02*
X168640510Y-114890476D01*
X168640510Y-114890476D02*
X168678605Y-114852381D01*
X168678605Y-114852381D02*
X168754796Y-114814285D01*
X168754796Y-114814285D02*
X168869081Y-114814285D01*
X168869081Y-114814285D02*
X168945272Y-114852381D01*
X168945272Y-114852381D02*
X168983367Y-114890476D01*
X168983367Y-114890476D02*
X169021462Y-114966666D01*
X169021462Y-114966666D02*
X169021462Y-115271428D01*
X169402415Y-114052381D02*
X169402415Y-114509524D01*
X169402415Y-114280952D02*
X168602415Y-114280952D01*
X168602415Y-114280952D02*
X168716700Y-114357143D01*
X168716700Y-114357143D02*
X168792891Y-114433333D01*
X168792891Y-114433333D02*
X168830986Y-114509524D01*
X168869081Y-113366666D02*
X169402415Y-113366666D01*
X168564320Y-113557142D02*
X169135748Y-113747619D01*
X169135748Y-113747619D02*
X169135748Y-113252380D01*
X145511224Y-99066332D02*
X145549320Y-99104428D01*
X145549320Y-99104428D02*
X145587415Y-99218713D01*
X145587415Y-99218713D02*
X145587415Y-99294904D01*
X145587415Y-99294904D02*
X145549320Y-99409190D01*
X145549320Y-99409190D02*
X145473129Y-99485380D01*
X145473129Y-99485380D02*
X145396939Y-99523475D01*
X145396939Y-99523475D02*
X145244558Y-99561571D01*
X145244558Y-99561571D02*
X145130272Y-99561571D01*
X145130272Y-99561571D02*
X144977891Y-99523475D01*
X144977891Y-99523475D02*
X144901700Y-99485380D01*
X144901700Y-99485380D02*
X144825510Y-99409190D01*
X144825510Y-99409190D02*
X144787415Y-99294904D01*
X144787415Y-99294904D02*
X144787415Y-99218713D01*
X144787415Y-99218713D02*
X144825510Y-99104428D01*
X144825510Y-99104428D02*
X144863605Y-99066332D01*
X145587415Y-98304428D02*
X145587415Y-98761571D01*
X145587415Y-98532999D02*
X144787415Y-98532999D01*
X144787415Y-98532999D02*
X144901700Y-98609190D01*
X144901700Y-98609190D02*
X144977891Y-98685380D01*
X144977891Y-98685380D02*
X145015986Y-98761571D01*
X153019415Y-99193332D02*
X152638462Y-99459999D01*
X153019415Y-99650475D02*
X152219415Y-99650475D01*
X152219415Y-99650475D02*
X152219415Y-99345713D01*
X152219415Y-99345713D02*
X152257510Y-99269523D01*
X152257510Y-99269523D02*
X152295605Y-99231428D01*
X152295605Y-99231428D02*
X152371796Y-99193332D01*
X152371796Y-99193332D02*
X152486081Y-99193332D01*
X152486081Y-99193332D02*
X152562272Y-99231428D01*
X152562272Y-99231428D02*
X152600367Y-99269523D01*
X152600367Y-99269523D02*
X152638462Y-99345713D01*
X152638462Y-99345713D02*
X152638462Y-99650475D01*
X152219415Y-98469523D02*
X152219415Y-98850475D01*
X152219415Y-98850475D02*
X152600367Y-98888571D01*
X152600367Y-98888571D02*
X152562272Y-98850475D01*
X152562272Y-98850475D02*
X152524177Y-98774285D01*
X152524177Y-98774285D02*
X152524177Y-98583809D01*
X152524177Y-98583809D02*
X152562272Y-98507618D01*
X152562272Y-98507618D02*
X152600367Y-98469523D01*
X152600367Y-98469523D02*
X152676558Y-98431428D01*
X152676558Y-98431428D02*
X152867034Y-98431428D01*
X152867034Y-98431428D02*
X152943224Y-98469523D01*
X152943224Y-98469523D02*
X152981320Y-98507618D01*
X152981320Y-98507618D02*
X153019415Y-98583809D01*
X153019415Y-98583809D02*
X153019415Y-98774285D01*
X153019415Y-98774285D02*
X152981320Y-98850475D01*
X152981320Y-98850475D02*
X152943224Y-98888571D01*
X156702415Y-95256332D02*
X156321462Y-95522999D01*
X156702415Y-95713475D02*
X155902415Y-95713475D01*
X155902415Y-95713475D02*
X155902415Y-95408713D01*
X155902415Y-95408713D02*
X155940510Y-95332523D01*
X155940510Y-95332523D02*
X155978605Y-95294428D01*
X155978605Y-95294428D02*
X156054796Y-95256332D01*
X156054796Y-95256332D02*
X156169081Y-95256332D01*
X156169081Y-95256332D02*
X156245272Y-95294428D01*
X156245272Y-95294428D02*
X156283367Y-95332523D01*
X156283367Y-95332523D02*
X156321462Y-95408713D01*
X156321462Y-95408713D02*
X156321462Y-95713475D01*
X155978605Y-94951571D02*
X155940510Y-94913475D01*
X155940510Y-94913475D02*
X155902415Y-94837285D01*
X155902415Y-94837285D02*
X155902415Y-94646809D01*
X155902415Y-94646809D02*
X155940510Y-94570618D01*
X155940510Y-94570618D02*
X155978605Y-94532523D01*
X155978605Y-94532523D02*
X156054796Y-94494428D01*
X156054796Y-94494428D02*
X156130986Y-94494428D01*
X156130986Y-94494428D02*
X156245272Y-94532523D01*
X156245272Y-94532523D02*
X156702415Y-94989666D01*
X156702415Y-94989666D02*
X156702415Y-94494428D01*
X150122385Y-116465285D02*
X149741432Y-116731952D01*
X150122385Y-116922428D02*
X149322385Y-116922428D01*
X149322385Y-116922428D02*
X149322385Y-116617666D01*
X149322385Y-116617666D02*
X149360480Y-116541476D01*
X149360480Y-116541476D02*
X149398575Y-116503381D01*
X149398575Y-116503381D02*
X149474766Y-116465285D01*
X149474766Y-116465285D02*
X149589051Y-116465285D01*
X149589051Y-116465285D02*
X149665242Y-116503381D01*
X149665242Y-116503381D02*
X149703337Y-116541476D01*
X149703337Y-116541476D02*
X149741432Y-116617666D01*
X149741432Y-116617666D02*
X149741432Y-116922428D01*
X150122385Y-115703381D02*
X150122385Y-116160524D01*
X150122385Y-115931952D02*
X149322385Y-115931952D01*
X149322385Y-115931952D02*
X149436670Y-116008143D01*
X149436670Y-116008143D02*
X149512861Y-116084333D01*
X149512861Y-116084333D02*
X149550956Y-116160524D01*
X149322385Y-115208142D02*
X149322385Y-115131952D01*
X149322385Y-115131952D02*
X149360480Y-115055761D01*
X149360480Y-115055761D02*
X149398575Y-115017666D01*
X149398575Y-115017666D02*
X149474766Y-114979571D01*
X149474766Y-114979571D02*
X149627147Y-114941476D01*
X149627147Y-114941476D02*
X149817623Y-114941476D01*
X149817623Y-114941476D02*
X149970004Y-114979571D01*
X149970004Y-114979571D02*
X150046194Y-115017666D01*
X150046194Y-115017666D02*
X150084290Y-115055761D01*
X150084290Y-115055761D02*
X150122385Y-115131952D01*
X150122385Y-115131952D02*
X150122385Y-115208142D01*
X150122385Y-115208142D02*
X150084290Y-115284333D01*
X150084290Y-115284333D02*
X150046194Y-115322428D01*
X150046194Y-115322428D02*
X149970004Y-115360523D01*
X149970004Y-115360523D02*
X149817623Y-115398619D01*
X149817623Y-115398619D02*
X149627147Y-115398619D01*
X149627147Y-115398619D02*
X149474766Y-115360523D01*
X149474766Y-115360523D02*
X149398575Y-115322428D01*
X149398575Y-115322428D02*
X149360480Y-115284333D01*
X149360480Y-115284333D02*
X149322385Y-115208142D01*
X145488320Y-104190667D02*
X145526415Y-104076381D01*
X145526415Y-104076381D02*
X145526415Y-103885905D01*
X145526415Y-103885905D02*
X145488320Y-103809714D01*
X145488320Y-103809714D02*
X145450224Y-103771619D01*
X145450224Y-103771619D02*
X145374034Y-103733524D01*
X145374034Y-103733524D02*
X145297843Y-103733524D01*
X145297843Y-103733524D02*
X145221653Y-103771619D01*
X145221653Y-103771619D02*
X145183558Y-103809714D01*
X145183558Y-103809714D02*
X145145462Y-103885905D01*
X145145462Y-103885905D02*
X145107367Y-104038286D01*
X145107367Y-104038286D02*
X145069272Y-104114476D01*
X145069272Y-104114476D02*
X145031177Y-104152571D01*
X145031177Y-104152571D02*
X144954986Y-104190667D01*
X144954986Y-104190667D02*
X144878796Y-104190667D01*
X144878796Y-104190667D02*
X144802605Y-104152571D01*
X144802605Y-104152571D02*
X144764510Y-104114476D01*
X144764510Y-104114476D02*
X144726415Y-104038286D01*
X144726415Y-104038286D02*
X144726415Y-103847809D01*
X144726415Y-103847809D02*
X144764510Y-103733524D01*
X144726415Y-103466857D02*
X145526415Y-103276381D01*
X145526415Y-103276381D02*
X144954986Y-103124000D01*
X144954986Y-103124000D02*
X145526415Y-102971619D01*
X145526415Y-102971619D02*
X144726415Y-102781143D01*
X145526415Y-102057333D02*
X145526415Y-102514476D01*
X145526415Y-102285904D02*
X144726415Y-102285904D01*
X144726415Y-102285904D02*
X144840700Y-102362095D01*
X144840700Y-102362095D02*
X144916891Y-102438285D01*
X144916891Y-102438285D02*
X144954986Y-102514476D01*
X145272415Y-75444285D02*
X144891462Y-75710952D01*
X145272415Y-75901428D02*
X144472415Y-75901428D01*
X144472415Y-75901428D02*
X144472415Y-75596666D01*
X144472415Y-75596666D02*
X144510510Y-75520476D01*
X144510510Y-75520476D02*
X144548605Y-75482381D01*
X144548605Y-75482381D02*
X144624796Y-75444285D01*
X144624796Y-75444285D02*
X144739081Y-75444285D01*
X144739081Y-75444285D02*
X144815272Y-75482381D01*
X144815272Y-75482381D02*
X144853367Y-75520476D01*
X144853367Y-75520476D02*
X144891462Y-75596666D01*
X144891462Y-75596666D02*
X144891462Y-75901428D01*
X144548605Y-75139524D02*
X144510510Y-75101428D01*
X144510510Y-75101428D02*
X144472415Y-75025238D01*
X144472415Y-75025238D02*
X144472415Y-74834762D01*
X144472415Y-74834762D02*
X144510510Y-74758571D01*
X144510510Y-74758571D02*
X144548605Y-74720476D01*
X144548605Y-74720476D02*
X144624796Y-74682381D01*
X144624796Y-74682381D02*
X144700986Y-74682381D01*
X144700986Y-74682381D02*
X144815272Y-74720476D01*
X144815272Y-74720476D02*
X145272415Y-75177619D01*
X145272415Y-75177619D02*
X145272415Y-74682381D01*
X144472415Y-74187142D02*
X144472415Y-74110952D01*
X144472415Y-74110952D02*
X144510510Y-74034761D01*
X144510510Y-74034761D02*
X144548605Y-73996666D01*
X144548605Y-73996666D02*
X144624796Y-73958571D01*
X144624796Y-73958571D02*
X144777177Y-73920476D01*
X144777177Y-73920476D02*
X144967653Y-73920476D01*
X144967653Y-73920476D02*
X145120034Y-73958571D01*
X145120034Y-73958571D02*
X145196224Y-73996666D01*
X145196224Y-73996666D02*
X145234320Y-74034761D01*
X145234320Y-74034761D02*
X145272415Y-74110952D01*
X145272415Y-74110952D02*
X145272415Y-74187142D01*
X145272415Y-74187142D02*
X145234320Y-74263333D01*
X145234320Y-74263333D02*
X145196224Y-74301428D01*
X145196224Y-74301428D02*
X145120034Y-74339523D01*
X145120034Y-74339523D02*
X144967653Y-74377619D01*
X144967653Y-74377619D02*
X144777177Y-74377619D01*
X144777177Y-74377619D02*
X144624796Y-74339523D01*
X144624796Y-74339523D02*
X144548605Y-74301428D01*
X144548605Y-74301428D02*
X144510510Y-74263333D01*
X144510510Y-74263333D02*
X144472415Y-74187142D01*
X167243415Y-116592285D02*
X166862462Y-116858952D01*
X167243415Y-117049428D02*
X166443415Y-117049428D01*
X166443415Y-117049428D02*
X166443415Y-116744666D01*
X166443415Y-116744666D02*
X166481510Y-116668476D01*
X166481510Y-116668476D02*
X166519605Y-116630381D01*
X166519605Y-116630381D02*
X166595796Y-116592285D01*
X166595796Y-116592285D02*
X166710081Y-116592285D01*
X166710081Y-116592285D02*
X166786272Y-116630381D01*
X166786272Y-116630381D02*
X166824367Y-116668476D01*
X166824367Y-116668476D02*
X166862462Y-116744666D01*
X166862462Y-116744666D02*
X166862462Y-117049428D01*
X167243415Y-115830381D02*
X167243415Y-116287524D01*
X167243415Y-116058952D02*
X166443415Y-116058952D01*
X166443415Y-116058952D02*
X166557700Y-116135143D01*
X166557700Y-116135143D02*
X166633891Y-116211333D01*
X166633891Y-116211333D02*
X166671986Y-116287524D01*
X166443415Y-115106571D02*
X166443415Y-115487523D01*
X166443415Y-115487523D02*
X166824367Y-115525619D01*
X166824367Y-115525619D02*
X166786272Y-115487523D01*
X166786272Y-115487523D02*
X166748177Y-115411333D01*
X166748177Y-115411333D02*
X166748177Y-115220857D01*
X166748177Y-115220857D02*
X166786272Y-115144666D01*
X166786272Y-115144666D02*
X166824367Y-115106571D01*
X166824367Y-115106571D02*
X166900558Y-115068476D01*
X166900558Y-115068476D02*
X167091034Y-115068476D01*
X167091034Y-115068476D02*
X167167224Y-115106571D01*
X167167224Y-115106571D02*
X167205320Y-115144666D01*
X167205320Y-115144666D02*
X167243415Y-115220857D01*
X167243415Y-115220857D02*
X167243415Y-115411333D01*
X167243415Y-115411333D02*
X167205320Y-115487523D01*
X167205320Y-115487523D02*
X167167224Y-115525619D01*
X146856524Y-82152415D02*
X146856524Y-81352415D01*
X146856524Y-81352415D02*
X147047000Y-81352415D01*
X147047000Y-81352415D02*
X147161286Y-81390510D01*
X147161286Y-81390510D02*
X147237476Y-81466700D01*
X147237476Y-81466700D02*
X147275571Y-81542891D01*
X147275571Y-81542891D02*
X147313667Y-81695272D01*
X147313667Y-81695272D02*
X147313667Y-81809558D01*
X147313667Y-81809558D02*
X147275571Y-81961939D01*
X147275571Y-81961939D02*
X147237476Y-82038129D01*
X147237476Y-82038129D02*
X147161286Y-82114320D01*
X147161286Y-82114320D02*
X147047000Y-82152415D01*
X147047000Y-82152415D02*
X146856524Y-82152415D01*
X147618428Y-81428605D02*
X147656524Y-81390510D01*
X147656524Y-81390510D02*
X147732714Y-81352415D01*
X147732714Y-81352415D02*
X147923190Y-81352415D01*
X147923190Y-81352415D02*
X147999381Y-81390510D01*
X147999381Y-81390510D02*
X148037476Y-81428605D01*
X148037476Y-81428605D02*
X148075571Y-81504796D01*
X148075571Y-81504796D02*
X148075571Y-81580986D01*
X148075571Y-81580986D02*
X148037476Y-81695272D01*
X148037476Y-81695272D02*
X147580333Y-82152415D01*
X147580333Y-82152415D02*
X148075571Y-82152415D01*
X151625333Y-64716415D02*
X151625333Y-65287843D01*
X151625333Y-65287843D02*
X151587238Y-65402129D01*
X151587238Y-65402129D02*
X151511047Y-65478320D01*
X151511047Y-65478320D02*
X151396762Y-65516415D01*
X151396762Y-65516415D02*
X151320571Y-65516415D01*
X151930095Y-64716415D02*
X152425333Y-64716415D01*
X152425333Y-64716415D02*
X152158667Y-65021177D01*
X152158667Y-65021177D02*
X152272952Y-65021177D01*
X152272952Y-65021177D02*
X152349143Y-65059272D01*
X152349143Y-65059272D02*
X152387238Y-65097367D01*
X152387238Y-65097367D02*
X152425333Y-65173558D01*
X152425333Y-65173558D02*
X152425333Y-65364034D01*
X152425333Y-65364034D02*
X152387238Y-65440224D01*
X152387238Y-65440224D02*
X152349143Y-65478320D01*
X152349143Y-65478320D02*
X152272952Y-65516415D01*
X152272952Y-65516415D02*
X152044381Y-65516415D01*
X152044381Y-65516415D02*
X151968190Y-65478320D01*
X151968190Y-65478320D02*
X151930095Y-65440224D01*
X162426667Y-112633415D02*
X162160000Y-112252462D01*
X161969524Y-112633415D02*
X161969524Y-111833415D01*
X161969524Y-111833415D02*
X162274286Y-111833415D01*
X162274286Y-111833415D02*
X162350476Y-111871510D01*
X162350476Y-111871510D02*
X162388571Y-111909605D01*
X162388571Y-111909605D02*
X162426667Y-111985796D01*
X162426667Y-111985796D02*
X162426667Y-112100081D01*
X162426667Y-112100081D02*
X162388571Y-112176272D01*
X162388571Y-112176272D02*
X162350476Y-112214367D01*
X162350476Y-112214367D02*
X162274286Y-112252462D01*
X162274286Y-112252462D02*
X161969524Y-112252462D01*
X162693333Y-111833415D02*
X163188571Y-111833415D01*
X163188571Y-111833415D02*
X162921905Y-112138177D01*
X162921905Y-112138177D02*
X163036190Y-112138177D01*
X163036190Y-112138177D02*
X163112381Y-112176272D01*
X163112381Y-112176272D02*
X163150476Y-112214367D01*
X163150476Y-112214367D02*
X163188571Y-112290558D01*
X163188571Y-112290558D02*
X163188571Y-112481034D01*
X163188571Y-112481034D02*
X163150476Y-112557224D01*
X163150476Y-112557224D02*
X163112381Y-112595320D01*
X163112381Y-112595320D02*
X163036190Y-112633415D01*
X163036190Y-112633415D02*
X162807619Y-112633415D01*
X162807619Y-112633415D02*
X162731428Y-112595320D01*
X162731428Y-112595320D02*
X162693333Y-112557224D01*
X148456667Y-112379415D02*
X148190000Y-111998462D01*
X147999524Y-112379415D02*
X147999524Y-111579415D01*
X147999524Y-111579415D02*
X148304286Y-111579415D01*
X148304286Y-111579415D02*
X148380476Y-111617510D01*
X148380476Y-111617510D02*
X148418571Y-111655605D01*
X148418571Y-111655605D02*
X148456667Y-111731796D01*
X148456667Y-111731796D02*
X148456667Y-111846081D01*
X148456667Y-111846081D02*
X148418571Y-111922272D01*
X148418571Y-111922272D02*
X148380476Y-111960367D01*
X148380476Y-111960367D02*
X148304286Y-111998462D01*
X148304286Y-111998462D02*
X147999524Y-111998462D01*
X149142381Y-111579415D02*
X148990000Y-111579415D01*
X148990000Y-111579415D02*
X148913809Y-111617510D01*
X148913809Y-111617510D02*
X148875714Y-111655605D01*
X148875714Y-111655605D02*
X148799524Y-111769891D01*
X148799524Y-111769891D02*
X148761428Y-111922272D01*
X148761428Y-111922272D02*
X148761428Y-112227034D01*
X148761428Y-112227034D02*
X148799524Y-112303224D01*
X148799524Y-112303224D02*
X148837619Y-112341320D01*
X148837619Y-112341320D02*
X148913809Y-112379415D01*
X148913809Y-112379415D02*
X149066190Y-112379415D01*
X149066190Y-112379415D02*
X149142381Y-112341320D01*
X149142381Y-112341320D02*
X149180476Y-112303224D01*
X149180476Y-112303224D02*
X149218571Y-112227034D01*
X149218571Y-112227034D02*
X149218571Y-112036558D01*
X149218571Y-112036558D02*
X149180476Y-111960367D01*
X149180476Y-111960367D02*
X149142381Y-111922272D01*
X149142381Y-111922272D02*
X149066190Y-111884177D01*
X149066190Y-111884177D02*
X148913809Y-111884177D01*
X148913809Y-111884177D02*
X148837619Y-111922272D01*
X148837619Y-111922272D02*
X148799524Y-111960367D01*
X148799524Y-111960367D02*
X148761428Y-112036558D01*
X144383415Y-111512332D02*
X144002462Y-111778999D01*
X144383415Y-111969475D02*
X143583415Y-111969475D01*
X143583415Y-111969475D02*
X143583415Y-111664713D01*
X143583415Y-111664713D02*
X143621510Y-111588523D01*
X143621510Y-111588523D02*
X143659605Y-111550428D01*
X143659605Y-111550428D02*
X143735796Y-111512332D01*
X143735796Y-111512332D02*
X143850081Y-111512332D01*
X143850081Y-111512332D02*
X143926272Y-111550428D01*
X143926272Y-111550428D02*
X143964367Y-111588523D01*
X143964367Y-111588523D02*
X144002462Y-111664713D01*
X144002462Y-111664713D02*
X144002462Y-111969475D01*
X143583415Y-111245666D02*
X143583415Y-110712332D01*
X143583415Y-110712332D02*
X144383415Y-111055190D01*
X147963385Y-119654832D02*
X147582432Y-119921499D01*
X147963385Y-120111975D02*
X147163385Y-120111975D01*
X147163385Y-120111975D02*
X147163385Y-119807213D01*
X147163385Y-119807213D02*
X147201480Y-119731023D01*
X147201480Y-119731023D02*
X147239575Y-119692928D01*
X147239575Y-119692928D02*
X147315766Y-119654832D01*
X147315766Y-119654832D02*
X147430051Y-119654832D01*
X147430051Y-119654832D02*
X147506242Y-119692928D01*
X147506242Y-119692928D02*
X147544337Y-119731023D01*
X147544337Y-119731023D02*
X147582432Y-119807213D01*
X147582432Y-119807213D02*
X147582432Y-120111975D01*
X147963385Y-119273880D02*
X147963385Y-119121499D01*
X147963385Y-119121499D02*
X147925290Y-119045309D01*
X147925290Y-119045309D02*
X147887194Y-119007213D01*
X147887194Y-119007213D02*
X147772909Y-118931023D01*
X147772909Y-118931023D02*
X147620528Y-118892928D01*
X147620528Y-118892928D02*
X147315766Y-118892928D01*
X147315766Y-118892928D02*
X147239575Y-118931023D01*
X147239575Y-118931023D02*
X147201480Y-118969118D01*
X147201480Y-118969118D02*
X147163385Y-119045309D01*
X147163385Y-119045309D02*
X147163385Y-119197690D01*
X147163385Y-119197690D02*
X147201480Y-119273880D01*
X147201480Y-119273880D02*
X147239575Y-119311975D01*
X147239575Y-119311975D02*
X147315766Y-119350071D01*
X147315766Y-119350071D02*
X147506242Y-119350071D01*
X147506242Y-119350071D02*
X147582432Y-119311975D01*
X147582432Y-119311975D02*
X147620528Y-119273880D01*
X147620528Y-119273880D02*
X147658623Y-119197690D01*
X147658623Y-119197690D02*
X147658623Y-119045309D01*
X147658623Y-119045309D02*
X147620528Y-118969118D01*
X147620528Y-118969118D02*
X147582432Y-118931023D01*
X147582432Y-118931023D02*
X147506242Y-118892928D01*
X168903714Y-80756415D02*
X168637047Y-80375462D01*
X168446571Y-80756415D02*
X168446571Y-79956415D01*
X168446571Y-79956415D02*
X168751333Y-79956415D01*
X168751333Y-79956415D02*
X168827523Y-79994510D01*
X168827523Y-79994510D02*
X168865618Y-80032605D01*
X168865618Y-80032605D02*
X168903714Y-80108796D01*
X168903714Y-80108796D02*
X168903714Y-80223081D01*
X168903714Y-80223081D02*
X168865618Y-80299272D01*
X168865618Y-80299272D02*
X168827523Y-80337367D01*
X168827523Y-80337367D02*
X168751333Y-80375462D01*
X168751333Y-80375462D02*
X168446571Y-80375462D01*
X169665618Y-80756415D02*
X169208475Y-80756415D01*
X169437047Y-80756415D02*
X169437047Y-79956415D01*
X169437047Y-79956415D02*
X169360856Y-80070700D01*
X169360856Y-80070700D02*
X169284666Y-80146891D01*
X169284666Y-80146891D02*
X169208475Y-80184986D01*
X170351333Y-79956415D02*
X170198952Y-79956415D01*
X170198952Y-79956415D02*
X170122761Y-79994510D01*
X170122761Y-79994510D02*
X170084666Y-80032605D01*
X170084666Y-80032605D02*
X170008476Y-80146891D01*
X170008476Y-80146891D02*
X169970380Y-80299272D01*
X169970380Y-80299272D02*
X169970380Y-80604034D01*
X169970380Y-80604034D02*
X170008476Y-80680224D01*
X170008476Y-80680224D02*
X170046571Y-80718320D01*
X170046571Y-80718320D02*
X170122761Y-80756415D01*
X170122761Y-80756415D02*
X170275142Y-80756415D01*
X170275142Y-80756415D02*
X170351333Y-80718320D01*
X170351333Y-80718320D02*
X170389428Y-80680224D01*
X170389428Y-80680224D02*
X170427523Y-80604034D01*
X170427523Y-80604034D02*
X170427523Y-80413558D01*
X170427523Y-80413558D02*
X170389428Y-80337367D01*
X170389428Y-80337367D02*
X170351333Y-80299272D01*
X170351333Y-80299272D02*
X170275142Y-80261177D01*
X170275142Y-80261177D02*
X170122761Y-80261177D01*
X170122761Y-80261177D02*
X170046571Y-80299272D01*
X170046571Y-80299272D02*
X170008476Y-80337367D01*
X170008476Y-80337367D02*
X169970380Y-80413558D01*
X171561415Y-118878285D02*
X171180462Y-119144952D01*
X171561415Y-119335428D02*
X170761415Y-119335428D01*
X170761415Y-119335428D02*
X170761415Y-119030666D01*
X170761415Y-119030666D02*
X170799510Y-118954476D01*
X170799510Y-118954476D02*
X170837605Y-118916381D01*
X170837605Y-118916381D02*
X170913796Y-118878285D01*
X170913796Y-118878285D02*
X171028081Y-118878285D01*
X171028081Y-118878285D02*
X171104272Y-118916381D01*
X171104272Y-118916381D02*
X171142367Y-118954476D01*
X171142367Y-118954476D02*
X171180462Y-119030666D01*
X171180462Y-119030666D02*
X171180462Y-119335428D01*
X171561415Y-118116381D02*
X171561415Y-118573524D01*
X171561415Y-118344952D02*
X170761415Y-118344952D01*
X170761415Y-118344952D02*
X170875700Y-118421143D01*
X170875700Y-118421143D02*
X170951891Y-118497333D01*
X170951891Y-118497333D02*
X170989986Y-118573524D01*
X170761415Y-117849714D02*
X170761415Y-117354476D01*
X170761415Y-117354476D02*
X171066177Y-117621142D01*
X171066177Y-117621142D02*
X171066177Y-117506857D01*
X171066177Y-117506857D02*
X171104272Y-117430666D01*
X171104272Y-117430666D02*
X171142367Y-117392571D01*
X171142367Y-117392571D02*
X171218558Y-117354476D01*
X171218558Y-117354476D02*
X171409034Y-117354476D01*
X171409034Y-117354476D02*
X171485224Y-117392571D01*
X171485224Y-117392571D02*
X171523320Y-117430666D01*
X171523320Y-117430666D02*
X171561415Y-117506857D01*
X171561415Y-117506857D02*
X171561415Y-117735428D01*
X171561415Y-117735428D02*
X171523320Y-117811619D01*
X171523320Y-117811619D02*
X171485224Y-117849714D01*
X144316524Y-82025415D02*
X144316524Y-81225415D01*
X144316524Y-81225415D02*
X144507000Y-81225415D01*
X144507000Y-81225415D02*
X144621286Y-81263510D01*
X144621286Y-81263510D02*
X144697476Y-81339700D01*
X144697476Y-81339700D02*
X144735571Y-81415891D01*
X144735571Y-81415891D02*
X144773667Y-81568272D01*
X144773667Y-81568272D02*
X144773667Y-81682558D01*
X144773667Y-81682558D02*
X144735571Y-81834939D01*
X144735571Y-81834939D02*
X144697476Y-81911129D01*
X144697476Y-81911129D02*
X144621286Y-81987320D01*
X144621286Y-81987320D02*
X144507000Y-82025415D01*
X144507000Y-82025415D02*
X144316524Y-82025415D01*
X145535571Y-82025415D02*
X145078428Y-82025415D01*
X145307000Y-82025415D02*
X145307000Y-81225415D01*
X145307000Y-81225415D02*
X145230809Y-81339700D01*
X145230809Y-81339700D02*
X145154619Y-81415891D01*
X145154619Y-81415891D02*
X145078428Y-81453986D01*
X161023333Y-86814415D02*
X161023333Y-87385843D01*
X161023333Y-87385843D02*
X160985238Y-87500129D01*
X160985238Y-87500129D02*
X160909047Y-87576320D01*
X160909047Y-87576320D02*
X160794762Y-87614415D01*
X160794762Y-87614415D02*
X160718571Y-87614415D01*
X161785238Y-86814415D02*
X161404286Y-86814415D01*
X161404286Y-86814415D02*
X161366190Y-87195367D01*
X161366190Y-87195367D02*
X161404286Y-87157272D01*
X161404286Y-87157272D02*
X161480476Y-87119177D01*
X161480476Y-87119177D02*
X161670952Y-87119177D01*
X161670952Y-87119177D02*
X161747143Y-87157272D01*
X161747143Y-87157272D02*
X161785238Y-87195367D01*
X161785238Y-87195367D02*
X161823333Y-87271558D01*
X161823333Y-87271558D02*
X161823333Y-87462034D01*
X161823333Y-87462034D02*
X161785238Y-87538224D01*
X161785238Y-87538224D02*
X161747143Y-87576320D01*
X161747143Y-87576320D02*
X161670952Y-87614415D01*
X161670952Y-87614415D02*
X161480476Y-87614415D01*
X161480476Y-87614415D02*
X161404286Y-87576320D01*
X161404286Y-87576320D02*
X161366190Y-87538224D01*
X148663415Y-93954523D02*
X149311034Y-93954523D01*
X149311034Y-93954523D02*
X149387224Y-93916428D01*
X149387224Y-93916428D02*
X149425320Y-93878333D01*
X149425320Y-93878333D02*
X149463415Y-93802142D01*
X149463415Y-93802142D02*
X149463415Y-93649761D01*
X149463415Y-93649761D02*
X149425320Y-93573571D01*
X149425320Y-93573571D02*
X149387224Y-93535476D01*
X149387224Y-93535476D02*
X149311034Y-93497380D01*
X149311034Y-93497380D02*
X148663415Y-93497380D01*
X148663415Y-93192619D02*
X148663415Y-92697381D01*
X148663415Y-92697381D02*
X148968177Y-92964047D01*
X148968177Y-92964047D02*
X148968177Y-92849762D01*
X148968177Y-92849762D02*
X149006272Y-92773571D01*
X149006272Y-92773571D02*
X149044367Y-92735476D01*
X149044367Y-92735476D02*
X149120558Y-92697381D01*
X149120558Y-92697381D02*
X149311034Y-92697381D01*
X149311034Y-92697381D02*
X149387224Y-92735476D01*
X149387224Y-92735476D02*
X149425320Y-92773571D01*
X149425320Y-92773571D02*
X149463415Y-92849762D01*
X149463415Y-92849762D02*
X149463415Y-93078333D01*
X149463415Y-93078333D02*
X149425320Y-93154524D01*
X149425320Y-93154524D02*
X149387224Y-93192619D01*
X173339415Y-111639285D02*
X172958462Y-111905952D01*
X173339415Y-112096428D02*
X172539415Y-112096428D01*
X172539415Y-112096428D02*
X172539415Y-111791666D01*
X172539415Y-111791666D02*
X172577510Y-111715476D01*
X172577510Y-111715476D02*
X172615605Y-111677381D01*
X172615605Y-111677381D02*
X172691796Y-111639285D01*
X172691796Y-111639285D02*
X172806081Y-111639285D01*
X172806081Y-111639285D02*
X172882272Y-111677381D01*
X172882272Y-111677381D02*
X172920367Y-111715476D01*
X172920367Y-111715476D02*
X172958462Y-111791666D01*
X172958462Y-111791666D02*
X172958462Y-112096428D01*
X173339415Y-110877381D02*
X173339415Y-111334524D01*
X173339415Y-111105952D02*
X172539415Y-111105952D01*
X172539415Y-111105952D02*
X172653700Y-111182143D01*
X172653700Y-111182143D02*
X172729891Y-111258333D01*
X172729891Y-111258333D02*
X172767986Y-111334524D01*
X172615605Y-110572619D02*
X172577510Y-110534523D01*
X172577510Y-110534523D02*
X172539415Y-110458333D01*
X172539415Y-110458333D02*
X172539415Y-110267857D01*
X172539415Y-110267857D02*
X172577510Y-110191666D01*
X172577510Y-110191666D02*
X172615605Y-110153571D01*
X172615605Y-110153571D02*
X172691796Y-110115476D01*
X172691796Y-110115476D02*
X172767986Y-110115476D01*
X172767986Y-110115476D02*
X172882272Y-110153571D01*
X172882272Y-110153571D02*
X173339415Y-110610714D01*
X173339415Y-110610714D02*
X173339415Y-110115476D01*
X152117184Y-112472415D02*
X151850517Y-112091462D01*
X151660041Y-112472415D02*
X151660041Y-111672415D01*
X151660041Y-111672415D02*
X151964803Y-111672415D01*
X151964803Y-111672415D02*
X152040993Y-111710510D01*
X152040993Y-111710510D02*
X152079088Y-111748605D01*
X152079088Y-111748605D02*
X152117184Y-111824796D01*
X152117184Y-111824796D02*
X152117184Y-111939081D01*
X152117184Y-111939081D02*
X152079088Y-112015272D01*
X152079088Y-112015272D02*
X152040993Y-112053367D01*
X152040993Y-112053367D02*
X151964803Y-112091462D01*
X151964803Y-112091462D02*
X151660041Y-112091462D01*
X152879088Y-112472415D02*
X152421945Y-112472415D01*
X152650517Y-112472415D02*
X152650517Y-111672415D01*
X152650517Y-111672415D02*
X152574326Y-111786700D01*
X152574326Y-111786700D02*
X152498136Y-111862891D01*
X152498136Y-111862891D02*
X152421945Y-111900986D01*
X153260041Y-112472415D02*
X153412422Y-112472415D01*
X153412422Y-112472415D02*
X153488612Y-112434320D01*
X153488612Y-112434320D02*
X153526708Y-112396224D01*
X153526708Y-112396224D02*
X153602898Y-112281939D01*
X153602898Y-112281939D02*
X153640993Y-112129558D01*
X153640993Y-112129558D02*
X153640993Y-111824796D01*
X153640993Y-111824796D02*
X153602898Y-111748605D01*
X153602898Y-111748605D02*
X153564803Y-111710510D01*
X153564803Y-111710510D02*
X153488612Y-111672415D01*
X153488612Y-111672415D02*
X153336231Y-111672415D01*
X153336231Y-111672415D02*
X153260041Y-111710510D01*
X153260041Y-111710510D02*
X153221946Y-111748605D01*
X153221946Y-111748605D02*
X153183850Y-111824796D01*
X153183850Y-111824796D02*
X153183850Y-112015272D01*
X153183850Y-112015272D02*
X153221946Y-112091462D01*
X153221946Y-112091462D02*
X153260041Y-112129558D01*
X153260041Y-112129558D02*
X153336231Y-112167653D01*
X153336231Y-112167653D02*
X153488612Y-112167653D01*
X153488612Y-112167653D02*
X153564803Y-112129558D01*
X153564803Y-112129558D02*
X153602898Y-112091462D01*
X153602898Y-112091462D02*
X153640993Y-112015272D01*
X143837415Y-91598666D02*
X144408843Y-91598666D01*
X144408843Y-91598666D02*
X144523129Y-91636761D01*
X144523129Y-91636761D02*
X144599320Y-91712952D01*
X144599320Y-91712952D02*
X144637415Y-91827237D01*
X144637415Y-91827237D02*
X144637415Y-91903428D01*
X144637415Y-91217713D02*
X143837415Y-91217713D01*
X143837415Y-91217713D02*
X143837415Y-90912951D01*
X143837415Y-90912951D02*
X143875510Y-90836761D01*
X143875510Y-90836761D02*
X143913605Y-90798666D01*
X143913605Y-90798666D02*
X143989796Y-90760570D01*
X143989796Y-90760570D02*
X144104081Y-90760570D01*
X144104081Y-90760570D02*
X144180272Y-90798666D01*
X144180272Y-90798666D02*
X144218367Y-90836761D01*
X144218367Y-90836761D02*
X144256462Y-90912951D01*
X144256462Y-90912951D02*
X144256462Y-91217713D01*
X143913605Y-90455809D02*
X143875510Y-90417713D01*
X143875510Y-90417713D02*
X143837415Y-90341523D01*
X143837415Y-90341523D02*
X143837415Y-90151047D01*
X143837415Y-90151047D02*
X143875510Y-90074856D01*
X143875510Y-90074856D02*
X143913605Y-90036761D01*
X143913605Y-90036761D02*
X143989796Y-89998666D01*
X143989796Y-89998666D02*
X144065986Y-89998666D01*
X144065986Y-89998666D02*
X144180272Y-90036761D01*
X144180272Y-90036761D02*
X144637415Y-90493904D01*
X144637415Y-90493904D02*
X144637415Y-89998666D01*
X143837415Y-88804666D02*
X144408843Y-88804666D01*
X144408843Y-88804666D02*
X144523129Y-88842761D01*
X144523129Y-88842761D02*
X144599320Y-88918952D01*
X144599320Y-88918952D02*
X144637415Y-89033237D01*
X144637415Y-89033237D02*
X144637415Y-89109428D01*
X144637415Y-88423713D02*
X143837415Y-88423713D01*
X143837415Y-88423713D02*
X143837415Y-88118951D01*
X143837415Y-88118951D02*
X143875510Y-88042761D01*
X143875510Y-88042761D02*
X143913605Y-88004666D01*
X143913605Y-88004666D02*
X143989796Y-87966570D01*
X143989796Y-87966570D02*
X144104081Y-87966570D01*
X144104081Y-87966570D02*
X144180272Y-88004666D01*
X144180272Y-88004666D02*
X144218367Y-88042761D01*
X144218367Y-88042761D02*
X144256462Y-88118951D01*
X144256462Y-88118951D02*
X144256462Y-88423713D01*
X144637415Y-87204666D02*
X144637415Y-87661809D01*
X144637415Y-87433237D02*
X143837415Y-87433237D01*
X143837415Y-87433237D02*
X143951700Y-87509428D01*
X143951700Y-87509428D02*
X144027891Y-87585618D01*
X144027891Y-87585618D02*
X144065986Y-87661809D01*
X157346714Y-112506415D02*
X157080047Y-112125462D01*
X156889571Y-112506415D02*
X156889571Y-111706415D01*
X156889571Y-111706415D02*
X157194333Y-111706415D01*
X157194333Y-111706415D02*
X157270523Y-111744510D01*
X157270523Y-111744510D02*
X157308618Y-111782605D01*
X157308618Y-111782605D02*
X157346714Y-111858796D01*
X157346714Y-111858796D02*
X157346714Y-111973081D01*
X157346714Y-111973081D02*
X157308618Y-112049272D01*
X157308618Y-112049272D02*
X157270523Y-112087367D01*
X157270523Y-112087367D02*
X157194333Y-112125462D01*
X157194333Y-112125462D02*
X156889571Y-112125462D01*
X157651475Y-111782605D02*
X157689571Y-111744510D01*
X157689571Y-111744510D02*
X157765761Y-111706415D01*
X157765761Y-111706415D02*
X157956237Y-111706415D01*
X157956237Y-111706415D02*
X158032428Y-111744510D01*
X158032428Y-111744510D02*
X158070523Y-111782605D01*
X158070523Y-111782605D02*
X158108618Y-111858796D01*
X158108618Y-111858796D02*
X158108618Y-111934986D01*
X158108618Y-111934986D02*
X158070523Y-112049272D01*
X158070523Y-112049272D02*
X157613380Y-112506415D01*
X157613380Y-112506415D02*
X158108618Y-112506415D01*
X158413380Y-111782605D02*
X158451476Y-111744510D01*
X158451476Y-111744510D02*
X158527666Y-111706415D01*
X158527666Y-111706415D02*
X158718142Y-111706415D01*
X158718142Y-111706415D02*
X158794333Y-111744510D01*
X158794333Y-111744510D02*
X158832428Y-111782605D01*
X158832428Y-111782605D02*
X158870523Y-111858796D01*
X158870523Y-111858796D02*
X158870523Y-111934986D01*
X158870523Y-111934986D02*
X158832428Y-112049272D01*
X158832428Y-112049272D02*
X158375285Y-112506415D01*
X158375285Y-112506415D02*
X158870523Y-112506415D01*
X147431415Y-75317285D02*
X147050462Y-75583952D01*
X147431415Y-75774428D02*
X146631415Y-75774428D01*
X146631415Y-75774428D02*
X146631415Y-75469666D01*
X146631415Y-75469666D02*
X146669510Y-75393476D01*
X146669510Y-75393476D02*
X146707605Y-75355381D01*
X146707605Y-75355381D02*
X146783796Y-75317285D01*
X146783796Y-75317285D02*
X146898081Y-75317285D01*
X146898081Y-75317285D02*
X146974272Y-75355381D01*
X146974272Y-75355381D02*
X147012367Y-75393476D01*
X147012367Y-75393476D02*
X147050462Y-75469666D01*
X147050462Y-75469666D02*
X147050462Y-75774428D01*
X146707605Y-75012524D02*
X146669510Y-74974428D01*
X146669510Y-74974428D02*
X146631415Y-74898238D01*
X146631415Y-74898238D02*
X146631415Y-74707762D01*
X146631415Y-74707762D02*
X146669510Y-74631571D01*
X146669510Y-74631571D02*
X146707605Y-74593476D01*
X146707605Y-74593476D02*
X146783796Y-74555381D01*
X146783796Y-74555381D02*
X146859986Y-74555381D01*
X146859986Y-74555381D02*
X146974272Y-74593476D01*
X146974272Y-74593476D02*
X147431415Y-75050619D01*
X147431415Y-75050619D02*
X147431415Y-74555381D01*
X147431415Y-73793476D02*
X147431415Y-74250619D01*
X147431415Y-74022047D02*
X146631415Y-74022047D01*
X146631415Y-74022047D02*
X146745700Y-74098238D01*
X146745700Y-74098238D02*
X146821891Y-74174428D01*
X146821891Y-74174428D02*
X146859986Y-74250619D01*
X146669415Y-83699332D02*
X146288462Y-83965999D01*
X146669415Y-84156475D02*
X145869415Y-84156475D01*
X145869415Y-84156475D02*
X145869415Y-83851713D01*
X145869415Y-83851713D02*
X145907510Y-83775523D01*
X145907510Y-83775523D02*
X145945605Y-83737428D01*
X145945605Y-83737428D02*
X146021796Y-83699332D01*
X146021796Y-83699332D02*
X146136081Y-83699332D01*
X146136081Y-83699332D02*
X146212272Y-83737428D01*
X146212272Y-83737428D02*
X146250367Y-83775523D01*
X146250367Y-83775523D02*
X146288462Y-83851713D01*
X146288462Y-83851713D02*
X146288462Y-84156475D01*
X146669415Y-82937428D02*
X146669415Y-83394571D01*
X146669415Y-83165999D02*
X145869415Y-83165999D01*
X145869415Y-83165999D02*
X145983700Y-83242190D01*
X145983700Y-83242190D02*
X146059891Y-83318380D01*
X146059891Y-83318380D02*
X146097986Y-83394571D01*
X171504714Y-80756415D02*
X171238047Y-80375462D01*
X171047571Y-80756415D02*
X171047571Y-79956415D01*
X171047571Y-79956415D02*
X171352333Y-79956415D01*
X171352333Y-79956415D02*
X171428523Y-79994510D01*
X171428523Y-79994510D02*
X171466618Y-80032605D01*
X171466618Y-80032605D02*
X171504714Y-80108796D01*
X171504714Y-80108796D02*
X171504714Y-80223081D01*
X171504714Y-80223081D02*
X171466618Y-80299272D01*
X171466618Y-80299272D02*
X171428523Y-80337367D01*
X171428523Y-80337367D02*
X171352333Y-80375462D01*
X171352333Y-80375462D02*
X171047571Y-80375462D01*
X172266618Y-80756415D02*
X171809475Y-80756415D01*
X172038047Y-80756415D02*
X172038047Y-79956415D01*
X172038047Y-79956415D02*
X171961856Y-80070700D01*
X171961856Y-80070700D02*
X171885666Y-80146891D01*
X171885666Y-80146891D02*
X171809475Y-80184986D01*
X172723761Y-80299272D02*
X172647571Y-80261177D01*
X172647571Y-80261177D02*
X172609476Y-80223081D01*
X172609476Y-80223081D02*
X172571380Y-80146891D01*
X172571380Y-80146891D02*
X172571380Y-80108796D01*
X172571380Y-80108796D02*
X172609476Y-80032605D01*
X172609476Y-80032605D02*
X172647571Y-79994510D01*
X172647571Y-79994510D02*
X172723761Y-79956415D01*
X172723761Y-79956415D02*
X172876142Y-79956415D01*
X172876142Y-79956415D02*
X172952333Y-79994510D01*
X172952333Y-79994510D02*
X172990428Y-80032605D01*
X172990428Y-80032605D02*
X173028523Y-80108796D01*
X173028523Y-80108796D02*
X173028523Y-80146891D01*
X173028523Y-80146891D02*
X172990428Y-80223081D01*
X172990428Y-80223081D02*
X172952333Y-80261177D01*
X172952333Y-80261177D02*
X172876142Y-80299272D01*
X172876142Y-80299272D02*
X172723761Y-80299272D01*
X172723761Y-80299272D02*
X172647571Y-80337367D01*
X172647571Y-80337367D02*
X172609476Y-80375462D01*
X172609476Y-80375462D02*
X172571380Y-80451653D01*
X172571380Y-80451653D02*
X172571380Y-80604034D01*
X172571380Y-80604034D02*
X172609476Y-80680224D01*
X172609476Y-80680224D02*
X172647571Y-80718320D01*
X172647571Y-80718320D02*
X172723761Y-80756415D01*
X172723761Y-80756415D02*
X172876142Y-80756415D01*
X172876142Y-80756415D02*
X172952333Y-80718320D01*
X172952333Y-80718320D02*
X172990428Y-80680224D01*
X172990428Y-80680224D02*
X173028523Y-80604034D01*
X173028523Y-80604034D02*
X173028523Y-80451653D01*
X173028523Y-80451653D02*
X172990428Y-80375462D01*
X172990428Y-80375462D02*
X172952333Y-80337367D01*
X172952333Y-80337367D02*
X172876142Y-80299272D01*
%TO.C,R11*%
D13*
X167359064Y-109628000D02*
X166904936Y-109628000D01*
X167359064Y-111098000D02*
X166904936Y-111098000D01*
%TO.C,BZ1*%
X172343000Y-96774000D02*
G75*
G02*
X160143000Y-96774000I-6100000J0D01*
G01*
X160143000Y-96774000D02*
G75*
G02*
X172343000Y-96774000I6100000J0D01*
G01*
%TO.C,J4*%
X170417000Y-82629000D02*
X170417000Y-81424000D01*
X170910292Y-82629000D02*
X170417000Y-82629000D01*
X171259077Y-81424000D02*
X170417000Y-81424000D01*
X172737000Y-81424000D02*
X171894923Y-81424000D01*
X172737000Y-82629000D02*
X172243708Y-82629000D01*
X172737000Y-82629000D02*
X172737000Y-81424000D01*
X172737000Y-83439000D02*
X172737000Y-84249000D01*
X172737000Y-84249000D02*
X171577000Y-84249000D01*
%TO.C,Q2*%
X169189000Y-73353000D02*
X169239000Y-73353000D01*
X169189000Y-74873000D02*
X169189000Y-73353000D01*
X170189000Y-74873000D02*
X169189000Y-74873000D01*
X170359000Y-73353000D02*
X171139000Y-73353000D01*
X172259000Y-73353000D02*
X172309000Y-73353000D01*
X172309000Y-73353000D02*
X172309000Y-74873000D01*
X172309000Y-74873000D02*
X171309000Y-74873000D01*
X171129000Y-72813000D02*
X170799000Y-73053000D01*
X170799000Y-72573000D01*
X171129000Y-72813000D01*
G36*
X171129000Y-72813000D02*
G01*
X170799000Y-73053000D01*
X170799000Y-72573000D01*
X171129000Y-72813000D01*
G37*
%TO.C,R4*%
X151284000Y-89331436D02*
X151284000Y-89785564D01*
X152754000Y-89331436D02*
X152754000Y-89785564D01*
%TO.C,J8*%
X170417000Y-85296000D02*
X171577000Y-85296000D01*
X170417000Y-86106000D02*
X170417000Y-85296000D01*
X170417000Y-86916000D02*
X170417000Y-89391000D01*
X170417000Y-86916000D02*
X170910292Y-86916000D01*
X170417000Y-89391000D02*
X171259077Y-89391000D01*
X171894923Y-89391000D02*
X172737000Y-89391000D01*
X172243708Y-86916000D02*
X172737000Y-86916000D01*
X172737000Y-86916000D02*
X172737000Y-89391000D01*
%TO.C,R23*%
X157253000Y-98451936D02*
X157253000Y-98906064D01*
X158723000Y-98451936D02*
X158723000Y-98906064D01*
%TO.C,R8*%
X144703970Y-115162064D02*
X144703970Y-114707936D01*
X146173970Y-115162064D02*
X146173970Y-114707936D01*
%TO.C,R17*%
X170587936Y-70154500D02*
X171042064Y-70154500D01*
X170587936Y-71624500D02*
X171042064Y-71624500D01*
%TO.C,Q1*%
X149570000Y-95252000D02*
X149620000Y-95252000D01*
X149570000Y-96772000D02*
X149570000Y-95252000D01*
X150570000Y-96772000D02*
X149570000Y-96772000D01*
X150740000Y-95252000D02*
X151520000Y-95252000D01*
X152640000Y-95252000D02*
X152690000Y-95252000D01*
X152690000Y-95252000D02*
X152690000Y-96772000D01*
X152690000Y-96772000D02*
X151690000Y-96772000D01*
X151510000Y-94712000D02*
X151180000Y-94952000D01*
X151180000Y-94472000D01*
X151510000Y-94712000D01*
G36*
X151510000Y-94712000D02*
G01*
X151180000Y-94952000D01*
X151180000Y-94472000D01*
X151510000Y-94712000D01*
G37*
%TO.C,R14*%
X168302000Y-117448064D02*
X168302000Y-116993936D01*
X169772000Y-117448064D02*
X169772000Y-116993936D01*
%TO.C,C1*%
X147134252Y-96420000D02*
X146611748Y-96420000D01*
X147134252Y-97890000D02*
X146611748Y-97890000D01*
%TO.C,R5*%
X150402064Y-99214000D02*
X149947936Y-99214000D01*
X150402064Y-100684000D02*
X149947936Y-100684000D01*
%TO.C,R2*%
X157253000Y-95350064D02*
X157253000Y-94895936D01*
X158723000Y-95350064D02*
X158723000Y-94895936D01*
%TO.C,R10*%
X149148970Y-119099064D02*
X149148970Y-118644936D01*
X150618970Y-119099064D02*
X150618970Y-118644936D01*
%TO.C,SW1*%
X148243000Y-101883000D02*
X148243000Y-103318000D01*
X148243000Y-108683000D02*
X148243000Y-107248000D01*
X153763000Y-101883000D02*
X148243000Y-101883000D01*
X153763000Y-101883000D02*
X153763000Y-103318000D01*
X153763000Y-108683000D02*
X148243000Y-108683000D01*
X153763000Y-108683000D02*
X153763000Y-107868000D01*
X155448000Y-107868000D02*
X153763000Y-107868000D01*
%TO.C,R20*%
X144045000Y-72132564D02*
X144045000Y-71678436D01*
X145515000Y-72132564D02*
X145515000Y-71678436D01*
%TO.C,R15*%
X166016000Y-119329564D02*
X166016000Y-118875436D01*
X167486000Y-119329564D02*
X167486000Y-118875436D01*
%TO.C,D2*%
X146447000Y-76253000D02*
X146447000Y-80263000D01*
X148447000Y-76253000D02*
X146447000Y-76253000D01*
X148447000Y-76253000D02*
X148447000Y-80263000D01*
%TO.C,R3*%
X162332936Y-109628000D02*
X162787064Y-109628000D01*
X162332936Y-111098000D02*
X162787064Y-111098000D01*
%TO.C,R6*%
X148386906Y-109628000D02*
X148841034Y-109628000D01*
X148386906Y-111098000D02*
X148841034Y-111098000D01*
%TO.C,R7*%
X144703970Y-111479064D02*
X144703970Y-111024936D01*
X146173970Y-111479064D02*
X146173970Y-111024936D01*
%TO.C,R9*%
X146862970Y-117194064D02*
X146862970Y-116739936D01*
X148332970Y-117194064D02*
X148332970Y-116739936D01*
%TO.C,R16*%
X168937000Y-78228564D02*
X168937000Y-77774436D01*
X170407000Y-78228564D02*
X170407000Y-77774436D01*
%TO.C,R13*%
X170461000Y-115670064D02*
X170461000Y-115215936D01*
X171931000Y-115670064D02*
X171931000Y-115215936D01*
%TO.C,D1*%
X143907000Y-80973000D02*
X143907000Y-76963000D01*
X143907000Y-80973000D02*
X145907000Y-80973000D01*
X145907000Y-80973000D02*
X145907000Y-76963000D01*
%TO.C,U3*%
X145252000Y-93298500D02*
X146252000Y-93298500D01*
X145252000Y-94818500D02*
X145252000Y-93298500D01*
X145302000Y-94818500D02*
X145252000Y-94818500D01*
X147202000Y-94818500D02*
X146422000Y-94818500D01*
X147372000Y-93298500D02*
X148372000Y-93298500D01*
X148372000Y-93298500D02*
X148372000Y-94818500D01*
X148372000Y-94818500D02*
X148322000Y-94818500D01*
X146762000Y-95598500D02*
X146432000Y-95358500D01*
X146762000Y-95118500D01*
X146762000Y-95598500D01*
G36*
X146762000Y-95598500D02*
G01*
X146432000Y-95358500D01*
X146762000Y-95118500D01*
X146762000Y-95598500D01*
G37*
%TO.C,R12*%
X170461000Y-111479064D02*
X170461000Y-111024936D01*
X171931000Y-111479064D02*
X171931000Y-111024936D01*
%TO.C,R19*%
X152196906Y-109628000D02*
X152651034Y-109628000D01*
X152196906Y-111098000D02*
X152651034Y-111098000D01*
%TO.C,JP2*%
X145412000Y-89805000D02*
X148212000Y-89805000D01*
X145412000Y-91805000D02*
X145412000Y-89805000D01*
X148212000Y-89805000D02*
X148212000Y-91805000D01*
X148212000Y-91805000D02*
X145412000Y-91805000D01*
%TO.C,JP1*%
X145427000Y-87138000D02*
X148227000Y-87138000D01*
X145427000Y-89138000D02*
X145427000Y-87138000D01*
X148227000Y-87138000D02*
X148227000Y-89138000D01*
X148227000Y-89138000D02*
X145427000Y-89138000D01*
%TO.C,R22*%
X157633936Y-109628000D02*
X158088064Y-109628000D01*
X157633936Y-111098000D02*
X158088064Y-111098000D01*
%TO.C,R21*%
X146204000Y-72132564D02*
X146204000Y-71678436D01*
X147674000Y-72132564D02*
X147674000Y-71678436D01*
%TO.C,R1*%
X147093000Y-84481936D02*
X147093000Y-84936064D01*
X148563000Y-84481936D02*
X148563000Y-84936064D01*
%TO.C,R18*%
X171223000Y-77774436D02*
X171223000Y-78228564D01*
X172693000Y-77774436D02*
X172693000Y-78228564D01*
%TD*%
%LPC*%
%TO.C,JP2*%
G36*
X145587000Y-90055000D02*
G01*
X148037000Y-90055000D01*
X148037000Y-91555000D01*
X145587000Y-91555000D01*
X145587000Y-90055000D01*
G37*
%TO.C,JP1*%
G36*
X146677000Y-87388000D02*
G01*
X146977000Y-87388000D01*
X146977000Y-88888000D01*
X146677000Y-88888000D01*
X146677000Y-87388000D01*
G37*
%TD*%
D14*
%TO.C,R11*%
X168044500Y-110363000D03*
X166219500Y-110363000D03*
%TD*%
D15*
%TO.C,J2*%
X163322000Y-120015000D03*
%TD*%
D16*
%TO.C,BZ1*%
X162443000Y-96774000D03*
D17*
X170043000Y-96774000D03*
%TD*%
D18*
%TO.C,J4*%
X171577000Y-83439000D03*
D19*
X171577000Y-82169000D03*
%TD*%
D20*
%TO.C,Q2*%
X171699000Y-73175500D03*
X169799000Y-73175500D03*
X170749000Y-75050500D03*
%TD*%
D21*
%TO.C,R4*%
X152019000Y-88646000D03*
X152019000Y-90471000D03*
%TD*%
D22*
%TO.C,J6*%
X165989000Y-67691000D03*
D23*
X165989000Y-70231000D03*
X165989000Y-72771000D03*
X165989000Y-75311000D03*
X165989000Y-77851000D03*
X165989000Y-80391000D03*
X165989000Y-82931000D03*
%TD*%
D18*
%TO.C,J8*%
X171577000Y-86106000D03*
D19*
X171577000Y-87376000D03*
X171577000Y-88646000D03*
%TD*%
D21*
%TO.C,R23*%
X157988000Y-97766500D03*
X157988000Y-99591500D03*
%TD*%
D24*
%TO.C,H3*%
X145883470Y-122301000D03*
%TD*%
D25*
%TO.C,R8*%
X145438970Y-115847500D03*
X145438970Y-114022500D03*
%TD*%
D26*
%TO.C,R17*%
X169902500Y-70889500D03*
X171727500Y-70889500D03*
%TD*%
D15*
%TO.C,J1*%
X153185970Y-120015000D03*
%TD*%
D20*
%TO.C,Q1*%
X152080000Y-95074500D03*
X150180000Y-95074500D03*
X151130000Y-96949500D03*
%TD*%
D25*
%TO.C,R14*%
X169037000Y-118133500D03*
X169037000Y-116308500D03*
%TD*%
D24*
%TO.C,H4*%
X170521470Y-122301000D03*
%TD*%
%TO.C,H2*%
X170561000Y-66802000D03*
%TD*%
D27*
%TO.C,C1*%
X147823000Y-97155000D03*
X145923000Y-97155000D03*
%TD*%
D14*
%TO.C,R5*%
X151087500Y-99949000D03*
X149262500Y-99949000D03*
%TD*%
D25*
%TO.C,R2*%
X157988000Y-96035500D03*
X157988000Y-94210500D03*
%TD*%
%TO.C,R10*%
X149883970Y-119784500D03*
X149883970Y-117959500D03*
%TD*%
D28*
%TO.C,SW1*%
X154813000Y-107188000D03*
X154813000Y-105918000D03*
X154813000Y-104648000D03*
X154813000Y-103378000D03*
X147193000Y-103378000D03*
X147193000Y-104648000D03*
X147193000Y-105918000D03*
X147193000Y-107188000D03*
%TD*%
D25*
%TO.C,R20*%
X144780000Y-72818000D03*
X144780000Y-70993000D03*
%TD*%
%TO.C,R15*%
X166751000Y-120015000D03*
X166751000Y-118190000D03*
%TD*%
D29*
%TO.C,D2*%
X147447000Y-76963000D03*
X147447000Y-80263000D03*
%TD*%
D22*
%TO.C,J3*%
X150749000Y-67691000D03*
D23*
X150749000Y-70231000D03*
X150749000Y-72771000D03*
X150749000Y-75311000D03*
X150749000Y-77851000D03*
X150749000Y-80391000D03*
X150749000Y-82931000D03*
%TD*%
D26*
%TO.C,R3*%
X161647500Y-110363000D03*
X163472500Y-110363000D03*
%TD*%
%TO.C,R6*%
X147701470Y-110363000D03*
X149526470Y-110363000D03*
%TD*%
D25*
%TO.C,R7*%
X145438970Y-112164500D03*
X145438970Y-110339500D03*
%TD*%
D24*
%TO.C,H1*%
X145923000Y-66802000D03*
%TD*%
D25*
%TO.C,R9*%
X147597970Y-117879500D03*
X147597970Y-116054500D03*
%TD*%
%TO.C,R16*%
X169672000Y-78914000D03*
X169672000Y-77089000D03*
%TD*%
%TO.C,R13*%
X171196000Y-116355500D03*
X171196000Y-114530500D03*
%TD*%
D30*
%TO.C,D1*%
X144907000Y-80263000D03*
X144907000Y-76963000D03*
%TD*%
D31*
%TO.C,J5*%
X158623000Y-87884000D03*
%TD*%
D32*
%TO.C,U3*%
X145862000Y-94996000D03*
X147762000Y-94996000D03*
X146812000Y-93121000D03*
%TD*%
D25*
%TO.C,R12*%
X171196000Y-112164500D03*
X171196000Y-110339500D03*
%TD*%
D26*
%TO.C,R19*%
X151511470Y-110363000D03*
X153336470Y-110363000D03*
%TD*%
D33*
%TO.C,JP2*%
X146087000Y-90805000D03*
D34*
X147537000Y-90805000D03*
%TD*%
D35*
%TO.C,JP1*%
X147477000Y-88138000D03*
X146177000Y-88138000D03*
%TD*%
D26*
%TO.C,R22*%
X156948500Y-110363000D03*
X158773500Y-110363000D03*
%TD*%
D25*
%TO.C,R21*%
X146939000Y-72818000D03*
X146939000Y-70993000D03*
%TD*%
D21*
%TO.C,R1*%
X147828000Y-83796500D03*
X147828000Y-85621500D03*
%TD*%
%TO.C,R18*%
X171958000Y-77089000D03*
X171958000Y-78914000D03*
%TD*%
%LPD*%
M02*
