%TF.GenerationSoftware,KiCad,Pcbnew,10.0.0*%
%TF.CreationDate,2026-07-05T21:12:55-05:00*%
%TF.ProjectId,OpenLead_Headless_V2,4f70656e-4c65-4616-945f-486561646c65,rev?*%
%TF.SameCoordinates,Original*%
%TF.FileFunction,Copper,L1,Top*%
%TF.FilePolarity,Positive*%
%FSLAX46Y46*%
G04 Gerber Fmt 4.6, Leading zero omitted, Abs format (unit mm)*
G04 Created by KiCad (PCBNEW 10.0.0) date 2026-07-05 21:12:55*
%MOMM*%
%LPD*%
G01*
G04 APERTURE LIST*
G04 Aperture macros list*
%AMRoundRect*
0 Rectangle with rounded corners*
0 $1 Rounding radius*
0 $2 $3 $4 $5 $6 $7 $8 $9 X,Y pos of 4 corners*
0 Add a 4 corners polygon primitive as box body*
4,1,4,$2,$3,$4,$5,$6,$7,$8,$9,$2,$3,0*
0 Add four circle primitives for the rounded corners*
1,1,$1+$1,$2,$3*
1,1,$1+$1,$4,$5*
1,1,$1+$1,$6,$7*
1,1,$1+$1,$8,$9*
0 Add four rect primitives between the rounded corners*
20,1,$1+$1,$2,$3,$4,$5,0*
20,1,$1+$1,$4,$5,$6,$7,0*
20,1,$1+$1,$6,$7,$8,$9,0*
20,1,$1+$1,$8,$9,$2,$3,0*%
%AMFreePoly0*
4,1,6,1.000000,0.000000,0.500000,-0.750000,-0.500000,-0.750000,-0.500000,0.750000,0.500000,0.750000,1.000000,0.000000,1.000000,0.000000,$1*%
%AMFreePoly1*
4,1,6,0.500000,-0.750000,-0.650000,-0.750000,-0.150000,0.000000,-0.650000,0.750000,0.500000,0.750000,0.500000,-0.750000,0.500000,-0.750000,$1*%
G04 Aperture macros list end*
%TA.AperFunction,EtchedComponent*%
%ADD10C,0.000000*%
%TD*%
%TA.AperFunction,SMDPad,CuDef*%
%ADD11RoundRect,0.250000X0.262500X0.450000X-0.262500X0.450000X-0.262500X-0.450000X0.262500X-0.450000X0*%
%TD*%
%TA.AperFunction,ComponentPad*%
%ADD12RoundRect,0.250000X1.050000X-1.050000X1.050000X1.050000X-1.050000X1.050000X-1.050000X-1.050000X0*%
%TD*%
%TA.AperFunction,ComponentPad*%
%ADD13R,2.000000X2.000000*%
%TD*%
%TA.AperFunction,ComponentPad*%
%ADD14C,2.000000*%
%TD*%
%TA.AperFunction,ComponentPad*%
%ADD15R,1.000000X1.000000*%
%TD*%
%TA.AperFunction,ComponentPad*%
%ADD16C,1.000000*%
%TD*%
%TA.AperFunction,SMDPad,CuDef*%
%ADD17RoundRect,0.150000X-0.150000X0.587500X-0.150000X-0.587500X0.150000X-0.587500X0.150000X0.587500X0*%
%TD*%
%TA.AperFunction,SMDPad,CuDef*%
%ADD18RoundRect,0.250000X-0.450000X0.262500X-0.450000X-0.262500X0.450000X-0.262500X0.450000X0.262500X0*%
%TD*%
%TA.AperFunction,ComponentPad*%
%ADD19R,1.700000X1.700000*%
%TD*%
%TA.AperFunction,ComponentPad*%
%ADD20O,1.700000X1.700000*%
%TD*%
%TA.AperFunction,ComponentPad*%
%ADD21C,4.400000*%
%TD*%
%TA.AperFunction,SMDPad,CuDef*%
%ADD22RoundRect,0.250000X0.450000X-0.262500X0.450000X0.262500X-0.450000X0.262500X-0.450000X-0.262500X0*%
%TD*%
%TA.AperFunction,SMDPad,CuDef*%
%ADD23RoundRect,0.250000X-0.262500X-0.450000X0.262500X-0.450000X0.262500X0.450000X-0.262500X0.450000X0*%
%TD*%
%TA.AperFunction,SMDPad,CuDef*%
%ADD24RoundRect,0.250000X0.250000X0.475000X-0.250000X0.475000X-0.250000X-0.475000X0.250000X-0.475000X0*%
%TD*%
%TA.AperFunction,SMDPad,CuDef*%
%ADD25RoundRect,0.190000X0.445000X0.190000X-0.445000X0.190000X-0.445000X-0.190000X0.445000X-0.190000X0*%
%TD*%
%TA.AperFunction,SMDPad,CuDef*%
%ADD26RoundRect,0.225000X-0.375000X0.225000X-0.375000X-0.225000X0.375000X-0.225000X0.375000X0.225000X0*%
%TD*%
%TA.AperFunction,SMDPad,CuDef*%
%ADD27RoundRect,0.225000X0.375000X-0.225000X0.375000X0.225000X-0.375000X0.225000X-0.375000X-0.225000X0*%
%TD*%
%TA.AperFunction,ComponentPad*%
%ADD28RoundRect,0.250000X-0.825000X-0.825000X0.825000X-0.825000X0.825000X0.825000X-0.825000X0.825000X0*%
%TD*%
%TA.AperFunction,SMDPad,CuDef*%
%ADD29RoundRect,0.150000X0.150000X-0.587500X0.150000X0.587500X-0.150000X0.587500X-0.150000X-0.587500X0*%
%TD*%
%TA.AperFunction,SMDPad,CuDef*%
%ADD30FreePoly0,0.000000*%
%TD*%
%TA.AperFunction,SMDPad,CuDef*%
%ADD31FreePoly1,0.000000*%
%TD*%
%TA.AperFunction,SMDPad,CuDef*%
%ADD32R,1.000000X1.500000*%
%TD*%
%TA.AperFunction,ViaPad*%
%ADD33C,0.600000*%
%TD*%
%TA.AperFunction,Conductor*%
%ADD34C,0.200000*%
%TD*%
G04 APERTURE END LIST*
D10*
%TA.AperFunction,EtchedComponent*%
%TO.C,JP1*%
G36*
X147077000Y-88438000D02*
G01*
X146577000Y-88438000D01*
X146577000Y-87838000D01*
X147077000Y-87838000D01*
X147077000Y-88438000D01*
G37*
%TD.AperFunction*%
%TD*%
D11*
%TO.P,R11,1*%
%TO.N,Net-(R11-Pad1)*%
X168044500Y-110363000D03*
%TO.P,R11,2*%
%TO.N,A2*%
X166219500Y-110363000D03*
%TD*%
D12*
%TO.P,J2,1,Pin_1_1*%
%TO.N,V_Input_Float*%
X163322000Y-120015000D03*
%TD*%
D13*
%TO.P,BZ1,1,+_1*%
%TO.N,+3V3*%
X162443000Y-96774000D03*
D14*
%TO.P,BZ1,2,-_2*%
%TO.N,Net-(BZ1--)*%
X170043000Y-96774000D03*
%TD*%
D15*
%TO.P,J4,1,Pin_1_1*%
%TO.N,Gnd*%
X171577000Y-83439000D03*
D16*
%TO.P,J4,2,Pin_2_2*%
%TO.N,BatteryRail*%
X171577000Y-82169000D03*
%TD*%
D17*
%TO.P,Q2,1,G_1*%
%TO.N,Net-(Q2-G)*%
X171699000Y-73175500D03*
%TO.P,Q2,2,S_2*%
%TO.N,Gnd*%
X169799000Y-73175500D03*
%TO.P,Q2,3,D_3*%
%TO.N,Net-(Q2-D)*%
X170749000Y-75050500D03*
%TD*%
D18*
%TO.P,R4,1*%
%TO.N,Gnd*%
X152019000Y-88646000D03*
%TO.P,R4,2*%
%TO.N,Bridge_CRTL*%
X152019000Y-90471000D03*
%TD*%
D19*
%TO.P,J6,1,Pin_1_1*%
%TO.N,Vbus*%
X165989000Y-67691000D03*
D20*
%TO.P,J6,2,Pin_2_2*%
%TO.N,Gnd*%
X165989000Y-70231000D03*
%TO.P,J6,3,Pin_3_3*%
%TO.N,+3V3*%
X165989000Y-72771000D03*
%TO.P,J6,4,Pin_4_4*%
%TO.N,D10~*%
X165989000Y-75311000D03*
%TO.P,J6,5,Pin_5_5*%
%TO.N,D9~*%
X165989000Y-77851000D03*
%TO.P,J6,6,Pin_6_6*%
%TO.N,D8*%
X165989000Y-80391000D03*
%TO.P,J6,7,Pin_7_7*%
%TO.N,Bridge_CRTL*%
X165989000Y-82931000D03*
%TD*%
D15*
%TO.P,J8,1,Pin_1_1*%
%TO.N,Vbus*%
X171577000Y-86106000D03*
D16*
%TO.P,J8,2,Pin_2_2*%
%TO.N,D6~*%
X171577000Y-87376000D03*
%TO.P,J8,3,Pin_3_3*%
%TO.N,Gnd*%
X171577000Y-88646000D03*
%TD*%
D18*
%TO.P,R23,1*%
%TO.N,+3V3*%
X157988000Y-97766500D03*
%TO.P,R23,2*%
%TO.N,D10~*%
X157988000Y-99591500D03*
%TD*%
D21*
%TO.P,H3,1*%
%TO.N,N/C*%
X145883470Y-122301000D03*
%TD*%
D22*
%TO.P,R8,1*%
%TO.N,Net-(R8-Pad1)*%
X145438970Y-115847500D03*
%TO.P,R8,2*%
%TO.N,Net-(R7-Pad1)*%
X145438970Y-114022500D03*
%TD*%
D23*
%TO.P,R17,1*%
%TO.N,Gnd*%
X169902500Y-70889500D03*
%TO.P,R17,2*%
%TO.N,Net-(Q2-G)*%
X171727500Y-70889500D03*
%TD*%
D12*
%TO.P,J1,1,Pin_1_1*%
%TO.N,V_Input_REF*%
X153185970Y-120015000D03*
%TD*%
D17*
%TO.P,Q1,1,G_1*%
%TO.N,Bridge_CRTL*%
X152080000Y-95074500D03*
%TO.P,Q1,2,S_2*%
%TO.N,A2*%
X150180000Y-95074500D03*
%TO.P,Q1,3,D_3*%
%TO.N,Net-(Q1-D)*%
X151130000Y-96949500D03*
%TD*%
D22*
%TO.P,R14,1*%
%TO.N,Net-(R14-Pad1)*%
X169037000Y-118133500D03*
%TO.P,R14,2*%
%TO.N,Net-(R13-Pad1)*%
X169037000Y-116308500D03*
%TD*%
D21*
%TO.P,H4,1*%
%TO.N,N/C*%
X170521470Y-122301000D03*
%TD*%
%TO.P,H2,1*%
%TO.N,N/C*%
X170561000Y-66802000D03*
%TD*%
D24*
%TO.P,C1,1*%
%TO.N,Gnd*%
X147823000Y-97155000D03*
%TO.P,C1,2*%
%TO.N,A1*%
X145923000Y-97155000D03*
%TD*%
D11*
%TO.P,R5,1*%
%TO.N,Net-(Q1-D)*%
X151087500Y-99949000D03*
%TO.P,R5,2*%
%TO.N,A1*%
X149262500Y-99949000D03*
%TD*%
D22*
%TO.P,R2,1*%
%TO.N,+3V3*%
X157988000Y-96035500D03*
%TO.P,R2,2*%
%TO.N,D8*%
X157988000Y-94210500D03*
%TD*%
%TO.P,R10,1*%
%TO.N,V_Input_REF*%
X149883970Y-119784500D03*
%TO.P,R10,2*%
%TO.N,Net-(R10-Pad2)*%
X149883970Y-117959500D03*
%TD*%
D25*
%TO.P,SW1,1*%
%TO.N,Net-(R19-Pad2)*%
X154813000Y-107188000D03*
%TO.P,SW1,2*%
X154813000Y-105918000D03*
%TO.P,SW1,3*%
%TO.N,D8*%
X154813000Y-104648000D03*
%TO.P,SW1,4*%
%TO.N,D10~*%
X154813000Y-103378000D03*
%TO.P,SW1,5*%
%TO.N,Gnd*%
X147193000Y-103378000D03*
%TO.P,SW1,6*%
X147193000Y-104648000D03*
%TO.P,SW1,7*%
%TO.N,Net-(R22-Pad2)*%
X147193000Y-105918000D03*
%TO.P,SW1,8*%
%TO.N,A1*%
X147193000Y-107188000D03*
%TD*%
D22*
%TO.P,R20,1*%
%TO.N,A3~*%
X144780000Y-72818000D03*
%TO.P,R20,2*%
%TO.N,Vbus*%
X144780000Y-70993000D03*
%TD*%
%TO.P,R15,1*%
%TO.N,V_Input_Float*%
X166751000Y-120015000D03*
%TO.P,R15,2*%
%TO.N,Net-(R14-Pad1)*%
X166751000Y-118190000D03*
%TD*%
D26*
%TO.P,D2,1,K_1*%
%TO.N,+3V3*%
X147447000Y-76963000D03*
%TO.P,D2,2,A_2*%
%TO.N,A2*%
X147447000Y-80263000D03*
%TD*%
D19*
%TO.P,J3,1,Pin_1_1*%
%TO.N,/P014{slash}AN09{slash}DAC*%
X150749000Y-67691000D03*
D20*
%TO.P,J3,2,Pin_2_2*%
%TO.N,A1*%
X150749000Y-70231000D03*
%TO.P,J3,3,Pin_3_3*%
%TO.N,A2*%
X150749000Y-72771000D03*
%TO.P,J3,4,Pin_4_4*%
%TO.N,A3~*%
X150749000Y-75311000D03*
%TO.P,J3,5,Pin_5_5*%
%TO.N,SDA*%
X150749000Y-77851000D03*
%TO.P,J3,6,Pin_6_6*%
%TO.N,SCL{slash}A5*%
X150749000Y-80391000D03*
%TO.P,J3,7,Pin_7_7*%
%TO.N,D6~*%
X150749000Y-82931000D03*
%TD*%
D23*
%TO.P,R3,1*%
%TO.N,Net-(R22-Pad2)*%
X161647500Y-110363000D03*
%TO.P,R3,2*%
%TO.N,A2*%
X163472500Y-110363000D03*
%TD*%
%TO.P,R6,1*%
%TO.N,Net-(R6-Pad1)*%
X147701470Y-110363000D03*
%TO.P,R6,2*%
%TO.N,A1*%
X149526470Y-110363000D03*
%TD*%
D22*
%TO.P,R7,1*%
%TO.N,Net-(R7-Pad1)*%
X145438970Y-112164500D03*
%TO.P,R7,2*%
%TO.N,Net-(R6-Pad1)*%
X145438970Y-110339500D03*
%TD*%
D21*
%TO.P,H1,1*%
%TO.N,N/C*%
X145923000Y-66802000D03*
%TD*%
D22*
%TO.P,R9,1*%
%TO.N,Net-(R10-Pad2)*%
X147597970Y-117879500D03*
%TO.P,R9,2*%
%TO.N,Net-(R8-Pad1)*%
X147597970Y-116054500D03*
%TD*%
%TO.P,R16,1*%
%TO.N,D9~*%
X169672000Y-78914000D03*
%TO.P,R16,2*%
%TO.N,Net-(Q2-G)*%
X169672000Y-77089000D03*
%TD*%
%TO.P,R13,1*%
%TO.N,Net-(R13-Pad1)*%
X171196000Y-116355500D03*
%TO.P,R13,2*%
%TO.N,Net-(R12-Pad1)*%
X171196000Y-114530500D03*
%TD*%
D27*
%TO.P,D1,1,K_1*%
%TO.N,A2*%
X144907000Y-80263000D03*
%TO.P,D1,2,A_2*%
%TO.N,Gnd*%
X144907000Y-76963000D03*
%TD*%
D28*
%TO.P,J5,1,Pin_1_1*%
%TO.N,BatteryRail*%
X158623000Y-87884000D03*
%TD*%
D29*
%TO.P,U3,1,K_1*%
%TO.N,A1*%
X145862000Y-94996000D03*
%TO.P,U3,2,REF_2*%
%TO.N,Net-(JP1-A)*%
X147762000Y-94996000D03*
%TO.P,U3,3,A_3*%
%TO.N,Gnd*%
X146812000Y-93121000D03*
%TD*%
D22*
%TO.P,R12,1*%
%TO.N,Net-(R12-Pad1)*%
X171196000Y-112164500D03*
%TO.P,R12,2*%
%TO.N,Net-(R11-Pad1)*%
X171196000Y-110339500D03*
%TD*%
D23*
%TO.P,R19,1*%
%TO.N,A1*%
X151511470Y-110363000D03*
%TO.P,R19,2*%
%TO.N,Net-(R19-Pad2)*%
X153336470Y-110363000D03*
%TD*%
D30*
%TO.P,JP2,1,A_1*%
%TO.N,Gnd*%
X146087000Y-90805000D03*
D31*
%TO.P,JP2,2,B_2*%
%TO.N,Net-(JP1-A)*%
X147537000Y-90805000D03*
%TD*%
D32*
%TO.P,JP1,1,A_1*%
%TO.N,Net-(JP1-A)*%
X147477000Y-88138000D03*
%TO.P,JP1,2,B_2*%
%TO.N,A1*%
X146177000Y-88138000D03*
%TD*%
D23*
%TO.P,R22,1*%
%TO.N,Net-(R19-Pad2)*%
X156948500Y-110363000D03*
%TO.P,R22,2*%
%TO.N,Net-(R22-Pad2)*%
X158773500Y-110363000D03*
%TD*%
D22*
%TO.P,R21,1*%
%TO.N,A3~*%
X146939000Y-72818000D03*
%TO.P,R21,2*%
%TO.N,Gnd*%
X146939000Y-70993000D03*
%TD*%
D18*
%TO.P,R1,1*%
%TO.N,+3V3*%
X147828000Y-83796500D03*
%TO.P,R1,2*%
%TO.N,A1*%
X147828000Y-85621500D03*
%TD*%
%TO.P,R18,1*%
%TO.N,Net-(Q2-D)*%
X171958000Y-77089000D03*
%TO.P,R18,2*%
%TO.N,Net-(BZ1--)*%
X171958000Y-78914000D03*
%TD*%
D33*
%TO.N,A2*%
X159258000Y-108331000D03*
X150114000Y-98298000D03*
%TO.N,A1*%
X146558000Y-85725000D03*
%TO.N,+3V3*%
X147447000Y-77978000D03*
X147955000Y-82804000D03*
%TO.N,D10~*%
X168021000Y-79756000D03*
X168021000Y-78314000D03*
%TO.N,Gnd*%
X151892000Y-87376000D03*
X144907000Y-77978000D03*
X145796000Y-92583000D03*
X168783000Y-72644000D03*
X148971000Y-97790000D03*
X148209000Y-69850000D03*
X148590000Y-103378000D03*
%TO.N,A3~*%
X148717000Y-75311000D03*
%TO.N,BatteryRail*%
X159512000Y-84455000D03*
%TO.N,Vbus*%
X168621000Y-81534000D03*
X168275000Y-75946000D03*
%TO.N,Net-(R22-Pad2)*%
X157047250Y-108636750D03*
X152654000Y-107569000D03*
%TD*%
%TO.N,A2*%
D34*
X144907000Y-80263000D02*
X147447000Y-80263000D01*
X149098000Y-83566000D02*
X150180000Y-84648000D01*
X150114000Y-98298000D02*
X150114000Y-95140500D01*
X159258000Y-108331000D02*
X161440500Y-108331000D01*
X147447000Y-80263000D02*
X149098000Y-81914000D01*
X149352000Y-78358000D02*
X147447000Y-80263000D01*
X150749000Y-72771000D02*
X149352000Y-74168000D01*
X149352000Y-74168000D02*
X149352000Y-78358000D01*
X149098000Y-81914000D02*
X149098000Y-83566000D01*
X144907000Y-80391000D02*
X145018000Y-80502000D01*
X144907000Y-80263000D02*
X144907000Y-80391000D01*
X166219500Y-110363000D02*
X163472500Y-110363000D01*
X150114000Y-95140500D02*
X150180000Y-95074500D01*
X150180000Y-84648000D02*
X150180000Y-92120470D01*
X150180000Y-92120471D02*
X150180000Y-95074500D01*
X161440500Y-108331000D02*
X163472500Y-110363000D01*
%TO.N,V_Input_Float*%
X163322000Y-120015000D02*
X166497000Y-120015000D01*
%TO.N,A1*%
X149262500Y-100330000D02*
X149032000Y-100330000D01*
X145984000Y-97028000D02*
X145923000Y-96967000D01*
X145862000Y-97094000D02*
X145923000Y-97155000D01*
X146661500Y-85621500D02*
X146558000Y-85725000D01*
X145862000Y-94996000D02*
X145862000Y-97094000D01*
X149262500Y-99949000D02*
X148717000Y-99949000D01*
X145862000Y-94808000D02*
X145034000Y-93980000D01*
X149352000Y-110363000D02*
X149526470Y-110363000D01*
X145923000Y-97155000D02*
X145923000Y-107061000D01*
X145862000Y-94996000D02*
X145862000Y-94808000D01*
X149526470Y-110363000D02*
X151511470Y-110363000D01*
X146050000Y-107188000D02*
X147193000Y-107188000D01*
X148717000Y-99949000D02*
X145923000Y-97155000D01*
X145034000Y-93980000D02*
X145034000Y-89281000D01*
X147193000Y-107188000D02*
X149526470Y-109521470D01*
X149526470Y-109521470D02*
X149526470Y-110363000D01*
X146558000Y-85725000D02*
X146177000Y-86106000D01*
X145034000Y-89281000D02*
X146177000Y-88138000D01*
X147320000Y-85621500D02*
X146661500Y-85621500D01*
X146177000Y-86106000D02*
X146177000Y-88138000D01*
X145923000Y-107061000D02*
X146050000Y-107188000D01*
%TO.N,+3V3*%
X158242000Y-96012000D02*
X159004000Y-96774000D01*
X147828000Y-83796500D02*
X147828000Y-82931000D01*
X147447000Y-77978000D02*
X147447000Y-76963000D01*
X157988000Y-97870000D02*
X157988000Y-96012000D01*
X147828000Y-82931000D02*
X147955000Y-82804000D01*
X159004000Y-96774000D02*
X162443000Y-96774000D01*
X157988000Y-96012000D02*
X158242000Y-96012000D01*
%TO.N,D10~*%
X154813000Y-101854000D02*
X154813000Y-103378000D01*
X168021000Y-79756000D02*
X168021000Y-97409000D01*
X157075500Y-99591500D02*
X154813000Y-101854000D01*
X168021000Y-77343000D02*
X165989000Y-75311000D01*
X165838500Y-99591500D02*
X157988000Y-99591500D01*
X168021000Y-97409000D02*
X165838500Y-99591500D01*
X168021000Y-78314000D02*
X168021000Y-77343000D01*
X157988000Y-99591500D02*
X157075500Y-99591500D01*
%TO.N,D9~*%
X167052000Y-78914000D02*
X165989000Y-77851000D01*
X169672000Y-78914000D02*
X167052000Y-78914000D01*
%TO.N,V_Input_REF*%
X149883970Y-119784500D02*
X152955470Y-119784500D01*
X152955470Y-119784500D02*
X153185970Y-120015000D01*
%TO.N,Net-(R14-Pad1)*%
X169037000Y-118133500D02*
X166807500Y-118133500D01*
X166807500Y-118133500D02*
X166751000Y-118190000D01*
%TO.N,D6~*%
X150749000Y-82931000D02*
X151257000Y-83439000D01*
%TO.N,Gnd*%
X169902500Y-70889500D02*
X169902500Y-73072000D01*
X148336000Y-97155000D02*
X148971000Y-97790000D01*
X146334000Y-93121000D02*
X146812000Y-93121000D01*
X147823000Y-97155000D02*
X148336000Y-97155000D01*
X145796000Y-91096000D02*
X146087000Y-90805000D01*
X151892000Y-88646000D02*
X151892000Y-87376000D01*
X144907000Y-76963000D02*
X144907000Y-77978000D01*
X169799000Y-73175500D02*
X169314500Y-73175500D01*
X147193000Y-103378000D02*
X147193000Y-104648000D01*
X145796000Y-92583000D02*
X146334000Y-93121000D01*
X145796000Y-92583000D02*
X145796000Y-91096000D01*
X147066000Y-70993000D02*
X148209000Y-69850000D01*
X147193000Y-103378000D02*
X148590000Y-103378000D01*
X169314500Y-73175500D02*
X168783000Y-72644000D01*
X147823000Y-96813500D02*
X147910500Y-96901000D01*
X169902500Y-73072000D02*
X169799000Y-73175500D01*
%TO.N,Net-(Q1-D)*%
X151130000Y-100287500D02*
X151130000Y-96949500D01*
X151087500Y-100330000D02*
X151130000Y-100287500D01*
%TO.N,Net-(Q2-G)*%
X169672000Y-77089000D02*
X169672000Y-74680552D01*
X169672000Y-74680552D02*
X171177052Y-73175500D01*
X171727500Y-70889500D02*
X171727500Y-73147000D01*
X171177052Y-73175500D02*
X171699000Y-73175500D01*
X171727500Y-73147000D02*
X171699000Y-73175500D01*
%TO.N,Net-(Q2-D)*%
X170749000Y-75050500D02*
X170749000Y-75880000D01*
X170749000Y-75880000D02*
X171958000Y-77089000D01*
%TO.N,Net-(R6-Pad1)*%
X147701470Y-110363000D02*
X145462470Y-110363000D01*
X145462470Y-110363000D02*
X145438970Y-110339500D01*
%TO.N,Net-(R7-Pad1)*%
X145438970Y-112164500D02*
X145438970Y-114022500D01*
%TO.N,Net-(R8-Pad1)*%
X147390970Y-115847500D02*
X147597970Y-116054500D01*
X145438970Y-115847500D02*
X147390970Y-115847500D01*
%TO.N,Net-(R10-Pad2)*%
X147597970Y-117879500D02*
X149803970Y-117879500D01*
X149803970Y-117879500D02*
X149883970Y-117959500D01*
%TO.N,Net-(R11-Pad1)*%
X168044500Y-110363000D02*
X171172500Y-110363000D01*
X171172500Y-110363000D02*
X171196000Y-110339500D01*
%TO.N,Net-(R12-Pad1)*%
X171196000Y-112164500D02*
X171196000Y-114530500D01*
%TO.N,Net-(R13-Pad1)*%
X171196000Y-116355500D02*
X169084000Y-116355500D01*
X169084000Y-116355500D02*
X169037000Y-116308500D01*
%TO.N,Net-(BZ1--)*%
X172593000Y-79549000D02*
X172593000Y-94224000D01*
X172593000Y-94224000D02*
X170043000Y-96774000D01*
X171958000Y-78914000D02*
X172593000Y-79549000D01*
%TO.N,A3~*%
X148717000Y-75311000D02*
X146224000Y-72818000D01*
X146859000Y-72818000D02*
X144780000Y-72818000D01*
%TO.N,BatteryRail*%
X158623000Y-87884000D02*
X158623000Y-85344000D01*
X158623000Y-85344000D02*
X159512000Y-84455000D01*
%TO.N,Vbus*%
X150621996Y-65518004D02*
X149225000Y-66915000D01*
X149225000Y-67691000D02*
X147066000Y-69850000D01*
X165989000Y-67691000D02*
X163816004Y-65518004D01*
X163816004Y-65518004D02*
X150621996Y-65518004D01*
X168183000Y-75854000D02*
X168275000Y-75946000D01*
X145923000Y-69850000D02*
X144780000Y-70993000D01*
X149225000Y-66915000D02*
X149225000Y-67691000D01*
X147066000Y-69850000D02*
X145923000Y-69850000D01*
X165989000Y-67691000D02*
X168183000Y-69885000D01*
X168621000Y-81534000D02*
X168621000Y-83150000D01*
X168183000Y-69885000D02*
X168183000Y-75854000D01*
X168621000Y-83150000D02*
X171577000Y-86106000D01*
%TO.N,Bridge_CRTL*%
X159385000Y-83058000D02*
X151955500Y-90487500D01*
X151892000Y-90471000D02*
X152019000Y-90598000D01*
X165989000Y-82931000D02*
X165862000Y-83058000D01*
X151955500Y-90487500D02*
X151908500Y-90487500D01*
X151908500Y-90487500D02*
X151892000Y-90471000D01*
X152019000Y-90598000D02*
X152019000Y-95013500D01*
X165862000Y-83058000D02*
X159385000Y-83058000D01*
X152019000Y-95013500D02*
X152080000Y-95074500D01*
%TO.N,D8*%
X153878000Y-98447500D02*
X158115000Y-94210500D01*
X154813000Y-104648000D02*
X154749770Y-104648000D01*
X153878000Y-103776230D02*
X153878000Y-98447500D01*
X158265500Y-94210500D02*
X158115000Y-94210500D01*
X165989000Y-80391000D02*
X167421000Y-81823000D01*
X155067000Y-104394000D02*
X154813000Y-104648000D01*
X167421000Y-81823000D02*
X167421000Y-85055000D01*
X154749770Y-104648000D02*
X153878000Y-103776230D01*
X167421000Y-85055000D02*
X158265500Y-94210500D01*
%TO.N,Net-(R22-Pad2)*%
X147193000Y-105918000D02*
X151003000Y-105918000D01*
X157047250Y-108636750D02*
X158773500Y-110363000D01*
X158773500Y-110363000D02*
X161647500Y-110363000D01*
X151003000Y-105918000D02*
X152654000Y-107569000D01*
%TO.N,Net-(R19-Pad2)*%
X156948500Y-110363000D02*
X155551500Y-110363000D01*
X154813000Y-107315000D02*
X155551500Y-108053500D01*
X153336470Y-110363000D02*
X155551500Y-110363000D01*
X155551500Y-108053500D02*
X155551500Y-108966000D01*
X154813000Y-107188000D02*
X154813000Y-107315000D01*
X154813000Y-105918000D02*
X154813000Y-107188000D01*
X153336470Y-110029470D02*
X153336470Y-110363000D01*
X155551500Y-108966000D02*
X156948500Y-110363000D01*
%TO.N,Net-(JP1-A)*%
X147477000Y-88138000D02*
X147477000Y-90745000D01*
X147701000Y-94935000D02*
X147762000Y-94996000D01*
X147477000Y-90745000D02*
X147537000Y-90805000D01*
X147701000Y-90969000D02*
X147701000Y-94935000D01*
X147537000Y-90805000D02*
X147701000Y-90969000D01*
%TD*%
M02*
