%TF.GenerationSoftware,KiCad,Pcbnew,9.0.3*%
%TF.CreationDate,2026-02-18T19:56:22-06:00*%
%TF.ProjectId,AMC0330R_Mount,414d4330-3333-4305-925f-4d6f756e742e,rev?*%
%TF.SameCoordinates,Original*%
%TF.FileFunction,Copper,L1,Top*%
%TF.FilePolarity,Positive*%
%FSLAX46Y46*%
G04 Gerber Fmt 4.6, Leading zero omitted, Abs format (unit mm)*
G04 Created by KiCad (PCBNEW 9.0.3) date 2026-02-18 19:56:22*
%MOMM*%
%LPD*%
G01*
G04 APERTURE LIST*
G04 Aperture macros list*
%AMRoundRect*
0 Rectangle with rounded corners*
0 $1 Rounding radius*
0 $2 $3 $4 $5 $6 $7 $8 $9 X,Y pos of 4 corners*
0 Add a 4 corners polygon primitive as box body*
4,1,4,$2,$3,$4,$5,$6,$7,$8,$9,$2,$3,0*
0 Add four circle primitives for the rounded corners*
1,1,$1+$1,$2,$3*
1,1,$1+$1,$4,$5*
1,1,$1+$1,$6,$7*
1,1,$1+$1,$8,$9*
0 Add four rect primitives between the rounded corners*
20,1,$1+$1,$2,$3,$4,$5,0*
20,1,$1+$1,$4,$5,$6,$7,0*
20,1,$1+$1,$6,$7,$8,$9,0*
20,1,$1+$1,$8,$9,$2,$3,0*%
G04 Aperture macros list end*
%TA.AperFunction,ComponentPad*%
%ADD10RoundRect,0.875000X-0.875000X-0.875000X0.875000X-0.875000X0.875000X0.875000X-0.875000X0.875000X0*%
%TD*%
%TA.AperFunction,ComponentPad*%
%ADD11RoundRect,0.750000X-0.750000X-1.000000X0.750000X-1.000000X0.750000X1.000000X-0.750000X1.000000X0*%
%TD*%
%TA.AperFunction,ComponentPad*%
%ADD12R,3.500000X3.500000*%
%TD*%
%TA.AperFunction,SMDPad,CuDef*%
%ADD13RoundRect,0.150000X-0.750000X-0.150000X0.750000X-0.150000X0.750000X0.150000X-0.750000X0.150000X0*%
%TD*%
%TA.AperFunction,SMDPad,CuDef*%
%ADD14RoundRect,0.250000X0.475000X-0.337500X0.475000X0.337500X-0.475000X0.337500X-0.475000X-0.337500X0*%
%TD*%
%TA.AperFunction,SMDPad,CuDef*%
%ADD15RoundRect,0.250000X-0.350000X-0.450000X0.350000X-0.450000X0.350000X0.450000X-0.350000X0.450000X0*%
%TD*%
%TA.AperFunction,SMDPad,CuDef*%
%ADD16RoundRect,0.250000X-0.450000X0.350000X-0.450000X-0.350000X0.450000X-0.350000X0.450000X0.350000X0*%
%TD*%
%TA.AperFunction,SMDPad,CuDef*%
%ADD17RoundRect,0.250000X0.450000X-0.350000X0.450000X0.350000X-0.450000X0.350000X-0.450000X-0.350000X0*%
%TD*%
%TA.AperFunction,ComponentPad*%
%ADD18C,1.500000*%
%TD*%
%TA.AperFunction,ComponentPad*%
%ADD19RoundRect,0.250001X-0.499999X-0.499999X0.499999X-0.499999X0.499999X0.499999X-0.499999X0.499999X0*%
%TD*%
%TA.AperFunction,SMDPad,CuDef*%
%ADD20RoundRect,0.250000X-0.337500X-0.475000X0.337500X-0.475000X0.337500X0.475000X-0.337500X0.475000X0*%
%TD*%
%TA.AperFunction,ComponentPad*%
%ADD21R,1.700000X1.700000*%
%TD*%
%TA.AperFunction,ComponentPad*%
%ADD22C,1.700000*%
%TD*%
%TA.AperFunction,ViaPad*%
%ADD23C,0.600000*%
%TD*%
%TA.AperFunction,Conductor*%
%ADD24C,0.200000*%
%TD*%
G04 APERTURE END LIST*
D10*
%TO.P,J14,3*%
%TO.N,N/C*%
X82090000Y-81535000D03*
D11*
%TO.P,J14,2*%
%TO.N,GND1*%
X79090000Y-76835000D03*
D12*
%TO.P,J14,1*%
%TO.N,Net-(J14-Pad1)*%
X85090000Y-76835000D03*
%TD*%
D13*
%TO.P,U1,1,VDD1*%
%TO.N,VDD1*%
X96275000Y-80095000D03*
%TO.P,U1,2,INP*%
%TO.N,Net-(U1-INP)*%
X96275000Y-81365000D03*
%TO.P,U1,3,SNSN*%
%TO.N,GND1*%
X96275000Y-82635000D03*
%TO.P,U1,4,GND1*%
X96275000Y-83905000D03*
%TO.P,U1,5,GND2*%
%TO.N,GND2*%
X106925000Y-83905000D03*
%TO.P,U1,6,REFIN*%
%TO.N,VDD2*%
X106925000Y-82635000D03*
%TO.P,U1,7,OUT*%
%TO.N,OUT*%
X106925000Y-81365000D03*
%TO.P,U1,8,VDD2*%
%TO.N,VDD2*%
X106925000Y-80095000D03*
%TD*%
D14*
%TO.P,C5,2*%
%TO.N,GND1*%
X95652500Y-77470000D03*
%TO.P,C5,1*%
%TO.N,Net-(U1-INP)*%
X93577500Y-77470000D03*
%TD*%
D15*
%TO.P,R2,2*%
%TO.N,Net-(U1-INP)*%
X90805000Y-75930000D03*
%TO.P,R2,1*%
%TO.N,Net-(R1-Pad2)*%
X90805000Y-73930000D03*
%TD*%
D16*
%TO.P,R3,2*%
%TO.N,GND1*%
X89170000Y-78740000D03*
%TO.P,R3,1*%
%TO.N,Net-(U1-INP)*%
X91170000Y-78740000D03*
%TD*%
D17*
%TO.P,R1,2*%
%TO.N,Net-(R1-Pad2)*%
X89900000Y-71755000D03*
%TO.P,R1,1*%
%TO.N,Net-(J14-Pad1)*%
X87900000Y-71755000D03*
%TD*%
D18*
%TO.P,U2,4,Vout+*%
%TO.N,VDD1*%
X96520000Y-69850000D03*
%TO.P,U2,3,Vout-*%
%TO.N,GND1*%
X99060000Y-69850000D03*
%TO.P,U2,2,VIN+*%
%TO.N,5V_IN*%
X101600000Y-69850000D03*
D19*
%TO.P,U2,1,VIN-*%
%TO.N,GND2*%
X104140000Y-69850000D03*
%TD*%
D20*
%TO.P,C6,1*%
%TO.N,VDD2*%
X109855000Y-82962500D03*
%TO.P,C6,2*%
%TO.N,GND2*%
X109855000Y-85037500D03*
%TD*%
%TO.P,C4,1*%
%TO.N,VDD2*%
X109855000Y-78570000D03*
%TO.P,C4,2*%
%TO.N,GND2*%
X109855000Y-80645000D03*
%TD*%
%TO.P,C3,1*%
%TO.N,VDD2*%
X109855000Y-73892500D03*
%TO.P,C3,2*%
%TO.N,GND2*%
X109855000Y-75967500D03*
%TD*%
%TO.P,C2,1*%
%TO.N,VDD1*%
X90170000Y-80877500D03*
%TO.P,C2,2*%
%TO.N,GND1*%
X90170000Y-82952500D03*
%TD*%
%TO.P,C1,1*%
%TO.N,VDD1*%
X93275000Y-80887500D03*
%TO.P,C1,2*%
%TO.N,GND1*%
X93275000Y-82962500D03*
%TD*%
D21*
%TO.P,J2,1,Pin_1*%
%TO.N,5V_IN*%
X113665000Y-73655000D03*
D22*
%TO.P,J2,2,Pin_2*%
%TO.N,VDD2*%
X113665000Y-76195000D03*
%TO.P,J2,3,Pin_3*%
%TO.N,GND2*%
X113665000Y-78735000D03*
%TO.P,J2,4,Pin_4*%
%TO.N,OUT*%
X113665000Y-81275000D03*
%TD*%
D23*
%TO.N,GND1*%
X89535000Y-77470000D03*
X94615000Y-83915000D03*
X94615000Y-76200000D03*
%TO.N,GND2*%
X107950000Y-75565000D03*
%TO.N,GND1*%
X88710000Y-82550000D03*
%TO.N,GND2*%
X108585000Y-84455000D03*
%TO.N,Net-(U1-INP)*%
X94615000Y-80705000D03*
X93577500Y-79152500D03*
%TD*%
D24*
%TO.N,VDD2*%
X107252500Y-82962500D02*
X106925000Y-82635000D01*
X109855000Y-82962500D02*
X107252500Y-82962500D01*
%TO.N,GND1*%
X89170000Y-77835000D02*
X89535000Y-77470000D01*
X89170000Y-78740000D02*
X89170000Y-77835000D01*
%TO.N,Net-(U1-INP)*%
X93577500Y-79152500D02*
X93542500Y-79152500D01*
X93577500Y-79152500D02*
X93577500Y-77470000D01*
X92307500Y-78740000D02*
X93577500Y-77470000D01*
X91170000Y-78740000D02*
X92307500Y-78740000D01*
X90805000Y-78375000D02*
X91170000Y-78740000D01*
X90805000Y-75930000D02*
X90805000Y-78375000D01*
%TO.N,Net-(R1-Pad2)*%
X89900000Y-73025000D02*
X90805000Y-73930000D01*
X89900000Y-71755000D02*
X89900000Y-73025000D01*
%TO.N,Net-(J14-Pad1)*%
X85090000Y-74565000D02*
X87900000Y-71755000D01*
%TO.N,GND1*%
X95652500Y-77237500D02*
X94615000Y-76200000D01*
X95652500Y-77470000D02*
X95652500Y-77237500D01*
%TO.N,VDD1*%
X97155000Y-71755000D02*
X97155000Y-79215000D01*
X96520000Y-69855000D02*
X96520000Y-71120000D01*
X96520000Y-71120000D02*
X97155000Y-71755000D01*
X97155000Y-79215000D02*
X96275000Y-80095000D01*
%TO.N,Net-(J14-Pad1)*%
X85090000Y-74565000D02*
X85090000Y-76835000D01*
X85090000Y-76835000D02*
X85090000Y-76200000D01*
%TO.N,GND1*%
X89122500Y-82962500D02*
X90100000Y-82962500D01*
X88710000Y-82550000D02*
X89122500Y-82962500D01*
X94615000Y-83915000D02*
X96510000Y-83915000D01*
%TO.N,Net-(U1-INP)*%
X94630000Y-80705000D02*
X95290000Y-81365000D01*
X94615000Y-80705000D02*
X94630000Y-80705000D01*
X95290000Y-81365000D02*
X96275000Y-81365000D01*
%TO.N,GND1*%
X96275000Y-83905000D02*
X96275000Y-82635000D01*
%TO.N,GND2*%
X108352500Y-75967500D02*
X107950000Y-75565000D01*
X109855000Y-75967500D02*
X108352500Y-75967500D01*
%TO.N,VDD2*%
X111362500Y-73892500D02*
X113665000Y-76195000D01*
X109855000Y-73892500D02*
X111362500Y-73892500D01*
X109855000Y-78570000D02*
X111290000Y-78570000D01*
X111290000Y-78570000D02*
X113665000Y-76195000D01*
X108330000Y-80095000D02*
X109855000Y-78570000D01*
X106925000Y-80095000D02*
X108330000Y-80095000D01*
%TO.N,GND2*%
X111755000Y-80645000D02*
X113665000Y-78735000D01*
X109855000Y-80645000D02*
X111755000Y-80645000D01*
X107805000Y-84455000D02*
X107255000Y-83905000D01*
X108585000Y-84455000D02*
X107805000Y-84455000D01*
X109167500Y-85037500D02*
X109855000Y-85037500D01*
X108585000Y-84455000D02*
X109167500Y-85037500D01*
%TO.N,OUT*%
X113025000Y-81915000D02*
X113665000Y-81275000D01*
X107950000Y-81915000D02*
X113025000Y-81915000D01*
X107400000Y-81365000D02*
X107950000Y-81915000D01*
%TO.N,5V_IN*%
X112400000Y-72390000D02*
X103505000Y-72390000D01*
X103505000Y-72390000D02*
X100965000Y-69850000D01*
X113665000Y-73655000D02*
X112400000Y-72390000D01*
X113665000Y-74295000D02*
X113665000Y-73655000D01*
%TO.N,GND1*%
X94227500Y-83915000D02*
X94615000Y-83915000D01*
X93507500Y-83195000D02*
X94227500Y-83915000D01*
%TO.N,VDD1*%
X94057500Y-80105000D02*
X96510000Y-80105000D01*
X93275000Y-80887500D02*
X94057500Y-80105000D01*
X90100000Y-80887500D02*
X93275000Y-80887500D01*
%TO.N,VDD2*%
X105410000Y-80661000D02*
X105410000Y-81899000D01*
X106146000Y-82635000D02*
X106611000Y-82635000D01*
X105976000Y-80095000D02*
X105410000Y-80661000D01*
X105410000Y-81899000D02*
X106146000Y-82635000D01*
X106611000Y-80095000D02*
X105976000Y-80095000D01*
%TD*%
M02*
