M48
; DRILL file {KiCad 9.0.3} date 2026-02-18T19:56:24-0600
; FORMAT={-:-/ absolute / inch / decimal}
; #@! TF.CreationDate,2026-02-18T19:56:24-06:00
; #@! TF.GenerationSoftware,Kicad,Pcbnew,9.0.3
; #@! TF.FileFunction,Plated,1,2,PTH
FMAT,2
INCH
; #@! TA.AperFunction,Plated,PTH,ViaDrill
T1C0.0118
; #@! TA.AperFunction,Plated,PTH,ComponentDrill
T2C0.0394
%
G90
G05
T1
X3.4925Y-3.25
X3.525Y-3.05
X3.6842Y-3.1162
X3.725Y-3.0
X3.725Y-3.1774
X3.725Y-3.3037
X4.25Y-2.975
X4.275Y-3.325
T2
X3.8Y-2.75
X3.9Y-2.75
X4.0Y-2.75
X4.1Y-2.75
X4.475Y-2.8998
X4.475Y-2.9998
X4.475Y-3.0998
X4.475Y-3.1998
T2
G00X3.1138Y-2.9856
M15
G01X3.1138Y-3.0644
M16
G05
G00X3.1925Y-3.21
M15
G01X3.2713Y-3.21
M16
G05
G00X3.35Y-2.9856
M15
G01X3.35Y-3.0644
M16
G05
M30
