%TF.GenerationSoftware,KiCad,Pcbnew,9.0.3*%
%TF.CreationDate,2026-02-18T19:56:22-06:00*%
%TF.ProjectId,AMC0330R_Mount,414d4330-3333-4305-925f-4d6f756e742e,rev?*%
%TF.SameCoordinates,Original*%
%TF.FileFunction,Legend,Bot*%
%TF.FilePolarity,Positive*%
%FSLAX46Y46*%
G04 Gerber Fmt 4.6, Leading zero omitted, Abs format (unit mm)*
G04 Created by KiCad (PCBNEW 9.0.3) date 2026-02-18 19:56:22*
%MOMM*%
%LPD*%
G01*
G04 APERTURE LIST*
%ADD10C,0.100000*%
G04 APERTURE END LIST*
D10*
X112138734Y-81739800D02*
X111995877Y-81787419D01*
X111995877Y-81787419D02*
X111757782Y-81787419D01*
X111757782Y-81787419D02*
X111662544Y-81739800D01*
X111662544Y-81739800D02*
X111614925Y-81692180D01*
X111614925Y-81692180D02*
X111567306Y-81596942D01*
X111567306Y-81596942D02*
X111567306Y-81501704D01*
X111567306Y-81501704D02*
X111614925Y-81406466D01*
X111614925Y-81406466D02*
X111662544Y-81358847D01*
X111662544Y-81358847D02*
X111757782Y-81311228D01*
X111757782Y-81311228D02*
X111948258Y-81263609D01*
X111948258Y-81263609D02*
X112043496Y-81215990D01*
X112043496Y-81215990D02*
X112091115Y-81168371D01*
X112091115Y-81168371D02*
X112138734Y-81073133D01*
X112138734Y-81073133D02*
X112138734Y-80977895D01*
X112138734Y-80977895D02*
X112091115Y-80882657D01*
X112091115Y-80882657D02*
X112043496Y-80835038D01*
X112043496Y-80835038D02*
X111948258Y-80787419D01*
X111948258Y-80787419D02*
X111710163Y-80787419D01*
X111710163Y-80787419D02*
X111567306Y-80835038D01*
X111138734Y-81787419D02*
X111138734Y-81120752D01*
X111138734Y-80787419D02*
X111186353Y-80835038D01*
X111186353Y-80835038D02*
X111138734Y-80882657D01*
X111138734Y-80882657D02*
X111091115Y-80835038D01*
X111091115Y-80835038D02*
X111138734Y-80787419D01*
X111138734Y-80787419D02*
X111138734Y-80882657D01*
X110233973Y-81120752D02*
X110233973Y-81930276D01*
X110233973Y-81930276D02*
X110281592Y-82025514D01*
X110281592Y-82025514D02*
X110329211Y-82073133D01*
X110329211Y-82073133D02*
X110424449Y-82120752D01*
X110424449Y-82120752D02*
X110567306Y-82120752D01*
X110567306Y-82120752D02*
X110662544Y-82073133D01*
X110233973Y-81739800D02*
X110329211Y-81787419D01*
X110329211Y-81787419D02*
X110519687Y-81787419D01*
X110519687Y-81787419D02*
X110614925Y-81739800D01*
X110614925Y-81739800D02*
X110662544Y-81692180D01*
X110662544Y-81692180D02*
X110710163Y-81596942D01*
X110710163Y-81596942D02*
X110710163Y-81311228D01*
X110710163Y-81311228D02*
X110662544Y-81215990D01*
X110662544Y-81215990D02*
X110614925Y-81168371D01*
X110614925Y-81168371D02*
X110519687Y-81120752D01*
X110519687Y-81120752D02*
X110329211Y-81120752D01*
X110329211Y-81120752D02*
X110233973Y-81168371D01*
X109757782Y-81120752D02*
X109757782Y-81787419D01*
X109757782Y-81215990D02*
X109710163Y-81168371D01*
X109710163Y-81168371D02*
X109614925Y-81120752D01*
X109614925Y-81120752D02*
X109472068Y-81120752D01*
X109472068Y-81120752D02*
X109376830Y-81168371D01*
X109376830Y-81168371D02*
X109329211Y-81263609D01*
X109329211Y-81263609D02*
X109329211Y-81787419D01*
X108424449Y-81787419D02*
X108424449Y-81263609D01*
X108424449Y-81263609D02*
X108472068Y-81168371D01*
X108472068Y-81168371D02*
X108567306Y-81120752D01*
X108567306Y-81120752D02*
X108757782Y-81120752D01*
X108757782Y-81120752D02*
X108853020Y-81168371D01*
X108424449Y-81739800D02*
X108519687Y-81787419D01*
X108519687Y-81787419D02*
X108757782Y-81787419D01*
X108757782Y-81787419D02*
X108853020Y-81739800D01*
X108853020Y-81739800D02*
X108900639Y-81644561D01*
X108900639Y-81644561D02*
X108900639Y-81549323D01*
X108900639Y-81549323D02*
X108853020Y-81454085D01*
X108853020Y-81454085D02*
X108757782Y-81406466D01*
X108757782Y-81406466D02*
X108519687Y-81406466D01*
X108519687Y-81406466D02*
X108424449Y-81358847D01*
X107805401Y-81787419D02*
X107900639Y-81739800D01*
X107900639Y-81739800D02*
X107948258Y-81644561D01*
X107948258Y-81644561D02*
X107948258Y-80787419D01*
X106472067Y-80787419D02*
X106281591Y-80787419D01*
X106281591Y-80787419D02*
X106186353Y-80835038D01*
X106186353Y-80835038D02*
X106091115Y-80930276D01*
X106091115Y-80930276D02*
X106043496Y-81120752D01*
X106043496Y-81120752D02*
X106043496Y-81454085D01*
X106043496Y-81454085D02*
X106091115Y-81644561D01*
X106091115Y-81644561D02*
X106186353Y-81739800D01*
X106186353Y-81739800D02*
X106281591Y-81787419D01*
X106281591Y-81787419D02*
X106472067Y-81787419D01*
X106472067Y-81787419D02*
X106567305Y-81739800D01*
X106567305Y-81739800D02*
X106662543Y-81644561D01*
X106662543Y-81644561D02*
X106710162Y-81454085D01*
X106710162Y-81454085D02*
X106710162Y-81120752D01*
X106710162Y-81120752D02*
X106662543Y-80930276D01*
X106662543Y-80930276D02*
X106567305Y-80835038D01*
X106567305Y-80835038D02*
X106472067Y-80787419D01*
X105186353Y-81120752D02*
X105186353Y-81787419D01*
X105614924Y-81120752D02*
X105614924Y-81644561D01*
X105614924Y-81644561D02*
X105567305Y-81739800D01*
X105567305Y-81739800D02*
X105472067Y-81787419D01*
X105472067Y-81787419D02*
X105329210Y-81787419D01*
X105329210Y-81787419D02*
X105233972Y-81739800D01*
X105233972Y-81739800D02*
X105186353Y-81692180D01*
X104853019Y-81120752D02*
X104472067Y-81120752D01*
X104710162Y-80787419D02*
X104710162Y-81644561D01*
X104710162Y-81644561D02*
X104662543Y-81739800D01*
X104662543Y-81739800D02*
X104567305Y-81787419D01*
X104567305Y-81787419D02*
X104472067Y-81787419D01*
X111567306Y-78295038D02*
X111662544Y-78247419D01*
X111662544Y-78247419D02*
X111805401Y-78247419D01*
X111805401Y-78247419D02*
X111948258Y-78295038D01*
X111948258Y-78295038D02*
X112043496Y-78390276D01*
X112043496Y-78390276D02*
X112091115Y-78485514D01*
X112091115Y-78485514D02*
X112138734Y-78675990D01*
X112138734Y-78675990D02*
X112138734Y-78818847D01*
X112138734Y-78818847D02*
X112091115Y-79009323D01*
X112091115Y-79009323D02*
X112043496Y-79104561D01*
X112043496Y-79104561D02*
X111948258Y-79199800D01*
X111948258Y-79199800D02*
X111805401Y-79247419D01*
X111805401Y-79247419D02*
X111710163Y-79247419D01*
X111710163Y-79247419D02*
X111567306Y-79199800D01*
X111567306Y-79199800D02*
X111519687Y-79152180D01*
X111519687Y-79152180D02*
X111519687Y-78818847D01*
X111519687Y-78818847D02*
X111710163Y-78818847D01*
X111091115Y-78580752D02*
X111091115Y-79247419D01*
X111091115Y-78675990D02*
X111043496Y-78628371D01*
X111043496Y-78628371D02*
X110948258Y-78580752D01*
X110948258Y-78580752D02*
X110805401Y-78580752D01*
X110805401Y-78580752D02*
X110710163Y-78628371D01*
X110710163Y-78628371D02*
X110662544Y-78723609D01*
X110662544Y-78723609D02*
X110662544Y-79247419D01*
X109757782Y-79247419D02*
X109757782Y-78247419D01*
X109757782Y-79199800D02*
X109853020Y-79247419D01*
X109853020Y-79247419D02*
X110043496Y-79247419D01*
X110043496Y-79247419D02*
X110138734Y-79199800D01*
X110138734Y-79199800D02*
X110186353Y-79152180D01*
X110186353Y-79152180D02*
X110233972Y-79056942D01*
X110233972Y-79056942D02*
X110233972Y-78771228D01*
X110233972Y-78771228D02*
X110186353Y-78675990D01*
X110186353Y-78675990D02*
X110138734Y-78628371D01*
X110138734Y-78628371D02*
X110043496Y-78580752D01*
X110043496Y-78580752D02*
X109853020Y-78580752D01*
X109853020Y-78580752D02*
X109757782Y-78628371D01*
X112233972Y-75707419D02*
X111900639Y-76707419D01*
X111900639Y-76707419D02*
X111567306Y-75707419D01*
X110805401Y-76707419D02*
X110805401Y-75707419D01*
X110805401Y-76659800D02*
X110900639Y-76707419D01*
X110900639Y-76707419D02*
X111091115Y-76707419D01*
X111091115Y-76707419D02*
X111186353Y-76659800D01*
X111186353Y-76659800D02*
X111233972Y-76612180D01*
X111233972Y-76612180D02*
X111281591Y-76516942D01*
X111281591Y-76516942D02*
X111281591Y-76231228D01*
X111281591Y-76231228D02*
X111233972Y-76135990D01*
X111233972Y-76135990D02*
X111186353Y-76088371D01*
X111186353Y-76088371D02*
X111091115Y-76040752D01*
X111091115Y-76040752D02*
X110900639Y-76040752D01*
X110900639Y-76040752D02*
X110805401Y-76088371D01*
X109900639Y-76707419D02*
X109900639Y-75707419D01*
X109900639Y-76659800D02*
X109995877Y-76707419D01*
X109995877Y-76707419D02*
X110186353Y-76707419D01*
X110186353Y-76707419D02*
X110281591Y-76659800D01*
X110281591Y-76659800D02*
X110329210Y-76612180D01*
X110329210Y-76612180D02*
X110376829Y-76516942D01*
X110376829Y-76516942D02*
X110376829Y-76231228D01*
X110376829Y-76231228D02*
X110329210Y-76135990D01*
X110329210Y-76135990D02*
X110281591Y-76088371D01*
X110281591Y-76088371D02*
X110186353Y-76040752D01*
X110186353Y-76040752D02*
X109995877Y-76040752D01*
X109995877Y-76040752D02*
X109900639Y-76088371D01*
X111614925Y-73167419D02*
X112091115Y-73167419D01*
X112091115Y-73167419D02*
X112138734Y-73643609D01*
X112138734Y-73643609D02*
X112091115Y-73595990D01*
X112091115Y-73595990D02*
X111995877Y-73548371D01*
X111995877Y-73548371D02*
X111757782Y-73548371D01*
X111757782Y-73548371D02*
X111662544Y-73595990D01*
X111662544Y-73595990D02*
X111614925Y-73643609D01*
X111614925Y-73643609D02*
X111567306Y-73738847D01*
X111567306Y-73738847D02*
X111567306Y-73976942D01*
X111567306Y-73976942D02*
X111614925Y-74072180D01*
X111614925Y-74072180D02*
X111662544Y-74119800D01*
X111662544Y-74119800D02*
X111757782Y-74167419D01*
X111757782Y-74167419D02*
X111995877Y-74167419D01*
X111995877Y-74167419D02*
X112091115Y-74119800D01*
X112091115Y-74119800D02*
X112138734Y-74072180D01*
X111281591Y-73167419D02*
X110948258Y-74167419D01*
X110948258Y-74167419D02*
X110614925Y-73167419D01*
X109519686Y-74167419D02*
X109519686Y-73167419D01*
X109043496Y-74167419D02*
X109043496Y-73167419D01*
X109043496Y-73167419D02*
X108472068Y-74167419D01*
X108472068Y-74167419D02*
X108472068Y-73167419D01*
X81118972Y-73802419D02*
X80785639Y-74802419D01*
X80785639Y-74802419D02*
X80452306Y-73802419D01*
X80118972Y-74802419D02*
X80118972Y-73802419D01*
X79642782Y-74802419D02*
X79642782Y-73802419D01*
X79642782Y-73802419D02*
X79071354Y-74802419D01*
X79071354Y-74802419D02*
X79071354Y-73802419D01*
X78595163Y-74421466D02*
X77833259Y-74421466D01*
X86833972Y-73802419D02*
X86500639Y-74802419D01*
X86500639Y-74802419D02*
X86167306Y-73802419D01*
X85833972Y-74802419D02*
X85833972Y-73802419D01*
X85357782Y-74802419D02*
X85357782Y-73802419D01*
X85357782Y-73802419D02*
X84786354Y-74802419D01*
X84786354Y-74802419D02*
X84786354Y-73802419D01*
X84310163Y-74421466D02*
X83548259Y-74421466D01*
X83929211Y-74802419D02*
X83929211Y-74040514D01*
X108328734Y-85311704D02*
X107852544Y-85311704D01*
X108423972Y-85597419D02*
X108090639Y-84597419D01*
X108090639Y-84597419D02*
X107757306Y-85597419D01*
X107423972Y-85597419D02*
X107423972Y-84597419D01*
X107423972Y-84597419D02*
X107090639Y-85311704D01*
X107090639Y-85311704D02*
X106757306Y-84597419D01*
X106757306Y-84597419D02*
X106757306Y-85597419D01*
X105709687Y-85502180D02*
X105757306Y-85549800D01*
X105757306Y-85549800D02*
X105900163Y-85597419D01*
X105900163Y-85597419D02*
X105995401Y-85597419D01*
X105995401Y-85597419D02*
X106138258Y-85549800D01*
X106138258Y-85549800D02*
X106233496Y-85454561D01*
X106233496Y-85454561D02*
X106281115Y-85359323D01*
X106281115Y-85359323D02*
X106328734Y-85168847D01*
X106328734Y-85168847D02*
X106328734Y-85025990D01*
X106328734Y-85025990D02*
X106281115Y-84835514D01*
X106281115Y-84835514D02*
X106233496Y-84740276D01*
X106233496Y-84740276D02*
X106138258Y-84645038D01*
X106138258Y-84645038D02*
X105995401Y-84597419D01*
X105995401Y-84597419D02*
X105900163Y-84597419D01*
X105900163Y-84597419D02*
X105757306Y-84645038D01*
X105757306Y-84645038D02*
X105709687Y-84692657D01*
X105090639Y-84597419D02*
X104995401Y-84597419D01*
X104995401Y-84597419D02*
X104900163Y-84645038D01*
X104900163Y-84645038D02*
X104852544Y-84692657D01*
X104852544Y-84692657D02*
X104804925Y-84787895D01*
X104804925Y-84787895D02*
X104757306Y-84978371D01*
X104757306Y-84978371D02*
X104757306Y-85216466D01*
X104757306Y-85216466D02*
X104804925Y-85406942D01*
X104804925Y-85406942D02*
X104852544Y-85502180D01*
X104852544Y-85502180D02*
X104900163Y-85549800D01*
X104900163Y-85549800D02*
X104995401Y-85597419D01*
X104995401Y-85597419D02*
X105090639Y-85597419D01*
X105090639Y-85597419D02*
X105185877Y-85549800D01*
X105185877Y-85549800D02*
X105233496Y-85502180D01*
X105233496Y-85502180D02*
X105281115Y-85406942D01*
X105281115Y-85406942D02*
X105328734Y-85216466D01*
X105328734Y-85216466D02*
X105328734Y-84978371D01*
X105328734Y-84978371D02*
X105281115Y-84787895D01*
X105281115Y-84787895D02*
X105233496Y-84692657D01*
X105233496Y-84692657D02*
X105185877Y-84645038D01*
X105185877Y-84645038D02*
X105090639Y-84597419D01*
X104423972Y-84597419D02*
X103804925Y-84597419D01*
X103804925Y-84597419D02*
X104138258Y-84978371D01*
X104138258Y-84978371D02*
X103995401Y-84978371D01*
X103995401Y-84978371D02*
X103900163Y-85025990D01*
X103900163Y-85025990D02*
X103852544Y-85073609D01*
X103852544Y-85073609D02*
X103804925Y-85168847D01*
X103804925Y-85168847D02*
X103804925Y-85406942D01*
X103804925Y-85406942D02*
X103852544Y-85502180D01*
X103852544Y-85502180D02*
X103900163Y-85549800D01*
X103900163Y-85549800D02*
X103995401Y-85597419D01*
X103995401Y-85597419D02*
X104281115Y-85597419D01*
X104281115Y-85597419D02*
X104376353Y-85549800D01*
X104376353Y-85549800D02*
X104423972Y-85502180D01*
X103471591Y-84597419D02*
X102852544Y-84597419D01*
X102852544Y-84597419D02*
X103185877Y-84978371D01*
X103185877Y-84978371D02*
X103043020Y-84978371D01*
X103043020Y-84978371D02*
X102947782Y-85025990D01*
X102947782Y-85025990D02*
X102900163Y-85073609D01*
X102900163Y-85073609D02*
X102852544Y-85168847D01*
X102852544Y-85168847D02*
X102852544Y-85406942D01*
X102852544Y-85406942D02*
X102900163Y-85502180D01*
X102900163Y-85502180D02*
X102947782Y-85549800D01*
X102947782Y-85549800D02*
X103043020Y-85597419D01*
X103043020Y-85597419D02*
X103328734Y-85597419D01*
X103328734Y-85597419D02*
X103423972Y-85549800D01*
X103423972Y-85549800D02*
X103471591Y-85502180D01*
X102233496Y-84597419D02*
X102138258Y-84597419D01*
X102138258Y-84597419D02*
X102043020Y-84645038D01*
X102043020Y-84645038D02*
X101995401Y-84692657D01*
X101995401Y-84692657D02*
X101947782Y-84787895D01*
X101947782Y-84787895D02*
X101900163Y-84978371D01*
X101900163Y-84978371D02*
X101900163Y-85216466D01*
X101900163Y-85216466D02*
X101947782Y-85406942D01*
X101947782Y-85406942D02*
X101995401Y-85502180D01*
X101995401Y-85502180D02*
X102043020Y-85549800D01*
X102043020Y-85549800D02*
X102138258Y-85597419D01*
X102138258Y-85597419D02*
X102233496Y-85597419D01*
X102233496Y-85597419D02*
X102328734Y-85549800D01*
X102328734Y-85549800D02*
X102376353Y-85502180D01*
X102376353Y-85502180D02*
X102423972Y-85406942D01*
X102423972Y-85406942D02*
X102471591Y-85216466D01*
X102471591Y-85216466D02*
X102471591Y-84978371D01*
X102471591Y-84978371D02*
X102423972Y-84787895D01*
X102423972Y-84787895D02*
X102376353Y-84692657D01*
X102376353Y-84692657D02*
X102328734Y-84645038D01*
X102328734Y-84645038D02*
X102233496Y-84597419D01*
X100900163Y-85597419D02*
X101233496Y-85121228D01*
X101471591Y-85597419D02*
X101471591Y-84597419D01*
X101471591Y-84597419D02*
X101090639Y-84597419D01*
X101090639Y-84597419D02*
X100995401Y-84645038D01*
X100995401Y-84645038D02*
X100947782Y-84692657D01*
X100947782Y-84692657D02*
X100900163Y-84787895D01*
X100900163Y-84787895D02*
X100900163Y-84930752D01*
X100900163Y-84930752D02*
X100947782Y-85025990D01*
X100947782Y-85025990D02*
X100995401Y-85073609D01*
X100995401Y-85073609D02*
X101090639Y-85121228D01*
X101090639Y-85121228D02*
X101471591Y-85121228D01*
X99709686Y-85597419D02*
X99709686Y-84597419D01*
X99709686Y-84597419D02*
X99471591Y-84597419D01*
X99471591Y-84597419D02*
X99328734Y-84645038D01*
X99328734Y-84645038D02*
X99233496Y-84740276D01*
X99233496Y-84740276D02*
X99185877Y-84835514D01*
X99185877Y-84835514D02*
X99138258Y-85025990D01*
X99138258Y-85025990D02*
X99138258Y-85168847D01*
X99138258Y-85168847D02*
X99185877Y-85359323D01*
X99185877Y-85359323D02*
X99233496Y-85454561D01*
X99233496Y-85454561D02*
X99328734Y-85549800D01*
X99328734Y-85549800D02*
X99471591Y-85597419D01*
X99471591Y-85597419D02*
X99709686Y-85597419D01*
X98328734Y-85549800D02*
X98423972Y-85597419D01*
X98423972Y-85597419D02*
X98614448Y-85597419D01*
X98614448Y-85597419D02*
X98709686Y-85549800D01*
X98709686Y-85549800D02*
X98757305Y-85454561D01*
X98757305Y-85454561D02*
X98757305Y-85073609D01*
X98757305Y-85073609D02*
X98709686Y-84978371D01*
X98709686Y-84978371D02*
X98614448Y-84930752D01*
X98614448Y-84930752D02*
X98423972Y-84930752D01*
X98423972Y-84930752D02*
X98328734Y-84978371D01*
X98328734Y-84978371D02*
X98281115Y-85073609D01*
X98281115Y-85073609D02*
X98281115Y-85168847D01*
X98281115Y-85168847D02*
X98757305Y-85264085D01*
X97947781Y-84930752D02*
X97709686Y-85597419D01*
X97709686Y-85597419D02*
X97471591Y-84930752D01*
X95995400Y-85073609D02*
X95852543Y-85121228D01*
X95852543Y-85121228D02*
X95804924Y-85168847D01*
X95804924Y-85168847D02*
X95757305Y-85264085D01*
X95757305Y-85264085D02*
X95757305Y-85406942D01*
X95757305Y-85406942D02*
X95804924Y-85502180D01*
X95804924Y-85502180D02*
X95852543Y-85549800D01*
X95852543Y-85549800D02*
X95947781Y-85597419D01*
X95947781Y-85597419D02*
X96328733Y-85597419D01*
X96328733Y-85597419D02*
X96328733Y-84597419D01*
X96328733Y-84597419D02*
X95995400Y-84597419D01*
X95995400Y-84597419D02*
X95900162Y-84645038D01*
X95900162Y-84645038D02*
X95852543Y-84692657D01*
X95852543Y-84692657D02*
X95804924Y-84787895D01*
X95804924Y-84787895D02*
X95804924Y-84883133D01*
X95804924Y-84883133D02*
X95852543Y-84978371D01*
X95852543Y-84978371D02*
X95900162Y-85025990D01*
X95900162Y-85025990D02*
X95995400Y-85073609D01*
X95995400Y-85073609D02*
X96328733Y-85073609D01*
X95185876Y-85597419D02*
X95281114Y-85549800D01*
X95281114Y-85549800D02*
X95328733Y-85502180D01*
X95328733Y-85502180D02*
X95376352Y-85406942D01*
X95376352Y-85406942D02*
X95376352Y-85121228D01*
X95376352Y-85121228D02*
X95328733Y-85025990D01*
X95328733Y-85025990D02*
X95281114Y-84978371D01*
X95281114Y-84978371D02*
X95185876Y-84930752D01*
X95185876Y-84930752D02*
X95043019Y-84930752D01*
X95043019Y-84930752D02*
X94947781Y-84978371D01*
X94947781Y-84978371D02*
X94900162Y-85025990D01*
X94900162Y-85025990D02*
X94852543Y-85121228D01*
X94852543Y-85121228D02*
X94852543Y-85406942D01*
X94852543Y-85406942D02*
X94900162Y-85502180D01*
X94900162Y-85502180D02*
X94947781Y-85549800D01*
X94947781Y-85549800D02*
X95043019Y-85597419D01*
X95043019Y-85597419D02*
X95185876Y-85597419D01*
X93995400Y-85597419D02*
X93995400Y-85073609D01*
X93995400Y-85073609D02*
X94043019Y-84978371D01*
X94043019Y-84978371D02*
X94138257Y-84930752D01*
X94138257Y-84930752D02*
X94328733Y-84930752D01*
X94328733Y-84930752D02*
X94423971Y-84978371D01*
X93995400Y-85549800D02*
X94090638Y-85597419D01*
X94090638Y-85597419D02*
X94328733Y-85597419D01*
X94328733Y-85597419D02*
X94423971Y-85549800D01*
X94423971Y-85549800D02*
X94471590Y-85454561D01*
X94471590Y-85454561D02*
X94471590Y-85359323D01*
X94471590Y-85359323D02*
X94423971Y-85264085D01*
X94423971Y-85264085D02*
X94328733Y-85216466D01*
X94328733Y-85216466D02*
X94090638Y-85216466D01*
X94090638Y-85216466D02*
X93995400Y-85168847D01*
X93519209Y-85597419D02*
X93519209Y-84930752D01*
X93519209Y-85121228D02*
X93471590Y-85025990D01*
X93471590Y-85025990D02*
X93423971Y-84978371D01*
X93423971Y-84978371D02*
X93328733Y-84930752D01*
X93328733Y-84930752D02*
X93233495Y-84930752D01*
X92471590Y-85597419D02*
X92471590Y-84597419D01*
X92471590Y-85549800D02*
X92566828Y-85597419D01*
X92566828Y-85597419D02*
X92757304Y-85597419D01*
X92757304Y-85597419D02*
X92852542Y-85549800D01*
X92852542Y-85549800D02*
X92900161Y-85502180D01*
X92900161Y-85502180D02*
X92947780Y-85406942D01*
X92947780Y-85406942D02*
X92947780Y-85121228D01*
X92947780Y-85121228D02*
X92900161Y-85025990D01*
X92900161Y-85025990D02*
X92852542Y-84978371D01*
X92852542Y-84978371D02*
X92757304Y-84930752D01*
X92757304Y-84930752D02*
X92566828Y-84930752D01*
X92566828Y-84930752D02*
X92471590Y-84978371D01*
M02*
