%TF.GenerationSoftware,KiCad,Pcbnew,9.0.3*%
%TF.CreationDate,2026-02-18T19:56:22-06:00*%
%TF.ProjectId,AMC0330R_Mount,414d4330-3333-4305-925f-4d6f756e742e,rev?*%
%TF.SameCoordinates,Original*%
%TF.FileFunction,Legend,Top*%
%TF.FilePolarity,Positive*%
%FSLAX46Y46*%
G04 Gerber Fmt 4.6, Leading zero omitted, Abs format (unit mm)*
G04 Created by KiCad (PCBNEW 9.0.3) date 2026-02-18 19:56:22*
%MOMM*%
%LPD*%
G01*
G04 APERTURE LIST*
%ADD10C,0.150000*%
%ADD11C,0.120000*%
G04 APERTURE END LIST*
D10*
X87987381Y-69034819D02*
X87987381Y-68034819D01*
X87987381Y-68511009D02*
X88558809Y-68511009D01*
X88558809Y-69034819D02*
X88558809Y-68034819D01*
X89035000Y-69034819D02*
X89035000Y-68034819D01*
X90034999Y-68082438D02*
X89939761Y-68034819D01*
X89939761Y-68034819D02*
X89796904Y-68034819D01*
X89796904Y-68034819D02*
X89654047Y-68082438D01*
X89654047Y-68082438D02*
X89558809Y-68177676D01*
X89558809Y-68177676D02*
X89511190Y-68272914D01*
X89511190Y-68272914D02*
X89463571Y-68463390D01*
X89463571Y-68463390D02*
X89463571Y-68606247D01*
X89463571Y-68606247D02*
X89511190Y-68796723D01*
X89511190Y-68796723D02*
X89558809Y-68891961D01*
X89558809Y-68891961D02*
X89654047Y-68987200D01*
X89654047Y-68987200D02*
X89796904Y-69034819D01*
X89796904Y-69034819D02*
X89892142Y-69034819D01*
X89892142Y-69034819D02*
X90034999Y-68987200D01*
X90034999Y-68987200D02*
X90082618Y-68939580D01*
X90082618Y-68939580D02*
X90082618Y-68606247D01*
X90082618Y-68606247D02*
X89892142Y-68606247D01*
X90511190Y-69034819D02*
X90511190Y-68034819D01*
X90511190Y-68511009D02*
X91082618Y-68511009D01*
X91082618Y-69034819D02*
X91082618Y-68034819D01*
X107492969Y-69034819D02*
X107016779Y-69034819D01*
X107016779Y-69034819D02*
X107016779Y-68034819D01*
X108016779Y-68034819D02*
X108207255Y-68034819D01*
X108207255Y-68034819D02*
X108302493Y-68082438D01*
X108302493Y-68082438D02*
X108397731Y-68177676D01*
X108397731Y-68177676D02*
X108445350Y-68368152D01*
X108445350Y-68368152D02*
X108445350Y-68701485D01*
X108445350Y-68701485D02*
X108397731Y-68891961D01*
X108397731Y-68891961D02*
X108302493Y-68987200D01*
X108302493Y-68987200D02*
X108207255Y-69034819D01*
X108207255Y-69034819D02*
X108016779Y-69034819D01*
X108016779Y-69034819D02*
X107921541Y-68987200D01*
X107921541Y-68987200D02*
X107826303Y-68891961D01*
X107826303Y-68891961D02*
X107778684Y-68701485D01*
X107778684Y-68701485D02*
X107778684Y-68368152D01*
X107778684Y-68368152D02*
X107826303Y-68177676D01*
X107826303Y-68177676D02*
X107921541Y-68082438D01*
X107921541Y-68082438D02*
X108016779Y-68034819D01*
X108778684Y-68034819D02*
X109016779Y-69034819D01*
X109016779Y-69034819D02*
X109207255Y-68320533D01*
X109207255Y-68320533D02*
X109397731Y-69034819D01*
X109397731Y-69034819D02*
X109635827Y-68034819D01*
X82375476Y-70574819D02*
X82375476Y-71289104D01*
X82375476Y-71289104D02*
X82327857Y-71431961D01*
X82327857Y-71431961D02*
X82232619Y-71527200D01*
X82232619Y-71527200D02*
X82089762Y-71574819D01*
X82089762Y-71574819D02*
X81994524Y-71574819D01*
X83375476Y-71574819D02*
X82804048Y-71574819D01*
X83089762Y-71574819D02*
X83089762Y-70574819D01*
X83089762Y-70574819D02*
X82994524Y-70717676D01*
X82994524Y-70717676D02*
X82899286Y-70812914D01*
X82899286Y-70812914D02*
X82804048Y-70860533D01*
X84232619Y-70908152D02*
X84232619Y-71574819D01*
X83994524Y-70527200D02*
X83756429Y-71241485D01*
X83756429Y-71241485D02*
X84375476Y-71241485D01*
X100838095Y-77574819D02*
X100838095Y-78384342D01*
X100838095Y-78384342D02*
X100885714Y-78479580D01*
X100885714Y-78479580D02*
X100933333Y-78527200D01*
X100933333Y-78527200D02*
X101028571Y-78574819D01*
X101028571Y-78574819D02*
X101219047Y-78574819D01*
X101219047Y-78574819D02*
X101314285Y-78527200D01*
X101314285Y-78527200D02*
X101361904Y-78479580D01*
X101361904Y-78479580D02*
X101409523Y-78384342D01*
X101409523Y-78384342D02*
X101409523Y-77574819D01*
X102409523Y-78574819D02*
X101838095Y-78574819D01*
X102123809Y-78574819D02*
X102123809Y-77574819D01*
X102123809Y-77574819D02*
X102028571Y-77717676D01*
X102028571Y-77717676D02*
X101933333Y-77812914D01*
X101933333Y-77812914D02*
X101838095Y-77860533D01*
X97623333Y-77829580D02*
X97575714Y-77877200D01*
X97575714Y-77877200D02*
X97432857Y-77924819D01*
X97432857Y-77924819D02*
X97337619Y-77924819D01*
X97337619Y-77924819D02*
X97194762Y-77877200D01*
X97194762Y-77877200D02*
X97099524Y-77781961D01*
X97099524Y-77781961D02*
X97051905Y-77686723D01*
X97051905Y-77686723D02*
X97004286Y-77496247D01*
X97004286Y-77496247D02*
X97004286Y-77353390D01*
X97004286Y-77353390D02*
X97051905Y-77162914D01*
X97051905Y-77162914D02*
X97099524Y-77067676D01*
X97099524Y-77067676D02*
X97194762Y-76972438D01*
X97194762Y-76972438D02*
X97337619Y-76924819D01*
X97337619Y-76924819D02*
X97432857Y-76924819D01*
X97432857Y-76924819D02*
X97575714Y-76972438D01*
X97575714Y-76972438D02*
X97623333Y-77020057D01*
X98528095Y-76924819D02*
X98051905Y-76924819D01*
X98051905Y-76924819D02*
X98004286Y-77401009D01*
X98004286Y-77401009D02*
X98051905Y-77353390D01*
X98051905Y-77353390D02*
X98147143Y-77305771D01*
X98147143Y-77305771D02*
X98385238Y-77305771D01*
X98385238Y-77305771D02*
X98480476Y-77353390D01*
X98480476Y-77353390D02*
X98528095Y-77401009D01*
X98528095Y-77401009D02*
X98575714Y-77496247D01*
X98575714Y-77496247D02*
X98575714Y-77734342D01*
X98575714Y-77734342D02*
X98528095Y-77829580D01*
X98528095Y-77829580D02*
X98480476Y-77877200D01*
X98480476Y-77877200D02*
X98385238Y-77924819D01*
X98385238Y-77924819D02*
X98147143Y-77924819D01*
X98147143Y-77924819D02*
X98051905Y-77877200D01*
X98051905Y-77877200D02*
X98004286Y-77829580D01*
X92543333Y-75384819D02*
X92210000Y-74908628D01*
X91971905Y-75384819D02*
X91971905Y-74384819D01*
X91971905Y-74384819D02*
X92352857Y-74384819D01*
X92352857Y-74384819D02*
X92448095Y-74432438D01*
X92448095Y-74432438D02*
X92495714Y-74480057D01*
X92495714Y-74480057D02*
X92543333Y-74575295D01*
X92543333Y-74575295D02*
X92543333Y-74718152D01*
X92543333Y-74718152D02*
X92495714Y-74813390D01*
X92495714Y-74813390D02*
X92448095Y-74861009D01*
X92448095Y-74861009D02*
X92352857Y-74908628D01*
X92352857Y-74908628D02*
X91971905Y-74908628D01*
X92924286Y-74480057D02*
X92971905Y-74432438D01*
X92971905Y-74432438D02*
X93067143Y-74384819D01*
X93067143Y-74384819D02*
X93305238Y-74384819D01*
X93305238Y-74384819D02*
X93400476Y-74432438D01*
X93400476Y-74432438D02*
X93448095Y-74480057D01*
X93448095Y-74480057D02*
X93495714Y-74575295D01*
X93495714Y-74575295D02*
X93495714Y-74670533D01*
X93495714Y-74670533D02*
X93448095Y-74813390D01*
X93448095Y-74813390D02*
X92876667Y-75384819D01*
X92876667Y-75384819D02*
X93495714Y-75384819D01*
X88098333Y-81099819D02*
X87765000Y-80623628D01*
X87526905Y-81099819D02*
X87526905Y-80099819D01*
X87526905Y-80099819D02*
X87907857Y-80099819D01*
X87907857Y-80099819D02*
X88003095Y-80147438D01*
X88003095Y-80147438D02*
X88050714Y-80195057D01*
X88050714Y-80195057D02*
X88098333Y-80290295D01*
X88098333Y-80290295D02*
X88098333Y-80433152D01*
X88098333Y-80433152D02*
X88050714Y-80528390D01*
X88050714Y-80528390D02*
X88003095Y-80576009D01*
X88003095Y-80576009D02*
X87907857Y-80623628D01*
X87907857Y-80623628D02*
X87526905Y-80623628D01*
X88431667Y-80099819D02*
X89050714Y-80099819D01*
X89050714Y-80099819D02*
X88717381Y-80480771D01*
X88717381Y-80480771D02*
X88860238Y-80480771D01*
X88860238Y-80480771D02*
X88955476Y-80528390D01*
X88955476Y-80528390D02*
X89003095Y-80576009D01*
X89003095Y-80576009D02*
X89050714Y-80671247D01*
X89050714Y-80671247D02*
X89050714Y-80909342D01*
X89050714Y-80909342D02*
X89003095Y-81004580D01*
X89003095Y-81004580D02*
X88955476Y-81052200D01*
X88955476Y-81052200D02*
X88860238Y-81099819D01*
X88860238Y-81099819D02*
X88574524Y-81099819D01*
X88574524Y-81099819D02*
X88479286Y-81052200D01*
X88479286Y-81052200D02*
X88431667Y-81004580D01*
X91908333Y-72209819D02*
X91575000Y-71733628D01*
X91336905Y-72209819D02*
X91336905Y-71209819D01*
X91336905Y-71209819D02*
X91717857Y-71209819D01*
X91717857Y-71209819D02*
X91813095Y-71257438D01*
X91813095Y-71257438D02*
X91860714Y-71305057D01*
X91860714Y-71305057D02*
X91908333Y-71400295D01*
X91908333Y-71400295D02*
X91908333Y-71543152D01*
X91908333Y-71543152D02*
X91860714Y-71638390D01*
X91860714Y-71638390D02*
X91813095Y-71686009D01*
X91813095Y-71686009D02*
X91717857Y-71733628D01*
X91717857Y-71733628D02*
X91336905Y-71733628D01*
X92860714Y-72209819D02*
X92289286Y-72209819D01*
X92575000Y-72209819D02*
X92575000Y-71209819D01*
X92575000Y-71209819D02*
X92479762Y-71352676D01*
X92479762Y-71352676D02*
X92384524Y-71447914D01*
X92384524Y-71447914D02*
X92289286Y-71495533D01*
X98933095Y-75654819D02*
X98933095Y-76464342D01*
X98933095Y-76464342D02*
X98980714Y-76559580D01*
X98980714Y-76559580D02*
X99028333Y-76607200D01*
X99028333Y-76607200D02*
X99123571Y-76654819D01*
X99123571Y-76654819D02*
X99314047Y-76654819D01*
X99314047Y-76654819D02*
X99409285Y-76607200D01*
X99409285Y-76607200D02*
X99456904Y-76559580D01*
X99456904Y-76559580D02*
X99504523Y-76464342D01*
X99504523Y-76464342D02*
X99504523Y-75654819D01*
X99933095Y-75750057D02*
X99980714Y-75702438D01*
X99980714Y-75702438D02*
X100075952Y-75654819D01*
X100075952Y-75654819D02*
X100314047Y-75654819D01*
X100314047Y-75654819D02*
X100409285Y-75702438D01*
X100409285Y-75702438D02*
X100456904Y-75750057D01*
X100456904Y-75750057D02*
X100504523Y-75845295D01*
X100504523Y-75845295D02*
X100504523Y-75940533D01*
X100504523Y-75940533D02*
X100456904Y-76083390D01*
X100456904Y-76083390D02*
X99885476Y-76654819D01*
X99885476Y-76654819D02*
X100504523Y-76654819D01*
X107783333Y-86084580D02*
X107735714Y-86132200D01*
X107735714Y-86132200D02*
X107592857Y-86179819D01*
X107592857Y-86179819D02*
X107497619Y-86179819D01*
X107497619Y-86179819D02*
X107354762Y-86132200D01*
X107354762Y-86132200D02*
X107259524Y-86036961D01*
X107259524Y-86036961D02*
X107211905Y-85941723D01*
X107211905Y-85941723D02*
X107164286Y-85751247D01*
X107164286Y-85751247D02*
X107164286Y-85608390D01*
X107164286Y-85608390D02*
X107211905Y-85417914D01*
X107211905Y-85417914D02*
X107259524Y-85322676D01*
X107259524Y-85322676D02*
X107354762Y-85227438D01*
X107354762Y-85227438D02*
X107497619Y-85179819D01*
X107497619Y-85179819D02*
X107592857Y-85179819D01*
X107592857Y-85179819D02*
X107735714Y-85227438D01*
X107735714Y-85227438D02*
X107783333Y-85275057D01*
X108640476Y-85179819D02*
X108450000Y-85179819D01*
X108450000Y-85179819D02*
X108354762Y-85227438D01*
X108354762Y-85227438D02*
X108307143Y-85275057D01*
X108307143Y-85275057D02*
X108211905Y-85417914D01*
X108211905Y-85417914D02*
X108164286Y-85608390D01*
X108164286Y-85608390D02*
X108164286Y-85989342D01*
X108164286Y-85989342D02*
X108211905Y-86084580D01*
X108211905Y-86084580D02*
X108259524Y-86132200D01*
X108259524Y-86132200D02*
X108354762Y-86179819D01*
X108354762Y-86179819D02*
X108545238Y-86179819D01*
X108545238Y-86179819D02*
X108640476Y-86132200D01*
X108640476Y-86132200D02*
X108688095Y-86084580D01*
X108688095Y-86084580D02*
X108735714Y-85989342D01*
X108735714Y-85989342D02*
X108735714Y-85751247D01*
X108735714Y-85751247D02*
X108688095Y-85656009D01*
X108688095Y-85656009D02*
X108640476Y-85608390D01*
X108640476Y-85608390D02*
X108545238Y-85560771D01*
X108545238Y-85560771D02*
X108354762Y-85560771D01*
X108354762Y-85560771D02*
X108259524Y-85608390D01*
X108259524Y-85608390D02*
X108211905Y-85656009D01*
X108211905Y-85656009D02*
X108164286Y-85751247D01*
X108944580Y-78271666D02*
X108992200Y-78319285D01*
X108992200Y-78319285D02*
X109039819Y-78462142D01*
X109039819Y-78462142D02*
X109039819Y-78557380D01*
X109039819Y-78557380D02*
X108992200Y-78700237D01*
X108992200Y-78700237D02*
X108896961Y-78795475D01*
X108896961Y-78795475D02*
X108801723Y-78843094D01*
X108801723Y-78843094D02*
X108611247Y-78890713D01*
X108611247Y-78890713D02*
X108468390Y-78890713D01*
X108468390Y-78890713D02*
X108277914Y-78843094D01*
X108277914Y-78843094D02*
X108182676Y-78795475D01*
X108182676Y-78795475D02*
X108087438Y-78700237D01*
X108087438Y-78700237D02*
X108039819Y-78557380D01*
X108039819Y-78557380D02*
X108039819Y-78462142D01*
X108039819Y-78462142D02*
X108087438Y-78319285D01*
X108087438Y-78319285D02*
X108135057Y-78271666D01*
X108373152Y-77414523D02*
X109039819Y-77414523D01*
X107992200Y-77652618D02*
X108706485Y-77890713D01*
X108706485Y-77890713D02*
X108706485Y-77271666D01*
X108944580Y-73826666D02*
X108992200Y-73874285D01*
X108992200Y-73874285D02*
X109039819Y-74017142D01*
X109039819Y-74017142D02*
X109039819Y-74112380D01*
X109039819Y-74112380D02*
X108992200Y-74255237D01*
X108992200Y-74255237D02*
X108896961Y-74350475D01*
X108896961Y-74350475D02*
X108801723Y-74398094D01*
X108801723Y-74398094D02*
X108611247Y-74445713D01*
X108611247Y-74445713D02*
X108468390Y-74445713D01*
X108468390Y-74445713D02*
X108277914Y-74398094D01*
X108277914Y-74398094D02*
X108182676Y-74350475D01*
X108182676Y-74350475D02*
X108087438Y-74255237D01*
X108087438Y-74255237D02*
X108039819Y-74112380D01*
X108039819Y-74112380D02*
X108039819Y-74017142D01*
X108039819Y-74017142D02*
X108087438Y-73874285D01*
X108087438Y-73874285D02*
X108135057Y-73826666D01*
X108039819Y-73493332D02*
X108039819Y-72874285D01*
X108039819Y-72874285D02*
X108420771Y-73207618D01*
X108420771Y-73207618D02*
X108420771Y-73064761D01*
X108420771Y-73064761D02*
X108468390Y-72969523D01*
X108468390Y-72969523D02*
X108516009Y-72921904D01*
X108516009Y-72921904D02*
X108611247Y-72874285D01*
X108611247Y-72874285D02*
X108849342Y-72874285D01*
X108849342Y-72874285D02*
X108944580Y-72921904D01*
X108944580Y-72921904D02*
X108992200Y-72969523D01*
X108992200Y-72969523D02*
X109039819Y-73064761D01*
X109039819Y-73064761D02*
X109039819Y-73350475D01*
X109039819Y-73350475D02*
X108992200Y-73445713D01*
X108992200Y-73445713D02*
X108944580Y-73493332D01*
X90003333Y-84814580D02*
X89955714Y-84862200D01*
X89955714Y-84862200D02*
X89812857Y-84909819D01*
X89812857Y-84909819D02*
X89717619Y-84909819D01*
X89717619Y-84909819D02*
X89574762Y-84862200D01*
X89574762Y-84862200D02*
X89479524Y-84766961D01*
X89479524Y-84766961D02*
X89431905Y-84671723D01*
X89431905Y-84671723D02*
X89384286Y-84481247D01*
X89384286Y-84481247D02*
X89384286Y-84338390D01*
X89384286Y-84338390D02*
X89431905Y-84147914D01*
X89431905Y-84147914D02*
X89479524Y-84052676D01*
X89479524Y-84052676D02*
X89574762Y-83957438D01*
X89574762Y-83957438D02*
X89717619Y-83909819D01*
X89717619Y-83909819D02*
X89812857Y-83909819D01*
X89812857Y-83909819D02*
X89955714Y-83957438D01*
X89955714Y-83957438D02*
X90003333Y-84005057D01*
X90384286Y-84005057D02*
X90431905Y-83957438D01*
X90431905Y-83957438D02*
X90527143Y-83909819D01*
X90527143Y-83909819D02*
X90765238Y-83909819D01*
X90765238Y-83909819D02*
X90860476Y-83957438D01*
X90860476Y-83957438D02*
X90908095Y-84005057D01*
X90908095Y-84005057D02*
X90955714Y-84100295D01*
X90955714Y-84100295D02*
X90955714Y-84195533D01*
X90955714Y-84195533D02*
X90908095Y-84338390D01*
X90908095Y-84338390D02*
X90336667Y-84909819D01*
X90336667Y-84909819D02*
X90955714Y-84909819D01*
X93108333Y-84824580D02*
X93060714Y-84872200D01*
X93060714Y-84872200D02*
X92917857Y-84919819D01*
X92917857Y-84919819D02*
X92822619Y-84919819D01*
X92822619Y-84919819D02*
X92679762Y-84872200D01*
X92679762Y-84872200D02*
X92584524Y-84776961D01*
X92584524Y-84776961D02*
X92536905Y-84681723D01*
X92536905Y-84681723D02*
X92489286Y-84491247D01*
X92489286Y-84491247D02*
X92489286Y-84348390D01*
X92489286Y-84348390D02*
X92536905Y-84157914D01*
X92536905Y-84157914D02*
X92584524Y-84062676D01*
X92584524Y-84062676D02*
X92679762Y-83967438D01*
X92679762Y-83967438D02*
X92822619Y-83919819D01*
X92822619Y-83919819D02*
X92917857Y-83919819D01*
X92917857Y-83919819D02*
X93060714Y-83967438D01*
X93060714Y-83967438D02*
X93108333Y-84015057D01*
X94060714Y-84919819D02*
X93489286Y-84919819D01*
X93775000Y-84919819D02*
X93775000Y-83919819D01*
X93775000Y-83919819D02*
X93679762Y-84062676D01*
X93679762Y-84062676D02*
X93584524Y-84157914D01*
X93584524Y-84157914D02*
X93489286Y-84205533D01*
X110791666Y-70574819D02*
X110791666Y-71289104D01*
X110791666Y-71289104D02*
X110744047Y-71431961D01*
X110744047Y-71431961D02*
X110648809Y-71527200D01*
X110648809Y-71527200D02*
X110505952Y-71574819D01*
X110505952Y-71574819D02*
X110410714Y-71574819D01*
X111220238Y-70670057D02*
X111267857Y-70622438D01*
X111267857Y-70622438D02*
X111363095Y-70574819D01*
X111363095Y-70574819D02*
X111601190Y-70574819D01*
X111601190Y-70574819D02*
X111696428Y-70622438D01*
X111696428Y-70622438D02*
X111744047Y-70670057D01*
X111744047Y-70670057D02*
X111791666Y-70765295D01*
X111791666Y-70765295D02*
X111791666Y-70860533D01*
X111791666Y-70860533D02*
X111744047Y-71003390D01*
X111744047Y-71003390D02*
X111172619Y-71574819D01*
X111172619Y-71574819D02*
X111791666Y-71574819D01*
D11*
%TO.C,J14*%
X86190000Y-73085000D02*
X86190000Y-72035000D01*
X85990000Y-81435000D02*
X84090000Y-81435000D01*
X85990000Y-78735000D02*
X85990000Y-81435000D01*
X85990000Y-72235000D02*
X85990000Y-74835000D01*
X85140000Y-72035000D02*
X86190000Y-72035000D01*
X80090000Y-81435000D02*
X71290000Y-81435000D01*
X71290000Y-81435000D02*
X71290000Y-72235000D01*
X71290000Y-72235000D02*
X85990000Y-72235000D01*
%TO.C,U1*%
X97740000Y-78965000D02*
X97740000Y-79535000D01*
X97740000Y-85035000D02*
X97740000Y-84465000D01*
X101600000Y-78965000D02*
X97740000Y-78965000D01*
X101600000Y-78965000D02*
X105460000Y-78965000D01*
X101600000Y-85035000D02*
X97740000Y-85035000D01*
X101600000Y-85035000D02*
X105460000Y-85035000D01*
X105460000Y-78965000D02*
X105460000Y-79535000D01*
X105460000Y-85035000D02*
X105460000Y-84465000D01*
X96612500Y-79535000D02*
X96372500Y-79205000D01*
X96852500Y-79205000D01*
X96612500Y-79535000D01*
G36*
X96612500Y-79535000D02*
G01*
X96372500Y-79205000D01*
X96852500Y-79205000D01*
X96612500Y-79535000D01*
G37*
%TO.C,C5*%
X94353748Y-78205000D02*
X94876252Y-78205000D01*
X94353748Y-76735000D02*
X94876252Y-76735000D01*
%TO.C,R2*%
X90070000Y-74702936D02*
X90070000Y-75157064D01*
X91540000Y-74702936D02*
X91540000Y-75157064D01*
%TO.C,R3*%
X90397064Y-78005000D02*
X89942936Y-78005000D01*
X90397064Y-79475000D02*
X89942936Y-79475000D01*
%TO.C,R1*%
X88672936Y-72490000D02*
X89127064Y-72490000D01*
X88672936Y-71020000D02*
X89127064Y-71020000D01*
%TO.C,U2*%
X104140000Y-68840000D02*
X103800000Y-68370000D01*
X104480000Y-68370000D01*
X104140000Y-68840000D01*
G36*
X104140000Y-68840000D02*
G01*
X103800000Y-68370000D01*
X104480000Y-68370000D01*
X104140000Y-68840000D01*
G37*
X94380000Y-75060000D02*
X94380000Y-68840000D01*
X106280000Y-75060000D02*
X94380000Y-75060000D01*
X94380000Y-68840000D02*
X103844000Y-68840000D01*
X104436000Y-68840000D02*
X106280000Y-68840000D01*
X106280000Y-68840000D02*
X106280000Y-75060000D01*
%TO.C,C6*%
X110590000Y-83738748D02*
X110590000Y-84261252D01*
X109120000Y-83738748D02*
X109120000Y-84261252D01*
%TO.C,C4*%
X110590000Y-79346248D02*
X110590000Y-79868752D01*
X109120000Y-79346248D02*
X109120000Y-79868752D01*
%TO.C,C3*%
X110590000Y-74668748D02*
X110590000Y-75191252D01*
X109120000Y-74668748D02*
X109120000Y-75191252D01*
%TO.C,C2*%
X90905000Y-81653748D02*
X90905000Y-82176252D01*
X89435000Y-81653748D02*
X89435000Y-82176252D01*
%TO.C,C1*%
X94010000Y-81663748D02*
X94010000Y-82186252D01*
X92540000Y-81663748D02*
X92540000Y-82186252D01*
%TO.C,J2*%
X112285000Y-72275000D02*
X113665000Y-72275000D01*
X112285000Y-73655000D02*
X112285000Y-72275000D01*
X112285000Y-74925000D02*
X112285000Y-82655000D01*
X112285000Y-74925000D02*
X115045000Y-74925000D01*
X112285000Y-82655000D02*
X115045000Y-82655000D01*
X115045000Y-74925000D02*
X115045000Y-82655000D01*
%TD*%
M02*
