%TF.GenerationSoftware,KiCad,Pcbnew,10.0.0*%
%TF.CreationDate,2026-06-15T16:17:19-05:00*%
%TF.ProjectId,OpenLead_Headless,4f70656e-4c65-4616-945f-486561646c65,rev?*%
%TF.SameCoordinates,Original*%
%TF.FileFunction,Legend,Top*%
%TF.FilePolarity,Positive*%
%FSLAX46Y46*%
G04 Gerber Fmt 4.6, Leading zero omitted, Abs format (unit mm)*
G04 Created by KiCad (PCBNEW 10.0.0) date 2026-06-15 16:17:19*
%MOMM*%
%LPD*%
G01*
G04 APERTURE LIST*
G04 Aperture macros list*
%AMRoundRect*
0 Rectangle with rounded corners*
0 $1 Rounding radius*
0 $2 $3 $4 $5 $6 $7 $8 $9 X,Y pos of 4 corners*
0 Add a 4 corners polygon primitive as box body*
4,1,4,$2,$3,$4,$5,$6,$7,$8,$9,$2,$3,0*
0 Add four circle primitives for the rounded corners*
1,1,$1+$1,$2,$3*
1,1,$1+$1,$4,$5*
1,1,$1+$1,$6,$7*
1,1,$1+$1,$8,$9*
0 Add four rect primitives between the rounded corners*
20,1,$1+$1,$2,$3,$4,$5,0*
20,1,$1+$1,$4,$5,$6,$7,0*
20,1,$1+$1,$6,$7,$8,$9,0*
20,1,$1+$1,$8,$9,$2,$3,0*%
G04 Aperture macros list end*
%ADD10C,0.090000*%
%ADD11C,0.120000*%
%ADD12RoundRect,0.250000X1.050000X-1.050000X1.050000X1.050000X-1.050000X1.050000X-1.050000X-1.050000X0*%
%ADD13C,4.400000*%
%ADD14O,2.500000X1.500000*%
%ADD15R,2.500000X1.500000*%
%ADD16O,3.500000X2.200000*%
%ADD17RoundRect,0.250000X-0.262500X-0.450000X0.262500X-0.450000X0.262500X0.450000X-0.262500X0.450000X0*%
%ADD18RoundRect,0.250000X0.262500X0.450000X-0.262500X0.450000X-0.262500X-0.450000X0.262500X-0.450000X0*%
%ADD19RoundRect,0.250000X0.450000X-0.262500X0.450000X0.262500X-0.450000X0.262500X-0.450000X-0.262500X0*%
%ADD20RoundRect,0.250000X-0.450000X0.262500X-0.450000X-0.262500X0.450000X-0.262500X0.450000X0.262500X0*%
%ADD21RoundRect,0.250000X0.250000X0.475000X-0.250000X0.475000X-0.250000X-0.475000X0.250000X-0.475000X0*%
%ADD22O,1.700000X1.700000*%
%ADD23R,1.700000X1.700000*%
%ADD24RoundRect,0.150000X0.150000X-0.587500X0.150000X0.587500X-0.150000X0.587500X-0.150000X-0.587500X0*%
%ADD25RoundRect,0.225000X-0.375000X0.225000X-0.375000X-0.225000X0.375000X-0.225000X0.375000X0.225000X0*%
%ADD26RoundRect,0.225000X0.375000X-0.225000X0.375000X0.225000X-0.375000X0.225000X-0.375000X-0.225000X0*%
%ADD27RoundRect,0.250000X-0.825000X-0.825000X0.825000X-0.825000X0.825000X0.825000X-0.825000X0.825000X0*%
%ADD28C,1.700000*%
G04 APERTURE END LIST*
D10*
X155181333Y-105737415D02*
X155181333Y-106308843D01*
X155181333Y-106308843D02*
X155143238Y-106423129D01*
X155143238Y-106423129D02*
X155067047Y-106499320D01*
X155067047Y-106499320D02*
X154952762Y-106537415D01*
X154952762Y-106537415D02*
X154876571Y-106537415D01*
X155905143Y-105737415D02*
X155752762Y-105737415D01*
X155752762Y-105737415D02*
X155676571Y-105775510D01*
X155676571Y-105775510D02*
X155638476Y-105813605D01*
X155638476Y-105813605D02*
X155562286Y-105927891D01*
X155562286Y-105927891D02*
X155524190Y-106080272D01*
X155524190Y-106080272D02*
X155524190Y-106385034D01*
X155524190Y-106385034D02*
X155562286Y-106461224D01*
X155562286Y-106461224D02*
X155600381Y-106499320D01*
X155600381Y-106499320D02*
X155676571Y-106537415D01*
X155676571Y-106537415D02*
X155828952Y-106537415D01*
X155828952Y-106537415D02*
X155905143Y-106499320D01*
X155905143Y-106499320D02*
X155943238Y-106461224D01*
X155943238Y-106461224D02*
X155981333Y-106385034D01*
X155981333Y-106385034D02*
X155981333Y-106194558D01*
X155981333Y-106194558D02*
X155943238Y-106118367D01*
X155943238Y-106118367D02*
X155905143Y-106080272D01*
X155905143Y-106080272D02*
X155828952Y-106042177D01*
X155828952Y-106042177D02*
X155676571Y-106042177D01*
X155676571Y-106042177D02*
X155600381Y-106080272D01*
X155600381Y-106080272D02*
X155562286Y-106118367D01*
X155562286Y-106118367D02*
X155524190Y-106194558D01*
X167303332Y-97387320D02*
X167417618Y-97425415D01*
X167417618Y-97425415D02*
X167608094Y-97425415D01*
X167608094Y-97425415D02*
X167684285Y-97387320D01*
X167684285Y-97387320D02*
X167722380Y-97349224D01*
X167722380Y-97349224D02*
X167760475Y-97273034D01*
X167760475Y-97273034D02*
X167760475Y-97196843D01*
X167760475Y-97196843D02*
X167722380Y-97120653D01*
X167722380Y-97120653D02*
X167684285Y-97082558D01*
X167684285Y-97082558D02*
X167608094Y-97044462D01*
X167608094Y-97044462D02*
X167455713Y-97006367D01*
X167455713Y-97006367D02*
X167379523Y-96968272D01*
X167379523Y-96968272D02*
X167341428Y-96930177D01*
X167341428Y-96930177D02*
X167303332Y-96853986D01*
X167303332Y-96853986D02*
X167303332Y-96777796D01*
X167303332Y-96777796D02*
X167341428Y-96701605D01*
X167341428Y-96701605D02*
X167379523Y-96663510D01*
X167379523Y-96663510D02*
X167455713Y-96625415D01*
X167455713Y-96625415D02*
X167646190Y-96625415D01*
X167646190Y-96625415D02*
X167760475Y-96663510D01*
X168027142Y-96625415D02*
X168217618Y-97425415D01*
X168217618Y-97425415D02*
X168369999Y-96853986D01*
X168369999Y-96853986D02*
X168522380Y-97425415D01*
X168522380Y-97425415D02*
X168712857Y-96625415D01*
X168941428Y-96625415D02*
X169436666Y-96625415D01*
X169436666Y-96625415D02*
X169170000Y-96930177D01*
X169170000Y-96930177D02*
X169284285Y-96930177D01*
X169284285Y-96930177D02*
X169360476Y-96968272D01*
X169360476Y-96968272D02*
X169398571Y-97006367D01*
X169398571Y-97006367D02*
X169436666Y-97082558D01*
X169436666Y-97082558D02*
X169436666Y-97273034D01*
X169436666Y-97273034D02*
X169398571Y-97349224D01*
X169398571Y-97349224D02*
X169360476Y-97387320D01*
X169360476Y-97387320D02*
X169284285Y-97425415D01*
X169284285Y-97425415D02*
X169055714Y-97425415D01*
X169055714Y-97425415D02*
X168979523Y-97387320D01*
X168979523Y-97387320D02*
X168941428Y-97349224D01*
X164331714Y-103362415D02*
X164065047Y-102981462D01*
X163874571Y-103362415D02*
X163874571Y-102562415D01*
X163874571Y-102562415D02*
X164179333Y-102562415D01*
X164179333Y-102562415D02*
X164255523Y-102600510D01*
X164255523Y-102600510D02*
X164293618Y-102638605D01*
X164293618Y-102638605D02*
X164331714Y-102714796D01*
X164331714Y-102714796D02*
X164331714Y-102829081D01*
X164331714Y-102829081D02*
X164293618Y-102905272D01*
X164293618Y-102905272D02*
X164255523Y-102943367D01*
X164255523Y-102943367D02*
X164179333Y-102981462D01*
X164179333Y-102981462D02*
X163874571Y-102981462D01*
X164636475Y-102638605D02*
X164674571Y-102600510D01*
X164674571Y-102600510D02*
X164750761Y-102562415D01*
X164750761Y-102562415D02*
X164941237Y-102562415D01*
X164941237Y-102562415D02*
X165017428Y-102600510D01*
X165017428Y-102600510D02*
X165055523Y-102638605D01*
X165055523Y-102638605D02*
X165093618Y-102714796D01*
X165093618Y-102714796D02*
X165093618Y-102790986D01*
X165093618Y-102790986D02*
X165055523Y-102905272D01*
X165055523Y-102905272D02*
X164598380Y-103362415D01*
X164598380Y-103362415D02*
X165093618Y-103362415D01*
X165550761Y-102905272D02*
X165474571Y-102867177D01*
X165474571Y-102867177D02*
X165436476Y-102829081D01*
X165436476Y-102829081D02*
X165398380Y-102752891D01*
X165398380Y-102752891D02*
X165398380Y-102714796D01*
X165398380Y-102714796D02*
X165436476Y-102638605D01*
X165436476Y-102638605D02*
X165474571Y-102600510D01*
X165474571Y-102600510D02*
X165550761Y-102562415D01*
X165550761Y-102562415D02*
X165703142Y-102562415D01*
X165703142Y-102562415D02*
X165779333Y-102600510D01*
X165779333Y-102600510D02*
X165817428Y-102638605D01*
X165817428Y-102638605D02*
X165855523Y-102714796D01*
X165855523Y-102714796D02*
X165855523Y-102752891D01*
X165855523Y-102752891D02*
X165817428Y-102829081D01*
X165817428Y-102829081D02*
X165779333Y-102867177D01*
X165779333Y-102867177D02*
X165703142Y-102905272D01*
X165703142Y-102905272D02*
X165550761Y-102905272D01*
X165550761Y-102905272D02*
X165474571Y-102943367D01*
X165474571Y-102943367D02*
X165436476Y-102981462D01*
X165436476Y-102981462D02*
X165398380Y-103057653D01*
X165398380Y-103057653D02*
X165398380Y-103210034D01*
X165398380Y-103210034D02*
X165436476Y-103286224D01*
X165436476Y-103286224D02*
X165474571Y-103324320D01*
X165474571Y-103324320D02*
X165550761Y-103362415D01*
X165550761Y-103362415D02*
X165703142Y-103362415D01*
X165703142Y-103362415D02*
X165779333Y-103324320D01*
X165779333Y-103324320D02*
X165817428Y-103286224D01*
X165817428Y-103286224D02*
X165855523Y-103210034D01*
X165855523Y-103210034D02*
X165855523Y-103057653D01*
X165855523Y-103057653D02*
X165817428Y-102981462D01*
X165817428Y-102981462D02*
X165779333Y-102943367D01*
X165779333Y-102943367D02*
X165703142Y-102905272D01*
X154552714Y-96250415D02*
X154286047Y-95869462D01*
X154095571Y-96250415D02*
X154095571Y-95450415D01*
X154095571Y-95450415D02*
X154400333Y-95450415D01*
X154400333Y-95450415D02*
X154476523Y-95488510D01*
X154476523Y-95488510D02*
X154514618Y-95526605D01*
X154514618Y-95526605D02*
X154552714Y-95602796D01*
X154552714Y-95602796D02*
X154552714Y-95717081D01*
X154552714Y-95717081D02*
X154514618Y-95793272D01*
X154514618Y-95793272D02*
X154476523Y-95831367D01*
X154476523Y-95831367D02*
X154400333Y-95869462D01*
X154400333Y-95869462D02*
X154095571Y-95869462D01*
X154857475Y-95526605D02*
X154895571Y-95488510D01*
X154895571Y-95488510D02*
X154971761Y-95450415D01*
X154971761Y-95450415D02*
X155162237Y-95450415D01*
X155162237Y-95450415D02*
X155238428Y-95488510D01*
X155238428Y-95488510D02*
X155276523Y-95526605D01*
X155276523Y-95526605D02*
X155314618Y-95602796D01*
X155314618Y-95602796D02*
X155314618Y-95678986D01*
X155314618Y-95678986D02*
X155276523Y-95793272D01*
X155276523Y-95793272D02*
X154819380Y-96250415D01*
X154819380Y-96250415D02*
X155314618Y-96250415D01*
X155695571Y-96250415D02*
X155847952Y-96250415D01*
X155847952Y-96250415D02*
X155924142Y-96212320D01*
X155924142Y-96212320D02*
X155962238Y-96174224D01*
X155962238Y-96174224D02*
X156038428Y-96059939D01*
X156038428Y-96059939D02*
X156076523Y-95907558D01*
X156076523Y-95907558D02*
X156076523Y-95602796D01*
X156076523Y-95602796D02*
X156038428Y-95526605D01*
X156038428Y-95526605D02*
X156000333Y-95488510D01*
X156000333Y-95488510D02*
X155924142Y-95450415D01*
X155924142Y-95450415D02*
X155771761Y-95450415D01*
X155771761Y-95450415D02*
X155695571Y-95488510D01*
X155695571Y-95488510D02*
X155657476Y-95526605D01*
X155657476Y-95526605D02*
X155619380Y-95602796D01*
X155619380Y-95602796D02*
X155619380Y-95793272D01*
X155619380Y-95793272D02*
X155657476Y-95869462D01*
X155657476Y-95869462D02*
X155695571Y-95907558D01*
X155695571Y-95907558D02*
X155771761Y-95945653D01*
X155771761Y-95945653D02*
X155924142Y-95945653D01*
X155924142Y-95945653D02*
X156000333Y-95907558D01*
X156000333Y-95907558D02*
X156038428Y-95869462D01*
X156038428Y-95869462D02*
X156076523Y-95793272D01*
X148447415Y-86366285D02*
X148066462Y-86632952D01*
X148447415Y-86823428D02*
X147647415Y-86823428D01*
X147647415Y-86823428D02*
X147647415Y-86518666D01*
X147647415Y-86518666D02*
X147685510Y-86442476D01*
X147685510Y-86442476D02*
X147723605Y-86404381D01*
X147723605Y-86404381D02*
X147799796Y-86366285D01*
X147799796Y-86366285D02*
X147914081Y-86366285D01*
X147914081Y-86366285D02*
X147990272Y-86404381D01*
X147990272Y-86404381D02*
X148028367Y-86442476D01*
X148028367Y-86442476D02*
X148066462Y-86518666D01*
X148066462Y-86518666D02*
X148066462Y-86823428D01*
X147723605Y-86061524D02*
X147685510Y-86023428D01*
X147685510Y-86023428D02*
X147647415Y-85947238D01*
X147647415Y-85947238D02*
X147647415Y-85756762D01*
X147647415Y-85756762D02*
X147685510Y-85680571D01*
X147685510Y-85680571D02*
X147723605Y-85642476D01*
X147723605Y-85642476D02*
X147799796Y-85604381D01*
X147799796Y-85604381D02*
X147875986Y-85604381D01*
X147875986Y-85604381D02*
X147990272Y-85642476D01*
X147990272Y-85642476D02*
X148447415Y-86099619D01*
X148447415Y-86099619D02*
X148447415Y-85604381D01*
X147647415Y-85337714D02*
X147647415Y-84804380D01*
X147647415Y-84804380D02*
X148447415Y-85147238D01*
X168014714Y-100060415D02*
X167748047Y-99679462D01*
X167557571Y-100060415D02*
X167557571Y-99260415D01*
X167557571Y-99260415D02*
X167862333Y-99260415D01*
X167862333Y-99260415D02*
X167938523Y-99298510D01*
X167938523Y-99298510D02*
X167976618Y-99336605D01*
X167976618Y-99336605D02*
X168014714Y-99412796D01*
X168014714Y-99412796D02*
X168014714Y-99527081D01*
X168014714Y-99527081D02*
X167976618Y-99603272D01*
X167976618Y-99603272D02*
X167938523Y-99641367D01*
X167938523Y-99641367D02*
X167862333Y-99679462D01*
X167862333Y-99679462D02*
X167557571Y-99679462D01*
X168319475Y-99336605D02*
X168357571Y-99298510D01*
X168357571Y-99298510D02*
X168433761Y-99260415D01*
X168433761Y-99260415D02*
X168624237Y-99260415D01*
X168624237Y-99260415D02*
X168700428Y-99298510D01*
X168700428Y-99298510D02*
X168738523Y-99336605D01*
X168738523Y-99336605D02*
X168776618Y-99412796D01*
X168776618Y-99412796D02*
X168776618Y-99488986D01*
X168776618Y-99488986D02*
X168738523Y-99603272D01*
X168738523Y-99603272D02*
X168281380Y-100060415D01*
X168281380Y-100060415D02*
X168776618Y-100060415D01*
X169462333Y-99260415D02*
X169309952Y-99260415D01*
X169309952Y-99260415D02*
X169233761Y-99298510D01*
X169233761Y-99298510D02*
X169195666Y-99336605D01*
X169195666Y-99336605D02*
X169119476Y-99450891D01*
X169119476Y-99450891D02*
X169081380Y-99603272D01*
X169081380Y-99603272D02*
X169081380Y-99908034D01*
X169081380Y-99908034D02*
X169119476Y-99984224D01*
X169119476Y-99984224D02*
X169157571Y-100022320D01*
X169157571Y-100022320D02*
X169233761Y-100060415D01*
X169233761Y-100060415D02*
X169386142Y-100060415D01*
X169386142Y-100060415D02*
X169462333Y-100022320D01*
X169462333Y-100022320D02*
X169500428Y-99984224D01*
X169500428Y-99984224D02*
X169538523Y-99908034D01*
X169538523Y-99908034D02*
X169538523Y-99717558D01*
X169538523Y-99717558D02*
X169500428Y-99641367D01*
X169500428Y-99641367D02*
X169462333Y-99603272D01*
X169462333Y-99603272D02*
X169386142Y-99565177D01*
X169386142Y-99565177D02*
X169233761Y-99565177D01*
X169233761Y-99565177D02*
X169157571Y-99603272D01*
X169157571Y-99603272D02*
X169119476Y-99641367D01*
X169119476Y-99641367D02*
X169081380Y-99717558D01*
X164458714Y-99552415D02*
X164192047Y-99171462D01*
X164001571Y-99552415D02*
X164001571Y-98752415D01*
X164001571Y-98752415D02*
X164306333Y-98752415D01*
X164306333Y-98752415D02*
X164382523Y-98790510D01*
X164382523Y-98790510D02*
X164420618Y-98828605D01*
X164420618Y-98828605D02*
X164458714Y-98904796D01*
X164458714Y-98904796D02*
X164458714Y-99019081D01*
X164458714Y-99019081D02*
X164420618Y-99095272D01*
X164420618Y-99095272D02*
X164382523Y-99133367D01*
X164382523Y-99133367D02*
X164306333Y-99171462D01*
X164306333Y-99171462D02*
X164001571Y-99171462D01*
X164763475Y-98828605D02*
X164801571Y-98790510D01*
X164801571Y-98790510D02*
X164877761Y-98752415D01*
X164877761Y-98752415D02*
X165068237Y-98752415D01*
X165068237Y-98752415D02*
X165144428Y-98790510D01*
X165144428Y-98790510D02*
X165182523Y-98828605D01*
X165182523Y-98828605D02*
X165220618Y-98904796D01*
X165220618Y-98904796D02*
X165220618Y-98980986D01*
X165220618Y-98980986D02*
X165182523Y-99095272D01*
X165182523Y-99095272D02*
X164725380Y-99552415D01*
X164725380Y-99552415D02*
X165220618Y-99552415D01*
X165944428Y-98752415D02*
X165563476Y-98752415D01*
X165563476Y-98752415D02*
X165525380Y-99133367D01*
X165525380Y-99133367D02*
X165563476Y-99095272D01*
X165563476Y-99095272D02*
X165639666Y-99057177D01*
X165639666Y-99057177D02*
X165830142Y-99057177D01*
X165830142Y-99057177D02*
X165906333Y-99095272D01*
X165906333Y-99095272D02*
X165944428Y-99133367D01*
X165944428Y-99133367D02*
X165982523Y-99209558D01*
X165982523Y-99209558D02*
X165982523Y-99400034D01*
X165982523Y-99400034D02*
X165944428Y-99476224D01*
X165944428Y-99476224D02*
X165906333Y-99514320D01*
X165906333Y-99514320D02*
X165830142Y-99552415D01*
X165830142Y-99552415D02*
X165639666Y-99552415D01*
X165639666Y-99552415D02*
X165563476Y-99514320D01*
X165563476Y-99514320D02*
X165525380Y-99476224D01*
X160902714Y-94472415D02*
X160636047Y-94091462D01*
X160445571Y-94472415D02*
X160445571Y-93672415D01*
X160445571Y-93672415D02*
X160750333Y-93672415D01*
X160750333Y-93672415D02*
X160826523Y-93710510D01*
X160826523Y-93710510D02*
X160864618Y-93748605D01*
X160864618Y-93748605D02*
X160902714Y-93824796D01*
X160902714Y-93824796D02*
X160902714Y-93939081D01*
X160902714Y-93939081D02*
X160864618Y-94015272D01*
X160864618Y-94015272D02*
X160826523Y-94053367D01*
X160826523Y-94053367D02*
X160750333Y-94091462D01*
X160750333Y-94091462D02*
X160445571Y-94091462D01*
X161207475Y-93748605D02*
X161245571Y-93710510D01*
X161245571Y-93710510D02*
X161321761Y-93672415D01*
X161321761Y-93672415D02*
X161512237Y-93672415D01*
X161512237Y-93672415D02*
X161588428Y-93710510D01*
X161588428Y-93710510D02*
X161626523Y-93748605D01*
X161626523Y-93748605D02*
X161664618Y-93824796D01*
X161664618Y-93824796D02*
X161664618Y-93900986D01*
X161664618Y-93900986D02*
X161626523Y-94015272D01*
X161626523Y-94015272D02*
X161169380Y-94472415D01*
X161169380Y-94472415D02*
X161664618Y-94472415D01*
X162350333Y-93939081D02*
X162350333Y-94472415D01*
X162159857Y-93634320D02*
X161969380Y-94205748D01*
X161969380Y-94205748D02*
X162464619Y-94205748D01*
X160902714Y-102726415D02*
X160636047Y-102345462D01*
X160445571Y-102726415D02*
X160445571Y-101926415D01*
X160445571Y-101926415D02*
X160750333Y-101926415D01*
X160750333Y-101926415D02*
X160826523Y-101964510D01*
X160826523Y-101964510D02*
X160864618Y-102002605D01*
X160864618Y-102002605D02*
X160902714Y-102078796D01*
X160902714Y-102078796D02*
X160902714Y-102193081D01*
X160902714Y-102193081D02*
X160864618Y-102269272D01*
X160864618Y-102269272D02*
X160826523Y-102307367D01*
X160826523Y-102307367D02*
X160750333Y-102345462D01*
X160750333Y-102345462D02*
X160445571Y-102345462D01*
X161207475Y-102002605D02*
X161245571Y-101964510D01*
X161245571Y-101964510D02*
X161321761Y-101926415D01*
X161321761Y-101926415D02*
X161512237Y-101926415D01*
X161512237Y-101926415D02*
X161588428Y-101964510D01*
X161588428Y-101964510D02*
X161626523Y-102002605D01*
X161626523Y-102002605D02*
X161664618Y-102078796D01*
X161664618Y-102078796D02*
X161664618Y-102154986D01*
X161664618Y-102154986D02*
X161626523Y-102269272D01*
X161626523Y-102269272D02*
X161169380Y-102726415D01*
X161169380Y-102726415D02*
X161664618Y-102726415D01*
X161931285Y-101926415D02*
X162426523Y-101926415D01*
X162426523Y-101926415D02*
X162159857Y-102231177D01*
X162159857Y-102231177D02*
X162274142Y-102231177D01*
X162274142Y-102231177D02*
X162350333Y-102269272D01*
X162350333Y-102269272D02*
X162388428Y-102307367D01*
X162388428Y-102307367D02*
X162426523Y-102383558D01*
X162426523Y-102383558D02*
X162426523Y-102574034D01*
X162426523Y-102574034D02*
X162388428Y-102650224D01*
X162388428Y-102650224D02*
X162350333Y-102688320D01*
X162350333Y-102688320D02*
X162274142Y-102726415D01*
X162274142Y-102726415D02*
X162045571Y-102726415D01*
X162045571Y-102726415D02*
X161969380Y-102688320D01*
X161969380Y-102688320D02*
X161931285Y-102650224D01*
X147694714Y-105140415D02*
X147428047Y-104759462D01*
X147237571Y-105140415D02*
X147237571Y-104340415D01*
X147237571Y-104340415D02*
X147542333Y-104340415D01*
X147542333Y-104340415D02*
X147618523Y-104378510D01*
X147618523Y-104378510D02*
X147656618Y-104416605D01*
X147656618Y-104416605D02*
X147694714Y-104492796D01*
X147694714Y-104492796D02*
X147694714Y-104607081D01*
X147694714Y-104607081D02*
X147656618Y-104683272D01*
X147656618Y-104683272D02*
X147618523Y-104721367D01*
X147618523Y-104721367D02*
X147542333Y-104759462D01*
X147542333Y-104759462D02*
X147237571Y-104759462D01*
X147999475Y-104416605D02*
X148037571Y-104378510D01*
X148037571Y-104378510D02*
X148113761Y-104340415D01*
X148113761Y-104340415D02*
X148304237Y-104340415D01*
X148304237Y-104340415D02*
X148380428Y-104378510D01*
X148380428Y-104378510D02*
X148418523Y-104416605D01*
X148418523Y-104416605D02*
X148456618Y-104492796D01*
X148456618Y-104492796D02*
X148456618Y-104568986D01*
X148456618Y-104568986D02*
X148418523Y-104683272D01*
X148418523Y-104683272D02*
X147961380Y-105140415D01*
X147961380Y-105140415D02*
X148456618Y-105140415D01*
X148761380Y-104416605D02*
X148799476Y-104378510D01*
X148799476Y-104378510D02*
X148875666Y-104340415D01*
X148875666Y-104340415D02*
X149066142Y-104340415D01*
X149066142Y-104340415D02*
X149142333Y-104378510D01*
X149142333Y-104378510D02*
X149180428Y-104416605D01*
X149180428Y-104416605D02*
X149218523Y-104492796D01*
X149218523Y-104492796D02*
X149218523Y-104568986D01*
X149218523Y-104568986D02*
X149180428Y-104683272D01*
X149180428Y-104683272D02*
X148723285Y-105140415D01*
X148723285Y-105140415D02*
X149218523Y-105140415D01*
X147694714Y-102727415D02*
X147428047Y-102346462D01*
X147237571Y-102727415D02*
X147237571Y-101927415D01*
X147237571Y-101927415D02*
X147542333Y-101927415D01*
X147542333Y-101927415D02*
X147618523Y-101965510D01*
X147618523Y-101965510D02*
X147656618Y-102003605D01*
X147656618Y-102003605D02*
X147694714Y-102079796D01*
X147694714Y-102079796D02*
X147694714Y-102194081D01*
X147694714Y-102194081D02*
X147656618Y-102270272D01*
X147656618Y-102270272D02*
X147618523Y-102308367D01*
X147618523Y-102308367D02*
X147542333Y-102346462D01*
X147542333Y-102346462D02*
X147237571Y-102346462D01*
X147999475Y-102003605D02*
X148037571Y-101965510D01*
X148037571Y-101965510D02*
X148113761Y-101927415D01*
X148113761Y-101927415D02*
X148304237Y-101927415D01*
X148304237Y-101927415D02*
X148380428Y-101965510D01*
X148380428Y-101965510D02*
X148418523Y-102003605D01*
X148418523Y-102003605D02*
X148456618Y-102079796D01*
X148456618Y-102079796D02*
X148456618Y-102155986D01*
X148456618Y-102155986D02*
X148418523Y-102270272D01*
X148418523Y-102270272D02*
X147961380Y-102727415D01*
X147961380Y-102727415D02*
X148456618Y-102727415D01*
X149218523Y-102727415D02*
X148761380Y-102727415D01*
X148989952Y-102727415D02*
X148989952Y-101927415D01*
X148989952Y-101927415D02*
X148913761Y-102041700D01*
X148913761Y-102041700D02*
X148837571Y-102117891D01*
X148837571Y-102117891D02*
X148761380Y-102155986D01*
X155432415Y-104146285D02*
X155051462Y-104412952D01*
X155432415Y-104603428D02*
X154632415Y-104603428D01*
X154632415Y-104603428D02*
X154632415Y-104298666D01*
X154632415Y-104298666D02*
X154670510Y-104222476D01*
X154670510Y-104222476D02*
X154708605Y-104184381D01*
X154708605Y-104184381D02*
X154784796Y-104146285D01*
X154784796Y-104146285D02*
X154899081Y-104146285D01*
X154899081Y-104146285D02*
X154975272Y-104184381D01*
X154975272Y-104184381D02*
X155013367Y-104222476D01*
X155013367Y-104222476D02*
X155051462Y-104298666D01*
X155051462Y-104298666D02*
X155051462Y-104603428D01*
X154708605Y-103841524D02*
X154670510Y-103803428D01*
X154670510Y-103803428D02*
X154632415Y-103727238D01*
X154632415Y-103727238D02*
X154632415Y-103536762D01*
X154632415Y-103536762D02*
X154670510Y-103460571D01*
X154670510Y-103460571D02*
X154708605Y-103422476D01*
X154708605Y-103422476D02*
X154784796Y-103384381D01*
X154784796Y-103384381D02*
X154860986Y-103384381D01*
X154860986Y-103384381D02*
X154975272Y-103422476D01*
X154975272Y-103422476D02*
X155432415Y-103879619D01*
X155432415Y-103879619D02*
X155432415Y-103384381D01*
X154632415Y-102889142D02*
X154632415Y-102812952D01*
X154632415Y-102812952D02*
X154670510Y-102736761D01*
X154670510Y-102736761D02*
X154708605Y-102698666D01*
X154708605Y-102698666D02*
X154784796Y-102660571D01*
X154784796Y-102660571D02*
X154937177Y-102622476D01*
X154937177Y-102622476D02*
X155127653Y-102622476D01*
X155127653Y-102622476D02*
X155280034Y-102660571D01*
X155280034Y-102660571D02*
X155356224Y-102698666D01*
X155356224Y-102698666D02*
X155394320Y-102736761D01*
X155394320Y-102736761D02*
X155432415Y-102812952D01*
X155432415Y-102812952D02*
X155432415Y-102889142D01*
X155432415Y-102889142D02*
X155394320Y-102965333D01*
X155394320Y-102965333D02*
X155356224Y-103003428D01*
X155356224Y-103003428D02*
X155280034Y-103041523D01*
X155280034Y-103041523D02*
X155127653Y-103079619D01*
X155127653Y-103079619D02*
X154937177Y-103079619D01*
X154937177Y-103079619D02*
X154784796Y-103041523D01*
X154784796Y-103041523D02*
X154708605Y-103003428D01*
X154708605Y-103003428D02*
X154670510Y-102965333D01*
X154670510Y-102965333D02*
X154632415Y-102889142D01*
X147567714Y-99044415D02*
X147301047Y-98663462D01*
X147110571Y-99044415D02*
X147110571Y-98244415D01*
X147110571Y-98244415D02*
X147415333Y-98244415D01*
X147415333Y-98244415D02*
X147491523Y-98282510D01*
X147491523Y-98282510D02*
X147529618Y-98320605D01*
X147529618Y-98320605D02*
X147567714Y-98396796D01*
X147567714Y-98396796D02*
X147567714Y-98511081D01*
X147567714Y-98511081D02*
X147529618Y-98587272D01*
X147529618Y-98587272D02*
X147491523Y-98625367D01*
X147491523Y-98625367D02*
X147415333Y-98663462D01*
X147415333Y-98663462D02*
X147110571Y-98663462D01*
X148329618Y-99044415D02*
X147872475Y-99044415D01*
X148101047Y-99044415D02*
X148101047Y-98244415D01*
X148101047Y-98244415D02*
X148024856Y-98358700D01*
X148024856Y-98358700D02*
X147948666Y-98434891D01*
X147948666Y-98434891D02*
X147872475Y-98472986D01*
X148710571Y-99044415D02*
X148862952Y-99044415D01*
X148862952Y-99044415D02*
X148939142Y-99006320D01*
X148939142Y-99006320D02*
X148977238Y-98968224D01*
X148977238Y-98968224D02*
X149053428Y-98853939D01*
X149053428Y-98853939D02*
X149091523Y-98701558D01*
X149091523Y-98701558D02*
X149091523Y-98396796D01*
X149091523Y-98396796D02*
X149053428Y-98320605D01*
X149053428Y-98320605D02*
X149015333Y-98282510D01*
X149015333Y-98282510D02*
X148939142Y-98244415D01*
X148939142Y-98244415D02*
X148786761Y-98244415D01*
X148786761Y-98244415D02*
X148710571Y-98282510D01*
X148710571Y-98282510D02*
X148672476Y-98320605D01*
X148672476Y-98320605D02*
X148634380Y-98396796D01*
X148634380Y-98396796D02*
X148634380Y-98587272D01*
X148634380Y-98587272D02*
X148672476Y-98663462D01*
X148672476Y-98663462D02*
X148710571Y-98701558D01*
X148710571Y-98701558D02*
X148786761Y-98739653D01*
X148786761Y-98739653D02*
X148939142Y-98739653D01*
X148939142Y-98739653D02*
X149015333Y-98701558D01*
X149015333Y-98701558D02*
X149053428Y-98663462D01*
X149053428Y-98663462D02*
X149091523Y-98587272D01*
X147440714Y-96504415D02*
X147174047Y-96123462D01*
X146983571Y-96504415D02*
X146983571Y-95704415D01*
X146983571Y-95704415D02*
X147288333Y-95704415D01*
X147288333Y-95704415D02*
X147364523Y-95742510D01*
X147364523Y-95742510D02*
X147402618Y-95780605D01*
X147402618Y-95780605D02*
X147440714Y-95856796D01*
X147440714Y-95856796D02*
X147440714Y-95971081D01*
X147440714Y-95971081D02*
X147402618Y-96047272D01*
X147402618Y-96047272D02*
X147364523Y-96085367D01*
X147364523Y-96085367D02*
X147288333Y-96123462D01*
X147288333Y-96123462D02*
X146983571Y-96123462D01*
X148202618Y-96504415D02*
X147745475Y-96504415D01*
X147974047Y-96504415D02*
X147974047Y-95704415D01*
X147974047Y-95704415D02*
X147897856Y-95818700D01*
X147897856Y-95818700D02*
X147821666Y-95894891D01*
X147821666Y-95894891D02*
X147745475Y-95932986D01*
X148659761Y-96047272D02*
X148583571Y-96009177D01*
X148583571Y-96009177D02*
X148545476Y-95971081D01*
X148545476Y-95971081D02*
X148507380Y-95894891D01*
X148507380Y-95894891D02*
X148507380Y-95856796D01*
X148507380Y-95856796D02*
X148545476Y-95780605D01*
X148545476Y-95780605D02*
X148583571Y-95742510D01*
X148583571Y-95742510D02*
X148659761Y-95704415D01*
X148659761Y-95704415D02*
X148812142Y-95704415D01*
X148812142Y-95704415D02*
X148888333Y-95742510D01*
X148888333Y-95742510D02*
X148926428Y-95780605D01*
X148926428Y-95780605D02*
X148964523Y-95856796D01*
X148964523Y-95856796D02*
X148964523Y-95894891D01*
X148964523Y-95894891D02*
X148926428Y-95971081D01*
X148926428Y-95971081D02*
X148888333Y-96009177D01*
X148888333Y-96009177D02*
X148812142Y-96047272D01*
X148812142Y-96047272D02*
X148659761Y-96047272D01*
X148659761Y-96047272D02*
X148583571Y-96085367D01*
X148583571Y-96085367D02*
X148545476Y-96123462D01*
X148545476Y-96123462D02*
X148507380Y-96199653D01*
X148507380Y-96199653D02*
X148507380Y-96352034D01*
X148507380Y-96352034D02*
X148545476Y-96428224D01*
X148545476Y-96428224D02*
X148583571Y-96466320D01*
X148583571Y-96466320D02*
X148659761Y-96504415D01*
X148659761Y-96504415D02*
X148812142Y-96504415D01*
X148812142Y-96504415D02*
X148888333Y-96466320D01*
X148888333Y-96466320D02*
X148926428Y-96428224D01*
X148926428Y-96428224D02*
X148964523Y-96352034D01*
X148964523Y-96352034D02*
X148964523Y-96199653D01*
X148964523Y-96199653D02*
X148926428Y-96123462D01*
X148926428Y-96123462D02*
X148888333Y-96085367D01*
X148888333Y-96085367D02*
X148812142Y-96047272D01*
X163941415Y-97415285D02*
X163560462Y-97681952D01*
X163941415Y-97872428D02*
X163141415Y-97872428D01*
X163141415Y-97872428D02*
X163141415Y-97567666D01*
X163141415Y-97567666D02*
X163179510Y-97491476D01*
X163179510Y-97491476D02*
X163217605Y-97453381D01*
X163217605Y-97453381D02*
X163293796Y-97415285D01*
X163293796Y-97415285D02*
X163408081Y-97415285D01*
X163408081Y-97415285D02*
X163484272Y-97453381D01*
X163484272Y-97453381D02*
X163522367Y-97491476D01*
X163522367Y-97491476D02*
X163560462Y-97567666D01*
X163560462Y-97567666D02*
X163560462Y-97872428D01*
X163941415Y-96653381D02*
X163941415Y-97110524D01*
X163941415Y-96881952D02*
X163141415Y-96881952D01*
X163141415Y-96881952D02*
X163255700Y-96958143D01*
X163255700Y-96958143D02*
X163331891Y-97034333D01*
X163331891Y-97034333D02*
X163369986Y-97110524D01*
X163141415Y-96386714D02*
X163141415Y-95853380D01*
X163141415Y-95853380D02*
X163941415Y-96196238D01*
X147812415Y-66554285D02*
X147431462Y-66820952D01*
X147812415Y-67011428D02*
X147012415Y-67011428D01*
X147012415Y-67011428D02*
X147012415Y-66706666D01*
X147012415Y-66706666D02*
X147050510Y-66630476D01*
X147050510Y-66630476D02*
X147088605Y-66592381D01*
X147088605Y-66592381D02*
X147164796Y-66554285D01*
X147164796Y-66554285D02*
X147279081Y-66554285D01*
X147279081Y-66554285D02*
X147355272Y-66592381D01*
X147355272Y-66592381D02*
X147393367Y-66630476D01*
X147393367Y-66630476D02*
X147431462Y-66706666D01*
X147431462Y-66706666D02*
X147431462Y-67011428D01*
X147812415Y-65792381D02*
X147812415Y-66249524D01*
X147812415Y-66020952D02*
X147012415Y-66020952D01*
X147012415Y-66020952D02*
X147126700Y-66097143D01*
X147126700Y-66097143D02*
X147202891Y-66173333D01*
X147202891Y-66173333D02*
X147240986Y-66249524D01*
X147012415Y-65106666D02*
X147012415Y-65259047D01*
X147012415Y-65259047D02*
X147050510Y-65335238D01*
X147050510Y-65335238D02*
X147088605Y-65373333D01*
X147088605Y-65373333D02*
X147202891Y-65449523D01*
X147202891Y-65449523D02*
X147355272Y-65487619D01*
X147355272Y-65487619D02*
X147660034Y-65487619D01*
X147660034Y-65487619D02*
X147736224Y-65449523D01*
X147736224Y-65449523D02*
X147774320Y-65411428D01*
X147774320Y-65411428D02*
X147812415Y-65335238D01*
X147812415Y-65335238D02*
X147812415Y-65182857D01*
X147812415Y-65182857D02*
X147774320Y-65106666D01*
X147774320Y-65106666D02*
X147736224Y-65068571D01*
X147736224Y-65068571D02*
X147660034Y-65030476D01*
X147660034Y-65030476D02*
X147469558Y-65030476D01*
X147469558Y-65030476D02*
X147393367Y-65068571D01*
X147393367Y-65068571D02*
X147355272Y-65106666D01*
X147355272Y-65106666D02*
X147317177Y-65182857D01*
X147317177Y-65182857D02*
X147317177Y-65335238D01*
X147317177Y-65335238D02*
X147355272Y-65411428D01*
X147355272Y-65411428D02*
X147393367Y-65449523D01*
X147393367Y-65449523D02*
X147469558Y-65487619D01*
X148320415Y-78746285D02*
X147939462Y-79012952D01*
X148320415Y-79203428D02*
X147520415Y-79203428D01*
X147520415Y-79203428D02*
X147520415Y-78898666D01*
X147520415Y-78898666D02*
X147558510Y-78822476D01*
X147558510Y-78822476D02*
X147596605Y-78784381D01*
X147596605Y-78784381D02*
X147672796Y-78746285D01*
X147672796Y-78746285D02*
X147787081Y-78746285D01*
X147787081Y-78746285D02*
X147863272Y-78784381D01*
X147863272Y-78784381D02*
X147901367Y-78822476D01*
X147901367Y-78822476D02*
X147939462Y-78898666D01*
X147939462Y-78898666D02*
X147939462Y-79203428D01*
X148320415Y-77984381D02*
X148320415Y-78441524D01*
X148320415Y-78212952D02*
X147520415Y-78212952D01*
X147520415Y-78212952D02*
X147634700Y-78289143D01*
X147634700Y-78289143D02*
X147710891Y-78365333D01*
X147710891Y-78365333D02*
X147748986Y-78441524D01*
X147520415Y-77260571D02*
X147520415Y-77641523D01*
X147520415Y-77641523D02*
X147901367Y-77679619D01*
X147901367Y-77679619D02*
X147863272Y-77641523D01*
X147863272Y-77641523D02*
X147825177Y-77565333D01*
X147825177Y-77565333D02*
X147825177Y-77374857D01*
X147825177Y-77374857D02*
X147863272Y-77298666D01*
X147863272Y-77298666D02*
X147901367Y-77260571D01*
X147901367Y-77260571D02*
X147977558Y-77222476D01*
X147977558Y-77222476D02*
X148168034Y-77222476D01*
X148168034Y-77222476D02*
X148244224Y-77260571D01*
X148244224Y-77260571D02*
X148282320Y-77298666D01*
X148282320Y-77298666D02*
X148320415Y-77374857D01*
X148320415Y-77374857D02*
X148320415Y-77565333D01*
X148320415Y-77565333D02*
X148282320Y-77641523D01*
X148282320Y-77641523D02*
X148244224Y-77679619D01*
X157600714Y-97647415D02*
X157334047Y-97266462D01*
X157143571Y-97647415D02*
X157143571Y-96847415D01*
X157143571Y-96847415D02*
X157448333Y-96847415D01*
X157448333Y-96847415D02*
X157524523Y-96885510D01*
X157524523Y-96885510D02*
X157562618Y-96923605D01*
X157562618Y-96923605D02*
X157600714Y-96999796D01*
X157600714Y-96999796D02*
X157600714Y-97114081D01*
X157600714Y-97114081D02*
X157562618Y-97190272D01*
X157562618Y-97190272D02*
X157524523Y-97228367D01*
X157524523Y-97228367D02*
X157448333Y-97266462D01*
X157448333Y-97266462D02*
X157143571Y-97266462D01*
X158362618Y-97647415D02*
X157905475Y-97647415D01*
X158134047Y-97647415D02*
X158134047Y-96847415D01*
X158134047Y-96847415D02*
X158057856Y-96961700D01*
X158057856Y-96961700D02*
X157981666Y-97037891D01*
X157981666Y-97037891D02*
X157905475Y-97075986D01*
X159048333Y-97114081D02*
X159048333Y-97647415D01*
X158857857Y-96809320D02*
X158667380Y-97380748D01*
X158667380Y-97380748D02*
X159162619Y-97380748D01*
X160013714Y-84947415D02*
X159747047Y-84566462D01*
X159556571Y-84947415D02*
X159556571Y-84147415D01*
X159556571Y-84147415D02*
X159861333Y-84147415D01*
X159861333Y-84147415D02*
X159937523Y-84185510D01*
X159937523Y-84185510D02*
X159975618Y-84223605D01*
X159975618Y-84223605D02*
X160013714Y-84299796D01*
X160013714Y-84299796D02*
X160013714Y-84414081D01*
X160013714Y-84414081D02*
X159975618Y-84490272D01*
X159975618Y-84490272D02*
X159937523Y-84528367D01*
X159937523Y-84528367D02*
X159861333Y-84566462D01*
X159861333Y-84566462D02*
X159556571Y-84566462D01*
X160775618Y-84947415D02*
X160318475Y-84947415D01*
X160547047Y-84947415D02*
X160547047Y-84147415D01*
X160547047Y-84147415D02*
X160470856Y-84261700D01*
X160470856Y-84261700D02*
X160394666Y-84337891D01*
X160394666Y-84337891D02*
X160318475Y-84375986D01*
X161270857Y-84147415D02*
X161347047Y-84147415D01*
X161347047Y-84147415D02*
X161423238Y-84185510D01*
X161423238Y-84185510D02*
X161461333Y-84223605D01*
X161461333Y-84223605D02*
X161499428Y-84299796D01*
X161499428Y-84299796D02*
X161537523Y-84452177D01*
X161537523Y-84452177D02*
X161537523Y-84642653D01*
X161537523Y-84642653D02*
X161499428Y-84795034D01*
X161499428Y-84795034D02*
X161461333Y-84871224D01*
X161461333Y-84871224D02*
X161423238Y-84909320D01*
X161423238Y-84909320D02*
X161347047Y-84947415D01*
X161347047Y-84947415D02*
X161270857Y-84947415D01*
X161270857Y-84947415D02*
X161194666Y-84909320D01*
X161194666Y-84909320D02*
X161156571Y-84871224D01*
X161156571Y-84871224D02*
X161118476Y-84795034D01*
X161118476Y-84795034D02*
X161080380Y-84642653D01*
X161080380Y-84642653D02*
X161080380Y-84452177D01*
X161080380Y-84452177D02*
X161118476Y-84299796D01*
X161118476Y-84299796D02*
X161156571Y-84223605D01*
X161156571Y-84223605D02*
X161194666Y-84185510D01*
X161194666Y-84185510D02*
X161270857Y-84147415D01*
X148371224Y-92843285D02*
X148409320Y-92881381D01*
X148409320Y-92881381D02*
X148447415Y-92995666D01*
X148447415Y-92995666D02*
X148447415Y-93071857D01*
X148447415Y-93071857D02*
X148409320Y-93186143D01*
X148409320Y-93186143D02*
X148333129Y-93262333D01*
X148333129Y-93262333D02*
X148256939Y-93300428D01*
X148256939Y-93300428D02*
X148104558Y-93338524D01*
X148104558Y-93338524D02*
X147990272Y-93338524D01*
X147990272Y-93338524D02*
X147837891Y-93300428D01*
X147837891Y-93300428D02*
X147761700Y-93262333D01*
X147761700Y-93262333D02*
X147685510Y-93186143D01*
X147685510Y-93186143D02*
X147647415Y-93071857D01*
X147647415Y-93071857D02*
X147647415Y-92995666D01*
X147647415Y-92995666D02*
X147685510Y-92881381D01*
X147685510Y-92881381D02*
X147723605Y-92843285D01*
X148447415Y-92081381D02*
X148447415Y-92538524D01*
X148447415Y-92309952D02*
X147647415Y-92309952D01*
X147647415Y-92309952D02*
X147761700Y-92386143D01*
X147761700Y-92386143D02*
X147837891Y-92462333D01*
X147837891Y-92462333D02*
X147875986Y-92538524D01*
X147647415Y-91814714D02*
X147647415Y-91281380D01*
X147647415Y-91281380D02*
X148447415Y-91624238D01*
X164706333Y-64716415D02*
X164706333Y-65287843D01*
X164706333Y-65287843D02*
X164668238Y-65402129D01*
X164668238Y-65402129D02*
X164592047Y-65478320D01*
X164592047Y-65478320D02*
X164477762Y-65516415D01*
X164477762Y-65516415D02*
X164401571Y-65516415D01*
X165506333Y-65516415D02*
X165049190Y-65516415D01*
X165277762Y-65516415D02*
X165277762Y-64716415D01*
X165277762Y-64716415D02*
X165201571Y-64830700D01*
X165201571Y-64830700D02*
X165125381Y-64906891D01*
X165125381Y-64906891D02*
X165049190Y-64944986D01*
X151625333Y-64716415D02*
X151625333Y-65287843D01*
X151625333Y-65287843D02*
X151587238Y-65402129D01*
X151587238Y-65402129D02*
X151511047Y-65478320D01*
X151511047Y-65478320D02*
X151396762Y-65516415D01*
X151396762Y-65516415D02*
X151320571Y-65516415D01*
X151930095Y-64716415D02*
X152425333Y-64716415D01*
X152425333Y-64716415D02*
X152158667Y-65021177D01*
X152158667Y-65021177D02*
X152272952Y-65021177D01*
X152272952Y-65021177D02*
X152349143Y-65059272D01*
X152349143Y-65059272D02*
X152387238Y-65097367D01*
X152387238Y-65097367D02*
X152425333Y-65173558D01*
X152425333Y-65173558D02*
X152425333Y-65364034D01*
X152425333Y-65364034D02*
X152387238Y-65440224D01*
X152387238Y-65440224D02*
X152349143Y-65478320D01*
X152349143Y-65478320D02*
X152272952Y-65516415D01*
X152272952Y-65516415D02*
X152044381Y-65516415D01*
X152044381Y-65516415D02*
X151968190Y-65478320D01*
X151968190Y-65478320D02*
X151930095Y-65440224D01*
X147660415Y-90192975D02*
X148308034Y-90192975D01*
X148308034Y-90192975D02*
X148384224Y-90154880D01*
X148384224Y-90154880D02*
X148422320Y-90116785D01*
X148422320Y-90116785D02*
X148460415Y-90040594D01*
X148460415Y-90040594D02*
X148460415Y-89888213D01*
X148460415Y-89888213D02*
X148422320Y-89812023D01*
X148422320Y-89812023D02*
X148384224Y-89773928D01*
X148384224Y-89773928D02*
X148308034Y-89735832D01*
X148308034Y-89735832D02*
X147660415Y-89735832D01*
X148460415Y-88935833D02*
X148460415Y-89392976D01*
X148460415Y-89164404D02*
X147660415Y-89164404D01*
X147660415Y-89164404D02*
X147774700Y-89240595D01*
X147774700Y-89240595D02*
X147850891Y-89316785D01*
X147850891Y-89316785D02*
X147888986Y-89392976D01*
X147660415Y-88440594D02*
X147660415Y-88364404D01*
X147660415Y-88364404D02*
X147698510Y-88288213D01*
X147698510Y-88288213D02*
X147736605Y-88250118D01*
X147736605Y-88250118D02*
X147812796Y-88212023D01*
X147812796Y-88212023D02*
X147965177Y-88173928D01*
X147965177Y-88173928D02*
X148155653Y-88173928D01*
X148155653Y-88173928D02*
X148308034Y-88212023D01*
X148308034Y-88212023D02*
X148384224Y-88250118D01*
X148384224Y-88250118D02*
X148422320Y-88288213D01*
X148422320Y-88288213D02*
X148460415Y-88364404D01*
X148460415Y-88364404D02*
X148460415Y-88440594D01*
X148460415Y-88440594D02*
X148422320Y-88516785D01*
X148422320Y-88516785D02*
X148384224Y-88554880D01*
X148384224Y-88554880D02*
X148308034Y-88592975D01*
X148308034Y-88592975D02*
X148155653Y-88631071D01*
X148155653Y-88631071D02*
X147965177Y-88631071D01*
X147965177Y-88631071D02*
X147812796Y-88592975D01*
X147812796Y-88592975D02*
X147736605Y-88554880D01*
X147736605Y-88554880D02*
X147698510Y-88516785D01*
X147698510Y-88516785D02*
X147660415Y-88440594D01*
X160578809Y-90484605D02*
X160502619Y-90446510D01*
X160502619Y-90446510D02*
X160426428Y-90370320D01*
X160426428Y-90370320D02*
X160312142Y-90256034D01*
X160312142Y-90256034D02*
X160235952Y-90217939D01*
X160235952Y-90217939D02*
X160159761Y-90217939D01*
X160197857Y-90408415D02*
X160121666Y-90370320D01*
X160121666Y-90370320D02*
X160045476Y-90294129D01*
X160045476Y-90294129D02*
X160007380Y-90141748D01*
X160007380Y-90141748D02*
X160007380Y-89875081D01*
X160007380Y-89875081D02*
X160045476Y-89722700D01*
X160045476Y-89722700D02*
X160121666Y-89646510D01*
X160121666Y-89646510D02*
X160197857Y-89608415D01*
X160197857Y-89608415D02*
X160350238Y-89608415D01*
X160350238Y-89608415D02*
X160426428Y-89646510D01*
X160426428Y-89646510D02*
X160502619Y-89722700D01*
X160502619Y-89722700D02*
X160540714Y-89875081D01*
X160540714Y-89875081D02*
X160540714Y-90141748D01*
X160540714Y-90141748D02*
X160502619Y-90294129D01*
X160502619Y-90294129D02*
X160426428Y-90370320D01*
X160426428Y-90370320D02*
X160350238Y-90408415D01*
X160350238Y-90408415D02*
X160197857Y-90408415D01*
X160997856Y-89951272D02*
X160921666Y-89913177D01*
X160921666Y-89913177D02*
X160883571Y-89875081D01*
X160883571Y-89875081D02*
X160845475Y-89798891D01*
X160845475Y-89798891D02*
X160845475Y-89760796D01*
X160845475Y-89760796D02*
X160883571Y-89684605D01*
X160883571Y-89684605D02*
X160921666Y-89646510D01*
X160921666Y-89646510D02*
X160997856Y-89608415D01*
X160997856Y-89608415D02*
X161150237Y-89608415D01*
X161150237Y-89608415D02*
X161226428Y-89646510D01*
X161226428Y-89646510D02*
X161264523Y-89684605D01*
X161264523Y-89684605D02*
X161302618Y-89760796D01*
X161302618Y-89760796D02*
X161302618Y-89798891D01*
X161302618Y-89798891D02*
X161264523Y-89875081D01*
X161264523Y-89875081D02*
X161226428Y-89913177D01*
X161226428Y-89913177D02*
X161150237Y-89951272D01*
X161150237Y-89951272D02*
X160997856Y-89951272D01*
X160997856Y-89951272D02*
X160921666Y-89989367D01*
X160921666Y-89989367D02*
X160883571Y-90027462D01*
X160883571Y-90027462D02*
X160845475Y-90103653D01*
X160845475Y-90103653D02*
X160845475Y-90256034D01*
X160845475Y-90256034D02*
X160883571Y-90332224D01*
X160883571Y-90332224D02*
X160921666Y-90370320D01*
X160921666Y-90370320D02*
X160997856Y-90408415D01*
X160997856Y-90408415D02*
X161150237Y-90408415D01*
X161150237Y-90408415D02*
X161226428Y-90370320D01*
X161226428Y-90370320D02*
X161264523Y-90332224D01*
X161264523Y-90332224D02*
X161302618Y-90256034D01*
X161302618Y-90256034D02*
X161302618Y-90103653D01*
X161302618Y-90103653D02*
X161264523Y-90027462D01*
X161264523Y-90027462D02*
X161226428Y-89989367D01*
X161226428Y-89989367D02*
X161150237Y-89951272D01*
X156381524Y-87487415D02*
X156381524Y-86687415D01*
X156381524Y-86687415D02*
X156572000Y-86687415D01*
X156572000Y-86687415D02*
X156686286Y-86725510D01*
X156686286Y-86725510D02*
X156762476Y-86801700D01*
X156762476Y-86801700D02*
X156800571Y-86877891D01*
X156800571Y-86877891D02*
X156838667Y-87030272D01*
X156838667Y-87030272D02*
X156838667Y-87144558D01*
X156838667Y-87144558D02*
X156800571Y-87296939D01*
X156800571Y-87296939D02*
X156762476Y-87373129D01*
X156762476Y-87373129D02*
X156686286Y-87449320D01*
X156686286Y-87449320D02*
X156572000Y-87487415D01*
X156572000Y-87487415D02*
X156381524Y-87487415D01*
X157562476Y-86687415D02*
X157181524Y-86687415D01*
X157181524Y-86687415D02*
X157143428Y-87068367D01*
X157143428Y-87068367D02*
X157181524Y-87030272D01*
X157181524Y-87030272D02*
X157257714Y-86992177D01*
X157257714Y-86992177D02*
X157448190Y-86992177D01*
X157448190Y-86992177D02*
X157524381Y-87030272D01*
X157524381Y-87030272D02*
X157562476Y-87068367D01*
X157562476Y-87068367D02*
X157600571Y-87144558D01*
X157600571Y-87144558D02*
X157600571Y-87335034D01*
X157600571Y-87335034D02*
X157562476Y-87411224D01*
X157562476Y-87411224D02*
X157524381Y-87449320D01*
X157524381Y-87449320D02*
X157448190Y-87487415D01*
X157448190Y-87487415D02*
X157257714Y-87487415D01*
X157257714Y-87487415D02*
X157181524Y-87449320D01*
X157181524Y-87449320D02*
X157143428Y-87411224D01*
X153841524Y-87360415D02*
X153841524Y-86560415D01*
X153841524Y-86560415D02*
X154032000Y-86560415D01*
X154032000Y-86560415D02*
X154146286Y-86598510D01*
X154146286Y-86598510D02*
X154222476Y-86674700D01*
X154222476Y-86674700D02*
X154260571Y-86750891D01*
X154260571Y-86750891D02*
X154298667Y-86903272D01*
X154298667Y-86903272D02*
X154298667Y-87017558D01*
X154298667Y-87017558D02*
X154260571Y-87169939D01*
X154260571Y-87169939D02*
X154222476Y-87246129D01*
X154222476Y-87246129D02*
X154146286Y-87322320D01*
X154146286Y-87322320D02*
X154032000Y-87360415D01*
X154032000Y-87360415D02*
X153841524Y-87360415D01*
X154984381Y-86827081D02*
X154984381Y-87360415D01*
X154793905Y-86522320D02*
X154603428Y-87093748D01*
X154603428Y-87093748D02*
X155098667Y-87093748D01*
X159626333Y-83004415D02*
X159626333Y-83575843D01*
X159626333Y-83575843D02*
X159588238Y-83690129D01*
X159588238Y-83690129D02*
X159512047Y-83766320D01*
X159512047Y-83766320D02*
X159397762Y-83804415D01*
X159397762Y-83804415D02*
X159321571Y-83804415D01*
X160350143Y-83271081D02*
X160350143Y-83804415D01*
X160159667Y-82966320D02*
X159969190Y-83537748D01*
X159969190Y-83537748D02*
X160464429Y-83537748D01*
X153743415Y-61988666D02*
X154314843Y-61988666D01*
X154314843Y-61988666D02*
X154429129Y-62026761D01*
X154429129Y-62026761D02*
X154505320Y-62102952D01*
X154505320Y-62102952D02*
X154543415Y-62217237D01*
X154543415Y-62217237D02*
X154543415Y-62293428D01*
X153819605Y-61645809D02*
X153781510Y-61607713D01*
X153781510Y-61607713D02*
X153743415Y-61531523D01*
X153743415Y-61531523D02*
X153743415Y-61341047D01*
X153743415Y-61341047D02*
X153781510Y-61264856D01*
X153781510Y-61264856D02*
X153819605Y-61226761D01*
X153819605Y-61226761D02*
X153895796Y-61188666D01*
X153895796Y-61188666D02*
X153971986Y-61188666D01*
X153971986Y-61188666D02*
X154086272Y-61226761D01*
X154086272Y-61226761D02*
X154543415Y-61683904D01*
X154543415Y-61683904D02*
X154543415Y-61188666D01*
X160642333Y-105737415D02*
X160642333Y-106308843D01*
X160642333Y-106308843D02*
X160604238Y-106423129D01*
X160604238Y-106423129D02*
X160528047Y-106499320D01*
X160528047Y-106499320D02*
X160413762Y-106537415D01*
X160413762Y-106537415D02*
X160337571Y-106537415D01*
X161404238Y-105737415D02*
X161023286Y-105737415D01*
X161023286Y-105737415D02*
X160985190Y-106118367D01*
X160985190Y-106118367D02*
X161023286Y-106080272D01*
X161023286Y-106080272D02*
X161099476Y-106042177D01*
X161099476Y-106042177D02*
X161289952Y-106042177D01*
X161289952Y-106042177D02*
X161366143Y-106080272D01*
X161366143Y-106080272D02*
X161404238Y-106118367D01*
X161404238Y-106118367D02*
X161442333Y-106194558D01*
X161442333Y-106194558D02*
X161442333Y-106385034D01*
X161442333Y-106385034D02*
X161404238Y-106461224D01*
X161404238Y-106461224D02*
X161366143Y-106499320D01*
X161366143Y-106499320D02*
X161289952Y-106537415D01*
X161289952Y-106537415D02*
X161099476Y-106537415D01*
X161099476Y-106537415D02*
X161023286Y-106499320D01*
X161023286Y-106499320D02*
X160985190Y-106461224D01*
%TO.C,SW3*%
D11*
X169940000Y-88583000D02*
X169940000Y-86283000D01*
X169940000Y-94883000D02*
X169940000Y-92683000D01*
X165340000Y-94883000D02*
X165340000Y-86283000D01*
%TO.C,R28*%
X164745936Y-105256000D02*
X165200064Y-105256000D01*
X164745936Y-103786000D02*
X165200064Y-103786000D01*
%TO.C,R29*%
X154839936Y-93245000D02*
X155294064Y-93245000D01*
X154839936Y-94715000D02*
X155294064Y-94715000D01*
%TO.C,R27*%
X150595064Y-86714000D02*
X150140936Y-86714000D01*
X150595064Y-85244000D02*
X150140936Y-85244000D01*
%TO.C,R26*%
X167794000Y-102097064D02*
X167794000Y-101642936D01*
X169264000Y-102097064D02*
X169264000Y-101642936D01*
%TO.C,R25*%
X165327064Y-101446000D02*
X164872936Y-101446000D01*
X165327064Y-99976000D02*
X164872936Y-99976000D01*
%TO.C,R24*%
X161644064Y-93318000D02*
X161189936Y-93318000D01*
X161644064Y-91848000D02*
X161189936Y-91848000D01*
%TO.C,R23*%
X161644064Y-101446000D02*
X161189936Y-101446000D01*
X161644064Y-99976000D02*
X161189936Y-99976000D01*
%TO.C,R22*%
X151595064Y-105510000D02*
X151140936Y-105510000D01*
X151595064Y-104040000D02*
X151140936Y-104040000D01*
%TO.C,R21*%
X151124936Y-101627000D02*
X151579064Y-101627000D01*
X151124936Y-103097000D02*
X151579064Y-103097000D01*
%TO.C,R20*%
X153951000Y-100684064D02*
X153951000Y-100229936D01*
X155421000Y-100684064D02*
X155421000Y-100229936D01*
%TO.C,R19*%
X151484064Y-99414000D02*
X151029936Y-99414000D01*
X151484064Y-97944000D02*
X151029936Y-97944000D01*
%TO.C,R18*%
X151029936Y-95404000D02*
X151484064Y-95404000D01*
X151029936Y-96874000D02*
X151484064Y-96874000D01*
%TO.C,R17*%
X161317000Y-97128064D02*
X161317000Y-96673936D01*
X162787000Y-97128064D02*
X162787000Y-96673936D01*
%TO.C,R16*%
X148436000Y-68717936D02*
X148436000Y-69172064D01*
X146966000Y-68717936D02*
X146966000Y-69172064D01*
%TO.C,R15*%
X146966000Y-75538064D02*
X146966000Y-75083936D01*
X148436000Y-75538064D02*
X148436000Y-75083936D01*
%TO.C,R14*%
X159104000Y-94768936D02*
X159104000Y-95223064D01*
X157634000Y-94768936D02*
X157634000Y-95223064D01*
%TO.C,R10*%
X159412000Y-87095064D02*
X159412000Y-86640936D01*
X160882000Y-87095064D02*
X160882000Y-86640936D01*
%TO.C,C17*%
X150756252Y-93191000D02*
X150233748Y-93191000D01*
X150756252Y-91721000D02*
X150233748Y-91721000D01*
%TO.C,U10*%
X148935000Y-89962500D02*
X148935000Y-88442500D01*
X148985000Y-89962500D02*
X148935000Y-89962500D01*
X150885000Y-89962500D02*
X150105000Y-89962500D01*
X152055000Y-89962500D02*
X152005000Y-89962500D01*
X148935000Y-88442500D02*
X149935000Y-88442500D01*
X151055000Y-88442500D02*
X152055000Y-88442500D01*
X152055000Y-88442500D02*
X152055000Y-89962500D01*
X150445000Y-90742500D02*
X150115000Y-90502500D01*
X150445000Y-90262500D01*
X150445000Y-90742500D01*
G36*
X150445000Y-90742500D02*
G01*
X150115000Y-90502500D01*
X150445000Y-90262500D01*
X150445000Y-90742500D01*
G37*
%TO.C,Q8*%
X161569000Y-89865500D02*
X161569000Y-88345500D01*
X161619000Y-89865500D02*
X161569000Y-89865500D01*
X163519000Y-89865500D02*
X162739000Y-89865500D01*
X164689000Y-89865500D02*
X164639000Y-89865500D01*
X161569000Y-88345500D02*
X162569000Y-88345500D01*
X163689000Y-88345500D02*
X164689000Y-88345500D01*
X164689000Y-88345500D02*
X164689000Y-89865500D01*
X163079000Y-90645500D02*
X162749000Y-90405500D01*
X163079000Y-90165500D01*
X163079000Y-90645500D01*
G36*
X163079000Y-90645500D02*
G01*
X162749000Y-90405500D01*
X163079000Y-90165500D01*
X163079000Y-90645500D01*
G37*
%TO.C,D5*%
X157972000Y-87809000D02*
X155972000Y-87809000D01*
X157972000Y-87809000D02*
X157972000Y-91819000D01*
X155972000Y-87809000D02*
X155972000Y-91819000D01*
%TO.C,D4*%
X153432000Y-92529000D02*
X155432000Y-92529000D01*
X153432000Y-92529000D02*
X153432000Y-88519000D01*
X155432000Y-92529000D02*
X155432000Y-88519000D01*
%TO.C,J2*%
X157988000Y-60392000D02*
X155388000Y-60392000D01*
X157988000Y-60392000D02*
X157988000Y-63052000D01*
X155388000Y-60392000D02*
X155388000Y-63052000D01*
X160588000Y-61722000D02*
X160588000Y-63052000D01*
X160588000Y-63052000D02*
X159258000Y-63052000D01*
X157988000Y-63052000D02*
X155388000Y-63052000D01*
%TD*%
%LPC*%
D12*
%TO.C,J6*%
X154559000Y-108585000D03*
%TD*%
D13*
%TO.C,H1*%
X149578264Y-62771386D03*
%TD*%
%TO.C,H2*%
X167401197Y-62750455D03*
%TD*%
%TO.C,H3*%
X149590802Y-108453302D03*
%TD*%
%TO.C,H4*%
X167386000Y-108458000D03*
%TD*%
D14*
%TO.C,SW3*%
X167640000Y-88583000D03*
X167640000Y-90583000D03*
D15*
X167640000Y-92583000D03*
D16*
X167640000Y-86483000D03*
X167640000Y-94683000D03*
%TD*%
D17*
%TO.C,R28*%
X165885500Y-104521000D03*
X164060500Y-104521000D03*
%TD*%
%TO.C,R29*%
X154154500Y-93980000D03*
X155979500Y-93980000D03*
%TD*%
D18*
%TO.C,R27*%
X151280500Y-85979000D03*
X149455500Y-85979000D03*
%TD*%
D19*
%TO.C,R26*%
X168529000Y-102782500D03*
X168529000Y-100957500D03*
%TD*%
D18*
%TO.C,R25*%
X166012500Y-100711000D03*
X164187500Y-100711000D03*
%TD*%
%TO.C,R24*%
X162329500Y-92583000D03*
X160504500Y-92583000D03*
%TD*%
%TO.C,R23*%
X162329500Y-100711000D03*
X160504500Y-100711000D03*
%TD*%
%TO.C,R22*%
X152280500Y-104775000D03*
X150455500Y-104775000D03*
%TD*%
D17*
%TO.C,R21*%
X150439500Y-102362000D03*
X152264500Y-102362000D03*
%TD*%
D19*
%TO.C,R20*%
X154686000Y-101369500D03*
X154686000Y-99544500D03*
%TD*%
D18*
%TO.C,R19*%
X152169500Y-98679000D03*
X150344500Y-98679000D03*
%TD*%
D17*
%TO.C,R18*%
X150344500Y-96139000D03*
X152169500Y-96139000D03*
%TD*%
D19*
%TO.C,R17*%
X162052000Y-97813500D03*
X162052000Y-95988500D03*
%TD*%
D20*
%TO.C,R16*%
X147701000Y-68032500D03*
X147701000Y-69857500D03*
%TD*%
D19*
%TO.C,R15*%
X147701000Y-76223500D03*
X147701000Y-74398500D03*
%TD*%
D20*
%TO.C,R14*%
X158369000Y-94083500D03*
X158369000Y-95908500D03*
%TD*%
D19*
%TO.C,R10*%
X160147000Y-87780500D03*
X160147000Y-85955500D03*
%TD*%
D21*
%TO.C,C17*%
X151445000Y-92456000D03*
X149545000Y-92456000D03*
%TD*%
D22*
%TO.C,J1*%
X165989000Y-82931000D03*
X165989000Y-80391000D03*
X165989000Y-77851000D03*
X165989000Y-75311000D03*
X165989000Y-72771000D03*
X165989000Y-70231000D03*
D23*
X165989000Y-67691000D03*
%TD*%
D22*
%TO.C,J3*%
X150749000Y-82931000D03*
X150749000Y-80391000D03*
X150749000Y-77851000D03*
X150749000Y-75311000D03*
X150749000Y-72771000D03*
X150749000Y-70231000D03*
D23*
X150749000Y-67691000D03*
%TD*%
D24*
%TO.C,U10*%
X149545000Y-90140000D03*
X151445000Y-90140000D03*
X150495000Y-88265000D03*
%TD*%
%TO.C,Q8*%
X162179000Y-90043000D03*
X164079000Y-90043000D03*
X163129000Y-88168000D03*
%TD*%
D25*
%TO.C,D5*%
X156972000Y-88519000D03*
X156972000Y-91819000D03*
%TD*%
D26*
%TO.C,D4*%
X154432000Y-91819000D03*
X154432000Y-88519000D03*
%TD*%
D27*
%TO.C,J4*%
X157226000Y-84074000D03*
%TD*%
D23*
%TO.C,J2*%
X159258000Y-61722000D03*
D28*
X156718000Y-61722000D03*
%TD*%
D12*
%TO.C,J5*%
X162179000Y-108585000D03*
%TD*%
%LPD*%
M02*
