M48
; DRILL file KiCad 10.0.0 date 2026-06-15T16:17:19
; FORMAT={-:-/ absolute / inch / decimal}
; #@! TF.CreationDate,2026-06-15T16:17:19-05:00
; #@! TF.GenerationSoftware,Kicad,Pcbnew,10.0.0
; #@! TF.FileFunction,Plated,1,4,PTH
FMAT,2
INCH
; #@! TA.AperFunction,Plated,PTH,ViaDrill
T1C0.0118
; #@! TA.AperFunction,Plated,PTH,ComponentDrill
T2C0.0354
; #@! TA.AperFunction,Plated,PTH,ComponentDrill
T3C0.0394
; #@! TA.AperFunction,Plated,PTH,ComponentDrill
T4C0.0453
; #@! TA.AperFunction,Plated,PTH,ComponentDrill
T5C0.0591
; #@! TA.AperFunction,Plated,PTH,ComponentDrill
T6C0.0630
; #@! TA.AperFunction,Plated,PTH,ComponentDrill
T7C0.0866
%
G90
G05
T1
X5.7934Y-3.055
X5.815Y-2.81
X5.835Y-3.295
X5.855Y-2.635
X6.0Y-3.43
X6.01Y-3.57
X6.08Y-3.575
X6.18Y-3.575
X6.26Y-3.5
X6.385Y-3.3964
X6.385Y-3.455
T2
X6.6Y-3.4875
X6.6Y-3.5663
X6.6Y-3.645
T3
X5.935Y-2.665
X5.935Y-2.765
X5.935Y-2.865
X5.935Y-2.965
X5.935Y-3.065
X5.935Y-3.165
X5.935Y-3.265
X6.17Y-2.43
X6.27Y-2.43
X6.535Y-2.665
X6.535Y-2.765
X6.535Y-2.865
X6.535Y-2.965
X6.535Y-3.065
X6.535Y-3.165
X6.535Y-3.265
T4
X6.19Y-3.31
T5
X6.6Y-3.4048
X6.6Y-3.7277
T6
X6.085Y-4.275
X6.385Y-4.275
T7
X5.8889Y-2.4713
X5.8894Y-4.2698
X6.59Y-4.27
X6.5906Y-2.4705
M30
