%TF.GenerationSoftware,KiCad,Pcbnew,10.0.0*%
%TF.CreationDate,2026-06-15T16:17:19-05:00*%
%TF.ProjectId,OpenLead_Headless,4f70656e-4c65-4616-945f-486561646c65,rev?*%
%TF.SameCoordinates,Original*%
%TF.FileFunction,Legend,Bot*%
%TF.FilePolarity,Positive*%
%FSLAX46Y46*%
G04 Gerber Fmt 4.6, Leading zero omitted, Abs format (unit mm)*
G04 Created by KiCad (PCBNEW 10.0.0) date 2026-06-15 16:17:19*
%MOMM*%
%LPD*%
G01*
G04 APERTURE LIST*
G04 Aperture macros list*
%AMRoundRect*
0 Rectangle with rounded corners*
0 $1 Rounding radius*
0 $2 $3 $4 $5 $6 $7 $8 $9 X,Y pos of 4 corners*
0 Add a 4 corners polygon primitive as box body*
4,1,4,$2,$3,$4,$5,$6,$7,$8,$9,$2,$3,0*
0 Add four circle primitives for the rounded corners*
1,1,$1+$1,$2,$3*
1,1,$1+$1,$4,$5*
1,1,$1+$1,$6,$7*
1,1,$1+$1,$8,$9*
0 Add four rect primitives between the rounded corners*
20,1,$1+$1,$2,$3,$4,$5,0*
20,1,$1+$1,$4,$5,$6,$7,0*
20,1,$1+$1,$6,$7,$8,$9,0*
20,1,$1+$1,$8,$9,$2,$3,0*%
G04 Aperture macros list end*
%ADD10C,0.150000*%
%ADD11RoundRect,0.250000X1.050000X-1.050000X1.050000X1.050000X-1.050000X1.050000X-1.050000X-1.050000X0*%
%ADD12C,4.400000*%
%ADD13O,2.500000X1.500000*%
%ADD14R,2.500000X1.500000*%
%ADD15O,3.500000X2.200000*%
%ADD16O,1.700000X1.700000*%
%ADD17R,1.700000X1.700000*%
%ADD18RoundRect,0.250000X-0.825000X-0.825000X0.825000X-0.825000X0.825000X0.825000X-0.825000X0.825000X0*%
%ADD19C,1.700000*%
G04 APERTURE END LIST*
D10*
X154730220Y-61718866D02*
X153968316Y-61718866D01*
X161969220Y-61718866D02*
X161207316Y-61718866D01*
X161588268Y-62099819D02*
X161588268Y-61337914D01*
X159349887Y-64116009D02*
X159207030Y-64163628D01*
X159207030Y-64163628D02*
X159159411Y-64211247D01*
X159159411Y-64211247D02*
X159111792Y-64306485D01*
X159111792Y-64306485D02*
X159111792Y-64449342D01*
X159111792Y-64449342D02*
X159159411Y-64544580D01*
X159159411Y-64544580D02*
X159207030Y-64592200D01*
X159207030Y-64592200D02*
X159302268Y-64639819D01*
X159302268Y-64639819D02*
X159683220Y-64639819D01*
X159683220Y-64639819D02*
X159683220Y-63639819D01*
X159683220Y-63639819D02*
X159349887Y-63639819D01*
X159349887Y-63639819D02*
X159254649Y-63687438D01*
X159254649Y-63687438D02*
X159207030Y-63735057D01*
X159207030Y-63735057D02*
X159159411Y-63830295D01*
X159159411Y-63830295D02*
X159159411Y-63925533D01*
X159159411Y-63925533D02*
X159207030Y-64020771D01*
X159207030Y-64020771D02*
X159254649Y-64068390D01*
X159254649Y-64068390D02*
X159349887Y-64116009D01*
X159349887Y-64116009D02*
X159683220Y-64116009D01*
X158254649Y-64639819D02*
X158254649Y-64116009D01*
X158254649Y-64116009D02*
X158302268Y-64020771D01*
X158302268Y-64020771D02*
X158397506Y-63973152D01*
X158397506Y-63973152D02*
X158587982Y-63973152D01*
X158587982Y-63973152D02*
X158683220Y-64020771D01*
X158254649Y-64592200D02*
X158349887Y-64639819D01*
X158349887Y-64639819D02*
X158587982Y-64639819D01*
X158587982Y-64639819D02*
X158683220Y-64592200D01*
X158683220Y-64592200D02*
X158730839Y-64496961D01*
X158730839Y-64496961D02*
X158730839Y-64401723D01*
X158730839Y-64401723D02*
X158683220Y-64306485D01*
X158683220Y-64306485D02*
X158587982Y-64258866D01*
X158587982Y-64258866D02*
X158349887Y-64258866D01*
X158349887Y-64258866D02*
X158254649Y-64211247D01*
X157921315Y-63973152D02*
X157540363Y-63973152D01*
X157778458Y-63639819D02*
X157778458Y-64496961D01*
X157778458Y-64496961D02*
X157730839Y-64592200D01*
X157730839Y-64592200D02*
X157635601Y-64639819D01*
X157635601Y-64639819D02*
X157540363Y-64639819D01*
X157349886Y-63973152D02*
X156968934Y-63973152D01*
X157207029Y-63639819D02*
X157207029Y-64496961D01*
X157207029Y-64496961D02*
X157159410Y-64592200D01*
X157159410Y-64592200D02*
X157064172Y-64639819D01*
X157064172Y-64639819D02*
X156968934Y-64639819D01*
X159280065Y-83220112D02*
X159327684Y-83362969D01*
X159327684Y-83362969D02*
X159375303Y-83410588D01*
X159375303Y-83410588D02*
X159470541Y-83458207D01*
X159470541Y-83458207D02*
X159613398Y-83458207D01*
X159613398Y-83458207D02*
X159708636Y-83410588D01*
X159708636Y-83410588D02*
X159756256Y-83362969D01*
X159756256Y-83362969D02*
X159803875Y-83267731D01*
X159803875Y-83267731D02*
X159803875Y-82886779D01*
X159803875Y-82886779D02*
X158803875Y-82886779D01*
X158803875Y-82886779D02*
X158803875Y-83220112D01*
X158803875Y-83220112D02*
X158851494Y-83315350D01*
X158851494Y-83315350D02*
X158899113Y-83362969D01*
X158899113Y-83362969D02*
X158994351Y-83410588D01*
X158994351Y-83410588D02*
X159089589Y-83410588D01*
X159089589Y-83410588D02*
X159184827Y-83362969D01*
X159184827Y-83362969D02*
X159232446Y-83315350D01*
X159232446Y-83315350D02*
X159280065Y-83220112D01*
X159280065Y-83220112D02*
X159280065Y-82886779D01*
X159803875Y-84315350D02*
X159280065Y-84315350D01*
X159280065Y-84315350D02*
X159184827Y-84267731D01*
X159184827Y-84267731D02*
X159137208Y-84172493D01*
X159137208Y-84172493D02*
X159137208Y-83982017D01*
X159137208Y-83982017D02*
X159184827Y-83886779D01*
X159756256Y-84315350D02*
X159803875Y-84220112D01*
X159803875Y-84220112D02*
X159803875Y-83982017D01*
X159803875Y-83982017D02*
X159756256Y-83886779D01*
X159756256Y-83886779D02*
X159661017Y-83839160D01*
X159661017Y-83839160D02*
X159565779Y-83839160D01*
X159565779Y-83839160D02*
X159470541Y-83886779D01*
X159470541Y-83886779D02*
X159422922Y-83982017D01*
X159422922Y-83982017D02*
X159422922Y-84220112D01*
X159422922Y-84220112D02*
X159375303Y-84315350D01*
X159137208Y-84648684D02*
X159137208Y-85029636D01*
X158803875Y-84791541D02*
X159661017Y-84791541D01*
X159661017Y-84791541D02*
X159756256Y-84839160D01*
X159756256Y-84839160D02*
X159803875Y-84934398D01*
X159803875Y-84934398D02*
X159803875Y-85029636D01*
X159137208Y-85220113D02*
X159137208Y-85601065D01*
X158803875Y-85362970D02*
X159661017Y-85362970D01*
X159661017Y-85362970D02*
X159756256Y-85410589D01*
X159756256Y-85410589D02*
X159803875Y-85505827D01*
X159803875Y-85505827D02*
X159803875Y-85601065D01*
X159422922Y-85934399D02*
X159422922Y-86696304D01*
X159803875Y-86315351D02*
X159041970Y-86315351D01*
X160747152Y-82743922D02*
X160747152Y-83124874D01*
X160413819Y-82886779D02*
X161270961Y-82886779D01*
X161270961Y-82886779D02*
X161366200Y-82934398D01*
X161366200Y-82934398D02*
X161413819Y-83029636D01*
X161413819Y-83029636D02*
X161413819Y-83124874D01*
X161413819Y-83601065D02*
X161366200Y-83505827D01*
X161366200Y-83505827D02*
X161318580Y-83458208D01*
X161318580Y-83458208D02*
X161223342Y-83410589D01*
X161223342Y-83410589D02*
X160937628Y-83410589D01*
X160937628Y-83410589D02*
X160842390Y-83458208D01*
X160842390Y-83458208D02*
X160794771Y-83505827D01*
X160794771Y-83505827D02*
X160747152Y-83601065D01*
X160747152Y-83601065D02*
X160747152Y-83743922D01*
X160747152Y-83743922D02*
X160794771Y-83839160D01*
X160794771Y-83839160D02*
X160842390Y-83886779D01*
X160842390Y-83886779D02*
X160937628Y-83934398D01*
X160937628Y-83934398D02*
X161223342Y-83934398D01*
X161223342Y-83934398D02*
X161318580Y-83886779D01*
X161318580Y-83886779D02*
X161366200Y-83839160D01*
X161366200Y-83839160D02*
X161413819Y-83743922D01*
X161413819Y-83743922D02*
X161413819Y-83601065D01*
X161413819Y-85124875D02*
X160413819Y-85124875D01*
X160413819Y-85124875D02*
X161128104Y-85458208D01*
X161128104Y-85458208D02*
X160413819Y-85791541D01*
X160413819Y-85791541D02*
X161413819Y-85791541D01*
X161318580Y-86839160D02*
X161366200Y-86791541D01*
X161366200Y-86791541D02*
X161413819Y-86648684D01*
X161413819Y-86648684D02*
X161413819Y-86553446D01*
X161413819Y-86553446D02*
X161366200Y-86410589D01*
X161366200Y-86410589D02*
X161270961Y-86315351D01*
X161270961Y-86315351D02*
X161175723Y-86267732D01*
X161175723Y-86267732D02*
X160985247Y-86220113D01*
X160985247Y-86220113D02*
X160842390Y-86220113D01*
X160842390Y-86220113D02*
X160651914Y-86267732D01*
X160651914Y-86267732D02*
X160556676Y-86315351D01*
X160556676Y-86315351D02*
X160461438Y-86410589D01*
X160461438Y-86410589D02*
X160413819Y-86553446D01*
X160413819Y-86553446D02*
X160413819Y-86648684D01*
X160413819Y-86648684D02*
X160461438Y-86791541D01*
X160461438Y-86791541D02*
X160509057Y-86839160D01*
X160413819Y-87267732D02*
X161223342Y-87267732D01*
X161223342Y-87267732D02*
X161318580Y-87315351D01*
X161318580Y-87315351D02*
X161366200Y-87362970D01*
X161366200Y-87362970D02*
X161413819Y-87458208D01*
X161413819Y-87458208D02*
X161413819Y-87648684D01*
X161413819Y-87648684D02*
X161366200Y-87743922D01*
X161366200Y-87743922D02*
X161318580Y-87791541D01*
X161318580Y-87791541D02*
X161223342Y-87839160D01*
X161223342Y-87839160D02*
X160413819Y-87839160D01*
X153002931Y-86506255D02*
X153002931Y-86696731D01*
X153002931Y-86696731D02*
X153050550Y-86791969D01*
X153050550Y-86791969D02*
X153145788Y-86887207D01*
X153145788Y-86887207D02*
X153336264Y-86934826D01*
X153336264Y-86934826D02*
X153669597Y-86934826D01*
X153669597Y-86934826D02*
X153860073Y-86887207D01*
X153860073Y-86887207D02*
X153955312Y-86791969D01*
X153955312Y-86791969D02*
X154002931Y-86696731D01*
X154002931Y-86696731D02*
X154002931Y-86506255D01*
X154002931Y-86506255D02*
X153955312Y-86411017D01*
X153955312Y-86411017D02*
X153860073Y-86315779D01*
X153860073Y-86315779D02*
X153669597Y-86268160D01*
X153669597Y-86268160D02*
X153336264Y-86268160D01*
X153336264Y-86268160D02*
X153145788Y-86315779D01*
X153145788Y-86315779D02*
X153050550Y-86411017D01*
X153050550Y-86411017D02*
X153002931Y-86506255D01*
X154002931Y-87363398D02*
X153002931Y-87363398D01*
X154002931Y-87839588D02*
X153002931Y-87839588D01*
X153479121Y-87839588D02*
X153479121Y-88411016D01*
X154002931Y-88411016D02*
X153002931Y-88411016D01*
X154002931Y-89649112D02*
X153002931Y-89649112D01*
X153002931Y-89649112D02*
X153002931Y-89887207D01*
X153002931Y-89887207D02*
X153050550Y-90030064D01*
X153050550Y-90030064D02*
X153145788Y-90125302D01*
X153145788Y-90125302D02*
X153241026Y-90172921D01*
X153241026Y-90172921D02*
X153431502Y-90220540D01*
X153431502Y-90220540D02*
X153574359Y-90220540D01*
X153574359Y-90220540D02*
X153764835Y-90172921D01*
X153764835Y-90172921D02*
X153860073Y-90125302D01*
X153860073Y-90125302D02*
X153955312Y-90030064D01*
X153955312Y-90030064D02*
X154002931Y-89887207D01*
X154002931Y-89887207D02*
X154002931Y-89649112D01*
X153955312Y-91030064D02*
X154002931Y-90934826D01*
X154002931Y-90934826D02*
X154002931Y-90744350D01*
X154002931Y-90744350D02*
X153955312Y-90649112D01*
X153955312Y-90649112D02*
X153860073Y-90601493D01*
X153860073Y-90601493D02*
X153479121Y-90601493D01*
X153479121Y-90601493D02*
X153383883Y-90649112D01*
X153383883Y-90649112D02*
X153336264Y-90744350D01*
X153336264Y-90744350D02*
X153336264Y-90934826D01*
X153336264Y-90934826D02*
X153383883Y-91030064D01*
X153383883Y-91030064D02*
X153479121Y-91077683D01*
X153479121Y-91077683D02*
X153574359Y-91077683D01*
X153574359Y-91077683D02*
X153669597Y-90601493D01*
X153955312Y-91458636D02*
X154002931Y-91553874D01*
X154002931Y-91553874D02*
X154002931Y-91744350D01*
X154002931Y-91744350D02*
X153955312Y-91839588D01*
X153955312Y-91839588D02*
X153860073Y-91887207D01*
X153860073Y-91887207D02*
X153812454Y-91887207D01*
X153812454Y-91887207D02*
X153717216Y-91839588D01*
X153717216Y-91839588D02*
X153669597Y-91744350D01*
X153669597Y-91744350D02*
X153669597Y-91601493D01*
X153669597Y-91601493D02*
X153621978Y-91506255D01*
X153621978Y-91506255D02*
X153526740Y-91458636D01*
X153526740Y-91458636D02*
X153479121Y-91458636D01*
X153479121Y-91458636D02*
X153383883Y-91506255D01*
X153383883Y-91506255D02*
X153336264Y-91601493D01*
X153336264Y-91601493D02*
X153336264Y-91744350D01*
X153336264Y-91744350D02*
X153383883Y-91839588D01*
X154002931Y-92315779D02*
X153336264Y-92315779D01*
X153002931Y-92315779D02*
X153050550Y-92268160D01*
X153050550Y-92268160D02*
X153098169Y-92315779D01*
X153098169Y-92315779D02*
X153050550Y-92363398D01*
X153050550Y-92363398D02*
X153002931Y-92315779D01*
X153002931Y-92315779D02*
X153098169Y-92315779D01*
X153336264Y-93220540D02*
X154145788Y-93220540D01*
X154145788Y-93220540D02*
X154241026Y-93172921D01*
X154241026Y-93172921D02*
X154288645Y-93125302D01*
X154288645Y-93125302D02*
X154336264Y-93030064D01*
X154336264Y-93030064D02*
X154336264Y-92887207D01*
X154336264Y-92887207D02*
X154288645Y-92791969D01*
X153955312Y-93220540D02*
X154002931Y-93125302D01*
X154002931Y-93125302D02*
X154002931Y-92934826D01*
X154002931Y-92934826D02*
X153955312Y-92839588D01*
X153955312Y-92839588D02*
X153907692Y-92791969D01*
X153907692Y-92791969D02*
X153812454Y-92744350D01*
X153812454Y-92744350D02*
X153526740Y-92744350D01*
X153526740Y-92744350D02*
X153431502Y-92791969D01*
X153431502Y-92791969D02*
X153383883Y-92839588D01*
X153383883Y-92839588D02*
X153336264Y-92934826D01*
X153336264Y-92934826D02*
X153336264Y-93125302D01*
X153336264Y-93125302D02*
X153383883Y-93220540D01*
X153336264Y-93696731D02*
X154002931Y-93696731D01*
X153431502Y-93696731D02*
X153383883Y-93744350D01*
X153383883Y-93744350D02*
X153336264Y-93839588D01*
X153336264Y-93839588D02*
X153336264Y-93982445D01*
X153336264Y-93982445D02*
X153383883Y-94077683D01*
X153383883Y-94077683D02*
X153479121Y-94125302D01*
X153479121Y-94125302D02*
X154002931Y-94125302D01*
X153955312Y-94553874D02*
X154002931Y-94649112D01*
X154002931Y-94649112D02*
X154002931Y-94839588D01*
X154002931Y-94839588D02*
X153955312Y-94934826D01*
X153955312Y-94934826D02*
X153860073Y-94982445D01*
X153860073Y-94982445D02*
X153812454Y-94982445D01*
X153812454Y-94982445D02*
X153717216Y-94934826D01*
X153717216Y-94934826D02*
X153669597Y-94839588D01*
X153669597Y-94839588D02*
X153669597Y-94696731D01*
X153669597Y-94696731D02*
X153621978Y-94601493D01*
X153621978Y-94601493D02*
X153526740Y-94553874D01*
X153526740Y-94553874D02*
X153479121Y-94553874D01*
X153479121Y-94553874D02*
X153383883Y-94601493D01*
X153383883Y-94601493D02*
X153336264Y-94696731D01*
X153336264Y-94696731D02*
X153336264Y-94839588D01*
X153336264Y-94839588D02*
X153383883Y-94934826D01*
X154612875Y-86506255D02*
X154612875Y-86696731D01*
X154612875Y-86696731D02*
X154660494Y-86791969D01*
X154660494Y-86791969D02*
X154755732Y-86887207D01*
X154755732Y-86887207D02*
X154946208Y-86934826D01*
X154946208Y-86934826D02*
X155279541Y-86934826D01*
X155279541Y-86934826D02*
X155470017Y-86887207D01*
X155470017Y-86887207D02*
X155565256Y-86791969D01*
X155565256Y-86791969D02*
X155612875Y-86696731D01*
X155612875Y-86696731D02*
X155612875Y-86506255D01*
X155612875Y-86506255D02*
X155565256Y-86411017D01*
X155565256Y-86411017D02*
X155470017Y-86315779D01*
X155470017Y-86315779D02*
X155279541Y-86268160D01*
X155279541Y-86268160D02*
X154946208Y-86268160D01*
X154946208Y-86268160D02*
X154755732Y-86315779D01*
X154755732Y-86315779D02*
X154660494Y-86411017D01*
X154660494Y-86411017D02*
X154612875Y-86506255D01*
X154946208Y-87363398D02*
X155946208Y-87363398D01*
X154993827Y-87363398D02*
X154946208Y-87458636D01*
X154946208Y-87458636D02*
X154946208Y-87649112D01*
X154946208Y-87649112D02*
X154993827Y-87744350D01*
X154993827Y-87744350D02*
X155041446Y-87791969D01*
X155041446Y-87791969D02*
X155136684Y-87839588D01*
X155136684Y-87839588D02*
X155422398Y-87839588D01*
X155422398Y-87839588D02*
X155517636Y-87791969D01*
X155517636Y-87791969D02*
X155565256Y-87744350D01*
X155565256Y-87744350D02*
X155612875Y-87649112D01*
X155612875Y-87649112D02*
X155612875Y-87458636D01*
X155612875Y-87458636D02*
X155565256Y-87363398D01*
X155565256Y-88649112D02*
X155612875Y-88553874D01*
X155612875Y-88553874D02*
X155612875Y-88363398D01*
X155612875Y-88363398D02*
X155565256Y-88268160D01*
X155565256Y-88268160D02*
X155470017Y-88220541D01*
X155470017Y-88220541D02*
X155089065Y-88220541D01*
X155089065Y-88220541D02*
X154993827Y-88268160D01*
X154993827Y-88268160D02*
X154946208Y-88363398D01*
X154946208Y-88363398D02*
X154946208Y-88553874D01*
X154946208Y-88553874D02*
X154993827Y-88649112D01*
X154993827Y-88649112D02*
X155089065Y-88696731D01*
X155089065Y-88696731D02*
X155184303Y-88696731D01*
X155184303Y-88696731D02*
X155279541Y-88220541D01*
X154946208Y-89125303D02*
X155612875Y-89125303D01*
X155041446Y-89125303D02*
X154993827Y-89172922D01*
X154993827Y-89172922D02*
X154946208Y-89268160D01*
X154946208Y-89268160D02*
X154946208Y-89411017D01*
X154946208Y-89411017D02*
X154993827Y-89506255D01*
X154993827Y-89506255D02*
X155089065Y-89553874D01*
X155089065Y-89553874D02*
X155612875Y-89553874D01*
X155612875Y-91268160D02*
X155612875Y-90791970D01*
X155612875Y-90791970D02*
X154612875Y-90791970D01*
X155565256Y-91982446D02*
X155612875Y-91887208D01*
X155612875Y-91887208D02*
X155612875Y-91696732D01*
X155612875Y-91696732D02*
X155565256Y-91601494D01*
X155565256Y-91601494D02*
X155470017Y-91553875D01*
X155470017Y-91553875D02*
X155089065Y-91553875D01*
X155089065Y-91553875D02*
X154993827Y-91601494D01*
X154993827Y-91601494D02*
X154946208Y-91696732D01*
X154946208Y-91696732D02*
X154946208Y-91887208D01*
X154946208Y-91887208D02*
X154993827Y-91982446D01*
X154993827Y-91982446D02*
X155089065Y-92030065D01*
X155089065Y-92030065D02*
X155184303Y-92030065D01*
X155184303Y-92030065D02*
X155279541Y-91553875D01*
X155612875Y-92887208D02*
X155089065Y-92887208D01*
X155089065Y-92887208D02*
X154993827Y-92839589D01*
X154993827Y-92839589D02*
X154946208Y-92744351D01*
X154946208Y-92744351D02*
X154946208Y-92553875D01*
X154946208Y-92553875D02*
X154993827Y-92458637D01*
X155565256Y-92887208D02*
X155612875Y-92791970D01*
X155612875Y-92791970D02*
X155612875Y-92553875D01*
X155612875Y-92553875D02*
X155565256Y-92458637D01*
X155565256Y-92458637D02*
X155470017Y-92411018D01*
X155470017Y-92411018D02*
X155374779Y-92411018D01*
X155374779Y-92411018D02*
X155279541Y-92458637D01*
X155279541Y-92458637D02*
X155231922Y-92553875D01*
X155231922Y-92553875D02*
X155231922Y-92791970D01*
X155231922Y-92791970D02*
X155184303Y-92887208D01*
X155612875Y-93791970D02*
X154612875Y-93791970D01*
X155565256Y-93791970D02*
X155612875Y-93696732D01*
X155612875Y-93696732D02*
X155612875Y-93506256D01*
X155612875Y-93506256D02*
X155565256Y-93411018D01*
X155565256Y-93411018D02*
X155517636Y-93363399D01*
X155517636Y-93363399D02*
X155422398Y-93315780D01*
X155422398Y-93315780D02*
X155136684Y-93315780D01*
X155136684Y-93315780D02*
X155041446Y-93363399D01*
X155041446Y-93363399D02*
X154993827Y-93411018D01*
X154993827Y-93411018D02*
X154946208Y-93506256D01*
X154946208Y-93506256D02*
X154946208Y-93696732D01*
X154946208Y-93696732D02*
X154993827Y-93791970D01*
X155612875Y-95030066D02*
X154612875Y-95030066D01*
X154612875Y-95030066D02*
X154612875Y-95268161D01*
X154612875Y-95268161D02*
X154660494Y-95411018D01*
X154660494Y-95411018D02*
X154755732Y-95506256D01*
X154755732Y-95506256D02*
X154850970Y-95553875D01*
X154850970Y-95553875D02*
X155041446Y-95601494D01*
X155041446Y-95601494D02*
X155184303Y-95601494D01*
X155184303Y-95601494D02*
X155374779Y-95553875D01*
X155374779Y-95553875D02*
X155470017Y-95506256D01*
X155470017Y-95506256D02*
X155565256Y-95411018D01*
X155565256Y-95411018D02*
X155612875Y-95268161D01*
X155612875Y-95268161D02*
X155612875Y-95030066D01*
X155565256Y-96411018D02*
X155612875Y-96315780D01*
X155612875Y-96315780D02*
X155612875Y-96125304D01*
X155612875Y-96125304D02*
X155565256Y-96030066D01*
X155565256Y-96030066D02*
X155470017Y-95982447D01*
X155470017Y-95982447D02*
X155089065Y-95982447D01*
X155089065Y-95982447D02*
X154993827Y-96030066D01*
X154993827Y-96030066D02*
X154946208Y-96125304D01*
X154946208Y-96125304D02*
X154946208Y-96315780D01*
X154946208Y-96315780D02*
X154993827Y-96411018D01*
X154993827Y-96411018D02*
X155089065Y-96458637D01*
X155089065Y-96458637D02*
X155184303Y-96458637D01*
X155184303Y-96458637D02*
X155279541Y-95982447D01*
X154946208Y-96744352D02*
X154946208Y-97125304D01*
X154612875Y-96887209D02*
X155470017Y-96887209D01*
X155470017Y-96887209D02*
X155565256Y-96934828D01*
X155565256Y-96934828D02*
X155612875Y-97030066D01*
X155612875Y-97030066D02*
X155612875Y-97125304D01*
X155565256Y-97839590D02*
X155612875Y-97744352D01*
X155612875Y-97744352D02*
X155612875Y-97553876D01*
X155612875Y-97553876D02*
X155565256Y-97458638D01*
X155565256Y-97458638D02*
X155470017Y-97411019D01*
X155470017Y-97411019D02*
X155089065Y-97411019D01*
X155089065Y-97411019D02*
X154993827Y-97458638D01*
X154993827Y-97458638D02*
X154946208Y-97553876D01*
X154946208Y-97553876D02*
X154946208Y-97744352D01*
X154946208Y-97744352D02*
X154993827Y-97839590D01*
X154993827Y-97839590D02*
X155089065Y-97887209D01*
X155089065Y-97887209D02*
X155184303Y-97887209D01*
X155184303Y-97887209D02*
X155279541Y-97411019D01*
X155565256Y-98744352D02*
X155612875Y-98649114D01*
X155612875Y-98649114D02*
X155612875Y-98458638D01*
X155612875Y-98458638D02*
X155565256Y-98363400D01*
X155565256Y-98363400D02*
X155517636Y-98315781D01*
X155517636Y-98315781D02*
X155422398Y-98268162D01*
X155422398Y-98268162D02*
X155136684Y-98268162D01*
X155136684Y-98268162D02*
X155041446Y-98315781D01*
X155041446Y-98315781D02*
X154993827Y-98363400D01*
X154993827Y-98363400D02*
X154946208Y-98458638D01*
X154946208Y-98458638D02*
X154946208Y-98649114D01*
X154946208Y-98649114D02*
X154993827Y-98744352D01*
X154946208Y-99030067D02*
X154946208Y-99411019D01*
X154612875Y-99172924D02*
X155470017Y-99172924D01*
X155470017Y-99172924D02*
X155565256Y-99220543D01*
X155565256Y-99220543D02*
X155612875Y-99315781D01*
X155612875Y-99315781D02*
X155612875Y-99411019D01*
X154612875Y-100363401D02*
X155612875Y-100696734D01*
X155612875Y-100696734D02*
X154612875Y-101030067D01*
X155612875Y-101363401D02*
X154612875Y-101363401D01*
X154612875Y-101363401D02*
X155327160Y-101696734D01*
X155327160Y-101696734D02*
X154612875Y-102030067D01*
X154612875Y-102030067D02*
X155612875Y-102030067D01*
X155565256Y-102887210D02*
X155612875Y-102791972D01*
X155612875Y-102791972D02*
X155612875Y-102601496D01*
X155612875Y-102601496D02*
X155565256Y-102506258D01*
X155565256Y-102506258D02*
X155470017Y-102458639D01*
X155470017Y-102458639D02*
X155089065Y-102458639D01*
X155089065Y-102458639D02*
X154993827Y-102506258D01*
X154993827Y-102506258D02*
X154946208Y-102601496D01*
X154946208Y-102601496D02*
X154946208Y-102791972D01*
X154946208Y-102791972D02*
X154993827Y-102887210D01*
X154993827Y-102887210D02*
X155089065Y-102934829D01*
X155089065Y-102934829D02*
X155184303Y-102934829D01*
X155184303Y-102934829D02*
X155279541Y-102458639D01*
X154946208Y-103220544D02*
X154946208Y-103601496D01*
X154612875Y-103363401D02*
X155470017Y-103363401D01*
X155470017Y-103363401D02*
X155565256Y-103411020D01*
X155565256Y-103411020D02*
X155612875Y-103506258D01*
X155612875Y-103506258D02*
X155612875Y-103601496D01*
X155565256Y-104315782D02*
X155612875Y-104220544D01*
X155612875Y-104220544D02*
X155612875Y-104030068D01*
X155612875Y-104030068D02*
X155565256Y-103934830D01*
X155565256Y-103934830D02*
X155470017Y-103887211D01*
X155470017Y-103887211D02*
X155089065Y-103887211D01*
X155089065Y-103887211D02*
X154993827Y-103934830D01*
X154993827Y-103934830D02*
X154946208Y-104030068D01*
X154946208Y-104030068D02*
X154946208Y-104220544D01*
X154946208Y-104220544D02*
X154993827Y-104315782D01*
X154993827Y-104315782D02*
X155089065Y-104363401D01*
X155089065Y-104363401D02*
X155184303Y-104363401D01*
X155184303Y-104363401D02*
X155279541Y-103887211D01*
X155612875Y-104791973D02*
X154946208Y-104791973D01*
X155136684Y-104791973D02*
X155041446Y-104839592D01*
X155041446Y-104839592D02*
X154993827Y-104887211D01*
X154993827Y-104887211D02*
X154946208Y-104982449D01*
X154946208Y-104982449D02*
X154946208Y-105077687D01*
X157222819Y-86315779D02*
X156222819Y-86315779D01*
X156222819Y-86315779D02*
X156222819Y-86553874D01*
X156222819Y-86553874D02*
X156270438Y-86696731D01*
X156270438Y-86696731D02*
X156365676Y-86791969D01*
X156365676Y-86791969D02*
X156460914Y-86839588D01*
X156460914Y-86839588D02*
X156651390Y-86887207D01*
X156651390Y-86887207D02*
X156794247Y-86887207D01*
X156794247Y-86887207D02*
X156984723Y-86839588D01*
X156984723Y-86839588D02*
X157079961Y-86791969D01*
X157079961Y-86791969D02*
X157175200Y-86696731D01*
X157175200Y-86696731D02*
X157222819Y-86553874D01*
X157222819Y-86553874D02*
X157222819Y-86315779D01*
X157175200Y-87696731D02*
X157222819Y-87601493D01*
X157222819Y-87601493D02*
X157222819Y-87411017D01*
X157222819Y-87411017D02*
X157175200Y-87315779D01*
X157175200Y-87315779D02*
X157079961Y-87268160D01*
X157079961Y-87268160D02*
X156699009Y-87268160D01*
X156699009Y-87268160D02*
X156603771Y-87315779D01*
X156603771Y-87315779D02*
X156556152Y-87411017D01*
X156556152Y-87411017D02*
X156556152Y-87601493D01*
X156556152Y-87601493D02*
X156603771Y-87696731D01*
X156603771Y-87696731D02*
X156699009Y-87744350D01*
X156699009Y-87744350D02*
X156794247Y-87744350D01*
X156794247Y-87744350D02*
X156889485Y-87268160D01*
X157175200Y-88125303D02*
X157222819Y-88220541D01*
X157222819Y-88220541D02*
X157222819Y-88411017D01*
X157222819Y-88411017D02*
X157175200Y-88506255D01*
X157175200Y-88506255D02*
X157079961Y-88553874D01*
X157079961Y-88553874D02*
X157032342Y-88553874D01*
X157032342Y-88553874D02*
X156937104Y-88506255D01*
X156937104Y-88506255D02*
X156889485Y-88411017D01*
X156889485Y-88411017D02*
X156889485Y-88268160D01*
X156889485Y-88268160D02*
X156841866Y-88172922D01*
X156841866Y-88172922D02*
X156746628Y-88125303D01*
X156746628Y-88125303D02*
X156699009Y-88125303D01*
X156699009Y-88125303D02*
X156603771Y-88172922D01*
X156603771Y-88172922D02*
X156556152Y-88268160D01*
X156556152Y-88268160D02*
X156556152Y-88411017D01*
X156556152Y-88411017D02*
X156603771Y-88506255D01*
X157222819Y-88982446D02*
X156556152Y-88982446D01*
X156222819Y-88982446D02*
X156270438Y-88934827D01*
X156270438Y-88934827D02*
X156318057Y-88982446D01*
X156318057Y-88982446D02*
X156270438Y-89030065D01*
X156270438Y-89030065D02*
X156222819Y-88982446D01*
X156222819Y-88982446D02*
X156318057Y-88982446D01*
X156556152Y-89887207D02*
X157365676Y-89887207D01*
X157365676Y-89887207D02*
X157460914Y-89839588D01*
X157460914Y-89839588D02*
X157508533Y-89791969D01*
X157508533Y-89791969D02*
X157556152Y-89696731D01*
X157556152Y-89696731D02*
X157556152Y-89553874D01*
X157556152Y-89553874D02*
X157508533Y-89458636D01*
X157175200Y-89887207D02*
X157222819Y-89791969D01*
X157222819Y-89791969D02*
X157222819Y-89601493D01*
X157222819Y-89601493D02*
X157175200Y-89506255D01*
X157175200Y-89506255D02*
X157127580Y-89458636D01*
X157127580Y-89458636D02*
X157032342Y-89411017D01*
X157032342Y-89411017D02*
X156746628Y-89411017D01*
X156746628Y-89411017D02*
X156651390Y-89458636D01*
X156651390Y-89458636D02*
X156603771Y-89506255D01*
X156603771Y-89506255D02*
X156556152Y-89601493D01*
X156556152Y-89601493D02*
X156556152Y-89791969D01*
X156556152Y-89791969D02*
X156603771Y-89887207D01*
X156556152Y-90363398D02*
X157222819Y-90363398D01*
X156651390Y-90363398D02*
X156603771Y-90411017D01*
X156603771Y-90411017D02*
X156556152Y-90506255D01*
X156556152Y-90506255D02*
X156556152Y-90649112D01*
X156556152Y-90649112D02*
X156603771Y-90744350D01*
X156603771Y-90744350D02*
X156699009Y-90791969D01*
X156699009Y-90791969D02*
X157222819Y-90791969D01*
X157175200Y-91649112D02*
X157222819Y-91553874D01*
X157222819Y-91553874D02*
X157222819Y-91363398D01*
X157222819Y-91363398D02*
X157175200Y-91268160D01*
X157175200Y-91268160D02*
X157079961Y-91220541D01*
X157079961Y-91220541D02*
X156699009Y-91220541D01*
X156699009Y-91220541D02*
X156603771Y-91268160D01*
X156603771Y-91268160D02*
X156556152Y-91363398D01*
X156556152Y-91363398D02*
X156556152Y-91553874D01*
X156556152Y-91553874D02*
X156603771Y-91649112D01*
X156603771Y-91649112D02*
X156699009Y-91696731D01*
X156699009Y-91696731D02*
X156794247Y-91696731D01*
X156794247Y-91696731D02*
X156889485Y-91220541D01*
X157222819Y-92553874D02*
X156222819Y-92553874D01*
X157175200Y-92553874D02*
X157222819Y-92458636D01*
X157222819Y-92458636D02*
X157222819Y-92268160D01*
X157222819Y-92268160D02*
X157175200Y-92172922D01*
X157175200Y-92172922D02*
X157127580Y-92125303D01*
X157127580Y-92125303D02*
X157032342Y-92077684D01*
X157032342Y-92077684D02*
X156746628Y-92077684D01*
X156746628Y-92077684D02*
X156651390Y-92125303D01*
X156651390Y-92125303D02*
X156603771Y-92172922D01*
X156603771Y-92172922D02*
X156556152Y-92268160D01*
X156556152Y-92268160D02*
X156556152Y-92458636D01*
X156556152Y-92458636D02*
X156603771Y-92553874D01*
X156318057Y-93744351D02*
X156270438Y-93791970D01*
X156270438Y-93791970D02*
X156222819Y-93887208D01*
X156222819Y-93887208D02*
X156222819Y-94125303D01*
X156222819Y-94125303D02*
X156270438Y-94220541D01*
X156270438Y-94220541D02*
X156318057Y-94268160D01*
X156318057Y-94268160D02*
X156413295Y-94315779D01*
X156413295Y-94315779D02*
X156508533Y-94315779D01*
X156508533Y-94315779D02*
X156651390Y-94268160D01*
X156651390Y-94268160D02*
X157222819Y-93696732D01*
X157222819Y-93696732D02*
X157222819Y-94315779D01*
X156222819Y-94934827D02*
X156222819Y-95030065D01*
X156222819Y-95030065D02*
X156270438Y-95125303D01*
X156270438Y-95125303D02*
X156318057Y-95172922D01*
X156318057Y-95172922D02*
X156413295Y-95220541D01*
X156413295Y-95220541D02*
X156603771Y-95268160D01*
X156603771Y-95268160D02*
X156841866Y-95268160D01*
X156841866Y-95268160D02*
X157032342Y-95220541D01*
X157032342Y-95220541D02*
X157127580Y-95172922D01*
X157127580Y-95172922D02*
X157175200Y-95125303D01*
X157175200Y-95125303D02*
X157222819Y-95030065D01*
X157222819Y-95030065D02*
X157222819Y-94934827D01*
X157222819Y-94934827D02*
X157175200Y-94839589D01*
X157175200Y-94839589D02*
X157127580Y-94791970D01*
X157127580Y-94791970D02*
X157032342Y-94744351D01*
X157032342Y-94744351D02*
X156841866Y-94696732D01*
X156841866Y-94696732D02*
X156603771Y-94696732D01*
X156603771Y-94696732D02*
X156413295Y-94744351D01*
X156413295Y-94744351D02*
X156318057Y-94791970D01*
X156318057Y-94791970D02*
X156270438Y-94839589D01*
X156270438Y-94839589D02*
X156222819Y-94934827D01*
X156318057Y-95649113D02*
X156270438Y-95696732D01*
X156270438Y-95696732D02*
X156222819Y-95791970D01*
X156222819Y-95791970D02*
X156222819Y-96030065D01*
X156222819Y-96030065D02*
X156270438Y-96125303D01*
X156270438Y-96125303D02*
X156318057Y-96172922D01*
X156318057Y-96172922D02*
X156413295Y-96220541D01*
X156413295Y-96220541D02*
X156508533Y-96220541D01*
X156508533Y-96220541D02*
X156651390Y-96172922D01*
X156651390Y-96172922D02*
X157222819Y-95601494D01*
X157222819Y-95601494D02*
X157222819Y-96220541D01*
X156222819Y-97077684D02*
X156222819Y-96887208D01*
X156222819Y-96887208D02*
X156270438Y-96791970D01*
X156270438Y-96791970D02*
X156318057Y-96744351D01*
X156318057Y-96744351D02*
X156460914Y-96649113D01*
X156460914Y-96649113D02*
X156651390Y-96601494D01*
X156651390Y-96601494D02*
X157032342Y-96601494D01*
X157032342Y-96601494D02*
X157127580Y-96649113D01*
X157127580Y-96649113D02*
X157175200Y-96696732D01*
X157175200Y-96696732D02*
X157222819Y-96791970D01*
X157222819Y-96791970D02*
X157222819Y-96982446D01*
X157222819Y-96982446D02*
X157175200Y-97077684D01*
X157175200Y-97077684D02*
X157127580Y-97125303D01*
X157127580Y-97125303D02*
X157032342Y-97172922D01*
X157032342Y-97172922D02*
X156794247Y-97172922D01*
X156794247Y-97172922D02*
X156699009Y-97125303D01*
X156699009Y-97125303D02*
X156651390Y-97077684D01*
X156651390Y-97077684D02*
X156603771Y-96982446D01*
X156603771Y-96982446D02*
X156603771Y-96791970D01*
X156603771Y-96791970D02*
X156651390Y-96696732D01*
X156651390Y-96696732D02*
X156699009Y-96649113D01*
X156699009Y-96649113D02*
X156794247Y-96601494D01*
X156222819Y-97791970D02*
X156222819Y-97887208D01*
X156222819Y-97887208D02*
X156270438Y-97982446D01*
X156270438Y-97982446D02*
X156318057Y-98030065D01*
X156318057Y-98030065D02*
X156413295Y-98077684D01*
X156413295Y-98077684D02*
X156603771Y-98125303D01*
X156603771Y-98125303D02*
X156841866Y-98125303D01*
X156841866Y-98125303D02*
X157032342Y-98077684D01*
X157032342Y-98077684D02*
X157127580Y-98030065D01*
X157127580Y-98030065D02*
X157175200Y-97982446D01*
X157175200Y-97982446D02*
X157222819Y-97887208D01*
X157222819Y-97887208D02*
X157222819Y-97791970D01*
X157222819Y-97791970D02*
X157175200Y-97696732D01*
X157175200Y-97696732D02*
X157127580Y-97649113D01*
X157127580Y-97649113D02*
X157032342Y-97601494D01*
X157032342Y-97601494D02*
X156841866Y-97553875D01*
X156841866Y-97553875D02*
X156603771Y-97553875D01*
X156603771Y-97553875D02*
X156413295Y-97601494D01*
X156413295Y-97601494D02*
X156318057Y-97649113D01*
X156318057Y-97649113D02*
X156270438Y-97696732D01*
X156270438Y-97696732D02*
X156222819Y-97791970D01*
X156222819Y-99030065D02*
X156222819Y-98553875D01*
X156222819Y-98553875D02*
X156699009Y-98506256D01*
X156699009Y-98506256D02*
X156651390Y-98553875D01*
X156651390Y-98553875D02*
X156603771Y-98649113D01*
X156603771Y-98649113D02*
X156603771Y-98887208D01*
X156603771Y-98887208D02*
X156651390Y-98982446D01*
X156651390Y-98982446D02*
X156699009Y-99030065D01*
X156699009Y-99030065D02*
X156794247Y-99077684D01*
X156794247Y-99077684D02*
X157032342Y-99077684D01*
X157032342Y-99077684D02*
X157127580Y-99030065D01*
X157127580Y-99030065D02*
X157175200Y-98982446D01*
X157175200Y-98982446D02*
X157222819Y-98887208D01*
X157222819Y-98887208D02*
X157222819Y-98649113D01*
X157222819Y-98649113D02*
X157175200Y-98553875D01*
X157175200Y-98553875D02*
X157127580Y-98506256D01*
X157222819Y-100030065D02*
X157222819Y-99458637D01*
X157222819Y-99744351D02*
X156222819Y-99744351D01*
X156222819Y-99744351D02*
X156365676Y-99649113D01*
X156365676Y-99649113D02*
X156460914Y-99553875D01*
X156460914Y-99553875D02*
X156508533Y-99458637D01*
X157222819Y-100982446D02*
X157222819Y-100411018D01*
X157222819Y-100696732D02*
X156222819Y-100696732D01*
X156222819Y-100696732D02*
X156365676Y-100601494D01*
X156365676Y-100601494D02*
X156460914Y-100506256D01*
X156460914Y-100506256D02*
X156508533Y-100411018D01*
X156222819Y-101887208D02*
X156222819Y-101411018D01*
X156222819Y-101411018D02*
X156699009Y-101363399D01*
X156699009Y-101363399D02*
X156651390Y-101411018D01*
X156651390Y-101411018D02*
X156603771Y-101506256D01*
X156603771Y-101506256D02*
X156603771Y-101744351D01*
X156603771Y-101744351D02*
X156651390Y-101839589D01*
X156651390Y-101839589D02*
X156699009Y-101887208D01*
X156699009Y-101887208D02*
X156794247Y-101934827D01*
X156794247Y-101934827D02*
X157032342Y-101934827D01*
X157032342Y-101934827D02*
X157127580Y-101887208D01*
X157127580Y-101887208D02*
X157175200Y-101839589D01*
X157175200Y-101839589D02*
X157222819Y-101744351D01*
X157222819Y-101744351D02*
X157222819Y-101506256D01*
X157222819Y-101506256D02*
X157175200Y-101411018D01*
X157175200Y-101411018D02*
X157127580Y-101363399D01*
%LPC*%
D11*
%TO.C,J6*%
X154559000Y-108585000D03*
%TD*%
D12*
%TO.C,H1*%
X149578264Y-62771386D03*
%TD*%
%TO.C,H2*%
X167401197Y-62750455D03*
%TD*%
%TO.C,H3*%
X149590802Y-108453302D03*
%TD*%
%TO.C,H4*%
X167386000Y-108458000D03*
%TD*%
D13*
%TO.C,SW3*%
X167640000Y-88583000D03*
X167640000Y-90583000D03*
D14*
X167640000Y-92583000D03*
D15*
X167640000Y-86483000D03*
X167640000Y-94683000D03*
%TD*%
D16*
%TO.C,J1*%
X165989000Y-82931000D03*
X165989000Y-80391000D03*
X165989000Y-77851000D03*
X165989000Y-75311000D03*
X165989000Y-72771000D03*
X165989000Y-70231000D03*
D17*
X165989000Y-67691000D03*
%TD*%
D16*
%TO.C,J3*%
X150749000Y-82931000D03*
X150749000Y-80391000D03*
X150749000Y-77851000D03*
X150749000Y-75311000D03*
X150749000Y-72771000D03*
X150749000Y-70231000D03*
D17*
X150749000Y-67691000D03*
%TD*%
D18*
%TO.C,J4*%
X157226000Y-84074000D03*
%TD*%
D17*
%TO.C,J2*%
X159258000Y-61722000D03*
D19*
X156718000Y-61722000D03*
%TD*%
D11*
%TO.C,J5*%
X162179000Y-108585000D03*
%TD*%
%LPD*%
M02*
