%TF.GenerationSoftware,KiCad,Pcbnew,9.0.3*%
%TF.CreationDate,2025-08-02T21:51:47-05:00*%
%TF.ProjectId,DMM_KiCAD_V3_next KiCAD9,444d4d5f-4b69-4434-9144-5f56335f6e65,rev?*%
%TF.SameCoordinates,Original*%
%TF.FileFunction,Soldermask,Top*%
%TF.FilePolarity,Negative*%
%FSLAX46Y46*%
G04 Gerber Fmt 4.6, Leading zero omitted, Abs format (unit mm)*
G04 Created by KiCad (PCBNEW 9.0.3) date 2025-08-02 21:51:47*
%MOMM*%
%LPD*%
G01*
G04 APERTURE LIST*
G04 Aperture macros list*
%AMRoundRect*
0 Rectangle with rounded corners*
0 $1 Rounding radius*
0 $2 $3 $4 $5 $6 $7 $8 $9 X,Y pos of 4 corners*
0 Add a 4 corners polygon primitive as box body*
4,1,4,$2,$3,$4,$5,$6,$7,$8,$9,$2,$3,0*
0 Add four circle primitives for the rounded corners*
1,1,$1+$1,$2,$3*
1,1,$1+$1,$4,$5*
1,1,$1+$1,$6,$7*
1,1,$1+$1,$8,$9*
0 Add four rect primitives between the rounded corners*
20,1,$1+$1,$2,$3,$4,$5,0*
20,1,$1+$1,$4,$5,$6,$7,0*
20,1,$1+$1,$6,$7,$8,$9,0*
20,1,$1+$1,$8,$9,$2,$3,0*%
G04 Aperture macros list end*
%ADD10RoundRect,0.250000X-0.350000X-0.450000X0.350000X-0.450000X0.350000X0.450000X-0.350000X0.450000X0*%
%ADD11RoundRect,0.150000X-0.825000X-0.150000X0.825000X-0.150000X0.825000X0.150000X-0.825000X0.150000X0*%
%ADD12R,1.800000X0.650000*%
%ADD13R,1.500000X1.500000*%
%ADD14R,2.400000X1.600000*%
%ADD15R,2.400000X0.600000*%
%ADD16R,0.500000X0.600000*%
%ADD17R,3.500000X3.500000*%
%ADD18RoundRect,0.750000X0.750000X1.000000X-0.750000X1.000000X-0.750000X-1.000000X0.750000X-1.000000X0*%
%ADD19RoundRect,0.875000X0.875000X0.875000X-0.875000X0.875000X-0.875000X-0.875000X0.875000X-0.875000X0*%
%ADD20RoundRect,0.250000X-0.450000X0.350000X-0.450000X-0.350000X0.450000X-0.350000X0.450000X0.350000X0*%
%ADD21O,3.500000X2.200000*%
%ADD22R,2.500000X1.500000*%
%ADD23O,2.500000X1.500000*%
%ADD24RoundRect,0.150000X0.587500X0.150000X-0.587500X0.150000X-0.587500X-0.150000X0.587500X-0.150000X0*%
%ADD25RoundRect,0.250000X0.350000X0.450000X-0.350000X0.450000X-0.350000X-0.450000X0.350000X-0.450000X0*%
%ADD26RoundRect,0.225000X-0.375000X0.225000X-0.375000X-0.225000X0.375000X-0.225000X0.375000X0.225000X0*%
%ADD27RoundRect,0.250000X-0.475000X0.337500X-0.475000X-0.337500X0.475000X-0.337500X0.475000X0.337500X0*%
%ADD28RoundRect,0.150000X0.150000X-0.587500X0.150000X0.587500X-0.150000X0.587500X-0.150000X-0.587500X0*%
%ADD29RoundRect,0.150000X-0.587500X-0.150000X0.587500X-0.150000X0.587500X0.150000X-0.587500X0.150000X0*%
%ADD30R,0.900000X0.900000*%
%ADD31RoundRect,0.250000X0.475000X-0.337500X0.475000X0.337500X-0.475000X0.337500X-0.475000X-0.337500X0*%
%ADD32RoundRect,0.150000X0.825000X0.150000X-0.825000X0.150000X-0.825000X-0.150000X0.825000X-0.150000X0*%
%ADD33R,1.700000X1.700000*%
%ADD34O,1.700000X1.700000*%
%ADD35RoundRect,0.375000X0.625000X0.375000X-0.625000X0.375000X-0.625000X-0.375000X0.625000X-0.375000X0*%
%ADD36RoundRect,0.500000X0.500000X1.400000X-0.500000X1.400000X-0.500000X-1.400000X0.500000X-1.400000X0*%
%ADD37R,1.000000X1.500000*%
%ADD38RoundRect,0.250000X-0.337500X-0.475000X0.337500X-0.475000X0.337500X0.475000X-0.337500X0.475000X0*%
%ADD39R,0.250000X1.100000*%
%ADD40RoundRect,0.150000X-0.150000X0.587500X-0.150000X-0.587500X0.150000X-0.587500X0.150000X0.587500X0*%
%ADD41RoundRect,0.150000X0.512500X0.150000X-0.512500X0.150000X-0.512500X-0.150000X0.512500X-0.150000X0*%
%ADD42RoundRect,0.162500X0.617500X0.162500X-0.617500X0.162500X-0.617500X-0.162500X0.617500X-0.162500X0*%
%ADD43RoundRect,0.250001X-0.624999X0.462499X-0.624999X-0.462499X0.624999X-0.462499X0.624999X0.462499X0*%
G04 APERTURE END LIST*
D10*
%TO.C,R7*%
X135500000Y-60800000D03*
X137500000Y-60800000D03*
%TD*%
D11*
%TO.C,U8*%
X108150000Y-57100000D03*
X108150000Y-58370000D03*
X108150000Y-59640000D03*
X108150000Y-60910000D03*
X113100000Y-60910000D03*
X113100000Y-59640000D03*
X113100000Y-58370000D03*
X113100000Y-57100000D03*
%TD*%
D12*
%TO.C,L1*%
X88778500Y-71194000D03*
X88778500Y-69644000D03*
%TD*%
D13*
%TO.C,SW1*%
X104775000Y-56515000D03*
X96975000Y-56515000D03*
%TD*%
%TO.C,SW2*%
X104775000Y-62230000D03*
X96975000Y-62230000D03*
%TD*%
D14*
%TO.C,D1*%
X87630000Y-58465000D03*
D15*
X87630000Y-56815000D03*
D16*
X87630000Y-56515000D03*
%TD*%
D17*
%TO.C,J14*%
X138145000Y-68835000D03*
D18*
X144145000Y-68835000D03*
D19*
X141145000Y-64135000D03*
%TD*%
D17*
%TO.C,J15*%
X138145000Y-91060000D03*
D18*
X144145000Y-91060000D03*
D19*
X141145000Y-86360000D03*
%TD*%
D20*
%TO.C,R1*%
X91600000Y-59000000D03*
X91600000Y-57000000D03*
%TD*%
D21*
%TO.C,SW3*%
X81280000Y-58765000D03*
X81280000Y-66965000D03*
D22*
X81280000Y-60865000D03*
D23*
X81280000Y-62865000D03*
X81280000Y-64865000D03*
%TD*%
D11*
%TO.C,U4*%
X107885000Y-89535000D03*
X107885000Y-90805000D03*
X107885000Y-92075000D03*
X107885000Y-93345000D03*
X102935000Y-93345000D03*
X102935000Y-92075000D03*
X102935000Y-90805000D03*
X102935000Y-89535000D03*
%TD*%
%TO.C,U5*%
X131850000Y-54390000D03*
X131850000Y-55660000D03*
X131850000Y-56930000D03*
X131850000Y-58200000D03*
X136800000Y-58200000D03*
X136800000Y-56930000D03*
X136800000Y-55660000D03*
X136800000Y-54390000D03*
%TD*%
D24*
%TO.C,U10*%
X124968000Y-87498000D03*
X124968000Y-85598000D03*
X123093000Y-86548000D03*
%TD*%
D10*
%TO.C,R27*%
X122190000Y-89916000D03*
X124190000Y-89916000D03*
%TD*%
%TO.C,R14*%
X128810000Y-90170000D03*
X130810000Y-90170000D03*
%TD*%
D25*
%TO.C,R17*%
X132985000Y-90170000D03*
X134985000Y-90170000D03*
%TD*%
D26*
%TO.C,D4*%
X136200000Y-79350000D03*
X136200000Y-76050000D03*
%TD*%
%TO.C,D5*%
X136200000Y-84850000D03*
X136200000Y-81550000D03*
%TD*%
D27*
%TO.C,C17*%
X127508000Y-87651500D03*
X127508000Y-85576500D03*
%TD*%
D25*
%TO.C,R18*%
X133890000Y-95250000D03*
X135890000Y-95250000D03*
%TD*%
D28*
%TO.C,Q8*%
X130600000Y-83262500D03*
X131550000Y-85137500D03*
X129650000Y-85137500D03*
%TD*%
D25*
%TO.C,R24*%
X132500000Y-87600000D03*
X130500000Y-87600000D03*
%TD*%
D29*
%TO.C,Q7*%
X122307000Y-76920000D03*
X122307000Y-78820000D03*
X124182000Y-77870000D03*
%TD*%
%TO.C,Q6*%
X113207000Y-76720000D03*
X113207000Y-78620000D03*
X115082000Y-77670000D03*
%TD*%
D30*
%TO.C,RN2*%
X120282000Y-74770000D03*
X120282000Y-76110000D03*
X120282000Y-77430000D03*
X120282000Y-78770000D03*
X117282000Y-78770000D03*
X117282000Y-77430000D03*
X117282000Y-76110000D03*
X117282000Y-74770000D03*
%TD*%
D31*
%TO.C,C3*%
X127000000Y-68304500D03*
X127000000Y-70379500D03*
%TD*%
D29*
%TO.C,Q2*%
X119712500Y-67630000D03*
X119712500Y-69530000D03*
X121587500Y-68580000D03*
%TD*%
D31*
%TO.C,C18*%
X124460000Y-68982500D03*
X124460000Y-66907500D03*
%TD*%
D32*
%TO.C,U2*%
X124330000Y-62865000D03*
X124330000Y-61595000D03*
X124330000Y-60325000D03*
X124330000Y-59055000D03*
X119380000Y-59055000D03*
X119380000Y-60325000D03*
X119380000Y-61595000D03*
X119380000Y-62865000D03*
%TD*%
D31*
%TO.C,C4*%
X128660305Y-74531630D03*
X128660305Y-72456630D03*
%TD*%
D25*
%TO.C,R4*%
X129540000Y-95880000D03*
X127540000Y-95880000D03*
%TD*%
D33*
%TO.C,J16*%
X144145000Y-75565000D03*
%TD*%
%TO.C,J8*%
X120015000Y-50800000D03*
D34*
X117475000Y-50800000D03*
X114935000Y-50800000D03*
X112395000Y-50800000D03*
X109855000Y-50800000D03*
X107315000Y-50800000D03*
X104775000Y-50800000D03*
X102235000Y-50800000D03*
X99695000Y-50800000D03*
X97155000Y-50800000D03*
%TD*%
D35*
%TO.C,U1*%
X116840000Y-69498750D03*
X116840000Y-67198750D03*
D36*
X110540000Y-67198750D03*
D35*
X116840000Y-64898750D03*
%TD*%
D37*
%TO.C,JP6*%
X121900000Y-81050000D03*
X123200000Y-81050000D03*
%TD*%
D38*
%TO.C,C19*%
X87884000Y-61468000D03*
X89959000Y-61468000D03*
%TD*%
D25*
%TO.C,R22*%
X119745000Y-94615000D03*
X117745000Y-94615000D03*
%TD*%
D39*
%TO.C,U3*%
X131200305Y-75309130D03*
X131700305Y-75309130D03*
X132200305Y-75309130D03*
X132700305Y-75309130D03*
X133200305Y-75309130D03*
X133200305Y-71009130D03*
X132700305Y-71009130D03*
X132200305Y-71009130D03*
X131700305Y-71009130D03*
X131200305Y-71009130D03*
%TD*%
D33*
%TO.C,J10*%
X129151624Y-99067665D03*
D34*
X131691624Y-99067665D03*
X134231624Y-99067665D03*
X136771624Y-99067665D03*
X139311624Y-99067665D03*
X141851624Y-99067665D03*
%TD*%
D10*
%TO.C,R3*%
X127540000Y-93345000D03*
X129540000Y-93345000D03*
%TD*%
D33*
%TO.C,J11*%
X144215000Y-54625000D03*
D34*
X144215000Y-57165000D03*
X144215000Y-59705000D03*
%TD*%
D10*
%TO.C,R5*%
X112030000Y-72518750D03*
X114030000Y-72518750D03*
%TD*%
%TO.C,R9*%
X116795000Y-72178750D03*
X118795000Y-72178750D03*
%TD*%
D13*
%TO.C,SW4*%
X104865000Y-67945000D03*
X97065000Y-67945000D03*
%TD*%
D27*
%TO.C,C9*%
X95631000Y-71943000D03*
X95631000Y-74018000D03*
%TD*%
D25*
%TO.C,R23*%
X114665000Y-94615000D03*
X112665000Y-94615000D03*
%TD*%
D40*
%TO.C,U11*%
X111125000Y-74942500D03*
X109225000Y-74942500D03*
X110175000Y-76817500D03*
%TD*%
D33*
%TO.C,J12*%
X144145000Y-79375000D03*
D34*
X144145000Y-81915000D03*
%TD*%
D41*
%TO.C,U9*%
X89916000Y-68194000D03*
X89916000Y-67244000D03*
X89916000Y-66294000D03*
X87641000Y-66294000D03*
X87641000Y-68194000D03*
%TD*%
D42*
%TO.C,U7*%
X100711000Y-73848000D03*
X100711000Y-72898000D03*
X100711000Y-71948000D03*
X98011000Y-71948000D03*
X98011000Y-73848000D03*
%TD*%
D33*
%TO.C,J17*%
X81915000Y-71120000D03*
%TD*%
D25*
%TO.C,R6*%
X124190000Y-72390000D03*
X122190000Y-72390000D03*
%TD*%
D31*
%TO.C,C10*%
X103251000Y-74018000D03*
X103251000Y-71943000D03*
%TD*%
D10*
%TO.C,R21*%
X138700000Y-75565000D03*
X140700000Y-75565000D03*
%TD*%
D33*
%TO.C,J6*%
X106287792Y-99065110D03*
D34*
X108827792Y-99065110D03*
X111367792Y-99065110D03*
X113907792Y-99065110D03*
X116447792Y-99065110D03*
X118987792Y-99065110D03*
X121527792Y-99065110D03*
X124067792Y-99065110D03*
%TD*%
D43*
%TO.C,F1*%
X127000000Y-79157500D03*
X127000000Y-82132500D03*
%TD*%
D33*
%TO.C,J3*%
X82487996Y-92719534D03*
D34*
X85027996Y-92719534D03*
X87567996Y-92719534D03*
X90107996Y-92719534D03*
X92647996Y-92719534D03*
X95187996Y-92719534D03*
X97727996Y-92719534D03*
%TD*%
D33*
%TO.C,J13*%
X141809463Y-50808987D03*
D34*
X139269463Y-50808987D03*
X136729463Y-50808987D03*
X134189463Y-50808987D03*
X131649463Y-50808987D03*
X129109463Y-50808987D03*
X126569463Y-50808987D03*
X124029463Y-50808987D03*
%TD*%
D33*
%TO.C,J7*%
X83820000Y-53315000D03*
D34*
X86360000Y-53315000D03*
%TD*%
D33*
%TO.C,J1*%
X82487996Y-77479534D03*
D34*
X85027996Y-77479534D03*
X87567996Y-77479534D03*
X90107996Y-77479534D03*
X92647996Y-77479534D03*
X95187996Y-77479534D03*
X97727996Y-77479534D03*
%TD*%
D33*
%TO.C,J9*%
X124460000Y-55880000D03*
D34*
X121920000Y-55880000D03*
X119380000Y-55880000D03*
X116840000Y-55880000D03*
%TD*%
D38*
%TO.C,C15*%
X89011000Y-72959000D03*
X91086000Y-72959000D03*
%TD*%
D33*
%TO.C,J2*%
X118110000Y-85217000D03*
D34*
X115570000Y-85217000D03*
X113030000Y-85217000D03*
X110490000Y-85217000D03*
X107950000Y-85217000D03*
X105410000Y-85217000D03*
%TD*%
D33*
%TO.C,J5*%
X96143981Y-99063151D03*
D34*
X98683981Y-99063151D03*
X101223981Y-99063151D03*
%TD*%
D38*
%TO.C,C16*%
X87884000Y-64262000D03*
X89959000Y-64262000D03*
%TD*%
D30*
%TO.C,RN1*%
X130900000Y-63400000D03*
X130900000Y-64740000D03*
X130900000Y-66060000D03*
X130900000Y-67400000D03*
X133900000Y-67400000D03*
X133900000Y-66060000D03*
X133900000Y-64740000D03*
X133900000Y-63400000D03*
%TD*%
D25*
%TO.C,R2*%
X93710000Y-50165000D03*
X91710000Y-50165000D03*
%TD*%
D29*
%TO.C,Q1*%
X89225000Y-53250000D03*
X89225000Y-55150000D03*
X91100000Y-54200000D03*
%TD*%
M02*
