M48
; DRILL file {KiCad 9.0.3} date 2025-08-02T21:51:50-0500
; FORMAT={-:-/ absolute / inch / decimal}
; #@! TF.CreationDate,2025-08-02T21:51:50-05:00
; #@! TF.GenerationSoftware,Kicad,Pcbnew,9.0.3
; #@! TF.FileFunction,Plated,1,4,PTH
FMAT,2
INCH
; #@! TA.AperFunction,Plated,PTH,ViaDrill
T1C0.0157
; #@! TA.AperFunction,Plated,PTH,ComponentDrill
T2C0.0354
; #@! TA.AperFunction,Plated,PTH,ComponentDrill
T3C0.0394
; #@! TA.AperFunction,Plated,PTH,ComponentDrill
T4C0.0591
%
G90
G05
T1
X3.3356Y-2.7559
X3.55Y-2.325
X3.62Y-2.58
X3.7091Y-2.4091
X3.775Y-2.75
X3.8035Y-2.075
X3.8715Y-2.625
X3.8715Y-3.47
X3.875Y-3.175
X3.9048Y-2.8762
X3.925Y-2.55
X3.9345Y-2.2655
X3.95Y-2.95
X3.9535Y-3.1535
X3.975Y-3.25
X3.9789Y-3.4414
X4.0Y-2.23
X4.0Y-2.75
X4.026Y-2.9748
X4.0375Y-3.0125
X4.0925Y-3.7585
X4.1Y-3.075
X4.1035Y-3.25
X4.1215Y-3.55
X4.125Y-2.575
X4.125Y-3.65
X4.175Y-2.3374
X4.1769Y-2.7553
X4.1803Y-3.4724
X4.1976Y-2.6899
X4.2134Y-2.567
X4.2295Y-2.1705
X4.2452Y-2.5952
X4.2568Y-3.7215
X4.3002Y-2.8715
X4.35Y-2.9
X4.375Y-3.7215
X4.456Y-3.0579
X4.5039Y-3.1575
X4.55Y-2.325
X4.5512Y-2.9
X4.6Y-2.3465
X4.6Y-2.475
X4.6804Y-3.0146
X4.6843Y-2.9437
X4.689Y-3.0709
X4.7362Y-3.5748
X4.825Y-2.325
X4.8583Y-2.5315
X4.8812Y-3.1051
X4.8976Y-2.9685
X4.9259Y-3.2291
X4.95Y-2.9
X4.95Y-3.675
X4.955Y-2.825
X4.9675Y-2.9675
X4.975Y-2.425
X4.98Y-3.31
X5.0Y-2.2
X5.025Y-3.05
X5.0354Y-3.311
X5.0417Y-2.1567
X5.0654Y-2.7598
X5.0709Y-2.2598
X5.0748Y-2.9961
X5.0955Y-2.4045
X5.122Y-2.7441
X5.1614Y-2.7165
X5.1654Y-3.0433
X5.1732Y-2.9055
X5.2Y-2.725
X5.2323Y-2.8445
X5.2938Y-2.9743
T2
X3.2Y-2.3963
X3.2Y-2.475
X3.2Y-2.5537
T3
X3.225Y-2.8
X3.2476Y-3.0504
X3.2476Y-3.6504
X3.3Y-2.099
X3.3476Y-3.0504
X3.3476Y-3.6504
X3.4Y-2.099
X3.4476Y-3.0504
X3.4476Y-3.6504
X3.5476Y-3.0504
X3.5476Y-3.6504
X3.6476Y-3.0504
X3.6476Y-3.6504
X3.7476Y-3.0504
X3.7476Y-3.6504
X3.7852Y-3.9001
X3.825Y-2.0
X3.8476Y-3.0504
X3.8476Y-3.6504
X3.8852Y-3.9001
X3.925Y-2.0
X3.9852Y-3.9001
X4.025Y-2.0
X4.125Y-2.0
X4.15Y-3.355
X4.1846Y-3.9002
X4.225Y-2.0
X4.25Y-3.355
X4.2846Y-3.9002
X4.325Y-2.0
X4.35Y-3.355
X4.3846Y-3.9002
X4.425Y-2.0
X4.45Y-3.355
X4.4846Y-3.9002
X4.525Y-2.0
X4.55Y-3.355
X4.5846Y-3.9002
X4.6Y-2.2
X4.625Y-2.0
X4.65Y-3.355
X4.6846Y-3.9002
X4.7Y-2.2
X4.725Y-2.0
X4.7846Y-3.9002
X4.8Y-2.2
X4.883Y-2.0004
X4.8846Y-3.9002
X4.9Y-2.2
X4.983Y-2.0004
X5.083Y-2.0004
X5.0847Y-3.9003
X5.183Y-2.0004
X5.1847Y-3.9003
X5.283Y-2.0004
X5.2847Y-3.9003
X5.383Y-2.0004
X5.3847Y-3.9003
X5.483Y-2.0004
X5.4847Y-3.9003
X5.583Y-2.0004
X5.5847Y-3.9003
X5.675Y-2.975
X5.675Y-3.125
X5.675Y-3.225
X5.6778Y-2.1506
X5.6778Y-2.2506
X5.6778Y-2.3506
T4
X3.2Y-2.3136
X3.2Y-2.6364
T3
G00X5.4388Y-2.7494
M15
G01X5.4388Y-2.6707
M16
G05
G00X5.4388Y-3.6244
M15
G01X5.4388Y-3.5457
M16
G05
G00X5.5963Y-2.525
M15
G01X5.5175Y-2.525
M16
G05
G00X5.5963Y-3.4
M15
G01X5.5175Y-3.4
M16
G05
G00X5.675Y-2.7494
M15
G01X5.675Y-2.6707
M16
G05
G00X5.675Y-3.6244
M15
G01X5.675Y-3.5457
M16
G05
M30
