M48
; DRILL file {KiCad 9.0.3} date 2025-12-07T20:25:54-0600
; FORMAT={-:-/ absolute / inch / decimal}
; #@! TF.CreationDate,2025-12-07T20:25:54-06:00
; #@! TF.GenerationSoftware,Kicad,Pcbnew,9.0.3
; #@! TF.FileFunction,Plated,1,4,PTH
FMAT,2
INCH
; #@! TA.AperFunction,Plated,PTH,ViaDrill
T1C0.0157
; #@! TA.AperFunction,Plated,PTH,ComponentDrill
T2C0.0394
; #@! TA.AperFunction,Plated,PTH,ComponentDrill
T3C0.0512
; #@! TA.AperFunction,Plated,PTH,ComponentDrill
T4C0.1260
%
G90
G05
T1
X3.9567Y-2.7854
X3.9764Y-3.0413
X3.9764Y-3.3071
X4.0157Y-2.815
X4.1732Y-3.0196
X4.2028Y-2.5984
X4.2913Y-2.815
X4.3532Y-3.1595
X4.4094Y-3.1201
X4.4678Y-2.9135
X4.7343Y-2.6772
X4.7622Y-2.8593
X4.8459Y-2.6772
T2
X4.0917Y-3.3858
X4.1917Y-3.3858
X4.2917Y-3.3858
X4.3917Y-3.3858
X4.4917Y-3.3858
X4.5917Y-3.3858
X4.6917Y-3.3858
X4.7917Y-3.3858
X4.8917Y-3.3858
T3
X5.2133Y-2.8432
X5.2133Y-3.0432
T4
X3.7008Y-2.5787
X3.7008Y-3.3071
X5.2854Y-2.5787
X5.2953Y-3.3071
M30
