%TF.GenerationSoftware,KiCad,Pcbnew,9.0.3*%
%TF.CreationDate,2025-10-25T21:42:42-05:00*%
%TF.ProjectId,VoltmeterFrontEnd,566f6c74-6d65-4746-9572-46726f6e7445,rev?*%
%TF.SameCoordinates,Original*%
%TF.FileFunction,Soldermask,Top*%
%TF.FilePolarity,Negative*%
%FSLAX46Y46*%
G04 Gerber Fmt 4.6, Leading zero omitted, Abs format (unit mm)*
G04 Created by KiCad (PCBNEW 9.0.3) date 2025-10-25 21:42:42*
%MOMM*%
%LPD*%
G01*
G04 APERTURE LIST*
G04 Aperture macros list*
%AMRoundRect*
0 Rectangle with rounded corners*
0 $1 Rounding radius*
0 $2 $3 $4 $5 $6 $7 $8 $9 X,Y pos of 4 corners*
0 Add a 4 corners polygon primitive as box body*
4,1,4,$2,$3,$4,$5,$6,$7,$8,$9,$2,$3,0*
0 Add four circle primitives for the rounded corners*
1,1,$1+$1,$2,$3*
1,1,$1+$1,$4,$5*
1,1,$1+$1,$6,$7*
1,1,$1+$1,$8,$9*
0 Add four rect primitives between the rounded corners*
20,1,$1+$1,$2,$3,$4,$5,0*
20,1,$1+$1,$4,$5,$6,$7,0*
20,1,$1+$1,$6,$7,$8,$9,0*
20,1,$1+$1,$8,$9,$2,$3,0*%
G04 Aperture macros list end*
%ADD10C,2.600000*%
%ADD11RoundRect,0.250000X1.050000X-1.050000X1.050000X1.050000X-1.050000X1.050000X-1.050000X-1.050000X0*%
%ADD12RoundRect,0.250000X-0.350000X-0.450000X0.350000X-0.450000X0.350000X0.450000X-0.350000X0.450000X0*%
%ADD13RoundRect,0.150000X-0.587500X-0.150000X0.587500X-0.150000X0.587500X0.150000X-0.587500X0.150000X0*%
%ADD14C,3.600000*%
%ADD15C,5.600000*%
%ADD16RoundRect,0.250000X0.350000X0.450000X-0.350000X0.450000X-0.350000X-0.450000X0.350000X-0.450000X0*%
%ADD17RoundRect,0.250000X0.450000X-0.350000X0.450000X0.350000X-0.450000X0.350000X-0.450000X-0.350000X0*%
%ADD18RoundRect,0.150000X0.587500X0.150000X-0.587500X0.150000X-0.587500X-0.150000X0.587500X-0.150000X0*%
%ADD19RoundRect,0.250000X-0.337500X-0.475000X0.337500X-0.475000X0.337500X0.475000X-0.337500X0.475000X0*%
%ADD20RoundRect,0.162500X-0.162500X0.617500X-0.162500X-0.617500X0.162500X-0.617500X0.162500X0.617500X0*%
%ADD21RoundRect,0.225000X0.375000X-0.225000X0.375000X0.225000X-0.375000X0.225000X-0.375000X-0.225000X0*%
%ADD22RoundRect,0.250000X0.337500X0.475000X-0.337500X0.475000X-0.337500X-0.475000X0.337500X-0.475000X0*%
%ADD23RoundRect,0.225000X-0.375000X0.225000X-0.375000X-0.225000X0.375000X-0.225000X0.375000X0.225000X0*%
%ADD24RoundRect,0.150000X0.150000X-0.587500X0.150000X0.587500X-0.150000X0.587500X-0.150000X-0.587500X0*%
%ADD25RoundRect,0.250000X-0.325000X-0.450000X0.325000X-0.450000X0.325000X0.450000X-0.325000X0.450000X0*%
%ADD26R,1.500000X1.500000*%
%ADD27R,1.700000X1.700000*%
%ADD28C,1.700000*%
G04 APERTURE END LIST*
D10*
%TO.C,J15*%
X132417500Y-72217000D03*
D11*
X132417500Y-77297000D03*
%TD*%
D12*
%TO.C,R12*%
X103000000Y-69750000D03*
X105000000Y-69750000D03*
%TD*%
%TO.C,R8*%
X108000000Y-69750000D03*
X110000000Y-69750000D03*
%TD*%
%TO.C,R7*%
X103000000Y-66500000D03*
X105000000Y-66500000D03*
%TD*%
D13*
%TO.C,Q3*%
X108312500Y-64800000D03*
X108312500Y-66700000D03*
X110187500Y-65750000D03*
%TD*%
D14*
%TO.C,H4*%
X94000000Y-84000000D03*
D15*
X94000000Y-84000000D03*
%TD*%
D14*
%TO.C,H3*%
X134500000Y-84000000D03*
D15*
X134500000Y-84000000D03*
%TD*%
D14*
%TO.C,H2*%
X134250000Y-65500000D03*
D15*
X134250000Y-65500000D03*
%TD*%
D14*
%TO.C,H1*%
X94000000Y-65500000D03*
D15*
X94000000Y-65500000D03*
%TD*%
D12*
%TO.C,R27*%
X113373500Y-78752000D03*
X115373500Y-78752000D03*
%TD*%
D16*
%TO.C,R18*%
X124586000Y-77252000D03*
X122586000Y-77252000D03*
%TD*%
D17*
%TO.C,R14*%
X120086000Y-76252000D03*
X120086000Y-74252000D03*
%TD*%
D18*
%TO.C,U10*%
X115356500Y-73830000D03*
X115356500Y-71930000D03*
X113481500Y-72880000D03*
%TD*%
D19*
%TO.C,C9*%
X105131000Y-80249940D03*
X107206000Y-80249940D03*
%TD*%
D16*
%TO.C,R1*%
X106657000Y-85344000D03*
X104657000Y-85344000D03*
%TD*%
%TO.C,R17*%
X124586000Y-72502000D03*
X122586000Y-72502000D03*
%TD*%
D20*
%TO.C,U7*%
X107036000Y-75169940D03*
X106086000Y-75169940D03*
X105136000Y-75169940D03*
X105136000Y-77869940D03*
X107036000Y-77869940D03*
%TD*%
D16*
%TO.C,R3*%
X100336000Y-69302000D03*
X98336000Y-69302000D03*
%TD*%
D21*
%TO.C,D4*%
X120336000Y-69652000D03*
X120336000Y-66352000D03*
%TD*%
D16*
%TO.C,R24*%
X117586000Y-69752000D03*
X115586000Y-69752000D03*
%TD*%
D22*
%TO.C,C10*%
X107206000Y-72629940D03*
X105131000Y-72629940D03*
%TD*%
D23*
%TO.C,D5*%
X123086000Y-66352000D03*
X123086000Y-69652000D03*
%TD*%
D24*
%TO.C,Q8*%
X115636000Y-67127000D03*
X117536000Y-67127000D03*
X116586000Y-65252000D03*
%TD*%
D25*
%TO.C,D1*%
X100076000Y-85344000D03*
X102126000Y-85344000D03*
%TD*%
D26*
%TO.C,SW3*%
X99236000Y-71952000D03*
X99236000Y-79752000D03*
%TD*%
D19*
%TO.C,C17*%
X113336000Y-76252000D03*
X115411000Y-76252000D03*
%TD*%
D27*
%TO.C,J1*%
X111296000Y-85502000D03*
D28*
X113836000Y-85502000D03*
X116376000Y-85502000D03*
X118916000Y-85502000D03*
X121456000Y-85502000D03*
X123996000Y-85502000D03*
%TD*%
M02*
