%TF.GenerationSoftware,KiCad,Pcbnew,9.0.3*%
%TF.CreationDate,2025-12-07T20:19:00-06:00*%
%TF.ProjectId,AmmeterRelays,416d6d65-7465-4725-9265-6c6179732e6b,rev?*%
%TF.SameCoordinates,Original*%
%TF.FileFunction,Copper,L2,Bot*%
%TF.FilePolarity,Positive*%
%FSLAX46Y46*%
G04 Gerber Fmt 4.6, Leading zero omitted, Abs format (unit mm)*
G04 Created by KiCad (PCBNEW 9.0.3) date 2025-12-07 20:19:00*
%MOMM*%
%LPD*%
G01*
G04 APERTURE LIST*
G04 Aperture macros list*
%AMRoundRect*
0 Rectangle with rounded corners*
0 $1 Rounding radius*
0 $2 $3 $4 $5 $6 $7 $8 $9 X,Y pos of 4 corners*
0 Add a 4 corners polygon primitive as box body*
4,1,4,$2,$3,$4,$5,$6,$7,$8,$9,$2,$3,0*
0 Add four circle primitives for the rounded corners*
1,1,$1+$1,$2,$3*
1,1,$1+$1,$4,$5*
1,1,$1+$1,$6,$7*
1,1,$1+$1,$8,$9*
0 Add four rect primitives between the rounded corners*
20,1,$1+$1,$2,$3,$4,$5,0*
20,1,$1+$1,$4,$5,$6,$7,0*
20,1,$1+$1,$6,$7,$8,$9,0*
20,1,$1+$1,$8,$9,$2,$3,0*%
G04 Aperture macros list end*
%TA.AperFunction,ComponentPad*%
%ADD10R,1.700000X1.700000*%
%TD*%
%TA.AperFunction,ComponentPad*%
%ADD11C,1.700000*%
%TD*%
%TA.AperFunction,ComponentPad*%
%ADD12RoundRect,0.250001X-0.949999X-0.949999X0.949999X-0.949999X0.949999X0.949999X-0.949999X0.949999X0*%
%TD*%
%TA.AperFunction,ComponentPad*%
%ADD13C,2.400000*%
%TD*%
%TA.AperFunction,ComponentPad*%
%ADD14O,3.000000X2.000000*%
%TD*%
%TA.AperFunction,ComponentPad*%
%ADD15R,2.000000X3.000000*%
%TD*%
%TA.AperFunction,ComponentPad*%
%ADD16O,2.000000X3.000000*%
%TD*%
%TA.AperFunction,ComponentPad*%
%ADD17C,3.600000*%
%TD*%
%TA.AperFunction,ConnectorPad*%
%ADD18C,5.600000*%
%TD*%
%TA.AperFunction,ViaPad*%
%ADD19C,0.600000*%
%TD*%
%TA.AperFunction,Conductor*%
%ADD20C,1.500000*%
%TD*%
%TA.AperFunction,Conductor*%
%ADD21C,0.200000*%
%TD*%
%TA.AperFunction,Conductor*%
%ADD22C,2.000000*%
%TD*%
G04 APERTURE END LIST*
D10*
%TO.P,JP1,1,A*%
%TO.N,GNDPWR*%
X74168000Y-59436000D03*
D11*
%TO.P,JP1,2,B*%
%TO.N,GND*%
X74168000Y-56896000D03*
%TD*%
D12*
%TO.P,J5,1,Pin_1*%
%TO.N,Net-(J5-Pin_1)*%
X67010000Y-44346500D03*
D13*
%TO.P,J5,2,Pin_2*%
%TO.N,Net-(J5-Pin_2)*%
X72090000Y-44346500D03*
%TO.P,J5,3,Pin_3*%
%TO.N,Net-(J5-Pin_3)*%
X77170000Y-44346500D03*
%TD*%
D14*
%TO.P,K1,11*%
%TO.N,Net-(K1-Pad11)*%
X92142000Y-45952000D03*
%TO.P,K1,12*%
%TO.N,Net-(J1-Pin_3)*%
X92142000Y-50992000D03*
%TO.P,K1,14*%
%TO.N,Net-(J1-Pin_1)*%
X92142000Y-40912000D03*
%TO.P,K1,21*%
%TO.N,Net-(J5-Pin_2)*%
X84642000Y-45952000D03*
%TO.P,K1,22*%
%TO.N,Net-(J5-Pin_3)*%
X84642000Y-50992000D03*
%TO.P,K1,24*%
%TO.N,Net-(J5-Pin_1)*%
X84642000Y-40912000D03*
D15*
%TO.P,K1,A1*%
%TO.N,Net-(Q1-D)*%
X92142000Y-66252000D03*
D16*
%TO.P,K1,A2*%
%TO.N,Net-(J2-Pin_1)*%
X84642000Y-66252000D03*
%TD*%
D17*
%TO.P,H1,1*%
%TO.N,N/C*%
X67056000Y-55880000D03*
D18*
X67056000Y-55880000D03*
%TD*%
D10*
%TO.P,J2,1,Pin_1*%
%TO.N,Net-(J2-Pin_1)*%
X73660000Y-71120000D03*
D11*
%TO.P,J2,2,Pin_2*%
%TO.N,GNDPWR*%
X76200000Y-71120000D03*
%TO.P,J2,3,Pin_3*%
%TO.N,Net-(J2-Pin_3)*%
X78740000Y-71120000D03*
%TD*%
D17*
%TO.P,H2,1*%
%TO.N,N/C*%
X111252000Y-55880000D03*
D18*
X111252000Y-55880000D03*
%TD*%
D10*
%TO.P,J3,1,Pin_1*%
%TO.N,GND*%
X99060000Y-71120000D03*
D11*
%TO.P,J3,2,Pin_2*%
%TO.N,Net-(J3-Pin_2)*%
X101600000Y-71120000D03*
%TO.P,J3,3,Pin_3*%
%TO.N,Net-(J3-Pin_3)*%
X104140000Y-71120000D03*
%TD*%
D12*
%TO.P,J1,1,Pin_1*%
%TO.N,Net-(J1-Pin_1)*%
X100838000Y-44450000D03*
D13*
%TO.P,J1,2,Pin_2*%
%TO.N,Net-(J1-Pin_2)*%
X105918000Y-44450000D03*
%TO.P,J1,3,Pin_3*%
%TO.N,Net-(J1-Pin_3)*%
X110998000Y-44450000D03*
%TD*%
D19*
%TO.N,Net-(J2-Pin_3)*%
X81280000Y-61468000D03*
%TO.N,GND*%
X98425000Y-59944000D03*
X102108000Y-65532000D03*
%TO.N,Net-(J3-Pin_2)*%
X103632000Y-66040000D03*
%TD*%
D20*
%TO.N,Net-(J5-Pin_2)*%
X84642000Y-45526000D02*
X84642000Y-45952000D01*
X81280000Y-42164000D02*
X84642000Y-45526000D01*
X74272500Y-42164000D02*
X81280000Y-42164000D01*
X72090000Y-44346500D02*
X74272500Y-42164000D01*
D21*
%TO.N,Net-(J2-Pin_3)*%
X82296000Y-67564000D02*
X78740000Y-71120000D01*
X82296000Y-62484000D02*
X82296000Y-67564000D01*
X81280000Y-61468000D02*
X82296000Y-62484000D01*
%TO.N,GND*%
X99060000Y-68580000D02*
X102108000Y-65532000D01*
X99060000Y-71120000D02*
X99060000Y-68580000D01*
X99060000Y-60579000D02*
X99060000Y-62484000D01*
X99060000Y-62484000D02*
X102108000Y-65532000D01*
X98425000Y-59944000D02*
X99060000Y-60579000D01*
%TO.N,Net-(J3-Pin_2)*%
X103632000Y-69088000D02*
X103632000Y-66040000D01*
X101600000Y-71120000D02*
X103632000Y-69088000D01*
D22*
%TO.N,Net-(J1-Pin_3)*%
X94620000Y-48514000D02*
X92142000Y-50992000D01*
X110998000Y-44450000D02*
X106934000Y-48514000D01*
X106934000Y-48514000D02*
X94620000Y-48514000D01*
%TD*%
M02*
