M48
; DRILL file {KiCad 9.0.3} date 2025-12-07T20:20:52-0600
; FORMAT={-:-/ absolute / inch / decimal}
; #@! TF.CreationDate,2025-12-07T20:20:52-06:00
; #@! TF.GenerationSoftware,Kicad,Pcbnew,9.0.3
; #@! TF.FileFunction,Plated,1,2,PTH
FMAT,2
INCH
; #@! TA.AperFunction,Plated,PTH,ViaDrill
T1C0.0118
; #@! TA.AperFunction,Plated,PTH,ComponentDrill
T2C0.0394
; #@! TA.AperFunction,Plated,PTH,ComponentDrill
T3C0.0512
; #@! TA.AperFunction,Plated,PTH,ComponentDrill
T4C0.0630
; #@! TA.AperFunction,Plated,PTH,ComponentDrill
T5C0.1260
%
G90
G05
T1
X3.2Y-2.42
X3.875Y-2.36
X4.02Y-2.58
X4.08Y-2.6
T2
X2.9Y-2.8
X2.92Y-2.24
X2.92Y-2.34
X3.0Y-2.8
X3.1Y-2.8
X3.9Y-2.8
X4.0Y-2.8
X4.1Y-2.8
T3
X3.3324Y-1.6107
X3.3324Y-1.8091
X3.3324Y-2.0076
X3.3324Y-2.6083
X3.6276Y-1.6107
X3.6276Y-1.8091
X3.6276Y-2.0076
X3.6276Y-2.6083
T4
X2.6382Y-1.7459
X2.8382Y-1.7459
X3.0382Y-1.7459
X3.97Y-1.75
X4.17Y-1.75
X4.37Y-1.75
T5
X2.64Y-2.2
X4.38Y-2.2
M30
