%TF.GenerationSoftware,KiCad,Pcbnew,9.0.3*%
%TF.CreationDate,2025-12-07T20:19:00-06:00*%
%TF.ProjectId,AmmeterRelays,416d6d65-7465-4725-9265-6c6179732e6b,rev?*%
%TF.SameCoordinates,Original*%
%TF.FileFunction,Copper,L1,Top*%
%TF.FilePolarity,Positive*%
%FSLAX46Y46*%
G04 Gerber Fmt 4.6, Leading zero omitted, Abs format (unit mm)*
G04 Created by KiCad (PCBNEW 9.0.3) date 2025-12-07 20:19:00*
%MOMM*%
%LPD*%
G01*
G04 APERTURE LIST*
G04 Aperture macros list*
%AMRoundRect*
0 Rectangle with rounded corners*
0 $1 Rounding radius*
0 $2 $3 $4 $5 $6 $7 $8 $9 X,Y pos of 4 corners*
0 Add a 4 corners polygon primitive as box body*
4,1,4,$2,$3,$4,$5,$6,$7,$8,$9,$2,$3,0*
0 Add four circle primitives for the rounded corners*
1,1,$1+$1,$2,$3*
1,1,$1+$1,$4,$5*
1,1,$1+$1,$6,$7*
1,1,$1+$1,$8,$9*
0 Add four rect primitives between the rounded corners*
20,1,$1+$1,$2,$3,$4,$5,0*
20,1,$1+$1,$4,$5,$6,$7,0*
20,1,$1+$1,$6,$7,$8,$9,0*
20,1,$1+$1,$8,$9,$2,$3,0*%
G04 Aperture macros list end*
%TA.AperFunction,ComponentPad*%
%ADD10R,1.700000X1.700000*%
%TD*%
%TA.AperFunction,ComponentPad*%
%ADD11C,1.700000*%
%TD*%
%TA.AperFunction,ComponentPad*%
%ADD12RoundRect,0.250001X-0.949999X-0.949999X0.949999X-0.949999X0.949999X0.949999X-0.949999X0.949999X0*%
%TD*%
%TA.AperFunction,ComponentPad*%
%ADD13C,2.400000*%
%TD*%
%TA.AperFunction,ComponentPad*%
%ADD14O,3.000000X2.000000*%
%TD*%
%TA.AperFunction,ComponentPad*%
%ADD15R,2.000000X3.000000*%
%TD*%
%TA.AperFunction,ComponentPad*%
%ADD16O,2.000000X3.000000*%
%TD*%
%TA.AperFunction,ComponentPad*%
%ADD17C,3.600000*%
%TD*%
%TA.AperFunction,ConnectorPad*%
%ADD18C,5.600000*%
%TD*%
%TA.AperFunction,SMDPad,CuDef*%
%ADD19RoundRect,0.150000X-0.150000X0.825000X-0.150000X-0.825000X0.150000X-0.825000X0.150000X0.825000X0*%
%TD*%
%TA.AperFunction,SMDPad,CuDef*%
%ADD20RoundRect,0.250000X0.475000X-0.337500X0.475000X0.337500X-0.475000X0.337500X-0.475000X-0.337500X0*%
%TD*%
%TA.AperFunction,SMDPad,CuDef*%
%ADD21RoundRect,0.150000X-0.150000X0.512500X-0.150000X-0.512500X0.150000X-0.512500X0.150000X0.512500X0*%
%TD*%
%TA.AperFunction,SMDPad,CuDef*%
%ADD22RoundRect,0.250000X-0.475000X0.337500X-0.475000X-0.337500X0.475000X-0.337500X0.475000X0.337500X0*%
%TD*%
%TA.AperFunction,ViaPad*%
%ADD23C,0.600000*%
%TD*%
%TA.AperFunction,Conductor*%
%ADD24C,1.200000*%
%TD*%
%TA.AperFunction,Conductor*%
%ADD25C,0.200000*%
%TD*%
%TA.AperFunction,Conductor*%
%ADD26C,1.500000*%
%TD*%
%TA.AperFunction,Conductor*%
%ADD27C,1.000000*%
%TD*%
G04 APERTURE END LIST*
D10*
%TO.P,JP1,1,A*%
%TO.N,GNDPWR*%
X74168000Y-59436000D03*
D11*
%TO.P,JP1,2,B*%
%TO.N,GND*%
X74168000Y-56896000D03*
%TD*%
D12*
%TO.P,J5,1,Pin_1*%
%TO.N,Net-(J5-Pin_1)*%
X67010000Y-44346500D03*
D13*
%TO.P,J5,2,Pin_2*%
%TO.N,Net-(J5-Pin_2)*%
X72090000Y-44346500D03*
%TO.P,J5,3,Pin_3*%
%TO.N,Net-(J5-Pin_3)*%
X77170000Y-44346500D03*
%TD*%
D14*
%TO.P,K1,11*%
%TO.N,Net-(K1-Pad11)*%
X92142000Y-45952000D03*
%TO.P,K1,12*%
%TO.N,Net-(J1-Pin_3)*%
X92142000Y-50992000D03*
%TO.P,K1,14*%
%TO.N,Net-(J1-Pin_1)*%
X92142000Y-40912000D03*
%TO.P,K1,21*%
%TO.N,Net-(J5-Pin_2)*%
X84642000Y-45952000D03*
%TO.P,K1,22*%
%TO.N,Net-(J5-Pin_3)*%
X84642000Y-50992000D03*
%TO.P,K1,24*%
%TO.N,Net-(J5-Pin_1)*%
X84642000Y-40912000D03*
D15*
%TO.P,K1,A1*%
%TO.N,Net-(Q1-D)*%
X92142000Y-66252000D03*
D16*
%TO.P,K1,A2*%
%TO.N,Net-(J2-Pin_1)*%
X84642000Y-66252000D03*
%TD*%
D17*
%TO.P,H1,1*%
%TO.N,N/C*%
X67056000Y-55880000D03*
D18*
X67056000Y-55880000D03*
%TD*%
D19*
%TO.P,U1,1,IP+*%
%TO.N,Net-(J1-Pin_2)*%
X102235000Y-53151000D03*
%TO.P,U1,2,IP+*%
X100965000Y-53151000D03*
%TO.P,U1,3,IP-*%
%TO.N,Net-(K1-Pad11)*%
X99695000Y-53151000D03*
%TO.P,U1,4,IP-*%
X98425000Y-53151000D03*
%TO.P,U1,5,GND*%
%TO.N,GND*%
X98425000Y-58101000D03*
%TO.P,U1,6,FILTER*%
%TO.N,Net-(U1-FILTER)*%
X99695000Y-58101000D03*
%TO.P,U1,7,VIOUT*%
%TO.N,Net-(J3-Pin_3)*%
X100965000Y-58101000D03*
%TO.P,U1,8,VCC*%
%TO.N,Net-(J3-Pin_2)*%
X102235000Y-58101000D03*
%TD*%
D20*
%TO.P,C1,1*%
%TO.N,Net-(U1-FILTER)*%
X98298000Y-63775500D03*
%TO.P,C1,2*%
%TO.N,GND*%
X98298000Y-61700500D03*
%TD*%
D10*
%TO.P,J2,1,Pin_1*%
%TO.N,Net-(J2-Pin_1)*%
X73660000Y-71120000D03*
D11*
%TO.P,J2,2,Pin_2*%
%TO.N,GNDPWR*%
X76200000Y-71120000D03*
%TO.P,J2,3,Pin_3*%
%TO.N,Net-(J2-Pin_3)*%
X78740000Y-71120000D03*
%TD*%
D17*
%TO.P,H2,1*%
%TO.N,N/C*%
X111252000Y-55880000D03*
D18*
X111252000Y-55880000D03*
%TD*%
D10*
%TO.P,J3,1,Pin_1*%
%TO.N,GND*%
X99060000Y-71120000D03*
D11*
%TO.P,J3,2,Pin_2*%
%TO.N,Net-(J3-Pin_2)*%
X101600000Y-71120000D03*
%TO.P,J3,3,Pin_3*%
%TO.N,Net-(J3-Pin_3)*%
X104140000Y-71120000D03*
%TD*%
D21*
%TO.P,Q1,1,G*%
%TO.N,Net-(J2-Pin_3)*%
X79756000Y-59944000D03*
%TO.P,Q1,2,S*%
%TO.N,GNDPWR*%
X77856000Y-59944000D03*
%TO.P,Q1,3,D*%
%TO.N,Net-(Q1-D)*%
X78806000Y-62219000D03*
%TD*%
D12*
%TO.P,J1,1,Pin_1*%
%TO.N,Net-(J1-Pin_1)*%
X100838000Y-44450000D03*
D13*
%TO.P,J1,2,Pin_2*%
%TO.N,Net-(J1-Pin_2)*%
X105918000Y-44450000D03*
%TO.P,J1,3,Pin_3*%
%TO.N,Net-(J1-Pin_3)*%
X110998000Y-44450000D03*
%TD*%
D22*
%TO.P,C2,1*%
%TO.N,Net-(J3-Pin_2)*%
X102362000Y-61700500D03*
%TO.P,C2,2*%
%TO.N,GND*%
X102362000Y-63775500D03*
%TD*%
D23*
%TO.N,Net-(J2-Pin_3)*%
X81280000Y-61468000D03*
%TO.N,GND*%
X98425000Y-59944000D03*
X102108000Y-65532000D03*
%TO.N,Net-(J3-Pin_2)*%
X103632000Y-66040000D03*
%TD*%
D24*
%TO.N,Net-(J5-Pin_3)*%
X83815500Y-50992000D02*
X84642000Y-50992000D01*
X77170000Y-44346500D02*
X83815500Y-50992000D01*
%TO.N,Net-(J5-Pin_1)*%
X71224500Y-40132000D02*
X67010000Y-44346500D01*
X83862000Y-40132000D02*
X71224500Y-40132000D01*
X84642000Y-40912000D02*
X83862000Y-40132000D01*
D25*
%TO.N,Net-(J2-Pin_3)*%
X81280000Y-61468000D02*
X79756000Y-59944000D01*
%TO.N,GNDPWR*%
X77348000Y-59436000D02*
X77856000Y-59944000D01*
X74168000Y-59436000D02*
X77348000Y-59436000D01*
X77856000Y-69464000D02*
X77856000Y-59944000D01*
X76200000Y-71120000D02*
X77856000Y-69464000D01*
%TO.N,Net-(J2-Pin_1)*%
X81280000Y-72644000D02*
X84642000Y-69282000D01*
X84642000Y-69282000D02*
X84642000Y-66252000D01*
X75184000Y-72644000D02*
X81280000Y-72644000D01*
X73660000Y-71120000D02*
X75184000Y-72644000D01*
%TO.N,Net-(Q1-D)*%
X88109000Y-62219000D02*
X92142000Y-66252000D01*
X78806000Y-62219000D02*
X88109000Y-62219000D01*
%TO.N,GND*%
X102362000Y-65278000D02*
X102108000Y-65532000D01*
X102362000Y-63775500D02*
X102362000Y-65278000D01*
%TO.N,Net-(J3-Pin_2)*%
X103632000Y-62970500D02*
X103632000Y-66040000D01*
X102362000Y-61700500D02*
X103632000Y-62970500D01*
%TO.N,Net-(J3-Pin_3)*%
X100965000Y-67945000D02*
X104140000Y-71120000D01*
X100965000Y-58101000D02*
X100965000Y-67945000D01*
%TO.N,GND*%
X98425000Y-58101000D02*
X98425000Y-61573500D01*
X98425000Y-61573500D02*
X98298000Y-61700500D01*
X74168000Y-56896000D02*
X75373000Y-58101000D01*
X75373000Y-58101000D02*
X98425000Y-58101000D01*
D26*
%TO.N,Net-(J1-Pin_1)*%
X99060000Y-42672000D02*
X100838000Y-44450000D01*
X92142000Y-40912000D02*
X93902000Y-42672000D01*
X93902000Y-42672000D02*
X99060000Y-42672000D01*
%TO.N,Net-(K1-Pad11)*%
X98425000Y-50906001D02*
X98425000Y-53151000D01*
X92142000Y-45952000D02*
X93470999Y-45952000D01*
X93470999Y-45952000D02*
X98425000Y-50906001D01*
D25*
%TO.N,Net-(U1-FILTER)*%
X99695000Y-62378500D02*
X99695000Y-58101000D01*
X98298000Y-63775500D02*
X99695000Y-62378500D01*
D27*
%TO.N,Net-(J1-Pin_2)*%
X100965000Y-53151000D02*
X102235000Y-53151000D01*
D26*
X105918000Y-49468000D02*
X105918000Y-44450000D01*
X102235000Y-53151000D02*
X105918000Y-49468000D01*
D25*
%TO.N,Net-(J3-Pin_2)*%
X102235000Y-61573500D02*
X102362000Y-61700500D01*
X102235000Y-58101000D02*
X102235000Y-61573500D01*
%TD*%
%TA.AperFunction,Conductor*%
%TO.N,Net-(K1-Pad11)*%
G36*
X99969538Y-50276791D02*
G01*
X100033118Y-50305758D01*
X100070946Y-50364502D01*
X100076000Y-50399544D01*
X100076000Y-51554869D01*
X100056315Y-51621908D01*
X100003511Y-51667663D01*
X99945949Y-51677825D01*
X99945000Y-51678703D01*
X99945000Y-54623295D01*
X99946103Y-54624314D01*
X100010650Y-54637875D01*
X100060406Y-54686927D01*
X100076000Y-54747128D01*
X100076000Y-54994000D01*
X100056315Y-55061039D01*
X100003511Y-55106794D01*
X99952000Y-55118000D01*
X96644000Y-55118000D01*
X96576961Y-55098315D01*
X96531206Y-55045511D01*
X96520000Y-54994000D01*
X96520000Y-54041649D01*
X97625000Y-54041649D01*
X97627899Y-54078489D01*
X97627900Y-54078495D01*
X97673716Y-54236193D01*
X97673717Y-54236196D01*
X97757314Y-54377552D01*
X97757321Y-54377561D01*
X97873438Y-54493678D01*
X97873447Y-54493685D01*
X98014801Y-54577281D01*
X98172514Y-54623100D01*
X98172511Y-54623100D01*
X98174998Y-54623295D01*
X98175000Y-54623295D01*
X98675000Y-54623295D01*
X98675001Y-54623295D01*
X98677486Y-54623100D01*
X98835198Y-54577281D01*
X98976552Y-54493685D01*
X98982722Y-54488900D01*
X98984546Y-54491252D01*
X99033595Y-54464445D01*
X99103288Y-54469402D01*
X99136063Y-54490465D01*
X99137278Y-54488900D01*
X99143447Y-54493685D01*
X99284801Y-54577281D01*
X99442514Y-54623100D01*
X99442511Y-54623100D01*
X99444998Y-54623295D01*
X99445000Y-54623295D01*
X99445000Y-53401000D01*
X98675000Y-53401000D01*
X98675000Y-54623295D01*
X98175000Y-54623295D01*
X98175000Y-53401000D01*
X97625000Y-53401000D01*
X97625000Y-54041649D01*
X96520000Y-54041649D01*
X96520000Y-52260350D01*
X97625000Y-52260350D01*
X97625000Y-52901000D01*
X98175000Y-52901000D01*
X98175000Y-51678703D01*
X98675000Y-51678703D01*
X98675000Y-52901000D01*
X99445000Y-52901000D01*
X99445000Y-51678703D01*
X99442503Y-51678900D01*
X99284806Y-51724716D01*
X99284803Y-51724717D01*
X99143447Y-51808314D01*
X99137278Y-51813100D01*
X99135457Y-51810753D01*
X99086358Y-51837564D01*
X99016666Y-51832580D01*
X98983930Y-51811541D01*
X98982722Y-51813100D01*
X98976552Y-51808314D01*
X98835196Y-51724717D01*
X98835193Y-51724716D01*
X98677494Y-51678900D01*
X98677497Y-51678900D01*
X98675000Y-51678703D01*
X98175000Y-51678703D01*
X98172503Y-51678900D01*
X98014806Y-51724716D01*
X98014803Y-51724717D01*
X97873447Y-51808314D01*
X97873438Y-51808321D01*
X97757321Y-51924438D01*
X97757314Y-51924447D01*
X97673717Y-52065803D01*
X97673716Y-52065806D01*
X97627900Y-52223504D01*
X97627899Y-52223510D01*
X97625000Y-52260350D01*
X96520000Y-52260350D01*
X96520000Y-49926973D01*
X96539685Y-49859934D01*
X96592489Y-49814179D01*
X96661534Y-49804219D01*
X99969538Y-50276791D01*
G37*
%TD.AperFunction*%
%TD*%
%TA.AperFunction,Conductor*%
%TO.N,Net-(J1-Pin_2)*%
G36*
X107893039Y-42437685D02*
G01*
X107938794Y-42490489D01*
X107950000Y-42542000D01*
X107950000Y-50007230D01*
X107930315Y-50074269D01*
X107911699Y-50096850D01*
X105687741Y-52223510D01*
X102736630Y-55045511D01*
X102696777Y-55083620D01*
X102634720Y-55115725D01*
X102611078Y-55118000D01*
X100705500Y-55118000D01*
X100696814Y-55115449D01*
X100687853Y-55116738D01*
X100663812Y-55105759D01*
X100638461Y-55098315D01*
X100632533Y-55091474D01*
X100624297Y-55087713D01*
X100610007Y-55065478D01*
X100592706Y-55045511D01*
X100590418Y-55034996D01*
X100586523Y-55028935D01*
X100581500Y-54994000D01*
X100581500Y-54746931D01*
X100601185Y-54679892D01*
X100653989Y-54634137D01*
X100714922Y-54623367D01*
X100715000Y-54623295D01*
X101215000Y-54623295D01*
X101215001Y-54623295D01*
X101217486Y-54623100D01*
X101375198Y-54577281D01*
X101516552Y-54493685D01*
X101522722Y-54488900D01*
X101524546Y-54491252D01*
X101573595Y-54464445D01*
X101643288Y-54469402D01*
X101676063Y-54490465D01*
X101677278Y-54488900D01*
X101683447Y-54493685D01*
X101824801Y-54577281D01*
X101982514Y-54623100D01*
X101982511Y-54623100D01*
X101984998Y-54623295D01*
X101985000Y-54623295D01*
X102485000Y-54623295D01*
X102485001Y-54623295D01*
X102487486Y-54623100D01*
X102645198Y-54577281D01*
X102786552Y-54493685D01*
X102786561Y-54493678D01*
X102902678Y-54377561D01*
X102902685Y-54377552D01*
X102986282Y-54236196D01*
X102986283Y-54236193D01*
X103032099Y-54078495D01*
X103032100Y-54078489D01*
X103034999Y-54041649D01*
X103035000Y-54041634D01*
X103035000Y-53401000D01*
X102485000Y-53401000D01*
X102485000Y-54623295D01*
X101985000Y-54623295D01*
X101985000Y-53401000D01*
X101215000Y-53401000D01*
X101215000Y-54623295D01*
X100715000Y-54623295D01*
X100715000Y-51699751D01*
X100674501Y-51678703D01*
X101215000Y-51678703D01*
X101215000Y-52901000D01*
X101985000Y-52901000D01*
X102485000Y-52901000D01*
X103035000Y-52901000D01*
X103035000Y-52260365D01*
X103034999Y-52260350D01*
X103032100Y-52223510D01*
X103032099Y-52223504D01*
X102986283Y-52065806D01*
X102986282Y-52065803D01*
X102902685Y-51924447D01*
X102902678Y-51924438D01*
X102786561Y-51808321D01*
X102786552Y-51808314D01*
X102645196Y-51724717D01*
X102645193Y-51724716D01*
X102487494Y-51678900D01*
X102487497Y-51678900D01*
X102485000Y-51678703D01*
X102485000Y-52901000D01*
X101985000Y-52901000D01*
X101985000Y-51678703D01*
X101982503Y-51678900D01*
X101824806Y-51724716D01*
X101824803Y-51724717D01*
X101683447Y-51808314D01*
X101677278Y-51813100D01*
X101675457Y-51810753D01*
X101626358Y-51837564D01*
X101556666Y-51832580D01*
X101523930Y-51811541D01*
X101522722Y-51813100D01*
X101516552Y-51808314D01*
X101375196Y-51724717D01*
X101375193Y-51724716D01*
X101217494Y-51678900D01*
X101217497Y-51678900D01*
X101215000Y-51678703D01*
X100674501Y-51678703D01*
X100648316Y-51665094D01*
X100647712Y-51664515D01*
X100646892Y-51664343D01*
X100622519Y-51640333D01*
X100597909Y-51616712D01*
X100597714Y-51615898D01*
X100597117Y-51615310D01*
X100581500Y-51555067D01*
X100581500Y-51042432D01*
X100601185Y-50975393D01*
X100653989Y-50929638D01*
X100660978Y-50926700D01*
X103632000Y-49784000D01*
X103886000Y-48768001D01*
X103886000Y-44338575D01*
X104218000Y-44338575D01*
X104218000Y-44561424D01*
X104247085Y-44782354D01*
X104247088Y-44782367D01*
X104304763Y-44997618D01*
X104390045Y-45203502D01*
X104390054Y-45203520D01*
X104501464Y-45396491D01*
X104501473Y-45396504D01*
X104552040Y-45462403D01*
X104552043Y-45462403D01*
X105202152Y-44812293D01*
X105209049Y-44828942D01*
X105296599Y-44959970D01*
X105408030Y-45071401D01*
X105539058Y-45158951D01*
X105555705Y-45165846D01*
X104905595Y-45815955D01*
X104905595Y-45815956D01*
X104971507Y-45866533D01*
X105164485Y-45977949D01*
X105164497Y-45977954D01*
X105370381Y-46063236D01*
X105585632Y-46120911D01*
X105585645Y-46120914D01*
X105806575Y-46150000D01*
X106029425Y-46150000D01*
X106250354Y-46120914D01*
X106250367Y-46120911D01*
X106465618Y-46063236D01*
X106671502Y-45977954D01*
X106671514Y-45977949D01*
X106864498Y-45866530D01*
X106930403Y-45815957D01*
X106930404Y-45815956D01*
X106280294Y-45165846D01*
X106296942Y-45158951D01*
X106427970Y-45071401D01*
X106539401Y-44959970D01*
X106626951Y-44828942D01*
X106633846Y-44812294D01*
X107283956Y-45462404D01*
X107283957Y-45462403D01*
X107334530Y-45396498D01*
X107445949Y-45203514D01*
X107445954Y-45203502D01*
X107531236Y-44997618D01*
X107588911Y-44782367D01*
X107588914Y-44782354D01*
X107618000Y-44561424D01*
X107618000Y-44338575D01*
X107588914Y-44117645D01*
X107588911Y-44117632D01*
X107531236Y-43902381D01*
X107445954Y-43696497D01*
X107445949Y-43696485D01*
X107334533Y-43503507D01*
X107283956Y-43437595D01*
X107283955Y-43437595D01*
X106633846Y-44087704D01*
X106626951Y-44071058D01*
X106539401Y-43940030D01*
X106427970Y-43828599D01*
X106296942Y-43741049D01*
X106280293Y-43734152D01*
X106930403Y-43084043D01*
X106930403Y-43084040D01*
X106864504Y-43033473D01*
X106864491Y-43033464D01*
X106671520Y-42922054D01*
X106671502Y-42922045D01*
X106465618Y-42836763D01*
X106250367Y-42779088D01*
X106250354Y-42779085D01*
X106029425Y-42750000D01*
X105806575Y-42750000D01*
X105585645Y-42779085D01*
X105585632Y-42779088D01*
X105370381Y-42836763D01*
X105164497Y-42922045D01*
X105164479Y-42922054D01*
X104971511Y-43033462D01*
X104905595Y-43084042D01*
X105555706Y-43734152D01*
X105539058Y-43741049D01*
X105408030Y-43828599D01*
X105296599Y-43940030D01*
X105209049Y-44071058D01*
X105202153Y-44087706D01*
X104552042Y-43437595D01*
X104501462Y-43503511D01*
X104390054Y-43696479D01*
X104390045Y-43696497D01*
X104304763Y-43902381D01*
X104247088Y-44117632D01*
X104247085Y-44117645D01*
X104218000Y-44338575D01*
X103886000Y-44338575D01*
X103886000Y-42542000D01*
X103905685Y-42474961D01*
X103958489Y-42429206D01*
X104010000Y-42418000D01*
X107826000Y-42418000D01*
X107893039Y-42437685D01*
G37*
%TD.AperFunction*%
%TD*%
M02*
